<?xml version="1.0" encoding="UTF-8"?>
<svg xmlns="http://www.w3.org/2000/svg" xmlns:xlink="http://www.w3.org/1999/xlink" width="24px" height="24px" viewBox="0 0 24 12" version="1.1">
<defs>
<clipPath id="clip1">
  <path d="M 0 0 L 12 0 L 12 6 L 0 6 Z M 0 0 "/>
</clipPath>
<clipPath id="clip2">
  <path d="M 0 0 L 0 3 L 14 3 L 14 6 L 12 6 Z M 12 0 L 6 0 L 6 7 L 0 7 L 0 6 Z M 12 0 "/>
</clipPath>
<clipPath id="clip3">
  <path d="M 0 0 L 14 0 L 14 7 L 0 7 Z M 0 0 "/>
</clipPath>
<clipPath id="clip4">
  <path d="M 0 0 L 0 3 L 14 3 L 14 6 L 12 6 Z M 12 0 L 6 0 L 6 7 L 0 7 L 0 6 Z M 12 0 "/>
</clipPath>
</defs>
<g id="surface1">
<rect x="0" y="0" width="24" height="12" style="fill:rgb(0.392157%,12.941176%,41.176471%);fill-opacity:1;stroke:none;"/>
<path style="fill-rule:nonzero;fill:rgb(0%,0%,0%);fill-opacity:1;stroke-width:60;stroke-linecap:butt;stroke-linejoin:miter;stroke:rgb(100%,100%,100%);stroke-opacity:1;stroke-miterlimit:4;" d="M 0 0 L 600 300 M 600 0 L 0 300 " transform="matrix(0.02,0,0,0.02,0,0)"/>
<g clip-path="url(#clip1)" clip-rule="nonzero">
<g clip-path="url(#clip2)" clip-rule="nonzero">
<path style=" stroke:none;fill-rule:nonzero;fill:rgb(0%,0%,0%);fill-opacity:1;" d="M 0 0 L 12 6 M 12 0 L 0 6 "/>
</g>
</g>
<g clip-path="url(#clip3)" clip-rule="nonzero">
<g clip-path="url(#clip4)" clip-rule="nonzero">
<path style="fill:none;stroke-width:40;stroke-linecap:butt;stroke-linejoin:miter;stroke:rgb(78.431373%,6.27451%,18.039216%);stroke-opacity:1;stroke-miterlimit:4;" d="M 0 0 L 600 300 M 600 0 L 0 300 " transform="matrix(0.02,0,0,0.02,0,0)"/>
</g>
</g>
<path style="fill-rule:nonzero;fill:rgb(0%,0%,0%);fill-opacity:1;stroke-width:100;stroke-linecap:butt;stroke-linejoin:miter;stroke:rgb(100%,100%,100%);stroke-opacity:1;stroke-miterlimit:4;" d="M 300 0 L 300 350 M 0 150 L 700 150 " transform="matrix(0.02,0,0,0.02,0,0)"/>
<path style="fill-rule:nonzero;fill:rgb(0%,0%,0%);fill-opacity:1;stroke-width:60;stroke-linecap:butt;stroke-linejoin:miter;stroke:rgb(78.431373%,6.27451%,18.039216%);stroke-opacity:1;stroke-miterlimit:4;" d="M 300 0 L 300 350 M 0 150 L 700 150 " transform="matrix(0.02,0,0,0.02,0,0)"/>
<path style=" stroke:none;fill-rule:nonzero;fill:rgb(0.392157%,12.941176%,41.176471%);fill-opacity:1;" d="M 0 6 L 12 6 L 12 0 L 16 0 L 16 8 L 0 8 Z M 0 6 "/>
<path style=" stroke:none;fill-rule:nonzero;fill:rgb(80%,80%,20%);fill-opacity:1;" d="M 15.613281 3.082031 C 15.613281 6.058594 15.847656 7.113281 16.664062 7.929688 C 17.476562 8.746094 17.785156 8.875 18.015625 9 C 18.277344 8.855469 18.578125 8.699219 19.316406 7.957031 C 20.046875 7.230469 20.398438 6.175781 20.398438 3.03125 C 19.867188 3.257812 19.605469 3.332031 19.140625 3.332031 C 18.796875 3.363281 18.265625 3.144531 17.949219 3 C 17.738281 3.132812 17.4375 3.289062 16.898438 3.308594 C 16.273438 3.332031 16.078125 3.234375 15.613281 3.082031 Z M 15.613281 3.082031 "/>
<path style=" stroke:none;fill-rule:nonzero;fill:rgb(100%,100%,100%);fill-opacity:1;" d="M 15.753906 3.269531 C 15.753906 4.191406 15.699219 5.445312 15.894531 6.171875 C 16.089844 6.898438 16.136719 7.007812 16.28125 7.261719 L 19.707031 7.234375 C 19.917969 6.871094 19.929688 6.644531 20.085938 6.058594 C 20.242188 5.472656 20.28125 4.171875 20.285156 3.207031 C 19.941406 3.378906 19.492188 3.503906 19.054688 3.449219 C 18.703125 3.421875 18.378906 3.347656 18 3.144531 C 17.671875 3.332031 17.558594 3.417969 17.019531 3.4375 C 16.597656 3.457031 16.257812 3.492188 15.753906 3.269531 Z M 15.753906 3.269531 "/>
<path style=" stroke:none;fill-rule:nonzero;fill:rgb(60%,80%,100%);fill-opacity:1;" d="M 16.289062 7.242188 C 16.535156 7.730469 17.683594 8.667969 18.019531 8.859375 C 18.402344 8.640625 19.414062 7.714844 19.699219 7.242188 Z M 16.289062 7.242188 "/>
<path style=" stroke:none;fill-rule:nonzero;fill:rgb(100%,60%,0%);fill-opacity:1;" d="M 18.085938 4.632812 C 18.191406 4.875 18.539062 5.144531 18.636719 5.273438 C 18.515625 5.40625 18.488281 5.390625 18.503906 5.636719 C 18.714844 5.425781 18.71875 5.402344 18.855469 5.433594 C 19.152344 5.71875 18.910156 6.324219 18.664062 6.457031 C 18.417969 6.597656 18.460938 6.453125 18.09375 6.628906 C 18.261719 6.769531 18.457031 6.609375 18.617188 6.652344 C 18.707031 6.75 18.578125 6.929688 18.644531 7.097656 C 18.785156 7.085938 18.769531 6.8125 18.800781 6.714844 C 18.90625 6.351562 19.527344 6.101562 19.558594 5.769531 C 19.6875 5.710938 19.820312 5.75 19.980469 5.835938 C 19.898438 5.527344 19.636719 5.527344 19.566406 5.433594 C 19.398438 5.1875 19.25 4.910156 18.894531 4.835938 C 18.621094 4.78125 18.644531 4.855469 18.46875 4.742188 C 18.359375 4.660156 18.03125 4.507812 18.085938 4.632812 Z M 18.085938 4.632812 "/>
<path style=" stroke:none;fill-rule:nonzero;fill:rgb(100%,60%,0%);fill-opacity:1;" d="M 17.214844 5.664062 C 17.390625 5.457031 17.476562 5.039062 17.554688 4.898438 C 17.734375 4.9375 17.730469 4.964844 17.949219 4.839844 C 17.65625 4.757812 17.632812 4.765625 17.601562 4.636719 C 17.722656 4.253906 18.402344 4.175781 18.640625 4.320312 C 18.886719 4.460938 18.730469 4.492188 19.066406 4.722656 C 19.113281 4.515625 18.875 4.421875 18.839844 4.269531 C 18.890625 4.148438 19.117188 4.171875 19.242188 4.039062 C 19.164062 3.925781 18.917969 4.066406 18.8125 4.085938 C 18.429688 4.167969 17.90625 3.761719 17.582031 3.890625 C 17.46875 3.804688 17.445312 3.675781 17.449219 3.503906 C 17.199219 3.714844 17.324219 3.933594 17.265625 4.039062 C 17.117188 4.292969 16.929688 4.546875 17.03125 4.882812 C 17.105469 5.136719 17.160156 5.085938 17.136719 5.285156 C 17.113281 5.414062 17.128906 5.765625 17.214844 5.664062 Z M 17.214844 5.664062 "/>
<path style=" stroke:none;fill-rule:nonzero;fill:rgb(100%,60%,0%);fill-opacity:1;" d="M 18.636719 5.804688 C 18.359375 5.769531 17.941406 5.914062 17.773438 5.925781 C 17.71875 5.757812 17.742188 5.746094 17.515625 5.632812 C 17.597656 5.914062 17.613281 5.929688 17.515625 6.023438 C 17.109375 6.121094 16.6875 5.609375 16.695312 5.339844 C 16.695312 5.066406 16.804688 5.175781 16.835938 4.785156 C 16.625 4.851562 16.664062 5.09375 16.542969 5.203125 C 16.410156 5.222656 16.316406 5.027344 16.128906 4.992188 C 16.066406 5.117188 16.320312 5.242188 16.394531 5.320312 C 16.664062 5.589844 16.570312 6.226562 16.855469 6.425781 C 16.839844 6.5625 16.734375 6.648438 16.578125 6.734375 C 16.898438 6.828125 17.027344 6.613281 17.152344 6.605469 C 17.457031 6.59375 17.785156 6.617188 18.035156 6.363281 C 18.222656 6.167969 18.148438 6.148438 18.339844 6.0625 C 18.46875 6.015625 18.773438 5.828125 18.636719 5.804688 Z M 18.636719 5.804688 "/>
<path style=" stroke:none;fill-rule:nonzero;fill:rgb(100%,100%,100%);fill-opacity:1;" d="M 18.863281 4.910156 C 18.863281 4.9375 18.839844 4.960938 18.808594 4.960938 C 18.777344 4.960938 18.75 4.9375 18.75 4.910156 C 18.75 4.878906 18.777344 4.855469 18.808594 4.855469 C 18.839844 4.855469 18.863281 4.878906 18.863281 4.910156 Z M 18.863281 4.910156 "/>
<path style=" stroke:none;fill-rule:nonzero;fill:rgb(100%,100%,100%);fill-opacity:1;" d="M 17.109375 4.875 C 17.136719 4.859375 17.171875 4.871094 17.183594 4.898438 C 17.199219 4.925781 17.1875 4.957031 17.160156 4.96875 C 17.132812 4.984375 17.097656 4.972656 17.085938 4.949219 C 17.070312 4.921875 17.082031 4.890625 17.109375 4.875 Z M 17.109375 4.875 "/>
<path style=" stroke:none;fill-rule:nonzero;fill:rgb(100%,100%,100%);fill-opacity:1;" d="M 17.984375 6.300781 C 17.957031 6.285156 17.949219 6.253906 17.964844 6.226562 C 17.980469 6.203125 18.015625 6.195312 18.042969 6.210938 C 18.070312 6.222656 18.078125 6.257812 18.0625 6.285156 C 18.046875 6.308594 18.011719 6.316406 17.984375 6.300781 Z M 17.984375 6.300781 "/>
</g>
</svg>
