<?xml version="1.0" encoding="UTF-8"?>
<svg xmlns="http://www.w3.org/2000/svg" xmlns:xlink="http://www.w3.org/1999/xlink" width="24px" height="24px" viewBox="0 0 24 17" version="1.1">
<g id="surface1">
<rect x="0" y="0" width="24" height="17" style="fill:rgb(100%,0%,0%);fill-opacity:1;stroke:none;"/>
<path style=" stroke:none;fill-rule:evenodd;fill:rgb(0%,0%,0%);fill-opacity:1;" d="M 12.648438 12.847656 C 12.5 12.714844 12.316406 12.453125 12.320312 12.203125 C 12.332031 12.011719 12.460938 11.902344 12.546875 12.132812 C 12.664062 12.386719 12.921875 12.808594 13.273438 12.5625 C 13.425781 12.449219 13.425781 12.285156 13.214844 12.304688 C 12.953125 12.285156 12.792969 12.144531 12.675781 11.777344 C 12.65625 11.578125 12.738281 11.582031 12.859375 11.710938 C 13.007812 11.882812 13.308594 12.144531 13.640625 12.003906 C 13.828125 11.925781 13.878906 11.769531 13.601562 11.730469 C 13.335938 11.734375 13.121094 11.5625 12.90625 11.304688 C 12.789062 11.160156 12.960938 11.015625 13.066406 11.140625 C 13.160156 11.21875 13.289062 11.363281 13.402344 11.382812 C 13.53125 11.410156 13.691406 11.398438 13.867188 11.304688 C 14.058594 11.144531 13.996094 11.03125 13.765625 11.003906 C 13.585938 11.011719 13.488281 11.082031 13.253906 10.929688 C 12.839844 10.648438 12.507812 10.273438 12.453125 9.828125 C 12.421875 9.53125 12.582031 9.441406 12.714844 9.476562 C 13.074219 9.566406 13.3125 10.238281 13.5625 10.609375 C 13.644531 10.714844 13.71875 10.714844 13.773438 10.683594 C 13.875 10.597656 13.953125 10.527344 14.054688 10.429688 C 14.054688 10.429688 14.792969 10.5625 15.191406 10.691406 L 14.746094 10.851562 C 14.578125 10.757812 14.371094 10.855469 14.371094 11.019531 C 14.214844 11.128906 14.226562 11.257812 14.292969 11.378906 C 14.316406 11.292969 14.332031 11.183594 14.460938 11.167969 C 14.640625 11.242188 14.851562 11.136719 14.851562 10.996094 L 15.378906 10.789062 L 15.910156 11.089844 C 15.910156 11.289062 16.101562 11.355469 16.304688 11.300781 C 16.398438 11.359375 16.460938 11.460938 16.492188 11.566406 C 16.550781 11.410156 16.539062 11.300781 16.445312 11.226562 C 16.5 11.023438 16.214844 10.828125 15.992188 10.960938 L 15.609375 10.742188 L 16.265625 10.722656 C 16.34375 10.855469 16.617188 10.863281 16.699219 10.722656 C 16.765625 10.703125 16.824219 10.691406 16.957031 10.789062 C 16.914062 10.632812 16.832031 10.5625 16.710938 10.5625 C 16.617188 10.398438 16.277344 10.398438 16.230469 10.585938 L 15.546875 10.601562 L 15.953125 10.316406 C 16.105469 10.40625 16.316406 10.308594 16.359375 10.148438 C 16.417969 10.074219 16.492188 10.042969 16.640625 10.089844 C 16.5625 9.957031 16.457031 9.917969 16.265625 10.007812 C 16.089844 9.875 15.859375 10.035156 15.894531 10.167969 L 15.355469 10.53125 C 14.964844 10.417969 14.257812 10.238281 14.257812 10.238281 C 14.339844 10.148438 14.425781 10.066406 14.511719 9.976562 C 14.539062 9.925781 14.496094 9.863281 14.429688 9.851562 C 13.796875 9.722656 13.433594 9.46875 13.214844 8.828125 C 13.125 8.558594 13.324219 8.476562 13.390625 8.640625 C 13.484375 8.871094 13.589844 9.121094 13.875 9.316406 C 13.972656 9.382812 14.261719 9.328125 14.089844 9.164062 C 13.910156 9.019531 13.835938 8.957031 13.746094 8.601562 C 13.746094 8.421875 13.929688 8.34375 14.035156 8.515625 C 14.144531 8.867188 14.15625 9.019531 14.355469 9.246094 C 14.507812 9.417969 14.703125 9.535156 14.800781 9.53125 C 14.976562 9.53125 15.15625 9.339844 14.917969 9.203125 C 14.574219 9.066406 14.445312 8.878906 14.394531 8.703125 C 14.339844 8.390625 14.402344 8.238281 14.589844 8.390625 C 14.859375 8.695312 15.375 9.257812 15.640625 9.523438 C 15.945312 9.75 16.289062 9.757812 16.5625 9.527344 C 16.722656 9.347656 16.664062 9.152344 16.417969 9.195312 C 15.863281 9.242188 15.441406 8.964844 14.980469 8.226562 C 14.886719 8.058594 14.863281 7.820312 15.0625 7.996094 C 15.292969 8.308594 15.628906 8.570312 15.941406 8.683594 C 16.253906 8.792969 16.515625 8.734375 16.613281 8.636719 C 16.734375 8.515625 16.703125 8.210938 16.496094 8.285156 C 16.324219 8.34375 16.078125 8.359375 15.828125 8.265625 C 15.574219 8.164062 15.3125 7.953125 15.03125 7.597656 C 14.9375 7.394531 14.96875 7.222656 15.160156 7.328125 C 15.617188 7.710938 16.207031 8.023438 16.511719 7.835938 C 16.730469 7.699219 16.734375 7.347656 16.453125 7.371094 C 15.886719 7.445312 15.671875 7.324219 15.128906 6.847656 C 15.003906 6.753906 15.011719 6.519531 15.210938 6.667969 C 15.667969 6.960938 16.292969 7.078125 16.539062 6.925781 C 16.757812 6.785156 16.726562 6.367188 16.355469 6.515625 C 16.058594 6.695312 15.730469 6.691406 15.070312 6.226562 C 14.90625 6.085938 15.027344 5.910156 15.164062 5.984375 C 15.695312 6.285156 16.464844 6.414062 16.664062 5.804688 C 16.742188 5.574219 16.601562 5.4375 16.394531 5.597656 C 15.941406 6.015625 15.425781 5.808594 15.136719 5.601562 C 15.054688 5.550781 14.902344 5.308594 15.167969 5.351562 C 15.859375 5.507812 16.539062 5.371094 16.664062 4.886719 C 16.734375 4.730469 16.59375 4.453125 16.34375 4.6875 C 16.011719 5.011719 15.660156 5.023438 15.21875 5.019531 C 14.996094 4.972656 14.992188 4.726562 15.179688 4.691406 C 15.53125 4.699219 15.871094 4.546875 16.148438 4.394531 C 16.417969 4.242188 16.640625 4.027344 16.710938 3.726562 C 16.753906 3.460938 16.496094 3.179688 16.339844 3.460938 C 16.109375 3.875 15.597656 4.265625 15.03125 4.335938 C 15 4.285156 14.925781 4.160156 14.832031 4.195312 C 14.667969 4.261719 14.46875 4.347656 14.265625 4.441406 C 13.824219 4.648438 13.640625 4.75 13.691406 5.109375 C 13.746094 5.484375 13.457031 5.71875 13.214844 5.652344 C 13.007812 5.597656 12.890625 5.410156 12.929688 5.085938 C 12.957031 4.824219 13.222656 4.511719 13.515625 4.347656 C 13.707031 4.238281 14 4.183594 14.347656 4.105469 C 14.558594 4.0625 14.667969 3.980469 14.679688 3.894531 C 14.679688 3.894531 14.535156 4 14.300781 3.984375 C 14.191406 3.976562 14.117188 3.929688 14.089844 3.882812 C 14.171875 3.863281 14.316406 3.882812 14.449219 3.882812 C 14.625 3.882812 15.03125 3.84375 15.136719 3.601562 C 15.171875 3.4375 15.066406 3.410156 14.964844 3.511719 C 14.859375 3.625 14.816406 3.722656 14.601562 3.761719 C 14.46875 3.785156 14.339844 3.8125 14.171875 3.769531 C 14.265625 3.660156 14.417969 3.546875 14.546875 3.566406 C 14.585938 3.574219 14.644531 3.613281 14.6875 3.683594 C 14.714844 3.503906 14.667969 3.308594 14.191406 3.390625 C 14.199219 3.257812 13.917969 3.199219 13.746094 3.203125 C 13.648438 3.203125 13.453125 3.261719 13.308594 3.328125 C 13.085938 3.398438 12.863281 3.449219 12.597656 3.464844 C 12.75 3.597656 12.78125 3.605469 12.933594 3.714844 C 12.703125 3.796875 12.523438 3.972656 12.441406 4.089844 C 12.441406 4.089844 12.710938 4.082031 12.78125 4.113281 C 12.5 4.195312 12.371094 4.242188 12.222656 4.394531 C 12.273438 4.402344 12.351562 4.417969 12.386719 4.429688 C 12.421875 4.445312 12.414062 4.464844 12.382812 4.488281 C 12.324219 4.535156 12.074219 4.820312 12 4.890625 C 11.925781 4.820312 11.675781 4.535156 11.617188 4.488281 C 11.585938 4.464844 11.578125 4.445312 11.613281 4.429688 C 11.648438 4.417969 11.726562 4.402344 11.777344 4.394531 C 11.628906 4.242188 11.5 4.195312 11.21875 4.113281 C 11.289062 4.082031 11.558594 4.089844 11.558594 4.089844 C 11.476562 3.972656 11.296875 3.796875 11.066406 3.714844 C 11.21875 3.605469 11.25 3.597656 11.402344 3.464844 C 11.136719 3.449219 10.914062 3.398438 10.691406 3.328125 C 10.546875 3.261719 10.351562 3.203125 10.253906 3.203125 C 10.082031 3.199219 9.800781 3.257812 9.808594 3.390625 C 9.332031 3.308594 9.285156 3.503906 9.3125 3.683594 C 9.355469 3.613281 9.414062 3.574219 9.453125 3.566406 C 9.582031 3.546875 9.734375 3.660156 9.828125 3.769531 C 9.660156 3.8125 9.53125 3.785156 9.398438 3.761719 C 9.183594 3.726562 9.140625 3.625 9.035156 3.511719 C 8.9375 3.410156 8.828125 3.4375 8.863281 3.601562 C 8.96875 3.84375 9.375 3.882812 9.550781 3.882812 C 9.683594 3.882812 9.828125 3.863281 9.910156 3.882812 C 9.882812 3.929688 9.808594 3.976562 9.699219 3.984375 C 9.464844 4 9.320312 3.894531 9.320312 3.894531 C 9.332031 3.980469 9.441406 4.0625 9.652344 4.105469 C 10 4.183594 10.292969 4.238281 10.484375 4.347656 C 10.777344 4.511719 11.042969 4.824219 11.070312 5.085938 C 11.109375 5.410156 10.992188 5.597656 10.785156 5.652344 C 10.542969 5.71875 10.253906 5.484375 10.308594 5.109375 C 10.359375 4.75 10.175781 4.648438 9.734375 4.441406 C 9.53125 4.347656 9.332031 4.261719 9.167969 4.195312 C 9.074219 4.160156 9 4.285156 8.96875 4.335938 C 8.402344 4.265625 7.890625 3.875 7.660156 3.460938 C 7.503906 3.179688 7.246094 3.460938 7.289062 3.726562 C 7.359375 4.027344 7.582031 4.242188 7.851562 4.394531 C 8.128906 4.546875 8.472656 4.699219 8.820312 4.691406 C 9.007812 4.726562 9.003906 4.972656 8.78125 5.019531 C 8.339844 5.023438 7.988281 5.011719 7.65625 4.6875 C 7.40625 4.453125 7.265625 4.730469 7.335938 4.886719 C 7.460938 5.371094 8.140625 5.507812 8.832031 5.351562 C 9.097656 5.308594 8.945312 5.550781 8.863281 5.601562 C 8.574219 5.808594 8.058594 6.015625 7.605469 5.597656 C 7.398438 5.4375 7.257812 5.574219 7.335938 5.804688 C 7.535156 6.414062 8.304688 6.285156 8.835938 5.984375 C 8.972656 5.910156 9.09375 6.085938 8.929688 6.226562 C 8.269531 6.691406 7.941406 6.695312 7.644531 6.515625 C 7.273438 6.367188 7.242188 6.785156 7.460938 6.925781 C 7.707031 7.078125 8.332031 6.960938 8.789062 6.667969 C 8.988281 6.519531 8.996094 6.753906 8.871094 6.847656 C 8.328125 7.324219 8.113281 7.445312 7.546875 7.371094 C 7.265625 7.347656 7.269531 7.699219 7.488281 7.835938 C 7.792969 8.023438 8.382812 7.710938 8.839844 7.328125 C 9.03125 7.222656 9.0625 7.394531 8.96875 7.597656 C 8.6875 7.953125 8.425781 8.164062 8.171875 8.265625 C 7.921875 8.359375 7.675781 8.34375 7.503906 8.285156 C 7.296875 8.210938 7.265625 8.515625 7.386719 8.636719 C 7.484375 8.734375 7.746094 8.792969 8.058594 8.683594 C 8.371094 8.570312 8.707031 8.304688 8.9375 7.996094 C 9.136719 7.820312 9.113281 8.058594 9.019531 8.226562 C 8.558594 8.964844 8.136719 9.242188 7.582031 9.195312 C 7.335938 9.152344 7.277344 9.347656 7.4375 9.527344 C 7.710938 9.757812 8.058594 9.75 8.359375 9.523438 C 8.625 9.257812 9.140625 8.695312 9.410156 8.390625 C 9.597656 8.238281 9.660156 8.390625 9.605469 8.703125 C 9.554688 8.878906 9.425781 9.066406 9.082031 9.203125 C 8.84375 9.339844 9.023438 9.53125 9.199219 9.53125 C 9.296875 9.535156 9.492188 9.417969 9.644531 9.246094 C 9.84375 9.019531 9.855469 8.867188 9.964844 8.515625 C 10.070312 8.34375 10.253906 8.421875 10.253906 8.601562 C 10.164062 8.957031 10.089844 9.019531 9.910156 9.164062 C 9.738281 9.328125 10.027344 9.382812 10.125 9.316406 C 10.410156 9.121094 10.515625 8.871094 10.609375 8.640625 C 10.675781 8.476562 10.875 8.558594 10.785156 8.828125 C 10.566406 9.46875 10.203125 9.722656 9.570312 9.851562 C 9.503906 9.863281 9.460938 9.925781 9.488281 9.976562 C 9.574219 10.066406 9.660156 10.148438 9.742188 10.238281 C 9.742188 10.238281 9.035156 10.417969 8.644531 10.53125 L 8.105469 10.167969 C 8.140625 10.035156 7.910156 9.875 7.734375 10.007812 C 7.542969 9.917969 7.4375 9.957031 7.359375 10.089844 C 7.507812 10.042969 7.582031 10.074219 7.640625 10.148438 C 7.683594 10.308594 7.894531 10.40625 8.046875 10.316406 L 8.453125 10.601562 L 7.769531 10.585938 C 7.722656 10.398438 7.382812 10.398438 7.289062 10.5625 C 7.167969 10.5625 7.085938 10.632812 7.042969 10.789062 C 7.175781 10.691406 7.234375 10.703125 7.300781 10.722656 C 7.382812 10.863281 7.65625 10.855469 7.734375 10.722656 L 8.390625 10.742188 L 8.007812 10.960938 C 7.785156 10.828125 7.5 11.023438 7.554688 11.226562 C 7.460938 11.300781 7.449219 11.410156 7.507812 11.566406 C 7.539062 11.460938 7.601562 11.359375 7.695312 11.300781 C 7.898438 11.355469 8.089844 11.289062 8.089844 11.089844 L 8.621094 10.789062 L 9.148438 10.996094 C 9.148438 11.136719 9.359375 11.242188 9.539062 11.167969 C 9.667969 11.183594 9.683594 11.292969 9.707031 11.378906 C 9.773438 11.257812 9.789062 11.128906 9.628906 11.019531 C 9.628906 10.855469 9.421875 10.757812 9.253906 10.851562 L 8.808594 10.691406 C 9.207031 10.5625 9.945312 10.429688 9.945312 10.429688 C 10.046875 10.527344 10.125 10.597656 10.226562 10.683594 C 10.28125 10.714844 10.355469 10.714844 10.4375 10.609375 C 10.6875 10.238281 10.925781 9.566406 11.285156 9.476562 C 11.417969 9.441406 11.578125 9.53125 11.546875 9.828125 C 11.492188 10.273438 11.160156 10.648438 10.746094 10.929688 C 10.511719 11.082031 10.414062 11.011719 10.234375 11.003906 C 10.003906 11.03125 9.941406 11.144531 10.132812 11.304688 C 10.308594 11.398438 10.46875 11.410156 10.597656 11.382812 C 10.710938 11.363281 10.839844 11.21875 10.933594 11.140625 C 11.039062 11.015625 11.210938 11.160156 11.09375 11.304688 C 10.878906 11.5625 10.664062 11.734375 10.398438 11.730469 C 10.121094 11.769531 10.171875 11.925781 10.359375 12.003906 C 10.691406 12.144531 10.992188 11.882812 11.140625 11.710938 C 11.261719 11.582031 11.34375 11.578125 11.324219 11.777344 C 11.207031 12.144531 11.046875 12.285156 10.785156 12.304688 C 10.574219 12.285156 10.574219 12.449219 10.726562 12.5625 C 11.078125 12.808594 11.335938 12.386719 11.453125 12.132812 C 11.539062 11.902344 11.667969 12.011719 11.679688 12.203125 C 11.683594 12.453125 11.5 12.714844 11.351562 12.847656 C 11.199219 12.976562 12 13.796875 12 13.796875 C 12 13.796875 12.800781 12.976562 12.648438 12.847656 Z M 13.722656 3.523438 C 13.597656 3.523438 13.519531 3.566406 13.519531 3.617188 C 13.519531 3.671875 13.597656 3.714844 13.722656 3.714844 C 13.84375 3.714844 13.921875 3.667969 13.921875 3.613281 C 13.921875 3.5625 13.84375 3.523438 13.722656 3.523438 Z M 10.277344 3.523438 C 10.402344 3.523438 10.480469 3.566406 10.480469 3.617188 C 10.480469 3.671875 10.402344 3.714844 10.277344 3.714844 C 10.15625 3.714844 10.078125 3.667969 10.078125 3.613281 C 10.078125 3.5625 10.15625 3.523438 10.277344 3.523438 Z M 10.277344 3.523438 "/>
</g>
</svg>
