<?xml version="1.0" encoding="UTF-8"?>
<svg xmlns="http://www.w3.org/2000/svg" xmlns:xlink="http://www.w3.org/1999/xlink" width="24px" height="24px" viewBox="0 0 24 16" version="1.1">
<g id="surface1">
<rect x="0" y="0" width="24" height="16" style="fill:rgb(0%,0%,0%);fill-opacity:1;stroke:none;"/>
<path style=" stroke:none;fill-rule:nonzero;fill:rgb(80%,3.529412%,18.431373%);fill-opacity:1;" d="M 0 0 L 24 0 L 24 8 L 0 8 Z M 0 0 "/>
<path style=" stroke:none;fill-rule:evenodd;fill:rgb(100%,79.607843%,0%);fill-opacity:1;" d="M 10.421875 5.488281 L 11.398438 5.488281 L 11.695312 4.566406 L 12 5.488281 L 12.976562 5.488281 L 12.191406 6.074219 L 12.496094 7.007812 L 11.695312 6.441406 L 10.902344 7.007812 L 11.207031 6.074219 Z M 10.421875 5.488281 "/>
<path style=" stroke:none;fill-rule:evenodd;fill:rgb(100%,79.607843%,0%);fill-opacity:1;" d="M 13.996094 10.527344 L 13.226562 9.925781 C 14.003906 9.292969 14.507812 8.324219 14.507812 7.242188 C 14.507812 5.59375 13.332031 4.207031 11.777344 3.878906 L 11.898438 3.316406 C 12.113281 3.367188 12.367188 3.457031 12.574219 3.527344 L 12.773438 3.191406 C 12.992188 3.296875 13.230469 3.402344 13.429688 3.527344 L 13.28125 3.890625 C 13.480469 4.015625 13.722656 4.214844 13.855469 4.371094 L 14.15625 4.136719 C 14.316406 4.3125 14.507812 4.496094 14.644531 4.691406 L 14.371094 4.96875 C 14.546875 5.226562 14.617188 5.347656 14.746094 5.644531 L 15.128906 5.554688 C 15.199219 5.777344 15.308594 6.054688 15.351562 6.285156 L 14.988281 6.429688 C 15.03125 6.609375 15.085938 6.921875 15.085938 7.1875 C 15.082031 7.203125 15.082031 7.222656 15.082031 7.238281 L 15.460938 7.292969 C 15.445312 7.523438 15.4375 7.789062 15.386719 8.019531 L 14.996094 8.019531 C 14.941406 8.261719 14.867188 8.554688 14.78125 8.78125 L 15.109375 8.972656 C 15.003906 9.179688 14.898438 9.429688 14.761719 9.628906 L 14.402344 9.476562 C 14.265625 9.675781 14.113281 9.867188 13.945312 10.046875 L 14.179688 10.347656 C 14.113281 10.40625 14.058594 10.460938 13.996094 10.527344 M 12.304688 10.453125 L 12.886719 10.804688 C 12.832031 10.851562 12.667969 10.9375 12.625 10.953125 L 12.722656 11.316406 C 12.496094 11.390625 12.257812 11.496094 12.007812 11.542969 L 11.863281 11.183594 C 11.632812 11.230469 11.398438 11.261719 11.160156 11.261719 L 11.113281 11.636719 C 10.886719 11.621094 10.613281 11.636719 10.367188 11.582031 L 10.367188 11.207031 C 10.140625 11.167969 9.925781 11.109375 9.71875 11.039062 L 9.535156 11.367188 C 9.339844 11.285156 9.085938 11.191406 8.878906 11.0625 L 9.011719 10.703125 C 8.84375 10.613281 8.691406 10.5 8.550781 10.390625 L 8.910156 9.933594 C 9.5 10.40625 10.246094 10.683594 11.0625 10.683594 C 11.496094 10.683594 11.921875 10.613281 12.304688 10.453125 "/>
<path style=" stroke:none;fill-rule:evenodd;fill:rgb(100%,79.607843%,0%);fill-opacity:1;" d="M 14.726562 11.382812 L 10.890625 8.464844 L 10.855469 8.515625 L 14.679688 11.4375 L 14.453125 11.71875 L 10.726562 9.328125 C 9.71875 8.699219 9.757812 8.199219 9.964844 7.664062 L 10.140625 7.230469 C 10.238281 7.792969 10.816406 8.21875 11.414062 8.6875 L 14.800781 11.289062 Z M 15.6875 12.25 C 15.71875 12.25 15.746094 12.277344 15.746094 12.3125 C 15.746094 12.34375 15.71875 12.371094 15.6875 12.371094 C 15.652344 12.371094 15.628906 12.34375 15.628906 12.308594 C 15.660156 12.308594 15.6875 12.335938 15.6875 12.371094 C 15.65625 12.371094 15.628906 12.34375 15.628906 12.308594 C 15.628906 12.277344 15.65625 12.25 15.6875 12.25 C 15.71875 12.25 15.746094 12.277344 15.746094 12.308594 M 15.519531 12.140625 C 15.542969 12.140625 15.5625 12.15625 15.574219 12.179688 C 15.582031 12.203125 15.578125 12.226562 15.558594 12.246094 C 15.542969 12.261719 15.519531 12.265625 15.496094 12.257812 C 15.472656 12.246094 15.457031 12.226562 15.457031 12.203125 M 15.222656 12.015625 C 15.191406 12.015625 15.164062 11.988281 15.164062 11.957031 C 15.097656 11.070312 14.324219 10.40625 13.4375 10.472656 C 12.550781 10.542969 11.886719 11.316406 11.957031 12.203125 C 11.957031 12.234375 11.929688 12.261719 11.894531 12.261719 M 12.683594 12.59375 L 11.535156 11.703125 L 11.203125 12.132812 L 12.199219 12.832031 C 12.28125 12.886719 12.289062 13.144531 12.582031 13.183594 C 12.703125 13.199219 12.785156 13.113281 12.785156 13.113281 C 12.914062 12.957031 12.878906 12.738281 12.683594 12.59375 "/>
</g>
</svg>
