<?xml version="1.0" encoding="utf-8"?>
<svg width="24px" height="16px" viewBox="0 0 24 16" version="1.1" xmlns="http://www.w3.org/2000/svg">
  <defs>
    <clipPath id="clip1">
      <path d="M 8 4 L 16 4 L 16 12 L 8 12 Z M 8 4 "/>
    </clipPath>
    <clipPath id="clip2">
      <path d="M 12.765625 2.617188 L 12.730469 2.601562 Z M 13.835938 13.167969 L 13.691406 13.082031 L 13.265625 13.1875 L 12.890625 12.953125 L 12.890625 13.042969 L 12.800781 12.921875 L 12.90625 12.816406 L 12.890625 12.496094 L 13.011719 12.496094 L 13.085938 12.28125 L 13.171875 12.246094 L 13.105469 12.136719 L 13.210938 12.101562 L 13.195312 11.941406 L 13.085938 11.886719 L 13.226562 11.871094 L 13.140625 11.484375 L 12.925781 11.269531 L 12.800781 11.324219 L 12.851562 11.5 L 12.410156 11.5 L 12.035156 11.339844 L 11.890625 11.269531 L 11.183594 11.109375 L 11.128906 11.195312 L 10.878906 11.214844 L 10.808594 11.214844 L 10.703125 11.390625 L 10.398438 11.179688 L 10.238281 11.230469 L 10.257812 11.375 L 9.863281 11.164062 L 9.847656 11.300781 L 9.457031 11.125 L 9.4375 11.140625 L 9.242188 11.214844 L 9.207031 11.070312 L 8.742188 10.84375 L 8.246094 10.683594 L 8.15625 10.273438 L 8.15625 10.183594 L 7.960938 9.832031 L 8.046875 9.40625 L 7.886719 9.351562 L 7.835938 9.171875 L 8.101562 9.136719 L 7.980469 9.136719 L 7.996094 8.871094 L 7.605469 8.996094 L 7.589844 8.886719 L 7.535156 9.085938 L 7.320312 9.171875 L 7.179688 9.03125 L 7.125 8.886719 L 7.070312 8.605469 L 7.195312 8.515625 L 7.246094 8.582031 L 7.285156 8.5 L 7.195312 7.859375 L 7.339844 7.890625 L 7.40625 7.21875 L 7.429688 7.199219 L 7.566406 7.113281 L 7.390625 7.128906 L 7.320312 6.96875 L 7.640625 6.613281 L 7.355469 6.558594 L 7.140625 6.773438 L 7.054688 6.527344 L 6.925781 6.703125 L 6.894531 6.582031 L 6.734375 6.632812 L 6.628906 6.6875 L 6.714844 6.367188 L 6.644531 6.328125 L 6.679688 6.238281 L 6.589844 6.261719 L 6.574219 6.078125 L 6.910156 6.078125 L 6.894531 5.996094 L 6.789062 5.996094 L 6.589844 5.652344 L 6.484375 5.691406 L 6.414062 5.566406 L 6.378906 5.675781 L 6.269531 5.601562 L 6.378906 5.53125 L 6.214844 5.476562 L 6.253906 5.386719 L 6.125 5.316406 L 6.09375 5.035156 L 5.964844 4.996094 L 6.039062 4.945312 L 5.894531 4.570312 L 5.914062 4.449219 L 5.964844 4.074219 L 6.074219 4.074219 L 6.039062 4.304688 L 6.308594 4.679688 L 6.5 4.929688 L 6.894531 5.035156 L 6.894531 5.050781 L 6.949219 4.960938 L 7.160156 5.210938 L 7.269531 5.332031 L 7.320312 5.386719 L 7.925781 5.675781 L 8.03125 5.726562 L 8.070312 5.757812 L 8.351562 6.101562 L 8.511719 6.027344 L 9.6875 5.757812 L 9.722656 5.546875 L 9.808594 5.582031 L 9.792969 5.515625 L 9.847656 5.476562 L 10.097656 5.386719 L 10.097656 5.140625 L 10.183594 5.050781 L 10.289062 4.640625 L 10.238281 4.480469 L 10.488281 3.878906 L 10.488281 3.503906 L 10.609375 3.503906 L 10.753906 3.292969 L 10.929688 3.238281 L 10.953125 3.042969 L 11.199219 2.742188 L 11.304688 2.796875 L 11.804688 2.617188 L 11.964844 2.457031 L 11.929688 2.28125 L 12.035156 2.28125 L 12.089844 2.5625 L 12.640625 2.691406 L 12.730469 2.601562 L 12.765625 2.617188 L 13.246094 2.722656 L 13.265625 2.707031 L 13.515625 2.5625 L 13.53125 2.722656 L 13.746094 2.742188 L 13.921875 2.882812 L 13.957031 2.917969 L 14.226562 3.148438 L 14.546875 3.171875 L 14.742188 3.203125 L 14.988281 3.117188 L 15.011719 3.277344 L 15.117188 3.347656 L 15.203125 3.1875 L 15.308594 3.1875 L 15.382812 3.597656 L 15.46875 3.613281 L 15.453125 3.757812 L 15.4375 3.773438 L 15.46875 3.773438 L 15.683594 3.664062 L 15.878906 3.597656 L 16.429688 3.789062 L 16.535156 3.757812 L 16.574219 3.949219 L 16.71875 3.96875 L 16.679688 3.878906 L 16.804688 3.878906 L 16.839844 4.074219 L 16.984375 3.917969 L 17.320312 4.128906 L 17.414062 4.519531 L 17.269531 4.554688 L 17.304688 4.855469 L 17.359375 4.945312 L 17.734375 5.886719 L 17.535156 6.0625 L 17.519531 6.277344 L 17.359375 6.472656 L 17.535156 6.597656 L 17.464844 6.648438 L 17.625 6.808594 L 17.871094 6.847656 L 17.945312 6.953125 L 18.015625 7.089844 L 18.191406 7.167969 L 18.40625 7.023438 L 18.550781 7.039062 L 18.375 7.289062 L 18.550781 7.753906 L 18.335938 7.929688 L 18.425781 8.210938 L 18.375 8.460938 L 18.480469 8.605469 L 18.761719 8.660156 L 18.480469 9.046875 L 18.535156 9.117188 L 18.601562 9.191406 L 18.480469 9.382812 L 18.601562 9.457031 L 17.976562 9.96875 L 18.121094 10.328125 L 18.085938 10.539062 L 17.871094 10.609375 L 17.816406 10.789062 L 17.574219 10.894531 L 17.496094 11.125 L 17.445312 11.246094 L 17.695312 11.375 L 17.320312 11.40625 L 17.414062 11.605469 L 17.230469 11.78125 L 16.949219 11.835938 L 16.855469 11.992188 L 17.070312 12.101562 L 16.664062 12.472656 L 16.789062 12.671875 L 16.46875 12.601562 L 16.109375 12.816406 L 15.628906 13.042969 L 15.523438 13.203125 L 15.453125 13.148438 L 15.523438 12.992188 L 15.203125 13.113281 L 15.132812 12.992188 L 14.652344 13.273438 L 14.4375 13.203125 L 14.046875 13.273438 L 13.941406 13.21875 M 13.957031 2.917969 L 13.921875 2.882812 L 13.90625 2.882812 L 13.90625 2.902344 L 13.941406 2.902344 Z M 13.835938 13.167969 L 13.941406 13.21875 Z M 13.835938 13.167969 L 13.941406 13.21875 M 6.339844 5.835938 L 6.359375 5.707031 L 6.164062 5.582031 Z M 5.914062 4.855469 L 5.804688 4.855469 L 5.859375 5.015625 L 5.914062 4.875 Z M 5.859375 4.695312 L 5.804688 4.746094 L 5.914062 4.820312 Z M 6.339844 5.835938 L 6.359375 5.707031 L 6.164062 5.582031 Z M 5.914062 4.855469 L 5.804688 4.855469 L 5.859375 5.015625 L 5.914062 4.875 Z M 5.859375 4.695312 L 5.804688 4.746094 L 5.914062 4.820312 Z M 6.339844 5.835938 L 6.359375 5.707031 L 6.164062 5.582031 Z M 5.914062 4.855469 L 5.804688 4.855469 L 5.859375 5.015625 L 5.914062 4.875 Z M 5.859375 4.695312 L 5.804688 4.746094 L 5.914062 4.820312 Z M 6.179688 4.320312 L 6.179688 4.183594 L 6.054688 4.214844 L 6.074219 4.304688 Z M 6.039062 3.933594 L 6.074219 4 L 6.148438 3.839844 L 6.039062 3.917969 Z M 6.179688 4.320312 L 6.179688 4.183594 L 6.054688 4.214844 L 6.074219 4.304688 Z M 6.039062 3.933594 L 6.074219 4 L 6.148438 3.839844 L 6.039062 3.917969 Z M 6.179688 4.320312 L 6.179688 4.183594 L 6.054688 4.214844 L 6.074219 4.304688 Z M 6.039062 3.933594 L 6.074219 4 L 6.148438 3.839844 L 6.039062 3.917969 Z M 7.941406 9.367188 L 7.820312 9.382812 L 7.710938 9.527344 L 7.886719 9.488281 Z M 7.941406 9.367188 L 7.820312 9.382812 L 7.710938 9.527344 L 7.886719 9.488281 Z M 7.941406 9.367188 L 7.820312 9.382812 L 7.710938 9.527344 L 7.886719 9.488281 Z M 8.070312 5.761719 L 8.03125 5.726562 L 7.925781 5.675781 L 8.03125 5.726562 Z M 8.070312 5.761719 "/>
    </clipPath>
    <clipPath id="clip3">
      <path d="M 5 2 L 19 2 L 19 14 L 5 14 Z M 5 2 "/>
    </clipPath>
    <clipPath id="clip4">
      <path d="M 12.765625 2.617188 L 12.730469 2.601562 Z M 13.835938 13.167969 L 13.691406 13.082031 L 13.265625 13.1875 L 12.890625 12.953125 L 12.890625 13.042969 L 12.800781 12.921875 L 12.90625 12.816406 L 12.890625 12.496094 L 13.011719 12.496094 L 13.085938 12.28125 L 13.171875 12.246094 L 13.105469 12.136719 L 13.210938 12.101562 L 13.195312 11.941406 L 13.085938 11.886719 L 13.226562 11.871094 L 13.140625 11.484375 L 12.925781 11.269531 L 12.800781 11.324219 L 12.851562 11.5 L 12.410156 11.5 L 12.035156 11.339844 L 11.890625 11.269531 L 11.183594 11.109375 L 11.128906 11.195312 L 10.878906 11.214844 L 10.808594 11.214844 L 10.703125 11.390625 L 10.398438 11.179688 L 10.238281 11.230469 L 10.257812 11.375 L 9.863281 11.164062 L 9.847656 11.300781 L 9.457031 11.125 L 9.4375 11.140625 L 9.242188 11.214844 L 9.207031 11.070312 L 8.742188 10.84375 L 8.246094 10.683594 L 8.15625 10.273438 L 8.15625 10.183594 L 7.960938 9.832031 L 8.046875 9.40625 L 7.886719 9.351562 L 7.835938 9.171875 L 8.101562 9.136719 L 7.980469 9.136719 L 7.996094 8.871094 L 7.605469 8.996094 L 7.589844 8.886719 L 7.535156 9.085938 L 7.320312 9.171875 L 7.179688 9.03125 L 7.125 8.886719 L 7.070312 8.605469 L 7.195312 8.515625 L 7.246094 8.582031 L 7.285156 8.5 L 7.195312 7.859375 L 7.339844 7.890625 L 7.40625 7.21875 L 7.429688 7.199219 L 7.566406 7.113281 L 7.390625 7.128906 L 7.320312 6.96875 L 7.640625 6.613281 L 7.355469 6.558594 L 7.140625 6.773438 L 7.054688 6.527344 L 6.925781 6.703125 L 6.894531 6.582031 L 6.734375 6.632812 L 6.628906 6.6875 L 6.714844 6.367188 L 6.644531 6.328125 L 6.679688 6.238281 L 6.589844 6.261719 L 6.574219 6.078125 L 6.910156 6.078125 L 6.894531 5.996094 L 6.789062 5.996094 L 6.589844 5.652344 L 6.484375 5.691406 L 6.414062 5.566406 L 6.378906 5.675781 L 6.269531 5.601562 L 6.378906 5.53125 L 6.214844 5.476562 L 6.253906 5.386719 L 6.125 5.316406 L 6.09375 5.035156 L 5.964844 4.996094 L 6.039062 4.945312 L 5.894531 4.570312 L 5.914062 4.449219 L 5.964844 4.074219 L 6.074219 4.074219 L 6.039062 4.304688 L 6.308594 4.679688 L 6.5 4.929688 L 6.894531 5.035156 L 6.894531 5.050781 L 6.949219 4.960938 L 7.160156 5.210938 L 7.269531 5.332031 L 7.320312 5.386719 L 7.925781 5.675781 L 8.03125 5.726562 L 8.070312 5.757812 L 8.351562 6.101562 L 8.511719 6.027344 L 9.6875 5.757812 L 9.722656 5.546875 L 9.808594 5.582031 L 9.792969 5.515625 L 9.847656 5.476562 L 10.097656 5.386719 L 10.097656 5.140625 L 10.183594 5.050781 L 10.289062 4.640625 L 10.238281 4.480469 L 10.488281 3.878906 L 10.488281 3.503906 L 10.609375 3.503906 L 10.753906 3.292969 L 10.929688 3.238281 L 10.953125 3.042969 L 11.199219 2.742188 L 11.304688 2.796875 L 11.804688 2.617188 L 11.964844 2.457031 L 11.929688 2.28125 L 12.035156 2.28125 L 12.089844 2.5625 L 12.640625 2.691406 L 12.730469 2.601562 L 12.765625 2.617188 L 13.246094 2.722656 L 13.265625 2.707031 L 13.515625 2.5625 L 13.53125 2.722656 L 13.746094 2.742188 L 13.921875 2.882812 L 13.957031 2.917969 L 14.226562 3.148438 L 14.546875 3.171875 L 14.742188 3.203125 L 14.988281 3.117188 L 15.011719 3.277344 L 15.117188 3.347656 L 15.203125 3.1875 L 15.308594 3.1875 L 15.382812 3.597656 L 15.46875 3.613281 L 15.453125 3.757812 L 15.4375 3.773438 L 15.46875 3.773438 L 15.683594 3.664062 L 15.878906 3.597656 L 16.429688 3.789062 L 16.535156 3.757812 L 16.574219 3.949219 L 16.71875 3.96875 L 16.679688 3.878906 L 16.804688 3.878906 L 16.839844 4.074219 L 16.984375 3.917969 L 17.320312 4.128906 L 17.414062 4.519531 L 17.269531 4.554688 L 17.304688 4.855469 L 17.359375 4.945312 L 17.734375 5.886719 L 17.535156 6.0625 L 17.519531 6.277344 L 17.359375 6.472656 L 17.535156 6.597656 L 17.464844 6.648438 L 17.625 6.808594 L 17.871094 6.847656 L 17.945312 6.953125 L 18.015625 7.089844 L 18.191406 7.167969 L 18.40625 7.023438 L 18.550781 7.039062 L 18.375 7.289062 L 18.550781 7.753906 L 18.335938 7.929688 L 18.425781 8.210938 L 18.375 8.460938 L 18.480469 8.605469 L 18.761719 8.660156 L 18.480469 9.046875 L 18.535156 9.117188 L 18.601562 9.191406 L 18.480469 9.382812 L 18.601562 9.457031 L 17.976562 9.96875 L 18.121094 10.328125 L 18.085938 10.539062 L 17.871094 10.609375 L 17.816406 10.789062 L 17.574219 10.894531 L 17.496094 11.125 L 17.445312 11.246094 L 17.695312 11.375 L 17.320312 11.40625 L 17.414062 11.605469 L 17.230469 11.78125 L 16.949219 11.835938 L 16.855469 11.992188 L 17.070312 12.101562 L 16.664062 12.472656 L 16.789062 12.671875 L 16.46875 12.601562 L 16.109375 12.816406 L 15.628906 13.042969 L 15.523438 13.203125 L 15.453125 13.148438 L 15.523438 12.992188 L 15.203125 13.113281 L 15.132812 12.992188 L 14.652344 13.273438 L 14.4375 13.203125 L 14.046875 13.273438 L 13.941406 13.21875 M 13.957031 2.917969 L 13.921875 2.882812 L 13.90625 2.882812 L 13.90625 2.902344 L 13.941406 2.902344 Z M 13.835938 13.167969 L 13.941406 13.21875 Z M 13.835938 13.167969 L 13.941406 13.21875 M 6.339844 5.835938 L 6.359375 5.707031 L 6.164062 5.582031 Z M 5.914062 4.855469 L 5.804688 4.855469 L 5.859375 5.015625 L 5.914062 4.875 Z M 5.859375 4.695312 L 5.804688 4.746094 L 5.914062 4.820312 Z M 6.339844 5.835938 L 6.359375 5.707031 L 6.164062 5.582031 Z M 5.914062 4.855469 L 5.804688 4.855469 L 5.859375 5.015625 L 5.914062 4.875 Z M 5.859375 4.695312 L 5.804688 4.746094 L 5.914062 4.820312 Z M 6.339844 5.835938 L 6.359375 5.707031 L 6.164062 5.582031 Z M 5.914062 4.855469 L 5.804688 4.855469 L 5.859375 5.015625 L 5.914062 4.875 Z M 5.859375 4.695312 L 5.804688 4.746094 L 5.914062 4.820312 Z M 6.179688 4.320312 L 6.179688 4.183594 L 6.054688 4.214844 L 6.074219 4.304688 Z M 6.039062 3.933594 L 6.074219 4 L 6.148438 3.839844 L 6.039062 3.917969 Z M 6.179688 4.320312 L 6.179688 4.183594 L 6.054688 4.214844 L 6.074219 4.304688 Z M 6.039062 3.933594 L 6.074219 4 L 6.148438 3.839844 L 6.039062 3.917969 Z M 6.179688 4.320312 L 6.179688 4.183594 L 6.054688 4.214844 L 6.074219 4.304688 Z M 6.039062 3.933594 L 6.074219 4 L 6.148438 3.839844 L 6.039062 3.917969 Z M 7.941406 9.367188 L 7.820312 9.382812 L 7.710938 9.527344 L 7.886719 9.488281 Z M 7.941406 9.367188 L 7.820312 9.382812 L 7.710938 9.527344 L 7.886719 9.488281 Z M 7.941406 9.367188 L 7.820312 9.382812 L 7.710938 9.527344 L 7.886719 9.488281 Z M 8.070312 5.761719 L 8.03125 5.726562 L 7.925781 5.675781 L 8.03125 5.726562 Z M 8.070312 5.761719 "/>
    </clipPath>
  </defs>
  <g id="surface1">
    <path d="M 0 0 H 24 V 16 H 0 V 0 Z" style="fill: rgb(7, 43, 95); fill-opacity: 1; stroke: none;"/>
    <path style="fill: none; stroke-linecap: butt; stroke-linejoin: miter; stroke: rgb(255, 255, 255); stroke-opacity: 1; stroke-miterlimit: 4; stroke-width: 0.12px;" d="M 14.969 7.988 C 14.969 9.629 13.641 10.961 12 10.961 C 10.359 10.961 9.031 9.629 9.031 7.988 C 9.031 6.352 10.359 5.02 12 5.02 C 13.641 5.02 14.969 6.352 14.969 7.988 Z M 14.969 7.988"/>
    <path style="fill: none; stroke-linecap: butt; stroke-linejoin: miter; stroke: rgb(255, 255, 255); stroke-opacity: 1; stroke-miterlimit: 4; stroke-width: 0.12px;" d="M 17.523 8 C 17.523 11.051 15.051 13.523 12 13.523 C 8.949 13.523 6.477 11.051 6.477 8 C 6.477 4.949 8.949 2.477 12 2.477 C 15.051 2.477 17.523 4.949 17.523 8 Z M 17.523 8"/>
    <path style="fill: none; stroke-linecap: butt; stroke-linejoin: miter; stroke: rgb(255, 255, 255); stroke-opacity: 1; stroke-miterlimit: 4; stroke-width: 0.12px;" d="M 19.926 8 C 19.926 12.379 16.379 15.926 12 15.926 C 7.621 15.926 4.074 12.379 4.074 8 C 4.074 3.621 7.621 0.074 12 0.074 C 16.379 0.074 19.926 3.621 19.926 8 Z M 19.926 8"/>
    <path style="fill: none; stroke-linecap: butt; stroke-linejoin: miter; stroke: rgb(255, 255, 255); stroke-opacity: 1; stroke-miterlimit: 4; stroke-width: 0.12px;" d="M -2.012 7.988 L 26.012 7.988 M 12 -6.02 L 12 22"/>
    <path style="fill: none; stroke-linecap: butt; stroke-linejoin: miter; stroke: rgb(255, 255, 255); stroke-opacity: 1; stroke-miterlimit: 4; stroke-width: 0.12px;" d="M -0.133 0.984 L 24.133 14.996 M 19.004 -4.145 L 4.996 20.121"/>
    <path style="fill: none; stroke-linecap: butt; stroke-linejoin: miter; stroke: rgb(255, 255, 255); stroke-opacity: 1; stroke-miterlimit: 4; stroke-width: 0.12px;" d="M 4.996 -4.145 L 19.004 20.121 M 24.133 0.984 L -0.133 14.996"/>
    <path style="stroke: none; fill-rule: nonzero; fill: rgb(255, 255, 255); fill-opacity: 1;" d="M 12.773438 2.601562 L 12.734375 2.585938 Z M 13.84375 13.175781 L 13.699219 13.089844 L 13.269531 13.195312 L 12.898438 12.960938 L 12.898438 13.050781 L 12.804688 12.929688 L 12.914062 12.820312 L 12.898438 12.5 L 13.019531 12.5 L 13.09375 12.289062 L 13.179688 12.25 L 13.109375 12.144531 L 13.21875 12.105469 L 13.203125 11.945312 L 13.09375 11.890625 L 13.234375 11.875 L 13.148438 11.488281 L 12.933594 11.273438 L 12.804688 11.328125 L 12.859375 11.503906 L 12.414062 11.503906 L 12.039062 11.34375 L 11.894531 11.273438 L 11.183594 11.113281 L 11.132812 11.199219 L 10.878906 11.21875 L 10.808594 11.21875 L 10.703125 11.394531 L 10.398438 11.183594 L 10.238281 11.234375 L 10.257812 11.378906 L 9.863281 11.167969 L 9.847656 11.304688 L 9.457031 11.128906 L 9.433594 11.144531 L 9.242188 11.21875 L 9.207031 11.074219 L 8.738281 10.847656 L 8.242188 10.6875 L 8.152344 10.273438 L 8.152344 10.183594 L 7.960938 9.832031 L 8.042969 9.40625 L 7.882812 9.351562 L 7.832031 9.167969 L 8.097656 9.136719 L 7.976562 9.136719 L 7.992188 8.871094 L 7.601562 8.992188 L 7.585938 8.886719 L 7.53125 9.085938 L 7.316406 9.167969 L 7.171875 9.03125 L 7.117188 8.886719 L 7.066406 8.601562 L 7.1875 8.511719 L 7.242188 8.582031 L 7.28125 8.496094 L 7.1875 7.855469 L 7.332031 7.886719 L 7.402344 7.214844 L 7.425781 7.195312 L 7.5625 7.109375 L 7.386719 7.125 L 7.316406 6.964844 L 7.636719 6.605469 L 7.347656 6.554688 L 7.136719 6.765625 L 7.050781 6.519531 L 6.921875 6.695312 L 6.890625 6.574219 L 6.730469 6.628906 L 6.621094 6.679688 L 6.707031 6.359375 L 6.636719 6.324219 L 6.675781 6.234375 L 6.585938 6.253906 L 6.566406 6.074219 L 6.90625 6.074219 L 6.890625 5.988281 L 6.78125 5.988281 L 6.585938 5.644531 L 6.476562 5.683594 L 6.40625 5.558594 L 6.371094 5.667969 L 6.261719 5.59375 L 6.371094 5.523438 L 6.210938 5.46875 L 6.246094 5.378906 L 6.117188 5.308594 L 6.085938 5.027344 L 5.957031 4.988281 L 6.03125 4.933594 L 5.886719 4.5625 L 5.90625 4.4375 L 5.957031 4.066406 L 6.066406 4.066406 L 6.03125 4.292969 L 6.300781 4.667969 L 6.492188 4.917969 L 6.890625 5.027344 L 6.890625 5.042969 L 6.941406 4.953125 L 7.15625 5.203125 L 7.261719 5.324219 L 7.316406 5.378906 L 7.921875 5.667969 L 8.027344 5.71875 L 8.066406 5.753906 L 8.347656 6.09375 L 8.511719 6.019531 L 9.6875 5.753906 L 9.722656 5.539062 L 9.808594 5.574219 L 9.792969 5.507812 L 9.847656 5.46875 L 10.097656 5.378906 L 10.097656 5.132812 L 10.183594 5.042969 L 10.292969 4.632812 L 10.238281 4.472656 L 10.488281 3.867188 L 10.488281 3.492188 L 10.613281 3.492188 L 10.757812 3.28125 L 10.933594 3.226562 L 10.953125 3.027344 L 11.199219 2.730469 L 11.308594 2.785156 L 11.8125 2.601562 L 11.863281 2.546875 L 11.972656 2.441406 L 11.933594 2.265625 L 12.039062 2.265625 L 12.09375 2.546875 L 12.644531 2.675781 L 12.734375 2.585938 L 12.773438 2.601562 L 13.253906 2.707031 L 13.269531 2.691406 L 13.523438 2.546875 L 13.539062 2.707031 L 13.753906 2.730469 L 13.929688 2.867188 L 13.96875 2.90625 L 14.234375 3.136719 L 14.554688 3.15625 L 14.753906 3.1875 L 15 3.105469 L 15.019531 3.265625 L 15.128906 3.332031 L 15.214844 3.171875 L 15.320312 3.171875 L 15.394531 3.585938 L 15.480469 3.601562 L 15.464844 3.746094 L 15.449219 3.761719 L 15.480469 3.761719 L 15.695312 3.652344 L 15.894531 3.585938 L 16.445312 3.777344 L 16.550781 3.746094 L 16.589844 3.9375 L 16.734375 3.957031 L 16.695312 3.867188 L 16.816406 3.867188 L 16.855469 4.066406 L 17 3.90625 L 17.335938 4.117188 L 17.429688 4.507812 L 17.285156 4.546875 L 17.320312 4.84375 L 17.375 4.933594 L 17.75 5.878906 L 17.550781 6.054688 L 17.535156 6.269531 L 17.375 6.46875 L 17.550781 6.589844 L 17.480469 6.644531 L 17.640625 6.804688 L 17.886719 6.839844 L 17.964844 6.949219 L 18.03125 7.085938 L 18.210938 7.160156 L 18.421875 7.019531 L 18.566406 7.035156 L 18.390625 7.285156 L 18.566406 7.75 L 18.355469 7.925781 L 18.445312 8.207031 L 18.390625 8.460938 L 18.496094 8.601562 L 18.78125 8.65625 L 18.496094 9.046875 L 18.550781 9.117188 L 18.621094 9.191406 L 18.496094 9.382812 L 18.621094 9.457031 L 17.996094 9.96875 L 18.140625 10.328125 L 18.101562 10.542969 L 17.886719 10.609375 L 17.835938 10.792969 L 17.589844 10.898438 L 17.515625 11.128906 L 17.460938 11.25 L 17.710938 11.378906 L 17.335938 11.410156 L 17.429688 11.609375 L 17.246094 11.785156 L 16.960938 11.839844 L 16.871094 12 L 17.085938 12.105469 L 16.679688 12.480469 L 16.800781 12.675781 L 16.480469 12.609375 L 16.121094 12.820312 L 15.640625 13.050781 L 15.535156 13.210938 L 15.464844 13.15625 L 15.535156 12.996094 L 15.214844 13.121094 L 15.144531 12.996094 L 14.664062 13.28125 L 14.449219 13.210938 L 14.058594 13.28125 L 13.949219 13.226562 M 13.96875 2.90625 L 13.929688 2.867188 L 13.914062 2.867188 L 13.914062 2.890625 L 13.949219 2.890625 Z M 13.84375 13.175781 L 13.949219 13.226562 Z M 13.84375 13.175781 L 13.949219 13.226562 M 6.332031 5.828125 L 6.355469 5.699219 L 6.15625 5.574219 Z M 5.90625 4.84375 L 5.796875 4.84375 L 5.851562 5.003906 L 5.90625 4.867188 Z M 5.851562 4.683594 L 5.796875 4.738281 L 5.90625 4.8125 Z M 6.332031 5.828125 L 6.355469 5.699219 L 6.15625 5.574219 Z M 5.90625 4.84375 L 5.796875 4.84375 L 5.851562 5.003906 L 5.90625 4.867188 Z M 5.851562 4.683594 L 5.796875 4.738281 L 5.90625 4.8125 Z M 6.332031 5.828125 L 6.355469 5.699219 L 6.15625 5.574219 Z M 5.90625 4.84375 L 5.796875 4.84375 L 5.851562 5.003906 L 5.90625 4.867188 Z M 5.851562 4.683594 L 5.796875 4.738281 L 5.90625 4.8125 Z M 6.171875 4.3125 L 6.171875 4.171875 L 6.050781 4.203125 L 6.066406 4.292969 Z M 6.03125 3.921875 L 6.066406 3.992188 L 6.140625 3.832031 L 6.03125 3.90625 Z M 6.171875 4.3125 L 6.171875 4.171875 L 6.050781 4.203125 L 6.066406 4.292969 Z M 6.03125 3.921875 L 6.066406 3.992188 L 6.140625 3.832031 L 6.03125 3.90625 Z M 6.171875 4.3125 L 6.171875 4.171875 L 6.050781 4.203125 L 6.066406 4.292969 Z M 6.03125 3.921875 L 6.066406 3.992188 L 6.140625 3.832031 L 6.03125 3.90625 Z M 7.9375 9.367188 L 7.816406 9.382812 L 7.707031 9.527344 L 7.882812 9.488281 Z M 7.9375 9.367188 L 7.816406 9.382812 L 7.707031 9.527344 L 7.882812 9.488281 Z M 7.9375 9.367188 L 7.816406 9.382812 L 7.707031 9.527344 L 7.882812 9.488281 Z M 8.066406 5.753906 L 8.027344 5.71875 L 7.921875 5.667969 L 8.027344 5.71875 Z M 8.066406 5.753906 "/>
    <g clip-path="url(#clip1)" clip-rule="nonzero">
      <g clip-path="url(#clip2)" clip-rule="nonzero">
        <path style="fill: none; stroke-linecap: butt; stroke-linejoin: miter; stroke: rgb(7, 43, 95); stroke-opacity: 1; stroke-miterlimit: 4; stroke-width: 0.12px;" d="M 14.961 8.004 C 14.961 9.637 13.633 10.965 11.996 10.965 C 10.359 10.965 9.031 9.637 9.031 8.004 C 9.031 6.367 10.359 5.043 11.996 5.043 C 13.633 5.043 14.961 6.367 14.961 8.004 Z M 14.961 8.004"/>
      </g>
    </g>
    <g clip-path="url(#clip3)" clip-rule="nonzero" style="">
      <g clip-path="url(#clip4)" clip-rule="nonzero">
        <path style="fill: none; stroke-linecap: butt; stroke-linejoin: miter; stroke: rgb(7, 43, 95); stroke-opacity: 1; stroke-miterlimit: 4; stroke-width: 0.12px;" d="M 17.535 8.004 C 17.535 11.059 15.055 13.535 11.996 13.535 C 8.938 13.535 6.457 11.059 6.457 8.004 C 6.457 4.949 8.938 2.473 11.996 2.473 C 15.055 2.473 17.535 4.949 17.535 8.004 Z M 17.535 8.004"/>
        <path style="fill: none; stroke-linecap: butt; stroke-linejoin: miter; stroke: rgb(7, 43, 95); stroke-opacity: 1; stroke-miterlimit: 4; stroke-width: 0.12px;" d="M 19.957 8.004 C 19.957 12.395 16.395 15.957 11.996 15.957 C 7.598 15.957 4.031 12.395 4.031 8.004 C 4.031 3.609 7.598 0.051 11.996 0.051 C 16.395 0.051 19.957 3.609 19.957 8.004 Z M 19.957 8.004"/>
        <path style="fill: none; stroke-linecap: butt; stroke-linejoin: miter; stroke: rgb(7, 43, 95); stroke-opacity: 1; stroke-miterlimit: 4; stroke-width: 0.12px;" d="M -1.984 8.004 L 25.977 8.004 M 11.996 -5.961 L 11.996 21.965"/>
        <path style="fill: none; stroke-linecap: butt; stroke-linejoin: miter; stroke: rgb(7, 43, 95); stroke-opacity: 1; stroke-miterlimit: 4; stroke-width: 0.12px;" d="M -0.113 1.02 L 24.102 14.984 M 18.984 -4.09 L 5.004 20.098"/>
        <path style="fill: none; stroke-linecap: butt; stroke-linejoin: miter; stroke: rgb(7, 43, 95); stroke-opacity: 1; stroke-miterlimit: 4; stroke-width: 0.12px;" d="M 5.004 -4.09 L 18.984 20.098 M 24.102 1.02 L -0.113 14.984"/>
      </g>
    </g>
  </g>
</svg>