<?xml version="1.0" encoding="UTF-8"?>
<svg xmlns="http://www.w3.org/2000/svg" xmlns:xlink="http://www.w3.org/1999/xlink" width="24px" height="24px" viewBox="0 0 24 15" version="1.1">
<g id="surface1">
<rect x="0" y="0" width="24" height="15" style="fill:rgb(45.490196%,67.45098%,87.45098%);fill-opacity:1;stroke:none;"/>
<path style=" stroke:none;fill-rule:nonzero;fill:rgb(100%,100%,100%);fill-opacity:1;" d="M 0 5 L 24 5 L 24 10 L 0 10 Z M 0 5 "/>
<path style="fill-rule:nonzero;fill:rgb(96.470588%,70.588235%,5.490196%);fill-opacity:1;stroke-width:1.1116;stroke-linecap:butt;stroke-linejoin:miter;stroke:rgb(52.156863%,20.392157%,3.921569%);stroke-opacity:1;stroke-miterlimit:4;" d="M 396.875 251.302083 L 425.260417 313.28125 C 425.260417 313.28125 425.78125 314.453125 426.5625 314.192708 C 427.34375 313.802083 426.822917 312.630208 426.822917 312.630208 L 403.125 248.697917 M 402.473958 272.786458 C 402.083333 282.291667 407.942708 287.369792 407.161458 295.833333 C 406.380208 304.296875 411.067708 308.984375 412.109375 312.239583 C 413.151042 315.625 410.9375 317.578125 411.848958 317.96875 C 412.890625 318.489583 414.973958 315.885417 414.322917 311.197917 C 413.671875 306.510417 410.026042 305.208333 410.9375 294.921875 C 411.71875 284.635417 406.640625 282.161458 407.942708 272.786458 " transform="matrix(0.03,0,0,0.03,0,0)"/>
<path style="fill-rule:nonzero;fill:rgb(96.470588%,70.588235%,5.490196%);fill-opacity:1;stroke-width:1.1116;stroke-linecap:butt;stroke-linejoin:miter;stroke:rgb(52.156863%,20.392157%,3.921569%);stroke-opacity:1;stroke-miterlimit:4;" d="M 396.872073 251.295556 L 425.218028 313.264031 C 425.218028 313.264031 425.716313 314.466998 426.558391 314.118199 C 427.400468 313.769399 426.902183 312.566431 426.902183 312.566431 L 403.127506 248.704473 M 402.526267 272.771768 C 402.085749 282.25604 407.904206 287.456524 407.135528 295.808297 C 406.416679 304.280365 411.044258 308.987572 412.149034 312.335242 C 413.203982 315.562616 410.906253 317.500921 411.927005 317.92373 C 412.877288 318.516665 414.996343 315.806751 414.335016 311.147907 C 413.553392 306.538891 410.03059 305.179355 410.873277 294.964753 C 411.786433 284.580027 406.703314 282.175557 407.894801 272.803033 " transform="matrix(0.0277164,0.0114805,-0.0114805,0.0277164,3.783571,-4.021298)"/>
<path style="fill-rule:nonzero;fill:rgb(96.470588%,70.588235%,5.490196%);fill-opacity:1;stroke-width:1.1116;stroke-linecap:butt;stroke-linejoin:miter;stroke:rgb(52.156863%,20.392157%,3.921569%);stroke-opacity:1;stroke-miterlimit:4;" d="M 396.86965 251.289021 L 425.319654 313.252945 C 425.319654 313.252945 425.78001 314.449871 426.608651 314.173657 C 427.34522 313.805372 426.884864 312.608447 426.884864 312.608447 L 403.130492 248.711027 M 402.485993 272.741613 C 402.117709 282.317018 407.918195 287.380935 407.181625 295.851486 C 406.445055 304.322038 410.956545 309.017669 412.061399 312.332233 C 413.258325 315.554725 410.956545 317.488221 411.877257 318.040648 C 412.89004 318.501004 415.007678 315.830939 414.271108 311.227378 C 413.62661 306.531747 410.035833 305.150679 410.864474 294.930774 C 411.785186 284.618799 406.629198 282.224947 407.918195 272.833684 " transform="matrix(0.0212132,0.0212132,-0.0212132,0.0212132,8.818019,-6.288582)"/>
<path style="fill-rule:nonzero;fill:rgb(96.470588%,70.588235%,5.490196%);fill-opacity:1;stroke-width:1.1116;stroke-linecap:butt;stroke-linejoin:miter;stroke:rgb(52.156863%,20.392157%,3.921569%);stroke-opacity:1;stroke-miterlimit:4;" d="M 396.767529 251.338679 L 425.342836 313.348313 C 425.342836 313.348313 425.715817 314.489362 426.566444 314.13702 C 427.367242 313.904976 426.873964 312.714099 426.873964 312.714099 L 403.232291 248.660885 M 402.501716 272.881207 C 402.170624 282.186805 407.910674 287.383137 407.227241 295.838108 C 406.423512 304.24325 411.08089 308.991126 412.129365 312.244147 C 413.128011 315.617464 410.928473 317.525114 411.890847 317.923743 C 412.92369 318.492496 415.01148 315.833876 414.270525 311.157934 C 413.649867 306.531821 410.111432 305.20709 410.841152 294.939119 C 411.740996 284.600679 406.667892 282.217459 407.87025 272.849943 " transform="matrix(0.0114805,0.0277164,-0.0277164,0.0114805,14.336895,-6.45668)"/>
<path style=" stroke:none;fill-rule:nonzero;fill:rgb(52.156863%,20.392157%,3.921569%);fill-opacity:1;" d="M 12.128906 8.230469 C 12.144531 8.503906 12.296875 8.625 12.265625 8.871094 C 12.332031 8.675781 12.171875 8.523438 12.183594 8.234375 M 11.953125 7.523438 L 12.539062 8.800781 L 12.046875 7.484375 "/>
<path style=" stroke:none;fill-rule:nonzero;fill:rgb(52.156863%,20.392157%,3.921569%);fill-opacity:1;" d="M 11.839844 8.226562 C 11.746094 8.480469 11.84375 8.652344 11.722656 8.871094 C 11.859375 8.714844 11.769531 8.511719 11.886719 8.25 M 11.949219 7.503906 L 12 8.90625 L 12.050781 7.503906 "/>
<path style=" stroke:none;fill-rule:nonzero;fill:rgb(52.156863%,20.392157%,3.921569%);fill-opacity:1;" d="M 11.574219 8.109375 C 11.390625 8.3125 11.414062 8.503906 11.21875 8.660156 C 11.402344 8.566406 11.398438 8.347656 11.609375 8.148438 M 11.949219 7.480469 L 11.460938 8.800781 L 12.046875 7.523438 "/>
<path style=" stroke:none;fill-rule:nonzero;fill:rgb(52.156863%,20.392157%,3.921569%);fill-opacity:1;" d="M 11.371094 7.898438 C 11.128906 8.015625 11.074219 8.203125 10.835938 8.269531 C 11.039062 8.257812 11.121094 8.050781 11.390625 7.949219 M 11.960938 7.464844 L 11.003906 8.492188 L 12.035156 7.539062 "/>
<path style="fill-rule:nonzero;fill:rgb(96.470588%,70.588235%,5.490196%);fill-opacity:1;stroke-width:1.1116;stroke-linecap:butt;stroke-linejoin:miter;stroke:rgb(52.156863%,20.392157%,3.921569%);stroke-opacity:1;stroke-miterlimit:4;" d="M 396.875 251.302083 L 425.260417 313.28125 C 425.260417 313.28125 425.78125 314.453125 426.5625 314.192708 C 427.34375 313.802083 426.822917 312.630208 426.822917 312.630208 L 403.125 248.697917 M 402.473958 272.786458 C 402.083333 282.291667 407.942708 287.369792 407.161458 295.833333 C 406.380208 304.296875 411.067708 308.984375 412.109375 312.239583 C 413.151042 315.625 410.9375 317.578125 411.848958 317.96875 C 412.890625 318.489583 414.973958 315.885417 414.322917 311.197917 C 413.671875 306.510417 410.026042 305.208333 410.9375 294.921875 C 411.71875 284.635417 406.640625 282.161458 407.942708 272.786458 " transform="matrix(0.000000000000000002,0.03,-0.03,0.000000000000000002,19.5,-4.5)"/>
<path style="fill-rule:nonzero;fill:rgb(96.470588%,70.588235%,5.490196%);fill-opacity:1;stroke-width:1.1116;stroke-linecap:butt;stroke-linejoin:miter;stroke:rgb(52.156863%,20.392157%,3.921569%);stroke-opacity:1;stroke-miterlimit:4;" d="M 396.872073 251.295556 L 425.218028 313.264031 C 425.218028 313.264031 425.716313 314.466998 426.558391 314.118199 C 427.400468 313.769399 426.902183 312.566431 426.902183 312.566431 L 403.127506 248.704473 M 402.526267 272.771768 C 402.085749 282.25604 407.904206 287.456524 407.135528 295.808297 C 406.416679 304.280365 411.044258 308.987572 412.149034 312.335242 C 413.203982 315.562616 410.906253 317.500921 411.927005 317.92373 C 412.877288 318.516665 414.996343 315.806751 414.335016 311.147907 C 413.553392 306.538891 410.03059 305.179355 410.873277 294.964753 C 411.786433 284.580027 406.703314 282.175557 407.894801 272.803033 " transform="matrix(-0.0114805,0.0277164,-0.0277164,-0.0114805,23.521298,-0.716429)"/>
<path style="fill-rule:nonzero;fill:rgb(96.470588%,70.588235%,5.490196%);fill-opacity:1;stroke-width:1.1116;stroke-linecap:butt;stroke-linejoin:miter;stroke:rgb(52.156863%,20.392157%,3.921569%);stroke-opacity:1;stroke-miterlimit:4;" d="M 396.86965 251.289021 L 425.319654 313.252945 C 425.319654 313.252945 425.78001 314.449871 426.608651 314.173657 C 427.34522 313.805372 426.884864 312.608447 426.884864 312.608447 L 403.130492 248.711027 M 402.485993 272.741613 C 402.117709 282.317018 407.918195 287.380935 407.181625 295.851486 C 406.445055 304.322038 410.956545 309.017669 412.061399 312.332233 C 413.258325 315.554725 410.956545 317.488221 411.877257 318.040648 C 412.89004 318.501004 415.007678 315.830939 414.271108 311.227378 C 413.62661 306.531747 410.035833 305.150679 410.864474 294.930774 C 411.785186 284.618799 406.629198 282.224947 407.918195 272.833684 " transform="matrix(-0.0212132,0.0212132,-0.0212132,-0.0212132,25.788582,4.318019)"/>
<path style="fill-rule:nonzero;fill:rgb(96.470588%,70.588235%,5.490196%);fill-opacity:1;stroke-width:1.1116;stroke-linecap:butt;stroke-linejoin:miter;stroke:rgb(52.156863%,20.392157%,3.921569%);stroke-opacity:1;stroke-miterlimit:4;" d="M 396.767529 251.338679 L 425.342836 313.348313 C 425.342836 313.348313 425.715817 314.489362 426.566444 314.13702 C 427.367242 313.904976 426.873964 312.714099 426.873964 312.714099 L 403.232291 248.660885 M 402.501716 272.881207 C 402.170624 282.186805 407.910674 287.383137 407.227241 295.838108 C 406.423512 304.24325 411.08089 308.991126 412.129365 312.244147 C 413.128011 315.617464 410.928473 317.525114 411.890847 317.923743 C 412.92369 318.492496 415.01148 315.833876 414.270525 311.157934 C 413.649867 306.531821 410.111432 305.20709 410.841152 294.939119 C 411.740996 284.600679 406.667892 282.217459 407.87025 272.849943 " transform="matrix(-0.0277164,0.0114805,-0.0114805,-0.0277164,25.95668,9.836895)"/>
<path style=" stroke:none;fill-rule:nonzero;fill:rgb(52.156863%,20.392157%,3.921569%);fill-opacity:1;" d="M 11.269531 7.628906 C 10.996094 7.644531 10.875 7.796875 10.628906 7.765625 C 10.824219 7.832031 10.976562 7.671875 11.265625 7.683594 M 11.976562 7.453125 L 10.699219 8.039062 L 12.015625 7.546875 "/>
<path style=" stroke:none;fill-rule:nonzero;fill:rgb(52.156863%,20.392157%,3.921569%);fill-opacity:1;" d="M 11.273438 7.339844 C 11.019531 7.246094 10.847656 7.34375 10.628906 7.222656 C 10.785156 7.359375 10.988281 7.269531 11.25 7.386719 M 11.996094 7.449219 L 10.59375 7.5 L 11.996094 7.550781 "/>
<path style=" stroke:none;fill-rule:nonzero;fill:rgb(52.156863%,20.392157%,3.921569%);fill-opacity:1;" d="M 11.390625 7.074219 C 11.1875 6.890625 10.996094 6.914062 10.839844 6.71875 C 10.933594 6.902344 11.152344 6.898438 11.351562 7.109375 M 12.019531 7.449219 L 10.699219 6.960938 L 11.976562 7.546875 "/>
<path style=" stroke:none;fill-rule:nonzero;fill:rgb(52.156863%,20.392157%,3.921569%);fill-opacity:1;" d="M 11.601562 6.871094 C 11.484375 6.628906 11.296875 6.574219 11.230469 6.335938 C 11.242188 6.539062 11.449219 6.621094 11.550781 6.890625 M 12.035156 7.460938 L 11.007812 6.503906 L 11.960938 7.535156 "/>
<path style="fill-rule:nonzero;fill:rgb(96.470588%,70.588235%,5.490196%);fill-opacity:1;stroke-width:1.1116;stroke-linecap:butt;stroke-linejoin:miter;stroke:rgb(52.156863%,20.392157%,3.921569%);stroke-opacity:1;stroke-miterlimit:4;" d="M 396.875 251.302083 L 425.260417 313.28125 C 425.260417 313.28125 425.78125 314.453125 426.5625 314.192708 C 427.34375 313.802083 426.822917 312.630208 426.822917 312.630208 L 403.125 248.697917 M 402.473958 272.786458 C 402.083333 282.291667 407.942708 287.369792 407.161458 295.833333 C 406.380208 304.296875 411.067708 308.984375 412.109375 312.239583 C 413.151042 315.625 410.9375 317.578125 411.848958 317.96875 C 412.890625 318.489583 414.973958 315.885417 414.322917 311.197917 C 413.671875 306.510417 410.026042 305.208333 410.9375 294.921875 C 411.71875 284.635417 406.640625 282.161458 407.942708 272.786458 " transform="matrix(-0.03,0.000000000000000004,-0.000000000000000004,-0.03,24,15)"/>
<path style="fill-rule:nonzero;fill:rgb(96.470588%,70.588235%,5.490196%);fill-opacity:1;stroke-width:1.1116;stroke-linecap:butt;stroke-linejoin:miter;stroke:rgb(52.156863%,20.392157%,3.921569%);stroke-opacity:1;stroke-miterlimit:4;" d="M 396.872073 251.295556 L 425.218028 313.264031 C 425.218028 313.264031 425.716313 314.466998 426.558391 314.118199 C 427.400468 313.769399 426.902183 312.566431 426.902183 312.566431 L 403.127506 248.704473 M 402.526267 272.771768 C 402.085749 282.25604 407.904206 287.456524 407.135528 295.808297 C 406.416679 304.280365 411.044258 308.987572 412.149034 312.335242 C 413.203982 315.562616 410.906253 317.500921 411.927005 317.92373 C 412.877288 318.516665 414.996343 315.806751 414.335016 311.147907 C 413.553392 306.538891 410.03059 305.179355 410.873277 294.964753 C 411.786433 284.580027 406.703314 282.175557 407.894801 272.803033 " transform="matrix(-0.0277164,-0.0114805,0.0114805,-0.0277164,20.216429,19.021298)"/>
<path style="fill-rule:nonzero;fill:rgb(96.470588%,70.588235%,5.490196%);fill-opacity:1;stroke-width:1.1116;stroke-linecap:butt;stroke-linejoin:miter;stroke:rgb(52.156863%,20.392157%,3.921569%);stroke-opacity:1;stroke-miterlimit:4;" d="M 396.86965 251.289021 L 425.319654 313.252945 C 425.319654 313.252945 425.78001 314.449871 426.608651 314.173657 C 427.34522 313.805372 426.884864 312.608447 426.884864 312.608447 L 403.130492 248.711027 M 402.485993 272.741613 C 402.117709 282.317018 407.918195 287.380935 407.181625 295.851486 C 406.445055 304.322038 410.956545 309.017669 412.061399 312.332233 C 413.258325 315.554725 410.956545 317.488221 411.877257 318.040648 C 412.89004 318.501004 415.007678 315.830939 414.271108 311.227378 C 413.62661 306.531747 410.035833 305.150679 410.864474 294.930774 C 411.785186 284.618799 406.629198 282.224947 407.918195 272.833684 " transform="matrix(-0.0212132,-0.0212132,0.0212132,-0.0212132,15.181981,21.288582)"/>
<path style="fill-rule:nonzero;fill:rgb(96.470588%,70.588235%,5.490196%);fill-opacity:1;stroke-width:1.1116;stroke-linecap:butt;stroke-linejoin:miter;stroke:rgb(52.156863%,20.392157%,3.921569%);stroke-opacity:1;stroke-miterlimit:4;" d="M 396.767529 251.338679 L 425.342836 313.348313 C 425.342836 313.348313 425.715817 314.489362 426.566444 314.13702 C 427.367242 313.904976 426.873964 312.714099 426.873964 312.714099 L 403.232291 248.660885 M 402.501716 272.881207 C 402.170624 282.186805 407.910674 287.383137 407.227241 295.838108 C 406.423512 304.24325 411.08089 308.991126 412.129365 312.244147 C 413.128011 315.617464 410.928473 317.525114 411.890847 317.923743 C 412.92369 318.492496 415.01148 315.833876 414.270525 311.157934 C 413.649867 306.531821 410.111432 305.20709 410.841152 294.939119 C 411.740996 284.600679 406.667892 282.217459 407.87025 272.849943 " transform="matrix(-0.0114805,-0.0277164,0.0277164,-0.0114805,9.663105,21.45668)"/>
<path style=" stroke:none;fill-rule:nonzero;fill:rgb(52.156863%,20.392157%,3.921569%);fill-opacity:1;" d="M 11.871094 6.769531 C 11.855469 6.496094 11.703125 6.375 11.734375 6.128906 C 11.667969 6.324219 11.828125 6.476562 11.816406 6.765625 M 12.046875 7.476562 L 11.460938 6.199219 L 11.953125 7.515625 "/>
<path style=" stroke:none;fill-rule:nonzero;fill:rgb(52.156863%,20.392157%,3.921569%);fill-opacity:1;" d="M 12.160156 6.773438 C 12.253906 6.519531 12.15625 6.347656 12.277344 6.128906 C 12.140625 6.285156 12.230469 6.488281 12.113281 6.75 M 12.050781 7.496094 L 12 6.09375 L 11.949219 7.496094 "/>
<path style=" stroke:none;fill-rule:nonzero;fill:rgb(52.156863%,20.392157%,3.921569%);fill-opacity:1;" d="M 12.425781 6.890625 C 12.609375 6.6875 12.585938 6.496094 12.78125 6.339844 C 12.597656 6.433594 12.601562 6.652344 12.390625 6.851562 M 12.050781 7.519531 L 12.539062 6.199219 L 11.953125 7.476562 "/>
<path style=" stroke:none;fill-rule:nonzero;fill:rgb(52.156863%,20.392157%,3.921569%);fill-opacity:1;" d="M 12.628906 7.101562 C 12.871094 6.984375 12.925781 6.796875 13.164062 6.730469 C 12.960938 6.742188 12.878906 6.949219 12.609375 7.050781 M 12.039062 7.535156 L 12.996094 6.507812 L 11.964844 7.460938 "/>
<path style="fill-rule:nonzero;fill:rgb(96.470588%,70.588235%,5.490196%);fill-opacity:1;stroke-width:1.1116;stroke-linecap:butt;stroke-linejoin:miter;stroke:rgb(52.156863%,20.392157%,3.921569%);stroke-opacity:1;stroke-miterlimit:4;" d="M 396.875 251.302083 L 425.260417 313.28125 C 425.260417 313.28125 425.78125 314.453125 426.5625 314.192708 C 427.34375 313.802083 426.822917 312.630208 426.822917 312.630208 L 403.125 248.697917 M 402.473958 272.786458 C 402.083333 282.291667 407.942708 287.369792 407.161458 295.833333 C 406.380208 304.296875 411.067708 308.984375 412.109375 312.239583 C 413.151042 315.625 410.9375 317.578125 411.848958 317.96875 C 412.890625 318.489583 414.973958 315.885417 414.322917 311.197917 C 413.671875 306.510417 410.026042 305.208333 410.9375 294.921875 C 411.71875 284.635417 406.640625 282.161458 407.942708 272.786458 " transform="matrix(-0.000000000000000006,-0.03,0.03,-0.000000000000000006,4.5,19.5)"/>
<path style="fill-rule:nonzero;fill:rgb(96.470588%,70.588235%,5.490196%);fill-opacity:1;stroke-width:1.1116;stroke-linecap:butt;stroke-linejoin:miter;stroke:rgb(52.156863%,20.392157%,3.921569%);stroke-opacity:1;stroke-miterlimit:4;" d="M 396.872073 251.295556 L 425.218028 313.264031 C 425.218028 313.264031 425.716313 314.466998 426.558391 314.118199 C 427.400468 313.769399 426.902183 312.566431 426.902183 312.566431 L 403.127506 248.704473 M 402.526267 272.771768 C 402.085749 282.25604 407.904206 287.456524 407.135528 295.808297 C 406.416679 304.280365 411.044258 308.987572 412.149034 312.335242 C 413.203982 315.562616 410.906253 317.500921 411.927005 317.92373 C 412.877288 318.516665 414.996343 315.806751 414.335016 311.147907 C 413.553392 306.538891 410.03059 305.179355 410.873277 294.964753 C 411.786433 284.580027 406.703314 282.175557 407.894801 272.803033 " transform="matrix(0.0114805,-0.0277164,0.0277164,0.0114805,0.478702,15.716429)"/>
<path style="fill-rule:nonzero;fill:rgb(96.470588%,70.588235%,5.490196%);fill-opacity:1;stroke-width:1.1116;stroke-linecap:butt;stroke-linejoin:miter;stroke:rgb(52.156863%,20.392157%,3.921569%);stroke-opacity:1;stroke-miterlimit:4;" d="M 396.86965 251.289021 L 425.319654 313.252945 C 425.319654 313.252945 425.78001 314.449871 426.608651 314.173657 C 427.34522 313.805372 426.884864 312.608447 426.884864 312.608447 L 403.130492 248.711027 M 402.485993 272.741613 C 402.117709 282.317018 407.918195 287.380935 407.181625 295.851486 C 406.445055 304.322038 410.956545 309.017669 412.061399 312.332233 C 413.258325 315.554725 410.956545 317.488221 411.877257 318.040648 C 412.89004 318.501004 415.007678 315.830939 414.271108 311.227378 C 413.62661 306.531747 410.035833 305.150679 410.864474 294.930774 C 411.785186 284.618799 406.629198 282.224947 407.918195 272.833684 " transform="matrix(0.0212132,-0.0212132,0.0212132,0.0212132,-1.788582,10.681981)"/>
<path style="fill-rule:nonzero;fill:rgb(96.470588%,70.588235%,5.490196%);fill-opacity:1;stroke-width:1.1116;stroke-linecap:butt;stroke-linejoin:miter;stroke:rgb(52.156863%,20.392157%,3.921569%);stroke-opacity:1;stroke-miterlimit:4;" d="M 396.767529 251.338679 L 425.342836 313.348313 C 425.342836 313.348313 425.715817 314.489362 426.566444 314.13702 C 427.367242 313.904976 426.873964 312.714099 426.873964 312.714099 L 403.232291 248.660885 M 402.501716 272.881207 C 402.170624 282.186805 407.910674 287.383137 407.227241 295.838108 C 406.423512 304.24325 411.08089 308.991126 412.129365 312.244147 C 413.128011 315.617464 410.928473 317.525114 411.890847 317.923743 C 412.92369 318.492496 415.01148 315.833876 414.270525 311.157934 C 413.649867 306.531821 410.111432 305.20709 410.841152 294.939119 C 411.740996 284.600679 406.667892 282.217459 407.87025 272.849943 " transform="matrix(0.0277164,-0.0114805,0.0114805,0.0277164,-1.95668,5.163105)"/>
<path style=" stroke:none;fill-rule:nonzero;fill:rgb(52.156863%,20.392157%,3.921569%);fill-opacity:1;" d="M 12.730469 7.371094 C 13.003906 7.355469 13.125 7.203125 13.371094 7.234375 C 13.175781 7.167969 13.023438 7.328125 12.734375 7.316406 M 12.023438 7.546875 L 13.300781 6.960938 L 11.984375 7.453125 "/>
<path style=" stroke:none;fill-rule:nonzero;fill:rgb(52.156863%,20.392157%,3.921569%);fill-opacity:1;" d="M 12.726562 7.660156 C 12.980469 7.753906 13.152344 7.65625 13.371094 7.777344 C 13.214844 7.640625 13.011719 7.730469 12.75 7.613281 M 12.003906 7.550781 L 13.40625 7.5 L 12.003906 7.449219 "/>
<path style=" stroke:none;fill-rule:nonzero;fill:rgb(52.156863%,20.392157%,3.921569%);fill-opacity:1;" d="M 12.609375 7.925781 C 12.8125 8.109375 13.003906 8.085938 13.160156 8.28125 C 13.066406 8.097656 12.847656 8.101562 12.648438 7.890625 M 11.980469 7.550781 L 13.300781 8.039062 L 12.023438 7.453125 "/>
<path style=" stroke:none;fill-rule:nonzero;fill:rgb(52.156863%,20.392157%,3.921569%);fill-opacity:1;" d="M 12.398438 8.128906 C 12.515625 8.371094 12.703125 8.425781 12.769531 8.664062 C 12.757812 8.460938 12.550781 8.378906 12.449219 8.109375 M 11.964844 7.539062 L 12.992188 8.496094 L 12.039062 7.464844 "/>
<path style="fill-rule:nonzero;fill:rgb(96.470588%,70.588235%,5.490196%);fill-opacity:1;stroke-width:1.5;stroke-linecap:butt;stroke-linejoin:miter;stroke:rgb(52.156863%,20.392157%,3.921569%);stroke-opacity:1;stroke-miterlimit:4;" d="M 427.734375 250 C 427.734375 234.635417 415.364583 222.265625 400 222.265625 C 384.635417 222.265625 372.265625 234.635417 372.265625 250 C 372.265625 265.364583 384.635417 277.734375 400 277.734375 C 415.364583 277.734375 427.734375 265.364583 427.734375 250 Z M 427.734375 250 " transform="matrix(0.03,0,0,0.03,0,0)"/>
<path style=" stroke:none;fill-rule:nonzero;fill:rgb(51.764706%,20.784314%,6.666667%);fill-opacity:1;" d="M 12.285156 7.320312 C 12.226562 7.320312 12.171875 7.347656 12.140625 7.398438 C 12.203125 7.457031 12.347656 7.460938 12.441406 7.390625 C 12.402344 7.347656 12.339844 7.320312 12.285156 7.320312 Z M 12.28125 7.335938 C 12.339844 7.332031 12.390625 7.359375 12.398438 7.382812 C 12.332031 7.457031 12.230469 7.449219 12.167969 7.398438 C 12.195312 7.351562 12.238281 7.335938 12.28125 7.335938 Z M 12.28125 7.335938 "/>
<path style=" stroke:none;fill-rule:nonzero;fill:rgb(52.156863%,20.392157%,3.921569%);fill-opacity:1;" d="M 12.292969 7.28125 C 12.210938 7.28125 12.191406 7.300781 12.152344 7.332031 C 12.117188 7.367188 12.097656 7.359375 12.089844 7.367188 C 12.082031 7.371094 12.089844 7.390625 12.101562 7.382812 C 12.117188 7.378906 12.140625 7.367188 12.179688 7.332031 C 12.21875 7.300781 12.257812 7.300781 12.292969 7.300781 C 12.410156 7.300781 12.472656 7.398438 12.488281 7.390625 C 12.5 7.382812 12.421875 7.28125 12.292969 7.28125 Z M 12.292969 7.28125 "/>
<path style=" stroke:none;fill-rule:nonzero;fill:rgb(52.156863%,20.392157%,3.921569%);fill-opacity:1;" d="M 12.527344 7.320312 C 12.378906 7.191406 12.191406 7.171875 12.089844 7.269531 C 12.066406 7.304688 12.046875 7.339844 12.042969 7.375 C 12.027344 7.449219 12.050781 7.527344 12.109375 7.609375 C 12.101562 7.609375 12.089844 7.617188 12.082031 7.621094 C 12.03125 7.523438 12.015625 7.425781 12.03125 7.328125 C 12.035156 7.304688 12.042969 7.28125 12.050781 7.257812 C 12.191406 7.140625 12.382812 7.128906 12.527344 7.320312 Z M 12.527344 7.320312 "/>
<path style=" stroke:none;fill-rule:nonzero;fill:rgb(52.156863%,20.392157%,3.921569%);fill-opacity:1;" d="M 12.339844 7.382812 C 12.339844 7.351562 12.3125 7.328125 12.28125 7.328125 C 12.25 7.328125 12.222656 7.351562 12.222656 7.382812 C 12.222656 7.417969 12.25 7.441406 12.28125 7.441406 C 12.3125 7.441406 12.339844 7.417969 12.339844 7.382812 Z M 12.339844 7.382812 "/>
<path style=" stroke:none;fill-rule:nonzero;fill:rgb(52.156863%,20.392157%,3.921569%);fill-opacity:1;" d="M 12.449219 7.421875 C 12.339844 7.507812 12.230469 7.5 12.167969 7.460938 C 12.101562 7.421875 12.101562 7.410156 12.117188 7.410156 C 12.128906 7.410156 12.140625 7.421875 12.191406 7.449219 C 12.242188 7.472656 12.320312 7.472656 12.449219 7.421875 Z M 12.449219 7.421875 "/>
<path style=" stroke:none;fill-rule:nonzero;fill:rgb(52.156863%,20.392157%,3.921569%);fill-opacity:1;" d="M 11.871094 7.613281 C 11.84375 7.621094 11.824219 7.644531 11.824219 7.671875 C 11.824219 7.703125 11.851562 7.730469 11.882812 7.730469 C 11.902344 7.730469 11.917969 7.71875 11.929688 7.707031 C 11.953125 7.722656 11.984375 7.722656 12 7.722656 C 12.003906 7.722656 12.003906 7.722656 12.007812 7.722656 C 12.023438 7.722656 12.054688 7.722656 12.078125 7.707031 C 12.085938 7.71875 12.105469 7.730469 12.125 7.730469 C 12.15625 7.730469 12.183594 7.703125 12.183594 7.671875 C 12.183594 7.644531 12.164062 7.621094 12.136719 7.613281 C 12.148438 7.621094 12.160156 7.636719 12.160156 7.652344 C 12.160156 7.671875 12.144531 7.691406 12.121094 7.691406 C 12.101562 7.691406 12.085938 7.675781 12.082031 7.652344 C 12.078125 7.667969 12.050781 7.703125 12.003906 7.707031 C 11.957031 7.703125 11.929688 7.667969 11.925781 7.652344 C 11.921875 7.675781 11.90625 7.691406 11.886719 7.691406 C 11.863281 7.691406 11.847656 7.671875 11.847656 7.652344 C 11.847656 7.636719 11.855469 7.621094 11.871094 7.613281 Z M 11.871094 7.613281 "/>
<path style=" stroke:none;fill-rule:nonzero;fill:rgb(52.156863%,20.392157%,3.921569%);fill-opacity:1;" d="M 11.933594 7.785156 C 11.871094 7.785156 11.847656 7.84375 11.789062 7.882812 C 11.820312 7.871094 11.84375 7.84375 11.890625 7.820312 C 11.933594 7.792969 11.972656 7.824219 12 7.824219 C 12.027344 7.824219 12.0625 7.792969 12.109375 7.820312 C 12.152344 7.84375 12.179688 7.871094 12.210938 7.882812 C 12.152344 7.84375 12.128906 7.785156 12.0625 7.785156 C 12.050781 7.785156 12.027344 7.792969 12 7.804688 C 11.972656 7.792969 11.949219 7.785156 11.933594 7.785156 Z M 11.933594 7.785156 "/>
<path style=" stroke:none;fill-rule:nonzero;fill:rgb(52.156863%,20.392157%,3.921569%);fill-opacity:1;" d="M 11.914062 7.863281 C 11.886719 7.863281 11.855469 7.867188 11.808594 7.882812 C 11.921875 7.855469 11.949219 7.894531 12 7.894531 C 12.050781 7.894531 12.078125 7.855469 12.191406 7.882812 C 12.0625 7.84375 12.039062 7.871094 12 7.871094 C 11.976562 7.871094 11.957031 7.859375 11.914062 7.863281 Z M 11.914062 7.863281 "/>
<path style=" stroke:none;fill-rule:nonzero;fill:rgb(52.156863%,20.392157%,3.921569%);fill-opacity:1;" d="M 11.8125 7.882812 C 11.804688 7.882812 11.796875 7.882812 11.789062 7.882812 C 11.921875 7.894531 11.859375 7.972656 12 7.972656 C 12.140625 7.972656 12.078125 7.894531 12.210938 7.882812 C 12.070312 7.871094 12.117188 7.953125 12 7.953125 C 11.890625 7.953125 11.925781 7.878906 11.8125 7.882812 Z M 11.8125 7.882812 "/>
<path style=" stroke:none;fill-rule:nonzero;fill:rgb(52.156863%,20.392157%,3.921569%);fill-opacity:1;" d="M 12.117188 8.089844 C 12.117188 8.027344 12.0625 7.972656 12 7.972656 C 11.9375 7.972656 11.882812 8.027344 11.882812 8.089844 C 11.898438 8.035156 11.945312 8 12 8 C 12.054688 8 12.101562 8.035156 12.117188 8.089844 Z M 12.117188 8.089844 "/>
<path style=" stroke:none;fill-rule:nonzero;fill:rgb(52.156863%,20.392157%,3.921569%);fill-opacity:1;" d="M 11.480469 7.320312 C 11.628906 7.191406 11.816406 7.171875 11.917969 7.269531 C 11.941406 7.304688 11.960938 7.339844 11.964844 7.375 C 11.976562 7.449219 11.957031 7.527344 11.898438 7.609375 C 11.90625 7.609375 11.917969 7.617188 11.925781 7.621094 C 11.976562 7.523438 11.992188 7.425781 11.976562 7.328125 C 11.972656 7.304688 11.964844 7.28125 11.957031 7.257812 C 11.816406 7.140625 11.621094 7.128906 11.480469 7.320312 Z M 11.480469 7.320312 "/>
<path style=" stroke:none;fill-rule:nonzero;fill:rgb(52.156863%,20.392157%,3.921569%);fill-opacity:1;" d="M 11.710938 7.28125 C 11.796875 7.28125 11.816406 7.300781 11.855469 7.332031 C 11.890625 7.367188 11.910156 7.359375 11.917969 7.367188 C 11.925781 7.371094 11.917969 7.390625 11.90625 7.382812 C 11.890625 7.378906 11.867188 7.367188 11.828125 7.332031 C 11.789062 7.300781 11.75 7.300781 11.710938 7.300781 C 11.597656 7.300781 11.53125 7.398438 11.519531 7.390625 C 11.507812 7.382812 11.585938 7.28125 11.710938 7.28125 Z M 11.710938 7.28125 "/>
<path style=" stroke:none;fill-rule:nonzero;fill:rgb(51.764706%,20.784314%,6.666667%);fill-opacity:1;" d="M 11.707031 7.320312 C 11.652344 7.320312 11.597656 7.347656 11.566406 7.398438 C 11.628906 7.457031 11.769531 7.460938 11.867188 7.390625 C 11.824219 7.347656 11.765625 7.320312 11.707031 7.320312 Z M 11.707031 7.335938 C 11.761719 7.332031 11.816406 7.359375 11.820312 7.382812 C 11.757812 7.457031 11.65625 7.449219 11.589844 7.398438 C 11.621094 7.351562 11.664062 7.335938 11.707031 7.335938 Z M 11.707031 7.335938 "/>
<path style=" stroke:none;fill-rule:nonzero;fill:rgb(52.156863%,20.392157%,3.921569%);fill-opacity:1;" d="M 11.773438 7.382812 C 11.773438 7.351562 11.75 7.328125 11.714844 7.328125 C 11.683594 7.328125 11.660156 7.351562 11.660156 7.382812 C 11.660156 7.417969 11.683594 7.441406 11.714844 7.441406 C 11.75 7.441406 11.773438 7.417969 11.773438 7.382812 Z M 11.773438 7.382812 "/>
<path style=" stroke:none;fill-rule:nonzero;fill:rgb(52.156863%,20.392157%,3.921569%);fill-opacity:1;" d="M 11.558594 7.421875 C 11.667969 7.507812 11.777344 7.5 11.839844 7.460938 C 11.90625 7.421875 11.90625 7.410156 11.890625 7.410156 C 11.878906 7.410156 11.867188 7.421875 11.816406 7.449219 C 11.765625 7.472656 11.6875 7.472656 11.558594 7.421875 Z M 11.558594 7.421875 "/>
</g>
</svg>
