<?xml version="1.0" encoding="utf-8"?>
<svg viewBox="0 0 24 12" xmlns="http://www.w3.org/2000/svg">
  <defs/>
  <rect width="24" height="12" style="fill: rgb(255, 255, 255);"/>
  <path d="M 0 0 L 24 0 L 2.574 6 L 24 12 L 0 12 L 0 0 Z" style="fill: rgb(0, 0, 102);"/>
  <path d="M 24 11.357 L 24 12 L 0 6 L 24 0 L 24 0.643 L 2.571 6 L 24 11.357 Z" style="fill: rgb(189, 14, 32);"/>
  <path d="M 18.395 6.67 C 18.555 6.683 18.55 6.841 18.55 6.841 L 19.116 6.854 C 19.189 6.656 19.264 6.679 19.402 6.777 C 19.532 6.869 19.675 6.911 19.675 6.911 C 19.73 6.627 20.132 6.685 20.132 6.685 C 20.303 6.275 20.317 6.281 20.215 6.229 C 20.113 6.177 20.072 6.089 20.072 6.089 C 19.975 5.972 19.924 5.803 19.913 5.699 C 19.902 5.596 19.782 5.751 19.76 5.719 C 19.738 5.686 19.559 5.705 19.559 5.705 C 19.603 5.751 19.453 5.724 19.453 5.724 C 19.468 5.735 19.453 5.779 19.453 5.779 C 19.439 5.76 19.326 5.74 19.326 5.74 C 19.315 5.765 19.289 5.792 19.289 5.792 C 19.227 5.765 19.103 5.77 19.103 5.77 C 18.921 5.768 18.812 5.825 18.761 5.855 C 18.71 5.885 18.527 5.978 18.378 6.122 C 18.229 6.267 18.145 6.251 18.145 6.251 C 18.101 6.412 17.744 6.608 17.744 6.608 C 17.685 6.66 17.507 6.685 17.416 6.608 C 17.324 6.532 17.416 6.395 17.416 6.395 C 17.449 6.332 17.483 6.334 17.486 6.113 C 17.489 5.963 17.643 5.844 17.802 5.671 C 17.996 5.458 18.267 5.108 18.267 5.108 C 18.268 5.215 18.327 5.233 18.327 5.233 C 18.38 5.123 18.457 5.035 18.457 5.035 C 18.461 5.044 18.472 5.05 18.472 5.05 C 18.532 4.969 18.569 4.936 18.569 4.936 C 18.548 4.928 18.38 4.936 18.223 5.073 C 18.066 5.21 17.958 5.164 17.958 5.164 C 17.848 5.129 17.839 5.045 17.839 5.045 C 17.759 4.702 18.073 4.456 18.073 4.456 C 17.652 4.356 17.955 3.822 18.477 3.594 C 19 3.367 18.994 3.265 18.994 3.265 C 19.024 3.3 19.049 3.361 19.049 3.361 C 19.054 3.357 19.093 3.3 19.393 3.167 C 19.694 3.034 19.839 2.919 19.839 2.919 C 19.877 2.993 19.869 3.046 19.869 3.046 C 20.692 2.757 21.503 2.095 21.503 2.095 C 21.526 2.151 21.514 2.234 21.514 2.234 C 21.648 2.111 22.132 1.822 22.132 1.822 C 22.14 2.006 21.988 2.077 21.988 2.077 C 22.005 2.104 22.014 2.152 22.014 2.152 C 22.093 2.109 22.463 1.851 22.463 1.851 C 22.598 1.967 22.475 2.159 22.475 2.159 C 22.523 2.152 22.558 2.11 22.558 2.11 C 22.592 2.308 22.372 2.483 22.372 2.483 C 22.411 2.484 22.475 2.446 22.475 2.446 C 22.434 2.663 22.022 2.904 22.022 2.904 C 22.082 2.957 22.025 3.027 21.976 3.059 C 21.927 3.091 21.839 3.161 21.866 3.189 C 21.894 3.218 22.076 3.09 22.076 3.09 C 22.107 3.181 21.873 3.36 21.873 3.36 C 22.036 3.382 22.489 3.176 22.489 3.176 C 22.452 3.351 22.281 3.487 22.07 3.566 C 21.86 3.645 21.871 3.657 21.871 3.657 C 21.907 3.686 22.199 3.602 22.199 3.602 C 22.111 3.797 21.808 3.931 21.808 3.931 C 21.891 4.002 22.005 3.92 22.118 3.842 C 22.231 3.764 22.386 3.698 22.557 3.64 C 22.728 3.583 22.848 3.626 22.848 3.626 C 22.99 3.581 23.111 3.645 23.111 3.645 C 23.384 3.667 23.411 3.766 23.411 3.766 C 23.441 3.773 23.465 3.786 23.534 3.837 C 23.604 3.888 23.6 4.047 23.597 4.124 C 23.594 4.202 23.573 4.202 23.559 4.224 C 23.545 4.245 23.544 4.27 23.544 4.299 C 23.544 4.329 23.476 4.513 23.053 4.515 C 22.631 4.517 22.413 4.515 22.413 4.515 C 22.378 4.515 22.336 4.536 22.336 4.536 C 22.159 4.624 22.252 4.476 22.041 4.65 C 21.83 4.824 21.722 4.794 21.722 4.794 C 21.687 4.835 21.466 5.041 21.339 5.123 C 21.212 5.205 21.235 5.198 21.346 5.245 C 21.456 5.293 21.623 5.245 21.623 5.245 C 21.516 5.316 21.59 5.349 21.59 5.349 C 21.73 5.264 21.815 5.295 21.815 5.295 C 21.86 5.417 21.699 5.61 21.699 5.61 C 21.761 5.618 21.878 5.61 21.878 5.61 C 21.85 5.693 21.733 5.784 21.647 5.812 C 21.562 5.839 21.577 5.85 21.603 5.902 C 21.628 5.954 21.606 6.007 21.606 6.007 C 21.457 5.903 21.451 5.996 21.451 5.996 C 21.434 6.119 21.437 6.294 21.437 6.294 C 21.331 6.241 21.325 6.312 21.325 6.312 C 21.298 6.424 21.169 6.554 21.169 6.554 C 21.163 6.484 21.099 6.466 21.099 6.466 C 21.032 6.596 20.908 6.674 20.908 6.674 C 20.892 6.786 20.923 6.943 20.923 6.943 C 20.842 6.926 20.813 6.928 20.801 6.947 C 20.788 6.966 20.819 6.975 20.819 6.975 L 21.863 7.001 C 21.878 7.003 21.94 7.009 21.942 7.123 C 21.943 7.236 21.85 7.241 21.85 7.241 L 20.708 7.214 C 20.708 7.214 20.713 7.245 20.653 7.277 C 20.593 7.308 20.613 7.241 20.596 7.382 C 20.58 7.522 20.352 7.371 20.352 7.371 C 20.316 7.426 20.226 7.496 20.226 7.496 C 20.175 7.342 20.122 7.295 20.04 7.428 C 19.958 7.562 20.188 7.539 20.188 7.539 C 20.188 7.539 21.53 7.341 21.603 7.334 C 21.675 7.327 21.756 7.331 21.788 7.434 C 21.821 7.536 21.626 7.552 21.626 7.552 L 20.25 7.703 C 20.221 7.784 20.106 7.778 20.106 7.778 C 20.115 7.855 20.033 7.904 19.991 7.933 C 19.949 7.962 19.818 7.948 19.818 7.948 C 19.658 8.057 19.579 7.971 19.579 7.971 C 19.475 8.016 19.41 7.997 19.324 7.96 C 19.238 7.924 19.246 7.82 19.246 7.82 L 18.377 7.91 C 18.351 7.919 18.328 7.933 18.308 7.952 C 18.339 7.991 18.246 8.083 18.246 8.083 C 18.272 8.101 18.321 8.151 18.328 8.26 C 18.335 8.374 18.188 8.394 18.262 8.473 C 18.336 8.553 18.47 8.487 18.621 8.415 C 18.771 8.343 18.919 8.352 18.983 8.353 C 19.047 8.353 19.226 8.398 19.338 8.438 C 19.449 8.477 19.488 8.453 19.495 8.396 C 19.503 8.339 19.553 8.322 19.553 8.322 C 19.539 8.379 19.569 8.404 19.569 8.404 C 19.612 8.407 19.687 8.365 19.687 8.365 C 19.68 8.406 19.626 8.432 19.626 8.432 C 19.516 8.506 19.667 8.479 19.667 8.479 C 19.966 8.417 20.073 8.423 20.151 8.431 C 20.229 8.44 20.596 8.596 20.596 8.596 C 20.61 8.559 20.6 8.468 20.6 8.468 C 20.695 8.494 20.733 8.548 20.733 8.548 C 20.769 8.509 20.745 8.444 20.745 8.444 C 21.049 8.614 20.682 8.69 20.585 8.723 C 20.488 8.756 20.49 8.796 20.49 8.796 C 20.57 8.77 20.626 8.761 20.693 8.756 C 20.76 8.751 20.737 8.755 20.897 8.723 C 21.057 8.691 21.139 8.759 21.139 8.759 C 21.005 8.766 20.966 8.806 20.966 8.806 C 21.05 8.864 20.97 8.913 20.97 8.913 C 20.848 8.76 20.744 8.92 20.744 8.92 C 20.786 8.913 20.908 8.939 20.943 8.961 C 20.97 8.978 21.033 9.009 21.112 9.045 C 21.223 9.097 21.202 9.064 21.288 9.097 C 21.374 9.129 21.341 9.212 21.341 9.212 C 21.305 9.145 21.225 9.121 21.225 9.121 C 21.218 9.212 21.127 9.228 21.127 9.228 C 21.239 9.103 20.997 9.048 20.883 9.051 C 20.77 9.053 20.685 9.125 20.685 9.125 C 20.914 9.339 21.072 9.269 21.072 9.269 C 21.043 9.347 20.855 9.317 20.855 9.317 C 20.942 9.383 20.933 9.43 20.933 9.43 C 20.886 9.385 20.81 9.408 20.646 9.301 C 20.482 9.195 20.335 9.23 20.335 9.23 C 20.495 9.4 20.276 9.502 20.276 9.502 C 20.196 9.548 20.311 9.61 20.311 9.61 C 20.21 9.629 20.196 9.527 20.196 9.527 C 20.143 9.517 20.066 9.582 20.066 9.582 C 20.071 9.477 20.208 9.529 20.212 9.421 C 20.216 9.312 20.085 9.229 19.698 9.282 C 19.311 9.335 19.198 9.211 19.198 9.211 C 19.165 9.212 19.158 9.245 19.158 9.245 C 19.222 9.306 19.251 9.332 19.24 9.375 C 19.229 9.418 19.261 9.432 19.261 9.432 C 19.19 9.428 19.184 9.343 19.184 9.343 C 19.183 9.378 19.168 9.381 19.144 9.418 C 19.121 9.455 19.143 9.502 19.143 9.502 C 19.113 9.475 19.058 9.443 19.11 9.368 C 19.15 9.309 19.027 9.235 19.027 9.235 C 18.979 9.186 18.852 9.232 18.852 9.232 C 18.588 9.284 18.434 9.117 18.434 9.117 C 18.403 9.117 18.346 9.101 18.346 9.101 C 18.067 9.226 17.822 8.955 17.822 8.955 C 17.612 8.995 17.516 8.894 17.452 8.795 C 17.388 8.695 17.375 8.687 17.291 8.636 C 17.206 8.585 17.127 8.44 17.204 8.364 C 17.272 8.297 17.252 8.282 17.252 8.282 C 17.143 8.098 17.447 8.039 17.453 7.995 C 17.461 7.931 17.524 7.89 17.593 7.886 C 17.661 7.882 17.661 7.888 17.706 7.842 C 17.751 7.796 17.837 7.853 17.837 7.853 C 17.855 7.84 18.006 7.723 18.14 7.784 C 18.274 7.844 18.384 7.801 18.384 7.801 C 18.479 7.781 19.262 7.674 19.262 7.674 C 19.313 7.599 19.348 7.508 19.564 7.458 C 19.78 7.409 19.944 7.275 19.944 7.275 C 19.906 7.234 19.842 7.236 19.809 7.232 C 19.776 7.228 19.708 7.17 19.708 7.17 C 19.668 7.187 19.648 7.179 19.365 7.351 C 19.112 7.505 19.104 7.2 19.104 7.2 L 18.553 7.201 C 18.543 7.317 18.454 7.363 18.454 7.363 L 18.253 7.373 C 18.141 7.314 18.14 7.117 18.14 7.117 C 17.533 7.126 17.195 7.343 17.195 7.343 C 16.507 6.991 15.969 6.911 15.969 6.911 C 16.804 6.82 17.246 6.588 17.246 6.588 C 17.706 6.864 18.14 6.871 18.14 6.871 C 18.156 6.704 18.268 6.663 18.268 6.663 L 18.395 6.67 L 18.395 6.67 Z" style=""/>
  <path d="M 17.402 8.056 C 17.228 8.159 17.259 8.215 17.274 8.246 C 17.29 8.278 17.292 8.309 17.244 8.357 C 17.197 8.404 17.201 8.421 17.201 8.421 C 17.209 8.591 17.329 8.627 17.379 8.668 C 17.421 8.703 17.492 8.812 17.492 8.812 C 17.582 8.94 17.676 8.942 17.746 8.942 C 17.817 8.942 17.81 8.936 17.775 8.904 C 17.741 8.875 17.671 8.817 17.671 8.817 C 17.765 8.85 17.854 8.948 17.854 8.948 C 18.031 9.142 18.195 9.116 18.267 9.107 C 18.339 9.097 18.326 9.056 18.326 9.056 C 18.322 9.049 18.252 9.043 18.252 9.043 C 17.986 9.018 17.906 8.844 17.906 8.844 C 18.066 9.001 18.318 9.033 18.395 9.03 C 18.473 9.027 18.468 9.05 18.452 9.054 C 18.435 9.058 18.412 9.054 18.376 9.051 C 18.341 9.048 18.341 9.057 18.349 9.072 C 18.357 9.087 18.391 9.089 18.433 9.087 C 18.475 9.086 18.441 9.09 18.551 9.176 C 18.661 9.261 18.935 9.192 18.935 9.192 C 18.758 9.148 18.734 9.068 18.734 9.068 C 18.493 9.096 18.395 8.952 18.395 8.952 C 18.352 8.909 18.224 8.843 18.224 8.843 C 18.088 8.784 18.067 8.661 18.067 8.661 C 18.105 8.716 18.179 8.778 18.274 8.804 C 18.368 8.83 18.395 8.844 18.395 8.844 C 18.35 8.851 18.323 8.836 18.323 8.836 C 18.229 8.808 18.282 8.847 18.282 8.847 C 18.386 8.93 18.414 8.923 18.414 8.923 C 18.687 8.952 18.552 8.843 18.552 8.843 C 18.746 8.889 18.778 8.816 18.778 8.816 C 18.818 8.901 18.965 8.871 18.965 8.871 C 18.77 8.965 18.918 8.938 18.918 8.938 C 19.116 8.901 19.155 8.951 19.155 8.951 C 19.208 9.001 19.262 8.994 19.262 8.994 C 19.262 8.994 19.298 8.995 19.373 9.01 C 19.448 9.025 19.563 9.089 19.672 9.076 C 19.782 9.062 19.799 9.096 19.799 9.096 C 19.779 9.089 19.731 9.082 19.646 9.12 C 19.562 9.158 19.415 9.17 19.202 9.12 C 18.989 9.07 18.972 9.076 18.972 9.076 C 19.023 9.114 19.068 9.167 19.078 9.204 C 19.087 9.241 19.124 9.243 19.124 9.243 C 19.139 9.196 19.203 9.175 19.203 9.175 C 19.245 9.214 19.358 9.265 19.358 9.265 C 19.37 9.24 19.358 9.222 19.358 9.222 C 19.44 9.3 19.536 9.276 19.536 9.276 C 19.561 9.258 19.553 9.214 19.553 9.214 C 19.586 9.213 19.592 9.233 19.615 9.249 C 19.638 9.264 19.712 9.254 19.712 9.254 C 19.685 9.243 19.665 9.201 19.665 9.201 C 19.773 9.126 20.007 9.159 20.007 9.159 C 20.176 9.188 20.155 9.299 20.155 9.299 C 20.189 9.315 20.234 9.367 20.234 9.367 C 20.248 9.328 20.236 9.288 20.236 9.288 C 20.313 9.325 20.329 9.415 20.329 9.415 C 20.419 9.313 20.244 9.198 20.244 9.198 C 20.328 9.187 20.422 9.195 20.479 9.203 C 20.536 9.211 20.617 9.241 20.683 9.296 C 20.75 9.351 20.869 9.377 20.869 9.377 C 20.865 9.354 20.802 9.315 20.787 9.307 C 20.773 9.299 20.767 9.279 20.767 9.279 C 20.825 9.289 20.865 9.284 20.865 9.284 C 20.661 9.159 20.609 9.1 20.609 9.1 C 20.686 9.11 20.728 9.062 20.728 9.062 C 20.567 9.066 20.562 9.024 20.562 9.024 C 20.581 9.029 20.655 9.047 20.751 9.028 C 20.847 9.009 20.981 9.029 20.981 9.029 C 20.912 8.917 20.642 8.936 20.555 8.94 C 20.469 8.945 20.436 8.934 20.436 8.934 C 20.45 8.927 20.464 8.913 20.532 8.912 C 20.599 8.912 20.665 8.917 20.742 8.865 C 20.819 8.812 20.924 8.829 20.924 8.829 C 20.898 8.779 20.777 8.761 20.67 8.829 C 20.564 8.897 20.467 8.876 20.467 8.876 C 20.636 8.852 20.685 8.792 20.685 8.792 C 20.634 8.78 20.606 8.797 20.504 8.816 C 20.403 8.836 20.376 8.801 20.376 8.801 C 20.487 8.735 20.565 8.709 20.565 8.709 C 20.47 8.689 20.382 8.648 20.382 8.648 C 20.284 8.741 20.207 8.793 20.019 8.694 C 19.83 8.595 19.732 8.607 19.732 8.607 C 19.897 8.509 20.068 8.551 20.192 8.625 C 20.316 8.7 20.351 8.639 20.351 8.639 C 20.312 8.614 20.318 8.593 20.318 8.593 C 20.618 8.747 20.749 8.651 20.815 8.606 C 20.882 8.561 20.785 8.501 20.785 8.501 C 20.779 8.599 20.656 8.643 20.559 8.61 C 20.463 8.578 20.373 8.536 20.234 8.478 C 20.095 8.42 19.921 8.45 19.759 8.484 C 19.597 8.518 19.576 8.502 19.561 8.489 C 19.547 8.476 19.538 8.436 19.455 8.47 C 19.372 8.505 19.179 8.414 19.059 8.385 C 18.939 8.357 18.742 8.372 18.571 8.466 C 18.401 8.559 18.317 8.536 18.266 8.513 C 18.215 8.49 18.183 8.425 18.238 8.368 C 18.292 8.311 18.297 8.295 18.292 8.213 C 18.288 8.13 18.207 8.081 18.207 8.081 C 18.281 8.004 18.3 7.987 18.274 7.953 C 18.249 7.92 18.289 7.921 18.332 7.902 C 18.374 7.882 18.355 7.88 18.345 7.854 C 18.335 7.829 18.311 7.833 18.311 7.833 C 18.211 7.837 18.157 7.81 18.157 7.81 C 17.992 7.734 17.839 7.882 17.839 7.882 C 17.746 7.81 17.725 7.857 17.708 7.874 C 17.692 7.892 17.659 7.904 17.615 7.908 C 17.575 7.912 17.515 7.928 17.494 7.965 C 17.494 7.965 17.476 7.995 17.499 8.027 C 17.499 8.027 17.525 8.066 17.478 8.112 C 17.432 8.159 17.415 8.17 17.43 8.214 C 17.444 8.258 17.44 8.292 17.422 8.321 C 17.422 8.321 17.401 8.296 17.406 8.266 C 17.412 8.236 17.412 8.218 17.405 8.202 C 17.405 8.202 17.359 8.247 17.351 8.279 C 17.351 8.279 17.332 8.23 17.398 8.163 C 17.464 8.097 17.495 8.063 17.476 8.038 C 17.462 8.019 17.414 8.049 17.402 8.056 L 17.402 8.056 Z" fill="#FFC221" style=""/>
  <path d="M 17.591 8.79 C 17.591 8.79 17.508 8.726 17.518 8.638 C 17.528 8.55 17.526 8.539 17.517 8.521 C 17.517 8.521 17.502 8.53 17.502 8.564 C 17.503 8.596 17.498 8.629 17.495 8.636 C 17.495 8.636 17.452 8.563 17.435 8.549 C 17.435 8.549 17.449 8.473 17.426 8.44 C 17.402 8.407 17.379 8.405 17.352 8.415 C 17.314 8.429 17.286 8.464 17.412 8.568 C 17.412 8.568 17.459 8.606 17.492 8.689 C 17.525 8.772 17.58 8.785 17.591 8.79 L 17.591 8.79 Z M 18.002 8.546 C 18.002 8.546 17.995 8.496 18.04 8.408 C 18.085 8.32 18.058 8.255 18.048 8.233 C 18.038 8.211 18.032 8.219 18.077 8.182 C 18.132 8.135 18.055 8.076 18.147 7.995 C 18.147 7.995 18.207 7.943 18.22 7.922 C 18.22 7.922 18.124 7.974 18.061 8 C 17.998 8.026 17.757 8.144 17.81 8.223 C 17.863 8.302 17.858 8.306 17.849 8.339 C 17.849 8.339 17.706 8.263 17.756 8.14 C 17.756 8.14 17.779 8.091 17.839 8.035 C 17.894 7.985 17.861 8.046 17.972 7.983 C 17.972 7.983 18.061 7.93 18.107 7.859 C 18.107 7.859 18.049 7.896 18.028 7.902 C 18.028 7.902 17.9 7.925 17.848 7.98 C 17.796 8.035 17.685 8.129 17.723 8.235 C 17.723 8.235 17.594 8.219 17.565 8.086 C 17.565 8.086 17.327 8.379 17.827 8.515 C 17.827 8.516 17.918 8.54 18.002 8.546 L 18.002 8.546 Z" style=""/>
  <path d="M 20.199 7.566 C 20.385 7.537 21.466 7.374 21.564 7.364 C 21.672 7.353 21.713 7.339 21.748 7.425 C 21.789 7.524 21.601 7.525 21.601 7.525 L 20.312 7.671 C 20.249 7.678 20.235 7.654 20.235 7.654 C 20.224 7.634 20.202 7.606 20.187 7.588 C 20.187 7.588 20.17 7.57 20.199 7.566 L 20.199 7.566 Z" fill="#FFC221" style=""/>
  <path d="M 17.559 8.152 C 17.559 8.152 17.419 8.446 17.967 8.518 C 17.967 8.518 17.969 8.485 17.991 8.439 C 18.013 8.393 18.06 8.3 18.015 8.24 C 17.97 8.179 18.052 8.211 18.064 8.132 C 18.077 8.054 18.056 8.065 18.095 8.014 C 18.095 8.014 17.922 8.076 17.857 8.152 C 17.791 8.228 17.946 8.285 17.854 8.368 C 17.854 8.368 17.777 8.34 17.732 8.257 C 17.732 8.257 17.626 8.259 17.559 8.152 L 17.559 8.152 Z" fill="#5A3719" style=""/>
  <path d="M 18.095 8.513 C 18.095 8.513 18.23 8.63 18.391 8.625 C 18.553 8.62 18.621 8.577 18.662 8.513 C 18.662 8.513 18.693 8.562 18.693 8.595 C 18.693 8.595 18.833 8.479 19.073 8.58 C 19.314 8.68 19.24 8.652 19.294 8.659 C 19.294 8.659 19.191 8.641 18.957 8.748 C 18.717 8.859 18.089 8.821 18.095 8.513 L 18.095 8.513 Z" style=""/>
  <path d="M 17.87 7.994 C 17.87 7.994 17.931 8.004 17.992 7.935 C 17.992 7.935 17.91 7.95 17.87 7.994 Z M 17.411 8.54 C 17.411 8.54 17.297 8.451 17.37 8.433 C 17.37 8.433 17.422 8.425 17.411 8.54 Z" fill="#5A3719" style=""/>
  <path d="M 19.873 9.096 C 19.873 9.096 19.933 8.989 20.107 8.989 C 20.281 8.989 20.301 9.069 20.52 9.084 C 20.52 9.084 20.257 9.158 20.074 9.09 C 19.978 9.055 19.892 9.084 19.873 9.096 L 19.873 9.096 Z"/>
  <path d="M 18.155 8.591 C 18.155 8.591 18.414 8.748 18.646 8.578 C 18.646 8.578 18.665 8.596 18.681 8.638 C 18.681 8.638 18.856 8.469 19.169 8.651 C 19.169 8.651 19.131 8.647 18.983 8.711 C 18.791 8.793 18.311 8.848 18.155 8.591 L 18.155 8.591 Z" fill="#5A3719"/>
  <path d="M 19.157 8.75 C 19.157 8.75 19.406 8.779 19.616 8.767 C 19.746 8.759 19.885 8.736 19.816 8.779 C 19.746 8.823 19.78 8.827 20.078 8.8 C 20.376 8.772 20.076 8.856 20.281 8.882 C 20.281 8.882 19.784 9.136 19.157 8.75 Z"/>
  <path d="M 19.81 8.592 C 19.81 8.592 19.957 8.539 20.092 8.602 C 20.227 8.666 20.207 8.671 20.297 8.68 C 20.297 8.68 20.234 8.77 20.085 8.697 C 19.936 8.625 19.897 8.611 19.81 8.592 Z M 19.973 9.041 C 19.973 9.041 20.117 8.969 20.275 9.044 C 20.295 9.053 20.338 9.071 20.379 9.08 C 20.379 9.08 20.257 9.118 20.133 9.079 C 20.081 9.063 20.04 9.05 19.973 9.041 Z M 19.263 8.784 C 19.263 8.784 19.583 8.814 19.757 8.779 C 19.757 8.779 19.556 8.876 20.06 8.831 C 20.06 8.831 20.173 8.819 20.159 8.836 C 20.145 8.854 20.137 8.867 20.192 8.883 C 20.192 8.884 19.817 9.051 19.263 8.784 L 19.263 8.784 Z" fill="#5A3719"/>
  <path d="M 17.665 8.513 C 17.665 8.513 17.668 8.537 17.739 8.569 C 17.81 8.601 17.848 8.657 17.863 8.688 C 17.878 8.719 17.915 8.765 17.974 8.779 C 17.974 8.779 17.723 8.832 17.61 8.701 C 17.61 8.701 17.525 8.607 17.662 8.513"/>
  <path d="M 19.639 9.091 C 19.639 9.091 19.54 9.085 19.404 9.038 C 19.269 8.991 19.233 9.031 19.157 8.974 C 19.08 8.916 18.926 8.952 18.897 8.956 C 18.868 8.96 18.786 8.956 18.889 8.89 C 18.889 8.89 18.807 8.888 18.775 8.847 C 18.775 8.847 18.739 8.882 18.6 8.869 C 18.6 8.869 18.662 8.966 18.415 8.938 C 18.415 8.938 18.488 9.024 18.577 9.041 C 18.666 9.058 18.703 9.053 18.76 9.036 C 18.76 9.036 18.744 9.111 18.859 9.139 C 18.974 9.168 18.997 9.19 19.056 9.214 C 19.056 9.214 19.064 9.166 18.911 9.054 C 18.911 9.054 18.993 9.05 19.11 9.079 C 19.228 9.108 19.495 9.176 19.639 9.091 L 19.639 9.091 Z M 19.701 9.206 C 19.701 9.206 19.726 9.263 19.802 9.25 C 19.877 9.237 20.002 9.215 20.122 9.276 C 20.122 9.276 20.143 9.174 19.901 9.167 C 19.901 9.167 19.75 9.175 19.701 9.206 L 19.701 9.206 Z M 17.656 8.549 C 17.656 8.549 17.563 8.625 17.648 8.705 C 17.725 8.777 17.843 8.771 17.9 8.769 C 17.9 8.769 17.866 8.749 17.836 8.704 C 17.806 8.659 17.805 8.629 17.742 8.6 C 17.676 8.57 17.668 8.562 17.656 8.549 L 17.656 8.549 Z M 17.559 8.152 C 17.559 8.152 17.419 8.446 17.967 8.518 C 17.967 8.518 17.969 8.485 17.991 8.439 C 18.013 8.393 18.06 8.3 18.015 8.24 C 17.97 8.179 18.052 8.211 18.064 8.132 C 18.077 8.054 18.056 8.065 18.095 8.014 C 18.095 8.014 17.922 8.076 17.857 8.152 C 17.791 8.228 17.946 8.285 17.854 8.368 C 17.854 8.368 17.777 8.34 17.732 8.257 C 17.732 8.257 17.626 8.259 17.559 8.152 L 17.559 8.152 Z" fill="#5A3719"/>
  <path d="M 19 8.829 C 19 8.829 19.114 8.811 19.407 8.92 C 19.7 9.03 19.821 9.002 19.865 8.999 C 19.865 8.999 19.7 9.085 19.444 8.973 C 19.218 8.873 19.203 8.911 19 8.829 L 19 8.829 Z"/>
  <path d="M 20.831 8.764 C 20.831 8.764 20.898 8.762 20.937 8.78 C 20.937 8.78 20.962 8.758 21.023 8.752 C 21.023 8.752 20.983 8.711 20.831 8.764 L 20.831 8.764 Z M 20.631 8.602 C 20.631 8.602 20.698 8.599 20.718 8.567 C 20.718 8.567 20.684 8.524 20.633 8.503 C 20.633 8.503 20.643 8.549 20.631 8.602 L 20.631 8.602 Z M 18.383 7.854 C 18.383 7.854 18.371 7.821 18.44 7.811 C 18.51 7.801 19.422 7.671 19.422 7.671 C 19.422 7.671 19.47 7.671 19.477 7.703 C 19.484 7.737 19.471 7.763 19.251 7.788 C 19.031 7.814 18.45 7.887 18.45 7.887 C 18.45 7.887 18.388 7.897 18.383 7.854 Z" fill="#FFC221"/>
  <path d="M 19.272 7.815 C 19.272 7.815 19.272 7.944 19.403 7.963 C 19.531 7.981 19.574 7.955 19.608 7.888 C 19.617 7.87 19.656 7.736 19.6 7.725 C 19.578 7.721 19.538 7.724 19.51 7.736 C 19.466 7.755 19.425 7.777 19.44 7.799 C 19.471 7.846 19.477 7.856 19.465 7.86 C 19.434 7.869 19.411 7.842 19.404 7.822 C 19.396 7.798 19.422 7.783 19.336 7.796 C 19.301 7.801 19.272 7.8 19.272 7.815 L 19.272 7.815 Z" fill="#FFC221"/>
  <path d="M 19.818 7.716 C 19.885 7.724 19.88 7.865 19.8 7.93 C 19.713 7.999 19.631 7.974 19.631 7.974 C 19.587 7.955 19.593 7.962 19.627 7.91 C 19.659 7.862 19.674 7.797 19.656 7.751 C 19.65 7.737 19.666 7.725 19.688 7.72 C 19.688 7.72 19.749 7.708 19.818 7.716 L 19.818 7.716 Z" fill="#FFC221"/>
  <path d="M 19.876 7.728 C 19.876 7.728 19.924 7.788 19.864 7.899 C 19.864 7.899 19.838 7.932 19.897 7.927 C 19.957 7.923 20.089 7.859 20.075 7.778 C 20.075 7.778 20.07 7.758 20.036 7.76 C 20.001 7.762 20.029 7.741 20.044 7.737 C 20.059 7.733 20.104 7.716 19.987 7.641 C 19.987 7.641 19.967 7.624 19.945 7.631 C 19.927 7.636 19.864 7.662 19.864 7.698 C 19.865 7.713 19.876 7.728 19.876 7.728 L 19.876 7.728 Z" fill="#FFC221"/>
  <path d="M 20.004 7.626 C 20.004 7.626 20.098 7.693 20.097 7.713 C 20.097 7.733 20.089 7.76 20.113 7.758 C 20.138 7.755 20.239 7.734 20.211 7.667 C 20.184 7.6 20.156 7.576 20.109 7.56 C 20.062 7.544 20.05 7.566 20.01 7.596 C 20.01 7.596 19.981 7.614 20.004 7.626 L 20.004 7.626 Z M 19.499 7.721 C 19.499 7.721 19.515 7.671 19.431 7.653 C 19.431 7.653 19.466 7.623 19.537 7.639 C 19.608 7.654 19.6 7.701 19.6 7.707 C 19.6 7.707 19.545 7.705 19.499 7.721 Z M 19.681 7.709 C 19.681 7.709 19.778 7.692 19.822 7.698 C 19.822 7.698 19.774 7.59 19.644 7.627 C 19.644 7.627 19.691 7.679 19.681 7.709 Z M 19.848 7.683 C 19.848 7.683 19.848 7.65 19.93 7.617 C 19.93 7.617 19.89 7.579 19.834 7.583 C 19.771 7.587 19.758 7.61 19.758 7.61 C 19.758 7.61 19.827 7.634 19.848 7.683 Z M 19.88 7.571 C 19.88 7.571 19.931 7.584 19.963 7.611 C 19.963 7.611 20.011 7.558 20.052 7.547 C 20.052 7.547 19.972 7.504 19.88 7.571 Z" fill="#FFC221"/>
  <path d="M 17.196 7.313 C 17.196 7.313 17.422 7.122 17.548 7.145 C 17.674 7.168 17.611 7.152 17.749 7.131 C 17.887 7.109 18.029 7.095 18.086 7.102 C 18.086 7.102 17.92 6.982 17.622 6.984 C 17.622 6.984 17.411 7.057 17.266 7.153 C 17.266 7.153 16.987 6.998 16.699 7.091 C 16.699 7.091 17.012 7.204 17.196 7.313 Z" fill="#5A3719"/>
  <path d="M 19.591 7.643 L 19.628 7.637 C 19.628 7.637 19.692 7.716 19.646 7.716 C 19.61 7.717 19.624 7.705 19.618 7.683 C 19.611 7.66 19.598 7.649 19.591 7.643 Z M 19.308 7.649 C 19.308 7.649 19.285 7.678 19.328 7.671 C 19.379 7.663 19.369 7.673 19.426 7.634 C 19.426 7.634 19.461 7.597 19.526 7.62 C 19.526 7.62 19.581 7.638 19.625 7.617 C 19.669 7.595 19.68 7.597 19.704 7.599 C 19.728 7.601 19.726 7.606 19.758 7.583 C 19.79 7.559 19.845 7.577 19.88 7.548 C 19.915 7.519 19.959 7.544 19.88 7.487 C 19.88 7.487 19.864 7.471 19.865 7.457 C 19.865 7.457 19.895 7.466 19.919 7.487 C 19.943 7.509 19.983 7.502 19.989 7.499 C 19.989 7.499 19.993 7.428 20.063 7.364 C 20.133 7.3 20.134 7.294 20.093 7.294 C 20.052 7.293 19.983 7.277 19.959 7.294 C 19.936 7.31 19.732 7.444 19.613 7.467 C 19.494 7.489 19.384 7.523 19.308 7.649 L 19.308 7.649 Z M 16.134 6.916 C 16.134 6.916 16.499 7.01 16.581 7.05 C 16.581 7.05 16.601 6.989 16.435 6.941 C 16.435 6.941 16.838 6.929 17.264 7.123 C 17.264 7.123 17.47 6.946 18.132 7.001 C 18.132 7.001 18.133 6.942 18.137 6.897 C 18.137 6.897 17.673 6.884 17.246 6.625 C 17.246 6.625 16.864 6.812 16.134 6.916 L 16.134 6.916 Z M 18.163 7.092 C 18.137 6.719 18.28 6.686 18.28 6.686 C 18.28 6.686 18.348 6.686 18.421 6.698 C 18.421 6.698 18.308 6.832 18.338 7.099 C 18.338 7.099 18.35 7.142 18.254 7.142 C 18.16 7.142 18.163 7.092 18.163 7.092 L 18.163 7.092 Z" fill="#FFC221"/>
  <path d="M 18.26 7.339 C 18.26 7.339 18.191 7.268 18.184 7.187 C 18.184 7.187 18.182 7.165 18.252 7.168 C 18.322 7.17 18.332 7.161 18.349 7.202 C 18.366 7.241 18.41 7.325 18.421 7.335 L 18.26 7.339 L 18.26 7.339 Z" fill="#5A3719"/>
  <path d="M 18.41 7.153 C 18.404 7.106 18.401 7.059 18.403 7.011 C 18.407 6.803 18.442 6.822 18.455 6.848 L 18.527 6.849 C 18.527 6.849 18.475 6.614 18.414 6.751 C 18.354 6.886 18.358 6.974 18.365 7.08 C 18.369 7.142 18.378 7.18 18.384 7.203 L 18.41 7.153 Z" fill="#FFC221"/>
  <path d="M 19.214 7.154 C 19.214 7.154 19.352 7.175 19.141 7.225 C 19.141 7.225 19.151 7.479 19.4 7.301 C 19.4 7.301 19.547 7.207 19.649 7.169 C 19.649 7.169 19.7 7.151 19.694 7.113 C 19.694 7.113 19.698 7.068 19.645 7.076 C 19.645 7.076 19.603 7.077 19.576 7.068 C 19.576 7.068 19.546 7.033 19.527 7.046 C 19.507 7.06 19.46 7.052 19.497 7.096 C 19.533 7.14 19.544 7.129 19.561 7.116 C 19.579 7.103 19.658 7.072 19.585 7.137 C 19.513 7.202 19.456 7.101 19.433 7.083 L 19.214 7.154 L 19.214 7.154 Z M 18.527 7.183 L 18.466 7.181 C 18.466 7.181 18.433 7.23 18.41 7.153 L 18.384 7.203 C 18.384 7.203 18.46 7.476 18.527 7.183 Z" fill="#5A3719"/>
  <path d="M 18.44 6.867 C 18.44 6.867 18.409 7.046 18.448 7.157 L 19.109 7.169 C 19.109 7.169 19.101 7.041 19.111 6.867 L 19.017 6.867 C 19.017 6.867 19.004 7.011 19.016 7.1 L 19.001 7.1 C 19.001 7.1 18.989 6.976 19.001 6.867 L 18.924 6.867 C 18.924 6.867 18.911 7 18.921 7.101 L 18.907 7.101 C 18.907 7.101 18.896 6.985 18.908 6.867 L 18.832 6.867 C 18.832 6.867 18.818 6.988 18.833 7.1 L 18.815 7.099 C 18.815 7.099 18.799 6.977 18.815 6.867 L 18.731 6.867 C 18.731 6.867 18.71 6.98 18.73 7.101 L 18.712 7.101 C 18.712 7.101 18.693 6.985 18.714 6.867 L 18.63 6.867 C 18.63 6.867 18.61 6.995 18.627 7.101 L 18.61 7.101 C 18.61 7.101 18.597 6.977 18.615 6.867 L 18.536 6.867 C 18.536 6.867 18.515 6.975 18.532 7.101 L 18.515 7.101 C 18.515 7.101 18.502 7.007 18.518 6.867 L 18.44 6.867 L 18.44 6.867 Z M 19.138 7.193 C 19.138 7.193 19.12 6.87 19.182 6.787 C 19.244 6.704 19.257 6.72 19.362 6.787 C 19.468 6.854 19.605 6.926 19.627 6.934 C 19.649 6.942 19.68 6.951 19.68 7.009 C 19.68 7.068 19.69 7.086 19.599 7.012 C 19.586 7.001 19.543 6.962 19.512 6.952 C 19.431 6.926 19.532 6.97 19.561 7.012 C 19.586 7.047 19.605 7.043 19.541 7.06 C 19.477 7.076 19.257 7.15 19.138 7.193 L 19.138 7.193 Z" fill="#FFC221"/>
  <path d="M 19.369 6.962 C 19.369 6.962 19.322 6.901 19.382 6.888 C 19.443 6.874 19.448 6.983 19.458 7.049 C 19.469 7.115 19.382 6.983 19.369 6.962 L 19.369 6.962 Z M 19.281 7.244 C 19.281 7.244 19.21 7.27 19.256 7.293 C 19.302 7.316 19.434 7.207 19.389 7.214 C 19.343 7.221 19.281 7.244 19.281 7.244 Z M 19.377 7.144 C 19.377 7.144 19.44 7.138 19.428 7.165 C 19.415 7.192 19.393 7.175 19.383 7.169 C 19.374 7.163 19.329 7.148 19.377 7.144 L 19.377 7.144 Z"/>
  <path d="M 19.712 7.059 C 19.712 7.059 19.729 7.183 19.834 7.214 C 19.834 7.214 19.896 7.229 19.883 7.175 C 19.883 7.175 19.872 7.13 19.864 7.111 C 19.855 7.092 19.813 7.081 19.808 7.078 C 19.803 7.076 19.798 7.063 19.827 7.073 C 19.856 7.083 19.861 7.084 19.859 7.063 C 19.856 7.043 19.839 7.051 19.812 7.038 C 19.802 7.033 19.814 7.026 19.824 7.028 C 19.835 7.031 19.861 7.039 19.862 6.996 C 19.862 6.996 19.868 6.973 19.835 6.971 C 19.8 6.969 19.803 6.953 19.814 6.951 C 19.825 6.949 19.862 6.974 19.872 6.932 C 19.882 6.889 19.821 6.914 19.829 6.892 C 19.838 6.87 19.881 6.905 19.885 6.878 C 19.888 6.853 19.923 6.842 19.863 6.833 C 19.835 6.829 19.861 6.817 19.893 6.821 C 19.927 6.826 19.948 6.784 19.967 6.771 C 19.987 6.757 20.097 6.691 19.95 6.713 C 19.802 6.734 19.759 6.806 19.749 6.82 C 19.74 6.835 19.699 6.919 19.712 7.059 L 19.712 7.059 Z" fill="#FFC221"/>
  <path d="M 20.056 7.155 C 20.075 7.151 20.093 7.156 20.099 7.17 C 20.124 7.219 20.068 7.202 20.037 7.238 C 20.006 7.275 20.005 7.268 19.961 7.255 C 19.917 7.242 19.901 7.176 19.901 7.176 C 19.896 7.155 19.915 7.154 19.938 7.156 C 19.938 7.156 20.01 7.164 20.056 7.155 L 20.056 7.155 Z M 19.896 7.128 C 19.896 7.128 19.899 7.143 19.924 7.145 C 19.949 7.147 20.022 7.154 20.065 7.14 C 20.065 7.14 20.081 7.136 20.074 7.108 C 20.074 7.108 20.073 7.09 20.035 7.097 C 19.996 7.105 19.939 7.097 19.92 7.093 C 19.902 7.089 19.886 7.094 19.896 7.128 L 19.896 7.128 Z M 19.89 7.039 C 19.89 7.039 19.889 7.078 19.928 7.083 C 19.967 7.088 20.016 7.088 20.036 7.084 C 20.052 7.081 20.08 7.075 20.082 7.052 C 20.084 7.029 20.091 7.012 20.042 7.024 C 19.994 7.036 19.936 7.028 19.93 7.027 C 19.924 7.026 19.891 7.016 19.89 7.039 L 19.89 7.039 Z M 19.908 6.96 C 19.908 6.96 19.898 6.978 19.9 6.995 C 19.901 7.012 19.929 7.018 19.98 7.019 C 20.031 7.02 20.077 7.012 20.08 6.995 C 20.083 6.978 20.096 6.958 20.055 6.964 C 20.015 6.97 19.965 6.972 19.945 6.964 C 19.925 6.956 19.911 6.953 19.908 6.96 Z" fill="#FFC221"/>
  <path d="M 21.782 7.158 C 21.782 7.158 21.781 7.194 21.809 7.229 L 20.392 7.188 C 20.392 7.188 20.413 7.175 20.418 7.12 L 21.782 7.158 Z" fill="#5A3719"/>
  <path d="M 19.919 6.902 C 19.919 6.902 19.907 6.938 19.932 6.945 C 19.958 6.952 20.002 6.96 20.06 6.951 C 20.06 6.951 20.089 6.953 20.099 6.922 C 20.109 6.891 20.108 6.908 20.025 6.892 C 20.025 6.892 19.999 6.884 20.075 6.884 C 20.075 6.884 20.117 6.885 20.123 6.878 C 20.129 6.871 20.185 6.827 20.113 6.83 C 20.041 6.832 20.076 6.817 20.113 6.817 C 20.149 6.817 20.161 6.824 20.173 6.813 C 20.184 6.801 20.174 6.809 20.154 6.789 C 20.134 6.769 20.148 6.775 20.162 6.786 C 20.176 6.797 20.185 6.8 20.201 6.787 C 20.217 6.773 20.189 6.752 20.201 6.754 C 20.213 6.757 20.219 6.78 20.266 6.758 C 20.312 6.735 20.375 6.747 20.392 6.76 C 20.409 6.773 20.458 6.789 20.487 6.759 C 20.516 6.728 20.452 6.704 20.48 6.7 C 20.507 6.696 20.526 6.705 20.537 6.683 C 20.548 6.661 20.495 6.64 20.546 6.627 C 20.597 6.613 20.554 6.469 20.536 6.456 C 20.536 6.456 20.479 6.49 20.416 6.591 C 20.353 6.693 20.316 6.753 20.231 6.721 C 20.107 6.676 20.044 6.741 20.025 6.753 C 19.996 6.771 20.087 6.78 20.034 6.781 C 19.981 6.782 19.981 6.786 19.975 6.794 C 19.97 6.803 19.974 6.81 19.984 6.81 C 19.994 6.811 20.014 6.831 19.981 6.83 C 19.948 6.829 19.925 6.824 19.935 6.859 C 19.935 6.859 19.935 6.867 19.955 6.869 C 19.974 6.871 19.981 6.891 19.945 6.891 C 19.922 6.891 19.92 6.9 19.919 6.902 L 19.919 6.902 Z M 20.05 7.257 C 20.05 7.257 20.025 7.275 20.06 7.277 C 20.095 7.279 20.113 7.286 20.124 7.267 C 20.135 7.248 20.182 7.256 20.151 7.23 C 20.119 7.204 20.098 7.219 20.05 7.257 Z" fill="#FFC221"/>
  <path d="M 20.196 6.831 C 20.196 6.831 20.314 6.72 20.413 6.795 C 20.512 6.87 20.521 6.882 20.523 6.883 C 20.524 6.885 20.534 6.893 20.507 6.916 C 20.481 6.94 20.507 6.939 20.536 6.925 C 20.566 6.911 20.568 6.924 20.582 6.94 C 20.596 6.956 20.616 6.965 20.57 6.965 C 20.525 6.966 20.427 6.965 20.427 6.965 C 20.427 6.965 20.361 6.971 20.394 6.944 C 20.428 6.917 20.423 6.885 20.406 6.883 C 20.389 6.881 20.404 6.899 20.394 6.912 C 20.384 6.925 20.361 6.936 20.337 6.936 C 20.314 6.935 20.294 6.953 20.33 6.966 C 20.367 6.979 20.326 6.988 20.307 6.987 C 20.288 6.987 20.196 6.995 20.289 7.006 C 20.383 7.017 20.281 7.014 20.35 7.054 C 20.425 7.097 20.371 7.189 20.342 7.197 C 20.342 7.197 20.311 7.214 20.35 7.21 C 20.39 7.205 20.412 7.199 20.384 7.221 C 20.356 7.242 20.3 7.314 20.222 7.259 C 20.222 7.259 20.186 7.242 20.25 7.239 C 20.313 7.236 20.198 7.223 20.179 7.21 C 20.16 7.197 20.086 7.122 20.132 7.131 C 20.178 7.14 20.162 7.114 20.134 7.104 C 20.107 7.094 20.101 7.052 20.132 7.062 C 20.163 7.071 20.199 7.088 20.224 7.087 C 20.248 7.086 20.242 7.075 20.189 7.059 C 20.136 7.043 20.114 7.04 20.127 6.996 C 20.139 6.951 20.197 7.013 20.183 6.98 C 20.169 6.947 20.119 6.963 20.146 6.919 C 20.173 6.875 20.179 6.894 20.191 6.899 C 20.203 6.905 20.223 6.901 20.188 6.875 C 20.166 6.859 20.19 6.836 20.196 6.831 L 20.196 6.831 Z" fill="#FFC221"/>
  <path d="M 20.281 6.862 C 20.281 6.862 20.281 6.847 20.302 6.849 C 20.323 6.852 20.317 6.842 20.324 6.839 C 20.33 6.835 20.383 6.854 20.333 6.872 C 20.315 6.879 20.286 6.874 20.281 6.862 Z"/>
  <path d="M 20.394 6.987 C 20.394 6.987 20.354 7.008 20.39 7.05 C 20.421 7.085 20.421 7.097 20.418 7.12 C 20.416 7.144 21.782 7.158 21.782 7.158 C 21.782 7.158 21.779 7.071 21.838 7.021 C 21.838 7.021 21.091 7.004 20.394 6.987 L 20.394 6.987 Z" fill="#FFC221"/>
  <path d="M 21.805 7.134 C 21.805 7.134 21.811 7.06 21.851 7.036 C 21.874 7.022 21.904 7.03 21.917 7.09 C 21.935 7.175 21.863 7.247 21.83 7.215 C 21.798 7.184 21.805 7.134 21.805 7.134 Z" fill="#5A3719"/>
  <path d="M 20.24 7.453 C 20.24 7.453 20.331 7.376 20.344 7.341 C 20.344 7.341 20.59 7.516 20.575 7.356 C 20.575 7.356 20.576 7.313 20.583 7.272 C 20.583 7.272 20.672 7.281 20.685 7.21 L 20.456 7.203 C 20.456 7.203 20.432 7.198 20.396 7.236 C 20.361 7.274 20.288 7.316 20.219 7.28 C 20.219 7.28 20.191 7.255 20.161 7.276 C 20.132 7.297 20.131 7.303 20.155 7.326 C 20.179 7.348 20.23 7.417 20.24 7.453 Z M 20.768 6.972 L 20.633 6.967 C 20.633 6.967 20.584 6.898 20.489 6.821 C 20.489 6.821 20.46 6.809 20.514 6.766 C 20.568 6.723 20.584 6.677 20.586 6.656 C 20.588 6.635 20.583 6.602 20.603 6.627 C 20.624 6.652 20.763 6.778 20.783 6.741 C 20.803 6.703 20.806 6.686 20.81 6.675 C 20.813 6.664 20.818 6.629 20.838 6.665 C 20.858 6.701 20.871 6.692 20.872 6.786 C 20.872 6.786 20.875 6.879 20.89 6.913 C 20.89 6.913 20.713 6.857 20.768 6.972 L 20.768 6.972 Z M 20.184 6.685 C 20.184 6.685 20.286 6.743 20.337 6.665 C 20.387 6.587 20.422 6.575 20.383 6.5 C 20.345 6.426 20.384 6.391 20.413 6.36 C 20.442 6.329 20.467 6.335 20.471 6.216 C 20.475 6.097 20.557 6.057 20.594 6.02 C 20.631 5.984 20.724 5.927 20.583 5.904 C 20.442 5.88 20.163 5.808 20.091 5.699 C 20.018 5.591 19.985 5.655 19.984 5.659 C 19.983 5.663 19.959 5.743 20.032 5.887 C 20.104 6.032 20.166 6.124 20.236 6.171 C 20.305 6.218 20.368 6.243 20.333 6.34 C 20.297 6.436 20.236 6.608 20.184 6.685 L 20.184 6.685 Z" fill="#7B3C20"/>
  <path d="M 20.562 6.379 C 20.562 6.379 20.58 6.625 20.76 6.713 C 20.76 6.713 20.801 6.617 20.785 6.522 C 20.785 6.522 20.844 6.527 20.86 6.554 C 20.86 6.554 20.863 6.482 20.778 6.456 C 20.693 6.43 20.734 6.269 20.765 6.251 C 20.795 6.232 20.785 6.2 20.765 6.171 C 20.744 6.142 20.739 6.098 20.81 6.117 C 20.881 6.135 20.87 6.097 20.827 6.063 C 20.785 6.028 20.786 5.985 20.847 5.985 C 20.907 5.985 21.007 5.926 20.946 5.908 C 20.886 5.89 20.867 5.87 20.949 5.847 C 21.031 5.823 21.071 5.793 21.009 5.786 C 20.948 5.779 20.907 5.758 20.967 5.747 C 21.027 5.737 20.956 5.676 20.886 5.673 C 20.816 5.67 20.666 5.698 20.785 5.603 C 20.904 5.508 20.614 5.578 20.733 5.515 C 20.852 5.453 20.693 5.48 20.672 5.479 C 20.65 5.478 20.65 5.479 20.658 5.448 C 20.666 5.416 20.641 5.402 20.607 5.421 C 20.573 5.44 20.573 5.44 20.575 5.396 C 20.576 5.352 20.533 5.385 20.508 5.396 C 20.482 5.408 20.416 5.457 20.39 5.43 C 20.364 5.404 20.349 5.376 20.268 5.425 C 20.188 5.474 20.207 5.43 20.208 5.409 C 20.209 5.387 20.24 5.302 20.129 5.393 C 20.018 5.484 20.108 5.295 20.021 5.36 C 19.933 5.424 19.924 5.435 19.91 5.407 C 19.896 5.378 19.88 5.354 19.784 5.416 C 19.687 5.477 19.758 5.379 19.772 5.358 C 19.786 5.336 19.827 5.197 19.742 5.305 C 19.742 5.305 19.701 5.381 19.609 5.246 C 19.609 5.246 19.512 5.38 19.488 5.321 C 19.463 5.261 19.438 5.255 19.407 5.294 C 19.376 5.333 19.399 5.292 19.385 5.259 C 19.371 5.227 19.363 5.166 19.202 5.284 C 19.041 5.402 19.258 5.316 19.135 5.369 C 19.012 5.422 18.715 5.59 18.987 5.551 C 19.259 5.512 18.855 5.657 18.949 5.684 C 19.043 5.711 19.013 5.792 19.367 5.695 C 19.721 5.598 19.664 5.68 19.844 5.602 C 20.025 5.524 19.803 5.629 20.045 5.624 C 20.287 5.618 20.086 5.625 20.133 5.675 C 20.179 5.725 20.384 5.844 20.576 5.863 C 20.767 5.882 20.814 5.811 20.759 5.894 C 20.704 5.977 20.685 6.008 20.652 6.037 C 20.62 6.066 20.529 6.131 20.528 6.246 C 20.527 6.36 20.378 6.379 20.432 6.506 C 20.476 6.464 20.519 6.421 20.562 6.379 L 20.562 6.379 Z" fill="#5A3719"/>
  <path d="M 20.877 6.654 C 20.877 6.654 20.833 6.624 20.834 6.569 C 20.834 6.569 20.865 6.575 20.877 6.594 C 20.877 6.594 20.987 6.47 20.856 6.425 C 20.724 6.38 20.79 6.26 20.834 6.26 C 20.879 6.259 20.887 6.247 20.849 6.197 C 20.811 6.147 20.814 6.145 20.889 6.132 C 20.964 6.119 20.954 6.103 20.92 6.085 C 20.887 6.066 20.862 6.036 20.862 6.036 C 20.862 6.036 21.073 5.944 21.005 5.902 C 20.936 5.86 21.005 5.871 21.066 5.827 C 21.127 5.783 21.135 5.775 21.144 5.758 C 21.144 5.758 21.084 5.764 21.039 5.755 C 21.039 5.755 21.092 5.729 21.039 5.686 C 20.986 5.644 20.965 5.605 20.881 5.624 C 20.797 5.644 20.824 5.616 20.857 5.581 C 20.89 5.547 20.874 5.527 20.815 5.518 C 20.815 5.518 20.822 5.483 20.867 5.438 C 20.867 5.438 20.753 5.446 20.715 5.427 C 20.715 5.427 20.76 5.395 20.764 5.358 C 20.764 5.358 20.701 5.378 20.622 5.371 C 20.622 5.371 20.668 5.33 20.668 5.295 C 20.668 5.295 20.531 5.326 20.467 5.374 C 20.467 5.374 20.453 5.371 20.442 5.356 C 20.431 5.341 20.423 5.326 20.271 5.375 C 20.271 5.375 20.288 5.307 20.325 5.28 C 20.361 5.253 20.356 5.198 20.119 5.346 C 20.119 5.346 20.087 5.327 20.06 5.256 C 20.06 5.256 20.009 5.328 19.97 5.353 C 19.97 5.353 19.937 5.367 19.942 5.321 C 19.946 5.274 19.918 5.307 19.894 5.321 C 19.869 5.334 19.853 5.367 19.865 5.273 C 19.877 5.18 19.832 5.161 19.832 5.161 C 19.832 5.161 19.758 5.265 19.716 5.276 C 19.716 5.276 19.638 5.201 19.611 5.151 C 19.583 5.1 19.583 5.082 19.556 5.169 C 19.529 5.256 19.494 5.263 19.494 5.263 C 19.494 5.263 19.448 5.223 19.443 5.202 C 19.443 5.202 19.434 5.225 19.419 5.236 C 19.419 5.236 19.378 5.187 19.38 5.118 C 19.38 5.118 19.125 5.258 19.094 5.343 C 19.094 5.343 18.853 5.329 18.754 5.347 C 18.754 5.347 18.778 5.269 18.841 5.23 C 18.841 5.23 18.778 5.223 18.775 5.159 C 18.775 5.159 18.826 5.166 18.857 5.158 C 18.889 5.15 18.814 5.059 18.893 5.056 C 18.972 5.054 19.023 5.094 18.987 4.989 C 18.952 4.884 18.968 4.884 18.968 4.884 C 18.968 4.884 19.106 4.965 19.128 4.945 C 19.15 4.924 19.11 4.88 19.233 4.901 C 19.356 4.921 19.322 4.851 19.37 4.848 C 19.418 4.845 19.444 4.878 19.414 4.655 C 19.384 4.432 19.563 4.766 19.441 4.429 C 19.441 4.429 19.41 4.327 19.337 4.284 C 19.337 4.284 19.321 4.358 19.238 4.293 C 19.155 4.228 18.993 4.205 19.061 4.154 C 19.129 4.102 19.162 4.034 19.142 3.991 C 19.142 3.991 19.061 4.075 18.921 4.015 C 18.81 3.967 18.787 4.055 18.674 4.029 C 18.674 4.029 18.676 4 18.771 3.925 C 18.867 3.85 18.716 3.95 18.656 3.963 C 18.597 3.976 18.58 3.966 18.706 3.869 C 18.831 3.771 19.08 3.599 19.046 3.458 C 19.046 3.458 19.105 3.533 19.259 3.479 C 19.414 3.424 19.529 3.405 19.575 3.325 C 19.622 3.245 19.743 3.165 19.775 3.147 C 19.806 3.13 19.849 3.117 19.801 3.193 C 19.753 3.269 19.675 3.399 19.462 3.487 C 19.248 3.575 19.166 3.639 19.128 3.685 C 19.09 3.731 18.896 3.835 19.021 3.817 C 19.147 3.8 19.366 3.82 19.263 3.791 C 19.161 3.761 19.045 3.809 19.139 3.723 C 19.233 3.637 19.25 3.609 19.387 3.551 C 19.523 3.494 19.675 3.363 19.66 3.502 C 19.645 3.641 19.391 3.79 19.328 3.835 C 19.265 3.88 19.288 3.873 19.289 3.891 C 19.291 3.909 19.28 3.947 19.254 3.965 C 19.228 3.982 19.236 4.002 19.243 4.04 C 19.25 4.079 19.236 4.095 19.255 4.101 C 19.274 4.107 19.294 4.11 19.299 4.138 C 19.304 4.165 19.319 4.169 19.356 4.166 C 19.393 4.163 19.416 4.166 19.419 4.188 C 19.421 4.209 19.456 4.238 19.46 4.173 C 19.464 4.107 19.488 4.095 19.421 4.125 C 19.354 4.155 19.34 4.144 19.341 4.113 C 19.343 4.082 19.335 4.089 19.307 4.086 C 19.279 4.084 19.27 4.044 19.32 4.018 C 19.369 3.992 19.369 4.019 19.431 3.967 C 19.493 3.916 19.493 3.901 19.503 3.877 C 19.512 3.853 19.414 3.947 19.367 3.969 C 19.32 3.99 19.332 3.954 19.34 3.9 C 19.348 3.846 19.466 3.776 19.52 3.775 C 19.574 3.774 19.696 3.806 19.643 3.88 C 19.59 3.953 19.441 4.041 19.505 4.048 C 19.57 4.054 19.58 4.029 19.617 4.062 C 19.654 4.095 19.62 4.161 19.603 4.196 C 19.585 4.232 19.55 4.276 19.534 4.284 C 19.534 4.284 19.467 4.164 19.469 4.259 C 19.471 4.355 19.454 4.389 19.469 4.393 C 19.483 4.396 19.558 4.447 19.582 4.448 C 19.606 4.449 19.452 4.52 19.516 4.524 C 19.581 4.529 19.683 4.496 19.718 4.43 C 19.718 4.43 19.588 4.398 19.535 4.349 C 19.535 4.349 19.687 4.313 19.645 4.166 C 19.645 4.166 19.797 4.208 19.731 4.276 C 19.666 4.345 19.626 4.335 19.683 4.354 C 19.739 4.373 19.767 4.39 19.767 4.39 C 19.767 4.39 19.806 4.409 19.784 4.441 C 19.761 4.473 19.761 4.521 19.78 4.52 C 19.799 4.519 19.863 4.489 19.809 4.456 C 19.755 4.424 19.871 4.429 19.821 4.402 C 19.772 4.374 19.759 4.367 19.746 4.354 C 19.733 4.341 20.364 3.971 20.046 4.109 C 20.046 4.109 20.112 3.966 20.205 3.965 C 20.298 3.965 20.305 4.038 20.252 4.094 C 20.199 4.15 20.165 4.237 20.041 4.257 C 20.041 4.257 20.218 4.344 20.009 4.485 C 20.009 4.485 19.964 4.507 19.98 4.523 C 19.997 4.538 20.121 4.468 20.138 4.429 C 20.155 4.389 20.182 4.358 20.229 4.335 C 20.277 4.312 20.51 4.153 20.58 4.033 C 20.65 3.913 20.669 3.909 20.806 3.799 C 20.943 3.689 20.919 3.711 20.936 3.684 C 20.954 3.658 20.961 3.614 21.024 3.579 C 21.087 3.543 21.331 3.407 21.408 3.352 C 21.484 3.297 21.641 3.195 21.708 3.109 C 21.776 3.023 21.958 2.913 22.003 2.934 C 22.048 2.954 21.998 3.018 21.892 3.1 C 21.785 3.181 21.521 3.394 21.478 3.427 C 21.435 3.46 21.211 3.624 21.127 3.634 C 21.043 3.645 21.052 3.675 21.002 3.729 C 20.952 3.784 20.836 3.898 20.797 3.93 C 20.758 3.961 20.665 4.025 20.659 4.07 C 20.654 4.115 20.676 4.121 20.601 4.191 C 20.526 4.261 20.308 4.42 20.228 4.446 C 20.228 4.446 20.369 4.492 20.285 4.587 C 20.201 4.682 20.206 4.668 20.2 4.674 C 20.2 4.674 20.413 4.643 20.262 4.808 C 20.262 4.808 20.233 4.856 20.3 4.806 C 20.372 4.753 20.341 4.68 20.333 4.67 C 20.333 4.67 20.446 4.6 20.576 4.598 C 20.707 4.596 20.702 4.587 20.586 4.553 C 20.586 4.553 20.669 4.452 20.739 4.502 C 20.809 4.552 20.786 4.581 20.712 4.62 C 20.638 4.66 20.529 4.676 20.448 4.721 C 20.448 4.721 20.602 4.751 20.685 4.688 C 20.768 4.626 20.772 4.657 20.782 4.668 C 20.793 4.679 20.803 4.699 20.766 4.752 C 20.73 4.804 20.726 4.807 20.728 4.819 C 20.73 4.83 20.725 4.866 20.65 4.879 C 20.576 4.891 20.542 4.922 20.567 4.958 C 20.593 4.993 20.594 5.081 20.53 5.073 C 20.466 5.065 20.483 5.014 20.459 4.995 C 20.434 4.975 20.4 4.944 20.288 5.002 C 20.177 5.06 20.168 4.991 20.174 4.955 C 20.174 4.955 20.102 5.018 20.041 4.96 C 19.981 4.902 20.036 4.879 20.071 4.85 C 20.105 4.821 20.246 4.759 20.162 4.77 C 20.077 4.781 19.95 4.787 19.921 4.721 C 19.892 4.656 19.984 4.663 19.999 4.669 C 20.013 4.675 20.073 4.724 20.075 4.66 C 20.077 4.597 20.171 4.59 20.139 4.577 C 20.107 4.564 20.062 4.604 20.05 4.62 C 20.05 4.62 19.984 4.529 19.878 4.559 C 19.773 4.589 19.912 4.577 19.94 4.581 C 19.969 4.586 19.952 4.639 19.857 4.724 C 19.763 4.809 19.805 4.783 19.876 4.783 C 19.946 4.783 20.118 4.784 20.018 4.866 C 19.917 4.948 19.877 4.989 19.825 4.974 C 19.773 4.96 19.832 4.926 19.855 4.911 C 19.877 4.897 19.891 4.872 19.842 4.89 C 19.793 4.909 19.775 4.912 19.736 4.843 C 19.697 4.773 19.713 4.793 19.73 4.748 C 19.746 4.702 19.784 4.654 19.739 4.671 C 19.693 4.688 19.698 4.689 19.701 4.637 C 19.705 4.584 19.649 4.572 19.649 4.572 C 19.649 4.572 19.671 4.625 19.651 4.658 C 19.631 4.692 19.63 4.703 19.663 4.712 C 19.696 4.721 19.727 4.749 19.682 4.78 C 19.638 4.81 19.643 4.806 19.671 4.825 C 19.7 4.843 19.741 4.864 19.697 4.907 C 19.653 4.95 19.69 4.937 19.711 4.937 C 19.733 4.937 19.783 4.956 19.784 4.998 C 19.784 5.04 19.781 5.051 19.852 5.011 C 19.923 4.971 20.065 4.976 20.063 5.032 C 20.061 5.087 20.045 5.1 20.121 5.053 C 20.196 5.006 20.23 5.098 20.282 5.053 C 20.334 5.009 20.367 4.966 20.427 5.042 C 20.487 5.117 20.468 5.14 20.395 5.194 C 20.322 5.247 20.431 5.206 20.486 5.178 C 20.542 5.149 20.698 5.13 20.787 5.169 C 20.876 5.209 20.902 5.2 20.967 5.173 C 21.033 5.145 21.067 5.139 21.166 5.205 C 21.265 5.272 21.343 5.284 21.395 5.283 C 21.395 5.283 21.285 5.326 21.161 5.334 C 21.037 5.342 20.975 5.365 20.95 5.384 C 20.95 5.384 21.025 5.429 21.039 5.484 C 21.039 5.484 21.121 5.474 21.161 5.49 C 21.161 5.49 21.14 5.549 21.19 5.58 C 21.24 5.611 21.275 5.623 21.237 5.666 C 21.2 5.709 21.295 5.69 21.241 5.751 C 21.187 5.812 21.173 5.843 21.171 5.892 C 21.169 5.941 21.183 5.948 21.134 5.953 C 21.086 5.958 21.142 6.012 21.121 6.076 C 21.099 6.14 20.964 6.133 20.969 6.305 C 20.969 6.305 21.007 6.221 21.087 6.148 C 21.167 6.074 21.17 6.067 21.168 6.023 C 21.166 5.978 21.162 5.989 21.205 5.955 C 21.248 5.922 21.186 5.89 21.229 5.843 C 21.272 5.795 21.234 5.804 21.285 5.756 C 21.335 5.707 21.241 5.701 21.292 5.652 C 21.343 5.602 21.169 5.545 21.219 5.513 C 21.269 5.481 21.356 5.437 21.064 5.441 C 21.064 5.441 21.134 5.325 21.38 5.351 C 21.38 5.351 21.316 5.396 21.31 5.441 C 21.31 5.441 21.338 5.456 21.356 5.46 C 21.356 5.46 21.346 5.493 21.299 5.533 C 21.299 5.533 21.43 5.606 21.451 5.649 C 21.451 5.649 21.371 5.673 21.351 5.708 C 21.351 5.708 21.386 5.748 21.398 5.799 C 21.398 5.799 21.309 5.788 21.297 5.854 C 21.286 5.92 21.259 5.875 21.259 5.914 C 21.259 5.953 21.262 5.969 21.231 5.975 C 21.2 5.981 21.225 6.014 21.231 6.036 C 21.236 6.057 21.246 6.107 21.242 6.123 C 21.242 6.123 21.197 6.124 21.176 6.13 C 21.176 6.13 21.19 6.225 21.137 6.238 C 21.084 6.252 21.165 6.271 21.109 6.281 C 21.052 6.291 21.06 6.295 20.99 6.419 C 20.99 6.419 21.05 6.386 21.111 6.345 C 21.172 6.305 21.106 6.317 21.207 6.218 C 21.308 6.118 21.29 6.111 21.282 6.06 C 21.274 6.01 21.272 5.969 21.308 5.921 C 21.345 5.873 21.357 5.819 21.486 5.825 C 21.486 5.825 21.448 5.739 21.4 5.717 C 21.4 5.717 21.462 5.674 21.528 5.668 C 21.528 5.668 21.471 5.599 21.353 5.532 C 21.353 5.532 21.45 5.449 21.472 5.409 C 21.472 5.409 21.428 5.416 21.392 5.408 C 21.392 5.408 21.409 5.368 21.496 5.311 C 21.496 5.311 21.543 5.356 21.541 5.403 C 21.541 5.403 21.69 5.317 21.775 5.327 C 21.775 5.327 21.818 5.435 21.61 5.637 C 21.61 5.637 21.739 5.649 21.793 5.641 C 21.793 5.641 21.762 5.741 21.606 5.8 C 21.451 5.858 21.64 5.927 21.481 5.915 C 21.321 5.903 21.37 5.958 21.375 6.039 C 21.379 6.12 21.385 6.203 21.381 6.226 C 21.381 6.226 21.254 6.184 21.256 6.308 C 21.259 6.431 21.191 6.457 21.177 6.469 C 21.177 6.469 21.14 6.436 21.084 6.416 C 21.084 6.416 21.005 6.567 20.877 6.654 L 20.877 6.654 Z" fill="#5A3719"/>
  <path d="M 20.695 5.107 C 20.695 5.107 20.738 5.1 20.812 5.146 C 20.886 5.192 20.959 5.096 20.877 5.072 C 20.795 5.047 20.878 5.019 20.952 5.078 C 21.026 5.137 21.054 5.108 21.082 5.087 C 21.109 5.067 21.142 5.056 21.091 5.021 C 21.041 4.986 21.125 5.002 21.164 5.027 C 21.202 5.051 21.187 5.077 21.181 5.084 C 21.176 5.091 21.172 5.171 21.247 5.097 C 21.322 5.022 21.359 4.947 21.358 4.91 C 21.358 4.91 21.399 4.936 21.404 4.983 C 21.41 5.03 21.467 4.957 21.486 4.932 C 21.505 4.906 21.538 4.842 21.534 4.793 C 21.534 4.793 21.585 4.871 21.66 4.793 C 21.735 4.715 21.702 4.764 21.793 4.74 C 21.883 4.717 21.996 4.65 22.058 4.576 C 22.119 4.501 22.123 4.551 22.203 4.533 C 22.282 4.514 22.442 4.404 22.457 4.343 C 22.472 4.283 22.469 4.246 22.446 4.267 C 22.423 4.287 22.432 4.271 22.398 4.249 C 22.364 4.228 22.313 4.277 22.313 4.277 C 22.313 4.277 22.364 4.316 22.326 4.332 C 22.287 4.348 22.251 4.403 22.178 4.382 C 22.106 4.362 22.03 4.449 22.03 4.449 C 22.03 4.449 22.093 4.501 22.009 4.534 C 21.924 4.566 21.937 4.578 21.886 4.542 C 21.886 4.542 21.795 4.656 21.743 4.68 C 21.743 4.68 21.719 4.678 21.702 4.656 C 21.702 4.656 21.644 4.723 21.613 4.736 C 21.613 4.736 21.577 4.7 21.542 4.689 C 21.542 4.689 21.471 4.777 21.411 4.805 C 21.411 4.805 21.393 4.772 21.355 4.75 C 21.355 4.75 21.336 4.865 21.21 4.933 C 21.21 4.933 21.218 4.902 21.155 4.86 C 21.155 4.86 21 4.995 20.938 5.008 C 20.877 5.022 20.934 4.98 20.942 4.962 C 20.95 4.945 20.989 4.888 20.913 4.864 C 20.838 4.841 20.851 4.881 20.834 4.888 C 20.818 4.895 20.816 4.874 20.766 4.882 C 20.715 4.889 20.723 4.911 20.702 4.919 C 20.68 4.928 20.592 4.905 20.596 4.963 C 20.6 5.022 20.641 5.062 20.565 5.095 C 20.488 5.129 20.594 5.122 20.695 5.107 L 20.695 5.107 Z" fill="#7B3C20"/>
  <path d="M 21.011 4.942 C 21.011 4.942 21.028 4.868 20.964 4.833 C 20.964 4.833 21.377 4.769 21.065 4.612 C 21.065 4.612 21.436 4.535 21.348 4.416 C 21.261 4.297 21.176 4.324 21.163 4.326 C 21.15 4.328 21.242 4.258 21.266 4.267 C 21.291 4.276 21.589 4.391 21.512 4.292 C 21.436 4.194 21.443 4.2 21.43 4.172 C 21.43 4.172 21.529 4.172 21.678 4.317 C 21.678 4.317 21.709 4.284 21.705 4.225 C 21.705 4.225 21.812 4.254 21.845 4.286 C 21.845 4.286 21.862 4.249 21.855 4.229 C 21.855 4.229 21.947 4.278 21.979 4.33 C 21.979 4.33 22.021 4.293 22.028 4.251 C 22.028 4.251 22.119 4.289 22.143 4.318 C 22.143 4.318 22.173 4.278 22.162 4.221 C 22.162 4.221 22.313 4.266 22.334 4.172 C 22.334 4.172 22.487 4.205 22.387 4.264 C 22.26 4.34 22.375 4.245 22.244 4.336 C 22.142 4.407 22.086 4.49 22.037 4.473 C 22.001 4.46 21.958 4.565 21.909 4.513 C 21.86 4.462 21.86 4.486 21.825 4.539 C 21.791 4.592 21.738 4.646 21.738 4.646 C 21.738 4.646 21.711 4.631 21.691 4.611 C 21.691 4.611 21.661 4.66 21.623 4.697 C 21.623 4.697 21.593 4.657 21.545 4.632 C 21.545 4.632 21.47 4.719 21.423 4.749 C 21.423 4.749 21.38 4.706 21.333 4.691 C 21.333 4.691 21.326 4.809 21.235 4.869 C 21.235 4.869 21.216 4.831 21.157 4.807 C 21.157 4.807 21.11 4.881 21.011 4.942 L 21.011 4.942 Z" fill="#5A3719"/>
  <path d="M 20.793 4.762 C 20.793 4.762 20.743 4.8 20.776 4.842 C 20.808 4.883 20.81 4.835 20.851 4.83 C 20.892 4.826 21.398 4.739 20.94 4.602 C 20.94 4.602 20.959 4.585 21.038 4.578 C 21.117 4.571 21.404 4.493 21.27 4.39 C 21.137 4.288 21.025 4.425 21.138 4.302 C 21.228 4.204 21.156 4.156 21.156 4.156 C 21.156 4.156 20.889 4.334 20.83 4.367 C 20.771 4.4 20.687 4.462 20.787 4.495 C 20.886 4.528 20.955 4.386 20.964 4.418 C 20.974 4.45 20.763 4.566 20.793 4.621 C 20.823 4.675 20.817 4.72 20.869 4.71 C 20.921 4.699 21.061 4.736 20.946 4.732 C 20.832 4.728 20.793 4.762 20.793 4.762 L 20.793 4.762 Z" fill="#5A3719"/>
  <path d="M 20.976 4.507 C 20.976 4.507 20.93 4.54 20.992 4.523 C 21.053 4.507 21.176 4.48 21.153 4.449 C 21.13 4.417 21.048 4.455 20.976 4.507 L 20.976 4.507 Z"/>
  <path d="M 21.789 3.979 C 21.789 3.979 22.024 3.973 22.121 4.039 C 22.218 4.104 22.264 4.147 22.293 4.156 C 22.293 4.156 22.289 4.245 22.139 4.182 C 22.139 4.182 22.147 4.225 22.13 4.267 C 22.13 4.267 22.074 4.23 22.01 4.214 C 22.01 4.214 21.999 4.247 21.979 4.267 C 21.979 4.267 21.912 4.199 21.836 4.179 C 21.836 4.179 21.821 4.213 21.808 4.225 C 21.808 4.225 21.727 4.179 21.666 4.18 C 21.666 4.18 21.678 4.229 21.666 4.248 C 21.666 4.248 21.495 4.114 21.343 4.132 C 21.343 4.132 21.417 4.239 21.465 4.292 C 21.465 4.292 21.157 4.268 21.208 4.102 C 21.258 3.936 21.203 3.978 21.404 3.979 C 21.605 3.98 21.789 3.979 21.789 3.979 L 21.789 3.979 Z" fill="#7B3C20"/>
  <path d="M 20.346 4.437 C 20.346 4.437 20.311 4.466 20.346 4.491 C 20.382 4.515 20.503 4.427 20.52 4.415 C 20.536 4.403 20.58 4.405 20.52 4.45 C 20.46 4.495 20.398 4.544 20.36 4.593 C 20.36 4.593 20.564 4.538 20.696 4.423 C 20.829 4.309 20.69 4.383 20.916 4.274 C 21.143 4.165 21.261 3.989 21.139 4.008 C 21.017 4.026 20.908 4.165 20.814 4.219 C 20.719 4.272 20.666 4.279 20.681 4.248 C 20.696 4.217 20.766 4.23 20.896 4.125 C 21.026 4.021 20.997 4.028 20.998 3.991 C 21 3.955 20.949 3.863 21.145 3.761 C 21.34 3.659 21.948 3.303 22 3.181 C 22 3.181 21.823 3.2 21.589 3.373 C 21.355 3.546 21.23 3.627 21.165 3.649 C 21.101 3.67 21.109 3.656 21.067 3.706 C 21.024 3.756 20.793 3.979 20.751 4.012 C 20.708 4.045 20.696 4.066 20.693 4.133 C 20.691 4.163 20.427 4.362 20.346 4.437 L 20.346 4.437 Z" fill="#5A3719"/>
  <path d="M 21.15 3.973 C 21.15 3.973 21.105 3.994 21.061 3.973 C 21.017 3.952 21.031 3.858 21.136 3.802 C 21.242 3.746 21.433 3.662 21.53 3.65 C 21.53 3.65 21.516 3.771 21.214 3.874 C 21.214 3.874 21.233 3.937 21.15 3.973 Z" fill="#5A3719"/>
  <path d="M 21.257 3.894 C 21.257 3.894 21.266 3.924 21.257 3.952 C 21.257 3.952 21.819 4.006 22.109 3.664 C 22.109 3.664 21.711 3.701 21.552 3.796 C 21.552 3.796 21.652 3.671 21.95 3.568 C 22.248 3.464 22.37 3.337 22.396 3.266 C 22.396 3.266 22.019 3.398 21.839 3.398 C 21.839 3.398 21.804 3.397 21.77 3.416 C 21.735 3.436 21.495 3.611 21.43 3.64 C 21.43 3.64 21.566 3.629 21.614 3.585 C 21.614 3.585 21.52 3.838 21.257 3.894 L 21.257 3.894 Z" fill="#AA5323"/>
  <path d="M 20.181 4.215 C 20.181 4.215 20.108 4.267 20.138 4.292 C 20.169 4.318 20.22 4.323 20.33 4.231 C 20.441 4.139 20.707 3.909 20.539 3.9 C 20.539 3.9 20.323 3.887 20.33 4.019 C 20.338 4.152 20.192 4.207 20.181 4.215 L 20.181 4.215 Z M 19.683 4.138 C 19.683 4.138 19.825 4.22 19.772 4.289 C 19.772 4.289 20.208 3.919 20.085 3.839 C 19.962 3.759 19.865 3.909 19.895 3.925 C 19.925 3.94 19.989 3.911 19.966 3.94 C 19.943 3.969 19.711 4.125 19.683 4.138 L 19.683 4.138 Z M 19.57 4.018 C 19.57 4.018 19.665 4.047 19.67 4.087 C 19.674 4.128 19.958 3.887 19.883 3.786 C 19.848 3.739 19.69 3.72 19.683 3.811 C 19.676 3.902 19.825 3.802 19.773 3.867 C 19.705 3.953 19.59 4.004 19.57 4.018 Z M 20.593 3.816 C 20.593 3.816 20.532 3.86 20.587 3.887 C 20.642 3.914 20.677 3.872 20.705 3.847 C 20.732 3.822 20.867 3.723 20.899 3.66 C 20.93 3.596 20.977 3.577 21.026 3.544 C 21.075 3.511 21.422 3.338 21.636 3.147 C 21.849 2.956 21.76 3.005 21.981 2.882 C 22.203 2.759 22.348 2.647 22.394 2.514 C 22.394 2.514 22.292 2.547 22.202 2.606 C 22.111 2.664 21.908 2.792 21.867 2.809 C 21.826 2.827 21.768 2.83 21.738 2.862 C 21.708 2.893 21.711 2.931 21.604 3.019 C 21.497 3.107 20.946 3.496 20.879 3.551 C 20.813 3.607 20.593 3.816 20.593 3.816 L 20.593 3.816 Z" fill="#5A3719"/>
  <path d="M 20.15 3.945 C 20.15 3.945 20.21 3.912 20.323 3.919 C 20.436 3.927 20.883 3.495 21.012 3.407 C 21.142 3.32 21.546 3.028 21.601 2.975 C 21.656 2.922 21.665 2.864 21.712 2.833 C 21.76 2.802 21.803 2.806 21.913 2.743 C 22.022 2.68 22.547 2.366 22.516 2.184 C 22.516 2.184 21.734 2.653 21.554 2.806 C 21.373 2.958 20.872 3.305 20.782 3.361 C 20.693 3.417 20.622 3.514 20.473 3.635 C 20.323 3.757 20.175 3.859 20.15 3.945 L 20.15 3.945 Z" fill="#AA5323"/>
  <path d="M 19.986 3.779 C 19.986 3.779 20.13 3.764 20.15 3.835 C 20.15 3.835 20.46 3.622 20.531 3.534 C 20.602 3.447 20.507 3.498 20.684 3.382 C 20.861 3.266 21.448 2.855 21.532 2.781 C 21.615 2.708 21.774 2.611 21.902 2.525 C 22.029 2.439 22.529 2.195 22.472 1.994 C 22.472 1.994 22.106 2.24 22.024 2.293 C 21.942 2.346 21.907 2.316 21.823 2.381 C 21.739 2.447 21.555 2.578 21.522 2.619 C 21.49 2.66 21.209 2.875 21.072 2.967 C 20.935 3.058 20.629 3.236 20.482 3.364 C 20.334 3.492 20.048 3.729 19.986 3.779 Z" fill="#AA5323"/>
  <path d="M 19.535 3.737 C 19.535 3.737 19.608 3.738 19.63 3.766 C 19.63 3.766 19.765 3.648 19.909 3.765 C 19.909 3.765 20.438 3.407 20.491 3.317 C 20.544 3.227 20.629 3.226 20.835 3.076 C 21.041 2.926 21.171 2.863 21.307 2.757 C 21.444 2.65 21.559 2.53 21.657 2.466 C 21.756 2.402 22.004 2.24 21.962 2.099 C 21.962 2.099 21.761 2.214 21.63 2.357 C 21.499 2.5 21.51 2.377 21.377 2.497 C 21.244 2.617 21.038 2.781 20.866 2.866 C 20.695 2.95 20.799 2.941 20.675 3.02 C 20.551 3.099 20.56 3.087 20.514 3.098 C 20.469 3.109 20.4 3.141 20.354 3.195 C 20.308 3.248 20.186 3.32 20.053 3.395 C 19.92 3.47 19.593 3.665 19.535 3.737 Z" fill="#AA5323"/>
  <path d="M 19.694 3.462 C 19.694 3.462 19.665 3.403 19.716 3.361 C 19.767 3.319 19.858 3.208 19.873 3.139 C 19.888 3.069 19.877 3.081 20.024 3.02 C 20.17 2.96 20.502 2.804 20.689 2.689 C 20.877 2.573 21.161 2.387 21.22 2.342 C 21.279 2.297 21.421 2.196 21.479 2.149 C 21.479 2.149 21.507 2.228 21.444 2.282 C 21.381 2.337 21.139 2.507 21.1 2.533 C 21.06 2.56 20.837 2.709 20.769 2.747 C 20.7 2.785 20.531 2.871 20.471 2.921 C 20.411 2.971 20.418 2.986 20.15 3.117 C 19.881 3.248 19.869 3.262 19.877 3.272 C 19.886 3.282 20.006 3.23 20.063 3.196 C 20.121 3.162 20.341 3.062 20.406 3.01 C 20.472 2.958 20.583 2.876 20.631 2.849 C 20.678 2.823 21.075 2.585 21.188 2.501 C 21.302 2.418 21.333 2.39 21.358 2.404 C 21.383 2.419 21.422 2.42 21.372 2.468 C 21.321 2.516 21.16 2.657 21.098 2.698 C 21.037 2.739 20.844 2.853 20.791 2.881 C 20.737 2.909 20.717 2.96 20.687 2.981 C 20.657 3.003 20.569 3.065 20.462 3.09 C 20.356 3.114 20.337 3.194 20.267 3.239 C 20.197 3.284 19.701 3.551 19.686 3.565 C 19.686 3.565 19.716 3.534 19.694 3.462 L 19.694 3.462 Z" fill="#AA5323"/>
  <path d="M 21.411 2.348 C 21.411 2.348 21.384 2.372 21.399 2.386 C 21.419 2.404 21.488 2.452 21.574 2.367 C 21.66 2.282 21.891 2.095 21.966 2.051 C 22.041 2.007 22.077 1.965 22.074 1.905 C 22.074 1.905 21.719 2.094 21.411 2.348 L 21.411 2.348 Z M 21.901 2.315 C 21.901 2.315 21.955 2.224 22.089 2.138 C 22.223 2.052 22.424 1.927 22.451 1.897 C 22.451 1.897 22.499 1.951 22.394 2.018 C 22.289 2.084 22.084 2.22 22.059 2.24 C 22.035 2.259 21.994 2.289 21.901 2.315 Z" fill="#AA5323"/>
  <path d="M 19.176 3.307 C 19.176 3.307 19.027 3.387 19.08 3.437 C 19.134 3.487 19.213 3.471 19.246 3.457 C 19.279 3.443 19.341 3.427 19.351 3.424 C 19.361 3.421 19.49 3.385 19.523 3.324 C 19.556 3.264 19.644 3.194 19.713 3.144 C 19.783 3.094 19.808 3.044 19.798 3.008 C 19.798 3.008 19.211 3.285 19.176 3.307 L 19.176 3.307 Z M 18.29 3.995 C 18.29 3.995 18.393 3.934 18.538 3.973 C 18.538 3.973 18.531 3.938 18.509 3.919 C 18.509 3.919 18.684 3.874 18.722 3.796 C 18.76 3.718 18.769 3.734 18.803 3.712 C 18.837 3.689 19.073 3.499 19.046 3.458 C 19.019 3.417 19.013 3.364 18.993 3.343 C 18.993 3.343 18.944 3.41 18.714 3.522 C 18.484 3.633 18.229 3.717 18.043 3.968 C 17.857 4.218 17.876 4.364 18.103 4.427 C 18.103 4.427 18.263 4.327 18.652 4.362 C 19.042 4.396 19.175 4.543 19.199 4.569 C 19.224 4.596 19.303 4.692 19.227 4.855 C 19.227 4.855 19.305 4.889 19.311 4.814 C 19.318 4.739 19.322 4.757 19.34 4.768 C 19.358 4.779 19.38 4.781 19.372 4.724 C 19.363 4.667 19.336 4.539 19.3 4.495 C 19.265 4.451 19.305 4.47 19.328 4.479 C 19.351 4.489 19.433 4.555 19.384 4.432 C 19.335 4.309 19.322 4.37 19.321 4.376 C 19.32 4.382 19.31 4.413 19.203 4.333 C 19.097 4.253 19 4.214 18.927 4.194 C 18.855 4.173 18.905 4.173 18.948 4.158 C 18.99 4.143 19.047 4.133 19.067 4.086 C 19.067 4.086 19.024 4.097 18.946 4.069 C 18.868 4.041 18.713 4.038 18.587 4.132 C 18.587 4.132 18.626 3.987 18.512 3.995 C 18.397 4.004 18.316 4 18.194 4.097 C 18.194 4.097 18.188 3.95 18.302 3.875 C 18.417 3.799 18.402 3.845 18.466 3.826 C 18.531 3.806 18.536 3.742 18.509 3.721 C 18.509 3.721 18.659 3.747 18.912 3.537 C 18.912 3.537 18.776 3.715 18.611 3.751 C 18.611 3.751 18.585 3.846 18.435 3.866 C 18.285 3.887 18.289 3.974 18.29 3.995 L 18.29 3.995 Z" fill="#7B3C20"/>
  <path d="M 17.858 4.863 C 17.858 4.863 17.932 4.422 18.345 4.39 C 18.707 4.362 18.822 4.407 18.894 4.43 C 18.966 4.453 19.142 4.505 19.073 4.562 C 19.005 4.618 18.966 4.608 18.966 4.608 C 18.966 4.608 19.045 4.52 18.973 4.505 C 18.901 4.49 18.895 4.534 18.885 4.571 C 18.875 4.607 18.87 4.652 18.835 4.68 C 18.835 4.68 18.798 4.638 18.746 4.675 C 18.694 4.712 18.739 4.713 18.76 4.707 C 18.781 4.701 18.808 4.69 18.803 4.722 C 18.797 4.754 18.768 4.809 18.682 4.854 C 18.597 4.899 18.601 4.897 18.499 4.913 C 18.397 4.929 18.302 4.97 18.172 5.082 C 18.042 5.193 17.899 5.156 17.87 5.031 C 17.846 4.924 17.858 4.863 17.858 4.863 L 17.858 4.863 Z" fill="#5A3719"/>
  <path d="M 18.331 4.849 C 18.331 4.849 18.371 4.762 18.3 4.722 C 18.3 4.722 18.082 4.759 18.018 4.693 C 18.018 4.693 18.254 4.681 18.401 4.624 C 18.547 4.566 18.503 4.527 18.453 4.517 C 18.402 4.508 18.309 4.531 18.3 4.577 C 18.3 4.577 18.271 4.528 18.308 4.495 C 18.345 4.462 18.402 4.456 18.454 4.471 C 18.506 4.487 18.553 4.509 18.723 4.42 C 18.723 4.42 18.822 4.443 18.825 4.509 C 18.827 4.576 18.818 4.603 18.81 4.613 C 18.801 4.624 18.789 4.643 18.769 4.641 C 18.748 4.639 18.722 4.634 18.696 4.68 C 18.67 4.726 18.655 4.766 18.611 4.797 C 18.611 4.797 18.662 4.653 18.536 4.62 C 18.536 4.62 18.432 4.681 18.353 4.684 C 18.353 4.684 18.454 4.778 18.331 4.849 L 18.331 4.849 Z"/>
  <path d="M 18.558 4.586 C 18.558 4.586 18.51 4.533 18.573 4.528 C 18.636 4.522 18.719 4.568 18.703 4.607 C 18.687 4.646 18.613 4.644 18.558 4.586 Z" fill="#5A3719"/>
  <path d="M 22.111 3.887 C 22.111 3.887 21.996 3.92 22.103 3.99 C 22.21 4.061 22.262 4.122 22.34 4.143 C 22.417 4.163 22.498 4.192 22.497 4.27 C 22.495 4.348 22.48 4.378 22.438 4.431 C 22.396 4.485 22.461 4.508 22.517 4.477 C 22.573 4.447 22.621 4.43 22.658 4.409 C 22.695 4.387 22.756 4.39 22.7 4.419 C 22.644 4.448 22.586 4.465 22.658 4.467 C 22.731 4.469 23.167 4.477 23.258 4.448 C 23.35 4.418 23.469 4.409 23.48 4.29 C 23.48 4.29 23.484 4.237 23.518 4.216 C 23.552 4.193 23.575 4.143 23.525 4.177 C 23.476 4.211 23.437 4.229 23.428 4.219 C 23.418 4.208 23.415 4.201 23.452 4.184 C 23.488 4.167 23.508 4.183 23.542 4.134 C 23.575 4.084 23.572 4.092 23.554 4.073 C 23.536 4.054 23.499 4.041 23.517 4.017 C 23.536 3.992 23.554 3.921 23.474 3.963 C 23.394 4.005 23.237 4.113 23.164 4.13 C 23.091 4.147 23.035 4.169 22.937 4.189 C 22.839 4.209 22.777 4.23 22.673 4.288 C 22.568 4.346 22.575 4.256 22.593 4.244 C 22.593 4.244 22.633 4.314 22.74 4.223 C 22.847 4.131 22.812 4.217 23.073 4.131 C 23.333 4.046 23.27 4.032 23.372 3.978 C 23.474 3.925 23.57 3.923 23.499 3.852 C 23.428 3.781 23.42 3.775 23.328 3.852 C 23.236 3.929 22.982 4.054 22.829 4.057 C 22.829 4.057 23.417 3.803 23.357 3.766 C 23.297 3.73 23.232 3.697 23.191 3.688 C 23.15 3.679 23.139 3.669 23.045 3.711 C 22.95 3.753 22.934 3.764 22.907 3.766 C 22.88 3.769 22.8 3.785 22.688 3.843 C 22.576 3.901 22.516 3.924 22.441 3.97 C 22.441 3.97 22.493 3.865 22.725 3.795 C 22.956 3.725 23.075 3.661 23.049 3.65 C 23.024 3.638 22.966 3.629 22.922 3.635 C 22.879 3.642 22.891 3.632 22.75 3.688 C 22.609 3.744 22.669 3.732 22.555 3.756 C 22.441 3.781 22.395 3.806 22.338 3.83 C 22.338 3.83 22.361 3.799 22.438 3.771 C 22.477 3.757 22.395 3.742 22.504 3.737 C 22.513 3.737 22.524 3.739 22.535 3.736 C 22.677 3.696 22.831 3.64 22.808 3.636 C 22.784 3.632 22.646 3.618 22.507 3.682 C 22.367 3.746 22.431 3.724 22.382 3.734 C 22.333 3.745 22.229 3.81 22.194 3.838 C 22.159 3.866 22.111 3.887 22.111 3.887 L 22.111 3.887 Z" fill="#FFF"/>
  <path d="M 18.668 4.522 C 18.668 4.522 18.723 4.539 18.737 4.577 C 18.75 4.615 18.784 4.56 18.783 4.543 C 18.782 4.525 18.748 4.449 18.689 4.484 C 18.629 4.52 18.659 4.519 18.668 4.522 L 18.668 4.522 Z" fill="#5A3719"/>
  <path d="M 18.516 5.281 C 18.516 5.281 18.632 5.226 18.73 5.233 C 18.73 5.233 18.692 5.094 18.76 5.118 C 18.829 5.141 18.81 5.132 18.823 5.131 C 18.823 5.131 18.827 5.04 18.81 5.004 C 18.81 5.004 18.879 5.021 18.95 5.022 C 18.95 5.022 18.883 4.891 18.957 4.801 C 18.957 4.801 18.998 4.887 19.089 4.908 C 19.089 4.908 19.089 4.871 19.089 4.832 C 19.089 4.832 19.143 4.826 19.185 4.849 C 19.228 4.871 19.263 4.611 19.138 4.554 C 19.138 4.554 19.108 4.603 18.99 4.628 C 18.872 4.652 18.873 4.676 18.825 4.764 C 18.777 4.853 18.734 4.854 18.636 4.917 C 18.537 4.981 18.478 5.11 18.472 5.121 C 18.472 5.121 18.524 5.184 18.516 5.281 L 18.516 5.281 Z" fill="#7B3C20"/>
  <path d="M 22.438 3.771 C 22.481 3.763 22.395 3.742 22.504 3.737 C 22.513 3.737 22.524 3.739 22.535 3.736 C 22.676 3.696 22.831 3.64 22.807 3.636 C 22.784 3.632 22.646 3.618 22.507 3.682 C 22.367 3.746 22.431 3.724 22.382 3.734 C 22.333 3.744 22.229 3.81 22.194 3.838 C 22.159 3.866 22.111 3.887 22.111 3.887 C 22.111 3.887 21.996 3.92 22.103 3.99 C 22.21 4.061 22.261 4.122 22.339 4.143 C 22.417 4.163 22.498 4.192 22.497 4.27 C 22.495 4.347 22.48 4.378 22.438 4.431 C 22.395 4.485 22.461 4.508 22.517 4.477 C 22.573 4.447 22.621 4.43 22.658 4.409 C 22.695 4.387 22.756 4.39 22.7 4.419 C 22.644 4.448 22.585 4.465 22.658 4.467 C 22.73 4.469 23.167 4.477 23.258 4.448 C 23.35 4.418 23.469 4.409 23.48 4.29 C 23.48 4.29 23.484 4.237 23.518 4.215 C 23.552 4.193 23.575 4.143 23.525 4.177 C 23.475 4.211 23.437 4.229 23.428 4.219 C 23.418 4.208 23.415 4.201 23.452 4.184 C 23.488 4.167 23.508 4.183 23.542 4.134 C 23.575 4.084 23.572 4.092 23.554 4.073 C 23.545 4.064 23.531 4.055 23.521 4.046 C 23.521 4.046 23.495 4.023 23.465 4.043 C 23.434 4.062 23.3 4.119 23.246 4.125 C 23.192 4.132 23.137 4.154 23.04 4.202 C 22.944 4.249 22.783 4.344 22.758 4.255 C 22.758 4.255 22.688 4.28 22.673 4.288 C 22.565 4.343 22.574 4.265 22.593 4.244 C 22.593 4.244 22.537 4.307 22.539 4.25 C 22.541 4.192 22.578 4.202 22.641 4.183 C 22.703 4.165 22.803 4.124 22.762 4.09 C 22.721 4.056 22.678 4.124 22.632 4.145 C 22.586 4.165 22.495 4.184 22.481 4.118 C 22.467 4.051 22.467 4.005 22.344 3.998 C 22.22 3.991 22.225 3.914 22.259 3.881 C 22.292 3.848 22.322 3.791 22.438 3.771 L 22.438 3.771 Z" fill="#999"/>
  <path d="M 22.83 4.369 C 22.83 4.369 23.023 4.281 23.199 4.239 C 23.376 4.197 23.238 4.244 23.208 4.254 C 23.178 4.264 22.902 4.354 22.838 4.384 C 22.773 4.414 22.786 4.389 22.83 4.369 Z M 22.875 4.408 C 22.875 4.408 23.091 4.337 23.131 4.367 C 23.171 4.397 23.138 4.382 23.091 4.388 C 23.044 4.395 22.913 4.417 22.879 4.416 C 22.844 4.416 22.875 4.408 22.875 4.408 L 22.875 4.408 Z M 23.221 4.333 C 23.221 4.333 23.262 4.326 23.267 4.341 C 23.271 4.356 23.249 4.358 23.226 4.355 C 23.203 4.352 23.183 4.339 23.221 4.333 Z"/>
  <path d="M 17.516 6.215 C 17.516 6.215 17.508 6.026 17.604 5.929 C 17.699 5.833 18.164 5.349 18.235 5.214 C 18.235 5.214 18.295 5.256 18.298 5.333 C 18.298 5.333 18.376 5.199 18.438 5.148 C 18.438 5.148 18.492 5.204 18.483 5.315 C 18.483 5.315 18.595 5.256 18.769 5.255 C 18.769 5.255 18.704 5.331 18.702 5.375 C 18.702 5.375 18.942 5.348 19.068 5.369 C 19.068 5.369 18.737 5.554 18.83 5.57 C 18.923 5.587 19.02 5.569 19.02 5.569 C 19.02 5.569 18.915 5.677 18.747 5.698 C 18.747 5.698 18.96 5.695 19.002 5.743 C 19.002 5.743 18.794 5.775 18.628 5.902 C 18.628 5.902 18.612 5.895 18.611 5.847 C 18.611 5.847 18.606 5.889 18.558 5.929 C 18.51 5.969 18.395 6.054 18.353 6.097 C 18.311 6.14 18.231 6.225 18.146 6.221 C 18.146 6.221 18.166 6.155 18.103 6.135 C 18.04 6.115 17.967 6.129 17.917 6.183 C 17.917 6.183 17.693 6.186 17.621 6.196 C 17.621 6.196 17.672 6.116 17.719 6.118 C 17.765 6.12 17.952 6.145 17.969 6.017 C 17.985 5.889 17.848 5.923 17.9 5.847 C 17.952 5.772 17.94 5.775 17.941 5.768 C 17.941 5.768 17.899 5.791 17.874 5.859 C 17.85 5.926 17.832 5.978 17.743 6.046 C 17.654 6.114 17.617 6.154 17.593 6.201 C 17.593 6.202 17.552 6.207 17.516 6.215 L 17.516 6.215 Z" fill="#FFF"/>
  <path d="M 17.732 6.101 C 17.732 6.101 17.739 6.075 17.805 6.064 C 17.87 6.053 17.873 6.021 17.865 6.008 C 17.857 5.994 17.817 5.994 17.881 5.922 C 17.881 5.922 17.904 5.928 17.919 5.946 C 17.935 5.963 18.007 6.118 17.732 6.101 L 17.732 6.101 Z" fill="#FFF"/>
  <path d="M 17.574 5.967 C 17.578 6.093 17.743 6.046 17.743 6.046 C 17.684 6.091 17.648 6.124 17.623 6.155 C 17.634 6.094 17.53 6.078 17.53 6.078 C 17.539 6.041 17.552 6.001 17.574 5.967 Z M 18.183 5.291 C 18.207 5.26 18.225 5.234 18.235 5.214 C 18.235 5.214 18.296 5.256 18.298 5.333 C 18.298 5.333 18.376 5.199 18.438 5.148 C 18.438 5.148 18.492 5.204 18.483 5.315 C 18.483 5.315 18.595 5.256 18.769 5.255 C 18.769 5.255 18.704 5.331 18.702 5.375 C 18.702 5.375 18.942 5.348 19.068 5.369 C 19.068 5.369 18.737 5.554 18.83 5.57 C 18.923 5.587 19.02 5.569 19.02 5.569 C 19.02 5.569 18.915 5.677 18.747 5.698 C 18.747 5.698 18.96 5.695 19.002 5.743 C 19.002 5.743 18.942 5.752 18.859 5.781 C 18.859 5.781 18.798 5.723 18.62 5.732 C 18.62 5.732 18.759 5.654 18.868 5.629 C 18.868 5.629 18.82 5.566 18.744 5.624 C 18.744 5.624 18.594 5.52 18.718 5.432 C 18.718 5.432 18.63 5.414 18.573 5.455 C 18.573 5.455 18.576 5.384 18.64 5.352 C 18.64 5.352 18.471 5.324 18.429 5.448 C 18.429 5.448 18.397 5.397 18.412 5.339 C 18.412 5.339 18.31 5.398 18.263 5.464 C 18.263 5.465 18.248 5.338 18.183 5.291 M 17.856 6.093 C 17.826 6.101 17.786 6.104 17.732 6.101 C 17.732 6.101 17.736 6.084 17.771 6.072 C 17.771 6.072 17.781 6.093 17.856 6.093" fill="#999"/>
  <path d="M 18.163 5.615 C 18.163 5.615 18.239 5.676 18.267 5.712 C 18.267 5.712 18.337 5.663 18.362 5.623 C 18.362 5.623 18.417 5.659 18.436 5.712 C 18.436 5.712 18.475 5.686 18.483 5.649 C 18.483 5.649 18.579 5.669 18.611 5.701 C 18.611 5.701 18.626 5.608 18.611 5.55 C 18.611 5.55 18.678 5.555 18.719 5.572 C 18.719 5.572 18.681 5.511 18.876 5.432 C 18.876 5.432 18.729 5.464 18.673 5.528 C 18.673 5.528 18.61 5.531 18.583 5.512 C 18.583 5.512 18.587 5.606 18.584 5.651 C 18.584 5.651 18.546 5.636 18.472 5.618 C 18.472 5.618 18.454 5.649 18.442 5.656 C 18.442 5.656 18.395 5.619 18.375 5.572 C 18.375 5.572 18.304 5.637 18.276 5.664 C 18.276 5.664 18.209 5.617 18.163 5.615 Z"/>
  <path d="M 17.723 6.573 C 17.723 6.573 17.753 6.587 17.824 6.53 C 17.895 6.473 18.096 6.345 18.115 6.243 C 18.134 6.14 18.051 6.134 17.985 6.164 C 17.919 6.193 17.947 6.251 17.949 6.269 C 17.952 6.288 17.954 6.359 17.847 6.458 C 17.74 6.558 17.723 6.573 17.723 6.573 Z" fill="#FFC221"/>
  <path d="M 17.699 6.606 C 17.699 6.606 17.538 6.538 17.683 6.466 C 17.828 6.393 17.892 6.373 17.909 6.313 C 17.925 6.253 17.915 6.263 17.862 6.289 C 17.809 6.314 17.604 6.406 17.572 6.32 C 17.572 6.32 17.657 6.353 17.762 6.302 C 17.868 6.251 17.954 6.235 17.887 6.214 C 17.82 6.192 17.578 6.219 17.538 6.23 C 17.498 6.241 17.508 6.239 17.501 6.279 C 17.494 6.319 17.449 6.403 17.433 6.428 C 17.416 6.452 17.377 6.555 17.451 6.6 C 17.524 6.645 17.641 6.642 17.699 6.606 Z" fill="#FFC221"/>
  <path d="M 17.637 6.254 C 17.637 6.254 17.6 6.259 17.606 6.273 C 17.613 6.288 17.623 6.285 17.637 6.286 C 17.65 6.287 17.671 6.279 17.673 6.27 C 17.676 6.261 17.65 6.251 17.637 6.254 L 17.637 6.254 Z"/>
  <path d="M 17.69 6.57 C 17.69 6.57 17.613 6.533 17.699 6.486 C 17.786 6.439 17.879 6.394 17.891 6.375 C 17.891 6.374 17.85 6.433 17.69 6.57 L 17.69 6.57 Z" fill="#FFF"/>
</svg>