<?xml version="1.0" encoding="UTF-8"?>
<svg xmlns="http://www.w3.org/2000/svg" xmlns:xlink="http://www.w3.org/1999/xlink" width="24px" height="24px" viewBox="0 0 24 15" version="1.1">
<g id="surface1">
<rect x="0" y="0" width="24" height="15" style="fill:rgb(0%,14.901961%,49.803922%);fill-opacity:1;stroke:none;"/>
<path style=" stroke:none;fill-rule:nonzero;fill:rgb(100%,78.039216%,14.901961%);fill-opacity:1;" d="M 8 0 L 16 0 L 16 15 L 8 15 Z M 8 0 "/>
<path style=" stroke:none;fill-rule:nonzero;fill:rgb(0%,0%,0%);fill-opacity:1;" d="M 12 3.867188 C 12.261719 4.53125 12.523438 5.222656 13.09375 5.753906 C 12.914062 5.699219 12.609375 5.648438 12.410156 5.652344 L 12.410156 8.449219 L 13.253906 8.566406 C 13.28125 8.5625 13.292969 8.519531 13.292969 8.460938 C 13.371094 7.59375 13.59375 6.863281 13.84375 6.109375 C 13.863281 6.003906 14.179688 5.609375 13.933594 5.679688 C 13.90625 5.683594 13.574219 5.808594 13.628906 5.75 C 14.074219 5.316406 14.730469 5 15.367188 4.910156 C 15.421875 4.894531 15.457031 4.921875 15.40625 4.984375 C 14.5625 6.199219 13.855469 7.636719 13.863281 9.34375 C 13.535156 9.34375 12.738281 9.160156 12.410156 9.160156 L 12.410156 11.132812 L 11.589844 11.132812 L 11.589844 9.160156 C 11.261719 9.160156 10.464844 9.34375 10.136719 9.34375 C 10.144531 7.636719 9.4375 6.199219 8.59375 4.984375 C 8.542969 4.921875 8.578125 4.894531 8.632812 4.910156 C 9.269531 5 9.925781 5.316406 10.371094 5.75 C 10.425781 5.808594 10.09375 5.683594 10.066406 5.679688 C 9.820312 5.609375 10.136719 6.003906 10.15625 6.109375 C 10.40625 6.863281 10.628906 7.59375 10.707031 8.460938 C 10.707031 8.519531 10.71875 8.5625 10.746094 8.566406 L 11.589844 8.449219 L 11.589844 5.652344 C 11.390625 5.648438 11.085938 5.699219 10.90625 5.753906 C 11.476562 5.222656 11.738281 4.53125 12 3.867188 Z M 12 3.867188 "/>
</g>
</svg>
