<?xml version="1.0" encoding="UTF-8"?>
<svg xmlns="http://www.w3.org/2000/svg" xmlns:xlink="http://www.w3.org/1999/xlink" width="24px" height="24px" viewBox="0 0 24 14" version="1.1">
<g id="surface1">
<path style=" stroke:none;fill-rule:nonzero;fill:rgb(80.784314%,6.666667%,14.901961%);fill-opacity:1;" d="M 0 0 L 24 0 L 0 14 L 24 14 Z M 0 0 "/>
<path style=" stroke:none;fill-rule:nonzero;fill:rgb(11.764706%,70.980392%,22.745098%);fill-opacity:1;" d="M 0 0 L 0 14 L 24 0 L 24 14 Z M 0 0 "/>
<path style="fill-rule:nonzero;fill:rgb(0%,0%,0%);fill-opacity:1;stroke-width:40;stroke-linecap:butt;stroke-linejoin:miter;stroke:rgb(100%,100%,100%);stroke-opacity:1;stroke-miterlimit:4;" d="M 0 0 L 500 300 M 500 0 L 0 300 " transform="matrix(0.048,0,0,0.0466667,0,0)"/>
<path style=" stroke:none;fill-rule:nonzero;fill:rgb(100%,100%,100%);fill-opacity:1;" d="M 16.078125 7 C 16.078125 9.191406 14.253906 10.964844 12 10.964844 C 9.746094 10.964844 7.921875 9.191406 7.921875 7 C 7.921875 4.808594 9.746094 3.035156 12 3.035156 C 14.253906 3.035156 16.078125 4.808594 16.078125 7 Z M 16.078125 7 "/>
<path style=" stroke:none;fill-rule:nonzero;fill:rgb(11.764706%,70.980392%,22.745098%);fill-opacity:1;" d="M 12 4.011719 L 11.519531 4.820312 L 12.351562 5.289062 "/>
<path style=" stroke:none;fill-rule:nonzero;fill:rgb(11.764706%,70.980392%,22.745098%);fill-opacity:1;" d="M 12 4.011719 L 12.480469 4.820312 L 11.648438 5.289062 "/>
<path style=" stroke:none;fill-rule:nonzero;fill:rgb(11.764706%,70.980392%,22.745098%);fill-opacity:1;" d="M 12.832031 5.414062 L 12.351562 4.605469 L 11.519531 5.070312 "/>
<path style=" stroke:none;fill-rule:nonzero;fill:rgb(11.764706%,70.980392%,22.745098%);fill-opacity:1;" d="M 12.832031 5.414062 L 11.871094 5.414062 L 11.871094 4.480469 "/>
<path style=" stroke:none;fill-rule:nonzero;fill:rgb(11.764706%,70.980392%,22.745098%);fill-opacity:1;" d="M 11.167969 5.414062 L 12.128906 5.414062 L 12.128906 4.480469 "/>
<path style=" stroke:none;fill-rule:nonzero;fill:rgb(11.764706%,70.980392%,22.745098%);fill-opacity:1;" d="M 11.167969 5.414062 L 11.648438 4.605469 L 12.480469 5.070312 "/>
<path style=" stroke:none;fill-rule:nonzero;fill:rgb(11.764706%,70.980392%,22.745098%);fill-opacity:1;" d="M 12 5.878906 L 12.480469 5.070312 L 11.648438 4.605469 "/>
<path style=" stroke:none;fill-rule:nonzero;fill:rgb(11.764706%,70.980392%,22.745098%);fill-opacity:1;" d="M 12 5.878906 L 11.519531 5.070312 L 12.351562 4.605469 "/>
<path style=" stroke:none;fill-rule:nonzero;fill:rgb(11.764706%,70.980392%,22.745098%);fill-opacity:1;" d="M 11.167969 4.480469 L 11.648438 5.289062 L 12.480469 4.820312 "/>
<path style=" stroke:none;fill-rule:nonzero;fill:rgb(11.764706%,70.980392%,22.745098%);fill-opacity:1;" d="M 11.167969 4.480469 L 12.128906 4.480469 L 12.128906 5.414062 "/>
<path style=" stroke:none;fill-rule:nonzero;fill:rgb(11.764706%,70.980392%,22.745098%);fill-opacity:1;" d="M 12.832031 4.480469 L 11.871094 4.480469 L 11.871094 5.414062 "/>
<path style=" stroke:none;fill-rule:nonzero;fill:rgb(11.764706%,70.980392%,22.745098%);fill-opacity:1;" d="M 12.832031 4.480469 L 12.351562 5.289062 L 11.519531 4.820312 "/>
<path style=" stroke:none;fill-rule:nonzero;fill:rgb(80.784314%,6.666667%,14.901961%);fill-opacity:1;" d="M 12 4.179688 L 11.605469 4.84375 L 12.289062 5.226562 "/>
<path style=" stroke:none;fill-rule:nonzero;fill:rgb(80.784314%,6.666667%,14.901961%);fill-opacity:1;" d="M 12 4.179688 L 12.394531 4.84375 L 11.710938 5.226562 "/>
<path style=" stroke:none;fill-rule:nonzero;fill:rgb(80.784314%,6.666667%,14.901961%);fill-opacity:1;" d="M 12.683594 5.328125 L 12.289062 4.667969 L 11.605469 5.050781 "/>
<path style=" stroke:none;fill-rule:nonzero;fill:rgb(80.784314%,6.666667%,14.901961%);fill-opacity:1;" d="M 12.683594 5.328125 L 11.894531 5.328125 L 11.894531 4.5625 "/>
<path style=" stroke:none;fill-rule:nonzero;fill:rgb(80.784314%,6.666667%,14.901961%);fill-opacity:1;" d="M 11.316406 5.328125 L 12.105469 5.328125 L 12.105469 4.5625 "/>
<path style=" stroke:none;fill-rule:nonzero;fill:rgb(80.784314%,6.666667%,14.901961%);fill-opacity:1;" d="M 11.316406 5.328125 L 11.710938 4.667969 L 12.394531 5.050781 "/>
<path style=" stroke:none;fill-rule:nonzero;fill:rgb(80.784314%,6.666667%,14.901961%);fill-opacity:1;" d="M 12 5.710938 L 12.394531 5.050781 L 11.710938 4.667969 "/>
<path style=" stroke:none;fill-rule:nonzero;fill:rgb(80.784314%,6.666667%,14.901961%);fill-opacity:1;" d="M 12 5.710938 L 11.605469 5.050781 L 12.289062 4.667969 "/>
<path style=" stroke:none;fill-rule:nonzero;fill:rgb(80.784314%,6.666667%,14.901961%);fill-opacity:1;" d="M 11.316406 4.5625 L 11.710938 5.226562 L 12.394531 4.84375 "/>
<path style=" stroke:none;fill-rule:nonzero;fill:rgb(80.784314%,6.666667%,14.901961%);fill-opacity:1;" d="M 11.316406 4.5625 L 12.105469 4.5625 L 12.105469 5.328125 "/>
<path style=" stroke:none;fill-rule:nonzero;fill:rgb(80.784314%,6.666667%,14.901961%);fill-opacity:1;" d="M 12.683594 4.5625 L 11.894531 4.5625 L 11.894531 5.328125 "/>
<path style=" stroke:none;fill-rule:nonzero;fill:rgb(80.784314%,6.666667%,14.901961%);fill-opacity:1;" d="M 12.683594 4.5625 L 12.289062 5.226562 L 11.605469 4.84375 "/>
<path style=" stroke:none;fill-rule:nonzero;fill:rgb(11.764706%,70.980392%,22.745098%);fill-opacity:1;" d="M 14.660156 8.492188 L 14.179688 7.683594 L 13.347656 8.152344 "/>
<path style=" stroke:none;fill-rule:nonzero;fill:rgb(11.764706%,70.980392%,22.745098%);fill-opacity:1;" d="M 14.660156 8.492188 L 13.699219 8.492188 L 13.699219 7.558594 "/>
<path style=" stroke:none;fill-rule:nonzero;fill:rgb(11.764706%,70.980392%,22.745098%);fill-opacity:1;" d="M 12.996094 8.492188 L 13.957031 8.492188 L 13.957031 7.558594 "/>
<path style=" stroke:none;fill-rule:nonzero;fill:rgb(11.764706%,70.980392%,22.745098%);fill-opacity:1;" d="M 12.996094 8.492188 L 13.476562 7.683594 L 14.308594 8.152344 "/>
<path style=" stroke:none;fill-rule:nonzero;fill:rgb(11.764706%,70.980392%,22.745098%);fill-opacity:1;" d="M 13.828125 7.09375 L 13.347656 7.902344 L 14.179688 8.367188 "/>
<path style=" stroke:none;fill-rule:nonzero;fill:rgb(11.764706%,70.980392%,22.745098%);fill-opacity:1;" d="M 13.828125 7.09375 L 14.308594 7.902344 L 13.476562 8.367188 "/>
<path style=" stroke:none;fill-rule:nonzero;fill:rgb(11.764706%,70.980392%,22.745098%);fill-opacity:1;" d="M 12.996094 7.558594 L 13.476562 8.367188 L 14.308594 7.902344 "/>
<path style=" stroke:none;fill-rule:nonzero;fill:rgb(11.764706%,70.980392%,22.745098%);fill-opacity:1;" d="M 12.996094 7.558594 L 13.957031 7.558594 L 13.957031 8.492188 "/>
<path style=" stroke:none;fill-rule:nonzero;fill:rgb(11.764706%,70.980392%,22.745098%);fill-opacity:1;" d="M 14.660156 7.558594 L 13.699219 7.558594 L 13.699219 8.492188 "/>
<path style=" stroke:none;fill-rule:nonzero;fill:rgb(11.764706%,70.980392%,22.745098%);fill-opacity:1;" d="M 14.660156 7.558594 L 14.179688 8.367188 L 13.347656 7.902344 "/>
<path style=" stroke:none;fill-rule:nonzero;fill:rgb(11.764706%,70.980392%,22.745098%);fill-opacity:1;" d="M 13.828125 8.960938 L 14.308594 8.152344 L 13.476562 7.683594 "/>
<path style=" stroke:none;fill-rule:nonzero;fill:rgb(11.764706%,70.980392%,22.745098%);fill-opacity:1;" d="M 13.828125 8.960938 L 13.347656 8.152344 L 14.179688 7.683594 "/>
<path style=" stroke:none;fill-rule:nonzero;fill:rgb(80.784314%,6.666667%,14.901961%);fill-opacity:1;" d="M 14.511719 8.410156 L 14.117188 7.746094 L 13.433594 8.128906 "/>
<path style=" stroke:none;fill-rule:nonzero;fill:rgb(80.784314%,6.666667%,14.901961%);fill-opacity:1;" d="M 14.511719 8.410156 L 13.722656 8.410156 L 13.722656 7.644531 "/>
<path style=" stroke:none;fill-rule:nonzero;fill:rgb(80.784314%,6.666667%,14.901961%);fill-opacity:1;" d="M 13.148438 8.410156 L 13.933594 8.410156 L 13.933594 7.644531 "/>
<path style=" stroke:none;fill-rule:nonzero;fill:rgb(80.784314%,6.666667%,14.901961%);fill-opacity:1;" d="M 13.148438 8.410156 L 13.539062 7.746094 L 14.222656 8.128906 "/>
<path style=" stroke:none;fill-rule:nonzero;fill:rgb(80.784314%,6.666667%,14.901961%);fill-opacity:1;" d="M 13.828125 7.261719 L 13.433594 7.925781 L 14.117188 8.308594 "/>
<path style=" stroke:none;fill-rule:nonzero;fill:rgb(80.784314%,6.666667%,14.901961%);fill-opacity:1;" d="M 13.828125 7.261719 L 14.222656 7.925781 L 13.539062 8.308594 "/>
<path style=" stroke:none;fill-rule:nonzero;fill:rgb(80.784314%,6.666667%,14.901961%);fill-opacity:1;" d="M 13.148438 7.644531 L 13.539062 8.308594 L 14.222656 7.925781 "/>
<path style=" stroke:none;fill-rule:nonzero;fill:rgb(80.784314%,6.666667%,14.901961%);fill-opacity:1;" d="M 13.148438 7.644531 L 13.933594 7.644531 L 13.933594 8.410156 "/>
<path style=" stroke:none;fill-rule:nonzero;fill:rgb(80.784314%,6.666667%,14.901961%);fill-opacity:1;" d="M 14.511719 7.644531 L 13.722656 7.644531 L 13.722656 8.410156 "/>
<path style=" stroke:none;fill-rule:nonzero;fill:rgb(80.784314%,6.666667%,14.901961%);fill-opacity:1;" d="M 14.511719 7.644531 L 14.117188 8.308594 L 13.433594 7.925781 "/>
<path style=" stroke:none;fill-rule:nonzero;fill:rgb(80.784314%,6.666667%,14.901961%);fill-opacity:1;" d="M 13.828125 8.792969 L 14.222656 8.128906 L 13.539062 7.746094 "/>
<path style=" stroke:none;fill-rule:nonzero;fill:rgb(80.784314%,6.666667%,14.901961%);fill-opacity:1;" d="M 13.828125 8.792969 L 13.433594 8.128906 L 14.117188 7.746094 "/>
<path style=" stroke:none;fill-rule:nonzero;fill:rgb(11.764706%,70.980392%,22.745098%);fill-opacity:1;" d="M 9.339844 8.492188 L 10.300781 8.492188 L 10.300781 7.558594 "/>
<path style=" stroke:none;fill-rule:nonzero;fill:rgb(11.764706%,70.980392%,22.745098%);fill-opacity:1;" d="M 9.339844 8.492188 L 9.820312 7.683594 L 10.652344 8.152344 "/>
<path style=" stroke:none;fill-rule:nonzero;fill:rgb(11.764706%,70.980392%,22.745098%);fill-opacity:1;" d="M 10.171875 7.09375 L 9.691406 7.902344 L 10.523438 8.367188 "/>
<path style=" stroke:none;fill-rule:nonzero;fill:rgb(11.764706%,70.980392%,22.745098%);fill-opacity:1;" d="M 10.171875 7.09375 L 10.652344 7.902344 L 9.820312 8.367188 "/>
<path style=" stroke:none;fill-rule:nonzero;fill:rgb(11.764706%,70.980392%,22.745098%);fill-opacity:1;" d="M 11.003906 8.492188 L 10.523438 7.683594 L 9.691406 8.152344 "/>
<path style=" stroke:none;fill-rule:nonzero;fill:rgb(11.764706%,70.980392%,22.745098%);fill-opacity:1;" d="M 11.003906 8.492188 L 10.042969 8.492188 L 10.042969 7.558594 "/>
<path style=" stroke:none;fill-rule:nonzero;fill:rgb(11.764706%,70.980392%,22.745098%);fill-opacity:1;" d="M 11.003906 7.558594 L 10.042969 7.558594 L 10.042969 8.492188 "/>
<path style=" stroke:none;fill-rule:nonzero;fill:rgb(11.764706%,70.980392%,22.745098%);fill-opacity:1;" d="M 11.003906 7.558594 L 10.523438 8.367188 L 9.691406 7.902344 "/>
<path style=" stroke:none;fill-rule:nonzero;fill:rgb(11.764706%,70.980392%,22.745098%);fill-opacity:1;" d="M 10.171875 8.960938 L 10.652344 8.152344 L 9.820312 7.683594 "/>
<path style=" stroke:none;fill-rule:nonzero;fill:rgb(11.764706%,70.980392%,22.745098%);fill-opacity:1;" d="M 10.171875 8.960938 L 9.691406 8.152344 L 10.523438 7.683594 "/>
<path style=" stroke:none;fill-rule:nonzero;fill:rgb(11.764706%,70.980392%,22.745098%);fill-opacity:1;" d="M 9.339844 7.558594 L 9.820312 8.367188 L 10.652344 7.902344 "/>
<path style=" stroke:none;fill-rule:nonzero;fill:rgb(11.764706%,70.980392%,22.745098%);fill-opacity:1;" d="M 9.339844 7.558594 L 10.300781 7.558594 L 10.300781 8.492188 "/>
<path style=" stroke:none;fill-rule:nonzero;fill:rgb(80.784314%,6.666667%,14.901961%);fill-opacity:1;" d="M 9.488281 8.410156 L 10.277344 8.410156 L 10.277344 7.644531 "/>
<path style=" stroke:none;fill-rule:nonzero;fill:rgb(80.784314%,6.666667%,14.901961%);fill-opacity:1;" d="M 9.488281 8.410156 L 9.882812 7.746094 L 10.566406 8.128906 "/>
<path style=" stroke:none;fill-rule:nonzero;fill:rgb(80.784314%,6.666667%,14.901961%);fill-opacity:1;" d="M 10.171875 7.261719 L 9.777344 7.925781 L 10.460938 8.308594 "/>
<path style=" stroke:none;fill-rule:nonzero;fill:rgb(80.784314%,6.666667%,14.901961%);fill-opacity:1;" d="M 10.171875 7.261719 L 10.566406 7.925781 L 9.882812 8.308594 "/>
<path style=" stroke:none;fill-rule:nonzero;fill:rgb(80.784314%,6.666667%,14.901961%);fill-opacity:1;" d="M 10.851562 8.410156 L 10.460938 7.746094 L 9.777344 8.128906 "/>
<path style=" stroke:none;fill-rule:nonzero;fill:rgb(80.784314%,6.666667%,14.901961%);fill-opacity:1;" d="M 10.851562 8.410156 L 10.066406 8.410156 L 10.066406 7.644531 "/>
<path style=" stroke:none;fill-rule:nonzero;fill:rgb(80.784314%,6.666667%,14.901961%);fill-opacity:1;" d="M 10.851562 7.644531 L 10.066406 7.644531 L 10.066406 8.410156 "/>
<path style=" stroke:none;fill-rule:nonzero;fill:rgb(80.784314%,6.666667%,14.901961%);fill-opacity:1;" d="M 10.851562 7.644531 L 10.460938 8.308594 L 9.777344 7.925781 "/>
<path style=" stroke:none;fill-rule:nonzero;fill:rgb(80.784314%,6.666667%,14.901961%);fill-opacity:1;" d="M 10.171875 8.792969 L 10.566406 8.128906 L 9.882812 7.746094 "/>
<path style=" stroke:none;fill-rule:nonzero;fill:rgb(80.784314%,6.666667%,14.901961%);fill-opacity:1;" d="M 10.171875 8.792969 L 9.777344 8.128906 L 10.460938 7.746094 "/>
<path style=" stroke:none;fill-rule:nonzero;fill:rgb(80.784314%,6.666667%,14.901961%);fill-opacity:1;" d="M 9.488281 7.644531 L 9.882812 8.308594 L 10.566406 7.925781 "/>
<path style=" stroke:none;fill-rule:nonzero;fill:rgb(80.784314%,6.666667%,14.901961%);fill-opacity:1;" d="M 9.488281 7.644531 L 10.277344 7.644531 L 10.277344 8.410156 "/>
</g>
</svg>
