<?xml version="1.0" encoding="UTF-8"?>
<svg xmlns="http://www.w3.org/2000/svg" xmlns:xlink="http://www.w3.org/1999/xlink" width="24px" height="24px" viewBox="0 0 24 12" version="1.1">
<g id="surface1">
<rect x="0" y="0" width="24" height="12" style="fill:rgb(78.431373%,6.27451%,18.039216%);fill-opacity:1;stroke:none;"/>
<path style=" stroke:none;fill-rule:nonzero;fill:rgb(0.392157%,12.941176%,41.176471%);fill-opacity:1;" d="M 0 0 L 12 0 L 12 6 L 0 6 Z M 0 0 "/>
<path style=" stroke:none;fill-rule:nonzero;fill:rgb(100%,100%,100%);fill-opacity:1;" d="M 0 0 L 0 0.671875 L 10.660156 6 L 12 6 L 12 5.328125 L 1.339844 0 Z M 12 0 L 12 0.671875 L 1.339844 6 L 0 6 L 0 5.328125 L 10.660156 0 Z M 12 0 "/>
<path style=" stroke:none;fill-rule:nonzero;fill:rgb(100%,100%,100%);fill-opacity:1;" d="M 5 0 L 5 6 L 7 6 L 7 0 Z M 0 2 L 0 4 L 12 4 L 12 2 Z M 0 2 "/>
<path style=" stroke:none;fill-rule:nonzero;fill:rgb(78.431373%,6.27451%,18.039216%);fill-opacity:1;" d="M 0 2.398438 L 0 3.601562 L 12 3.601562 L 12 2.398438 Z M 5.398438 0 L 5.398438 6 L 6.601562 6 L 6.601562 0 Z M 0 6 L 4 4 L 4.894531 4 L 0.894531 6 Z M 0 0 L 4 2 L 3.105469 2 L 0 0.445312 Z M 7.105469 2 L 11.105469 0 L 12 0 L 8 2 Z M 12 6 L 8 4 L 8.894531 4 L 12 5.554688 Z M 12 6 "/>
<path style=" stroke:none;fill-rule:nonzero;fill:rgb(100%,100%,100%);fill-opacity:1;" d="M 20.769531 2.558594 L 20.769531 7.640625 C 20.769531 9 18.054688 9.441406 18.054688 9.441406 C 18.054688 9.441406 15.339844 9 15.339844 7.640625 L 15.339844 2.558594 Z M 20.769531 2.558594 "/>
<path style=" stroke:none;fill-rule:nonzero;fill:rgb(18.431373%,56.078431%,13.333333%);fill-opacity:1;" d="M 20.769531 7.640625 C 20.769531 9 18.054688 9.441406 18.054688 9.441406 C 18.054688 9.441406 15.339844 9 15.339844 7.640625 C 15.339844 7.640625 15.339844 7.53125 15.398438 7.46875 C 15.398438 7.46875 15.367188 7.695312 15.539062 7.867188 C 15.539062 7.867188 15.40625 7.625 15.539062 7.390625 C 15.539062 7.390625 15.488281 7.695312 15.679688 7.867188 C 15.679688 7.867188 15.574219 7.621094 15.691406 7.34375 C 15.691406 7.34375 15.632812 7.796875 15.839844 7.886719 C 15.839844 7.886719 15.894531 7.625 15.8125 7.457031 C 15.8125 7.457031 15.957031 7.515625 15.949219 7.894531 C 15.949219 7.894531 15.992188 7.839844 16.003906 7.566406 C 16.003906 7.566406 16.011719 7.878906 16.117188 7.949219 C 16.117188 7.949219 16.152344 7.917969 16.105469 7.777344 C 16.0625 7.636719 16.125 7.585938 16.136719 7.589844 C 16.136719 7.589844 16.113281 7.746094 16.246094 7.863281 C 16.246094 7.863281 16.1875 7.617188 16.265625 7.582031 C 16.265625 7.582031 16.25 7.792969 16.414062 7.839844 C 16.414062 7.839844 16.425781 7.777344 16.390625 7.710938 C 16.390625 7.710938 16.359375 7.628906 16.382812 7.566406 C 16.382812 7.566406 16.4375 7.757812 16.507812 7.789062 C 16.507812 7.789062 16.464844 7.679688 16.503906 7.566406 C 16.503906 7.566406 16.515625 7.726562 16.65625 7.789062 C 16.65625 7.789062 16.5625 7.667969 16.597656 7.535156 L 17.503906 7.578125 L 17.96875 7.601562 L 19.375 7.503906 L 19.617188 7.292969 C 19.617188 7.292969 19.710938 7.425781 19.5625 7.636719 C 19.5625 7.636719 19.710938 7.609375 19.757812 7.375 C 19.757812 7.375 19.820312 7.503906 19.734375 7.648438 C 19.734375 7.648438 19.902344 7.484375 19.925781 7.292969 C 19.925781 7.292969 19.992188 7.476562 19.832031 7.671875 C 19.832031 7.671875 19.972656 7.625 20.035156 7.417969 C 20.035156 7.417969 20.082031 7.542969 19.945312 7.71875 C 19.945312 7.71875 20.199219 7.585938 20.191406 7.304688 C 20.191406 7.304688 20.296875 7.460938 20.175781 7.671875 C 20.175781 7.671875 20.308594 7.554688 20.320312 7.382812 C 20.320312 7.382812 20.390625 7.460938 20.3125 7.675781 C 20.3125 7.675781 20.472656 7.527344 20.496094 7.363281 C 20.496094 7.363281 20.53125 7.515625 20.394531 7.703125 C 20.394531 7.703125 20.488281 7.679688 20.574219 7.496094 C 20.574219 7.496094 20.597656 7.570312 20.519531 7.699219 C 20.519531 7.699219 20.605469 7.6875 20.664062 7.519531 C 20.664062 7.519531 20.671875 7.621094 20.648438 7.707031 C 20.648438 7.707031 20.714844 7.664062 20.730469 7.476562 C 20.730469 7.476562 20.769531 7.539062 20.769531 7.613281 C 20.769531 7.691406 20.769531 7.640625 20.769531 7.640625 Z M 20.769531 7.640625 "/>
<path style="fill-rule:nonzero;fill:rgb(78.431373%,6.27451%,18.039216%);fill-opacity:1;stroke-width:0.831;stroke-linecap:butt;stroke-linejoin:round;stroke:rgb(0%,0%,0%);stroke-opacity:1;stroke-miterlimit:4;" d="M 807.128906 195.963542 C 807.128906 195.963542 803.222656 196.614583 798.177083 195.14974 C 793.13151 193.522135 791.015625 194.173177 789.550781 195.14974 C 789.550781 195.14974 791.503906 191.080729 786.621094 187.825521 C 786.621094 187.825521 788.248698 191.894531 785.970052 193.847656 C 785.970052 193.847656 784.99349 194.824219 783.691406 193.359375 C 783.691406 193.359375 782.063802 191.56901 780.110677 190.266927 C 780.110677 190.266927 784.505208 188.802083 783.691406 184.407552 C 782.877604 180.175781 780.598958 179.52474 779.296875 179.036458 C 779.296875 179.036458 779.785156 180.989583 779.296875 182.291667 C 779.296875 182.291667 774.739583 179.6875 780.924479 176.106771 C 787.272135 172.526042 786.132812 170.247396 784.99349 168.457031 C 783.854167 166.666667 781.41276 164.550781 780.273438 163.89974 C 780.273438 163.89974 781.575521 165.852865 781.25 167.480469 C 781.08724 169.108073 778.157552 170.247396 778.808594 167.317708 C 779.296875 164.388021 778.808594 164.876302 778.645833 161.783854 C 778.645833 161.783854 784.342448 163.574219 786.458333 158.203125 C 786.458333 158.203125 788.574219 152.50651 781.575521 149.739583 C 781.575521 149.739583 783.203125 152.018229 782.389323 153.808594 C 782.389323 153.808594 780.924479 156.575521 779.134115 154.296875 C 777.34375 152.018229 776.204427 151.529948 776.529948 148.925781 C 776.529948 148.925781 782.877604 149.739583 781.08724 142.903646 C 781.08724 142.903646 780.110677 147.460938 771.809896 141.276042 C 771.809896 141.276042 777.18099 135.742188 775.065104 131.184896 C 775.065104 131.184896 774.414062 129.231771 768.554688 130.371094 C 768.554688 130.371094 773.60026 127.115885 771.484375 124.511719 C 771.484375 124.511719 770.345052 122.558594 765.625 125 C 765.625 125 767.578125 121.907552 762.858073 118.489583 C 762.858073 118.489583 759.765625 120.117188 758.138021 121.582031 C 758.138021 121.582031 754.882812 117.513021 752.929688 115.885417 C 752.929688 115.885417 749.186198 117.35026 748.209635 121.582031 C 748.209635 121.582031 746.582031 119.466146 742.675781 118.652344 C 742.675781 118.652344 740.885417 122.070312 743.164062 125 C 743.164062 125 741.373698 125 738.11849 123.535156 C 738.11849 123.535156 734.375 121.744792 734.863281 125 C 735.514323 128.255208 735.839844 128.90625 736.490885 130.371094 C 736.490885 130.371094 728.027344 128.417969 728.352865 132.97526 C 728.678385 136.230469 729.817708 138.997396 732.421875 141.276042 C 732.421875 141.276042 727.701823 147.460938 723.632812 142.740885 C 723.632812 142.740885 722.330729 144.36849 725.260417 148.27474 C 725.260417 148.27474 728.352865 151.529948 725.911458 153.645833 C 725.911458 153.645833 722.49349 156.41276 720.865885 151.204427 C 720.865885 151.204427 715.494792 156.575521 721.842448 160.644531 C 721.842448 160.644531 725.911458 162.923177 730.143229 159.342448 C 730.143229 159.342448 728.841146 169.759115 724.772135 167.80599 C 724.772135 167.80599 722.49349 166.015625 726.72526 163.89974 C 726.72526 163.89974 720.540365 163.085938 719.563802 169.108073 C 719.563802 169.108073 718.75 173.828125 724.121094 175.61849 C 724.121094 175.61849 728.352865 177.083333 723.958333 180.338542 C 723.958333 180.338542 721.028646 182.617188 722.981771 186.035156 C 722.981771 186.035156 725.423177 189.941406 719.238281 190.266927 C 719.238281 190.266927 715.983073 190.266927 714.84375 189.778646 C 714.84375 189.778646 713.541667 192.220052 714.355469 195.14974 C 714.355469 195.14974 711.425781 192.871094 704.427083 195.3125 C 697.591146 197.916667 698.079427 196.126302 697.591146 196.777344 C 696.940104 197.591146 695.638021 200.195312 695.638021 200.195312 C 695.638021 200.195312 699.21875 204.589844 699.38151 204.427083 C 699.38151 204.427083 698.730469 209.472656 698.730469 209.472656 L 700.520833 210.286458 L 714.68099 203.938802 L 729.003906 196.451823 L 740.559896 197.265625 L 747.884115 199.05599 L 757.486979 199.707031 L 764.485677 195.963542 L 774.414062 195.963542 L 785.481771 201.497396 L 798.014323 208.984375 L 804.52474 210.123698 L 809.570312 209.798177 L 809.570312 199.707031 Z M 807.128906 195.963542 " transform="matrix(0.024,0,0,0.024,0,0)"/>
<path style="fill-rule:nonzero;fill:rgb(78.431373%,6.27451%,18.039216%);fill-opacity:1;stroke-width:0.831;stroke-linecap:butt;stroke-linejoin:round;stroke:rgb(0%,0%,0%);stroke-opacity:1;stroke-miterlimit:4;" d="M 693.033854 207.845052 C 693.033854 207.845052 698.404948 210.611979 700.683594 207.356771 C 700.683594 207.356771 703.776042 201.660156 697.102865 199.544271 C 697.102865 199.544271 700.683594 195.3125 696.940104 191.40625 C 696.940104 191.40625 694.824219 189.290365 691.40625 190.755208 C 691.40625 190.755208 689.941406 187.825521 686.523438 187.825521 C 686.523438 187.825521 683.59375 187.825521 682.454427 191.080729 C 682.454427 191.080729 678.385417 189.453125 676.106771 191.894531 C 676.106771 191.894531 672.363281 196.126302 677.571615 199.544271 L 681.477865 199.869792 L 685.221354 198.079427 L 689.290365 199.21875 C 689.290365 199.21875 688.313802 203.450521 693.033854 207.845052 Z M 693.033854 207.845052 " transform="matrix(0.024,0,0,0.024,0,0)"/>
<path style="fill-rule:nonzero;fill:rgb(39.215686%,70.588235%,81.960784%);fill-opacity:1;stroke-width:0.623;stroke-linecap:butt;stroke-linejoin:miter;stroke:rgb(0%,0%,0%);stroke-opacity:1;stroke-miterlimit:4;" d="M 815.429688 197.916667 C 821.940104 197.265625 824.21875 202.799479 824.21875 202.799479 C 827.799479 210.9375 820.47526 215.332031 820.47526 215.332031 C 820.963542 217.122396 820.963542 219.401042 820.963542 219.401042 C 831.380208 220.703125 829.589844 232.421875 829.589844 232.421875 L 826.171875 229.492188 C 820.14974 227.213542 813.964844 232.259115 809.570312 240.885417 C 805.175781 249.348958 807.291667 253.417969 807.942708 263.509115 C 808.75651 273.60026 825.195312 279.622396 825.195312 279.622396 C 825.195312 279.622396 817.382812 299.641927 812.33724 312.66276 C 807.291667 325.520833 796.71224 320.14974 793.782552 317.382812 C 790.690104 314.778646 789.876302 316.24349 788.411458 317.382812 C 786.783854 318.684896 795.247396 325.195312 779.947917 331.380208 C 764.485677 337.727865 761.88151 342.447917 759.277344 344.075521 C 756.673177 345.540365 746.09375 344.563802 744.954427 343.261719 C 743.977865 341.796875 744.628906 341.796875 740.559896 339.355469 C 736.653646 336.914062 729.817708 334.798177 722.49349 331.217448 C 715.169271 327.636719 715.332031 323.079427 715.494792 322.102865 C 715.494792 321.126302 717.936198 313.476562 709.309896 319.661458 C 700.683594 325.683594 693.359375 316.731771 693.359375 316.731771 C 691.731771 314.453125 684.570312 295.247396 684.570312 295.247396 C 682.617188 288.085938 678.873698 279.785156 678.873698 279.785156 C 679.036458 279.785156 678.548177 280.598958 684.895833 277.018229 C 691.24349 273.4375 694.010417 267.252604 696.289062 261.393229 C 698.404948 255.371094 696.289062 245.117188 695.47526 243.001302 C 694.661458 240.885417 689.941406 231.445312 684.082031 229.329427 C 678.222656 227.376302 674.316406 232.421875 674.316406 232.421875 C 674.316406 232.421875 672.526042 220.703125 682.779948 219.401042 C 682.779948 219.401042 682.942708 217.122396 683.43099 215.332031 C 683.43099 215.332031 676.106771 210.9375 679.52474 202.799479 C 679.52474 202.799479 681.966146 197.265625 688.476562 197.916667 L 686.848958 200.846354 C 686.848958 200.846354 685.221354 217.447917 709.472656 206.380208 C 733.723958 195.14974 733.072917 193.196615 746.907552 200.195312 L 756.998698 199.869792 C 756.998698 199.869792 771.484375 193.196615 776.204427 196.126302 C 780.924479 199.05599 797.688802 208.496094 797.688802 208.496094 C 797.688802 208.496094 813.964844 214.518229 817.220052 203.28776 Z M 815.429688 197.916667 " transform="matrix(0.024,0,0,0.024,0,0)"/>
<path style="fill-rule:nonzero;fill:rgb(100%,100%,100%);fill-opacity:1;stroke-width:0.831;stroke-linecap:butt;stroke-linejoin:miter;stroke:rgb(0.392157%,12.941176%,41.176471%);stroke-opacity:1;stroke-miterlimit:10;" d="M 742.35026 269.69401 C 742.35026 269.69401 741.536458 264.648438 740.559896 261.393229 C 740.559896 261.393229 738.769531 256.184896 741.861979 252.604167 L 745.605469 248.209635 C 745.605469 248.209635 748.046875 244.954427 750.976562 244.628906 C 750.976562 244.628906 753.90625 244.466146 754.231771 243.815104 C 754.394531 243.326823 757.64974 237.955729 765.299479 243.815104 C 765.299479 243.815104 767.740885 240.071615 771.484375 239.257812 C 771.484375 239.257812 775.553385 238.11849 777.50651 241.048177 C 777.50651 241.048177 782.063802 237.630208 785.970052 243.164062 C 785.970052 243.164062 791.341146 240.234375 795.247396 246.25651 C 795.247396 246.25651 800.455729 243.652344 803.873698 249.186198 C 807.128906 254.720052 806.477865 256.998698 806.477865 256.998698 L 808.919271 265.78776 L 817.382812 276.367188 L 797.526042 283.854167 L 788.411458 283.854167 L 770.507812 288.736979 L 738.606771 291.178385 L 729.817708 280.761719 Z M 742.35026 269.69401 " transform="matrix(0.024,0,0,0.024,0,0)"/>
<path style="fill-rule:nonzero;fill:rgb(78.431373%,6.27451%,18.039216%);fill-opacity:1;stroke-width:0.831;stroke-linecap:butt;stroke-linejoin:round;stroke:rgb(0%,0%,0%);stroke-opacity:1;stroke-miterlimit:4;" d="M 715.332031 322.753906 C 715.332031 322.753906 710.611979 323.079427 708.170573 324.21875 C 705.729167 325.520833 703.938802 326.822917 701.009115 328.613281 C 701.009115 328.613281 699.707031 330.240885 694.173177 329.264323 C 694.173177 329.264323 684.733073 326.985677 684.733073 334.472656 C 684.733073 334.472656 673.339844 335.286458 678.059896 345.377604 C 678.059896 345.377604 681.152344 353.190104 687.66276 347.65625 C 687.66276 347.65625 683.43099 353.678385 691.56901 355.957031 C 691.56901 355.957031 697.428385 357.421875 699.05599 351.39974 C 699.05599 351.39974 700.032552 349.121094 697.753906 346.191406 C 697.753906 346.191406 700.683594 345.703125 702.636719 342.610677 C 702.636719 342.610677 696.614583 350.260417 703.125 352.864583 C 703.125 352.864583 711.425781 354.980469 711.751302 346.354167 C 711.751302 346.354167 711.10026 342.447917 714.355469 340.983073 C 714.355469 340.983073 720.865885 339.518229 723.958333 332.19401 C 723.958333 332.19401 714.518229 327.148438 715.332031 322.753906 Z M 696.126302 247.558594 C 696.126302 247.558594 688.802083 244.140625 685.221354 247.558594 C 685.221354 247.558594 680.501302 244.628906 675.292969 247.558594 C 675.292969 247.558594 670.410156 250.813802 667.154948 254.231771 C 667.154948 254.231771 664.713542 256.347656 665.527344 262.695312 C 665.527344 262.695312 666.829427 267.089844 666.015625 269.36849 C 666.015625 269.36849 664.550781 269.042969 661.295573 272.949219 C 661.295573 272.949219 657.063802 277.669271 653.483073 273.4375 C 653.483073 273.4375 654.622396 279.296875 661.458333 278.483073 C 661.458333 278.483073 658.203125 280.924479 660.970052 287.597656 C 660.970052 287.597656 663.085938 292.317708 659.667969 298.339844 C 659.667969 298.339844 665.690104 295.898438 665.364583 288.89974 C 665.364583 288.89974 664.876302 284.179688 666.666667 280.924479 C 666.666667 280.924479 664.876302 283.854167 668.945312 290.364583 C 668.945312 290.364583 672.03776 294.921875 669.596354 299.804688 C 669.596354 299.804688 675.455729 297.688802 674.804688 290.527344 C 674.316406 283.528646 670.735677 286.458333 673.014323 279.947917 C 673.014323 279.947917 673.502604 283.203125 675.292969 284.99349 C 677.083333 286.621094 679.361979 289.388021 678.385417 294.108073 C 678.385417 294.108073 681.803385 289.876302 680.989583 285.31901 C 680.175781 280.924479 679.361979 279.622396 679.361979 279.622396 L 690.429688 273.27474 L 695.800781 263.346354 Z M 696.126302 247.558594 " transform="matrix(0.024,0,0,0.024,0,0)"/>
<path style="fill:none;stroke-width:0.831;stroke-linecap:butt;stroke-linejoin:miter;stroke:rgb(0%,0%,0%);stroke-opacity:1;stroke-miterlimit:10;" d="M 679.361979 275.553385 C 679.361979 275.553385 674.804688 275.227865 673.990885 271.809896 M 666.015625 269.36849 C 666.015625 269.36849 667.643229 269.36849 669.108073 270.833333 C 669.108073 270.833333 670.247396 272.460938 671.71224 272.298177 " transform="matrix(0.024,0,0,0.024,0,0)"/>
<path style=" stroke:none;fill-rule:nonzero;fill:rgb(0%,0%,0%);fill-opacity:1;" d="M 16.464844 6.292969 C 16.464844 6.292969 16.410156 6.292969 16.378906 6.265625 C 16.378906 6.265625 16.34375 6.242188 16.324219 6.277344 C 16.324219 6.277344 16.296875 6.332031 16.351562 6.351562 C 16.351562 6.351562 16.421875 6.386719 16.3125 6.457031 C 16.3125 6.457031 16.441406 6.410156 16.386719 6.347656 C 16.386719 6.347656 16.332031 6.304688 16.351562 6.292969 C 16.351562 6.292969 16.359375 6.277344 16.382812 6.292969 C 16.402344 6.308594 16.449219 6.304688 16.464844 6.292969 Z M 16.464844 6.292969 "/>
<path style="fill-rule:nonzero;fill:rgb(47.058824%,26.666667%,12.941176%);fill-opacity:1;stroke-width:0.623;stroke-linecap:butt;stroke-linejoin:miter;stroke:rgb(0%,0%,0%);stroke-opacity:1;stroke-miterlimit:4;" d="M 760.416667 274.251302 L 742.1875 211.263021 L 741.536458 211.425781 L 757.64974 275.065104 Z M 760.416667 274.251302 " transform="matrix(0.024,0,0,0.024,0,0)"/>
<path style=" stroke:none;fill-rule:nonzero;fill:rgb(0%,0%,0%);fill-opacity:1;" d="M 16.726562 8.273438 C 16.726562 8.273438 16.625 8.21875 16.539062 8.285156 C 16.539062 8.285156 16.546875 8.246094 16.613281 8.230469 C 16.613281 8.230469 16.648438 8.132812 16.746094 8.140625 C 16.746094 8.140625 16.707031 8.1875 16.652344 8.230469 C 16.652344 8.230469 16.710938 8.234375 16.726562 8.273438 Z M 16.726562 8.273438 "/>
<path style="fill-rule:nonzero;fill:rgb(39.215686%,70.588235%,81.960784%);fill-opacity:1;stroke-width:0.623;stroke-linecap:butt;stroke-linejoin:miter;stroke:rgb(0.392157%,12.941176%,41.176471%);stroke-opacity:1;stroke-miterlimit:2.613;" d="M 681.803385 354.817708 C 681.803385 354.817708 674.967448 350.423177 678.710938 343.261719 C 678.710938 343.261719 679.85026 341.145833 681.803385 341.634115 C 681.803385 341.634115 686.035156 342.936198 682.779948 348.795573 C 682.779948 348.795573 681.152344 352.701823 681.803385 354.817708 Z M 695.638021 361.490885 C 695.638021 361.490885 685.872396 357.096354 688.964844 349.609375 C 688.964844 349.609375 689.778646 347.005208 692.057292 347.167969 C 692.057292 347.167969 695.800781 347.49349 694.986979 352.376302 C 694.986979 352.376302 693.847656 357.259115 695.638021 361.490885 Z M 695.638021 361.490885 " transform="matrix(0.024,0,0,0.024,0,0)"/>
<path style=" stroke:none;fill-rule:nonzero;fill:rgb(0%,0%,0%);fill-opacity:1;" d="M 16.644531 8.003906 C 16.644531 8.003906 16.578125 8.054688 16.546875 8.089844 C 16.546875 8.089844 16.519531 8.054688 16.480469 8.03125 C 16.480469 8.03125 16.523438 8.027344 16.546875 8.046875 C 16.546875 8.046875 16.582031 8.011719 16.644531 8.003906 Z M 16.644531 8.003906 "/>
<path style="fill-rule:nonzero;fill:rgb(39.215686%,70.588235%,81.960784%);fill-opacity:1;stroke-width:0.623;stroke-linecap:butt;stroke-linejoin:miter;stroke:rgb(0.392157%,12.941176%,41.176471%);stroke-opacity:1;stroke-miterlimit:2.613;" d="M 702.311198 359.700521 C 702.311198 359.700521 709.798177 357.747396 708.496094 349.934896 C 708.496094 349.934896 707.682292 346.516927 704.427083 346.842448 C 704.427083 346.842448 700.520833 347.981771 703.125 352.864583 C 703.125 352.864583 704.589844 356.445312 702.311198 359.700521 Z M 702.311198 359.700521 " transform="matrix(0.024,0,0,0.024,0,0)"/>
<path style="fill-rule:nonzero;fill:rgb(96.078431%,80.784314%,0%);fill-opacity:1;stroke-width:0.831;stroke-linecap:butt;stroke-linejoin:miter;stroke:rgb(0%,0%,0%);stroke-opacity:1;stroke-miterlimit:2.613;" d="M 736.653646 193.196615 C 736.653646 193.196615 741.536458 194.661458 744.303385 195.800781 C 744.303385 195.800781 751.302083 199.05599 760.416667 195.800781 C 760.416667 195.800781 766.438802 193.359375 767.252604 193.196615 L 762.532552 200.358073 L 762.369792 203.938802 L 765.299479 208.333333 C 765.299479 208.333333 763.509115 208.984375 758.300781 205.729167 C 758.300781 205.729167 752.441406 201.334635 745.605469 205.729167 C 745.605469 205.729167 741.861979 208.333333 738.606771 208.333333 L 743.164062 203.28776 L 741.373698 198.730469 Z M 736.653646 193.196615 " transform="matrix(0.024,0,0,0.024,0,0)"/>
<path style=" stroke:none;fill-rule:nonzero;fill:rgb(100%,100%,100%);fill-opacity:1;" d="M 16.925781 8.40625 C 16.925781 8.40625 16.929688 8.398438 16.921875 8.394531 C 16.921875 8.394531 16.914062 8.390625 16.910156 8.402344 C 16.910156 8.402344 16.890625 8.429688 16.90625 8.472656 C 16.90625 8.472656 16.921875 8.5 16.914062 8.53125 C 16.914062 8.53125 16.914062 8.539062 16.921875 8.542969 C 16.921875 8.542969 16.925781 8.539062 16.929688 8.53125 C 16.929688 8.53125 16.9375 8.503906 16.921875 8.476562 C 16.921875 8.476562 16.902344 8.429688 16.925781 8.40625 Z M 16.925781 8.40625 "/>
<path style="fill-rule:nonzero;fill:rgb(78.431373%,6.27451%,18.039216%);fill-opacity:1;stroke-width:0.831;stroke-linecap:butt;stroke-linejoin:round;stroke:rgb(0%,0%,0%);stroke-opacity:1;stroke-miterlimit:4;" d="M 810.709635 207.845052 C 810.709635 207.845052 805.175781 210.611979 802.897135 207.356771 C 802.897135 207.356771 799.967448 201.660156 806.477865 199.544271 C 806.477865 199.544271 802.897135 195.3125 806.803385 191.40625 C 806.803385 191.40625 808.75651 189.290365 812.33724 190.755208 C 812.33724 190.755208 813.639323 187.825521 817.057292 187.825521 C 817.057292 187.825521 820.14974 187.825521 821.126302 191.080729 C 821.126302 191.080729 825.195312 189.453125 827.473958 191.894531 C 827.473958 191.894531 831.380208 196.126302 826.009115 199.544271 L 822.265625 199.869792 L 818.522135 198.079427 L 814.290365 199.21875 C 814.290365 199.21875 815.429688 203.450521 810.709635 207.845052 Z M 810.709635 207.845052 " transform="matrix(0.024,0,0,0.024,0,0)"/>
<path style="fill-rule:nonzero;fill:rgb(96.078431%,80.784314%,0%);fill-opacity:1;stroke-width:0.831;stroke-linecap:butt;stroke-linejoin:miter;stroke:rgb(0%,0%,0%);stroke-opacity:1;stroke-miterlimit:2.613;" d="M 767.252604 203.450521 C 767.252604 203.450521 767.089844 204.589844 765.950521 204.752604 C 765.950521 204.752604 764.811198 205.078125 764.160156 203.613281 C 764.160156 203.613281 763.997396 203.28776 763.997396 203.125 C 763.997396 202.473958 763.671875 200.520833 765.78776 198.893229 C 765.78776 198.893229 769.36849 196.126302 775.878906 199.544271 C 775.878906 199.544271 781.08724 201.985677 784.830729 204.101562 C 784.830729 204.101562 794.108073 209.147135 795.247396 209.472656 C 795.247396 209.472656 799.316406 211.588542 805.664062 211.914062 C 805.664062 211.914062 814.290365 212.565104 817.871094 206.542969 C 817.871094 206.542969 820.638021 201.822917 817.871094 198.893229 C 817.871094 198.893229 816.731771 197.591146 814.941406 197.916667 C 814.127604 197.916667 813.313802 198.404948 812.5 199.38151 C 812.5 199.38151 811.197917 201.334635 812.66276 202.636719 C 812.66276 202.636719 814.778646 203.938802 815.429688 201.334635 C 815.429688 201.334635 815.429688 201.171875 815.592448 201.334635 C 815.592448 201.497396 816.080729 203.450521 814.941406 205.240885 C 814.941406 205.240885 809.733073 213.053385 795.410156 204.915365 L 776.692708 194.335938 C 776.692708 194.335938 767.252604 189.615885 761.55599 197.102865 C 761.55599 197.102865 756.998698 203.450521 762.858073 207.519531 C 762.858073 207.519531 767.252604 210.123698 770.019531 205.891927 C 770.019531 205.891927 772.298177 201.822917 768.717448 200.032552 C 768.717448 200.032552 765.625 198.567708 764.322917 201.822917 C 763.020833 204.915365 766.764323 205.729167 767.089844 203.450521 C 767.089844 203.450521 767.089844 202.96224 767.252604 203.450521 Z M 767.252604 203.450521 " transform="matrix(0.024,0,0,0.024,0,0)"/>
<path style="fill-rule:nonzero;fill:rgb(89.411765%,79.607843%,36.862745%);fill-opacity:1;stroke-width:0.623;stroke-linecap:butt;stroke-linejoin:miter;stroke:rgb(0%,0%,0%);stroke-opacity:1;stroke-miterlimit:2.613;" d="M 692.708333 235.839844 L 692.708333 224.121094 C 692.708333 223.144531 692.708333 222.330729 694.010417 221.191406 C 695.47526 220.052083 696.940104 218.261719 699.05599 223.470052 C 699.05599 223.470052 703.28776 218.91276 704.752604 218.261719 C 704.752604 218.261719 707.19401 216.308594 708.821615 219.238281 C 708.821615 219.238281 711.10026 215.820312 712.890625 215.00651 C 712.890625 215.00651 717.122396 212.239583 717.285156 220.540365 L 720.540365 217.447917 C 720.540365 217.447917 722.981771 215.332031 725.911458 218.261719 C 725.911458 218.261719 730.63151 222.81901 731.282552 224.121094 C 731.282552 224.121094 732.259115 225.585938 732.421875 227.864583 C 732.421875 227.864583 732.421875 230.30599 733.723958 231.770833 C 733.723958 231.770833 735.188802 233.072917 736.653646 233.398438 C 736.653646 233.398438 740.071615 233.561198 741.210938 236.653646 C 741.210938 236.653646 741.861979 236.165365 743.489583 251.464844 L 743.489583 279.459635 L 724.609375 301.920573 L 694.335938 293.294271 L 682.291667 288.411458 L 679.52474 279.459635 L 691.24349 271.972656 L 697.591146 254.720052 L 695.638021 242.675781 Z M 692.708333 235.839844 " transform="matrix(0.024,0,0,0.024,0,0)"/>
<path style="fill-rule:nonzero;fill:rgb(47.058824%,26.666667%,12.941176%);fill-opacity:1;stroke-width:0.623;stroke-linecap:butt;stroke-linejoin:miter;stroke:rgb(0%,0%,0%);stroke-opacity:1;stroke-miterlimit:4;" d="M 776.041667 250.651042 L 777.50651 248.535156 L 780.924479 245.93099 C 780.924479 245.93099 786.132812 259.602865 786.458333 262.695312 L 786.458333 266.927083 C 786.458333 266.927083 794.270833 268.880208 795.735677 280.924479 L 789.22526 292.96875 L 778.971354 287.272135 L 776.041667 285.15625 Z M 776.041667 250.651042 " transform="matrix(0.024,0,0,0.024,0,0)"/>
<path style=" stroke:none;fill-rule:nonzero;fill:rgb(100%,100%,100%);fill-opacity:1;" d="M 16.320312 8.28125 C 16.320312 8.28125 16.328125 8.269531 16.320312 8.261719 C 16.320312 8.261719 16.316406 8.257812 16.304688 8.269531 C 16.304688 8.269531 16.257812 8.328125 16.296875 8.410156 C 16.296875 8.410156 16.300781 8.421875 16.308594 8.417969 C 16.308594 8.417969 16.316406 8.417969 16.308594 8.40625 C 16.308594 8.40625 16.273438 8.335938 16.320312 8.28125 Z M 16.320312 8.28125 "/>
<path style="fill:none;stroke-width:0.831;stroke-linecap:butt;stroke-linejoin:miter;stroke:rgb(0%,0%,0%);stroke-opacity:1;stroke-miterlimit:10;" d="M 710.611979 342.610677 C 710.611979 342.610677 710.9375 341.634115 710.123698 340.494792 C 710.123698 340.494792 709.635417 339.68099 709.798177 338.541667 " transform="matrix(0.024,0,0,0.024,0,0)"/>
<path style="fill:none;stroke-width:0.623;stroke-linecap:butt;stroke-linejoin:miter;stroke:rgb(0%,0%,0%);stroke-opacity:1;stroke-miterlimit:10;" d="M 717.285156 220.540365 C 717.285156 220.540365 717.285156 223.470052 718.098958 225.585938 C 718.91276 227.701823 721.842448 231.445312 722.005208 233.561198 " transform="matrix(0.024,0,0,0.024,0,0)"/>
<path style="fill-rule:nonzero;fill:rgb(78.431373%,6.27451%,18.039216%);fill-opacity:1;stroke-width:0.831;stroke-linecap:butt;stroke-linejoin:round;stroke:rgb(0%,0%,0%);stroke-opacity:1;stroke-miterlimit:4;" d="M 788.411458 322.753906 C 788.411458 322.753906 793.294271 323.079427 795.735677 324.21875 C 798.177083 325.520833 799.967448 326.822917 802.734375 328.613281 C 802.734375 328.613281 804.036458 330.240885 809.570312 329.264323 C 809.570312 329.264323 819.173177 326.985677 819.173177 334.472656 C 819.173177 334.472656 830.566406 335.286458 825.846354 345.377604 C 825.846354 345.377604 822.753906 353.190104 816.080729 347.65625 C 816.080729 347.65625 820.3125 353.678385 812.174479 355.957031 C 812.174479 355.957031 806.477865 357.421875 804.6875 351.39974 C 804.6875 351.39974 803.873698 349.121094 805.989583 346.191406 C 805.989583 346.191406 803.222656 345.703125 801.269531 342.610677 C 801.269531 342.610677 807.291667 350.260417 800.78125 352.864583 C 800.78125 352.864583 792.480469 354.980469 791.992188 346.354167 C 791.992188 346.354167 792.643229 342.447917 789.550781 340.983073 C 789.550781 340.983073 783.040365 339.518229 779.947917 332.19401 C 779.947917 332.19401 789.388021 327.148438 788.411458 322.753906 Z M 788.411458 322.753906 " transform="matrix(0.024,0,0,0.024,0,0)"/>
<path style="fill:none;stroke-width:0.623;stroke-linecap:butt;stroke-linejoin:miter;stroke:rgb(0%,0%,0%);stroke-opacity:1;stroke-miterlimit:10;" d="M 713.541667 233.561198 L 721.354167 296.386719 M 715.332031 233.398438 L 723.958333 291.992188 M 716.959635 233.072917 L 727.050781 291.178385 " transform="matrix(0.024,0,0,0.024,0,0)"/>
<path style="fill-rule:nonzero;fill:rgb(47.058824%,26.666667%,12.941176%);fill-opacity:1;stroke-width:0.623;stroke-linecap:butt;stroke-linejoin:miter;stroke:rgb(0%,0%,0%);stroke-opacity:1;stroke-miterlimit:4;" d="M 735.677083 285.15625 L 717.447917 222.330729 L 716.796875 222.49349 L 732.747396 286.132812 Z M 735.677083 285.15625 " transform="matrix(0.024,0,0,0.024,0,0)"/>
<path style="fill:none;stroke-width:0.623;stroke-linecap:butt;stroke-linejoin:miter;stroke:rgb(0%,0%,0%);stroke-opacity:1;stroke-miterlimit:10;" d="M 722.49349 230.794271 L 740.885417 277.34375 M 721.354167 231.608073 L 739.095052 280.110677 " transform="matrix(0.024,0,0,0.024,0,0)"/>
<path style=" stroke:none;fill-rule:nonzero;fill:rgb(100%,100%,100%);fill-opacity:1;" d="M 16.609375 8.570312 C 16.609375 8.570312 16.558594 8.519531 16.566406 8.433594 C 16.566406 8.433594 16.570312 8.414062 16.5625 8.410156 C 16.5625 8.410156 16.550781 8.40625 16.550781 8.429688 C 16.550781 8.429688 16.535156 8.523438 16.597656 8.574219 C 16.597656 8.574219 16.601562 8.578125 16.609375 8.578125 C 16.609375 8.578125 16.617188 8.578125 16.609375 8.570312 Z M 16.609375 8.570312 "/>
<path style="fill:none;stroke-width:0.623;stroke-linecap:butt;stroke-linejoin:miter;stroke:rgb(0%,0%,0%);stroke-opacity:1;stroke-miterlimit:10;" d="M 723.307292 230.143229 L 742.35026 272.623698 M 718.098958 232.747396 L 729.817708 289.876302 " transform="matrix(0.024,0,0,0.024,0,0)"/>
<path style="fill-rule:nonzero;fill:rgb(96.078431%,80.784314%,0%);fill-opacity:1;stroke-width:0.831;stroke-linecap:butt;stroke-linejoin:miter;stroke:rgb(0%,0%,0%);stroke-opacity:1;stroke-miterlimit:2.613;" d="M 813.313802 275.065104 C 805.013021 270.507812 803.222656 259.928385 803.222656 259.928385 C 801.106771 249.511719 805.175781 241.373698 805.175781 241.373698 C 810.546875 229.980469 819.824219 227.864583 819.824219 227.864583 C 819.824219 227.864583 810.872396 234.049479 808.268229 242.513021 C 808.268229 242.513021 806.315104 249.674479 807.454427 256.673177 C 808.59375 263.671875 808.105469 261.88151 809.895833 267.252604 Z M 813.313802 275.065104 " transform="matrix(0.024,0,0,0.024,0,0)"/>
<path style="fill-rule:nonzero;fill:rgb(47.058824%,26.666667%,12.941176%);fill-opacity:1;stroke-width:0.38;stroke-linecap:butt;stroke-linejoin:miter;stroke:rgb(0%,0%,0%);stroke-opacity:1;stroke-miterlimit:4;" d="M 777.50651 248.535156 L 742.675781 259.602865 L 740.722656 275.065104 C 732.421875 287.109375 715.657552 289.22526 715.657552 289.22526 L 728.678385 303.222656 L 753.90625 308.43099 L 767.089844 298.339844 L 778.971354 287.272135 C 777.832031 281.41276 778.483073 272.623698 778.483073 272.623698 C 778.483073 271.158854 778.971354 267.740885 778.971354 267.740885 C 778.971354 267.740885 777.018229 253.417969 777.50651 248.535156 Z M 777.50651 248.535156 " transform="matrix(0.024,0,0,0.024,0,0)"/>
<path style="fill:none;stroke-width:0.623;stroke-linecap:butt;stroke-linejoin:miter;stroke:rgb(0%,0%,0%);stroke-opacity:1;stroke-miterlimit:10;" d="M 741.210938 271.158854 C 741.210938 271.158854 764.160156 263.997396 777.832031 258.300781 M 730.143229 284.342448 C 730.143229 284.342448 758.789062 279.134115 778.971354 267.740885 L 786.458333 262.695312 " transform="matrix(0.024,0,0,0.024,0,0)"/>
<path style="fill:none;stroke-width:0.623;stroke-linecap:butt;stroke-linejoin:miter;stroke:rgb(0%,0%,0%);stroke-opacity:1;stroke-miterlimit:10;" d="M 786.458333 266.927083 L 778.483073 272.623698 C 778.483073 272.623698 746.419271 287.434896 722.005208 287.760417 M 778.483073 283.040365 C 778.483073 283.040365 753.74349 295.735677 739.583333 296.061198 " transform="matrix(0.024,0,0,0.024,0,0)"/>
<path style="fill-rule:nonzero;fill:rgb(78.431373%,6.27451%,18.039216%);fill-opacity:1;stroke-width:0.831;stroke-linecap:butt;stroke-linejoin:round;stroke:rgb(0%,0%,0%);stroke-opacity:1;stroke-miterlimit:4;" d="M 807.942708 247.558594 C 807.942708 247.558594 815.266927 244.140625 818.684896 247.558594 C 818.684896 247.558594 823.567708 244.628906 828.613281 247.558594 C 828.613281 247.558594 833.496094 250.813802 836.914062 254.231771 C 836.914062 254.231771 839.355469 256.347656 838.378906 262.695312 C 838.378906 262.695312 837.239583 267.089844 837.890625 269.36849 C 837.890625 269.36849 839.518229 269.042969 842.773438 272.949219 C 842.773438 272.949219 846.842448 277.669271 850.423177 273.4375 C 850.423177 273.4375 849.446615 279.296875 842.610677 278.483073 C 842.610677 278.483073 845.865885 280.924479 843.098958 287.597656 C 843.098958 287.597656 840.983073 292.317708 844.238281 298.339844 C 844.238281 298.339844 838.378906 295.898438 838.541667 288.89974 C 838.541667 288.89974 839.029948 284.179688 837.402344 280.924479 C 837.402344 280.924479 839.029948 283.854167 835.123698 290.364583 C 835.123698 290.364583 831.86849 294.921875 834.472656 299.804688 C 834.472656 299.804688 828.613281 297.688802 829.264323 290.527344 C 829.752604 283.528646 833.333333 286.458333 831.054688 279.947917 C 831.054688 279.947917 830.403646 283.203125 828.613281 284.99349 C 826.985677 286.621094 824.707031 289.388021 825.683594 294.108073 C 825.683594 294.108073 822.102865 289.876302 822.916667 285.31901 C 823.730469 280.924479 824.707031 279.622396 824.707031 279.622396 L 813.639323 273.27474 L 808.105469 263.346354 Z M 807.942708 247.558594 " transform="matrix(0.024,0,0,0.024,0,0)"/>
<path style="fill-rule:nonzero;fill:rgb(100%,100%,100%);fill-opacity:1;stroke-width:0.831;stroke-linecap:butt;stroke-linejoin:miter;stroke:rgb(0.392157%,12.941176%,41.176471%);stroke-opacity:1;stroke-miterlimit:10;" d="M 682.942708 287.272135 C 682.942708 287.272135 683.919271 282.389323 688.639323 284.342448 C 688.639323 284.342448 690.266927 276.367188 698.730469 276.041667 C 707.19401 275.878906 707.682292 284.342448 707.682292 284.99349 C 707.682292 284.99349 710.286458 281.25 714.355469 281.738281 C 714.355469 281.738281 721.516927 281.25 718.91276 292.80599 L 720.214844 294.270833 C 720.214844 294.270833 725.748698 281.41276 737.141927 284.830729 C 737.141927 284.830729 748.046875 288.085938 740.885417 298.828125 C 740.885417 298.828125 746.419271 305.826823 750.976562 305.175781 C 755.533854 304.52474 759.765625 303.059896 764.322917 295.084635 C 768.880208 286.946615 779.459635 285.644531 782.226562 286.132812 C 784.99349 286.621094 787.109375 288.411458 787.434896 290.364583 C 787.434896 290.364583 793.13151 271.484375 813.476562 274.414062 L 821.614583 278.483073 L 824.707031 279.947917 L 819.986979 292.96875 L 808.919271 318.196615 L 800.292969 320.800781 L 791.503906 315.755208 L 788.411458 317.382812 L 788.085938 325.032552 L 776.367188 333.496094 L 768.229167 336.751302 L 759.277344 342.936198 L 757.161458 348.307292 C 757.161458 348.307292 752.278646 346.354167 746.744792 348.307292 L 744.791667 343.91276 L 739.583333 338.867188 L 719.238281 329.264323 L 715.657552 317.382812 L 711.914062 315.755208 L 707.682292 320.47526 L 701.660156 321.289062 L 692.545573 315.104167 Z M 682.942708 287.272135 " transform="matrix(0.024,0,0,0.024,0,0)"/>
<path style="fill:none;stroke-width:0.831;stroke-linecap:butt;stroke-linejoin:miter;stroke:rgb(0%,0%,0%);stroke-opacity:1;stroke-miterlimit:2.613;" d="M 771.484375 195.14974 C 771.484375 195.14974 763.671875 194.824219 763.997396 202.799479 " transform="matrix(0.024,0,0,0.024,0,0)"/>
<path style="fill-rule:nonzero;fill:rgb(96.078431%,80.784314%,0%);fill-opacity:1;stroke-width:0.831;stroke-linecap:butt;stroke-linejoin:miter;stroke:rgb(0%,0%,0%);stroke-opacity:1;stroke-miterlimit:2.613;" d="M 822.591146 280.598958 C 809.082031 276.367188 805.338542 261.88151 805.338542 261.88151 C 802.571615 250.976562 806.966146 241.536458 806.966146 241.536458 C 813.151042 227.050781 823.567708 227.050781 823.567708 227.050781 C 828.938802 226.888021 829.427083 231.282552 829.427083 231.282552 C 829.915365 234.53776 827.799479 235.677083 827.799479 235.677083 C 824.21875 237.630208 821.940104 235.026042 821.940104 235.026042 C 820.47526 233.072917 821.614583 231.282552 821.614583 231.282552 C 822.428385 229.980469 824.21875 230.63151 824.21875 230.63151 C 825.683594 230.957031 825.520833 232.747396 825.520833 232.747396 C 825.520833 232.747396 825.846354 230.63151 823.730469 230.46875 C 823.730469 230.46875 819.661458 229.492188 814.941406 235.514323 C 814.941406 235.514323 808.75651 243.489583 808.75651 253.90625 C 808.75651 253.90625 807.942708 273.27474 828.125 278.320312 C 828.125 278.320312 826.009115 281.575521 822.102865 292.96875 C 822.102865 292.96875 817.708333 307.617188 813.476562 315.429688 C 813.476562 315.429688 807.942708 326.822917 795.572917 322.102865 C 795.572917 322.102865 788.085938 318.847656 788.085938 313.476562 C 788.085938 313.476562 787.597656 308.59375 792.154948 308.268229 C 792.154948 308.268229 796.386719 307.942708 796.386719 311.686198 C 796.386719 311.686198 796.549479 315.755208 791.666667 314.778646 C 791.666667 314.778646 790.039062 314.453125 790.364583 312.825521 C 790.364583 312.825521 790.690104 311.360677 792.643229 312.011719 C 792.643229 312.011719 792.643229 312.011719 792.80599 312.011719 C 792.80599 312.011719 792.80599 311.848958 792.643229 311.848958 C 792.643229 311.848958 791.829427 311.523438 791.015625 311.848958 C 791.015625 311.848958 790.364583 312.011719 790.364583 313.151042 C 790.364583 313.151042 790.201823 314.127604 791.178385 314.615885 C 791.178385 314.615885 792.480469 315.104167 793.294271 314.941406 C 793.294271 314.941406 794.596354 317.545573 797.526042 318.359375 C 801.432292 319.498698 804.6875 318.359375 806.640625 316.894531 C 808.919271 315.104167 810.221354 312.011719 810.709635 311.360677 C 811.035156 310.546875 814.778646 302.408854 817.545573 293.619792 C 817.545573 293.619792 819.824219 286.132812 821.777344 282.063802 Z M 822.591146 280.598958 " transform="matrix(0.024,0,0,0.024,0,0)"/>
<path style="fill-rule:nonzero;fill:rgb(96.078431%,80.784314%,0%);fill-opacity:1;stroke-width:0.831;stroke-linecap:butt;stroke-linejoin:miter;stroke:rgb(0%,0%,0%);stroke-opacity:1;stroke-miterlimit:2.613;" d="M 784.505208 317.382812 C 784.505208 317.382812 786.946615 317.057292 786.946615 319.335938 C 786.946615 319.335938 786.783854 322.591146 782.877604 321.940104 C 782.877604 321.940104 778.808594 321.126302 780.273438 316.731771 C 780.273438 316.731771 781.25 313.476562 784.99349 313.964844 C 784.99349 313.964844 788.574219 314.127604 790.201823 319.173177 C 790.201823 319.173177 791.341146 323.242188 789.22526 326.822917 C 786.946615 330.891927 781.08724 333.496094 778.320312 334.635417 C 778.320312 334.635417 766.927083 339.029948 763.509115 341.634115 C 763.509115 341.634115 758.300781 345.540365 760.579427 349.121094 C 760.579427 349.121094 761.55599 350.423177 762.858073 350.423177 C 762.858073 350.423177 764.322917 350.585938 764.648438 348.958333 C 764.648438 348.958333 764.485677 348.958333 764.485677 348.958333 C 764.485677 348.958333 764.485677 349.934896 763.671875 350.260417 C 763.671875 350.260417 762.532552 350.748698 761.393229 349.772135 C 761.393229 349.772135 760.091146 348.632812 761.230469 346.842448 C 761.230469 346.842448 762.532552 344.563802 765.625 345.865885 C 765.625 345.865885 768.391927 347.330729 767.252604 350.260417 C 767.252604 350.260417 766.276042 352.864583 762.858073 352.864583 C 762.858073 352.864583 760.416667 352.864583 758.789062 351.074219 C 756.347656 348.470052 756.184896 343.424479 758.300781 340.820312 C 758.300781 340.820312 760.416667 337.890625 764.648438 336.263021 C 767.089844 335.286458 771.647135 333.170573 776.367188 331.380208 C 779.785156 330.078125 782.877604 328.450521 784.830729 326.171875 C 784.830729 326.171875 786.621094 324.21875 787.109375 320.800781 C 787.109375 320.800781 787.597656 318.196615 786.132812 317.708333 C 786.132812 317.708333 785.31901 317.220052 784.342448 317.382812 C 784.342448 317.382812 784.342448 317.545573 784.505208 317.382812 Z M 784.505208 317.382812 " transform="matrix(0.024,0,0,0.024,0,0)"/>
<path style="fill:none;stroke-width:0.831;stroke-linecap:butt;stroke-linejoin:miter;stroke:rgb(0%,0%,0%);stroke-opacity:1;stroke-miterlimit:2.613;" d="M 784.667969 317.382812 C 784.667969 317.382812 787.434896 316.894531 789.22526 320.3125 C 789.22526 320.3125 790.201823 322.428385 790.364583 323.567708 M 791.341146 311.848958 C 791.341146 311.848958 788.411458 312.33724 789.876302 316.24349 C 791.341146 319.986979 793.782552 321.126302 794.596354 321.614583 " transform="matrix(0.024,0,0,0.024,0,0)"/>
<path style="fill-rule:nonzero;fill:rgb(96.078431%,80.784314%,0%);fill-opacity:1;stroke-width:0.831;stroke-linecap:butt;stroke-linejoin:miter;stroke:rgb(0%,0%,0%);stroke-opacity:1;stroke-miterlimit:2.613;" d="M 736.653646 203.450521 C 736.653646 203.450521 736.816406 204.589844 737.955729 204.752604 C 737.955729 204.752604 739.095052 205.078125 739.746094 203.613281 C 739.746094 203.613281 739.908854 203.28776 739.908854 203.125 C 739.908854 202.473958 740.234375 200.520833 738.11849 198.893229 C 738.11849 198.893229 734.53776 196.126302 728.027344 199.544271 C 728.027344 199.544271 722.81901 201.985677 719.075521 204.101562 C 719.075521 204.101562 709.798177 209.147135 708.658854 209.472656 C 708.658854 209.472656 704.589844 211.588542 698.242188 211.914062 C 698.242188 211.914062 689.615885 212.565104 686.035156 206.542969 C 686.035156 206.542969 683.268229 201.822917 686.035156 198.893229 C 686.035156 198.893229 687.174479 197.591146 688.964844 197.916667 C 689.778646 197.916667 690.592448 198.404948 691.40625 199.38151 C 691.40625 199.38151 692.871094 201.334635 691.24349 202.636719 C 691.24349 202.636719 689.290365 203.938802 688.476562 201.334635 C 688.476562 201.334635 688.476562 201.171875 688.476562 201.334635 C 688.313802 201.497396 687.825521 203.450521 688.964844 205.240885 C 688.964844 205.240885 694.173177 213.053385 708.496094 204.915365 L 727.213542 194.335938 C 727.213542 194.335938 736.653646 189.615885 742.35026 197.102865 C 742.35026 197.102865 746.907552 203.450521 741.048177 207.519531 C 741.048177 207.519531 736.653646 210.123698 733.886719 205.891927 C 733.886719 205.891927 731.608073 201.822917 735.188802 200.032552 C 735.188802 200.032552 738.44401 198.567708 739.583333 201.822917 C 740.885417 204.915365 737.141927 205.729167 736.816406 203.450521 C 736.816406 203.450521 736.816406 202.96224 736.653646 203.450521 Z M 690.592448 275.065104 C 698.893229 270.507812 700.683594 259.928385 700.683594 259.928385 C 702.799479 249.511719 698.730469 241.373698 698.730469 241.373698 C 693.359375 229.980469 684.082031 227.864583 684.082031 227.864583 C 684.082031 227.864583 693.033854 234.049479 695.638021 242.513021 C 695.638021 242.513021 697.591146 249.674479 696.451823 256.673177 C 695.3125 263.671875 695.800781 261.88151 694.010417 267.252604 Z M 690.592448 275.065104 " transform="matrix(0.024,0,0,0.024,0,0)"/>
<path style="fill:none;stroke-width:0.831;stroke-linecap:butt;stroke-linejoin:miter;stroke:rgb(0%,0%,0%);stroke-opacity:1;stroke-miterlimit:2.613;" d="M 732.421875 195.14974 C 732.421875 195.14974 740.234375 194.824219 739.908854 202.799479 " transform="matrix(0.024,0,0,0.024,0,0)"/>
<path style="fill-rule:nonzero;fill:rgb(96.078431%,80.784314%,0%);fill-opacity:1;stroke-width:0.831;stroke-linecap:butt;stroke-linejoin:miter;stroke:rgb(0%,0%,0%);stroke-opacity:1;stroke-miterlimit:2.613;" d="M 681.315104 280.598958 C 694.824219 276.367188 698.567708 261.88151 698.567708 261.88151 C 701.334635 250.976562 696.940104 241.536458 696.940104 241.536458 C 690.755208 227.050781 680.338542 227.050781 680.338542 227.050781 C 675.130208 226.888021 674.479167 231.282552 674.479167 231.282552 C 673.990885 234.53776 676.106771 235.677083 676.106771 235.677083 C 679.6875 237.630208 681.966146 235.026042 681.966146 235.026042 C 683.43099 233.072917 682.291667 231.282552 682.291667 231.282552 C 681.477865 229.980469 679.6875 230.63151 679.6875 230.63151 C 678.222656 230.957031 678.385417 232.747396 678.385417 232.747396 C 678.385417 232.747396 678.059896 230.63151 680.175781 230.46875 C 680.175781 230.46875 684.244792 229.492188 688.964844 235.514323 C 688.964844 235.514323 695.14974 243.489583 695.14974 253.90625 C 695.14974 253.90625 695.963542 273.27474 675.78125 278.320312 C 675.78125 278.320312 677.897135 281.575521 681.803385 292.96875 C 681.803385 292.96875 686.197917 307.617188 690.429688 315.429688 C 690.429688 315.429688 695.963542 326.822917 708.333333 322.102865 C 708.333333 322.102865 715.820312 318.847656 715.820312 313.476562 C 715.820312 313.476562 716.308594 308.59375 711.914062 308.268229 C 711.914062 308.268229 707.519531 307.942708 707.519531 311.686198 C 707.519531 311.686198 707.356771 315.755208 712.239583 314.778646 C 712.239583 314.778646 713.867188 314.453125 713.541667 312.825521 C 713.541667 312.825521 713.216146 311.360677 711.263021 312.011719 C 711.263021 312.011719 711.10026 311.848958 711.263021 311.848958 C 711.263021 311.848958 712.076823 311.523438 712.890625 311.848958 C 712.890625 311.848958 713.541667 312.011719 713.541667 313.151042 C 713.541667 313.151042 713.704427 314.127604 712.727865 314.615885 C 712.727865 314.615885 711.425781 315.104167 710.611979 314.941406 C 710.611979 314.941406 709.309896 317.545573 706.380208 318.359375 C 702.473958 319.498698 699.21875 318.359375 697.265625 316.894531 C 694.986979 315.104167 693.684896 312.011719 693.196615 311.360677 C 692.871094 310.546875 689.127604 302.408854 686.360677 293.619792 C 686.360677 293.619792 684.082031 286.132812 682.128906 282.063802 Z M 681.315104 280.598958 " transform="matrix(0.024,0,0,0.024,0,0)"/>
<path style="fill-rule:nonzero;fill:rgb(96.078431%,80.784314%,0%);fill-opacity:1;stroke-width:0.831;stroke-linecap:butt;stroke-linejoin:miter;stroke:rgb(0%,0%,0%);stroke-opacity:1;stroke-miterlimit:2.613;" d="M 719.401042 317.382812 C 719.401042 317.382812 716.959635 317.057292 716.959635 319.335938 C 716.959635 319.335938 717.122396 322.591146 721.191406 321.940104 C 721.191406 321.940104 725.097656 321.126302 723.632812 316.731771 C 723.632812 316.731771 722.65625 313.476562 718.91276 313.964844 C 718.91276 313.964844 715.332031 314.127604 713.704427 319.173177 C 713.704427 319.173177 712.565104 323.242188 714.68099 326.822917 C 716.959635 330.891927 722.81901 333.496094 725.748698 334.635417 C 725.748698 334.635417 736.979167 339.029948 740.397135 341.634115 C 740.397135 341.634115 745.605469 345.540365 743.326823 349.121094 C 743.326823 349.121094 742.35026 350.423177 741.048177 350.423177 C 741.048177 350.423177 739.583333 350.585938 739.257812 348.958333 C 739.257812 348.958333 739.420573 348.958333 739.420573 348.958333 C 739.420573 348.958333 739.420573 349.934896 740.234375 350.260417 C 740.234375 350.260417 741.373698 350.748698 742.513021 349.772135 C 742.513021 349.772135 743.815104 348.632812 742.838542 346.842448 C 742.838542 346.842448 741.373698 344.563802 738.28125 345.865885 C 738.28125 345.865885 735.514323 347.330729 736.653646 350.260417 C 736.653646 350.260417 737.630208 352.864583 741.048177 352.864583 C 741.048177 352.864583 743.489583 352.864583 745.117188 351.074219 C 747.558594 348.470052 747.721354 343.424479 745.605469 340.820312 C 745.605469 340.820312 743.489583 337.890625 739.257812 336.263021 C 736.816406 335.286458 732.259115 333.170573 727.539062 331.380208 C 724.121094 330.078125 721.028646 328.450521 719.075521 326.171875 C 719.075521 326.171875 717.285156 324.21875 716.796875 320.800781 C 716.796875 320.800781 716.308594 318.196615 717.773438 317.708333 C 717.773438 317.708333 718.58724 317.220052 719.563802 317.382812 C 719.563802 317.382812 719.563802 317.545573 719.401042 317.382812 Z M 719.401042 317.382812 " transform="matrix(0.024,0,0,0.024,0,0)"/>
<path style="fill:none;stroke-width:0.831;stroke-linecap:butt;stroke-linejoin:miter;stroke:rgb(0%,0%,0%);stroke-opacity:1;stroke-miterlimit:2.613;" d="M 719.238281 317.382812 C 719.238281 317.382812 716.471354 316.894531 714.68099 320.3125 C 714.68099 320.3125 713.704427 322.428385 713.541667 323.567708 M 712.565104 311.848958 C 712.565104 311.848958 715.494792 312.33724 714.029948 316.24349 C 712.565104 319.986979 710.123698 321.126302 709.309896 321.614583 M 745.279948 202.311198 C 745.279948 202.311198 751.953125 198.079427 758.789062 202.799479 " transform="matrix(0.024,0,0,0.024,0,0)"/>
<path style="fill:none;stroke-width:0.623;stroke-linecap:butt;stroke-linejoin:miter;stroke:rgb(0%,0%,0%);stroke-opacity:1;stroke-miterlimit:2.613;" d="M 706.86849 243.652344 C 706.86849 243.652344 707.682292 239.908854 703.450521 233.235677 C 703.450521 233.235677 700.683594 227.213542 699.05599 223.470052 M 708.821615 219.238281 C 708.821615 219.238281 711.263021 225.260417 712.076823 227.864583 C 712.076823 227.864583 715.169271 235.351562 715.820312 236.816406 " transform="matrix(0.024,0,0,0.024,0,0)"/>
<path style="fill:none;stroke-width:0.623;stroke-linecap:butt;stroke-linejoin:miter;stroke:rgb(0%,0%,0%);stroke-opacity:1;stroke-miterlimit:10;" d="M 710.123698 247.884115 C 710.123698 247.884115 712.565104 250.488281 712.239583 255.208333 M 701.660156 244.954427 C 701.660156 244.954427 704.427083 246.25651 704.264323 253.74349 C 704.264323 253.74349 703.938802 259.114583 708.170573 261.88151 M 701.334635 263.834635 C 701.334635 263.834635 710.123698 262.858073 710.611979 268.229167 C 710.611979 268.229167 710.77474 273.4375 713.704427 273.925781 C 713.704427 273.925781 718.261719 274.414062 719.075521 278.483073 M 704.101562 269.69401 C 704.101562 269.69401 705.566406 272.135417 707.03125 273.111979 M 715.332031 263.997396 C 715.332031 263.997396 717.610677 267.415365 717.936198 269.36849 M 724.934896 223.470052 C 724.934896 223.470052 727.050781 226.236979 729.003906 227.539062 M 733.235677 239.908854 C 733.235677 239.908854 737.467448 242.02474 736.816406 253.092448 C 736.816406 253.092448 736.165365 259.602865 738.11849 263.020833 " transform="matrix(0.024,0,0,0.024,0,0)"/>
<path style="fill-rule:nonzero;fill:rgb(47.058824%,26.666667%,12.941176%);fill-opacity:1;stroke-width:0.623;stroke-linecap:butt;stroke-linejoin:miter;stroke:rgb(0%,0%,0%);stroke-opacity:1;stroke-miterlimit:4;" d="M 712.565104 232.421875 L 712.890625 233.561198 C 712.890625 233.561198 720.703125 233.886719 724.934896 228.515625 L 724.446615 227.539062 C 724.446615 227.539062 717.610677 227.213542 712.565104 232.421875 Z M 712.565104 232.421875 " transform="matrix(0.024,0,0,0.024,0,0)"/>
<path style="fill:none;stroke-width:0.623;stroke-linecap:butt;stroke-linejoin:miter;stroke:rgb(0%,0%,0%);stroke-opacity:1;stroke-miterlimit:10;" d="M 740.885417 274.414062 C 740.885417 274.414062 767.903646 266.438802 778.320312 261.71875 " transform="matrix(0.024,0,0,0.024,0,0)"/>
<path style="fill-rule:nonzero;fill:rgb(47.058824%,26.666667%,12.941176%);fill-opacity:1;stroke-width:0.38;stroke-linecap:butt;stroke-linejoin:miter;stroke:rgb(0%,0%,0%);stroke-opacity:1;stroke-miterlimit:4;" d="M 737.630208 223.632812 L 750.976562 218.58724 L 751.302083 219.563802 L 737.955729 224.609375 Z M 737.630208 223.632812 " transform="matrix(0.024,0,0,0.024,0,0)"/>
<path style="fill:none;stroke-width:0.623;stroke-linecap:butt;stroke-linejoin:miter;stroke:rgb(0%,0%,0%);stroke-opacity:1;stroke-miterlimit:10;" d="M 739.095052 224.121094 L 747.884115 267.740885 M 740.559896 223.632812 L 750.813802 266.927083 M 742.35026 222.981771 L 753.417969 265.950521 M 746.744792 221.191406 L 761.88151 253.580729 M 748.697917 220.540365 L 764.811198 252.604167 M 750.16276 219.889323 L 767.578125 251.627604 M 747.395833 268.066406 L 754.231771 265.78776 M 742.1875 263.671875 C 742.1875 263.671875 762.207031 257.8125 777.50651 251.627604 M 741.861979 265.950521 C 741.861979 265.950521 767.415365 259.114583 777.50651 254.231771 M 749.674479 286.621094 L 750.976562 290.690104 L 754.557292 289.550781 L 753.417969 285.481771 M 759.928385 283.691406 L 761.230469 287.760417 L 764.973958 286.621094 L 763.671875 282.552083 M 742.675781 259.602865 L 742.35026 254.06901 L 775.716146 243.977865 L 777.50651 248.535156 M 756.510417 249.83724 L 758.300781 254.720052 M 768.229167 246.25651 L 770.345052 250.813802 M 770.996094 245.442708 L 772.949219 249.83724 M 773.60026 244.628906 L 775.716146 249.186198 M 775.716146 243.977865 L 779.459635 241.861979 L 780.924479 245.93099 M 777.50651 242.838542 L 779.459635 247.070312 " transform="matrix(0.024,0,0,0.024,0,0)"/>
<path style="fill:none;stroke-width:0.831;stroke-linecap:butt;stroke-linejoin:miter;stroke:rgb(0.392157%,12.941176%,41.176471%);stroke-opacity:1;stroke-miterlimit:10;" d="M 694.661458 306.477865 C 694.661458 306.477865 688.151042 299.967448 694.661458 293.457031 C 694.661458 293.457031 687.5 289.876302 688.639323 284.342448 M 706.380208 311.848958 C 706.380208 311.848958 699.544271 312.66276 701.497396 299.479167 C 701.497396 299.479167 698.730469 304.6875 697.753906 307.454427 C 697.102865 309.407552 697.591146 312.66276 700.358073 314.453125 C 701.497396 315.104167 707.682292 316.731771 709.635417 312.66276 M 698.730469 291.666667 C 698.730469 291.666667 695.963542 294.108073 697.916667 298.828125 M 701.660156 292.154948 C 701.660156 292.154948 701.985677 296.71224 704.101562 299.316406 M 703.613281 290.364583 C 703.613281 290.364583 703.450521 295.735677 707.356771 298.990885 M 705.403646 288.574219 C 705.403646 288.574219 705.566406 294.596354 709.960938 298.177083 M 727.539062 297.363281 C 727.539062 297.363281 729.817708 292.480469 734.53776 292.643229 C 734.53776 292.643229 732.096354 293.782552 732.259115 296.061198 C 732.259115 296.061198 731.933594 299.804688 736.002604 300.130208 C 736.002604 300.130208 739.257812 300.61849 740.885417 298.828125 " transform="matrix(0.024,0,0,0.024,0,0)"/>
<path style="fill:none;stroke-width:0.831;stroke-linecap:butt;stroke-linejoin:miter;stroke:rgb(0.392157%,12.941176%,41.176471%);stroke-opacity:1;stroke-miterlimit:10;" d="M 738.606771 319.661458 C 738.606771 319.661458 727.050781 314.290365 728.190104 306.315104 C 728.190104 306.315104 728.678385 301.595052 733.398438 299.316406 M 730.957031 304.361979 C 730.957031 304.361979 729.980469 307.779948 732.259115 310.058594 M 733.561198 302.083333 C 733.561198 302.083333 732.096354 305.664062 734.53776 308.43099 M 736.328125 300.130208 C 736.328125 300.130208 734.700521 303.222656 736.653646 305.989583 M 725.748698 320.47526 C 725.748698 320.47526 732.096354 326.009115 737.141927 326.009115 M 723.795573 322.265625 C 723.795573 322.265625 729.654948 327.148438 733.398438 327.799479 M 721.516927 323.567708 C 721.516927 323.567708 728.841146 330.078125 733.398438 330.566406 M 751.302083 336.425781 C 751.302083 336.425781 744.140625 340.332031 749.674479 344.563802 M 746.744792 332.19401 C 746.744792 332.19401 755.045573 327.96224 758.463542 326.334635 M 749.674479 334.472656 C 749.674479 334.472656 761.55599 327.148438 765.136719 325.683594 M 755.859375 334.960938 C 755.859375 334.960938 765.950521 328.125 771.321615 325.195312 M 762.532552 334.635417 C 762.532552 334.635417 769.53125 329.264323 776.204427 325.195312 M 778.645833 318.359375 C 778.645833 318.359375 775.227865 313.476562 763.997396 318.359375 C 763.997396 318.359375 768.066406 314.615885 776.204427 311.848958 M 787.434896 290.364583 C 787.434896 290.364583 788.411458 294.433594 787.434896 296.875 " transform="matrix(0.024,0,0,0.024,0,0)"/>
<path style="fill:none;stroke-width:0.831;stroke-linecap:butt;stroke-linejoin:miter;stroke:rgb(0.392157%,12.941176%,41.176471%);stroke-opacity:1;stroke-miterlimit:10;" d="M 769.36849 309.895833 C 769.36849 309.895833 771.647135 306.477865 777.669271 304.85026 C 777.669271 304.85026 779.134115 308.75651 783.854167 307.942708 C 783.854167 307.942708 790.690104 306.640625 788.736979 298.990885 C 788.736979 298.990885 787.272135 293.294271 779.296875 292.643229 M 802.897135 283.040365 C 802.897135 283.040365 811.035156 284.505208 810.872396 291.178385 C 810.872396 291.178385 811.523438 301.106771 801.106771 303.059896 M 809.733073 287.109375 C 809.733073 287.109375 812.011719 282.389323 816.894531 280.436198 M 810.872396 277.50651 C 810.872396 277.50651 813.151042 281.08724 814.615885 281.575521 M 809.733073 280.436198 C 809.733073 280.436198 811.848958 282.877604 812.5 283.365885 M 809.082031 282.877604 C 809.082031 282.877604 810.058594 284.505208 811.035156 284.99349 M 767.415365 244.628906 C 767.415365 244.628906 769.042969 242.02474 772.949219 243.164062 M 788.89974 263.671875 C 788.89974 263.671875 791.341146 253.417969 799.967448 257.161458 M 796.549479 256.347656 C 796.549479 256.347656 797.363281 251.627604 795.247396 249.186198 M 790.690104 256.022135 C 790.690104 256.022135 791.666667 257.97526 790.852865 259.602865 " transform="matrix(0.024,0,0,0.024,0,0)"/>
<path style="fill-rule:nonzero;fill:rgb(39.215686%,70.588235%,81.960784%);fill-opacity:1;stroke-width:0.623;stroke-linecap:butt;stroke-linejoin:miter;stroke:rgb(0.392157%,12.941176%,41.176471%);stroke-opacity:1;stroke-miterlimit:2.613;" d="M 808.268229 361.490885 C 808.268229 361.490885 817.871094 357.096354 814.941406 349.609375 C 814.941406 349.609375 813.964844 347.005208 811.848958 347.167969 C 811.848958 347.167969 808.105469 347.49349 808.919271 352.376302 C 808.919271 352.376302 809.895833 357.259115 808.268229 361.490885 Z M 808.268229 361.490885 " transform="matrix(0.024,0,0,0.024,0,0)"/>
<path style=" stroke:none;fill-rule:nonzero;fill:rgb(100%,100%,100%);fill-opacity:1;" d="M 19.480469 8.570312 C 19.480469 8.570312 19.53125 8.519531 19.523438 8.433594 C 19.523438 8.433594 19.523438 8.414062 19.53125 8.410156 C 19.53125 8.410156 19.542969 8.40625 19.542969 8.429688 C 19.542969 8.429688 19.558594 8.519531 19.496094 8.574219 C 19.496094 8.574219 19.492188 8.578125 19.484375 8.578125 C 19.484375 8.578125 19.476562 8.578125 19.480469 8.570312 Z M 19.480469 8.570312 "/>
<path style="fill-rule:nonzero;fill:rgb(39.215686%,70.588235%,81.960784%);fill-opacity:1;stroke-width:0.623;stroke-linecap:butt;stroke-linejoin:miter;stroke:rgb(0.392157%,12.941176%,41.176471%);stroke-opacity:1;stroke-miterlimit:2.613;" d="M 822.102865 354.817708 C 822.102865 354.817708 828.776042 350.423177 825.195312 343.261719 C 825.195312 343.261719 824.05599 341.145833 822.102865 341.634115 C 822.102865 341.634115 817.708333 342.936198 821.126302 348.795573 C 821.126302 348.795573 822.753906 352.701823 822.102865 354.817708 Z M 822.102865 354.817708 " transform="matrix(0.024,0,0,0.024,0,0)"/>
<path style=" stroke:none;fill-rule:nonzero;fill:rgb(100%,100%,100%);fill-opacity:1;" d="M 19.769531 8.28125 C 19.769531 8.28125 19.761719 8.269531 19.765625 8.261719 C 19.765625 8.261719 19.769531 8.257812 19.78125 8.269531 C 19.78125 8.269531 19.832031 8.328125 19.792969 8.410156 C 19.792969 8.410156 19.785156 8.421875 19.777344 8.417969 C 19.777344 8.417969 19.773438 8.417969 19.777344 8.40625 C 19.777344 8.40625 19.8125 8.335938 19.769531 8.28125 Z M 19.769531 8.28125 "/>
<path style="fill-rule:nonzero;fill:rgb(39.215686%,70.588235%,81.960784%);fill-opacity:1;stroke-width:0.623;stroke-linecap:butt;stroke-linejoin:miter;stroke:rgb(0.392157%,12.941176%,41.176471%);stroke-opacity:1;stroke-miterlimit:2.613;" d="M 801.595052 359.700521 C 801.595052 359.700521 793.945312 357.747396 795.410156 349.934896 C 795.410156 349.934896 796.061198 346.516927 799.316406 346.842448 C 799.316406 346.842448 803.222656 347.981771 800.78125 352.864583 C 800.78125 352.864583 799.153646 356.445312 801.595052 359.700521 Z M 801.595052 359.700521 " transform="matrix(0.024,0,0,0.024,0,0)"/>
<path style=" stroke:none;fill-rule:nonzero;fill:rgb(100%,100%,100%);fill-opacity:1;" d="M 19.167969 8.40625 C 19.167969 8.40625 19.160156 8.398438 19.167969 8.394531 C 19.167969 8.394531 19.175781 8.390625 19.183594 8.402344 C 19.183594 8.402344 19.203125 8.429688 19.183594 8.472656 C 19.183594 8.472656 19.171875 8.5 19.175781 8.53125 C 19.175781 8.53125 19.179688 8.539062 19.171875 8.542969 C 19.171875 8.542969 19.164062 8.539062 19.164062 8.53125 C 19.164062 8.53125 19.15625 8.503906 19.171875 8.476562 C 19.171875 8.476562 19.191406 8.429688 19.167969 8.40625 Z M 19.167969 8.40625 "/>
<path style=" stroke:none;fill-rule:nonzero;fill:rgb(0%,0%,0%);fill-opacity:1;" d="M 19.371094 8.273438 C 19.371094 8.273438 19.472656 8.21875 19.558594 8.285156 C 19.558594 8.285156 19.550781 8.246094 19.484375 8.230469 C 19.484375 8.230469 19.449219 8.132812 19.351562 8.140625 C 19.351562 8.140625 19.390625 8.1875 19.445312 8.230469 C 19.445312 8.230469 19.386719 8.234375 19.371094 8.273438 Z M 19.445312 8.003906 C 19.445312 8.003906 19.515625 8.054688 19.542969 8.089844 C 19.542969 8.089844 19.574219 8.054688 19.609375 8.03125 C 19.609375 8.03125 19.566406 8.027344 19.542969 8.046875 C 19.542969 8.046875 19.507812 8.011719 19.445312 8.003906 Z M 19.445312 8.003906 "/>
<path style="fill:none;stroke-width:0.831;stroke-linecap:butt;stroke-linejoin:miter;stroke:rgb(0%,0%,0%);stroke-opacity:1;stroke-miterlimit:10;" d="M 793.294271 342.610677 C 793.294271 342.610677 792.96875 341.634115 793.782552 340.494792 C 793.782552 340.494792 794.270833 339.68099 794.108073 338.541667 M 824.707031 275.553385 C 824.707031 275.553385 829.264323 275.227865 829.915365 271.809896 M 837.890625 269.36849 C 837.890625 269.36849 836.263021 269.36849 834.960938 270.833333 C 834.960938 270.833333 833.821615 272.460938 832.19401 272.298177 " transform="matrix(0.024,0,0,0.024,0,0)"/>
<path style=" stroke:none;fill-rule:nonzero;fill:rgb(0%,0%,0%);fill-opacity:1;" d="M 19.628906 6.292969 C 19.628906 6.292969 19.6875 6.292969 19.71875 6.265625 C 19.71875 6.265625 19.75 6.242188 19.769531 6.277344 C 19.769531 6.277344 19.800781 6.332031 19.746094 6.351562 C 19.746094 6.351562 19.675781 6.386719 19.785156 6.457031 C 19.785156 6.457031 19.65625 6.410156 19.707031 6.347656 C 19.707031 6.347656 19.765625 6.304688 19.742188 6.292969 C 19.742188 6.292969 19.738281 6.277344 19.714844 6.292969 C 19.691406 6.308594 19.648438 6.304688 19.628906 6.292969 Z M 19.628906 6.292969 "/>
<path style="fill-rule:nonzero;fill:rgb(39.215686%,70.588235%,81.960784%);fill-opacity:1;stroke-width:0.623;stroke-linecap:butt;stroke-linejoin:miter;stroke:rgb(0.392157%,12.941176%,41.176471%);stroke-opacity:1;stroke-miterlimit:2.613;" d="M 821.126302 204.915365 C 821.126302 204.915365 822.265625 203.613281 821.777344 199.21875 C 821.289062 194.824219 825.195312 194.335938 826.497396 195.47526 C 826.497396 195.47526 828.125 196.777344 826.660156 199.707031 C 825.846354 201.171875 824.544271 203.28776 821.126302 204.915365 Z M 821.126302 204.915365 " transform="matrix(0.024,0,0,0.024,0,0)"/>
<path style=" stroke:none;fill-rule:nonzero;fill:rgb(100%,100%,100%);fill-opacity:1;" d="M 19.742188 4.839844 C 19.742188 4.839844 19.777344 4.804688 19.757812 4.726562 C 19.757812 4.726562 19.757812 4.71875 19.761719 4.714844 C 19.761719 4.714844 19.773438 4.714844 19.773438 4.722656 C 19.773438 4.722656 19.792969 4.808594 19.753906 4.855469 C 19.753906 4.855469 19.746094 4.859375 19.742188 4.855469 C 19.742188 4.851562 19.734375 4.847656 19.742188 4.839844 Z M 19.742188 4.839844 "/>
<path style="fill-rule:nonzero;fill:rgb(39.215686%,70.588235%,81.960784%);fill-opacity:1;stroke-width:0.623;stroke-linecap:butt;stroke-linejoin:miter;stroke:rgb(0.392157%,12.941176%,41.176471%);stroke-opacity:1;stroke-miterlimit:2.613;" d="M 819.986979 203.450521 C 819.986979 203.450521 819.824219 201.660156 816.731771 198.567708 C 813.802083 195.638021 816.24349 192.871094 818.033854 192.871094 C 818.033854 192.871094 819.986979 193.033854 820.638021 195.963542 C 821.126302 197.591146 821.451823 199.869792 819.986979 203.450521 Z M 819.986979 203.450521 " transform="matrix(0.024,0,0,0.024,0,0)"/>
<path style=" stroke:none;fill-rule:nonzero;fill:rgb(100%,100%,100%);fill-opacity:1;" d="M 19.667969 4.789062 C 19.667969 4.789062 19.667969 4.738281 19.601562 4.683594 C 19.601562 4.683594 19.597656 4.675781 19.601562 4.675781 C 19.601562 4.675781 19.605469 4.667969 19.609375 4.671875 C 19.609375 4.671875 19.683594 4.730469 19.683594 4.792969 C 19.683594 4.792969 19.683594 4.800781 19.675781 4.800781 C 19.675781 4.800781 19.667969 4.800781 19.667969 4.789062 Z M 19.667969 4.789062 "/>
<path style="fill-rule:nonzero;fill:rgb(39.215686%,70.588235%,81.960784%);fill-opacity:1;stroke-width:0.623;stroke-linecap:butt;stroke-linejoin:miter;stroke:rgb(0.392157%,12.941176%,41.176471%);stroke-opacity:1;stroke-miterlimit:2.613;" d="M 815.755208 202.148438 C 815.755208 202.148438 814.941406 200.683594 811.197917 199.38151 C 807.454427 197.916667 808.43099 194.661458 810.058594 194.010417 C 810.058594 194.010417 811.686198 193.196615 813.476562 195.47526 C 814.453125 196.777344 815.755208 198.567708 815.755208 202.148438 Z M 815.755208 202.148438 " transform="matrix(0.024,0,0,0.024,0,0)"/>
<path style=" stroke:none;fill-rule:nonzero;fill:rgb(100%,100%,100%);fill-opacity:1;" d="M 19.539062 4.785156 C 19.539062 4.785156 19.519531 4.738281 19.4375 4.71875 C 19.4375 4.71875 19.429688 4.714844 19.429688 4.710938 C 19.429688 4.710938 19.433594 4.703125 19.441406 4.703125 C 19.441406 4.703125 19.527344 4.726562 19.554688 4.78125 C 19.554688 4.78125 19.558594 4.789062 19.550781 4.792969 C 19.550781 4.792969 19.542969 4.792969 19.539062 4.785156 Z M 19.539062 4.785156 "/>
<path style="fill-rule:nonzero;fill:rgb(39.215686%,70.588235%,81.960784%);fill-opacity:1;stroke-width:0.623;stroke-linecap:butt;stroke-linejoin:miter;stroke:rgb(0.392157%,12.941176%,41.176471%);stroke-opacity:1;stroke-miterlimit:2.613;" d="M 818.196615 203.450521 C 818.196615 203.450521 816.40625 203.938802 812.33724 201.985677 C 808.268229 200.195312 806.640625 203.450521 807.291667 205.240885 C 807.291667 205.240885 808.105469 207.19401 811.197917 206.86849 C 812.988281 206.705729 815.266927 206.217448 818.196615 203.450521 Z M 818.196615 203.450521 " transform="matrix(0.024,0,0,0.024,0,0)"/>
<path style=" stroke:none;fill-rule:nonzero;fill:rgb(100%,100%,100%);fill-opacity:1;" d="M 19.410156 4.914062 C 19.410156 4.914062 19.453125 4.941406 19.535156 4.910156 C 19.535156 4.910156 19.542969 4.910156 19.542969 4.914062 C 19.542969 4.914062 19.546875 4.921875 19.539062 4.925781 C 19.539062 4.925781 19.453125 4.957031 19.402344 4.929688 C 19.402344 4.929688 19.390625 4.921875 19.398438 4.917969 C 19.398438 4.917969 19.402344 4.910156 19.410156 4.914062 Z M 19.410156 4.914062 "/>
<path style="fill:none;stroke-width:0.831;stroke-linecap:butt;stroke-linejoin:miter;stroke:rgb(0%,0%,0%);stroke-opacity:1;stroke-miterlimit:2.613;" d="M 812.33724 190.755208 C 812.33724 190.755208 814.290365 191.731771 813.802083 194.173177 " transform="matrix(0.024,0,0,0.024,0,0)"/>
<path style="fill:none;stroke-width:0.831;stroke-linecap:butt;stroke-linejoin:miter;stroke:rgb(0%,0%,0%);stroke-opacity:1;stroke-miterlimit:10;" d="M 821.126302 191.080729 C 821.126302 191.080729 821.940104 193.684896 821.126302 194.986979 " transform="matrix(0.024,0,0,0.024,0,0)"/>
<path style="fill-rule:nonzero;fill:rgb(39.215686%,70.588235%,81.960784%);fill-opacity:1;stroke-width:0.623;stroke-linecap:butt;stroke-linejoin:miter;stroke:rgb(0.392157%,12.941176%,41.176471%);stroke-opacity:1;stroke-miterlimit:2.613;" d="M 682.454427 204.915365 C 682.454427 204.915365 681.477865 203.613281 681.966146 199.21875 C 682.291667 194.824219 678.548177 194.335938 677.083333 195.47526 C 677.083333 195.47526 675.61849 196.777344 676.920573 199.707031 C 677.734375 201.171875 679.036458 203.28776 682.454427 204.915365 Z M 682.454427 204.915365 " transform="matrix(0.024,0,0,0.024,0,0)"/>
<path style=" stroke:none;fill-rule:nonzero;fill:rgb(100%,100%,100%);fill-opacity:1;" d="M 16.347656 4.839844 C 16.347656 4.839844 16.3125 4.804688 16.328125 4.726562 C 16.328125 4.726562 16.328125 4.71875 16.324219 4.714844 C 16.324219 4.714844 16.316406 4.714844 16.316406 4.722656 C 16.316406 4.722656 16.296875 4.808594 16.335938 4.855469 C 16.335938 4.855469 16.339844 4.859375 16.347656 4.855469 C 16.347656 4.851562 16.351562 4.847656 16.347656 4.839844 Z M 16.347656 4.839844 "/>
<path style="fill-rule:nonzero;fill:rgb(39.215686%,70.588235%,81.960784%);fill-opacity:1;stroke-width:0.623;stroke-linecap:butt;stroke-linejoin:miter;stroke:rgb(0.392157%,12.941176%,41.176471%);stroke-opacity:1;stroke-miterlimit:2.613;" d="M 683.75651 203.450521 C 683.75651 203.450521 683.919271 201.660156 686.848958 198.567708 C 689.941406 195.638021 687.5 192.871094 685.546875 192.871094 C 685.546875 192.871094 683.59375 193.033854 682.942708 195.963542 C 682.617188 197.591146 682.128906 199.869792 683.75651 203.450521 Z M 683.75651 203.450521 " transform="matrix(0.024,0,0,0.024,0,0)"/>
<path style=" stroke:none;fill-rule:nonzero;fill:rgb(100%,100%,100%);fill-opacity:1;" d="M 16.421875 4.789062 C 16.421875 4.789062 16.417969 4.738281 16.484375 4.683594 C 16.484375 4.683594 16.492188 4.675781 16.488281 4.675781 C 16.488281 4.675781 16.484375 4.667969 16.476562 4.671875 C 16.476562 4.671875 16.40625 4.730469 16.402344 4.792969 C 16.402344 4.792969 16.40625 4.800781 16.414062 4.800781 C 16.414062 4.800781 16.421875 4.800781 16.421875 4.789062 Z M 16.421875 4.789062 "/>
<path style="fill-rule:nonzero;fill:rgb(39.215686%,70.588235%,81.960784%);fill-opacity:1;stroke-width:0.623;stroke-linecap:butt;stroke-linejoin:miter;stroke:rgb(0.392157%,12.941176%,41.176471%);stroke-opacity:1;stroke-miterlimit:2.613;" d="M 687.825521 202.148438 C 687.825521 202.148438 688.639323 200.683594 692.382812 199.38151 C 696.126302 197.916667 695.14974 194.661458 693.522135 194.010417 C 693.522135 194.010417 691.894531 193.196615 690.104167 195.47526 C 689.127604 196.777344 687.988281 198.567708 687.825521 202.148438 Z M 687.825521 202.148438 " transform="matrix(0.024,0,0,0.024,0,0)"/>
<path style=" stroke:none;fill-rule:nonzero;fill:rgb(100%,100%,100%);fill-opacity:1;" d="M 16.546875 4.785156 C 16.546875 4.785156 16.570312 4.738281 16.652344 4.71875 C 16.652344 4.71875 16.660156 4.714844 16.65625 4.710938 C 16.65625 4.710938 16.65625 4.703125 16.648438 4.703125 C 16.648438 4.703125 16.558594 4.726562 16.53125 4.78125 C 16.53125 4.78125 16.527344 4.789062 16.535156 4.792969 C 16.535156 4.792969 16.542969 4.792969 16.546875 4.785156 Z M 16.546875 4.785156 "/>
<path style="fill-rule:nonzero;fill:rgb(39.215686%,70.588235%,81.960784%);fill-opacity:1;stroke-width:0.623;stroke-linecap:butt;stroke-linejoin:miter;stroke:rgb(0.392157%,12.941176%,41.176471%);stroke-opacity:1;stroke-miterlimit:2.613;" d="M 685.546875 203.450521 C 685.546875 203.450521 687.33724 203.938802 691.24349 201.985677 C 695.3125 200.195312 697.102865 203.450521 696.289062 205.240885 C 696.289062 205.240885 695.638021 207.19401 692.545573 206.86849 C 690.755208 206.705729 688.313802 206.217448 685.546875 203.450521 Z M 685.546875 203.450521 " transform="matrix(0.024,0,0,0.024,0,0)"/>
<path style=" stroke:none;fill-rule:nonzero;fill:rgb(100%,100%,100%);fill-opacity:1;" d="M 16.675781 4.914062 C 16.675781 4.914062 16.632812 4.941406 16.554688 4.910156 C 16.554688 4.910156 16.546875 4.910156 16.542969 4.914062 C 16.542969 4.914062 16.539062 4.921875 16.546875 4.925781 C 16.546875 4.925781 16.632812 4.957031 16.6875 4.929688 C 16.6875 4.929688 16.695312 4.921875 16.6875 4.917969 C 16.6875 4.917969 16.683594 4.910156 16.675781 4.914062 Z M 16.675781 4.914062 "/>
<path style="fill:none;stroke-width:0.831;stroke-linecap:butt;stroke-linejoin:miter;stroke:rgb(0%,0%,0%);stroke-opacity:1;stroke-miterlimit:2.613;" d="M 691.40625 190.755208 C 691.40625 190.755208 689.453125 191.731771 689.778646 194.173177 " transform="matrix(0.024,0,0,0.024,0,0)"/>
<path style="fill:none;stroke-width:0.831;stroke-linecap:butt;stroke-linejoin:miter;stroke:rgb(0%,0%,0%);stroke-opacity:1;stroke-miterlimit:10;" d="M 682.454427 191.080729 C 682.454427 191.080729 681.803385 193.684896 682.617188 194.986979 " transform="matrix(0.024,0,0,0.024,0,0)"/>
<path style=" stroke:none;fill-rule:nonzero;fill:rgb(0%,0%,0%);fill-opacity:1;" d="M 18.472656 4.039062 C 18.472656 4.039062 18.503906 4.125 18.492188 4.203125 C 18.480469 4.277344 18.496094 4.292969 18.519531 4.308594 C 18.542969 4.320312 18.59375 4.296875 18.601562 4.242188 C 18.601562 4.242188 18.660156 4.363281 18.542969 4.441406 C 18.542969 4.441406 18.457031 4.492188 18.386719 4.421875 C 18.363281 4.398438 18.351562 4.332031 18.363281 4.269531 C 18.363281 4.269531 18.382812 4.183594 18.351562 4.097656 C 18.351562 4.097656 18.398438 4.148438 18.386719 4.25 C 18.386719 4.25 18.363281 4.433594 18.496094 4.425781 C 18.496094 4.425781 18.59375 4.425781 18.59375 4.308594 C 18.59375 4.308594 18.558594 4.351562 18.515625 4.335938 C 18.484375 4.328125 18.457031 4.296875 18.460938 4.25 C 18.464844 4.199219 18.480469 4.113281 18.472656 4.039062 Z M 18.320312 4.339844 C 18.320312 4.339844 18.3125 4.488281 18.179688 4.523438 C 18.179688 4.523438 18.199219 4.496094 18.167969 4.421875 C 18.167969 4.421875 18.136719 4.378906 18.140625 4.316406 C 18.140625 4.316406 18.097656 4.347656 18.148438 4.4375 C 18.175781 4.488281 18.152344 4.550781 18.140625 4.554688 C 18.132812 4.554688 18.359375 4.523438 18.320312 4.339844 Z M 18.148438 4.195312 C 18.148438 4.195312 18.113281 4.160156 18.113281 4.078125 C 18.109375 3.992188 18.09375 3.972656 18.082031 3.960938 C 18.082031 3.960938 18.097656 4.035156 18.09375 4.078125 C 18.089844 4.125 18.097656 4.148438 18.105469 4.171875 C 18.105469 4.171875 18.03125 4.183594 17.984375 4.078125 C 17.941406 3.976562 17.898438 3.984375 17.875 3.984375 C 17.875 3.984375 17.902344 3.988281 17.953125 4.078125 C 18.003906 4.171875 18.019531 4.191406 18.148438 4.195312 Z M 17.808594 3.976562 C 17.808594 3.976562 17.847656 4.078125 17.851562 4.128906 C 17.851562 4.128906 17.753906 4.097656 17.726562 4.011719 C 17.726562 4.011719 17.625 4.050781 17.660156 4.167969 C 17.660156 4.167969 17.570312 4.136719 17.53125 4.0625 C 17.53125 4.0625 17.582031 4.101562 17.628906 4.117188 C 17.628906 4.117188 17.621094 4.023438 17.742188 3.984375 C 17.742188 3.984375 17.761719 4.070312 17.820312 4.09375 C 17.820312 4.09375 17.816406 4.039062 17.808594 3.976562 Z M 17.96875 3.804688 C 17.96875 3.804688 18 3.855469 18.070312 3.855469 C 18.101562 3.859375 18.136719 3.851562 18.171875 3.804688 C 18.171875 3.804688 18.167969 3.890625 18.070312 3.890625 C 18.070312 3.890625 17.96875 3.894531 17.96875 3.804688 Z M 17.542969 4.386719 C 17.542969 4.386719 17.59375 4.433594 17.605469 4.449219 C 17.605469 4.449219 17.640625 4.484375 17.671875 4.4375 C 17.671875 4.4375 17.710938 4.367188 17.757812 4.367188 C 17.757812 4.367188 17.726562 4.390625 17.6875 4.460938 C 17.6875 4.460938 17.675781 4.488281 17.648438 4.488281 C 17.632812 4.492188 17.617188 4.496094 17.59375 4.46875 C 17.59375 4.46875 17.570312 4.441406 17.542969 4.386719 Z M 18.070312 3.464844 C 17.96875 3.464844 18.054688 3.542969 18.054688 3.542969 C 18.054688 3.667969 17.953125 3.707031 17.886719 3.671875 C 17.816406 3.632812 17.871094 3.542969 17.871094 3.542969 C 17.871094 3.542969 17.792969 3.59375 17.84375 3.667969 C 17.894531 3.742188 18.023438 3.707031 18.070312 3.640625 C 18.117188 3.707031 18.246094 3.742188 18.296875 3.667969 C 18.34375 3.59375 18.269531 3.542969 18.269531 3.542969 C 18.269531 3.542969 18.320312 3.632812 18.253906 3.671875 C 18.183594 3.707031 18.082031 3.667969 18.085938 3.542969 C 18.085938 3.542969 18.171875 3.464844 18.070312 3.464844 Z M 18.132812 3.328125 C 18.132812 3.328125 18.167969 3.390625 18.160156 3.480469 C 18.160156 3.480469 18.191406 3.390625 18.132812 3.328125 Z M 17.816406 3.472656 C 17.816406 3.472656 17.808594 3.40625 17.746094 3.398438 C 17.746094 3.398438 17.800781 3.4375 17.816406 3.472656 Z M 18.324219 3.472656 C 18.324219 3.472656 18.332031 3.40625 18.394531 3.398438 C 18.394531 3.398438 18.339844 3.4375 18.324219 3.472656 Z M 17.714844 3.574219 C 17.714844 3.574219 17.765625 3.589844 17.796875 3.550781 C 17.796875 3.550781 17.738281 3.566406 17.714844 3.574219 Z M 17.546875 3.164062 C 17.546875 3.164062 17.609375 3.15625 17.667969 3.246094 C 17.667969 3.246094 17.609375 3.277344 17.59375 3.296875 C 17.59375 3.296875 17.59375 3.269531 17.621094 3.242188 C 17.621094 3.242188 17.613281 3.195312 17.546875 3.164062 Z M 18.550781 3.164062 C 18.550781 3.164062 18.492188 3.15625 18.433594 3.246094 C 18.433594 3.246094 18.492188 3.277344 18.507812 3.296875 C 18.507812 3.296875 18.507812 3.269531 18.476562 3.242188 C 18.476562 3.242188 18.488281 3.195312 18.550781 3.164062 Z M 18.089844 3.230469 C 18.089844 3.230469 18.144531 3.246094 18.210938 3.207031 C 18.210938 3.207031 18.292969 3.164062 18.347656 3.207031 C 18.347656 3.207031 18.300781 3.1875 18.210938 3.230469 C 18.210938 3.230469 18.121094 3.28125 18.089844 3.230469 Z M 18.089844 3.230469 "/>
<path style=" stroke:none;fill-rule:nonzero;fill:rgb(100%,100%,100%);fill-opacity:1;" d="M 18.144531 3.285156 C 18.144531 3.285156 18.191406 3.203125 18.332031 3.222656 C 18.332031 3.222656 18.292969 3.332031 18.144531 3.285156 Z M 18.144531 3.285156 "/>
<path style=" stroke:none;fill-rule:nonzero;fill:rgb(47.058824%,26.666667%,12.941176%);fill-opacity:1;" d="M 18.269531 3.261719 C 18.269531 3.242188 18.257812 3.226562 18.242188 3.226562 C 18.226562 3.226562 18.214844 3.242188 18.214844 3.261719 C 18.214844 3.28125 18.226562 3.296875 18.242188 3.296875 C 18.257812 3.296875 18.269531 3.28125 18.269531 3.261719 Z M 18.269531 3.261719 "/>
<path style=" stroke:none;fill-rule:nonzero;fill:rgb(0%,0%,0%);fill-opacity:1;" d="M 18.257812 3.261719 C 18.257812 3.25 18.25 3.238281 18.242188 3.238281 C 18.234375 3.238281 18.226562 3.25 18.226562 3.261719 C 18.226562 3.273438 18.234375 3.28125 18.242188 3.28125 C 18.25 3.28125 18.257812 3.273438 18.257812 3.261719 Z M 18.257812 3.261719 "/>
<path style=" stroke:none;fill-rule:nonzero;fill:rgb(0%,0%,0%);fill-opacity:1;" d="M 17.84375 3.113281 C 17.84375 3.113281 17.933594 3.117188 17.988281 3.152344 C 17.988281 3.152344 18.042969 3.1875 18.109375 3.136719 C 18.109375 3.136719 18.179688 3.097656 18.226562 3.042969 C 18.226562 3.042969 18.117188 3.117188 18.078125 3.128906 C 18.078125 3.128906 18.039062 3.097656 18.023438 3.058594 C 18.023438 3.058594 18.03125 3.027344 18.089844 2.972656 C 18.089844 2.972656 18.011719 2.996094 17.996094 3.0625 C 17.996094 3.0625 18.007812 3.101562 18.039062 3.132812 C 18.039062 3.132812 18.023438 3.140625 17.988281 3.117188 C 17.988281 3.117188 17.902344 3.089844 17.84375 3.113281 Z M 18.070312 3.644531 C 17.992188 3.710938 18.070312 3.703125 18.070312 3.703125 C 18.070312 3.703125 18.144531 3.710938 18.070312 3.644531 Z M 18.023438 3.230469 C 18.023438 3.230469 17.972656 3.246094 17.902344 3.207031 C 17.902344 3.207031 17.820312 3.164062 17.769531 3.207031 C 17.769531 3.207031 17.816406 3.1875 17.902344 3.230469 C 17.902344 3.230469 17.992188 3.28125 18.023438 3.230469 Z M 18.023438 3.230469 "/>
<path style=" stroke:none;fill-rule:nonzero;fill:rgb(100%,100%,100%);fill-opacity:1;" d="M 17.96875 3.285156 C 17.96875 3.285156 17.921875 3.203125 17.78125 3.222656 C 17.78125 3.222656 17.820312 3.332031 17.96875 3.285156 Z M 17.96875 3.285156 "/>
<path style=" stroke:none;fill-rule:nonzero;fill:rgb(47.058824%,26.666667%,12.941176%);fill-opacity:1;" d="M 17.898438 3.261719 C 17.898438 3.242188 17.886719 3.226562 17.871094 3.226562 C 17.855469 3.226562 17.84375 3.242188 17.84375 3.261719 C 17.84375 3.28125 17.855469 3.296875 17.871094 3.296875 C 17.886719 3.296875 17.898438 3.28125 17.898438 3.261719 Z M 17.898438 3.261719 "/>
<path style=" stroke:none;fill-rule:nonzero;fill:rgb(0%,0%,0%);fill-opacity:1;" d="M 17.890625 3.261719 C 17.890625 3.25 17.882812 3.238281 17.871094 3.238281 C 17.863281 3.238281 17.855469 3.25 17.855469 3.261719 C 17.855469 3.273438 17.863281 3.28125 17.871094 3.28125 C 17.882812 3.28125 17.890625 3.273438 17.890625 3.261719 Z M 17.890625 3.261719 "/>
<path style="fill:none;stroke-width:2;stroke-linecap:butt;stroke-linejoin:miter;stroke:rgb(0%,0%,0%);stroke-opacity:1;stroke-miterlimit:4;" d="M 865.722656 106.608073 L 865.722656 318.359375 C 865.722656 375 752.604167 393.391927 752.604167 393.391927 C 752.604167 393.391927 639.648438 375 639.648438 318.359375 L 639.648438 106.608073 Z M 865.722656 106.608073 " transform="matrix(0.024,0,0,0.024,0,0)"/>
</g>
</svg>
