<?xml version="1.0" encoding="UTF-8"?>
<svg xmlns="http://www.w3.org/2000/svg" xmlns:xlink="http://www.w3.org/1999/xlink" width="24px" height="24px" viewBox="0 0 24 12" version="1.1">
<g id="surface1">
<rect x="0" y="0" width="24" height="12" style="fill:rgb(96.862745%,87.843137%,9.019608%);fill-opacity:1;stroke:none;"/>
<path style=" stroke:none;fill-rule:nonzero;fill:rgb(100%,100%,100%);fill-opacity:1;" d="M 0 0.832031 L 0 6.167969 L 24 8.667969 L 24 5.832031 Z M 0 0.832031 "/>
<path style=" stroke:none;fill-rule:nonzero;fill:rgb(0%,0%,0%);fill-opacity:1;" d="M 0 3.667969 L 0 6.167969 L 24 11.167969 L 24 8.667969 Z M 0 3.667969 "/>
<path style=" stroke:none;fill-rule:nonzero;fill:rgb(81.176471%,6.666667%,14.901961%);fill-opacity:1;" d="M 11.59375 9.496094 C 11.273438 9.453125 10.976562 9.351562 10.773438 9.210938 C 10.730469 9.183594 10.695312 9.160156 10.6875 9.160156 C 10.683594 9.160156 10.675781 9.191406 10.675781 9.226562 C 10.675781 9.332031 10.636719 9.386719 10.527344 9.414062 C 10.425781 9.441406 10.269531 9.386719 10.140625 9.28125 C 10.011719 9.171875 9.859375 9.089844 9.730469 9.054688 C 9.625 9.027344 9.484375 9.035156 9.382812 9.066406 C 9.335938 9.082031 9.28125 9.105469 9.261719 9.117188 C 9.242188 9.128906 9.222656 9.136719 9.214844 9.136719 C 9.199219 9.136719 9.199219 9.023438 9.21875 8.988281 C 9.246094 8.9375 9.304688 8.890625 9.375 8.867188 C 9.414062 8.851562 9.441406 8.835938 9.441406 8.828125 C 9.441406 8.820312 9.429688 8.792969 9.414062 8.769531 C 9.367188 8.683594 9.386719 8.601562 9.472656 8.535156 C 9.558594 8.46875 9.703125 8.460938 9.832031 8.507812 C 9.867188 8.519531 9.894531 8.53125 9.898438 8.53125 C 9.917969 8.53125 9.90625 8.507812 9.859375 8.4375 C 9.804688 8.359375 9.796875 8.320312 9.800781 8.226562 C 9.8125 8.109375 9.90625 8.011719 10.027344 8.003906 C 10.125 7.996094 10.183594 8.027344 10.328125 8.164062 C 10.753906 8.570312 11.21875 8.796875 11.761719 8.855469 C 11.898438 8.871094 12.171875 8.863281 12.335938 8.839844 C 12.824219 8.765625 13.316406 8.519531 13.699219 8.160156 C 13.804688 8.058594 13.855469 8.03125 13.941406 8.03125 C 14.019531 8.03125 14.070312 8.058594 14.125 8.117188 C 14.175781 8.171875 14.191406 8.222656 14.1875 8.308594 C 14.183594 8.359375 14.175781 8.386719 14.144531 8.4375 C 14.097656 8.515625 14.105469 8.523438 14.199219 8.488281 C 14.324219 8.4375 14.476562 8.460938 14.5625 8.539062 C 14.636719 8.609375 14.640625 8.679688 14.585938 8.773438 C 14.5625 8.808594 14.546875 8.839844 14.546875 8.847656 C 14.546875 8.855469 14.5625 8.859375 14.640625 8.871094 C 14.738281 8.886719 14.796875 8.960938 14.796875 9.074219 C 14.796875 9.109375 14.792969 9.136719 14.785156 9.136719 C 14.78125 9.136719 14.742188 9.125 14.703125 9.105469 C 14.585938 9.058594 14.519531 9.046875 14.382812 9.046875 C 14.28125 9.046875 14.246094 9.054688 14.171875 9.078125 C 14.0625 9.113281 13.945312 9.183594 13.847656 9.269531 C 13.742188 9.363281 13.675781 9.394531 13.570312 9.390625 C 13.476562 9.390625 13.410156 9.363281 13.375 9.308594 C 13.355469 9.277344 13.355469 9.261719 13.359375 9.195312 C 13.363281 9.152344 13.359375 9.117188 13.355469 9.117188 C 13.355469 9.117188 13.316406 9.140625 13.273438 9.167969 C 13.164062 9.246094 13.09375 9.28125 12.964844 9.332031 C 12.578125 9.484375 12.023438 9.550781 11.59375 9.496094 Z M 11.59375 9.496094 "/>
<path style=" stroke:none;fill-rule:nonzero;fill:rgb(81.176471%,6.666667%,14.901961%);fill-opacity:1;" d="M 11.773438 8.753906 C 11.128906 8.691406 10.515625 8.355469 10.140625 7.824219 C 9.734375 7.269531 9.605469 6.539062 9.730469 5.871094 C 9.796875 5.566406 9.929688 5.261719 10.15625 5.046875 C 9.976562 5.429688 9.914062 5.867188 10.011719 6.285156 C 10.160156 7.113281 10.859375 7.816406 11.699219 7.9375 C 12.03125 8.03125 12.375 7.929688 12.691406 7.828125 C 13.390625 7.582031 13.921875 6.917969 13.988281 6.175781 C 14.042969 5.773438 13.980469 5.359375 13.800781 4.996094 C 13.902344 5.050781 14.035156 5.261719 14.109375 5.40625 C 14.375 5.921875 14.390625 6.542969 14.230469 7.09375 C 14.019531 7.796875 13.484375 8.410156 12.773438 8.632812 C 12.453125 8.738281 12.109375 8.769531 11.773438 8.753906 Z M 11.773438 8.753906 "/>
<path style=" stroke:none;fill-rule:nonzero;fill:rgb(81.176471%,6.666667%,14.901961%);fill-opacity:1;" d="M 8.535156 7.832031 C 8.492188 7.824219 8.445312 7.867188 8.460938 7.910156 C 8.492188 7.953125 8.542969 7.976562 8.589844 7.996094 C 8.703125 8.042969 8.828125 8.058594 8.949219 8.054688 C 8.90625 8.054688 8.964844 8.058594 8.980469 8.054688 C 9.074219 8.058594 9.171875 8.039062 9.261719 8.007812 C 9.3125 7.988281 9.375 7.972656 9.394531 7.917969 C 9.417969 7.882812 9.378906 7.84375 9.34375 7.851562 C 9.292969 7.863281 9.242188 7.886719 9.191406 7.898438 C 9.082031 7.929688 8.96875 7.941406 8.855469 7.933594 C 8.773438 7.921875 8.691406 7.898438 8.613281 7.863281 C 8.589844 7.851562 8.5625 7.835938 8.535156 7.832031 Z M 8.535156 7.832031 "/>
<path style=" stroke:none;fill-rule:nonzero;fill:rgb(81.176471%,6.666667%,14.901961%);fill-opacity:1;" d="M 8.582031 7.660156 C 8.539062 7.652344 8.5 7.703125 8.519531 7.742188 C 8.550781 7.789062 8.605469 7.8125 8.660156 7.835938 C 8.746094 7.871094 8.84375 7.886719 8.941406 7.882812 C 8.90625 7.882812 8.953125 7.882812 8.96875 7.882812 C 9.050781 7.882812 9.128906 7.867188 9.207031 7.835938 C 9.253906 7.816406 9.308594 7.800781 9.328125 7.75 C 9.34375 7.722656 9.332031 7.679688 9.296875 7.679688 C 9.265625 7.675781 9.238281 7.699219 9.207031 7.707031 C 9.097656 7.75 8.980469 7.769531 8.863281 7.761719 C 8.789062 7.75 8.722656 7.722656 8.65625 7.695312 C 8.628906 7.679688 8.609375 7.664062 8.582031 7.660156 Z M 8.582031 7.660156 "/>
<path style=" stroke:none;fill-rule:nonzero;fill:rgb(81.176471%,6.666667%,14.901961%);fill-opacity:1;" d="M 8.636719 7.492188 C 8.601562 7.488281 8.578125 7.53125 8.582031 7.5625 C 8.589844 7.589844 8.613281 7.609375 8.636719 7.628906 C 8.722656 7.695312 8.835938 7.722656 8.945312 7.71875 C 8.902344 7.71875 9.003906 7.71875 8.972656 7.71875 C 9.042969 7.71875 9.109375 7.699219 9.171875 7.671875 C 9.214844 7.652344 9.261719 7.632812 9.277344 7.585938 C 9.28125 7.5625 9.285156 7.53125 9.261719 7.519531 C 9.234375 7.503906 9.210938 7.527344 9.1875 7.535156 C 9.105469 7.574219 9.015625 7.597656 8.929688 7.597656 C 8.851562 7.601562 8.777344 7.566406 8.710938 7.53125 C 8.6875 7.519531 8.664062 7.5 8.636719 7.492188 Z M 8.636719 7.492188 "/>
<path style=" stroke:none;fill-rule:nonzero;fill:rgb(81.176471%,6.666667%,14.901961%);fill-opacity:1;" d="M 8.027344 5.046875 C 7.972656 5.097656 8.011719 5.199219 8.007812 5.269531 C 8.039062 5.488281 8.074219 5.710938 8.15625 5.917969 C 8.253906 6.121094 8.46875 6.226562 8.597656 6.40625 C 8.644531 6.492188 8.625 6.59375 8.636719 6.691406 C 8.644531 6.945312 8.640625 7.203125 8.636719 7.457031 C 8.753906 7.515625 8.878906 7.574219 9.011719 7.550781 C 9.089844 7.535156 9.238281 7.523438 9.253906 7.441406 C 9.246094 7 9.242188 6.558594 9.238281 6.117188 C 9.191406 5.984375 9.054688 5.914062 8.949219 5.824219 C 8.867188 5.742188 8.785156 5.652344 8.714844 5.558594 C 8.671875 5.484375 8.5 5.457031 8.5625 5.585938 C 8.597656 5.695312 8.691406 5.777344 8.714844 5.894531 C 8.71875 5.960938 8.796875 6.078125 8.730469 6.113281 C 8.6875 6.042969 8.628906 5.984375 8.550781 5.949219 C 8.476562 5.894531 8.355469 5.871094 8.328125 5.773438 C 8.308594 5.636719 8.238281 5.511719 8.148438 5.40625 C 8.171875 5.28125 8.148438 5.128906 8.039062 5.046875 Z M 8.027344 5.046875 "/>
<path style=" stroke:none;fill-rule:nonzero;fill:rgb(81.176471%,6.666667%,14.901961%);fill-opacity:1;" d="M 8.191406 5.070312 C 8.140625 5.078125 8.144531 5.140625 8.164062 5.171875 C 8.191406 5.246094 8.195312 5.324219 8.183594 5.398438 C 8.269531 5.5 8.339844 5.621094 8.359375 5.757812 C 8.359375 5.808594 8.414062 5.824219 8.449219 5.851562 C 8.53125 5.902344 8.621094 5.941406 8.691406 6.003906 C 8.707031 6.019531 8.71875 6.039062 8.710938 6.003906 C 8.699219 5.960938 8.691406 5.914062 8.660156 5.882812 C 8.613281 5.835938 8.554688 5.789062 8.488281 5.777344 C 8.484375 5.707031 8.453125 5.644531 8.421875 5.582031 C 8.386719 5.527344 8.351562 5.464844 8.296875 5.425781 C 8.296875 5.324219 8.296875 5.21875 8.253906 5.125 C 8.238281 5.101562 8.222656 5.070312 8.191406 5.070312 Z M 8.191406 5.070312 "/>
<path style=" stroke:none;fill-rule:nonzero;fill:rgb(81.176471%,6.666667%,14.901961%);fill-opacity:1;" d="M 8.328125 5.109375 C 8.292969 5.121094 8.300781 5.164062 8.3125 5.1875 C 8.328125 5.261719 8.332031 5.335938 8.328125 5.410156 C 8.394531 5.457031 8.433594 5.53125 8.46875 5.601562 C 8.492188 5.648438 8.511719 5.699219 8.519531 5.75 C 8.570312 5.765625 8.617188 5.796875 8.65625 5.835938 C 8.640625 5.785156 8.605469 5.75 8.582031 5.707031 C 8.554688 5.660156 8.53125 5.613281 8.519531 5.558594 C 8.472656 5.507812 8.445312 5.433594 8.453125 5.359375 C 8.457031 5.28125 8.429688 5.199219 8.378906 5.140625 C 8.363281 5.125 8.347656 5.113281 8.328125 5.109375 Z M 8.328125 5.109375 "/>
<path style=" stroke:none;fill-rule:nonzero;fill:rgb(81.176471%,6.666667%,14.901961%);fill-opacity:1;" d="M 8.484375 5.132812 C 8.46875 5.136719 8.457031 5.152344 8.445312 5.167969 C 8.441406 5.183594 8.460938 5.199219 8.460938 5.214844 C 8.484375 5.269531 8.492188 5.328125 8.484375 5.386719 C 8.484375 5.429688 8.5 5.46875 8.519531 5.507812 C 8.527344 5.480469 8.550781 5.460938 8.578125 5.457031 C 8.585938 5.457031 8.601562 5.460938 8.59375 5.445312 C 8.589844 5.367188 8.578125 5.289062 8.546875 5.210938 C 8.539062 5.183594 8.527344 5.15625 8.503906 5.136719 C 8.496094 5.136719 8.492188 5.132812 8.484375 5.132812 Z M 8.484375 5.132812 "/>
<path style=" stroke:none;fill-rule:nonzero;fill:rgb(81.176471%,6.666667%,14.901961%);fill-opacity:1;" d="M 15.464844 7.832031 C 15.507812 7.824219 15.554688 7.867188 15.539062 7.910156 C 15.507812 7.953125 15.457031 7.976562 15.410156 7.996094 C 15.296875 8.042969 15.171875 8.058594 15.050781 8.054688 C 15.09375 8.054688 15.035156 8.058594 15.019531 8.054688 C 14.925781 8.058594 14.828125 8.039062 14.738281 8.007812 C 14.6875 7.988281 14.625 7.972656 14.605469 7.917969 C 14.582031 7.882812 14.621094 7.84375 14.65625 7.851562 C 14.707031 7.863281 14.757812 7.886719 14.808594 7.898438 C 14.917969 7.929688 15.03125 7.941406 15.144531 7.933594 C 15.226562 7.921875 15.308594 7.898438 15.386719 7.863281 C 15.410156 7.851562 15.4375 7.835938 15.464844 7.832031 Z M 15.464844 7.832031 "/>
<path style=" stroke:none;fill-rule:nonzero;fill:rgb(81.176471%,6.666667%,14.901961%);fill-opacity:1;" d="M 15.417969 7.660156 C 15.460938 7.652344 15.5 7.703125 15.480469 7.742188 C 15.449219 7.789062 15.394531 7.8125 15.339844 7.835938 C 15.253906 7.871094 15.15625 7.886719 15.058594 7.882812 C 15.09375 7.882812 15.046875 7.882812 15.03125 7.882812 C 14.949219 7.882812 14.871094 7.867188 14.792969 7.835938 C 14.746094 7.816406 14.691406 7.800781 14.671875 7.75 C 14.65625 7.722656 14.667969 7.679688 14.703125 7.679688 C 14.734375 7.675781 14.761719 7.699219 14.792969 7.707031 C 14.902344 7.75 15.019531 7.769531 15.136719 7.761719 C 15.210938 7.75 15.277344 7.722656 15.34375 7.695312 C 15.371094 7.679688 15.390625 7.664062 15.417969 7.660156 Z M 15.417969 7.660156 "/>
<path style=" stroke:none;fill-rule:nonzero;fill:rgb(81.176471%,6.666667%,14.901961%);fill-opacity:1;" d="M 15.363281 7.492188 C 15.398438 7.488281 15.421875 7.53125 15.417969 7.5625 C 15.410156 7.589844 15.386719 7.609375 15.363281 7.628906 C 15.277344 7.695312 15.164062 7.722656 15.054688 7.71875 C 15.097656 7.71875 14.996094 7.71875 15.027344 7.71875 C 14.957031 7.71875 14.890625 7.699219 14.828125 7.671875 C 14.785156 7.652344 14.738281 7.632812 14.722656 7.585938 C 14.71875 7.5625 14.714844 7.53125 14.738281 7.519531 C 14.765625 7.503906 14.789062 7.527344 14.8125 7.535156 C 14.894531 7.574219 14.984375 7.597656 15.070312 7.597656 C 15.148438 7.601562 15.222656 7.566406 15.289062 7.53125 C 15.3125 7.519531 15.335938 7.5 15.363281 7.492188 Z M 15.363281 7.492188 "/>
<path style=" stroke:none;fill-rule:nonzero;fill:rgb(81.176471%,6.666667%,14.901961%);fill-opacity:1;" d="M 15.972656 5.046875 C 16.027344 5.097656 15.988281 5.199219 15.992188 5.269531 C 15.960938 5.488281 15.925781 5.710938 15.84375 5.917969 C 15.746094 6.121094 15.53125 6.226562 15.402344 6.40625 C 15.355469 6.492188 15.375 6.59375 15.363281 6.691406 C 15.355469 6.945312 15.359375 7.203125 15.363281 7.457031 C 15.246094 7.515625 15.121094 7.574219 14.988281 7.550781 C 14.910156 7.535156 14.761719 7.523438 14.746094 7.441406 C 14.753906 7 14.757812 6.558594 14.761719 6.117188 C 14.808594 5.984375 14.945312 5.914062 15.050781 5.824219 C 15.132812 5.742188 15.214844 5.652344 15.285156 5.558594 C 15.328125 5.484375 15.5 5.457031 15.4375 5.585938 C 15.402344 5.695312 15.308594 5.777344 15.285156 5.894531 C 15.28125 5.960938 15.203125 6.078125 15.269531 6.113281 C 15.3125 6.042969 15.371094 5.984375 15.449219 5.949219 C 15.523438 5.894531 15.644531 5.871094 15.671875 5.773438 C 15.691406 5.636719 15.761719 5.511719 15.851562 5.40625 C 15.828125 5.28125 15.851562 5.128906 15.960938 5.046875 Z M 15.972656 5.046875 "/>
<path style=" stroke:none;fill-rule:nonzero;fill:rgb(81.176471%,6.666667%,14.901961%);fill-opacity:1;" d="M 15.808594 5.070312 C 15.859375 5.078125 15.855469 5.140625 15.835938 5.171875 C 15.808594 5.246094 15.804688 5.324219 15.816406 5.398438 C 15.730469 5.5 15.660156 5.621094 15.640625 5.757812 C 15.640625 5.808594 15.585938 5.824219 15.550781 5.851562 C 15.46875 5.902344 15.378906 5.941406 15.308594 6.003906 C 15.292969 6.019531 15.28125 6.039062 15.289062 6.003906 C 15.300781 5.960938 15.308594 5.914062 15.339844 5.882812 C 15.386719 5.835938 15.445312 5.789062 15.511719 5.777344 C 15.515625 5.707031 15.546875 5.644531 15.578125 5.582031 C 15.613281 5.527344 15.648438 5.464844 15.703125 5.425781 C 15.703125 5.324219 15.703125 5.21875 15.746094 5.125 C 15.761719 5.101562 15.777344 5.070312 15.808594 5.070312 Z M 15.808594 5.070312 "/>
<path style=" stroke:none;fill-rule:nonzero;fill:rgb(81.176471%,6.666667%,14.901961%);fill-opacity:1;" d="M 15.671875 5.109375 C 15.707031 5.121094 15.699219 5.164062 15.6875 5.1875 C 15.671875 5.261719 15.667969 5.335938 15.671875 5.410156 C 15.605469 5.457031 15.566406 5.53125 15.53125 5.601562 C 15.507812 5.648438 15.488281 5.699219 15.480469 5.75 C 15.429688 5.765625 15.382812 5.796875 15.34375 5.835938 C 15.359375 5.785156 15.394531 5.75 15.417969 5.707031 C 15.445312 5.660156 15.46875 5.613281 15.480469 5.558594 C 15.527344 5.507812 15.554688 5.433594 15.546875 5.359375 C 15.542969 5.28125 15.570312 5.199219 15.621094 5.140625 C 15.636719 5.125 15.652344 5.113281 15.671875 5.109375 Z M 15.671875 5.109375 "/>
<path style=" stroke:none;fill-rule:nonzero;fill:rgb(81.176471%,6.666667%,14.901961%);fill-opacity:1;" d="M 15.515625 5.132812 C 15.53125 5.136719 15.542969 5.152344 15.554688 5.167969 C 15.558594 5.183594 15.539062 5.199219 15.539062 5.214844 C 15.515625 5.269531 15.507812 5.328125 15.515625 5.386719 C 15.515625 5.429688 15.5 5.46875 15.480469 5.507812 C 15.472656 5.480469 15.449219 5.460938 15.421875 5.457031 C 15.414062 5.457031 15.398438 5.460938 15.40625 5.445312 C 15.410156 5.367188 15.421875 5.289062 15.453125 5.210938 C 15.460938 5.183594 15.472656 5.15625 15.496094 5.136719 C 15.503906 5.136719 15.507812 5.132812 15.515625 5.132812 Z M 15.515625 5.132812 "/>
<path style=" stroke:none;fill-rule:nonzero;fill:rgb(81.176471%,6.666667%,14.901961%);fill-opacity:1;" d="M 11.929688 7.933594 C 11.703125 7.910156 11.5 7.746094 11.429688 7.53125 C 11.433594 7.496094 11.480469 7.554688 11.503906 7.558594 C 11.542969 7.582031 11.585938 7.597656 11.632812 7.601562 C 11.695312 7.628906 11.730469 7.6875 11.785156 7.714844 C 11.8125 7.738281 11.90625 7.777344 11.890625 7.710938 C 11.867188 7.679688 11.851562 7.632812 11.871094 7.597656 C 11.902344 7.527344 11.949219 7.464844 12 7.410156 C 12.035156 7.398438 12.058594 7.46875 12.085938 7.492188 C 12.121094 7.546875 12.164062 7.613281 12.140625 7.679688 C 12.121094 7.707031 12.109375 7.78125 12.164062 7.753906 C 12.230469 7.726562 12.285156 7.675781 12.339844 7.628906 C 12.390625 7.597656 12.453125 7.59375 12.503906 7.5625 C 12.527344 7.558594 12.574219 7.511719 12.585938 7.539062 C 12.558594 7.613281 12.511719 7.679688 12.460938 7.742188 C 12.378906 7.832031 12.269531 7.902344 12.148438 7.921875 C 12.074219 7.9375 12 7.9375 11.929688 7.933594 Z M 11.929688 7.933594 "/>
<path style=" stroke:none;fill-rule:nonzero;fill:rgb(81.176471%,6.666667%,14.901961%);fill-opacity:1;" d="M 12.191406 7.671875 C 12.195312 7.625 12.1875 7.578125 12.164062 7.539062 C 12.128906 7.464844 12.078125 7.402344 12.03125 7.339844 C 11.984375 7.3125 11.957031 7.398438 11.925781 7.425781 C 11.878906 7.496094 11.820312 7.570312 11.816406 7.660156 C 11.789062 7.699219 11.742188 7.625 11.71875 7.601562 C 11.679688 7.542969 11.648438 7.472656 11.652344 7.398438 C 11.648438 7.28125 11.667969 7.167969 11.710938 7.058594 C 11.746094 6.964844 11.796875 6.875 11.792969 6.773438 C 11.796875 6.695312 11.78125 6.609375 11.71875 6.558594 C 11.660156 6.511719 11.757812 6.503906 11.785156 6.527344 C 11.839844 6.53125 11.867188 6.617188 11.917969 6.597656 C 11.9375 6.550781 11.941406 6.496094 11.980469 6.460938 C 12.019531 6.40625 12.058594 6.484375 12.070312 6.519531 C 12.097656 6.550781 12.070312 6.628906 12.113281 6.628906 C 12.167969 6.59375 12.207031 6.53125 12.273438 6.515625 C 12.300781 6.5 12.351562 6.511719 12.3125 6.546875 C 12.261719 6.59375 12.21875 6.652344 12.210938 6.722656 C 12.195312 6.8125 12.21875 6.902344 12.253906 6.980469 C 12.328125 7.136719 12.386719 7.3125 12.347656 7.488281 C 12.332031 7.566406 12.28125 7.632812 12.214844 7.675781 C 12.207031 7.683594 12.195312 7.679688 12.191406 7.671875 Z M 12.191406 7.671875 "/>
<path style=" stroke:none;fill-rule:nonzero;fill:rgb(81.176471%,6.666667%,14.901961%);fill-opacity:1;" d="M 12.113281 6.492188 C 12.089844 6.449219 12.058594 6.40625 12.019531 6.378906 C 11.976562 6.378906 11.953125 6.425781 11.925781 6.453125 C 11.90625 6.488281 11.882812 6.546875 11.839844 6.5 C 11.765625 6.457031 11.75 6.363281 11.75 6.285156 C 11.746094 6.160156 11.796875 6.039062 11.84375 5.925781 C 11.871094 5.855469 11.863281 5.773438 11.847656 5.699219 C 11.824219 5.613281 11.757812 5.554688 11.703125 5.488281 C 11.707031 5.464844 11.773438 5.476562 11.800781 5.480469 C 11.855469 5.496094 11.890625 5.546875 11.929688 5.582031 C 11.960938 5.570312 11.949219 5.511719 11.960938 5.484375 C 11.964844 5.445312 12.015625 5.390625 12.039062 5.449219 C 12.070312 5.484375 12.039062 5.554688 12.078125 5.578125 C 12.121094 5.5625 12.140625 5.519531 12.175781 5.5 C 12.214844 5.472656 12.265625 5.472656 12.308594 5.492188 C 12.320312 5.527344 12.261719 5.558594 12.246094 5.589844 C 12.179688 5.675781 12.15625 5.789062 12.183594 5.894531 C 12.207031 5.972656 12.246094 6.050781 12.261719 6.132812 C 12.277344 6.226562 12.277344 6.328125 12.253906 6.417969 C 12.238281 6.476562 12.191406 6.511719 12.140625 6.535156 C 12.128906 6.523438 12.121094 6.507812 12.113281 6.492188 Z M 12.113281 6.492188 "/>
<path style=" stroke:none;fill-rule:nonzero;fill:rgb(81.176471%,6.666667%,14.901961%);fill-opacity:1;" d="M 11.859375 5.449219 C 11.804688 5.40625 11.785156 5.367188 11.785156 5.289062 C 11.785156 5.25 11.792969 5.230469 11.820312 5.191406 C 11.859375 5.140625 11.851562 5.125 11.796875 5.140625 C 11.707031 5.164062 11.667969 5.140625 11.664062 5.066406 C 11.664062 5.03125 11.671875 5.015625 11.71875 4.957031 C 11.757812 4.90625 11.773438 4.882812 11.765625 4.875 C 11.757812 4.867188 11.710938 4.90625 11.617188 5.003906 C 11.539062 5.082031 11.453125 5.160156 11.425781 5.179688 C 11.261719 5.292969 11.105469 5.308594 11.03125 5.222656 C 10.996094 5.179688 11 5.15625 11.039062 5.128906 C 11.058594 5.117188 11.09375 5.089844 11.113281 5.066406 C 11.164062 5.015625 11.308594 4.910156 11.382812 4.875 C 11.441406 4.84375 11.453125 4.824219 11.417969 4.824219 C 11.367188 4.824219 11.207031 4.929688 11.085938 5.039062 C 11.050781 5.070312 11 5.109375 10.972656 5.121094 C 10.914062 5.148438 10.792969 5.15625 10.742188 5.140625 C 10.703125 5.128906 10.636719 5.0625 10.636719 5.039062 C 10.636719 5.035156 10.652344 5.019531 10.671875 5.011719 C 10.691406 5 10.722656 4.976562 10.746094 4.957031 C 10.84375 4.871094 11.027344 4.785156 11.171875 4.753906 C 11.21875 4.746094 11.199219 4.722656 11.148438 4.722656 C 11.050781 4.726562 10.851562 4.820312 10.734375 4.917969 C 10.59375 5.03125 10.386719 5.023438 10.316406 4.898438 C 10.304688 4.875 10.300781 4.855469 10.300781 4.851562 C 10.304688 4.847656 10.347656 4.835938 10.394531 4.824219 C 10.445312 4.8125 10.546875 4.769531 10.640625 4.722656 C 10.792969 4.644531 10.839844 4.628906 10.945312 4.613281 C 10.992188 4.605469 10.992188 4.582031 10.949219 4.578125 C 10.886719 4.570312 10.796875 4.601562 10.640625 4.679688 C 10.433594 4.777344 10.378906 4.796875 10.269531 4.789062 C 10.171875 4.785156 10.117188 4.757812 10.035156 4.683594 C 9.984375 4.632812 9.910156 4.507812 9.925781 4.492188 C 9.925781 4.488281 9.953125 4.492188 9.976562 4.5 C 10.007812 4.507812 10.089844 4.515625 10.1875 4.515625 C 10.324219 4.515625 10.363281 4.511719 10.4375 4.492188 C 10.558594 4.453125 10.722656 4.371094 10.835938 4.289062 C 11.050781 4.125 11.226562 4.0625 11.449219 4.0625 C 11.65625 4.058594 11.785156 4.109375 11.902344 4.226562 C 11.941406 4.265625 11.976562 4.292969 11.980469 4.285156 C 11.988281 4.28125 11.992188 4.210938 11.992188 4.132812 C 11.992188 4.132812 12.054688 4.125 12.066406 4.140625 C 12.066406 4.273438 12.070312 4.28125 12.085938 4.28125 C 12.101562 4.28125 12.113281 4.269531 12.121094 4.25 C 12.140625 4.207031 12.203125 4.148438 12.273438 4.113281 C 12.425781 4.039062 12.6875 4.035156 12.894531 4.109375 C 12.984375 4.140625 13.082031 4.195312 13.175781 4.265625 C 13.269531 4.339844 13.460938 4.433594 13.574219 4.46875 C 13.6875 4.5 13.890625 4.507812 13.992188 4.484375 C 14.035156 4.476562 14.078125 4.46875 14.082031 4.46875 C 14.121094 4.46875 14.054688 4.59375 13.980469 4.667969 C 13.839844 4.804688 13.660156 4.804688 13.402344 4.667969 C 13.242188 4.582031 13.054688 4.535156 13.054688 4.582031 C 13.054688 4.589844 13.0625 4.597656 13.078125 4.597656 C 13.132812 4.597656 13.242188 4.632812 13.390625 4.703125 C 13.550781 4.78125 13.640625 4.8125 13.695312 4.8125 C 13.734375 4.8125 13.734375 4.835938 13.699219 4.890625 C 13.660156 4.949219 13.59375 4.976562 13.503906 4.976562 C 13.414062 4.976562 13.367188 4.957031 13.285156 4.890625 C 13.15625 4.78125 12.828125 4.660156 12.839844 4.722656 C 12.839844 4.738281 12.855469 4.746094 12.890625 4.75 C 13.003906 4.769531 13.140625 4.832031 13.277344 4.933594 C 13.320312 4.964844 13.363281 4.996094 13.375 5.003906 C 13.394531 5.015625 13.394531 5.019531 13.378906 5.046875 C 13.355469 5.09375 13.292969 5.128906 13.226562 5.136719 C 13.136719 5.144531 13.0625 5.117188 12.984375 5.050781 C 12.816406 4.914062 12.660156 4.8125 12.613281 4.8125 C 12.570312 4.8125 12.589844 4.835938 12.660156 4.875 C 12.753906 4.925781 12.851562 4.992188 12.925781 5.058594 C 12.957031 5.089844 12.996094 5.121094 13.007812 5.128906 C 13.039062 5.144531 13.039062 5.167969 13.003906 5.210938 C 12.972656 5.253906 12.914062 5.273438 12.84375 5.265625 C 12.699219 5.25 12.585938 5.179688 12.410156 4.996094 C 12.339844 4.925781 12.28125 4.867188 12.273438 4.867188 C 12.25 4.867188 12.265625 4.898438 12.308594 4.949219 C 12.367188 5.011719 12.375 5.050781 12.355469 5.101562 C 12.335938 5.144531 12.304688 5.15625 12.242188 5.140625 C 12.175781 5.121094 12.164062 5.136719 12.207031 5.191406 C 12.273438 5.269531 12.261719 5.371094 12.183594 5.4375 C 12.160156 5.457031 12.132812 5.476562 12.125 5.476562 C 12.121094 5.476562 12.101562 5.457031 12.089844 5.433594 C 12.039062 5.359375 11.992188 5.359375 11.945312 5.4375 C 11.925781 5.464844 11.910156 5.484375 11.910156 5.484375 C 11.910156 5.484375 11.886719 5.46875 11.859375 5.449219 Z M 11.859375 5.449219 "/>
<path style=" stroke:none;fill-rule:nonzero;fill:rgb(81.176471%,6.666667%,14.901961%);fill-opacity:1;" d="M 12.109375 3.882812 L 12.027344 3.953125 L 11.949219 3.894531 L 11.949219 4.355469 L 12.109375 4.359375 Z M 12.109375 3.882812 "/>
<path style=" stroke:none;fill-rule:nonzero;fill:rgb(81.176471%,6.666667%,14.901961%);fill-opacity:1;" d="M 11.582031 3.402344 C 11.566406 3.621094 11.507812 3.773438 11.433594 3.941406 L 11.617188 3.773438 L 11.746094 3.925781 L 11.886719 3.769531 L 12.027344 3.902344 L 12.164062 3.765625 L 12.304688 3.929688 L 12.429688 3.792969 L 12.636719 3.941406 C 12.5625 3.773438 12.460938 3.632812 12.472656 3.394531 C 12.269531 3.546875 11.789062 3.574219 11.582031 3.402344 Z M 11.582031 3.402344 "/>
<path style=" stroke:none;fill-rule:nonzero;fill:rgb(81.176471%,6.666667%,14.901961%);fill-opacity:1;" d="M 11.949219 3.292969 C 11.875 3.292969 11.796875 3.296875 11.726562 3.308594 C 11.675781 3.320312 11.632812 3.335938 11.597656 3.359375 C 11.601562 3.503906 12.277344 3.5625 12.460938 3.363281 C 12.421875 3.335938 12.375 3.320312 12.324219 3.308594 C 12.257812 3.296875 12.183594 3.292969 12.109375 3.292969 C 12.109375 3.332031 12.109375 3.371094 12.109375 3.410156 L 11.949219 3.410156 Z M 11.949219 3.292969 "/>
<path style=" stroke:none;fill-rule:nonzero;fill:rgb(81.176471%,6.666667%,14.901961%);fill-opacity:1;" d="M 12.082031 2.566406 L 11.976562 2.566406 L 11.976562 3.390625 L 12.082031 3.390625 Z M 12.082031 2.566406 "/>
<path style=" stroke:none;fill-rule:nonzero;fill:rgb(81.176471%,6.666667%,14.901961%);fill-opacity:1;" d="M 12.082031 2.585938 L 12.042969 2.980469 L 12.445312 3.179688 L 12.242188 2.90625 L 12.523438 2.8125 Z M 12.082031 2.585938 "/>
<path style=" stroke:none;fill-rule:nonzero;fill:rgb(81.176471%,6.666667%,14.901961%);fill-opacity:1;" d="M 12.035156 2.484375 C 11.976562 2.484375 11.929688 2.507812 11.929688 2.535156 C 11.929688 2.5625 11.976562 2.585938 12.035156 2.585938 C 12.097656 2.585938 12.144531 2.5625 12.144531 2.535156 C 12.144531 2.507812 12.097656 2.484375 12.035156 2.484375 Z M 12.035156 2.484375 "/>
<path style=" stroke:none;fill-rule:nonzero;fill:rgb(96.862745%,87.843137%,9.019608%);fill-opacity:1;" d="M 11.851562 9.398438 C 11.917969 9.375 11.957031 9.335938 11.980469 9.257812 C 11.996094 9.21875 12.003906 9.179688 12.003906 9.167969 C 11.996094 9.144531 11.96875 9.144531 11.9375 9.171875 C 11.914062 9.1875 11.914062 9.199219 11.917969 9.234375 C 11.933594 9.328125 11.902344 9.351562 11.722656 9.371094 C 11.707031 9.371094 11.65625 9.371094 11.613281 9.363281 C 11.527344 9.351562 11.496094 9.363281 11.527344 9.386719 C 11.539062 9.394531 11.5625 9.40625 11.578125 9.410156 C 11.628906 9.421875 11.800781 9.414062 11.851562 9.398438 Z M 11.851562 9.398438 "/>
<path style=" stroke:none;fill-rule:nonzero;fill:rgb(96.862745%,87.843137%,9.019608%);fill-opacity:1;" d="M 12.21875 9.382812 C 12.226562 9.371094 12.261719 9.355469 12.292969 9.347656 C 12.335938 9.332031 12.359375 9.316406 12.375 9.289062 C 12.429688 9.214844 12.417969 9.148438 12.34375 9.058594 C 12.300781 9.007812 12.28125 9.011719 12.25 9.0625 C 12.222656 9.109375 12.222656 9.113281 12.261719 9.125 C 12.285156 9.128906 12.304688 9.144531 12.316406 9.164062 C 12.359375 9.242188 12.347656 9.289062 12.28125 9.292969 C 12.222656 9.292969 12.203125 9.300781 12.1875 9.339844 C 12.179688 9.359375 12.171875 9.378906 12.171875 9.386719 C 12.171875 9.402344 12.195312 9.398438 12.21875 9.382812 Z M 12.21875 9.382812 "/>
<path style=" stroke:none;fill-rule:nonzero;fill:rgb(96.862745%,87.843137%,9.019608%);fill-opacity:1;" d="M 12.097656 9.292969 C 12.109375 9.261719 12.113281 9.207031 12.109375 9.097656 C 12.109375 9.011719 12.105469 8.9375 12.101562 8.933594 C 12.09375 8.925781 12.042969 8.957031 12.039062 8.976562 C 12.035156 8.988281 12.039062 9.011719 12.050781 9.03125 C 12.066406 9.0625 12.066406 9.089844 12.0625 9.207031 C 12.054688 9.351562 12.066406 9.378906 12.097656 9.292969 Z M 12.097656 9.292969 "/>
<path style=" stroke:none;fill-rule:nonzero;fill:rgb(96.862745%,87.843137%,9.019608%);fill-opacity:1;" d="M 11.816406 9.222656 C 11.820312 9.195312 11.828125 9.140625 11.832031 9.097656 C 11.835938 9.058594 11.84375 9.003906 11.851562 8.984375 C 11.867188 8.925781 11.851562 8.910156 11.804688 8.941406 L 11.769531 8.96875 L 11.777344 9.050781 C 11.785156 9.125 11.773438 9.261719 11.753906 9.316406 C 11.75 9.332031 11.757812 9.328125 11.777344 9.304688 C 11.792969 9.289062 11.808594 9.25 11.816406 9.222656 Z M 11.816406 9.222656 "/>
<path style=" stroke:none;fill-rule:nonzero;fill:rgb(96.862745%,87.843137%,9.019608%);fill-opacity:1;" d="M 11.566406 9.265625 C 11.625 9.214844 11.617188 9.125 11.632812 9.054688 C 11.628906 9.007812 11.660156 8.953125 11.640625 8.910156 C 11.585938 8.921875 11.550781 8.976562 11.578125 9.027344 C 11.582031 9.089844 11.578125 9.160156 11.546875 9.214844 C 11.519531 9.25 11.4375 9.242188 11.441406 9.191406 C 11.460938 9.113281 11.371094 9.148438 11.335938 9.171875 C 11.308594 9.191406 11.25 9.191406 11.269531 9.144531 C 11.253906 9.078125 11.171875 9.117188 11.128906 9.117188 C 11.085938 9.117188 11.125 9.03125 11.0625 9.046875 C 10.949219 9.039062 10.824219 9.046875 10.726562 8.980469 C 10.667969 8.953125 10.675781 8.882812 10.707031 8.839844 C 10.742188 8.777344 10.753906 8.699219 10.808594 8.652344 C 10.867188 8.597656 10.757812 8.621094 10.730469 8.640625 C 10.675781 8.671875 10.726562 8.746094 10.683594 8.789062 C 10.65625 8.835938 10.621094 8.894531 10.5625 8.886719 C 10.476562 8.871094 10.425781 8.789062 10.363281 8.734375 C 10.308594 8.722656 10.339844 8.820312 10.367188 8.84375 C 10.421875 8.882812 10.484375 8.914062 10.550781 8.929688 C 10.617188 8.921875 10.617188 9.007812 10.675781 9.019531 C 10.777344 9.070312 10.894531 9.082031 11.003906 9.089844 C 11.050781 9.09375 11.023438 9.171875 11.082031 9.15625 C 11.117188 9.164062 11.1875 9.144531 11.191406 9.179688 C 11.144531 9.238281 11.238281 9.238281 11.277344 9.226562 C 11.320312 9.222656 11.378906 9.203125 11.390625 9.265625 C 11.429688 9.304688 11.5 9.300781 11.546875 9.277344 C 11.554688 9.273438 11.558594 9.269531 11.566406 9.265625 Z M 11.566406 9.265625 "/>
<path style=" stroke:none;fill-rule:nonzero;fill:rgb(96.862745%,87.843137%,9.019608%);fill-opacity:1;" d="M 10.570312 8.757812 C 10.585938 8.734375 10.613281 8.6875 10.628906 8.652344 C 10.644531 8.617188 10.667969 8.578125 10.679688 8.566406 C 10.710938 8.535156 10.695312 8.515625 10.644531 8.523438 C 10.621094 8.53125 10.609375 8.539062 10.605469 8.5625 C 10.59375 8.632812 10.566406 8.703125 10.542969 8.738281 C 10.503906 8.800781 10.503906 8.800781 10.519531 8.800781 C 10.527344 8.800781 10.550781 8.78125 10.570312 8.757812 Z M 10.570312 8.757812 "/>
<path style=" stroke:none;fill-rule:nonzero;fill:rgb(96.862745%,87.843137%,9.019608%);fill-opacity:1;" d="M 9.945312 8.367188 C 9.898438 8.367188 9.894531 8.398438 9.941406 8.414062 C 9.964844 8.421875 9.980469 8.441406 9.996094 8.46875 C 10.042969 8.558594 10.066406 8.574219 10.183594 8.582031 L 10.261719 8.589844 L 10.265625 8.636719 C 10.265625 8.660156 10.273438 8.683594 10.277344 8.683594 C 10.285156 8.683594 10.3125 8.671875 10.34375 8.65625 C 10.398438 8.628906 10.449219 8.5625 10.449219 8.519531 C 10.449219 8.496094 10.40625 8.464844 10.367188 8.464844 C 10.347656 8.464844 10.3125 8.480469 10.285156 8.5 C 10.203125 8.5625 10.113281 8.546875 10.0625 8.46875 C 10.023438 8.402344 9.980469 8.367188 9.945312 8.367188 Z M 10.351562 8.53125 C 10.375 8.53125 10.378906 8.546875 10.367188 8.578125 C 10.359375 8.601562 10.332031 8.601562 10.324219 8.578125 C 10.3125 8.554688 10.328125 8.53125 10.351562 8.53125 Z M 10.351562 8.53125 "/>
<path style=" stroke:none;fill-rule:nonzero;fill:rgb(96.862745%,87.843137%,9.019608%);fill-opacity:1;" d="M 13.515625 8.429688 C 13.484375 8.429688 13.472656 8.4375 13.457031 8.464844 C 13.421875 8.511719 13.421875 8.613281 13.449219 8.648438 C 13.46875 8.671875 13.46875 8.671875 13.507812 8.65625 C 13.5625 8.632812 13.570312 8.632812 13.570312 8.664062 C 13.570312 8.738281 13.464844 8.878906 13.355469 8.953125 C 13.324219 8.976562 13.296875 8.996094 13.296875 9.003906 C 13.289062 9.027344 13.328125 9.023438 13.378906 8.996094 C 13.449219 8.960938 13.539062 8.867188 13.574219 8.796875 C 13.605469 8.738281 13.609375 8.71875 13.613281 8.617188 C 13.613281 8.523438 13.613281 8.496094 13.597656 8.464844 C 13.578125 8.429688 13.574219 8.429688 13.527344 8.429688 C 13.523438 8.429688 13.519531 8.429688 13.515625 8.429688 Z M 13.519531 8.492188 C 13.539062 8.492188 13.542969 8.5 13.546875 8.53125 C 13.550781 8.558594 13.542969 8.574219 13.53125 8.589844 C 13.507812 8.609375 13.507812 8.609375 13.488281 8.578125 C 13.464844 8.539062 13.480469 8.492188 13.519531 8.492188 Z M 13.519531 8.492188 "/>
<path style=" stroke:none;fill-rule:nonzero;fill:rgb(96.862745%,87.843137%,9.019608%);fill-opacity:1;" d="M 13.011719 9.203125 C 13.109375 9.15625 13.167969 9.101562 13.203125 9.023438 C 13.222656 8.988281 13.234375 8.953125 13.234375 8.945312 C 13.234375 8.933594 13.1875 8.910156 13.160156 8.910156 C 13.128906 8.910156 13.125 8.890625 13.136719 8.835938 C 13.148438 8.78125 13.132812 8.714844 13.109375 8.714844 C 13.101562 8.714844 13.085938 8.726562 13.078125 8.742188 C 13.0625 8.765625 13.0625 8.777344 13.070312 8.808594 C 13.089844 8.859375 13.074219 8.898438 13.03125 8.929688 C 13.007812 8.945312 12.996094 8.964844 12.996094 8.980469 C 12.996094 8.996094 13 9.007812 13 9.007812 C 13.003906 9.007812 13.027344 8.996094 13.054688 8.980469 L 13.101562 8.953125 L 13.132812 8.976562 C 13.148438 8.988281 13.160156 9.007812 13.160156 9.019531 C 13.160156 9.082031 12.992188 9.179688 12.875 9.1875 C 12.8125 9.195312 12.800781 9.191406 12.78125 9.171875 C 12.761719 9.152344 12.757812 9.136719 12.761719 9.117188 C 12.765625 9.101562 12.773438 9.074219 12.777344 9.054688 C 12.785156 9.003906 12.765625 9.007812 12.726562 9.070312 C 12.695312 9.121094 12.683594 9.171875 12.703125 9.199219 C 12.71875 9.222656 12.8125 9.246094 12.882812 9.242188 C 12.925781 9.238281 12.96875 9.226562 13.011719 9.203125 Z M 13.011719 9.203125 "/>
<path style=" stroke:none;fill-rule:nonzero;fill:rgb(96.862745%,87.843137%,9.019608%);fill-opacity:1;" d="M 13.664062 8.839844 C 13.722656 8.78125 13.75 8.707031 13.75 8.589844 L 13.75 8.503906 L 13.800781 8.480469 C 13.867188 8.449219 13.929688 8.386719 13.929688 8.351562 C 13.929688 8.316406 13.914062 8.316406 13.882812 8.355469 C 13.863281 8.386719 13.835938 8.402344 13.734375 8.449219 C 13.707031 8.460938 13.707031 8.46875 13.699219 8.574219 C 13.695312 8.699219 13.675781 8.746094 13.609375 8.832031 C 13.566406 8.882812 13.5625 8.886719 13.59375 8.886719 C 13.605469 8.886719 13.636719 8.867188 13.664062 8.839844 Z M 13.664062 8.839844 "/>
<path style=" stroke:none;fill-rule:nonzero;fill:rgb(96.862745%,87.843137%,9.019608%);fill-opacity:1;" d="M 12.996094 8.773438 C 13 8.753906 12.964844 8.742188 12.953125 8.757812 C 12.945312 8.761719 12.945312 8.773438 12.949219 8.78125 C 12.957031 8.796875 12.988281 8.789062 12.996094 8.773438 Z M 12.996094 8.773438 "/>
<path style=" stroke:none;fill-rule:nonzero;fill:rgb(96.862745%,87.843137%,9.019608%);fill-opacity:1;" d="M 13.914062 8.535156 C 13.921875 8.515625 13.886719 8.503906 13.871094 8.519531 C 13.867188 8.523438 13.863281 8.535156 13.871094 8.542969 C 13.878906 8.558594 13.910156 8.550781 13.914062 8.535156 Z M 13.914062 8.535156 "/>
<path style=" stroke:none;fill-rule:nonzero;fill:rgb(96.862745%,87.843137%,9.019608%);fill-opacity:1;" d="M 12.808594 7.886719 C 12.78125 7.898438 12.769531 7.925781 12.753906 7.945312 C 12.742188 7.953125 12.75 7.960938 12.757812 7.96875 C 12.800781 8.011719 12.820312 8.074219 12.839844 8.132812 C 12.859375 8.199219 12.882812 8.269531 12.863281 8.339844 C 12.855469 8.367188 12.832031 8.394531 12.800781 8.386719 C 12.75 8.382812 12.703125 8.371094 12.652344 8.371094 C 12.605469 8.375 12.570312 8.414062 12.523438 8.410156 C 12.496094 8.410156 12.496094 8.351562 12.46875 8.367188 C 12.457031 8.398438 12.460938 8.433594 12.460938 8.46875 C 12.464844 8.472656 12.480469 8.46875 12.488281 8.472656 L 12.578125 8.472656 C 12.585938 8.503906 12.585938 8.539062 12.605469 8.5625 C 12.640625 8.574219 12.675781 8.566406 12.703125 8.554688 C 12.734375 8.539062 12.742188 8.5 12.75 8.46875 C 12.757812 8.4375 12.800781 8.445312 12.828125 8.433594 C 12.886719 8.414062 12.925781 8.351562 12.925781 8.289062 C 12.921875 8.195312 12.882812 8.105469 12.855469 8.011719 C 12.84375 7.972656 12.832031 7.933594 12.816406 7.894531 C 12.816406 7.890625 12.8125 7.886719 12.808594 7.886719 Z M 12.65625 8.433594 C 12.691406 8.429688 12.703125 8.472656 12.695312 8.5 C 12.683594 8.539062 12.636719 8.515625 12.628906 8.488281 C 12.613281 8.460938 12.621094 8.429688 12.65625 8.433594 Z M 12.65625 8.433594 "/>
<path style=" stroke:none;fill-rule:nonzero;fill:rgb(96.862745%,87.843137%,9.019608%);fill-opacity:1;" d="M 11.398438 8.121094 C 11.382812 8.121094 11.367188 8.125 11.351562 8.136719 C 11.261719 8.199219 11.238281 8.273438 11.300781 8.300781 C 11.34375 8.324219 11.332031 8.347656 11.261719 8.382812 C 11.164062 8.433594 11.074219 8.425781 10.910156 8.355469 C 10.867188 8.339844 10.855469 8.347656 10.867188 8.382812 C 10.875 8.421875 10.910156 8.441406 10.992188 8.460938 C 11.082031 8.480469 11.191406 8.472656 11.261719 8.445312 C 11.296875 8.429688 11.335938 8.398438 11.371094 8.359375 L 11.425781 8.300781 L 11.488281 8.308594 C 11.566406 8.320312 11.566406 8.320312 11.566406 8.355469 C 11.566406 8.386719 11.566406 8.386719 11.640625 8.394531 C 11.679688 8.398438 11.734375 8.402344 11.757812 8.402344 C 11.789062 8.402344 11.808594 8.40625 11.816406 8.421875 C 11.832031 8.441406 11.839844 8.441406 11.957031 8.429688 C 12.066406 8.421875 12.089844 8.421875 12.136719 8.4375 C 12.171875 8.449219 12.210938 8.457031 12.242188 8.453125 C 12.324219 8.441406 12.441406 8.375 12.457031 8.324219 C 12.460938 8.316406 12.488281 8.308594 12.523438 8.300781 C 12.609375 8.28125 12.613281 8.265625 12.535156 8.253906 C 12.5 8.25 12.449219 8.238281 12.417969 8.226562 C 12.390625 8.214844 12.351562 8.207031 12.332031 8.207031 C 12.289062 8.207031 12.25 8.230469 12.25 8.261719 C 12.25 8.277344 12.253906 8.28125 12.304688 8.273438 C 12.355469 8.269531 12.367188 8.273438 12.394531 8.292969 C 12.410156 8.304688 12.421875 8.320312 12.417969 8.324219 C 12.40625 8.34375 12.304688 8.390625 12.261719 8.394531 C 12.234375 8.402344 12.210938 8.398438 12.1875 8.386719 C 12.148438 8.367188 12.089844 8.363281 12.082031 8.378906 C 12.074219 8.386719 12.0625 8.382812 12.046875 8.367188 L 12.019531 8.34375 L 11.960938 8.367188 C 11.902344 8.390625 11.878906 8.390625 11.878906 8.363281 C 11.878906 8.347656 11.863281 8.347656 11.773438 8.355469 C 11.679688 8.359375 11.667969 8.359375 11.648438 8.339844 C 11.632812 8.320312 11.632812 8.3125 11.644531 8.292969 C 11.65625 8.277344 11.65625 8.269531 11.644531 8.257812 C 11.632812 8.246094 11.621094 8.246094 11.582031 8.257812 C 11.484375 8.285156 11.457031 8.269531 11.457031 8.195312 C 11.457031 8.148438 11.433594 8.121094 11.398438 8.121094 Z M 11.375 8.191406 C 11.378906 8.191406 11.382812 8.191406 11.390625 8.199219 C 11.398438 8.207031 11.402344 8.222656 11.402344 8.230469 C 11.390625 8.253906 11.351562 8.253906 11.34375 8.230469 C 11.339844 8.21875 11.34375 8.207031 11.355469 8.199219 C 11.363281 8.191406 11.371094 8.191406 11.375 8.191406 Z M 11.375 8.191406 "/>
<path style=" stroke:none;fill-rule:nonzero;fill:rgb(96.862745%,87.843137%,9.019608%);fill-opacity:1;" d="M 11.203125 8.261719 C 11.261719 8.222656 11.257812 8.226562 11.269531 8.121094 C 11.273438 8.046875 11.273438 8.042969 11.253906 8.042969 C 11.222656 8.042969 11.207031 8.074219 11.207031 8.136719 C 11.207031 8.175781 11.203125 8.191406 11.183594 8.210938 C 11.132812 8.261719 11.011719 8.238281 10.996094 8.175781 C 10.992188 8.15625 10.996094 8.136719 11.023438 8.101562 C 11.078125 8.027344 11.0625 8.007812 11 8.066406 C 10.953125 8.105469 10.945312 8.105469 10.953125 8.070312 C 10.960938 8.039062 10.945312 8.027344 10.910156 8.039062 C 10.890625 8.042969 10.882812 8.054688 10.875 8.074219 C 10.871094 8.097656 10.863281 8.109375 10.84375 8.113281 C 10.816406 8.121094 10.765625 8.09375 10.765625 8.070312 C 10.765625 8.054688 10.839844 7.960938 10.9375 7.859375 C 10.972656 7.824219 11.003906 7.789062 11.003906 7.78125 C 11.003906 7.777344 10.984375 7.773438 10.960938 7.773438 C 10.925781 7.773438 10.917969 7.777344 10.917969 7.792969 C 10.917969 7.804688 10.867188 7.867188 10.808594 7.933594 C 10.683594 8.074219 10.671875 8.101562 10.734375 8.140625 C 10.785156 8.171875 10.847656 8.167969 10.898438 8.136719 L 10.9375 8.109375 L 10.9375 8.15625 C 10.9375 8.222656 10.949219 8.242188 11 8.269531 C 11.0625 8.304688 11.140625 8.300781 11.203125 8.261719 Z M 11.203125 8.261719 "/>
<path style=" stroke:none;fill-rule:nonzero;fill:rgb(96.862745%,87.843137%,9.019608%);fill-opacity:1;" d="M 13.8125 7.394531 C 13.765625 7.421875 13.800781 7.480469 13.808594 7.519531 C 13.789062 7.570312 13.722656 7.585938 13.671875 7.59375 C 13.601562 7.605469 13.554688 7.664062 13.527344 7.726562 C 13.511719 7.765625 13.476562 7.828125 13.441406 7.769531 C 13.40625 7.734375 13.347656 7.707031 13.308594 7.746094 C 13.28125 7.773438 13.273438 7.816406 13.261719 7.855469 C 13.242188 7.824219 13.234375 7.78125 13.199219 7.773438 C 13.140625 7.78125 13.160156 7.855469 13.1875 7.886719 C 13.214844 7.921875 13.238281 7.96875 13.214844 8.011719 C 13.191406 8.0625 13.117188 8.097656 13.074219 8.050781 C 13.03125 8.03125 13.058594 7.953125 13.019531 7.949219 C 13 7.964844 12.996094 8.042969 12.964844 8 C 12.941406 7.964844 12.953125 7.910156 12.925781 7.878906 C 12.890625 7.882812 12.863281 7.9375 12.875 7.96875 C 12.921875 8.03125 12.9375 8.105469 12.957031 8.179688 C 12.96875 8.207031 12.957031 8.265625 12.980469 8.277344 C 13 8.230469 12.984375 8.179688 12.996094 8.132812 C 13.042969 8.125 13.089844 8.144531 13.136719 8.136719 C 13.203125 8.125 13.253906 8.070312 13.273438 8.011719 C 13.28125 7.96875 13.273438 7.921875 13.273438 7.878906 C 13.324219 7.886719 13.378906 7.886719 13.425781 7.902344 C 13.453125 7.941406 13.417969 7.996094 13.414062 8.035156 C 13.386719 8.121094 13.320312 8.179688 13.257812 8.238281 C 13.230469 8.253906 13.226562 8.296875 13.265625 8.273438 C 13.351562 8.234375 13.417969 8.15625 13.453125 8.074219 C 13.480469 8.007812 13.457031 7.933594 13.476562 7.867188 C 13.503906 7.820312 13.566406 7.828125 13.613281 7.828125 C 13.660156 7.828125 13.699219 7.773438 13.683594 7.726562 C 13.667969 7.671875 13.726562 7.644531 13.765625 7.625 C 13.816406 7.601562 13.855469 7.546875 13.851562 7.488281 C 13.851562 7.457031 13.851562 7.398438 13.8125 7.394531 Z M 13.628906 7.707031 C 13.683594 7.722656 13.617188 7.828125 13.585938 7.761719 C 13.578125 7.734375 13.601562 7.707031 13.628906 7.707031 Z M 13.371094 7.785156 C 13.441406 7.777344 13.414062 7.882812 13.355469 7.835938 C 13.324219 7.820312 13.332031 7.78125 13.371094 7.785156 Z M 13.371094 7.785156 "/>
<path style=" stroke:none;fill-rule:nonzero;fill:rgb(96.862745%,87.843137%,9.019608%);fill-opacity:1;" d="M 10.75 8.191406 C 10.753906 8.179688 10.75 8.171875 10.738281 8.171875 C 10.71875 8.171875 10.707031 8.191406 10.714844 8.207031 C 10.726562 8.222656 10.746094 8.214844 10.75 8.191406 Z M 10.75 8.191406 "/>
<path style=" stroke:none;fill-rule:nonzero;fill:rgb(96.862745%,87.843137%,9.019608%);fill-opacity:1;" d="M 11.597656 8.097656 C 11.597656 8.082031 11.59375 8.074219 11.582031 8.078125 C 11.550781 8.082031 11.546875 8.121094 11.578125 8.121094 C 11.59375 8.121094 11.597656 8.113281 11.597656 8.097656 Z M 11.597656 8.097656 "/>
<path style=" stroke:none;fill-rule:nonzero;fill:rgb(96.862745%,87.843137%,9.019608%);fill-opacity:1;" d="M 10.550781 7.589844 C 10.515625 7.582031 10.496094 7.609375 10.484375 7.636719 C 10.457031 7.679688 10.425781 7.722656 10.382812 7.746094 C 10.351562 7.753906 10.3125 7.742188 10.285156 7.726562 C 10.253906 7.707031 10.261719 7.667969 10.246094 7.640625 C 10.222656 7.621094 10.179688 7.648438 10.179688 7.679688 C 10.175781 7.71875 10.214844 7.742188 10.246094 7.757812 C 10.269531 7.773438 10.308594 7.78125 10.320312 7.8125 C 10.320312 7.839844 10.328125 7.875 10.363281 7.863281 C 10.402344 7.863281 10.410156 7.90625 10.394531 7.933594 C 10.378906 7.964844 10.371094 8.003906 10.378906 8.035156 C 10.394531 8.050781 10.414062 8.011719 10.425781 8 C 10.433594 7.988281 10.445312 7.976562 10.453125 7.964844 C 10.519531 7.96875 10.585938 7.976562 10.652344 7.972656 C 10.699219 7.972656 10.742188 7.945312 10.769531 7.910156 C 10.8125 7.863281 10.847656 7.8125 10.898438 7.773438 C 10.933594 7.765625 10.914062 7.699219 10.878906 7.71875 C 10.84375 7.730469 10.835938 7.769531 10.8125 7.792969 C 10.773438 7.839844 10.734375 7.886719 10.683594 7.921875 C 10.648438 7.9375 10.609375 7.929688 10.574219 7.921875 C 10.558594 7.910156 10.601562 7.898438 10.609375 7.882812 C 10.628906 7.863281 10.65625 7.84375 10.667969 7.816406 C 10.65625 7.789062 10.621094 7.789062 10.59375 7.789062 C 10.535156 7.796875 10.488281 7.847656 10.425781 7.851562 C 10.378906 7.851562 10.402344 7.800781 10.421875 7.785156 C 10.464844 7.734375 10.511719 7.6875 10.554688 7.640625 C 10.566406 7.625 10.609375 7.613281 10.582031 7.589844 C 10.570312 7.589844 10.5625 7.589844 10.550781 7.589844 Z M 10.582031 7.835938 C 10.613281 7.855469 10.5625 7.882812 10.539062 7.878906 C 10.511719 7.886719 10.511719 7.859375 10.535156 7.855469 C 10.550781 7.847656 10.566406 7.839844 10.582031 7.835938 Z M 10.484375 7.902344 C 10.503906 7.902344 10.539062 7.917969 10.503906 7.929688 C 10.480469 7.949219 10.453125 7.910156 10.484375 7.902344 Z M 10.484375 7.902344 "/>
<path style=" stroke:none;fill-rule:nonzero;fill:rgb(96.862745%,87.843137%,9.019608%);fill-opacity:1;" d="M 11.234375 7.945312 C 11.234375 7.921875 11.195312 7.925781 11.1875 7.949219 C 11.1875 7.964844 11.191406 7.96875 11.210938 7.964844 C 11.222656 7.964844 11.234375 7.953125 11.234375 7.945312 Z M 11.234375 7.945312 "/>
<path style=" stroke:none;fill-rule:nonzero;fill:rgb(96.862745%,87.843137%,9.019608%);fill-opacity:1;" d="M 13.101562 7.78125 C 13.109375 7.757812 13.078125 7.742188 13.058594 7.757812 C 13.042969 7.777344 13.058594 7.808594 13.082031 7.804688 C 13.089844 7.800781 13.101562 7.789062 13.101562 7.78125 Z M 13.101562 7.78125 "/>
<path style=" stroke:none;fill-rule:nonzero;fill:rgb(96.862745%,87.843137%,9.019608%);fill-opacity:1;" d="M 10.195312 7.550781 C 10.226562 7.527344 10.226562 7.523438 10.214844 7.46875 C 10.195312 7.390625 10.195312 7.382812 10.226562 7.375 C 10.265625 7.367188 10.359375 7.417969 10.378906 7.457031 C 10.394531 7.488281 10.394531 7.492188 10.367188 7.515625 C 10.339844 7.546875 10.339844 7.578125 10.367188 7.578125 C 10.394531 7.578125 10.460938 7.511719 10.460938 7.488281 C 10.460938 7.457031 10.386719 7.382812 10.324219 7.351562 C 10.289062 7.335938 10.25 7.328125 10.207031 7.328125 C 10.132812 7.328125 10.121094 7.34375 10.140625 7.433594 C 10.167969 7.539062 10.132812 7.550781 10.050781 7.472656 C 9.988281 7.414062 9.960938 7.355469 9.960938 7.257812 C 9.960938 7.15625 10.003906 7.105469 10.089844 7.09375 C 10.148438 7.085938 10.148438 7.070312 10.085938 7.0625 C 10 7.046875 9.925781 7.109375 9.894531 7.214844 C 9.863281 7.328125 9.9375 7.472656 10.066406 7.546875 C 10.132812 7.582031 10.15625 7.585938 10.195312 7.550781 Z M 10.195312 7.550781 "/>
<path style=" stroke:none;fill-rule:nonzero;fill:rgb(96.862745%,87.843137%,9.019608%);fill-opacity:1;" d="M 13.675781 7.421875 C 13.683594 7.417969 13.691406 7.398438 13.691406 7.386719 C 13.691406 7.375 13.703125 7.347656 13.71875 7.328125 C 13.734375 7.308594 13.746094 7.289062 13.746094 7.28125 C 13.746094 7.261719 13.710938 7.261719 13.683594 7.285156 C 13.65625 7.304688 13.636719 7.304688 13.636719 7.285156 C 13.636719 7.28125 13.648438 7.269531 13.664062 7.261719 C 13.707031 7.242188 13.707031 7.222656 13.675781 7.207031 C 13.632812 7.1875 13.589844 7.222656 13.585938 7.28125 C 13.582031 7.320312 13.585938 7.328125 13.613281 7.347656 C 13.644531 7.363281 13.648438 7.371094 13.644531 7.394531 C 13.636719 7.433594 13.652344 7.449219 13.675781 7.421875 Z M 13.675781 7.421875 "/>
<path style=" stroke:none;fill-rule:nonzero;fill:rgb(96.862745%,87.843137%,9.019608%);fill-opacity:1;" d="M 14.003906 7.386719 C 14.027344 7.363281 14.046875 7.339844 14.046875 7.332031 C 14.046875 7.324219 14.070312 7.300781 14.09375 7.285156 C 14.167969 7.234375 14.183594 7.179688 14.148438 7.101562 C 14.136719 7.070312 14.097656 7.023438 14.011719 6.949219 C 13.945312 6.890625 13.886719 6.839844 13.878906 6.839844 C 13.855469 6.839844 13.859375 6.925781 13.882812 6.933594 C 13.925781 6.949219 13.953125 6.964844 14.019531 7.023438 C 14.097656 7.097656 14.132812 7.160156 14.113281 7.199219 C 14.09375 7.234375 14.070312 7.222656 14 7.148438 C 13.964844 7.109375 13.929688 7.078125 13.921875 7.078125 C 13.914062 7.078125 13.90625 7.09375 13.90625 7.113281 C 13.90625 7.136719 13.921875 7.160156 13.957031 7.199219 C 14.015625 7.265625 14.019531 7.304688 13.976562 7.339844 C 13.960938 7.351562 13.945312 7.359375 13.941406 7.359375 C 13.9375 7.359375 13.925781 7.339844 13.914062 7.316406 C 13.886719 7.269531 13.738281 7.109375 13.714844 7.109375 C 13.707031 7.109375 13.703125 7.125 13.703125 7.148438 C 13.703125 7.179688 13.707031 7.191406 13.730469 7.203125 C 13.761719 7.21875 13.835938 7.289062 13.90625 7.378906 C 13.929688 7.40625 13.949219 7.425781 13.953125 7.425781 C 13.957031 7.425781 13.980469 7.40625 14.003906 7.386719 Z M 14.003906 7.386719 "/>
<path style=" stroke:none;fill-rule:nonzero;fill:rgb(96.862745%,87.843137%,9.019608%);fill-opacity:1;" d="M 14.152344 6.96875 C 14.140625 6.9375 13.941406 6.730469 13.921875 6.730469 C 13.910156 6.730469 13.90625 6.746094 13.910156 6.777344 C 13.914062 6.816406 13.917969 6.824219 13.945312 6.832031 C 13.960938 6.835938 14.011719 6.875 14.0625 6.921875 C 14.109375 6.96875 14.148438 7.003906 14.152344 7 C 14.15625 6.996094 14.15625 6.980469 14.152344 6.96875 Z M 14.152344 6.96875 "/>
<path style=" stroke:none;fill-rule:nonzero;fill:rgb(96.862745%,87.843137%,9.019608%);fill-opacity:1;" d="M 12.957031 9.28125 C 12.957031 9.296875 12.945312 9.308594 12.929688 9.308594 C 12.914062 9.308594 12.898438 9.296875 12.898438 9.28125 C 12.898438 9.265625 12.914062 9.253906 12.929688 9.253906 C 12.945312 9.253906 12.957031 9.265625 12.957031 9.28125 Z M 12.957031 9.28125 "/>
<path style=" stroke:none;fill-rule:nonzero;fill:rgb(96.862745%,87.843137%,9.019608%);fill-opacity:1;" d="M 13.0625 9.246094 C 13.0625 9.261719 13.050781 9.273438 13.035156 9.273438 C 13.015625 9.273438 13.003906 9.261719 13.003906 9.246094 C 13.003906 9.230469 13.015625 9.21875 13.035156 9.21875 C 13.050781 9.21875 13.0625 9.230469 13.0625 9.246094 Z M 13.0625 9.246094 "/>
</g>
</svg>
