<?xml version="1.0" encoding="UTF-8"?>
<svg xmlns="http://www.w3.org/2000/svg" xmlns:xlink="http://www.w3.org/1999/xlink" width="24px" height="24px" viewBox="0 0 24 16" version="1.1">
<defs>
<clipPath id="clip1">
  <path d="M 7 8 L 17 8 L 17 12 L 7 12 Z M 7 8 "/>
</clipPath>
<clipPath id="clip2">
  <path d="M 16.199219 8 C 16.199219 10.210938 14.320312 12 12 12 C 9.679688 12 7.800781 10.210938 7.800781 8 C 7.800781 5.789062 9.679688 4 12 4 C 14.320312 4 16.199219 5.789062 16.199219 8 Z M 16.199219 8 "/>
</clipPath>
<clipPath id="clip3">
  <path d="M 13 7 L 14 7 L 14 8 L 13 8 Z M 13 7 "/>
</clipPath>
<clipPath id="clip4">
  <path d="M 13.304688 7.460938 L 13.460938 7.109375 L 13.792969 7.246094 L 13.632812 7.597656 Z M 13.574219 7.292969 L 13.546875 7.351562 L 13.710938 7.421875 L 13.738281 7.363281 Z M 13.574219 7.292969 "/>
</clipPath>
</defs>
<g id="surface1">
<rect x="0" y="0" width="24" height="16" style="fill:rgb(0%,60.784314%,22.745098%);fill-opacity:1;stroke:none;"/>
<path style=" stroke:none;fill-rule:nonzero;fill:rgb(99.607843%,87.45098%,0%);fill-opacity:1;" d="M 2.039062 8 L 12 14.058594 L 21.960938 8 L 12 1.941406 Z M 2.039062 8 "/>
<path style=" stroke:none;fill-rule:nonzero;fill:rgb(0%,15.294118%,46.27451%);fill-opacity:1;" d="M 16.199219 8 C 16.199219 10.210938 14.320312 12 12 12 C 9.679688 12 7.800781 10.210938 7.800781 8 C 7.800781 5.789062 9.679688 4 12 4 C 14.320312 4 16.199219 5.789062 16.199219 8 Z M 16.199219 8 "/>
<g clip-path="url(#clip1)" clip-rule="nonzero">
<g clip-path="url(#clip2)" clip-rule="nonzero">
<path style=" stroke:none;fill-rule:nonzero;fill:rgb(100%,100%,100%);fill-opacity:1;" d="M -0.601562 16 C -1.402344 21.179688 2.253906 26.035156 7.660156 26.972656 C 13.070312 27.910156 18.289062 24.597656 19.457031 19.484375 C 20.628906 14.367188 17.328125 9.289062 12 8 L 11.398438 8 Z M -0.601562 16 "/>
</g>
</g>
<path style=" stroke:none;fill-rule:evenodd;fill:rgb(0%,60.784314%,22.745098%);fill-opacity:1;" d="M 8.410156 6.761719 C 8.464844 6.753906 8.519531 6.800781 8.527344 6.867188 "/>
<path style=" stroke:none;fill-rule:evenodd;fill:rgb(0%,60.784314%,22.745098%);fill-opacity:1;" d="M 8.742188 6.796875 L 8.816406 6.792969 L 8.808594 6.648438 L 8.96875 6.640625 C 8.992188 6.691406 8.972656 6.753906 8.921875 6.785156 L 8.695312 6.800781 Z M 8.800781 6.578125 L 8.957031 6.570312 C 9.019531 6.578125 9.0625 6.632812 9.050781 6.691406 C 9.042969 6.753906 8.984375 6.792969 8.921875 6.785156 L 8.769531 6.792969 Z M 8.800781 6.578125 "/>
<path style=" stroke:none;fill-rule:nonzero;fill:rgb(0%,60.784314%,22.745098%);fill-opacity:1;" d="M 9.082031 6.773438 C 9.078125 6.71875 9.070312 6.601562 8.984375 6.605469 L 8.875 6.613281 C 9 6.605469 9.011719 6.722656 9.015625 6.777344 "/>
<path style=" stroke:none;fill-rule:evenodd;fill:rgb(0%,60.784314%,22.745098%);fill-opacity:1;" d="M 9.25 6.765625 L 9.4375 6.761719 C 9.53125 6.765625 9.609375 6.835938 9.609375 6.925781 C 9.609375 7.015625 9.535156 7.089844 9.441406 7.089844 C 9.347656 7.089844 9.269531 7.019531 9.265625 6.929688 C 9.265625 6.84375 9.335938 6.765625 9.429688 6.761719 L 9.429688 6.707031 C 9.390625 6.757812 9.324219 6.78125 9.257812 6.765625 L 9.070312 6.769531 Z M 9.324219 6.695312 L 9.433594 6.691406 C 9.472656 6.722656 9.488281 6.777344 9.464844 6.820312 C 9.441406 6.867188 9.386719 6.886719 9.339844 6.875 C 9.289062 6.863281 9.253906 6.816406 9.257812 6.765625 L 9.257812 6.734375 C 9.234375 6.761719 9.191406 6.777344 9.152344 6.769531 L 9.042969 6.769531 Z M 9.324219 6.695312 "/>
<path style=" stroke:none;fill-rule:nonzero;fill:rgb(0%,60.784314%,22.745098%);fill-opacity:1;" d="M 9.757812 6.761719 L 10.117188 6.773438 L 10.121094 6.703125 L 9.828125 6.691406 L 9.832031 6.59375 L 10.0625 6.601562 L 10.0625 6.539062 L 9.835938 6.53125 L 9.839844 6.453125 L 10.113281 6.464844 L 10.117188 6.390625 L 9.773438 6.378906 Z M 9.757812 6.761719 "/>
<path style=" stroke:none;fill-rule:nonzero;fill:rgb(0%,60.784314%,22.745098%);fill-opacity:1;" d="M 10.265625 6.78125 L 10.335938 6.789062 L 10.359375 6.527344 L 10.414062 6.792969 L 10.476562 6.800781 L 10.582031 6.546875 L 10.554688 6.804688 L 10.625 6.8125 L 10.660156 6.433594 L 10.558594 6.425781 L 10.457031 6.679688 L 10.402344 6.410156 L 10.300781 6.402344 Z M 10.265625 6.78125 "/>
<path style=" stroke:none;fill-rule:nonzero;fill:rgb(0%,60.784314%,22.745098%);fill-opacity:1;" d="M 11.09375 6.871094 L 11.390625 6.917969 L 11.402344 6.855469 L 11.175781 6.816406 L 11.191406 6.730469 L 11.375 6.761719 L 11.386719 6.699219 L 11.199219 6.667969 L 11.210938 6.609375 L 11.433594 6.644531 L 11.445312 6.582031 L 11.15625 6.535156 Z M 11.09375 6.871094 "/>
<path style=" stroke:none;fill-rule:evenodd;fill:rgb(0%,60.784314%,22.745098%);fill-opacity:1;" d="M 11.855469 7.011719 L 11.925781 7.03125 L 11.964844 6.894531 L 12.117188 6.933594 C 12.121094 6.988281 12.085938 7.039062 12.027344 7.054688 L 11.808594 7 Z M 11.980469 6.824219 L 12.132812 6.863281 C 12.1875 6.890625 12.210938 6.953125 12.183594 7.007812 C 12.152344 7.0625 12.085938 7.082031 12.027344 7.054688 L 11.878906 7.019531 Z M 11.980469 6.824219 "/>
<path style=" stroke:none;fill-rule:evenodd;fill:rgb(0%,60.784314%,22.745098%);fill-opacity:1;" d="M 12.34375 7.136719 L 12.417969 7.160156 L 12.460938 7.023438 L 12.613281 7.070312 C 12.613281 7.125 12.574219 7.175781 12.515625 7.191406 L 12.300781 7.125 Z M 12.484375 6.957031 L 12.628906 7 C 12.683594 7.03125 12.703125 7.097656 12.671875 7.148438 C 12.640625 7.203125 12.570312 7.21875 12.515625 7.191406 L 12.371094 7.144531 Z M 12.484375 6.957031 "/>
<path style=" stroke:none;fill-rule:nonzero;fill:rgb(0%,60.784314%,22.745098%);fill-opacity:1;" d="M 12.667969 7.234375 C 12.6875 7.183594 12.722656 7.070312 12.644531 7.042969 L 12.539062 7.011719 C 12.660156 7.050781 12.621094 7.164062 12.605469 7.214844 "/>
<path style=" stroke:none;fill-rule:evenodd;fill:rgb(0%,60.784314%,22.745098%);fill-opacity:1;" d="M 13.023438 7.28125 C 13.078125 7.300781 13.101562 7.367188 13.078125 7.429688 "/>
<g clip-path="url(#clip3)" clip-rule="nonzero">
<g clip-path="url(#clip4)" clip-rule="nonzero">
<path style=" stroke:none;fill-rule:evenodd;fill:rgb(0%,60.784314%,22.745098%);fill-opacity:1;" d="M 13.496094 7.464844 C 13.550781 7.484375 13.570312 7.550781 13.542969 7.613281 "/>
</g>
</g>
<path style=" stroke:none;fill-rule:nonzero;fill:rgb(0%,60.784314%,22.745098%);fill-opacity:1;" d="M 13.574219 7.363281 L 13.710938 7.421875 L 13.691406 7.472656 L 13.550781 7.414062 Z M 13.574219 7.363281 "/>
<path style=" stroke:none;fill-rule:nonzero;fill:rgb(0%,60.784314%,22.745098%);fill-opacity:1;" d="M 13.660156 7.398438 L 13.710938 7.421875 L 13.632812 7.597656 L 13.582031 7.574219 Z M 13.660156 7.398438 "/>
<path style=" stroke:none;fill-rule:evenodd;fill:rgb(0%,60.784314%,22.745098%);fill-opacity:1;" d="M 13.765625 7.65625 L 13.832031 7.6875 L 13.898438 7.5625 L 14.042969 7.628906 C 14.035156 7.683594 13.988281 7.726562 13.929688 7.734375 L 13.722656 7.636719 Z M 13.933594 7.496094 L 14.070312 7.5625 C 14.121094 7.601562 14.128906 7.667969 14.089844 7.714844 C 14.050781 7.761719 13.976562 7.769531 13.929688 7.734375 L 13.789062 7.667969 Z M 13.933594 7.496094 "/>
<path style=" stroke:none;fill-rule:nonzero;fill:rgb(0%,60.784314%,22.745098%);fill-opacity:1;" d="M 14.070312 7.800781 C 14.097656 7.75 14.152344 7.644531 14.078125 7.609375 L 13.980469 7.5625 C 14.089844 7.617188 14.035156 7.722656 14.011719 7.769531 "/>
<path style=" stroke:none;fill-rule:nonzero;fill:rgb(0%,60.784314%,22.745098%);fill-opacity:1;" d="M 14.21875 7.875 L 14.53125 8.042969 L 14.570312 7.980469 L 14.316406 7.847656 L 14.367188 7.761719 L 14.566406 7.867188 L 14.597656 7.8125 L 14.402344 7.703125 L 14.441406 7.636719 L 14.679688 7.765625 L 14.714844 7.703125 L 14.417969 7.542969 Z M 14.21875 7.875 "/>
<path style=" stroke:none;fill-rule:nonzero;fill:rgb(0%,60.784314%,22.745098%);fill-opacity:1;" d="M 14.804688 8.0625 C 14.78125 8.09375 14.804688 8.128906 14.851562 8.160156 C 14.898438 8.1875 14.933594 8.1875 14.945312 8.167969 C 14.992188 8.101562 14.738281 8.003906 14.816406 7.890625 C 14.882812 7.792969 14.996094 7.871094 15.042969 7.894531 C 15.085938 7.921875 15.152344 7.992188 15.101562 8.070312 L 15.027344 8.023438 C 15.050781 7.988281 15.023438 7.957031 14.984375 7.933594 C 14.949219 7.910156 14.917969 7.902344 14.894531 7.933594 C 14.859375 7.988281 15.105469 8.085938 15.03125 8.199219 C 14.972656 8.285156 14.875 8.25 14.8125 8.207031 C 14.757812 8.175781 14.671875 8.097656 14.726562 8.015625 Z M 14.804688 8.0625 "/>
<path style=" stroke:none;fill-rule:nonzero;fill:rgb(0%,60.784314%,22.745098%);fill-opacity:1;" d="M 15.234375 8.332031 C 15.210938 8.363281 15.230469 8.398438 15.277344 8.429688 C 15.320312 8.464844 15.355469 8.464844 15.371094 8.445312 C 15.417969 8.378906 15.167969 8.273438 15.253906 8.164062 C 15.328125 8.066406 15.4375 8.148438 15.480469 8.179688 C 15.519531 8.207031 15.585938 8.277344 15.527344 8.355469 L 15.457031 8.304688 C 15.480469 8.273438 15.457031 8.238281 15.421875 8.214844 C 15.386719 8.1875 15.355469 8.175781 15.332031 8.207031 C 15.292969 8.261719 15.535156 8.371094 15.453125 8.480469 C 15.390625 8.5625 15.296875 8.523438 15.234375 8.480469 C 15.179688 8.441406 15.101562 8.359375 15.160156 8.28125 Z M 15.234375 8.332031 "/>
<path style=" stroke:none;fill-rule:evenodd;fill:rgb(0%,60.784314%,22.745098%);fill-opacity:1;" d="M 15.683594 8.714844 C 15.730469 8.75 15.730469 8.820312 15.6875 8.871094 "/>
<path style=" stroke:none;fill-rule:nonzero;fill:rgb(100%,100%,100%);fill-opacity:1;" d="M 8.570312 7.109375 L 8.515625 7.273438 L 8.601562 7.300781 "/>
<path style=" stroke:none;fill-rule:nonzero;fill:rgb(100%,100%,100%);fill-opacity:1;" d="M 8.570312 7.109375 L 8.628906 7.273438 L 8.542969 7.300781 "/>
<path style=" stroke:none;fill-rule:nonzero;fill:rgb(100%,100%,100%);fill-opacity:1;" d="M 8.742188 7.230469 L 8.5625 7.230469 L 8.5625 7.3125 "/>
<path style=" stroke:none;fill-rule:nonzero;fill:rgb(100%,100%,100%);fill-opacity:1;" d="M 8.742188 7.230469 L 8.597656 7.328125 L 8.542969 7.261719 "/>
<path style=" stroke:none;fill-rule:nonzero;fill:rgb(100%,100%,100%);fill-opacity:1;" d="M 8.398438 7.230469 L 8.546875 7.328125 L 8.597656 7.261719 "/>
<path style=" stroke:none;fill-rule:nonzero;fill:rgb(100%,100%,100%);fill-opacity:1;" d="M 8.398438 7.230469 L 8.582031 7.230469 L 8.582031 7.3125 "/>
<path style=" stroke:none;fill-rule:nonzero;fill:rgb(100%,100%,100%);fill-opacity:1;" d="M 8.675781 7.421875 L 8.621094 7.257812 L 8.535156 7.285156 "/>
<path style=" stroke:none;fill-rule:nonzero;fill:rgb(100%,100%,100%);fill-opacity:1;" d="M 8.675781 7.421875 L 8.53125 7.320312 L 8.585938 7.25 "/>
<path style=" stroke:none;fill-rule:nonzero;fill:rgb(100%,100%,100%);fill-opacity:1;" d="M 8.464844 7.421875 L 8.609375 7.320312 L 8.558594 7.25 "/>
<path style=" stroke:none;fill-rule:nonzero;fill:rgb(100%,100%,100%);fill-opacity:1;" d="M 8.464844 7.421875 L 8.519531 7.257812 L 8.605469 7.285156 "/>
<path style=" stroke:none;fill-rule:nonzero;fill:rgb(100%,100%,100%);fill-opacity:1;" d="M 8.941406 8.792969 L 8.886719 8.953125 L 8.972656 8.980469 "/>
<path style=" stroke:none;fill-rule:nonzero;fill:rgb(100%,100%,100%);fill-opacity:1;" d="M 8.941406 8.792969 L 9 8.953125 L 8.914062 8.980469 "/>
<path style=" stroke:none;fill-rule:nonzero;fill:rgb(100%,100%,100%);fill-opacity:1;" d="M 9.113281 8.910156 L 8.933594 8.910156 L 8.933594 8.996094 "/>
<path style=" stroke:none;fill-rule:nonzero;fill:rgb(100%,100%,100%);fill-opacity:1;" d="M 9.113281 8.910156 L 8.96875 9.011719 L 8.914062 8.941406 "/>
<path style=" stroke:none;fill-rule:nonzero;fill:rgb(100%,100%,100%);fill-opacity:1;" d="M 8.773438 8.910156 L 8.917969 9.011719 L 8.96875 8.941406 "/>
<path style=" stroke:none;fill-rule:nonzero;fill:rgb(100%,100%,100%);fill-opacity:1;" d="M 8.773438 8.910156 L 8.953125 8.910156 L 8.953125 8.996094 "/>
<path style=" stroke:none;fill-rule:nonzero;fill:rgb(100%,100%,100%);fill-opacity:1;" d="M 9.046875 9.101562 L 8.992188 8.9375 L 8.90625 8.964844 "/>
<path style=" stroke:none;fill-rule:nonzero;fill:rgb(100%,100%,100%);fill-opacity:1;" d="M 9.046875 9.101562 L 8.902344 9 L 8.957031 8.933594 "/>
<path style=" stroke:none;fill-rule:nonzero;fill:rgb(100%,100%,100%);fill-opacity:1;" d="M 8.835938 9.101562 L 8.984375 9 L 8.929688 8.933594 "/>
<path style=" stroke:none;fill-rule:nonzero;fill:rgb(100%,100%,100%);fill-opacity:1;" d="M 8.835938 9.101562 L 8.894531 8.9375 L 8.976562 8.964844 "/>
<path style=" stroke:none;fill-rule:nonzero;fill:rgb(100%,100%,100%);fill-opacity:1;" d="M 8.429688 9.179688 L 8.382812 9.316406 L 8.453125 9.335938 "/>
<path style=" stroke:none;fill-rule:nonzero;fill:rgb(100%,100%,100%);fill-opacity:1;" d="M 8.429688 9.179688 L 8.476562 9.316406 L 8.402344 9.335938 "/>
<path style=" stroke:none;fill-rule:nonzero;fill:rgb(100%,100%,100%);fill-opacity:1;" d="M 8.570312 9.277344 L 8.421875 9.277344 L 8.421875 9.351562 "/>
<path style=" stroke:none;fill-rule:nonzero;fill:rgb(100%,100%,100%);fill-opacity:1;" d="M 8.570312 9.277344 L 8.449219 9.363281 L 8.40625 9.304688 "/>
<path style=" stroke:none;fill-rule:nonzero;fill:rgb(100%,100%,100%);fill-opacity:1;" d="M 8.285156 9.277344 L 8.40625 9.363281 L 8.453125 9.304688 "/>
<path style=" stroke:none;fill-rule:nonzero;fill:rgb(100%,100%,100%);fill-opacity:1;" d="M 8.285156 9.277344 L 8.4375 9.277344 L 8.4375 9.351562 "/>
<path style=" stroke:none;fill-rule:nonzero;fill:rgb(100%,100%,100%);fill-opacity:1;" d="M 8.515625 9.4375 L 8.46875 9.300781 L 8.398438 9.324219 "/>
<path style=" stroke:none;fill-rule:nonzero;fill:rgb(100%,100%,100%);fill-opacity:1;" d="M 8.515625 9.4375 L 8.394531 9.355469 L 8.441406 9.296875 "/>
<path style=" stroke:none;fill-rule:nonzero;fill:rgb(100%,100%,100%);fill-opacity:1;" d="M 8.339844 9.4375 L 8.460938 9.355469 L 8.417969 9.296875 "/>
<path style=" stroke:none;fill-rule:nonzero;fill:rgb(100%,100%,100%);fill-opacity:1;" d="M 8.339844 9.4375 L 8.386719 9.300781 L 8.457031 9.324219 "/>
<path style=" stroke:none;fill-rule:nonzero;fill:rgb(100%,100%,100%);fill-opacity:1;" d="M 9.355469 8.636719 L 9.328125 8.714844 L 9.367188 8.726562 "/>
<path style=" stroke:none;fill-rule:nonzero;fill:rgb(100%,100%,100%);fill-opacity:1;" d="M 9.355469 8.636719 L 9.378906 8.714844 L 9.339844 8.726562 "/>
<path style=" stroke:none;fill-rule:nonzero;fill:rgb(100%,100%,100%);fill-opacity:1;" d="M 9.4375 8.691406 L 9.351562 8.691406 L 9.351562 8.734375 "/>
<path style=" stroke:none;fill-rule:nonzero;fill:rgb(100%,100%,100%);fill-opacity:1;" d="M 9.4375 8.691406 L 9.367188 8.742188 L 9.339844 8.707031 "/>
<path style=" stroke:none;fill-rule:nonzero;fill:rgb(100%,100%,100%);fill-opacity:1;" d="M 9.273438 8.691406 L 9.34375 8.742188 L 9.367188 8.707031 "/>
<path style=" stroke:none;fill-rule:nonzero;fill:rgb(100%,100%,100%);fill-opacity:1;" d="M 9.273438 8.691406 L 9.359375 8.691406 L 9.359375 8.734375 "/>
<path style=" stroke:none;fill-rule:nonzero;fill:rgb(100%,100%,100%);fill-opacity:1;" d="M 9.40625 8.785156 L 9.378906 8.707031 L 9.335938 8.71875 "/>
<path style=" stroke:none;fill-rule:nonzero;fill:rgb(100%,100%,100%);fill-opacity:1;" d="M 9.40625 8.785156 L 9.335938 8.738281 L 9.359375 8.703125 "/>
<path style=" stroke:none;fill-rule:nonzero;fill:rgb(100%,100%,100%);fill-opacity:1;" d="M 9.304688 8.785156 L 9.375 8.738281 L 9.347656 8.703125 "/>
<path style=" stroke:none;fill-rule:nonzero;fill:rgb(100%,100%,100%);fill-opacity:1;" d="M 9.304688 8.785156 L 9.332031 8.707031 L 9.371094 8.71875 "/>
<path style=" stroke:none;fill-rule:nonzero;fill:rgb(100%,100%,100%);fill-opacity:1;" d="M 9.816406 9.21875 L 9.769531 9.355469 L 9.84375 9.375 "/>
<path style=" stroke:none;fill-rule:nonzero;fill:rgb(100%,100%,100%);fill-opacity:1;" d="M 9.816406 9.21875 L 9.863281 9.355469 L 9.792969 9.375 "/>
<path style=" stroke:none;fill-rule:nonzero;fill:rgb(100%,100%,100%);fill-opacity:1;" d="M 9.960938 9.316406 L 9.808594 9.316406 L 9.808594 9.386719 "/>
<path style=" stroke:none;fill-rule:nonzero;fill:rgb(100%,100%,100%);fill-opacity:1;" d="M 9.960938 9.316406 L 9.839844 9.398438 L 9.792969 9.34375 "/>
<path style=" stroke:none;fill-rule:nonzero;fill:rgb(100%,100%,100%);fill-opacity:1;" d="M 9.675781 9.316406 L 9.796875 9.398438 L 9.839844 9.34375 "/>
<path style=" stroke:none;fill-rule:nonzero;fill:rgb(100%,100%,100%);fill-opacity:1;" d="M 9.675781 9.316406 L 9.824219 9.316406 L 9.824219 9.386719 "/>
<path style=" stroke:none;fill-rule:nonzero;fill:rgb(100%,100%,100%);fill-opacity:1;" d="M 9.90625 9.476562 L 9.859375 9.339844 L 9.789062 9.363281 "/>
<path style=" stroke:none;fill-rule:nonzero;fill:rgb(100%,100%,100%);fill-opacity:1;" d="M 9.90625 9.476562 L 9.785156 9.390625 L 9.828125 9.335938 "/>
<path style=" stroke:none;fill-rule:nonzero;fill:rgb(100%,100%,100%);fill-opacity:1;" d="M 9.730469 9.476562 L 9.851562 9.390625 L 9.804688 9.335938 "/>
<path style=" stroke:none;fill-rule:nonzero;fill:rgb(100%,100%,100%);fill-opacity:1;" d="M 9.730469 9.476562 L 9.773438 9.339844 L 9.847656 9.363281 "/>
<path style=" stroke:none;fill-rule:nonzero;fill:rgb(100%,100%,100%);fill-opacity:1;" d="M 9.691406 9.644531 L 9.65625 9.753906 L 9.710938 9.769531 "/>
<path style=" stroke:none;fill-rule:nonzero;fill:rgb(100%,100%,100%);fill-opacity:1;" d="M 9.691406 9.644531 L 9.726562 9.753906 L 9.671875 9.769531 "/>
<path style=" stroke:none;fill-rule:nonzero;fill:rgb(100%,100%,100%);fill-opacity:1;" d="M 9.804688 9.722656 L 9.6875 9.722656 L 9.6875 9.78125 "/>
<path style=" stroke:none;fill-rule:nonzero;fill:rgb(100%,100%,100%);fill-opacity:1;" d="M 9.804688 9.722656 L 9.707031 9.789062 L 9.671875 9.742188 "/>
<path style=" stroke:none;fill-rule:nonzero;fill:rgb(100%,100%,100%);fill-opacity:1;" d="M 9.578125 9.722656 L 9.675781 9.789062 L 9.710938 9.742188 "/>
<path style=" stroke:none;fill-rule:nonzero;fill:rgb(100%,100%,100%);fill-opacity:1;" d="M 9.578125 9.722656 L 9.699219 9.722656 L 9.699219 9.78125 "/>
<path style=" stroke:none;fill-rule:nonzero;fill:rgb(100%,100%,100%);fill-opacity:1;" d="M 9.761719 9.851562 L 9.726562 9.742188 L 9.667969 9.757812 "/>
<path style=" stroke:none;fill-rule:nonzero;fill:rgb(100%,100%,100%);fill-opacity:1;" d="M 9.761719 9.851562 L 9.664062 9.78125 L 9.699219 9.738281 "/>
<path style=" stroke:none;fill-rule:nonzero;fill:rgb(100%,100%,100%);fill-opacity:1;" d="M 9.621094 9.851562 L 9.71875 9.78125 L 9.683594 9.738281 "/>
<path style=" stroke:none;fill-rule:nonzero;fill:rgb(100%,100%,100%);fill-opacity:1;" d="M 9.621094 9.851562 L 9.65625 9.742188 L 9.714844 9.757812 "/>
<path style=" stroke:none;fill-rule:nonzero;fill:rgb(100%,100%,100%);fill-opacity:1;" d="M 13.304688 6.585938 L 13.246094 6.75 L 13.332031 6.777344 "/>
<path style=" stroke:none;fill-rule:nonzero;fill:rgb(100%,100%,100%);fill-opacity:1;" d="M 13.304688 6.585938 L 13.359375 6.75 L 13.273438 6.777344 "/>
<path style=" stroke:none;fill-rule:nonzero;fill:rgb(100%,100%,100%);fill-opacity:1;" d="M 13.472656 6.707031 L 13.292969 6.707031 L 13.292969 6.792969 "/>
<path style=" stroke:none;fill-rule:nonzero;fill:rgb(100%,100%,100%);fill-opacity:1;" d="M 13.472656 6.707031 L 13.328125 6.808594 L 13.277344 6.738281 "/>
<path style=" stroke:none;fill-rule:nonzero;fill:rgb(100%,100%,100%);fill-opacity:1;" d="M 13.132812 6.707031 L 13.277344 6.808594 L 13.332031 6.738281 "/>
<path style=" stroke:none;fill-rule:nonzero;fill:rgb(100%,100%,100%);fill-opacity:1;" d="M 13.132812 6.707031 L 13.3125 6.707031 L 13.3125 6.792969 "/>
<path style=" stroke:none;fill-rule:nonzero;fill:rgb(100%,100%,100%);fill-opacity:1;" d="M 13.410156 6.898438 L 13.351562 6.734375 L 13.265625 6.761719 "/>
<path style=" stroke:none;fill-rule:nonzero;fill:rgb(100%,100%,100%);fill-opacity:1;" d="M 13.410156 6.898438 L 13.261719 6.796875 L 13.316406 6.726562 "/>
<path style=" stroke:none;fill-rule:nonzero;fill:rgb(100%,100%,100%);fill-opacity:1;" d="M 13.195312 6.898438 L 13.34375 6.796875 L 13.289062 6.726562 "/>
<path style=" stroke:none;fill-rule:nonzero;fill:rgb(100%,100%,100%);fill-opacity:1;" d="M 13.195312 6.898438 L 13.253906 6.734375 L 13.339844 6.761719 "/>
<path style=" stroke:none;fill-rule:nonzero;fill:rgb(100%,100%,100%);fill-opacity:1;" d="M 14.941406 9.234375 L 14.886719 9.394531 L 14.972656 9.421875 "/>
<path style=" stroke:none;fill-rule:nonzero;fill:rgb(100%,100%,100%);fill-opacity:1;" d="M 14.941406 9.234375 L 15 9.394531 L 14.914062 9.421875 "/>
<path style=" stroke:none;fill-rule:nonzero;fill:rgb(100%,100%,100%);fill-opacity:1;" d="M 15.113281 9.351562 L 14.933594 9.351562 L 14.933594 9.4375 "/>
<path style=" stroke:none;fill-rule:nonzero;fill:rgb(100%,100%,100%);fill-opacity:1;" d="M 15.113281 9.351562 L 14.96875 9.453125 L 14.914062 9.382812 "/>
<path style=" stroke:none;fill-rule:nonzero;fill:rgb(100%,100%,100%);fill-opacity:1;" d="M 14.773438 9.351562 L 14.917969 9.453125 L 14.96875 9.382812 "/>
<path style=" stroke:none;fill-rule:nonzero;fill:rgb(100%,100%,100%);fill-opacity:1;" d="M 14.773438 9.351562 L 14.953125 9.351562 L 14.953125 9.4375 "/>
<path style=" stroke:none;fill-rule:nonzero;fill:rgb(100%,100%,100%);fill-opacity:1;" d="M 15.046875 9.542969 L 14.992188 9.378906 L 14.90625 9.40625 "/>
<path style=" stroke:none;fill-rule:nonzero;fill:rgb(100%,100%,100%);fill-opacity:1;" d="M 15.046875 9.542969 L 14.902344 9.441406 L 14.957031 9.371094 "/>
<path style=" stroke:none;fill-rule:nonzero;fill:rgb(100%,100%,100%);fill-opacity:1;" d="M 14.835938 9.542969 L 14.984375 9.441406 L 14.929688 9.371094 "/>
<path style=" stroke:none;fill-rule:nonzero;fill:rgb(100%,100%,100%);fill-opacity:1;" d="M 14.835938 9.542969 L 14.894531 9.378906 L 14.976562 9.40625 "/>
<path style=" stroke:none;fill-rule:nonzero;fill:rgb(100%,100%,100%);fill-opacity:1;" d="M 15.527344 9.328125 L 15.488281 9.4375 L 15.546875 9.453125 "/>
<path style=" stroke:none;fill-rule:nonzero;fill:rgb(100%,100%,100%);fill-opacity:1;" d="M 15.527344 9.328125 L 15.5625 9.4375 L 15.503906 9.453125 "/>
<path style=" stroke:none;fill-rule:nonzero;fill:rgb(100%,100%,100%);fill-opacity:1;" d="M 15.640625 9.40625 L 15.519531 9.40625 L 15.519531 9.464844 "/>
<path style=" stroke:none;fill-rule:nonzero;fill:rgb(100%,100%,100%);fill-opacity:1;" d="M 15.640625 9.40625 L 15.542969 9.472656 L 15.507812 9.429688 "/>
<path style=" stroke:none;fill-rule:nonzero;fill:rgb(100%,100%,100%);fill-opacity:1;" d="M 15.410156 9.40625 L 15.507812 9.472656 L 15.542969 9.429688 "/>
<path style=" stroke:none;fill-rule:nonzero;fill:rgb(100%,100%,100%);fill-opacity:1;" d="M 15.410156 9.40625 L 15.53125 9.40625 L 15.53125 9.464844 "/>
<path style=" stroke:none;fill-rule:nonzero;fill:rgb(100%,100%,100%);fill-opacity:1;" d="M 15.597656 9.535156 L 15.558594 9.425781 L 15.503906 9.445312 "/>
<path style=" stroke:none;fill-rule:nonzero;fill:rgb(100%,100%,100%);fill-opacity:1;" d="M 15.597656 9.535156 L 15.5 9.46875 L 15.535156 9.421875 "/>
<path style=" stroke:none;fill-rule:nonzero;fill:rgb(100%,100%,100%);fill-opacity:1;" d="M 15.457031 9.535156 L 15.550781 9.46875 L 15.515625 9.421875 "/>
<path style=" stroke:none;fill-rule:nonzero;fill:rgb(100%,100%,100%);fill-opacity:1;" d="M 15.457031 9.535156 L 15.492188 9.425781 L 15.550781 9.445312 "/>
<path style=" stroke:none;fill-rule:nonzero;fill:rgb(100%,100%,100%);fill-opacity:1;" d="M 15.113281 9.613281 L 15.066406 9.75 L 15.140625 9.773438 "/>
<path style=" stroke:none;fill-rule:nonzero;fill:rgb(100%,100%,100%);fill-opacity:1;" d="M 15.113281 9.613281 L 15.160156 9.75 L 15.089844 9.773438 "/>
<path style=" stroke:none;fill-rule:nonzero;fill:rgb(100%,100%,100%);fill-opacity:1;" d="M 15.257812 9.714844 L 15.105469 9.714844 L 15.105469 9.785156 "/>
<path style=" stroke:none;fill-rule:nonzero;fill:rgb(100%,100%,100%);fill-opacity:1;" d="M 15.257812 9.714844 L 15.136719 9.796875 L 15.089844 9.738281 "/>
<path style=" stroke:none;fill-rule:nonzero;fill:rgb(100%,100%,100%);fill-opacity:1;" d="M 14.972656 9.714844 L 15.09375 9.796875 L 15.136719 9.738281 "/>
<path style=" stroke:none;fill-rule:nonzero;fill:rgb(100%,100%,100%);fill-opacity:1;" d="M 14.972656 9.714844 L 15.121094 9.714844 L 15.121094 9.785156 "/>
<path style=" stroke:none;fill-rule:nonzero;fill:rgb(100%,100%,100%);fill-opacity:1;" d="M 15.203125 9.875 L 15.15625 9.738281 L 15.085938 9.757812 "/>
<path style=" stroke:none;fill-rule:nonzero;fill:rgb(100%,100%,100%);fill-opacity:1;" d="M 15.203125 9.875 L 15.082031 9.789062 L 15.125 9.730469 "/>
<path style=" stroke:none;fill-rule:nonzero;fill:rgb(100%,100%,100%);fill-opacity:1;" d="M 15.027344 9.875 L 15.148438 9.789062 L 15.101562 9.730469 "/>
<path style=" stroke:none;fill-rule:nonzero;fill:rgb(100%,100%,100%);fill-opacity:1;" d="M 15.027344 9.875 L 15.074219 9.738281 L 15.144531 9.757812 "/>
<path style=" stroke:none;fill-rule:nonzero;fill:rgb(100%,100%,100%);fill-opacity:1;" d="M 14.101562 10.453125 L 14.054688 10.589844 L 14.128906 10.609375 "/>
<path style=" stroke:none;fill-rule:nonzero;fill:rgb(100%,100%,100%);fill-opacity:1;" d="M 14.101562 10.453125 L 14.148438 10.589844 L 14.078125 10.609375 "/>
<path style=" stroke:none;fill-rule:nonzero;fill:rgb(100%,100%,100%);fill-opacity:1;" d="M 14.246094 10.550781 L 14.09375 10.550781 L 14.09375 10.625 "/>
<path style=" stroke:none;fill-rule:nonzero;fill:rgb(100%,100%,100%);fill-opacity:1;" d="M 14.246094 10.550781 L 14.125 10.636719 L 14.082031 10.578125 "/>
<path style=" stroke:none;fill-rule:nonzero;fill:rgb(100%,100%,100%);fill-opacity:1;" d="M 13.960938 10.550781 L 14.082031 10.636719 L 14.125 10.578125 "/>
<path style=" stroke:none;fill-rule:nonzero;fill:rgb(100%,100%,100%);fill-opacity:1;" d="M 13.960938 10.550781 L 14.109375 10.550781 L 14.109375 10.625 "/>
<path style=" stroke:none;fill-rule:nonzero;fill:rgb(100%,100%,100%);fill-opacity:1;" d="M 14.191406 10.710938 L 14.144531 10.574219 L 14.074219 10.597656 "/>
<path style=" stroke:none;fill-rule:nonzero;fill:rgb(100%,100%,100%);fill-opacity:1;" d="M 14.191406 10.710938 L 14.070312 10.628906 L 14.113281 10.570312 "/>
<path style=" stroke:none;fill-rule:nonzero;fill:rgb(100%,100%,100%);fill-opacity:1;" d="M 14.015625 10.710938 L 14.136719 10.628906 L 14.09375 10.570312 "/>
<path style=" stroke:none;fill-rule:nonzero;fill:rgb(100%,100%,100%);fill-opacity:1;" d="M 14.015625 10.710938 L 14.0625 10.574219 L 14.132812 10.597656 "/>
<path style=" stroke:none;fill-rule:nonzero;fill:rgb(100%,100%,100%);fill-opacity:1;" d="M 14.097656 10.882812 L 14.058594 10.992188 L 14.117188 11.011719 "/>
<path style=" stroke:none;fill-rule:nonzero;fill:rgb(100%,100%,100%);fill-opacity:1;" d="M 14.097656 10.882812 L 14.132812 10.992188 L 14.078125 11.011719 "/>
<path style=" stroke:none;fill-rule:nonzero;fill:rgb(100%,100%,100%);fill-opacity:1;" d="M 14.210938 10.964844 L 14.089844 10.964844 L 14.089844 11.019531 "/>
<path style=" stroke:none;fill-rule:nonzero;fill:rgb(100%,100%,100%);fill-opacity:1;" d="M 14.210938 10.964844 L 14.113281 11.03125 L 14.078125 10.984375 "/>
<path style=" stroke:none;fill-rule:nonzero;fill:rgb(100%,100%,100%);fill-opacity:1;" d="M 13.984375 10.964844 L 14.082031 11.03125 L 14.117188 10.984375 "/>
<path style=" stroke:none;fill-rule:nonzero;fill:rgb(100%,100%,100%);fill-opacity:1;" d="M 13.984375 10.964844 L 14.101562 10.964844 L 14.101562 11.019531 "/>
<path style=" stroke:none;fill-rule:nonzero;fill:rgb(100%,100%,100%);fill-opacity:1;" d="M 14.167969 11.089844 L 14.128906 10.980469 L 14.074219 11 "/>
<path style=" stroke:none;fill-rule:nonzero;fill:rgb(100%,100%,100%);fill-opacity:1;" d="M 14.167969 11.089844 L 14.070312 11.023438 L 14.105469 10.976562 "/>
<path style=" stroke:none;fill-rule:nonzero;fill:rgb(100%,100%,100%);fill-opacity:1;" d="M 14.027344 11.089844 L 14.125 11.023438 L 14.089844 10.976562 "/>
<path style=" stroke:none;fill-rule:nonzero;fill:rgb(100%,100%,100%);fill-opacity:1;" d="M 14.027344 11.089844 L 14.0625 10.980469 L 14.121094 11 "/>
<path style=" stroke:none;fill-rule:nonzero;fill:rgb(100%,100%,100%);fill-opacity:1;" d="M 14.519531 10.164062 L 14.484375 10.273438 L 14.539062 10.292969 "/>
<path style=" stroke:none;fill-rule:nonzero;fill:rgb(100%,100%,100%);fill-opacity:1;" d="M 14.519531 10.164062 L 14.558594 10.273438 L 14.5 10.292969 "/>
<path style=" stroke:none;fill-rule:nonzero;fill:rgb(100%,100%,100%);fill-opacity:1;" d="M 14.632812 10.246094 L 14.515625 10.246094 L 14.515625 10.300781 "/>
<path style=" stroke:none;fill-rule:nonzero;fill:rgb(100%,100%,100%);fill-opacity:1;" d="M 14.632812 10.246094 L 14.535156 10.3125 L 14.5 10.265625 "/>
<path style=" stroke:none;fill-rule:nonzero;fill:rgb(100%,100%,100%);fill-opacity:1;" d="M 14.40625 10.246094 L 14.503906 10.3125 L 14.539062 10.265625 "/>
<path style=" stroke:none;fill-rule:nonzero;fill:rgb(100%,100%,100%);fill-opacity:1;" d="M 14.40625 10.246094 L 14.527344 10.246094 L 14.527344 10.300781 "/>
<path style=" stroke:none;fill-rule:nonzero;fill:rgb(100%,100%,100%);fill-opacity:1;" d="M 14.589844 10.371094 L 14.554688 10.265625 L 14.496094 10.28125 "/>
<path style=" stroke:none;fill-rule:nonzero;fill:rgb(100%,100%,100%);fill-opacity:1;" d="M 14.589844 10.371094 L 14.492188 10.304688 L 14.527344 10.257812 "/>
<path style=" stroke:none;fill-rule:nonzero;fill:rgb(100%,100%,100%);fill-opacity:1;" d="M 14.449219 10.371094 L 14.546875 10.304688 L 14.511719 10.257812 "/>
<path style=" stroke:none;fill-rule:nonzero;fill:rgb(100%,100%,100%);fill-opacity:1;" d="M 14.449219 10.371094 L 14.488281 10.265625 L 14.542969 10.28125 "/>
<path style=" stroke:none;fill-rule:nonzero;fill:rgb(100%,100%,100%);fill-opacity:1;" d="M 14.855469 9.9375 L 14.8125 10.070312 L 14.882812 10.09375 "/>
<path style=" stroke:none;fill-rule:nonzero;fill:rgb(100%,100%,100%);fill-opacity:1;" d="M 14.855469 9.9375 L 14.902344 10.070312 L 14.832031 10.09375 "/>
<path style=" stroke:none;fill-rule:nonzero;fill:rgb(100%,100%,100%);fill-opacity:1;" d="M 15 10.035156 L 14.851562 10.035156 L 14.851562 10.105469 "/>
<path style=" stroke:none;fill-rule:nonzero;fill:rgb(100%,100%,100%);fill-opacity:1;" d="M 15 10.035156 L 14.878906 10.117188 L 14.835938 10.0625 "/>
<path style=" stroke:none;fill-rule:nonzero;fill:rgb(100%,100%,100%);fill-opacity:1;" d="M 14.714844 10.035156 L 14.835938 10.117188 L 14.878906 10.0625 "/>
<path style=" stroke:none;fill-rule:nonzero;fill:rgb(100%,100%,100%);fill-opacity:1;" d="M 14.714844 10.035156 L 14.863281 10.035156 L 14.863281 10.105469 "/>
<path style=" stroke:none;fill-rule:nonzero;fill:rgb(100%,100%,100%);fill-opacity:1;" d="M 14.945312 10.195312 L 14.898438 10.058594 L 14.828125 10.082031 "/>
<path style=" stroke:none;fill-rule:nonzero;fill:rgb(100%,100%,100%);fill-opacity:1;" d="M 14.945312 10.195312 L 14.824219 10.109375 L 14.867188 10.050781 "/>
<path style=" stroke:none;fill-rule:nonzero;fill:rgb(100%,100%,100%);fill-opacity:1;" d="M 14.769531 10.195312 L 14.890625 10.109375 L 14.847656 10.050781 "/>
<path style=" stroke:none;fill-rule:nonzero;fill:rgb(100%,100%,100%);fill-opacity:1;" d="M 14.769531 10.195312 L 14.816406 10.058594 L 14.886719 10.082031 "/>
<path style=" stroke:none;fill-rule:nonzero;fill:rgb(100%,100%,100%);fill-opacity:1;" d="M 14.085938 10.089844 L 14.046875 10.199219 L 14.105469 10.214844 "/>
<path style=" stroke:none;fill-rule:nonzero;fill:rgb(100%,100%,100%);fill-opacity:1;" d="M 14.085938 10.089844 L 14.121094 10.199219 L 14.066406 10.214844 "/>
<path style=" stroke:none;fill-rule:nonzero;fill:rgb(100%,100%,100%);fill-opacity:1;" d="M 14.199219 10.167969 L 14.078125 10.167969 L 14.078125 10.226562 "/>
<path style=" stroke:none;fill-rule:nonzero;fill:rgb(100%,100%,100%);fill-opacity:1;" d="M 14.199219 10.167969 L 14.101562 10.234375 L 14.066406 10.191406 "/>
<path style=" stroke:none;fill-rule:nonzero;fill:rgb(100%,100%,100%);fill-opacity:1;" d="M 13.972656 10.167969 L 14.070312 10.234375 L 14.105469 10.191406 "/>
<path style=" stroke:none;fill-rule:nonzero;fill:rgb(100%,100%,100%);fill-opacity:1;" d="M 13.972656 10.167969 L 14.089844 10.167969 L 14.089844 10.226562 "/>
<path style=" stroke:none;fill-rule:nonzero;fill:rgb(100%,100%,100%);fill-opacity:1;" d="M 14.15625 10.296875 L 14.121094 10.1875 L 14.0625 10.207031 "/>
<path style=" stroke:none;fill-rule:nonzero;fill:rgb(100%,100%,100%);fill-opacity:1;" d="M 14.15625 10.296875 L 14.058594 10.230469 L 14.09375 10.183594 "/>
<path style=" stroke:none;fill-rule:nonzero;fill:rgb(100%,100%,100%);fill-opacity:1;" d="M 14.015625 10.296875 L 14.113281 10.230469 L 14.078125 10.183594 "/>
<path style=" stroke:none;fill-rule:nonzero;fill:rgb(100%,100%,100%);fill-opacity:1;" d="M 14.015625 10.296875 L 14.050781 10.1875 L 14.109375 10.207031 "/>
<path style=" stroke:none;fill-rule:nonzero;fill:rgb(100%,100%,100%);fill-opacity:1;" d="M 10.398438 8.019531 L 10.355469 8.15625 L 10.425781 8.179688 "/>
<path style=" stroke:none;fill-rule:nonzero;fill:rgb(100%,100%,100%);fill-opacity:1;" d="M 10.398438 8.019531 L 10.445312 8.15625 L 10.375 8.179688 "/>
<path style=" stroke:none;fill-rule:nonzero;fill:rgb(100%,100%,100%);fill-opacity:1;" d="M 10.542969 8.117188 L 10.394531 8.117188 L 10.394531 8.191406 "/>
<path style=" stroke:none;fill-rule:nonzero;fill:rgb(100%,100%,100%);fill-opacity:1;" d="M 10.542969 8.117188 L 10.421875 8.203125 L 10.378906 8.144531 "/>
<path style=" stroke:none;fill-rule:nonzero;fill:rgb(100%,100%,100%);fill-opacity:1;" d="M 10.257812 8.117188 L 10.378906 8.203125 L 10.421875 8.144531 "/>
<path style=" stroke:none;fill-rule:nonzero;fill:rgb(100%,100%,100%);fill-opacity:1;" d="M 10.257812 8.117188 L 10.40625 8.117188 L 10.40625 8.191406 "/>
<path style=" stroke:none;fill-rule:nonzero;fill:rgb(100%,100%,100%);fill-opacity:1;" d="M 10.488281 8.277344 L 10.441406 8.144531 L 10.371094 8.164062 "/>
<path style=" stroke:none;fill-rule:nonzero;fill:rgb(100%,100%,100%);fill-opacity:1;" d="M 10.488281 8.277344 L 10.367188 8.195312 L 10.410156 8.136719 "/>
<path style=" stroke:none;fill-rule:nonzero;fill:rgb(100%,100%,100%);fill-opacity:1;" d="M 10.3125 8.277344 L 10.433594 8.195312 L 10.390625 8.136719 "/>
<path style=" stroke:none;fill-rule:nonzero;fill:rgb(100%,100%,100%);fill-opacity:1;" d="M 10.3125 8.277344 L 10.359375 8.144531 L 10.429688 8.164062 "/>
<path style=" stroke:none;fill-rule:nonzero;fill:rgb(100%,100%,100%);fill-opacity:1;" d="M 13.144531 7.683594 L 13.105469 7.792969 L 13.164062 7.8125 "/>
<path style=" stroke:none;fill-rule:nonzero;fill:rgb(100%,100%,100%);fill-opacity:1;" d="M 13.144531 7.683594 L 13.179688 7.792969 L 13.121094 7.8125 "/>
<path style=" stroke:none;fill-rule:nonzero;fill:rgb(100%,100%,100%);fill-opacity:1;" d="M 13.257812 7.761719 L 13.136719 7.761719 L 13.136719 7.820312 "/>
<path style=" stroke:none;fill-rule:nonzero;fill:rgb(100%,100%,100%);fill-opacity:1;" d="M 13.257812 7.761719 L 13.160156 7.832031 L 13.125 7.785156 "/>
<path style=" stroke:none;fill-rule:nonzero;fill:rgb(100%,100%,100%);fill-opacity:1;" d="M 13.027344 7.761719 L 13.125 7.832031 L 13.160156 7.785156 "/>
<path style=" stroke:none;fill-rule:nonzero;fill:rgb(100%,100%,100%);fill-opacity:1;" d="M 13.027344 7.761719 L 13.148438 7.761719 L 13.148438 7.820312 "/>
<path style=" stroke:none;fill-rule:nonzero;fill:rgb(100%,100%,100%);fill-opacity:1;" d="M 13.214844 7.890625 L 13.175781 7.78125 L 13.121094 7.800781 "/>
<path style=" stroke:none;fill-rule:nonzero;fill:rgb(100%,100%,100%);fill-opacity:1;" d="M 13.214844 7.890625 L 13.117188 7.824219 L 13.152344 7.777344 "/>
<path style=" stroke:none;fill-rule:nonzero;fill:rgb(100%,100%,100%);fill-opacity:1;" d="M 13.074219 7.890625 L 13.167969 7.824219 L 13.132812 7.777344 "/>
<path style=" stroke:none;fill-rule:nonzero;fill:rgb(100%,100%,100%);fill-opacity:1;" d="M 13.074219 7.890625 L 13.109375 7.78125 L 13.167969 7.800781 "/>
<path style=" stroke:none;fill-rule:nonzero;fill:rgb(100%,100%,100%);fill-opacity:1;" d="M 12 9.625 L 11.945312 9.789062 L 12.03125 9.8125 "/>
<path style=" stroke:none;fill-rule:nonzero;fill:rgb(100%,100%,100%);fill-opacity:1;" d="M 12 9.625 L 12.054688 9.789062 L 11.96875 9.8125 "/>
<path style=" stroke:none;fill-rule:nonzero;fill:rgb(100%,100%,100%);fill-opacity:1;" d="M 12.171875 9.742188 L 11.992188 9.742188 L 11.992188 9.828125 "/>
<path style=" stroke:none;fill-rule:nonzero;fill:rgb(100%,100%,100%);fill-opacity:1;" d="M 12.171875 9.742188 L 12.027344 9.84375 L 11.972656 9.773438 "/>
<path style=" stroke:none;fill-rule:nonzero;fill:rgb(100%,100%,100%);fill-opacity:1;" d="M 11.828125 9.742188 L 11.972656 9.84375 L 12.027344 9.773438 "/>
<path style=" stroke:none;fill-rule:nonzero;fill:rgb(100%,100%,100%);fill-opacity:1;" d="M 11.828125 9.742188 L 12.007812 9.742188 L 12.007812 9.828125 "/>
<path style=" stroke:none;fill-rule:nonzero;fill:rgb(100%,100%,100%);fill-opacity:1;" d="M 12.105469 9.933594 L 12.050781 9.773438 L 11.964844 9.796875 "/>
<path style=" stroke:none;fill-rule:nonzero;fill:rgb(100%,100%,100%);fill-opacity:1;" d="M 12.105469 9.933594 L 11.960938 9.832031 L 12.011719 9.765625 "/>
<path style=" stroke:none;fill-rule:nonzero;fill:rgb(100%,100%,100%);fill-opacity:1;" d="M 11.894531 9.933594 L 12.039062 9.832031 L 11.988281 9.765625 "/>
<path style=" stroke:none;fill-rule:nonzero;fill:rgb(100%,100%,100%);fill-opacity:1;" d="M 11.894531 9.933594 L 11.949219 9.773438 L 12.035156 9.796875 "/>
<path style=" stroke:none;fill-rule:nonzero;fill:rgb(100%,100%,100%);fill-opacity:1;" d="M 12.484375 8.859375 L 12.4375 8.996094 L 12.511719 9.015625 "/>
<path style=" stroke:none;fill-rule:nonzero;fill:rgb(100%,100%,100%);fill-opacity:1;" d="M 12.484375 8.859375 L 12.53125 8.996094 L 12.460938 9.015625 "/>
<path style=" stroke:none;fill-rule:nonzero;fill:rgb(100%,100%,100%);fill-opacity:1;" d="M 12.628906 8.957031 L 12.476562 8.957031 L 12.476562 9.027344 "/>
<path style=" stroke:none;fill-rule:nonzero;fill:rgb(100%,100%,100%);fill-opacity:1;" d="M 12.628906 8.957031 L 12.507812 9.042969 L 12.464844 8.984375 "/>
<path style=" stroke:none;fill-rule:nonzero;fill:rgb(100%,100%,100%);fill-opacity:1;" d="M 12.34375 8.957031 L 12.464844 9.042969 L 12.507812 8.984375 "/>
<path style=" stroke:none;fill-rule:nonzero;fill:rgb(100%,100%,100%);fill-opacity:1;" d="M 12.34375 8.957031 L 12.492188 8.957031 L 12.492188 9.027344 "/>
<path style=" stroke:none;fill-rule:nonzero;fill:rgb(100%,100%,100%);fill-opacity:1;" d="M 12.574219 9.117188 L 12.527344 8.980469 L 12.457031 9.003906 "/>
<path style=" stroke:none;fill-rule:nonzero;fill:rgb(100%,100%,100%);fill-opacity:1;" d="M 12.574219 9.117188 L 12.453125 9.03125 L 12.496094 8.976562 "/>
<path style=" stroke:none;fill-rule:nonzero;fill:rgb(100%,100%,100%);fill-opacity:1;" d="M 12.398438 9.117188 L 12.519531 9.03125 L 12.476562 8.976562 "/>
<path style=" stroke:none;fill-rule:nonzero;fill:rgb(100%,100%,100%);fill-opacity:1;" d="M 12.398438 9.117188 L 12.445312 8.980469 L 12.515625 9.003906 "/>
<path style=" stroke:none;fill-rule:nonzero;fill:rgb(100%,100%,100%);fill-opacity:1;" d="M 12 8.5 L 11.953125 8.636719 L 12.023438 8.65625 "/>
<path style=" stroke:none;fill-rule:nonzero;fill:rgb(100%,100%,100%);fill-opacity:1;" d="M 12 8.5 L 12.046875 8.636719 L 11.976562 8.65625 "/>
<path style=" stroke:none;fill-rule:nonzero;fill:rgb(100%,100%,100%);fill-opacity:1;" d="M 12.144531 8.597656 L 11.992188 8.597656 L 11.992188 8.667969 "/>
<path style=" stroke:none;fill-rule:nonzero;fill:rgb(100%,100%,100%);fill-opacity:1;" d="M 12.144531 8.597656 L 12.019531 8.683594 L 11.976562 8.625 "/>
<path style=" stroke:none;fill-rule:nonzero;fill:rgb(100%,100%,100%);fill-opacity:1;" d="M 11.855469 8.597656 L 11.980469 8.683594 L 12.023438 8.625 "/>
<path style=" stroke:none;fill-rule:nonzero;fill:rgb(100%,100%,100%);fill-opacity:1;" d="M 11.855469 8.597656 L 12.007812 8.597656 L 12.007812 8.667969 "/>
<path style=" stroke:none;fill-rule:nonzero;fill:rgb(100%,100%,100%);fill-opacity:1;" d="M 12.089844 8.757812 L 12.042969 8.621094 L 11.96875 8.644531 "/>
<path style=" stroke:none;fill-rule:nonzero;fill:rgb(100%,100%,100%);fill-opacity:1;" d="M 12.089844 8.757812 L 11.96875 8.671875 L 12.011719 8.617188 "/>
<path style=" stroke:none;fill-rule:nonzero;fill:rgb(100%,100%,100%);fill-opacity:1;" d="M 11.910156 8.757812 L 12.03125 8.671875 L 11.988281 8.617188 "/>
<path style=" stroke:none;fill-rule:nonzero;fill:rgb(100%,100%,100%);fill-opacity:1;" d="M 11.910156 8.757812 L 11.957031 8.621094 L 12.03125 8.644531 "/>
<path style=" stroke:none;fill-rule:nonzero;fill:rgb(100%,100%,100%);fill-opacity:1;" d="M 11.578125 8.886719 L 11.539062 8.996094 L 11.597656 9.011719 "/>
<path style=" stroke:none;fill-rule:nonzero;fill:rgb(100%,100%,100%);fill-opacity:1;" d="M 11.578125 8.886719 L 11.613281 8.996094 L 11.558594 9.011719 "/>
<path style=" stroke:none;fill-rule:nonzero;fill:rgb(100%,100%,100%);fill-opacity:1;" d="M 11.691406 8.964844 L 11.570312 8.964844 L 11.570312 9.023438 "/>
<path style=" stroke:none;fill-rule:nonzero;fill:rgb(100%,100%,100%);fill-opacity:1;" d="M 11.691406 8.964844 L 11.59375 9.035156 L 11.558594 8.988281 "/>
<path style=" stroke:none;fill-rule:nonzero;fill:rgb(100%,100%,100%);fill-opacity:1;" d="M 11.464844 8.964844 L 11.558594 9.035156 L 11.59375 8.988281 "/>
<path style=" stroke:none;fill-rule:nonzero;fill:rgb(100%,100%,100%);fill-opacity:1;" d="M 11.464844 8.964844 L 11.582031 8.964844 L 11.582031 9.023438 "/>
<path style=" stroke:none;fill-rule:nonzero;fill:rgb(100%,100%,100%);fill-opacity:1;" d="M 11.648438 9.09375 L 11.609375 8.984375 L 11.554688 9.003906 "/>
<path style=" stroke:none;fill-rule:nonzero;fill:rgb(100%,100%,100%);fill-opacity:1;" d="M 11.648438 9.09375 L 11.550781 9.027344 L 11.585938 8.980469 "/>
<path style=" stroke:none;fill-rule:nonzero;fill:rgb(100%,100%,100%);fill-opacity:1;" d="M 11.507812 9.09375 L 11.605469 9.027344 L 11.570312 8.980469 "/>
<path style=" stroke:none;fill-rule:nonzero;fill:rgb(100%,100%,100%);fill-opacity:1;" d="M 11.507812 9.09375 L 11.542969 8.984375 L 11.601562 9.003906 "/>
<path style=" stroke:none;fill-rule:nonzero;fill:rgb(100%,100%,100%);fill-opacity:1;" d="M 11.789062 9.199219 L 11.761719 9.273438 L 11.804688 9.289062 "/>
<path style=" stroke:none;fill-rule:nonzero;fill:rgb(100%,100%,100%);fill-opacity:1;" d="M 11.789062 9.199219 L 11.816406 9.273438 L 11.773438 9.289062 "/>
<path style=" stroke:none;fill-rule:nonzero;fill:rgb(100%,100%,100%);fill-opacity:1;" d="M 11.871094 9.253906 L 11.785156 9.253906 L 11.785156 9.292969 "/>
<path style=" stroke:none;fill-rule:nonzero;fill:rgb(100%,100%,100%);fill-opacity:1;" d="M 11.871094 9.253906 L 11.800781 9.300781 L 11.777344 9.269531 "/>
<path style=" stroke:none;fill-rule:nonzero;fill:rgb(100%,100%,100%);fill-opacity:1;" d="M 11.707031 9.253906 L 11.777344 9.300781 L 11.800781 9.269531 "/>
<path style=" stroke:none;fill-rule:nonzero;fill:rgb(100%,100%,100%);fill-opacity:1;" d="M 11.707031 9.253906 L 11.792969 9.253906 L 11.792969 9.292969 "/>
<path style=" stroke:none;fill-rule:nonzero;fill:rgb(100%,100%,100%);fill-opacity:1;" d="M 11.839844 9.34375 L 11.8125 9.265625 L 11.773438 9.28125 "/>
<path style=" stroke:none;fill-rule:nonzero;fill:rgb(100%,100%,100%);fill-opacity:1;" d="M 11.839844 9.34375 L 11.769531 9.296875 L 11.792969 9.265625 "/>
<path style=" stroke:none;fill-rule:nonzero;fill:rgb(100%,100%,100%);fill-opacity:1;" d="M 11.738281 9.34375 L 11.808594 9.296875 L 11.78125 9.265625 "/>
<path style=" stroke:none;fill-rule:nonzero;fill:rgb(100%,100%,100%);fill-opacity:1;" d="M 11.738281 9.34375 L 11.765625 9.265625 L 11.804688 9.28125 "/>
<path style=" stroke:none;fill-rule:nonzero;fill:rgb(100%,100%,100%);fill-opacity:1;" d="M 13.257812 10.550781 L 13.210938 10.6875 L 13.28125 10.707031 "/>
<path style=" stroke:none;fill-rule:nonzero;fill:rgb(100%,100%,100%);fill-opacity:1;" d="M 13.257812 10.550781 L 13.304688 10.6875 L 13.230469 10.707031 "/>
<path style=" stroke:none;fill-rule:nonzero;fill:rgb(100%,100%,100%);fill-opacity:1;" d="M 13.398438 10.648438 L 13.25 10.648438 L 13.25 10.722656 "/>
<path style=" stroke:none;fill-rule:nonzero;fill:rgb(100%,100%,100%);fill-opacity:1;" d="M 13.398438 10.648438 L 13.277344 10.734375 L 13.234375 10.675781 "/>
<path style=" stroke:none;fill-rule:nonzero;fill:rgb(100%,100%,100%);fill-opacity:1;" d="M 13.113281 10.648438 L 13.234375 10.734375 L 13.28125 10.675781 "/>
<path style=" stroke:none;fill-rule:nonzero;fill:rgb(100%,100%,100%);fill-opacity:1;" d="M 13.113281 10.648438 L 13.265625 10.648438 L 13.265625 10.722656 "/>
<path style=" stroke:none;fill-rule:nonzero;fill:rgb(100%,100%,100%);fill-opacity:1;" d="M 13.34375 10.808594 L 13.300781 10.671875 L 13.226562 10.695312 "/>
<path style=" stroke:none;fill-rule:nonzero;fill:rgb(100%,100%,100%);fill-opacity:1;" d="M 13.34375 10.808594 L 13.222656 10.726562 L 13.269531 10.667969 "/>
<path style=" stroke:none;fill-rule:nonzero;fill:rgb(100%,100%,100%);fill-opacity:1;" d="M 13.167969 10.808594 L 13.289062 10.726562 L 13.246094 10.667969 "/>
<path style=" stroke:none;fill-rule:nonzero;fill:rgb(100%,100%,100%);fill-opacity:1;" d="M 13.167969 10.808594 L 13.214844 10.671875 L 13.285156 10.695312 "/>
<path style=" stroke:none;fill-rule:nonzero;fill:rgb(100%,100%,100%);fill-opacity:1;" d="M 13.617188 10.226562 L 13.578125 10.335938 L 13.636719 10.351562 "/>
<path style=" stroke:none;fill-rule:nonzero;fill:rgb(100%,100%,100%);fill-opacity:1;" d="M 13.617188 10.226562 L 13.652344 10.335938 L 13.597656 10.351562 "/>
<path style=" stroke:none;fill-rule:nonzero;fill:rgb(100%,100%,100%);fill-opacity:1;" d="M 13.730469 10.304688 L 13.609375 10.304688 L 13.609375 10.363281 "/>
<path style=" stroke:none;fill-rule:nonzero;fill:rgb(100%,100%,100%);fill-opacity:1;" d="M 13.730469 10.304688 L 13.632812 10.371094 L 13.597656 10.324219 "/>
<path style=" stroke:none;fill-rule:nonzero;fill:rgb(100%,100%,100%);fill-opacity:1;" d="M 13.503906 10.304688 L 13.601562 10.371094 L 13.636719 10.324219 "/>
<path style=" stroke:none;fill-rule:nonzero;fill:rgb(100%,100%,100%);fill-opacity:1;" d="M 13.503906 10.304688 L 13.621094 10.304688 L 13.621094 10.363281 "/>
<path style=" stroke:none;fill-rule:nonzero;fill:rgb(100%,100%,100%);fill-opacity:1;" d="M 13.6875 10.433594 L 13.652344 10.324219 L 13.59375 10.339844 "/>
<path style=" stroke:none;fill-rule:nonzero;fill:rgb(100%,100%,100%);fill-opacity:1;" d="M 13.6875 10.433594 L 13.589844 10.367188 L 13.625 10.320312 "/>
<path style=" stroke:none;fill-rule:nonzero;fill:rgb(100%,100%,100%);fill-opacity:1;" d="M 13.546875 10.433594 L 13.644531 10.367188 L 13.609375 10.320312 "/>
<path style=" stroke:none;fill-rule:nonzero;fill:rgb(100%,100%,100%);fill-opacity:1;" d="M 13.546875 10.433594 L 13.582031 10.324219 L 13.640625 10.339844 "/>
<path style=" stroke:none;fill-rule:nonzero;fill:rgb(100%,100%,100%);fill-opacity:1;" d="M 12.925781 10.128906 L 12.886719 10.238281 L 12.945312 10.253906 "/>
<path style=" stroke:none;fill-rule:nonzero;fill:rgb(100%,100%,100%);fill-opacity:1;" d="M 12.925781 10.128906 L 12.960938 10.238281 L 12.90625 10.253906 "/>
<path style=" stroke:none;fill-rule:nonzero;fill:rgb(100%,100%,100%);fill-opacity:1;" d="M 13.039062 10.207031 L 12.917969 10.207031 L 12.917969 10.265625 "/>
<path style=" stroke:none;fill-rule:nonzero;fill:rgb(100%,100%,100%);fill-opacity:1;" d="M 13.039062 10.207031 L 12.941406 10.273438 L 12.90625 10.226562 "/>
<path style=" stroke:none;fill-rule:nonzero;fill:rgb(100%,100%,100%);fill-opacity:1;" d="M 12.8125 10.207031 L 12.910156 10.273438 L 12.945312 10.226562 "/>
<path style=" stroke:none;fill-rule:nonzero;fill:rgb(100%,100%,100%);fill-opacity:1;" d="M 12.8125 10.207031 L 12.929688 10.207031 L 12.929688 10.265625 "/>
<path style=" stroke:none;fill-rule:nonzero;fill:rgb(100%,100%,100%);fill-opacity:1;" d="M 12.996094 10.335938 L 12.960938 10.226562 L 12.902344 10.242188 "/>
<path style=" stroke:none;fill-rule:nonzero;fill:rgb(100%,100%,100%);fill-opacity:1;" d="M 12.996094 10.335938 L 12.898438 10.265625 L 12.933594 10.222656 "/>
<path style=" stroke:none;fill-rule:nonzero;fill:rgb(100%,100%,100%);fill-opacity:1;" d="M 12.855469 10.335938 L 12.953125 10.265625 L 12.917969 10.222656 "/>
<path style=" stroke:none;fill-rule:nonzero;fill:rgb(100%,100%,100%);fill-opacity:1;" d="M 12.855469 10.335938 L 12.890625 10.226562 L 12.949219 10.242188 "/>
<path style=" stroke:none;fill-rule:nonzero;fill:rgb(100%,100%,100%);fill-opacity:1;" d="M 10.3125 9.949219 L 10.257812 10.113281 L 10.34375 10.140625 "/>
<path style=" stroke:none;fill-rule:nonzero;fill:rgb(100%,100%,100%);fill-opacity:1;" d="M 10.3125 9.949219 L 10.371094 10.113281 L 10.285156 10.140625 "/>
<path style=" stroke:none;fill-rule:nonzero;fill:rgb(100%,100%,100%);fill-opacity:1;" d="M 10.484375 10.070312 L 10.304688 10.070312 L 10.304688 10.15625 "/>
<path style=" stroke:none;fill-rule:nonzero;fill:rgb(100%,100%,100%);fill-opacity:1;" d="M 10.484375 10.070312 L 10.339844 10.171875 L 10.285156 10.101562 "/>
<path style=" stroke:none;fill-rule:nonzero;fill:rgb(100%,100%,100%);fill-opacity:1;" d="M 10.144531 10.070312 L 10.289062 10.171875 L 10.339844 10.101562 "/>
<path style=" stroke:none;fill-rule:nonzero;fill:rgb(100%,100%,100%);fill-opacity:1;" d="M 10.144531 10.070312 L 10.324219 10.070312 L 10.324219 10.15625 "/>
<path style=" stroke:none;fill-rule:nonzero;fill:rgb(100%,100%,100%);fill-opacity:1;" d="M 10.421875 10.261719 L 10.363281 10.097656 L 10.277344 10.125 "/>
<path style=" stroke:none;fill-rule:nonzero;fill:rgb(100%,100%,100%);fill-opacity:1;" d="M 10.421875 10.261719 L 10.273438 10.160156 L 10.328125 10.089844 "/>
<path style=" stroke:none;fill-rule:nonzero;fill:rgb(100%,100%,100%);fill-opacity:1;" d="M 10.207031 10.261719 L 10.355469 10.160156 L 10.300781 10.089844 "/>
<path style=" stroke:none;fill-rule:nonzero;fill:rgb(100%,100%,100%);fill-opacity:1;" d="M 10.207031 10.261719 L 10.265625 10.097656 L 10.351562 10.125 "/>
<path style=" stroke:none;fill-rule:nonzero;fill:rgb(100%,100%,100%);fill-opacity:1;" d="M 12 11.070312 L 11.980469 11.125 L 12.011719 11.136719 "/>
<path style=" stroke:none;fill-rule:nonzero;fill:rgb(100%,100%,100%);fill-opacity:1;" d="M 12 11.070312 L 12.019531 11.125 L 11.988281 11.136719 "/>
<path style=" stroke:none;fill-rule:nonzero;fill:rgb(100%,100%,100%);fill-opacity:1;" d="M 12.058594 11.113281 L 11.996094 11.113281 L 11.996094 11.140625 "/>
<path style=" stroke:none;fill-rule:nonzero;fill:rgb(100%,100%,100%);fill-opacity:1;" d="M 12.058594 11.113281 L 12.007812 11.144531 L 11.992188 11.121094 "/>
<path style=" stroke:none;fill-rule:nonzero;fill:rgb(100%,100%,100%);fill-opacity:1;" d="M 11.941406 11.113281 L 11.992188 11.144531 L 12.007812 11.121094 "/>
<path style=" stroke:none;fill-rule:nonzero;fill:rgb(100%,100%,100%);fill-opacity:1;" d="M 11.941406 11.113281 L 12.003906 11.113281 L 12.003906 11.140625 "/>
<path style=" stroke:none;fill-rule:nonzero;fill:rgb(100%,100%,100%);fill-opacity:1;" d="M 12.035156 11.175781 L 12.015625 11.121094 L 11.988281 11.128906 "/>
<path style=" stroke:none;fill-rule:nonzero;fill:rgb(100%,100%,100%);fill-opacity:1;" d="M 12.035156 11.175781 L 11.988281 11.140625 L 12.003906 11.117188 "/>
<path style=" stroke:none;fill-rule:nonzero;fill:rgb(100%,100%,100%);fill-opacity:1;" d="M 11.964844 11.175781 L 12.011719 11.140625 L 11.996094 11.117188 "/>
<path style=" stroke:none;fill-rule:nonzero;fill:rgb(100%,100%,100%);fill-opacity:1;" d="M 11.964844 11.175781 L 11.984375 11.121094 L 12.011719 11.128906 "/>
</g>
</svg>
