<?xml version="1.0" encoding="UTF-8"?>
<svg xmlns="http://www.w3.org/2000/svg" xmlns:xlink="http://www.w3.org/1999/xlink" width="24px" height="24px" viewBox="0 0 24 12" version="1.1">
<g id="surface1">
<rect x="0" y="0" width="24" height="12" style="fill:rgb(82.352941%,15.294118%,18.823529%);fill-opacity:1;stroke:none;"/>
<path style=" stroke:none;fill-rule:nonzero;fill:rgb(100%,100%,100%);fill-opacity:1;" d="M 0.132812 0 L 2.800781 0 L 2.800781 12 L 0.132812 12 Z M 0.132812 0 "/>
<path style=" stroke:none;fill-rule:nonzero;fill:rgb(82.352941%,15.294118%,18.823529%);fill-opacity:1;" d="M 1.523438 0 L 1.523438 0.433594 L 1.40625 0.433594 L 1.40625 0 Z M 0.0273438 0.761719 L 0.238281 0.761719 L 0.238281 0.585938 L 0.34375 0.585938 L 0.34375 0.375 L 0.492188 0.375 L 0.492188 0.191406 L 0.617188 0.191406 L 0.617188 0 L 0.988281 0 L 0.988281 0.191406 L 1.105469 0.191406 L 1.105469 0.375 L 1.257812 0.375 L 1.257812 0.585938 L 1.363281 0.585938 L 1.363281 0.761719 L 1.523438 0.761719 L 1.523438 1.03125 L 1.363281 1.03125 L 1.363281 1.203125 L 1.257812 1.203125 L 1.257812 1.414062 L 1.105469 1.414062 L 1.105469 1.597656 L 0.988281 1.597656 L 0.988281 1.792969 L 0.902344 1.792969 L 0.902344 1.960938 L 0.703125 1.960938 L 0.703125 1.792969 L 0.617188 1.792969 L 0.617188 1.597656 L 0.492188 1.597656 L 0.492188 1.414062 L 0.34375 1.414062 L 0.34375 1.203125 L 0.238281 1.203125 L 0.238281 1.03125 L 0.0273438 1.03125 M 0.0273438 0.0898438 L 0.238281 0.0898438 L 0.238281 0.332031 L 0.0273438 0.332031 M 0.851562 0.402344 L 0.742188 0.402344 L 0.742188 0.566406 L 0.640625 0.566406 L 0.640625 0.769531 L 0.539062 0.769531 L 0.539062 1.023438 L 0.640625 1.023438 L 0.640625 1.230469 L 0.742188 1.230469 L 0.742188 1.390625 L 0.851562 1.390625 L 0.851562 1.230469 L 0.957031 1.230469 L 0.957031 1.023438 L 1.0625 1.023438 L 1.0625 0.769531 L 0.957031 0.769531 L 0.957031 0.566406 L 0.851562 0.566406 Z M 0.863281 0.773438 L 0.863281 1.011719 L 0.734375 1.011719 L 0.734375 0.773438 Z M 0.0273438 1.402344 L 0.238281 1.402344 L 0.238281 1.660156 L 0.0273438 1.660156 M 1.523438 1.425781 L 1.523438 1.792969 L 1.40625 1.792969 L 1.40625 1.425781 Z M 1.238281 1.832031 L 1.238281 2.011719 L 1.367188 2.011719 L 1.367188 2.199219 L 1.523438 2.199219 L 1.523438 2.445312 L 1.367188 2.445312 L 1.367188 2.632812 L 1.238281 2.632812 L 1.238281 2.816406 L 1.089844 2.816406 L 1.089844 2.632812 L 0.960938 2.632812 L 0.960938 2.445312 L 0.851562 2.445312 L 0.851562 2.199219 L 0.960938 2.199219 L 0.960938 2.011719 L 1.089844 2.011719 L 1.089844 1.832031 Z M 0.0273438 2.199219 L 0.238281 2.199219 L 0.238281 2.011719 L 0.367188 2.011719 L 0.367188 1.832031 L 0.511719 1.832031 L 0.511719 2.011719 L 0.640625 2.011719 L 0.640625 2.199219 L 0.746094 2.199219 L 0.746094 2.445312 L 0.640625 2.445312 L 0.640625 2.632812 L 0.511719 2.632812 L 0.511719 2.816406 L 0.367188 2.816406 L 0.367188 2.632812 L 0.238281 2.632812 L 0.238281 2.445312 L 0.0273438 2.445312 M 1.21875 2.207031 L 1.109375 2.207031 L 1.109375 2.4375 L 1.21875 2.4375 Z M 0.496094 2.207031 L 0.386719 2.207031 L 0.386719 2.4375 L 0.496094 2.4375 Z M 0.539062 6.046875 L 0.539062 5.921875 L 0.449219 5.921875 L 0.449219 5.734375 L 0.328125 5.734375 L 0.328125 5.617188 L 0.238281 5.617188 L 0.238281 5.433594 L 0.0273438 5.433594 L 0.0273438 5.007812 L 0.238281 5.007812 L 0.238281 5.128906 L 0.328125 5.128906 L 0.328125 5.308594 L 0.449219 5.308594 L 0.449219 5.523438 L 0.617188 5.523438 L 0.617188 5.332031 L 0.742188 5.332031 L 0.742188 5.1875 L 0.835938 5.1875 L 0.835938 5.019531 L 0.953125 5.019531 L 0.953125 4.84375 L 1.042969 4.84375 L 1.042969 4.660156 L 1.128906 4.660156 L 1.128906 4.476562 L 1.242188 4.476562 L 1.242188 4.222656 L 1.089844 4.222656 L 1.089844 3.996094 L 0.925781 3.996094 L 0.925781 3.863281 L 0.648438 3.863281 L 0.648438 4.058594 L 0.808594 4.058594 L 0.808594 4.238281 L 0.703125 4.238281 L 0.703125 4.457031 L 0.574219 4.457031 L 0.574219 4.648438 L 0.417969 4.648438 L 0.417969 4.457031 L 0.289062 4.457031 L 0.289062 4.238281 L 0.207031 4.238281 L 0.207031 4.058594 L 0.0273438 4.058594 L 0.0273438 3.71875 L 0.238281 3.71875 L 0.238281 3.5 L 0.316406 3.5 L 0.316406 3.332031 L 0.390625 3.332031 L 0.390625 3.140625 L 0.5 3.140625 L 0.5 2.953125 L 0.601562 2.953125 L 0.601562 2.828125 L 0.726562 2.828125 L 0.726562 2.636719 L 0.878906 2.636719 L 0.878906 2.828125 L 1.003906 2.828125 L 1.003906 2.953125 L 1.113281 2.953125 L 1.113281 3.140625 L 1.214844 3.140625 L 1.214844 3.332031 L 1.300781 3.332031 L 1.300781 3.5 L 1.386719 3.5 L 1.386719 3.644531 L 1.523438 3.644531 L 1.523438 4.703125 L 1.367188 4.703125 L 1.367188 4.878906 L 1.324219 4.878906 L 1.324219 5.066406 L 1.207031 5.066406 L 1.207031 5.246094 L 1.132812 5.246094 L 1.132812 5.382812 L 1.058594 5.382812 L 1.058594 5.523438 L 0.929688 5.523438 L 0.929688 5.660156 L 0.746094 5.660156 L 0.746094 6.046875 M 1.523438 2.8125 L 1.523438 3.179688 L 1.40625 3.179688 L 1.40625 2.8125 Z M 0.0273438 2.882812 L 0.238281 2.882812 L 0.238281 3.140625 L 0.0273438 3.140625 M 0.0273438 4.4375 L 0.238281 4.4375 L 0.238281 4.695312 L 0.0273438 4.695312 Z M 1.519531 5.09375 L 1.519531 5.328125 L 1.40625 5.328125 L 1.40625 5.09375 Z M 1.367188 6.046875 L 1.367188 5.902344 L 1.296875 5.902344 L 1.296875 5.785156 L 1.195312 5.785156 L 1.195312 5.441406 L 1.296875 5.441406 L 1.296875 5.582031 L 1.402344 5.582031 L 1.402344 5.785156 L 1.519531 5.785156 L 1.519531 6.046875 M 0.949219 6.046875 L 0.949219 5.875 L 1.0625 5.875 L 1.0625 6.046875 "/>
<path style=" stroke:none;fill-rule:nonzero;fill:rgb(82.352941%,15.294118%,18.823529%);fill-opacity:1;" d="M 1.40625 0 L 1.40625 0.433594 L 1.523438 0.433594 L 1.523438 0 Z M 2.90625 0.761719 L 2.695312 0.761719 L 2.695312 0.585938 L 2.589844 0.585938 L 2.589844 0.375 L 2.441406 0.375 L 2.441406 0.191406 L 2.316406 0.191406 L 2.316406 0 L 1.945312 0 L 1.945312 0.191406 L 1.828125 0.191406 L 1.828125 0.375 L 1.675781 0.375 L 1.675781 0.585938 L 1.570312 0.585938 L 1.570312 0.761719 L 1.40625 0.761719 L 1.40625 1.03125 L 1.570312 1.03125 L 1.570312 1.203125 L 1.675781 1.203125 L 1.675781 1.414062 L 1.828125 1.414062 L 1.828125 1.597656 L 1.945312 1.597656 L 1.945312 1.792969 L 2.03125 1.792969 L 2.03125 1.960938 L 2.230469 1.960938 L 2.230469 1.792969 L 2.316406 1.792969 L 2.316406 1.597656 L 2.441406 1.597656 L 2.441406 1.414062 L 2.589844 1.414062 L 2.589844 1.203125 L 2.695312 1.203125 L 2.695312 1.03125 L 2.90625 1.03125 M 2.90625 0.0898438 L 2.695312 0.0898438 L 2.695312 0.332031 L 2.90625 0.332031 M 2.078125 0.402344 L 2.1875 0.402344 L 2.1875 0.566406 L 2.292969 0.566406 L 2.292969 0.769531 L 2.394531 0.769531 L 2.394531 1.023438 L 2.292969 1.023438 L 2.292969 1.230469 L 2.1875 1.230469 L 2.1875 1.390625 L 2.078125 1.390625 L 2.078125 1.230469 L 1.976562 1.230469 L 1.976562 1.023438 L 1.871094 1.023438 L 1.871094 0.769531 L 1.976562 0.769531 L 1.976562 0.566406 L 2.078125 0.566406 Z M 2.070312 0.773438 L 2.070312 1.011719 L 2.199219 1.011719 L 2.199219 0.773438 Z M 2.90625 1.402344 L 2.695312 1.402344 L 2.695312 1.660156 L 2.90625 1.660156 M 1.40625 1.425781 L 1.40625 1.792969 L 1.523438 1.792969 L 1.523438 1.425781 Z M 1.695312 1.832031 L 1.695312 2.011719 L 1.566406 2.011719 L 1.566406 2.199219 L 1.40625 2.199219 L 1.40625 2.445312 L 1.566406 2.445312 L 1.566406 2.632812 L 1.695312 2.632812 L 1.695312 2.816406 L 1.84375 2.816406 L 1.84375 2.632812 L 1.972656 2.632812 L 1.972656 2.445312 L 2.078125 2.445312 L 2.078125 2.199219 L 1.972656 2.199219 L 1.972656 2.011719 L 1.84375 2.011719 L 1.84375 1.832031 Z M 2.90625 2.199219 L 2.695312 2.199219 L 2.695312 2.011719 L 2.566406 2.011719 L 2.566406 1.832031 L 2.421875 1.832031 L 2.421875 2.011719 L 2.292969 2.011719 L 2.292969 2.199219 L 2.1875 2.199219 L 2.1875 2.445312 L 2.292969 2.445312 L 2.292969 2.632812 L 2.421875 2.632812 L 2.421875 2.816406 L 2.566406 2.816406 L 2.566406 2.632812 L 2.695312 2.632812 L 2.695312 2.445312 L 2.90625 2.445312 M 1.714844 2.207031 L 1.824219 2.207031 L 1.824219 2.4375 L 1.714844 2.4375 Z M 2.4375 2.207031 L 2.546875 2.207031 L 2.546875 2.4375 L 2.4375 2.4375 Z M 2.394531 6.046875 L 2.394531 5.921875 L 2.484375 5.921875 L 2.484375 5.734375 L 2.605469 5.734375 L 2.605469 5.617188 L 2.695312 5.617188 L 2.695312 5.433594 L 2.90625 5.433594 L 2.90625 5.007812 L 2.695312 5.007812 L 2.695312 5.128906 L 2.605469 5.128906 L 2.605469 5.308594 L 2.484375 5.308594 L 2.484375 5.523438 L 2.316406 5.523438 L 2.316406 5.332031 L 2.1875 5.332031 L 2.1875 5.1875 L 2.097656 5.1875 L 2.097656 5.019531 L 1.980469 5.019531 L 1.980469 4.84375 L 1.890625 4.84375 L 1.890625 4.660156 L 1.804688 4.660156 L 1.804688 4.476562 L 1.691406 4.476562 L 1.691406 4.222656 L 1.84375 4.222656 L 1.84375 3.996094 L 2.007812 3.996094 L 2.007812 3.863281 L 2.285156 3.863281 L 2.285156 4.058594 L 2.125 4.058594 L 2.125 4.238281 L 2.230469 4.238281 L 2.230469 4.457031 L 2.355469 4.457031 L 2.355469 4.648438 L 2.515625 4.648438 L 2.515625 4.457031 L 2.644531 4.457031 L 2.644531 4.238281 L 2.726562 4.238281 L 2.726562 4.058594 L 2.90625 4.058594 L 2.90625 3.71875 L 2.695312 3.71875 L 2.695312 3.5 L 2.617188 3.5 L 2.617188 3.332031 L 2.542969 3.332031 L 2.542969 3.140625 L 2.433594 3.140625 L 2.433594 2.953125 L 2.332031 2.953125 L 2.332031 2.828125 L 2.207031 2.828125 L 2.207031 2.636719 L 2.054688 2.636719 L 2.054688 2.828125 L 1.929688 2.828125 L 1.929688 2.953125 L 1.820312 2.953125 L 1.820312 3.140625 L 1.71875 3.140625 L 1.71875 3.332031 L 1.632812 3.332031 L 1.632812 3.5 L 1.546875 3.5 L 1.546875 3.644531 L 1.40625 3.644531 L 1.40625 4.703125 L 1.566406 4.703125 L 1.566406 4.878906 L 1.609375 4.878906 L 1.609375 5.066406 L 1.726562 5.066406 L 1.726562 5.246094 L 1.800781 5.246094 L 1.800781 5.382812 L 1.875 5.382812 L 1.875 5.523438 L 2.003906 5.523438 L 2.003906 5.660156 L 2.1875 5.660156 L 2.1875 6.046875 M 1.40625 2.8125 L 1.40625 3.179688 L 1.523438 3.179688 L 1.523438 2.8125 Z M 2.90625 2.882812 L 2.695312 2.882812 L 2.695312 3.140625 L 2.90625 3.140625 M 2.90625 4.4375 L 2.695312 4.4375 L 2.695312 4.695312 L 2.90625 4.695312 Z M 1.414062 5.09375 L 1.414062 5.328125 L 1.523438 5.328125 L 1.523438 5.09375 Z M 1.566406 6.046875 L 1.566406 5.902344 L 1.636719 5.902344 L 1.636719 5.785156 L 1.738281 5.785156 L 1.738281 5.441406 L 1.636719 5.441406 L 1.636719 5.582031 L 1.53125 5.582031 L 1.53125 5.785156 L 1.414062 5.785156 L 1.414062 6.046875 M 1.984375 6.046875 L 1.984375 5.875 L 1.871094 5.875 L 1.871094 6.046875 "/>
<path style=" stroke:none;fill-rule:nonzero;fill:rgb(82.352941%,15.294118%,18.823529%);fill-opacity:1;" d="M 1.523438 12 L 1.523438 11.566406 L 1.40625 11.566406 L 1.40625 12 Z M 0.0273438 11.238281 L 0.238281 11.238281 L 0.238281 11.414062 L 0.34375 11.414062 L 0.34375 11.625 L 0.492188 11.625 L 0.492188 11.808594 L 0.617188 11.808594 L 0.617188 12 L 0.988281 12 L 0.988281 11.808594 L 1.105469 11.808594 L 1.105469 11.625 L 1.257812 11.625 L 1.257812 11.414062 L 1.363281 11.414062 L 1.363281 11.238281 L 1.523438 11.238281 L 1.523438 10.96875 L 1.363281 10.96875 L 1.363281 10.796875 L 1.257812 10.796875 L 1.257812 10.585938 L 1.105469 10.585938 L 1.105469 10.402344 L 0.988281 10.402344 L 0.988281 10.207031 L 0.902344 10.207031 L 0.902344 10.039062 L 0.703125 10.039062 L 0.703125 10.207031 L 0.617188 10.207031 L 0.617188 10.402344 L 0.492188 10.402344 L 0.492188 10.585938 L 0.34375 10.585938 L 0.34375 10.796875 L 0.238281 10.796875 L 0.238281 10.96875 L 0.0273438 10.96875 M 0.0273438 11.910156 L 0.238281 11.910156 L 0.238281 11.667969 L 0.0273438 11.667969 M 0.851562 11.597656 L 0.742188 11.597656 L 0.742188 11.433594 L 0.640625 11.433594 L 0.640625 11.230469 L 0.539062 11.230469 L 0.539062 10.976562 L 0.640625 10.976562 L 0.640625 10.769531 L 0.742188 10.769531 L 0.742188 10.609375 L 0.851562 10.609375 L 0.851562 10.769531 L 0.957031 10.769531 L 0.957031 10.976562 L 1.0625 10.976562 L 1.0625 11.230469 L 0.957031 11.230469 L 0.957031 11.433594 L 0.851562 11.433594 Z M 0.863281 11.226562 L 0.863281 10.988281 L 0.734375 10.988281 L 0.734375 11.226562 Z M 0.0273438 10.597656 L 0.238281 10.597656 L 0.238281 10.339844 L 0.0273438 10.339844 M 1.523438 10.574219 L 1.523438 10.207031 L 1.40625 10.207031 L 1.40625 10.574219 Z M 1.238281 10.167969 L 1.238281 9.988281 L 1.367188 9.988281 L 1.367188 9.800781 L 1.523438 9.800781 L 1.523438 9.554688 L 1.367188 9.554688 L 1.367188 9.367188 L 1.238281 9.367188 L 1.238281 9.183594 L 1.089844 9.183594 L 1.089844 9.367188 L 0.960938 9.367188 L 0.960938 9.554688 L 0.851562 9.554688 L 0.851562 9.800781 L 0.960938 9.800781 L 0.960938 9.988281 L 1.089844 9.988281 L 1.089844 10.167969 Z M 0.0273438 9.800781 L 0.238281 9.800781 L 0.238281 9.988281 L 0.367188 9.988281 L 0.367188 10.167969 L 0.511719 10.167969 L 0.511719 9.988281 L 0.640625 9.988281 L 0.640625 9.800781 L 0.746094 9.800781 L 0.746094 9.554688 L 0.640625 9.554688 L 0.640625 9.367188 L 0.511719 9.367188 L 0.511719 9.183594 L 0.367188 9.183594 L 0.367188 9.367188 L 0.238281 9.367188 L 0.238281 9.554688 L 0.0273438 9.554688 M 1.21875 9.792969 L 1.109375 9.792969 L 1.109375 9.5625 L 1.21875 9.5625 Z M 0.496094 9.792969 L 0.386719 9.792969 L 0.386719 9.5625 L 0.496094 9.5625 Z M 0.539062 5.953125 L 0.539062 6.078125 L 0.449219 6.078125 L 0.449219 6.265625 L 0.328125 6.265625 L 0.328125 6.382812 L 0.238281 6.382812 L 0.238281 6.566406 L 0.0273438 6.566406 L 0.0273438 6.992188 L 0.238281 6.992188 L 0.238281 6.871094 L 0.328125 6.871094 L 0.328125 6.691406 L 0.449219 6.691406 L 0.449219 6.476562 L 0.617188 6.476562 L 0.617188 6.667969 L 0.742188 6.667969 L 0.742188 6.8125 L 0.835938 6.8125 L 0.835938 6.980469 L 0.953125 6.980469 L 0.953125 7.15625 L 1.042969 7.15625 L 1.042969 7.339844 L 1.128906 7.339844 L 1.128906 7.523438 L 1.242188 7.523438 L 1.242188 7.777344 L 1.089844 7.777344 L 1.089844 8.003906 L 0.925781 8.003906 L 0.925781 8.136719 L 0.648438 8.136719 L 0.648438 7.941406 L 0.808594 7.941406 L 0.808594 7.761719 L 0.703125 7.761719 L 0.703125 7.542969 L 0.574219 7.542969 L 0.574219 7.351562 L 0.417969 7.351562 L 0.417969 7.542969 L 0.289062 7.542969 L 0.289062 7.761719 L 0.207031 7.761719 L 0.207031 7.941406 L 0.0273438 7.941406 L 0.0273438 8.28125 L 0.238281 8.28125 L 0.238281 8.5 L 0.316406 8.5 L 0.316406 8.667969 L 0.390625 8.667969 L 0.390625 8.859375 L 0.5 8.859375 L 0.5 9.046875 L 0.601562 9.046875 L 0.601562 9.171875 L 0.726562 9.171875 L 0.726562 9.363281 L 0.878906 9.363281 L 0.878906 9.171875 L 1.003906 9.171875 L 1.003906 9.046875 L 1.113281 9.046875 L 1.113281 8.859375 L 1.214844 8.859375 L 1.214844 8.667969 L 1.300781 8.667969 L 1.300781 8.5 L 1.386719 8.5 L 1.386719 8.355469 L 1.523438 8.355469 L 1.523438 7.296875 L 1.367188 7.296875 L 1.367188 7.121094 L 1.324219 7.121094 L 1.324219 6.933594 L 1.207031 6.933594 L 1.207031 6.753906 L 1.132812 6.753906 L 1.132812 6.617188 L 1.058594 6.617188 L 1.058594 6.476562 L 0.929688 6.476562 L 0.929688 6.339844 L 0.746094 6.339844 L 0.746094 5.953125 M 1.523438 9.1875 L 1.523438 8.820312 L 1.40625 8.820312 L 1.40625 9.1875 Z M 0.0273438 9.117188 L 0.238281 9.117188 L 0.238281 8.859375 L 0.0273438 8.859375 M 0.0273438 7.5625 L 0.238281 7.5625 L 0.238281 7.304688 L 0.0273438 7.304688 Z M 1.519531 6.90625 L 1.519531 6.671875 L 1.40625 6.671875 L 1.40625 6.90625 Z M 1.367188 5.953125 L 1.367188 6.097656 L 1.296875 6.097656 L 1.296875 6.214844 L 1.195312 6.214844 L 1.195312 6.558594 L 1.296875 6.558594 L 1.296875 6.417969 L 1.402344 6.417969 L 1.402344 6.214844 L 1.519531 6.214844 L 1.519531 5.953125 M 0.949219 5.953125 L 0.949219 6.125 L 1.0625 6.125 L 1.0625 5.953125 "/>
<path style=" stroke:none;fill-rule:nonzero;fill:rgb(82.352941%,15.294118%,18.823529%);fill-opacity:1;" d="M 1.40625 12 L 1.40625 11.566406 L 1.523438 11.566406 L 1.523438 12 Z M 2.90625 11.238281 L 2.695312 11.238281 L 2.695312 11.414062 L 2.589844 11.414062 L 2.589844 11.625 L 2.441406 11.625 L 2.441406 11.808594 L 2.316406 11.808594 L 2.316406 12 L 1.945312 12 L 1.945312 11.808594 L 1.828125 11.808594 L 1.828125 11.625 L 1.675781 11.625 L 1.675781 11.414062 L 1.570312 11.414062 L 1.570312 11.238281 L 1.40625 11.238281 L 1.40625 10.96875 L 1.570312 10.96875 L 1.570312 10.796875 L 1.675781 10.796875 L 1.675781 10.585938 L 1.828125 10.585938 L 1.828125 10.402344 L 1.945312 10.402344 L 1.945312 10.207031 L 2.03125 10.207031 L 2.03125 10.039062 L 2.230469 10.039062 L 2.230469 10.207031 L 2.316406 10.207031 L 2.316406 10.402344 L 2.441406 10.402344 L 2.441406 10.585938 L 2.589844 10.585938 L 2.589844 10.796875 L 2.695312 10.796875 L 2.695312 10.96875 L 2.90625 10.96875 M 2.90625 11.910156 L 2.695312 11.910156 L 2.695312 11.667969 L 2.90625 11.667969 M 2.078125 11.597656 L 2.1875 11.597656 L 2.1875 11.433594 L 2.292969 11.433594 L 2.292969 11.230469 L 2.394531 11.230469 L 2.394531 10.976562 L 2.292969 10.976562 L 2.292969 10.769531 L 2.1875 10.769531 L 2.1875 10.609375 L 2.078125 10.609375 L 2.078125 10.769531 L 1.976562 10.769531 L 1.976562 10.976562 L 1.871094 10.976562 L 1.871094 11.230469 L 1.976562 11.230469 L 1.976562 11.433594 L 2.078125 11.433594 Z M 2.070312 11.226562 L 2.070312 10.988281 L 2.199219 10.988281 L 2.199219 11.226562 Z M 2.90625 10.597656 L 2.695312 10.597656 L 2.695312 10.339844 L 2.90625 10.339844 M 1.40625 10.574219 L 1.40625 10.207031 L 1.523438 10.207031 L 1.523438 10.574219 Z M 1.695312 10.167969 L 1.695312 9.988281 L 1.566406 9.988281 L 1.566406 9.800781 L 1.40625 9.800781 L 1.40625 9.554688 L 1.566406 9.554688 L 1.566406 9.367188 L 1.695312 9.367188 L 1.695312 9.183594 L 1.84375 9.183594 L 1.84375 9.367188 L 1.972656 9.367188 L 1.972656 9.554688 L 2.078125 9.554688 L 2.078125 9.800781 L 1.972656 9.800781 L 1.972656 9.988281 L 1.84375 9.988281 L 1.84375 10.167969 Z M 2.90625 9.800781 L 2.695312 9.800781 L 2.695312 9.988281 L 2.566406 9.988281 L 2.566406 10.167969 L 2.421875 10.167969 L 2.421875 9.988281 L 2.292969 9.988281 L 2.292969 9.800781 L 2.1875 9.800781 L 2.1875 9.554688 L 2.292969 9.554688 L 2.292969 9.367188 L 2.421875 9.367188 L 2.421875 9.183594 L 2.566406 9.183594 L 2.566406 9.367188 L 2.695312 9.367188 L 2.695312 9.554688 L 2.90625 9.554688 M 1.714844 9.792969 L 1.824219 9.792969 L 1.824219 9.5625 L 1.714844 9.5625 Z M 2.4375 9.792969 L 2.546875 9.792969 L 2.546875 9.5625 L 2.4375 9.5625 Z M 2.394531 5.953125 L 2.394531 6.078125 L 2.484375 6.078125 L 2.484375 6.265625 L 2.605469 6.265625 L 2.605469 6.382812 L 2.695312 6.382812 L 2.695312 6.566406 L 2.90625 6.566406 L 2.90625 6.992188 L 2.695312 6.992188 L 2.695312 6.871094 L 2.605469 6.871094 L 2.605469 6.691406 L 2.484375 6.691406 L 2.484375 6.476562 L 2.316406 6.476562 L 2.316406 6.667969 L 2.1875 6.667969 L 2.1875 6.8125 L 2.097656 6.8125 L 2.097656 6.980469 L 1.980469 6.980469 L 1.980469 7.15625 L 1.890625 7.15625 L 1.890625 7.339844 L 1.804688 7.339844 L 1.804688 7.523438 L 1.691406 7.523438 L 1.691406 7.777344 L 1.84375 7.777344 L 1.84375 8.003906 L 2.007812 8.003906 L 2.007812 8.136719 L 2.285156 8.136719 L 2.285156 7.941406 L 2.125 7.941406 L 2.125 7.761719 L 2.230469 7.761719 L 2.230469 7.542969 L 2.355469 7.542969 L 2.355469 7.351562 L 2.515625 7.351562 L 2.515625 7.542969 L 2.644531 7.542969 L 2.644531 7.761719 L 2.726562 7.761719 L 2.726562 7.941406 L 2.90625 7.941406 L 2.90625 8.28125 L 2.695312 8.28125 L 2.695312 8.5 L 2.617188 8.5 L 2.617188 8.667969 L 2.542969 8.667969 L 2.542969 8.859375 L 2.433594 8.859375 L 2.433594 9.046875 L 2.332031 9.046875 L 2.332031 9.171875 L 2.207031 9.171875 L 2.207031 9.363281 L 2.054688 9.363281 L 2.054688 9.171875 L 1.929688 9.171875 L 1.929688 9.046875 L 1.820312 9.046875 L 1.820312 8.859375 L 1.71875 8.859375 L 1.71875 8.667969 L 1.632812 8.667969 L 1.632812 8.5 L 1.546875 8.5 L 1.546875 8.355469 L 1.40625 8.355469 L 1.40625 7.296875 L 1.566406 7.296875 L 1.566406 7.121094 L 1.609375 7.121094 L 1.609375 6.933594 L 1.726562 6.933594 L 1.726562 6.753906 L 1.800781 6.753906 L 1.800781 6.617188 L 1.875 6.617188 L 1.875 6.476562 L 2.003906 6.476562 L 2.003906 6.339844 L 2.1875 6.339844 L 2.1875 5.953125 M 1.40625 9.1875 L 1.40625 8.820312 L 1.523438 8.820312 L 1.523438 9.1875 Z M 2.90625 9.117188 L 2.695312 9.117188 L 2.695312 8.859375 L 2.90625 8.859375 M 2.90625 7.5625 L 2.695312 7.5625 L 2.695312 7.304688 L 2.90625 7.304688 Z M 1.414062 6.90625 L 1.414062 6.671875 L 1.523438 6.671875 L 1.523438 6.90625 Z M 1.566406 5.953125 L 1.566406 6.097656 L 1.636719 6.097656 L 1.636719 6.214844 L 1.738281 6.214844 L 1.738281 6.558594 L 1.636719 6.558594 L 1.636719 6.417969 L 1.53125 6.417969 L 1.53125 6.214844 L 1.414062 6.214844 L 1.414062 5.953125 M 1.984375 5.953125 L 1.984375 6.125 L 1.871094 6.125 L 1.871094 5.953125 "/>
<path style=" stroke:none;fill-rule:nonzero;fill:rgb(0%,59.215686%,22.352941%);fill-opacity:1;" d="M 2.800781 8 L 24 8 L 24 12 L 2.800781 12 Z M 2.800781 8 "/>
</g>
</svg>
