<?xml version="1.0" encoding="utf-8"?>
<svg viewBox="0 0 24 12" width="24px" height="24px" xmlns="http://www.w3.org/2000/svg">
  <defs/>
  <path fill="#d52b1e" d="M 0 0 L 6 0 L 6.248 0.248 L 17.753 0.248 L 18 0 L 24 0 L 24 12 L 18 12 L 17.753 11.753 L 6.248 11.753 L 6 12 L 0 12 L 0 0 Z"/>
  <path fill="#fff" d="M 6 0 L 18 0 L 18 12 L 6 12 L 6 0 Z M 12.225 11.075 L 12.113 8.918 C 12.106 8.766 12.24 8.647 12.39 8.673 L 14.538 9.05 L 14.248 8.25 C 14.223 8.185 14.243 8.111 14.298 8.068 L 16.65 6.163 L 16.12 5.915 C 16.046 5.88 16.01 5.795 16.035 5.718 L 16.5 4.288 L 15.145 4.575 C 15.069 4.591 14.993 4.551 14.963 4.48 L 14.7 3.863 L 13.643 4.998 C 13.556 5.088 13.404 5.052 13.369 4.932 C 13.361 4.907 13.36 4.881 13.365 4.855 L 13.875 2.225 L 13.058 2.698 C 12.976 2.745 12.872 2.714 12.83 2.63 L 12 1 L 11.17 2.63 C 11.128 2.714 11.024 2.745 10.943 2.698 L 10.125 2.225 L 10.635 4.855 C 10.659 4.978 10.54 5.08 10.422 5.039 C 10.398 5.031 10.375 5.016 10.358 4.998 L 9.3 3.863 L 9.038 4.48 C 9.007 4.551 8.931 4.591 8.855 4.575 L 7.5 4.288 L 7.965 5.718 C 7.99 5.795 7.954 5.88 7.88 5.915 L 7.35 6.163 L 9.703 8.068 C 9.757 8.111 9.777 8.185 9.753 8.25 L 9.463 9.05 L 11.61 8.673 C 11.76 8.647 11.894 8.766 11.888 8.918 L 11.775 11.075 L 12.225 11.075 Z"/>
</svg>