<?xml version="1.0" encoding="UTF-8"?>
<svg xmlns="http://www.w3.org/2000/svg" xmlns:xlink="http://www.w3.org/1999/xlink" width="24px" height="24px" viewBox="0 0 24 12" version="1.1">
<g id="surface1">
<rect x="0" y="0" width="24" height="12" style="fill:rgb(0%,50.196078%,0%);fill-opacity:1;stroke:none;"/>
<path style=" stroke:none;fill-rule:nonzero;fill:rgb(100%,87.843137%,0%);fill-opacity:1;" d="M 14.5 6 C 14.5 7.378906 13.378906 8.5 12 8.5 C 10.621094 8.5 9.5 7.378906 9.5 6 C 9.5 4.621094 10.621094 3.5 12 3.5 C 13.378906 3.5 14.5 4.621094 14.5 6 Z M 14.5 6 "/>
<path style=" stroke:none;fill-rule:nonzero;fill:rgb(0%,50.196078%,0%);fill-opacity:1;" d="M 14.835938 6 C 14.835938 7.136719 13.914062 8.058594 12.78125 8.058594 C 11.644531 8.058594 10.722656 7.136719 10.722656 6 C 10.722656 4.863281 11.644531 3.941406 12.78125 3.941406 C 13.914062 3.941406 14.835938 4.863281 14.835938 6 Z M 14.835938 6 "/>
<path style=" stroke:none;fill-rule:nonzero;fill:rgb(100%,87.843137%,0%);fill-opacity:1;" d="M 6.738281 3.5 C 6.738281 4.945312 5.566406 6.117188 4.117188 6.117188 C 2.671875 6.117188 1.5 4.945312 1.5 3.5 C 1.5 2.054688 2.671875 0.882812 4.117188 0.882812 C 5.566406 0.882812 6.738281 2.054688 6.738281 3.5 Z M 6.738281 3.5 "/>
<path style="fill-rule:nonzero;fill:rgb(50.196078%,12.54902%,0%);fill-opacity:1;stroke-width:23.333;stroke-linecap:butt;stroke-linejoin:miter;stroke:rgb(48.235294%,19.215686%,0%);stroke-opacity:1;stroke-miterlimit:4;" d="M 1653.75 2300.15625 L 1929.375 2300.15625 C 1929.375 2300.15625 1940.859375 2273.90625 1926.09375 2262.421875 C 1911.328125 2249.296875 1852.265625 2246.015625 1867.03125 2201.71875 C 1899.84375 2109.84375 1904.765625 2137.734375 1926.09375 1921.171875 C 1945.78125 1702.96875 1955.625 1361.71875 1955.625 1361.71875 L 1916.25 1361.71875 C 1916.25 1361.71875 1924.453125 1468.359375 1901.484375 1606.171875 C 1878.515625 1743.984375 1871.953125 1757.109375 1845.703125 1863.75 C 1821.09375 1968.75 1817.8125 1978.59375 1794.84375 2039.296875 C 1771.875 2101.640625 1768.59375 2104.921875 1734.140625 2162.34375 C 1698.046875 2219.765625 1711.171875 2198.4375 1691.484375 2232.890625 C 1680 2249.296875 1668.515625 2244.375 1661.953125 2257.5 C 1655.390625 2270.625 1653.75 2300.15625 1653.75 2300.15625 Z M 1653.75 2300.15625 " transform="matrix(0.00238095,0,0,0.00238095,0,0)"/>
<path style=" stroke:none;fill-rule:nonzero;fill:rgb(0%,50.196078%,0%);fill-opacity:1;" d="M 4.4375 1.59375 C 4.441406 1.695312 4.433594 1.828125 4.390625 1.9375 C 4.347656 2.058594 4.300781 2.179688 4.304688 2.308594 C 4.234375 2.332031 4.164062 2.160156 4.101562 2.261719 C 4.148438 2.398438 4.261719 2.507812 4.339844 2.632812 C 4.355469 2.671875 4.464844 2.773438 4.402344 2.796875 C 4.238281 2.738281 4.199219 2.53125 4.097656 2.40625 C 3.980469 2.195312 3.761719 2.046875 3.515625 2.035156 C 3.425781 2.039062 3.125 2.011719 3.203125 2.171875 C 3.316406 2.246094 3.457031 2.296875 3.570312 2.386719 C 3.65625 2.394531 3.808594 2.535156 3.800781 2.585938 C 3.652344 2.527344 3.582031 2.457031 3.421875 2.390625 C 3.207031 2.308594 2.910156 2.359375 2.789062 2.574219 C 2.765625 2.628906 2.734375 2.792969 2.804688 2.808594 C 2.886719 2.679688 3.003906 2.535156 3.175781 2.574219 C 3.3125 2.585938 3.023438 2.828125 3.132812 2.78125 C 3.167969 2.765625 3.25 2.710938 3.304688 2.707031 C 3.363281 2.699219 3.394531 2.742188 3.4375 2.746094 C 3.519531 2.757812 3.542969 2.796875 3.535156 2.816406 C 3.527344 2.839844 3.5 2.820312 3.414062 2.847656 C 3.371094 2.859375 3.347656 2.898438 3.296875 2.914062 C 3.246094 2.933594 3.140625 2.933594 3.101562 2.917969 C 2.964844 2.859375 2.742188 2.871094 2.699219 3.042969 C 2.699219 3.117188 2.632812 3.035156 2.601562 3.066406 C 2.578125 3.148438 2.570312 3.234375 2.449219 3.226562 C 2.375 3.304688 2.300781 3.382812 2.203125 3.4375 C 2.261719 3.566406 2.480469 3.3125 2.46875 3.417969 C 2.371094 3.550781 2.519531 3.578125 2.582031 3.476562 C 2.6875 3.363281 2.820312 3.226562 2.980469 3.339844 C 3.058594 3.410156 3.101562 3.300781 3.15625 3.308594 C 3.191406 3.394531 3.238281 3.3125 3.277344 3.285156 C 3.339844 3.277344 3.324219 3.367188 3.398438 3.3125 C 3.550781 3.210938 3.742188 3.296875 3.890625 3.199219 C 4.050781 3.125 3.914062 3.257812 3.867188 3.308594 C 3.796875 3.441406 3.859375 3.621094 3.707031 3.707031 C 3.648438 3.867188 3.78125 4.078125 3.644531 4.199219 C 3.625 4.273438 3.816406 4.265625 3.871094 4.296875 C 3.96875 4.300781 3.867188 4.078125 3.964844 4.046875 C 4.089844 4.128906 4.085938 3.90625 4.058594 3.839844 C 4.070312 3.6875 4.078125 3.519531 4.15625 3.378906 C 4.238281 3.207031 4.3125 3.449219 4.222656 3.515625 C 4.167969 3.671875 4.09375 3.871094 4.210938 4.015625 C 4.246094 4.023438 4.273438 4.105469 4.316406 4.128906 C 4.359375 4.15625 4.421875 4.125 4.433594 4.050781 C 4.488281 3.824219 4.460938 3.582031 4.539062 3.363281 C 4.597656 3.296875 4.675781 3.355469 4.710938 3.414062 C 4.820312 3.546875 4.902344 3.710938 5.039062 3.816406 C 5.160156 3.875 5.269531 3.960938 5.328125 4.089844 C 5.328125 4.1875 5.609375 4.203125 5.523438 4.09375 C 5.445312 3.988281 5.496094 3.882812 5.578125 3.8125 C 5.621094 3.820312 5.609375 3.742188 5.574219 3.773438 C 5.519531 3.761719 5.515625 3.660156 5.59375 3.707031 C 5.71875 3.75 5.582031 3.617188 5.535156 3.613281 C 5.425781 3.542969 5.304688 3.46875 5.25 3.351562 C 5.390625 3.351562 5.539062 3.429688 5.679688 3.382812 C 5.796875 3.320312 5.914062 3.386719 5.953125 3.488281 C 6.042969 3.472656 6.007812 3.382812 5.953125 3.355469 C 6.019531 3.328125 6.066406 3.269531 5.984375 3.222656 C 5.945312 3.167969 6.042969 3.074219 5.921875 3.078125 C 5.925781 2.984375 5.890625 2.902344 5.789062 2.871094 C 5.6875 2.785156 5.394531 2.996094 5.402344 2.804688 C 5.371094 2.699219 5.523438 2.789062 5.5625 2.738281 C 5.605469 2.628906 5.359375 2.636719 5.441406 2.554688 C 5.496094 2.519531 5.746094 2.46875 5.546875 2.433594 C 5.449219 2.460938 5.367188 2.4375 5.289062 2.390625 C 5.21875 2.507812 5.015625 2.328125 5.050781 2.535156 C 5.023438 2.617188 4.84375 2.820312 4.796875 2.664062 C 4.835938 2.539062 5.050781 2.5 4.984375 2.332031 C 4.972656 2.230469 4.886719 2.351562 4.847656 2.34375 C 4.828125 2.277344 4.910156 2.203125 4.96875 2.1875 C 5.082031 2.273438 5.085938 2.078125 5.195312 2.09375 C 5.273438 2.074219 5.167969 2.039062 5.144531 2.027344 C 5.167969 1.96875 5.289062 1.9375 5.167969 1.886719 C 5.0625 1.808594 4.984375 1.964844 4.898438 1.972656 C 4.816406 1.878906 4.976562 1.835938 5.019531 1.785156 C 5.019531 1.746094 4.925781 1.773438 4.953125 1.742188 C 4.980469 1.695312 5.148438 1.695312 5.070312 1.625 C 4.949219 1.585938 4.796875 1.597656 4.683594 1.648438 C 4.609375 1.671875 4.589844 1.835938 4.527344 1.828125 C 4.5 1.753906 4.535156 1.613281 4.4375 1.59375 Z M 5 3.179688 C 5.089844 3.164062 5 3.316406 4.957031 3.316406 C 4.960938 3.261719 4.828125 3.265625 4.910156 3.21875 C 4.9375 3.199219 4.96875 3.1875 5 3.179688 Z M 5 3.179688 "/>
<path style=" stroke:none;fill-rule:nonzero;fill:rgb(100%,87.843137%,0%);fill-opacity:1;" d="M 18 9.144531 L 18.164062 9.65625 L 18.671875 9.464844 L 18.371094 9.914062 L 18.835938 10.191406 L 18.296875 10.238281 L 18.371094 10.773438 L 18 10.382812 L 17.628906 10.773438 L 17.703125 10.238281 L 17.164062 10.191406 L 17.628906 9.914062 L 17.328125 9.464844 L 17.835938 9.65625 Z M 18 9.144531 "/>
<path style=" stroke:none;fill-rule:nonzero;fill:rgb(100%,87.843137%,0%);fill-opacity:1;" d="M 15 4.394531 L 15.164062 4.90625 L 15.671875 4.714844 L 15.371094 5.164062 L 15.835938 5.441406 L 15.296875 5.488281 L 15.371094 6.023438 L 15 5.632812 L 14.628906 6.023438 L 14.703125 5.488281 L 14.164062 5.441406 L 14.628906 5.164062 L 14.328125 4.714844 L 14.835938 4.90625 Z M 15 4.394531 "/>
<path style=" stroke:none;fill-rule:nonzero;fill:rgb(100%,87.843137%,0%);fill-opacity:1;" d="M 18 1.144531 L 18.164062 1.65625 L 18.671875 1.464844 L 18.371094 1.914062 L 18.835938 2.191406 L 18.296875 2.238281 L 18.371094 2.773438 L 18 2.382812 L 17.628906 2.773438 L 17.703125 2.238281 L 17.164062 2.191406 L 17.628906 1.914062 L 17.328125 1.464844 L 17.835938 1.65625 Z M 18 1.144531 "/>
<path style=" stroke:none;fill-rule:nonzero;fill:rgb(100%,87.843137%,0%);fill-opacity:1;" d="M 20.667969 3.59375 L 20.832031 4.105469 L 21.335938 3.914062 L 21.039062 4.363281 L 21.503906 4.640625 L 20.964844 4.6875 L 21.039062 5.222656 L 20.667969 4.832031 L 20.292969 5.222656 L 20.367188 4.6875 L 19.832031 4.640625 L 20.296875 4.363281 L 19.996094 3.914062 L 20.5 4.105469 Z M 20.667969 3.59375 "/>
<path style=" stroke:none;fill-rule:nonzero;fill:rgb(100%,87.843137%,0%);fill-opacity:1;" d="M 19.199219 6 L 19.332031 6.320312 L 19.675781 6.34375 L 19.410156 6.570312 L 19.492188 6.90625 L 19.199219 6.722656 L 18.90625 6.90625 L 18.988281 6.570312 L 18.722656 6.34375 L 19.070312 6.320312 Z M 19.199219 6 "/>
</g>
</svg>
