<?xml version="1.0" encoding="UTF-8"?>
<svg xmlns="http://www.w3.org/2000/svg" xmlns:xlink="http://www.w3.org/1999/xlink" width="24px" height="24px" viewBox="0 0 24 12" version="1.1">
<defs>
<clipPath id="clip1">
  <path d="M 0 0 L 12 0 L 12 6 L 0 6 Z M 0 0 "/>
</clipPath>
<clipPath id="clip2">
  <path d="M 0 0 L 0 3 L 16 3 L 16 8 Z M 12 0 L 6 0 L 6 8 L -4 8 Z M 12 0 "/>
</clipPath>
<clipPath id="clip3">
  <path d="M 0 0 L 16 0 L 16 8 L 0 8 Z M 0 0 "/>
</clipPath>
<clipPath id="clip4">
  <path d="M 0 0 L 0 3 L 16 3 L 16 8 Z M 12 0 L 6 0 L 6 8 L -4 8 Z M 12 0 "/>
</clipPath>
</defs>
<g id="surface1">
<rect x="0" y="0" width="24" height="12" style="fill:rgb(0.392157%,12.941176%,41.176471%);fill-opacity:1;stroke:none;"/>
<path style="fill-rule:nonzero;fill:rgb(0.392157%,12.941176%,41.176471%);fill-opacity:1;stroke-width:0.6;stroke-linecap:butt;stroke-linejoin:miter;stroke:rgb(100%,100%,100%);stroke-opacity:1;stroke-miterlimit:4;" d="M 0 0 L 6 3 M 0 3 L 6 0 " transform="matrix(2,0,0,2,0,0)"/>
<g clip-path="url(#clip1)" clip-rule="nonzero">
<g clip-path="url(#clip2)" clip-rule="nonzero">
<path style=" stroke:none;fill-rule:nonzero;fill:rgb(0.392157%,12.941176%,41.176471%);fill-opacity:1;" d="M 0 0 L 12 6 M 0 6 L 12 0 "/>
</g>
</g>
<g clip-path="url(#clip3)" clip-rule="nonzero">
<g clip-path="url(#clip4)" clip-rule="nonzero">
<path style="fill:none;stroke-width:0.4;stroke-linecap:butt;stroke-linejoin:miter;stroke:rgb(78.431373%,6.27451%,18.039216%);stroke-opacity:1;stroke-miterlimit:4;" d="M 0 0 L 6 3 M 0 3 L 6 0 " transform="matrix(2,0,0,2,0,0)"/>
</g>
</g>
<path style="fill-rule:nonzero;fill:rgb(0.392157%,12.941176%,41.176471%);fill-opacity:1;stroke-width:1;stroke-linecap:butt;stroke-linejoin:miter;stroke:rgb(100%,100%,100%);stroke-opacity:1;stroke-miterlimit:4;" d="M 3 0 L 3 4 M 0 1.5 L 7 1.5 " transform="matrix(2,0,0,2,0,0)"/>
<path style="fill-rule:nonzero;fill:rgb(0.392157%,12.941176%,41.176471%);fill-opacity:1;stroke-width:0.6;stroke-linecap:butt;stroke-linejoin:miter;stroke:rgb(78.431373%,6.27451%,18.039216%);stroke-opacity:1;stroke-miterlimit:4;" d="M 3 0 L 3 4 M 0 1.5 L 7 1.5 " transform="matrix(2,0,0,2,0,0)"/>
<path style=" stroke:none;fill-rule:nonzero;fill:rgb(0.392157%,12.941176%,41.176471%);fill-opacity:1;" d="M 0 6 L 12 6 L 12 0 L 24 0 L 24 12 L 0 12 Z M 0 6 "/>
<path style=" stroke:none;fill-rule:nonzero;fill:rgb(100%,100%,100%);fill-opacity:1;" d="M 18 1.019531 L 18.203125 1.640625 L 18.855469 1.640625 L 18.328125 2.023438 L 18.53125 2.648438 L 18 2.265625 L 17.46875 2.648438 L 17.671875 2.023438 L 17.144531 1.640625 L 17.796875 1.640625 Z M 18 1.019531 "/>
<path style=" stroke:none;fill-rule:nonzero;fill:rgb(100%,100%,100%);fill-opacity:1;" d="M 20.027344 1.449219 L 19.957031 2.101562 L 20.554688 2.367188 L 19.914062 2.5 L 19.847656 3.152344 L 19.519531 2.589844 L 18.878906 2.722656 L 19.316406 2.234375 L 18.992188 1.671875 L 19.585938 1.9375 Z M 20.027344 1.449219 "/>
<path style=" stroke:none;fill-rule:nonzero;fill:rgb(100%,100%,100%);fill-opacity:1;" d="M 21.699219 2.667969 L 21.375 3.234375 L 21.808594 3.71875 L 21.171875 3.582031 L 20.847656 4.152344 L 20.777344 3.5 L 20.136719 3.363281 L 20.734375 3.097656 L 20.667969 2.449219 L 21.101562 2.933594 Z M 21.699219 2.667969 "/>
<path style=" stroke:none;fill-rule:nonzero;fill:rgb(100%,100%,100%);fill-opacity:1;" d="M 22.734375 4.460938 L 22.207031 4.847656 L 22.410156 5.464844 L 21.882812 5.082031 L 21.351562 5.46875 L 21.550781 4.847656 L 21.023438 4.460938 L 21.679688 4.460938 L 21.878906 3.839844 L 22.082031 4.460938 Z M 22.734375 4.460938 "/>
<path style=" stroke:none;fill-rule:nonzero;fill:rgb(100%,100%,100%);fill-opacity:1;" d="M 22.953125 6.519531 L 22.3125 6.65625 L 22.246094 7.304688 L 21.917969 6.742188 L 21.277344 6.878906 L 21.714844 6.390625 L 21.390625 5.824219 L 21.988281 6.089844 L 22.421875 5.605469 L 22.355469 6.253906 Z M 22.953125 6.519531 "/>
<path style=" stroke:none;fill-rule:nonzero;fill:rgb(100%,100%,100%);fill-opacity:1;" d="M 22.3125 8.488281 L 21.671875 8.355469 L 21.347656 8.917969 L 21.277344 8.269531 L 20.636719 8.136719 L 21.234375 7.867188 L 21.167969 7.21875 L 21.605469 7.703125 L 22.203125 7.4375 L 21.875 8.003906 Z M 22.3125 8.488281 "/>
<path style=" stroke:none;fill-rule:nonzero;fill:rgb(100%,100%,100%);fill-opacity:1;" d="M 20.925781 10.027344 L 20.398438 9.644531 L 19.871094 10.027344 L 20.070312 9.410156 L 19.542969 9.023438 L 20.195312 9.023438 L 20.398438 8.402344 L 20.601562 9.023438 L 21.253906 9.023438 L 20.726562 9.40625 Z M 20.925781 10.027344 "/>
<path style=" stroke:none;fill-rule:nonzero;fill:rgb(100%,100%,100%);fill-opacity:1;" d="M 19.035156 10.871094 L 18.707031 10.304688 L 18.070312 10.441406 L 18.507812 9.957031 L 18.179688 9.390625 L 18.777344 9.652344 L 19.214844 9.167969 L 19.148438 9.820312 L 19.742188 10.085938 L 19.105469 10.21875 Z M 19.035156 10.871094 "/>
<path style=" stroke:none;fill-rule:nonzero;fill:rgb(100%,100%,100%);fill-opacity:1;" d="M 16.964844 10.871094 L 16.894531 10.21875 L 16.257812 10.085938 L 16.851562 9.820312 L 16.785156 9.167969 L 17.222656 9.652344 L 17.820312 9.390625 L 17.492188 9.957031 L 17.929688 10.441406 L 17.292969 10.304688 Z M 16.964844 10.871094 "/>
<path style=" stroke:none;fill-rule:nonzero;fill:rgb(100%,100%,100%);fill-opacity:1;" d="M 15.074219 10.027344 L 15.273438 9.40625 L 14.746094 9.023438 L 15.398438 9.023438 L 15.601562 8.402344 L 15.804688 9.023438 L 16.457031 9.023438 L 15.929688 9.410156 L 16.128906 10.027344 L 15.601562 9.644531 Z M 15.074219 10.027344 "/>
<path style=" stroke:none;fill-rule:nonzero;fill:rgb(100%,100%,100%);fill-opacity:1;" d="M 13.6875 8.488281 L 14.125 8.003906 L 13.796875 7.4375 L 14.394531 7.703125 L 14.832031 7.21875 L 14.765625 7.867188 L 15.363281 8.136719 L 14.722656 8.269531 L 14.652344 8.917969 L 14.328125 8.355469 Z M 13.6875 8.488281 "/>
<path style=" stroke:none;fill-rule:nonzero;fill:rgb(100%,100%,100%);fill-opacity:1;" d="M 13.046875 6.519531 L 13.644531 6.253906 L 13.578125 5.605469 L 14.011719 6.089844 L 14.609375 5.824219 L 14.285156 6.390625 L 14.722656 6.878906 L 14.082031 6.742188 L 13.753906 7.304688 L 13.6875 6.65625 Z M 13.046875 6.519531 "/>
<path style=" stroke:none;fill-rule:nonzero;fill:rgb(100%,100%,100%);fill-opacity:1;" d="M 13.265625 4.460938 L 13.917969 4.460938 L 14.121094 3.839844 L 14.320312 4.460938 L 14.976562 4.460938 L 14.449219 4.847656 L 14.648438 5.46875 L 14.117188 5.082031 L 13.589844 5.464844 L 13.792969 4.847656 Z M 13.265625 4.460938 "/>
<path style=" stroke:none;fill-rule:nonzero;fill:rgb(100%,100%,100%);fill-opacity:1;" d="M 14.300781 2.667969 L 14.898438 2.933594 L 15.332031 2.449219 L 15.265625 3.097656 L 15.863281 3.363281 L 15.222656 3.5 L 15.152344 4.152344 L 14.828125 3.582031 L 14.191406 3.71875 L 14.625 3.234375 Z M 14.300781 2.667969 "/>
<path style=" stroke:none;fill-rule:nonzero;fill:rgb(100%,100%,100%);fill-opacity:1;" d="M 15.972656 1.449219 L 16.414062 1.9375 L 17.007812 1.671875 L 16.683594 2.234375 L 17.121094 2.722656 L 16.480469 2.589844 L 16.152344 3.152344 L 16.085938 2.5 L 15.445312 2.367188 L 16.042969 2.101562 Z M 15.972656 1.449219 "/>
</g>
</svg>
