<?xml version="1.0" encoding="UTF-8"?>
<svg xmlns="http://www.w3.org/2000/svg" xmlns:xlink="http://www.w3.org/1999/xlink" width="24px" height="24px" viewBox="0 0 24 16" version="1.1">
<g id="surface1">
<rect x="0" y="0" width="24" height="16" style="fill:rgb(83.529412%,16.862745%,11.764706%);fill-opacity:1;stroke:none;"/>
<path style=" stroke:none;fill-rule:nonzero;fill:rgb(100%,100%,100%);fill-opacity:1;" d="M 8 8 L 24 8 L 24 0 L 0 0 Z M 8 8 "/>
<path style=" stroke:none;fill-rule:nonzero;fill:rgb(0%,22.352941%,65.098039%);fill-opacity:1;" d="M 8 8 L 0 8 L 0 0 L 8 0 Z M 8 8 "/>
<path style=" stroke:none;fill-rule:nonzero;fill:rgb(100%,100%,100%);fill-opacity:1;" d="M 4 2 L 3.382812 3.902344 L 4.332031 4.210938 Z M 4 2 "/>
<path style=" stroke:none;fill-rule:nonzero;fill:rgb(100%,100%,100%);fill-opacity:1;" d="M 4 2 L 4.617188 3.902344 L 3.667969 4.210938 Z M 4 2 "/>
<path style=" stroke:none;fill-rule:nonzero;fill:rgb(100%,100%,100%);fill-opacity:1;" d="M 5.902344 3.382812 L 3.902344 3.382812 L 3.902344 4.382812 Z M 5.902344 3.382812 "/>
<path style=" stroke:none;fill-rule:nonzero;fill:rgb(100%,100%,100%);fill-opacity:1;" d="M 5.902344 3.382812 L 4.285156 4.558594 L 3.695312 3.75 Z M 5.902344 3.382812 "/>
<path style=" stroke:none;fill-rule:nonzero;fill:rgb(100%,100%,100%);fill-opacity:1;" d="M 2.097656 3.382812 L 3.714844 4.558594 L 4.304688 3.75 Z M 2.097656 3.382812 "/>
<path style=" stroke:none;fill-rule:nonzero;fill:rgb(100%,100%,100%);fill-opacity:1;" d="M 2.097656 3.382812 L 4.097656 3.382812 L 4.097656 4.382812 Z M 2.097656 3.382812 "/>
<path style=" stroke:none;fill-rule:nonzero;fill:rgb(100%,100%,100%);fill-opacity:1;" d="M 5.175781 5.617188 L 4.558594 3.714844 L 3.605469 4.023438 Z M 5.175781 5.617188 "/>
<path style=" stroke:none;fill-rule:nonzero;fill:rgb(100%,100%,100%);fill-opacity:1;" d="M 5.175781 5.617188 L 3.558594 4.441406 L 4.144531 3.632812 Z M 5.175781 5.617188 "/>
<path style=" stroke:none;fill-rule:nonzero;fill:rgb(100%,100%,100%);fill-opacity:1;" d="M 2.824219 5.617188 L 4.441406 4.441406 L 3.855469 3.632812 Z M 2.824219 5.617188 "/>
<path style=" stroke:none;fill-rule:nonzero;fill:rgb(100%,100%,100%);fill-opacity:1;" d="M 2.824219 5.617188 L 3.441406 3.714844 L 4.394531 4.023438 Z M 2.824219 5.617188 "/>
</g>
</svg>
