<?xml version="1.0" encoding="UTF-8"?>
<svg xmlns="http://www.w3.org/2000/svg" xmlns:xlink="http://www.w3.org/1999/xlink" width="24px" height="24px" viewBox="0 0 24 14" version="1.1">
<g id="surface1">
<rect x="0" y="0" width="24" height="14" style="fill:rgb(0%,21.960784%,57.647059%);fill-opacity:1;stroke:none;"/>
<path style=" stroke:none;fill-rule:nonzero;fill:rgb(100%,100%,100%);fill-opacity:1;" d="M 0 7 L 24 7 L 24 10.5 L 0 10.5 Z M 0 7 "/>
<path style=" stroke:none;fill-rule:nonzero;fill:rgb(81.176471%,12.54902%,15.294118%);fill-opacity:1;" d="M 0 8.167969 L 24 8.167969 L 24 9.332031 L 0 9.332031 Z M 0 8.167969 "/>
<path style=" stroke:none;fill-rule:nonzero;fill:rgb(96.862745%,81.960784%,8.627451%);fill-opacity:1;" d="M 9 4.550781 L 8.78125 5.214844 L 9.117188 5.324219 "/>
<path style=" stroke:none;fill-rule:nonzero;fill:rgb(96.862745%,81.960784%,8.627451%);fill-opacity:1;" d="M 9 4.550781 L 9.21875 5.214844 L 8.882812 5.324219 "/>
<path style=" stroke:none;fill-rule:nonzero;fill:rgb(96.862745%,81.960784%,8.627451%);fill-opacity:1;" d="M 9.671875 5.035156 L 8.964844 5.035156 L 8.964844 5.382812 "/>
<path style=" stroke:none;fill-rule:nonzero;fill:rgb(96.862745%,81.960784%,8.627451%);fill-opacity:1;" d="M 9.671875 5.035156 L 9.101562 5.445312 L 8.894531 5.160156 "/>
<path style=" stroke:none;fill-rule:nonzero;fill:rgb(96.862745%,81.960784%,8.627451%);fill-opacity:1;" d="M 9.414062 5.816406 L 9.195312 5.152344 L 8.859375 5.257812 "/>
<path style=" stroke:none;fill-rule:nonzero;fill:rgb(96.862745%,81.960784%,8.627451%);fill-opacity:1;" d="M 9.414062 5.816406 L 8.84375 5.40625 L 9.050781 5.121094 "/>
<path style=" stroke:none;fill-rule:nonzero;fill:rgb(96.862745%,81.960784%,8.627451%);fill-opacity:1;" d="M 8.585938 5.816406 L 9.15625 5.40625 L 8.949219 5.121094 "/>
<path style=" stroke:none;fill-rule:nonzero;fill:rgb(96.862745%,81.960784%,8.627451%);fill-opacity:1;" d="M 8.585938 5.816406 L 8.804688 5.152344 L 9.140625 5.257812 "/>
<path style=" stroke:none;fill-rule:nonzero;fill:rgb(96.862745%,81.960784%,8.627451%);fill-opacity:1;" d="M 8.328125 5.035156 L 8.898438 5.445312 L 9.105469 5.160156 "/>
<path style=" stroke:none;fill-rule:nonzero;fill:rgb(96.862745%,81.960784%,8.627451%);fill-opacity:1;" d="M 8.328125 5.035156 L 9.035156 5.035156 L 9.035156 5.382812 "/>
<path style=" stroke:none;fill-rule:nonzero;fill:rgb(96.862745%,81.960784%,8.627451%);fill-opacity:1;" d="M 9 11.550781 L 8.78125 12.214844 L 9.117188 12.324219 "/>
<path style=" stroke:none;fill-rule:nonzero;fill:rgb(96.862745%,81.960784%,8.627451%);fill-opacity:1;" d="M 9 11.550781 L 9.21875 12.214844 L 8.882812 12.324219 "/>
<path style=" stroke:none;fill-rule:nonzero;fill:rgb(96.862745%,81.960784%,8.627451%);fill-opacity:1;" d="M 9.671875 12.035156 L 8.964844 12.035156 L 8.964844 12.382812 "/>
<path style=" stroke:none;fill-rule:nonzero;fill:rgb(96.862745%,81.960784%,8.627451%);fill-opacity:1;" d="M 9.671875 12.035156 L 9.101562 12.445312 L 8.894531 12.160156 "/>
<path style=" stroke:none;fill-rule:nonzero;fill:rgb(96.862745%,81.960784%,8.627451%);fill-opacity:1;" d="M 9.414062 12.816406 L 9.195312 12.152344 L 8.859375 12.257812 "/>
<path style=" stroke:none;fill-rule:nonzero;fill:rgb(96.862745%,81.960784%,8.627451%);fill-opacity:1;" d="M 9.414062 12.816406 L 8.84375 12.40625 L 9.050781 12.121094 "/>
<path style=" stroke:none;fill-rule:nonzero;fill:rgb(96.862745%,81.960784%,8.627451%);fill-opacity:1;" d="M 8.585938 12.816406 L 9.15625 12.40625 L 8.949219 12.121094 "/>
<path style=" stroke:none;fill-rule:nonzero;fill:rgb(96.862745%,81.960784%,8.627451%);fill-opacity:1;" d="M 8.585938 12.816406 L 8.804688 12.152344 L 9.140625 12.257812 "/>
<path style=" stroke:none;fill-rule:nonzero;fill:rgb(96.862745%,81.960784%,8.627451%);fill-opacity:1;" d="M 8.328125 12.035156 L 8.898438 12.445312 L 9.105469 12.160156 "/>
<path style=" stroke:none;fill-rule:nonzero;fill:rgb(96.862745%,81.960784%,8.627451%);fill-opacity:1;" d="M 8.328125 12.035156 L 9.035156 12.035156 L 9.035156 12.382812 "/>
<path style=" stroke:none;fill-rule:nonzero;fill:rgb(96.862745%,81.960784%,8.627451%);fill-opacity:1;" d="M 13.027344 7.453125 L 12.320312 7.453125 L 12.320312 7.800781 "/>
<path style=" stroke:none;fill-rule:nonzero;fill:rgb(96.862745%,81.960784%,8.627451%);fill-opacity:1;" d="M 13.027344 7.453125 L 12.457031 7.863281 L 12.25 7.582031 "/>
<path style=" stroke:none;fill-rule:nonzero;fill:rgb(96.862745%,81.960784%,8.627451%);fill-opacity:1;" d="M 12.773438 8.234375 L 12.554688 7.570312 L 12.21875 7.675781 "/>
<path style=" stroke:none;fill-rule:nonzero;fill:rgb(96.862745%,81.960784%,8.627451%);fill-opacity:1;" d="M 12.773438 8.234375 L 12.199219 7.824219 L 12.40625 7.539062 "/>
<path style=" stroke:none;fill-rule:nonzero;fill:rgb(96.862745%,81.960784%,8.627451%);fill-opacity:1;" d="M 11.941406 8.234375 L 12.511719 7.824219 L 12.304688 7.539062 "/>
<path style=" stroke:none;fill-rule:nonzero;fill:rgb(96.862745%,81.960784%,8.627451%);fill-opacity:1;" d="M 11.941406 8.234375 L 12.160156 7.570312 L 12.496094 7.675781 "/>
<path style=" stroke:none;fill-rule:nonzero;fill:rgb(96.862745%,81.960784%,8.627451%);fill-opacity:1;" d="M 11.683594 7.453125 L 12.257812 7.863281 L 12.464844 7.582031 "/>
<path style=" stroke:none;fill-rule:nonzero;fill:rgb(96.862745%,81.960784%,8.627451%);fill-opacity:1;" d="M 11.683594 7.453125 L 12.390625 7.453125 L 12.390625 7.800781 "/>
<path style=" stroke:none;fill-rule:nonzero;fill:rgb(96.862745%,81.960784%,8.627451%);fill-opacity:1;" d="M 12.355469 6.96875 L 12.136719 7.632812 L 12.472656 7.742188 "/>
<path style=" stroke:none;fill-rule:nonzero;fill:rgb(96.862745%,81.960784%,8.627451%);fill-opacity:1;" d="M 12.355469 6.96875 L 12.574219 7.632812 L 12.238281 7.742188 "/>
<path style=" stroke:none;fill-rule:nonzero;fill:rgb(96.862745%,81.960784%,8.627451%);fill-opacity:1;" d="M 6.316406 9.617188 L 5.609375 9.617188 L 5.609375 9.964844 "/>
<path style=" stroke:none;fill-rule:nonzero;fill:rgb(96.862745%,81.960784%,8.627451%);fill-opacity:1;" d="M 6.316406 9.617188 L 5.742188 10.027344 L 5.535156 9.742188 "/>
<path style=" stroke:none;fill-rule:nonzero;fill:rgb(96.862745%,81.960784%,8.627451%);fill-opacity:1;" d="M 6.058594 10.398438 L 5.839844 9.730469 L 5.503906 9.839844 "/>
<path style=" stroke:none;fill-rule:nonzero;fill:rgb(96.862745%,81.960784%,8.627451%);fill-opacity:1;" d="M 6.058594 10.398438 L 5.488281 9.988281 L 5.695312 9.703125 "/>
<path style=" stroke:none;fill-rule:nonzero;fill:rgb(96.862745%,81.960784%,8.627451%);fill-opacity:1;" d="M 5.226562 10.398438 L 5.800781 9.988281 L 5.59375 9.703125 "/>
<path style=" stroke:none;fill-rule:nonzero;fill:rgb(96.862745%,81.960784%,8.627451%);fill-opacity:1;" d="M 5.226562 10.398438 L 5.445312 9.730469 L 5.78125 9.839844 "/>
<path style=" stroke:none;fill-rule:nonzero;fill:rgb(96.862745%,81.960784%,8.627451%);fill-opacity:1;" d="M 4.972656 9.617188 L 5.542969 10.027344 L 5.75 9.742188 "/>
<path style=" stroke:none;fill-rule:nonzero;fill:rgb(96.862745%,81.960784%,8.627451%);fill-opacity:1;" d="M 4.972656 9.617188 L 5.679688 9.617188 L 5.679688 9.964844 "/>
<path style=" stroke:none;fill-rule:nonzero;fill:rgb(96.862745%,81.960784%,8.627451%);fill-opacity:1;" d="M 5.644531 9.132812 L 5.425781 9.796875 L 5.761719 9.90625 "/>
<path style=" stroke:none;fill-rule:nonzero;fill:rgb(96.862745%,81.960784%,8.627451%);fill-opacity:1;" d="M 5.644531 9.132812 L 5.863281 9.796875 L 5.527344 9.90625 "/>
<path style=" stroke:none;fill-rule:nonzero;fill:rgb(96.862745%,81.960784%,8.627451%);fill-opacity:1;" d="M 11.488281 12.148438 L 11.269531 11.480469 L 10.9375 11.589844 "/>
<path style=" stroke:none;fill-rule:nonzero;fill:rgb(96.862745%,81.960784%,8.627451%);fill-opacity:1;" d="M 11.488281 12.148438 L 10.917969 11.738281 L 11.125 11.453125 "/>
<path style=" stroke:none;fill-rule:nonzero;fill:rgb(96.862745%,81.960784%,8.627451%);fill-opacity:1;" d="M 10.660156 12.148438 L 11.230469 11.738281 L 11.023438 11.453125 "/>
<path style=" stroke:none;fill-rule:nonzero;fill:rgb(96.862745%,81.960784%,8.627451%);fill-opacity:1;" d="M 10.660156 12.148438 L 10.878906 11.480469 L 11.214844 11.589844 "/>
<path style=" stroke:none;fill-rule:nonzero;fill:rgb(96.862745%,81.960784%,8.627451%);fill-opacity:1;" d="M 10.402344 11.367188 L 10.972656 11.777344 L 11.183594 11.492188 "/>
<path style=" stroke:none;fill-rule:nonzero;fill:rgb(96.862745%,81.960784%,8.627451%);fill-opacity:1;" d="M 10.402344 11.367188 L 11.109375 11.367188 L 11.109375 11.714844 "/>
<path style=" stroke:none;fill-rule:nonzero;fill:rgb(96.862745%,81.960784%,8.627451%);fill-opacity:1;" d="M 11.074219 10.882812 L 10.855469 11.546875 L 11.191406 11.65625 "/>
<path style=" stroke:none;fill-rule:nonzero;fill:rgb(96.862745%,81.960784%,8.627451%);fill-opacity:1;" d="M 11.074219 10.882812 L 11.292969 11.546875 L 10.957031 11.65625 "/>
<path style=" stroke:none;fill-rule:nonzero;fill:rgb(96.862745%,81.960784%,8.627451%);fill-opacity:1;" d="M 11.746094 11.367188 L 11.039062 11.367188 L 11.039062 11.714844 "/>
<path style=" stroke:none;fill-rule:nonzero;fill:rgb(96.862745%,81.960784%,8.627451%);fill-opacity:1;" d="M 11.746094 11.367188 L 11.175781 11.777344 L 10.96875 11.492188 "/>
<path style=" stroke:none;fill-rule:nonzero;fill:rgb(96.862745%,81.960784%,8.627451%);fill-opacity:1;" d="M 7.339844 6.484375 L 7.121094 5.820312 L 6.785156 5.925781 "/>
<path style=" stroke:none;fill-rule:nonzero;fill:rgb(96.862745%,81.960784%,8.627451%);fill-opacity:1;" d="M 7.339844 6.484375 L 6.769531 6.074219 L 6.976562 5.789062 "/>
<path style=" stroke:none;fill-rule:nonzero;fill:rgb(96.862745%,81.960784%,8.627451%);fill-opacity:1;" d="M 6.511719 6.484375 L 7.082031 6.074219 L 6.875 5.789062 "/>
<path style=" stroke:none;fill-rule:nonzero;fill:rgb(96.862745%,81.960784%,8.627451%);fill-opacity:1;" d="M 6.511719 6.484375 L 6.730469 5.820312 L 7.0625 5.925781 "/>
<path style=" stroke:none;fill-rule:nonzero;fill:rgb(96.862745%,81.960784%,8.627451%);fill-opacity:1;" d="M 6.253906 5.703125 L 6.824219 6.113281 L 7.03125 5.832031 "/>
<path style=" stroke:none;fill-rule:nonzero;fill:rgb(96.862745%,81.960784%,8.627451%);fill-opacity:1;" d="M 6.253906 5.703125 L 6.960938 5.703125 L 6.960938 6.050781 "/>
<path style=" stroke:none;fill-rule:nonzero;fill:rgb(96.862745%,81.960784%,8.627451%);fill-opacity:1;" d="M 6.925781 5.21875 L 6.707031 5.882812 L 7.042969 5.992188 "/>
<path style=" stroke:none;fill-rule:nonzero;fill:rgb(96.862745%,81.960784%,8.627451%);fill-opacity:1;" d="M 6.925781 5.21875 L 7.144531 5.882812 L 6.808594 5.992188 "/>
<path style=" stroke:none;fill-rule:nonzero;fill:rgb(96.862745%,81.960784%,8.627451%);fill-opacity:1;" d="M 7.597656 5.703125 L 6.890625 5.703125 L 6.890625 6.050781 "/>
<path style=" stroke:none;fill-rule:nonzero;fill:rgb(96.862745%,81.960784%,8.627451%);fill-opacity:1;" d="M 7.597656 5.703125 L 7.027344 6.113281 L 6.816406 5.832031 "/>
<path style=" stroke:none;fill-rule:nonzero;fill:rgb(96.862745%,81.960784%,8.627451%);fill-opacity:1;" d="M 6.511719 12.148438 L 7.082031 11.738281 L 6.875 11.453125 "/>
<path style=" stroke:none;fill-rule:nonzero;fill:rgb(96.862745%,81.960784%,8.627451%);fill-opacity:1;" d="M 6.511719 12.148438 L 6.730469 11.480469 L 7.0625 11.589844 "/>
<path style=" stroke:none;fill-rule:nonzero;fill:rgb(96.862745%,81.960784%,8.627451%);fill-opacity:1;" d="M 6.253906 11.367188 L 6.824219 11.777344 L 7.03125 11.492188 "/>
<path style=" stroke:none;fill-rule:nonzero;fill:rgb(96.862745%,81.960784%,8.627451%);fill-opacity:1;" d="M 6.253906 11.367188 L 6.960938 11.367188 L 6.960938 11.714844 "/>
<path style=" stroke:none;fill-rule:nonzero;fill:rgb(96.862745%,81.960784%,8.627451%);fill-opacity:1;" d="M 6.925781 10.882812 L 6.707031 11.546875 L 7.042969 11.65625 "/>
<path style=" stroke:none;fill-rule:nonzero;fill:rgb(96.862745%,81.960784%,8.627451%);fill-opacity:1;" d="M 6.925781 10.882812 L 7.144531 11.546875 L 6.808594 11.65625 "/>
<path style=" stroke:none;fill-rule:nonzero;fill:rgb(96.862745%,81.960784%,8.627451%);fill-opacity:1;" d="M 7.597656 11.367188 L 6.890625 11.367188 L 6.890625 11.714844 "/>
<path style=" stroke:none;fill-rule:nonzero;fill:rgb(96.862745%,81.960784%,8.627451%);fill-opacity:1;" d="M 7.597656 11.367188 L 7.027344 11.777344 L 6.816406 11.492188 "/>
<path style=" stroke:none;fill-rule:nonzero;fill:rgb(96.862745%,81.960784%,8.627451%);fill-opacity:1;" d="M 7.339844 12.148438 L 7.121094 11.480469 L 6.785156 11.589844 "/>
<path style=" stroke:none;fill-rule:nonzero;fill:rgb(96.862745%,81.960784%,8.627451%);fill-opacity:1;" d="M 7.339844 12.148438 L 6.769531 11.738281 L 6.976562 11.453125 "/>
<path style=" stroke:none;fill-rule:nonzero;fill:rgb(96.862745%,81.960784%,8.627451%);fill-opacity:1;" d="M 10.660156 6.484375 L 11.230469 6.074219 L 11.023438 5.789062 "/>
<path style=" stroke:none;fill-rule:nonzero;fill:rgb(96.862745%,81.960784%,8.627451%);fill-opacity:1;" d="M 10.660156 6.484375 L 10.878906 5.820312 L 11.214844 5.925781 "/>
<path style=" stroke:none;fill-rule:nonzero;fill:rgb(96.862745%,81.960784%,8.627451%);fill-opacity:1;" d="M 10.402344 5.703125 L 10.972656 6.113281 L 11.183594 5.832031 "/>
<path style=" stroke:none;fill-rule:nonzero;fill:rgb(96.862745%,81.960784%,8.627451%);fill-opacity:1;" d="M 10.402344 5.703125 L 11.109375 5.703125 L 11.109375 6.050781 "/>
<path style=" stroke:none;fill-rule:nonzero;fill:rgb(96.862745%,81.960784%,8.627451%);fill-opacity:1;" d="M 11.074219 5.21875 L 10.855469 5.882812 L 11.191406 5.992188 "/>
<path style=" stroke:none;fill-rule:nonzero;fill:rgb(96.862745%,81.960784%,8.627451%);fill-opacity:1;" d="M 11.074219 5.21875 L 11.292969 5.882812 L 10.957031 5.992188 "/>
<path style=" stroke:none;fill-rule:nonzero;fill:rgb(96.862745%,81.960784%,8.627451%);fill-opacity:1;" d="M 11.746094 5.703125 L 11.039062 5.703125 L 11.039062 6.050781 "/>
<path style=" stroke:none;fill-rule:nonzero;fill:rgb(96.862745%,81.960784%,8.627451%);fill-opacity:1;" d="M 11.746094 5.703125 L 11.175781 6.113281 L 10.96875 5.832031 "/>
<path style=" stroke:none;fill-rule:nonzero;fill:rgb(96.862745%,81.960784%,8.627451%);fill-opacity:1;" d="M 11.488281 6.484375 L 11.269531 5.820312 L 10.9375 5.925781 "/>
<path style=" stroke:none;fill-rule:nonzero;fill:rgb(96.862745%,81.960784%,8.627451%);fill-opacity:1;" d="M 11.488281 6.484375 L 10.917969 6.074219 L 11.125 5.789062 "/>
<path style=" stroke:none;fill-rule:nonzero;fill:rgb(96.862745%,81.960784%,8.627451%);fill-opacity:1;" d="M 4.972656 7.453125 L 5.542969 7.863281 L 5.75 7.582031 "/>
<path style=" stroke:none;fill-rule:nonzero;fill:rgb(96.862745%,81.960784%,8.627451%);fill-opacity:1;" d="M 4.972656 7.453125 L 5.679688 7.453125 L 5.679688 7.800781 "/>
<path style=" stroke:none;fill-rule:nonzero;fill:rgb(96.862745%,81.960784%,8.627451%);fill-opacity:1;" d="M 5.644531 6.96875 L 5.425781 7.632812 L 5.761719 7.742188 "/>
<path style=" stroke:none;fill-rule:nonzero;fill:rgb(96.862745%,81.960784%,8.627451%);fill-opacity:1;" d="M 5.644531 6.96875 L 5.863281 7.632812 L 5.527344 7.742188 "/>
<path style=" stroke:none;fill-rule:nonzero;fill:rgb(96.862745%,81.960784%,8.627451%);fill-opacity:1;" d="M 6.316406 7.453125 L 5.609375 7.453125 L 5.609375 7.800781 "/>
<path style=" stroke:none;fill-rule:nonzero;fill:rgb(96.862745%,81.960784%,8.627451%);fill-opacity:1;" d="M 6.316406 7.453125 L 5.742188 7.863281 L 5.535156 7.582031 "/>
<path style=" stroke:none;fill-rule:nonzero;fill:rgb(96.862745%,81.960784%,8.627451%);fill-opacity:1;" d="M 6.058594 8.234375 L 5.839844 7.570312 L 5.503906 7.675781 "/>
<path style=" stroke:none;fill-rule:nonzero;fill:rgb(96.862745%,81.960784%,8.627451%);fill-opacity:1;" d="M 6.058594 8.234375 L 5.488281 7.824219 L 5.695312 7.539062 "/>
<path style=" stroke:none;fill-rule:nonzero;fill:rgb(96.862745%,81.960784%,8.627451%);fill-opacity:1;" d="M 5.226562 8.234375 L 5.800781 7.824219 L 5.59375 7.539062 "/>
<path style=" stroke:none;fill-rule:nonzero;fill:rgb(96.862745%,81.960784%,8.627451%);fill-opacity:1;" d="M 5.226562 8.234375 L 5.445312 7.570312 L 5.78125 7.675781 "/>
<path style=" stroke:none;fill-rule:nonzero;fill:rgb(96.862745%,81.960784%,8.627451%);fill-opacity:1;" d="M 11.683594 9.617188 L 12.257812 10.027344 L 12.464844 9.742188 "/>
<path style=" stroke:none;fill-rule:nonzero;fill:rgb(96.862745%,81.960784%,8.627451%);fill-opacity:1;" d="M 11.683594 9.617188 L 12.390625 9.617188 L 12.390625 9.964844 "/>
<path style=" stroke:none;fill-rule:nonzero;fill:rgb(96.862745%,81.960784%,8.627451%);fill-opacity:1;" d="M 12.355469 9.132812 L 12.136719 9.796875 L 12.472656 9.90625 "/>
<path style=" stroke:none;fill-rule:nonzero;fill:rgb(96.862745%,81.960784%,8.627451%);fill-opacity:1;" d="M 12.355469 9.132812 L 12.574219 9.796875 L 12.238281 9.90625 "/>
<path style=" stroke:none;fill-rule:nonzero;fill:rgb(96.862745%,81.960784%,8.627451%);fill-opacity:1;" d="M 13.027344 9.617188 L 12.320312 9.617188 L 12.320312 9.964844 "/>
<path style=" stroke:none;fill-rule:nonzero;fill:rgb(96.862745%,81.960784%,8.627451%);fill-opacity:1;" d="M 13.027344 9.617188 L 12.457031 10.027344 L 12.25 9.742188 "/>
<path style=" stroke:none;fill-rule:nonzero;fill:rgb(96.862745%,81.960784%,8.627451%);fill-opacity:1;" d="M 12.773438 10.398438 L 12.554688 9.730469 L 12.21875 9.839844 "/>
<path style=" stroke:none;fill-rule:nonzero;fill:rgb(96.862745%,81.960784%,8.627451%);fill-opacity:1;" d="M 12.773438 10.398438 L 12.199219 9.988281 L 12.40625 9.703125 "/>
<path style=" stroke:none;fill-rule:nonzero;fill:rgb(96.862745%,81.960784%,8.627451%);fill-opacity:1;" d="M 11.941406 10.398438 L 12.511719 9.988281 L 12.304688 9.703125 "/>
<path style=" stroke:none;fill-rule:nonzero;fill:rgb(96.862745%,81.960784%,8.627451%);fill-opacity:1;" d="M 11.941406 10.398438 L 12.160156 9.730469 L 12.496094 9.839844 "/>
</g>
</svg>
