<?xml version="1.0" encoding="UTF-8"?>
<svg xmlns="http://www.w3.org/2000/svg" xmlns:xlink="http://www.w3.org/1999/xlink" width="24px" height="24px" viewBox="0 0 24 16" version="1.1">
<g id="surface1">
<rect x="0" y="0" width="24" height="16" style="fill:rgb(0%,16.862745%,49.803922%);fill-opacity:1;stroke:none;"/>
<path style=" stroke:none;fill-rule:nonzero;fill:rgb(97.647059%,90.980392%,7.843137%);fill-opacity:1;" d="M 0 10 L 24 10 L 24 12 L 0 12 Z M 0 10 "/>
<path style=" stroke:none;fill-rule:nonzero;fill:rgb(100%,100%,100%);fill-opacity:1;" d="M 5.332031 3.554688 L 4.785156 5.246094 L 5.628906 5.519531 Z M 5.332031 3.554688 "/>
<path style=" stroke:none;fill-rule:nonzero;fill:rgb(100%,100%,100%);fill-opacity:1;" d="M 5.332031 3.554688 L 5.882812 5.246094 L 5.039062 5.519531 Z M 5.332031 3.554688 "/>
<path style=" stroke:none;fill-rule:nonzero;fill:rgb(100%,100%,100%);fill-opacity:1;" d="M 7.023438 4.785156 L 5.246094 4.785156 L 5.246094 5.671875 Z M 7.023438 4.785156 "/>
<path style=" stroke:none;fill-rule:nonzero;fill:rgb(100%,100%,100%);fill-opacity:1;" d="M 7.023438 4.785156 L 5.585938 5.828125 L 5.0625 5.109375 Z M 7.023438 4.785156 "/>
<path style=" stroke:none;fill-rule:nonzero;fill:rgb(100%,100%,100%);fill-opacity:1;" d="M 3.640625 4.785156 L 5.082031 5.828125 L 5.601562 5.109375 Z M 3.640625 4.785156 "/>
<path style=" stroke:none;fill-rule:nonzero;fill:rgb(100%,100%,100%);fill-opacity:1;" d="M 3.640625 4.785156 L 5.421875 4.785156 L 5.421875 5.671875 Z M 3.640625 4.785156 "/>
<path style=" stroke:none;fill-rule:nonzero;fill:rgb(100%,100%,100%);fill-opacity:1;" d="M 6.378906 6.773438 L 5.828125 5.082031 L 4.984375 5.355469 Z M 6.378906 6.773438 "/>
<path style=" stroke:none;fill-rule:nonzero;fill:rgb(100%,100%,100%);fill-opacity:1;" d="M 6.378906 6.773438 L 4.941406 5.726562 L 5.460938 5.007812 Z M 6.378906 6.773438 "/>
<path style=" stroke:none;fill-rule:nonzero;fill:rgb(100%,100%,100%);fill-opacity:1;" d="M 4.289062 6.773438 L 5.726562 5.726562 L 5.203125 5.007812 Z M 4.289062 6.773438 "/>
<path style=" stroke:none;fill-rule:nonzero;fill:rgb(100%,100%,100%);fill-opacity:1;" d="M 4.289062 6.773438 L 4.835938 5.082031 L 5.683594 5.355469 Z M 4.289062 6.773438 "/>
<path style=" stroke:none;fill-rule:nonzero;fill:rgb(100%,100%,100%);fill-opacity:1;" d="M 2.667969 1.332031 L 2.253906 2.601562 L 2.890625 2.808594 Z M 2.667969 1.332031 "/>
<path style=" stroke:none;fill-rule:nonzero;fill:rgb(100%,100%,100%);fill-opacity:1;" d="M 2.667969 1.332031 L 3.078125 2.601562 L 2.445312 2.808594 Z M 2.667969 1.332031 "/>
<path style=" stroke:none;fill-rule:nonzero;fill:rgb(100%,100%,100%);fill-opacity:1;" d="M 3.933594 2.253906 L 2.601562 2.253906 L 2.601562 2.921875 Z M 3.933594 2.253906 "/>
<path style=" stroke:none;fill-rule:nonzero;fill:rgb(100%,100%,100%);fill-opacity:1;" d="M 3.933594 2.253906 L 2.855469 3.039062 L 2.464844 2.5 Z M 3.933594 2.253906 "/>
<path style=" stroke:none;fill-rule:nonzero;fill:rgb(100%,100%,100%);fill-opacity:1;" d="M 1.398438 2.253906 L 2.476562 3.039062 L 2.867188 2.5 Z M 1.398438 2.253906 "/>
<path style=" stroke:none;fill-rule:nonzero;fill:rgb(100%,100%,100%);fill-opacity:1;" d="M 1.398438 2.253906 L 2.730469 2.253906 L 2.730469 2.921875 Z M 1.398438 2.253906 "/>
<path style=" stroke:none;fill-rule:nonzero;fill:rgb(100%,100%,100%);fill-opacity:1;" d="M 3.449219 3.746094 L 3.039062 2.476562 L 2.40625 2.683594 Z M 3.449219 3.746094 "/>
<path style=" stroke:none;fill-rule:nonzero;fill:rgb(100%,100%,100%);fill-opacity:1;" d="M 3.449219 3.746094 L 2.371094 2.960938 L 2.761719 2.421875 Z M 3.449219 3.746094 "/>
<path style=" stroke:none;fill-rule:nonzero;fill:rgb(100%,100%,100%);fill-opacity:1;" d="M 1.882812 3.746094 L 2.960938 2.960938 L 2.570312 2.421875 Z M 1.882812 3.746094 "/>
<path style=" stroke:none;fill-rule:nonzero;fill:rgb(100%,100%,100%);fill-opacity:1;" d="M 1.882812 3.746094 L 2.296875 2.476562 L 2.929688 2.683594 Z M 1.882812 3.746094 "/>
</g>
</svg>
