<?xml version="1.0" encoding="UTF-8"?>
<svg xmlns="http://www.w3.org/2000/svg" xmlns:xlink="http://www.w3.org/1999/xlink" width="24px" height="24px" viewBox="0 0 24 12" version="1.1">
<g id="surface1">
<rect x="0" y="0" width="24" height="12" style="fill:rgb(0%,12.941176%,67.843137%);fill-opacity:1;stroke:none;"/>
<path style=" stroke:none;fill-rule:nonzero;fill:rgb(10.980392%,54.117647%,25.882353%);fill-opacity:1;" d="M 0 0 L 24 0 L 24 12 Z M 0 0 "/>
<path style=" stroke:none;fill-rule:nonzero;fill:rgb(100%,77.647059%,22.352941%);fill-opacity:1;" d="M 14.167969 6 C 14.167969 7.195312 13.195312 8.167969 12 8.167969 C 10.804688 8.167969 9.832031 7.195312 9.832031 6 C 9.832031 4.804688 10.804688 3.832031 12 3.832031 C 13.195312 3.832031 14.167969 4.804688 14.167969 6 Z M 14.167969 6 "/>
<path style=" stroke:none;fill-rule:nonzero;fill:rgb(10.980392%,54.117647%,25.882353%);fill-opacity:1;" d="M 10.675781 5.027344 C 10.824219 5.230469 11.050781 5.570312 11.230469 5.480469 C 11.371094 5.480469 11.445312 5.492188 11.460938 5.585938 C 11.796875 5.644531 12.355469 5.503906 12.703125 5.050781 C 12.703125 5.050781 12.730469 5.054688 12.722656 4.882812 C 12.722656 4.804688 12.824219 4.820312 12.828125 4.84375 C 12.839844 4.882812 12.839844 4.910156 12.855469 4.910156 C 12.898438 4.898438 12.957031 4.800781 13.007812 4.738281 C 13.019531 4.714844 13.011719 4.683594 13.015625 4.652344 C 13.042969 4.585938 13.105469 4.601562 13.121094 4.632812 C 13.132812 4.65625 13.132812 4.671875 13.144531 4.695312 C 13.210938 4.738281 13.328125 4.695312 13.339844 4.695312 C 13.351562 4.644531 13.382812 4.648438 13.382812 4.648438 C 13.429688 4.640625 13.410156 4.644531 13.441406 4.65625 C 13.414062 4.945312 13.496094 4.957031 13.488281 5.105469 C 13.492188 5.273438 13.441406 5.320312 13.441406 5.382812 C 13.457031 5.457031 13.699219 5.460938 13.613281 5.527344 C 13.539062 5.566406 13.613281 5.640625 13.5 5.671875 C 13.171875 5.839844 13.109375 5.980469 13.109375 5.980469 C 13.109375 5.980469 13.027344 6.136719 13.015625 6.136719 C 12.960938 6.242188 12.890625 6.183594 12.851562 6.234375 C 12.832031 6.300781 12.8125 6.441406 12.851562 6.515625 C 12.871094 6.617188 12.847656 6.671875 12.824219 6.773438 C 12.800781 6.984375 12.71875 7.015625 12.707031 7.089844 C 12.667969 7.167969 12.714844 7.539062 12.679688 7.539062 C 12.433594 7.542969 12.246094 7.492188 12.148438 7.472656 C 12.246094 7.066406 12.207031 6.707031 12.207031 6.671875 C 12.183594 6.378906 11.769531 6.449219 11.707031 6.410156 C 11.65625 6.402344 11.621094 6.359375 11.605469 6.339844 C 11.546875 6.332031 11.523438 6.320312 11.464844 6.3125 C 11.4375 6.328125 11.453125 6.34375 11.390625 6.363281 C 11.226562 6.382812 11.152344 6.21875 11.152344 6.21875 C 11.160156 6.164062 10.78125 6.230469 10.578125 6.183594 C 10.492188 6.230469 10.457031 6.371094 10.386719 6.386719 C 10.386719 6.429688 10.273438 6.351562 10.25 6.308594 C 10.246094 6.183594 10.359375 6.128906 10.359375 6.128906 C 10.449219 6.066406 10.5 6.058594 10.542969 6.015625 C 10.566406 5.90625 10.554688 5.828125 10.597656 5.746094 C 10.636719 5.6875 10.695312 5.714844 10.734375 5.6875 C 10.777344 5.660156 10.792969 5.480469 10.753906 5.429688 C 10.753906 5.429688 10.589844 5.28125 10.578125 5.269531 C 10.523438 5.113281 10.640625 5.015625 10.675781 5.027344 Z M 10.675781 5.027344 "/>
<path style=" stroke:none;fill-rule:nonzero;fill:rgb(100%,77.647059%,22.352941%);fill-opacity:1;" d="M 21.070312 2.339844 C 20.972656 1.953125 20.09375 1.117188 19.433594 0.582031 C 19.273438 0.476562 19.171875 0.539062 19.191406 0.691406 C 19.273438 0.828125 19.335938 0.980469 19.417969 1.117188 C 19.441406 1.210938 19.484375 1.273438 19.507812 1.363281 C 19.507812 1.363281 19.515625 1.523438 19.527344 1.535156 C 19.734375 1.761719 19.761719 1.953125 19.761719 1.953125 C 19.878906 2.183594 19.984375 2.351562 20.195312 2.539062 C 20.425781 2.683594 20.253906 3.140625 20.261719 3.382812 C 20.261719 3.535156 20.152344 3.515625 20.054688 3.496094 C 19.300781 2.800781 18.550781 2.800781 17.890625 2.597656 C 17.632812 2.570312 17.625 2.695312 17.710938 2.765625 C 18.171875 3.257812 18.605469 3.59375 19.179688 3.875 C 19.273438 3.933594 19.371094 3.992188 19.464844 4.054688 C 19.578125 4.144531 19.6875 4.234375 19.796875 4.328125 C 20.050781 4.492188 20.070312 4.644531 20.070312 4.65625 C 20.078125 4.964844 19.914062 5.207031 19.863281 5.300781 C 19.777344 5.628906 19.605469 5.683594 19.605469 5.683594 C 18.191406 6.640625 17.449219 6.886719 15.160156 6.589844 C 15.125 6.574219 14.90625 6.609375 15.160156 6.699219 C 15.742188 6.894531 17.175781 7.207031 18.558594 6.550781 C 18.894531 6.316406 19.117188 6.394531 19.355469 6.253906 C 19.753906 6.011719 20.316406 5.707031 20.421875 5.671875 C 20.730469 5.507812 21.59375 5.320312 21.792969 5.15625 C 22.019531 5.140625 22.257812 5.109375 22.273438 4.914062 C 22.347656 4.863281 22.457031 4.898438 22.539062 4.738281 C 22.71875 4.707031 22.691406 4.644531 22.691406 4.644531 C 22.644531 4.515625 22.476562 4.460938 22.355469 4.367188 C 22.175781 4.308594 22.050781 4.289062 21.921875 4.355469 C 21.878906 4.375 21.839844 4.390625 21.796875 4.410156 C 21.796875 4.410156 21.605469 4.382812 21.605469 4.367188 C 21.179688 4.34375 21.222656 2.929688 21.070312 2.339844 Z M 21.070312 2.339844 "/>
<path style=" stroke:none;fill-rule:nonzero;fill:rgb(10.980392%,54.117647%,25.882353%);fill-opacity:1;" d="M 22.070312 4.65625 C 22.058594 4.691406 22.003906 4.703125 21.949219 4.6875 C 21.890625 4.667969 21.855469 4.628906 21.871094 4.59375 C 21.882812 4.558594 21.9375 4.542969 21.992188 4.5625 C 22.046875 4.578125 22.082031 4.621094 22.070312 4.65625 Z M 22.070312 4.65625 "/>
<path style=" stroke:none;fill-rule:nonzero;fill:rgb(100%,100%,100%);fill-opacity:1;" d="M 4.515625 4.582031 L 4.210938 4.296875 L 3.898438 4.578125 L 3.933594 4.160156 L 3.519531 4.09375 L 3.867188 3.859375 L 3.660156 3.496094 L 4.058594 3.621094 L 4.214844 3.230469 L 4.367188 3.621094 L 4.769531 3.503906 L 4.558594 3.863281 L 4.902344 4.105469 L 4.488281 4.164062 Z M 4.515625 4.582031 "/>
<path style=" stroke:none;fill-rule:nonzero;fill:rgb(100%,100%,100%);fill-opacity:1;" d="M 5.601562 8.050781 L 5.269531 7.832031 L 4.949219 8.066406 L 5.0625 7.691406 L 4.738281 7.464844 L 5.136719 7.453125 L 5.257812 7.082031 L 5.390625 7.449219 L 5.792969 7.445312 L 5.472656 7.683594 Z M 5.601562 8.050781 "/>
<path style=" stroke:none;fill-rule:nonzero;fill:rgb(100%,100%,100%);fill-opacity:1;" d="M 4.578125 11.039062 L 4.269531 10.753906 L 3.960938 11.035156 L 3.992188 10.617188 L 3.578125 10.550781 L 3.925781 10.316406 L 3.722656 9.953125 L 4.121094 10.078125 L 4.277344 9.6875 L 4.429688 10.082031 L 4.832031 9.960938 L 4.617188 10.320312 L 4.964844 10.5625 L 4.546875 10.621094 Z M 4.578125 11.039062 "/>
<path style=" stroke:none;fill-rule:nonzero;fill:rgb(100%,100%,100%);fill-opacity:1;" d="M 1.828125 7.539062 L 1.519531 7.253906 L 1.210938 7.535156 L 1.242188 7.117188 L 0.828125 7.050781 L 1.175781 6.816406 L 0.96875 6.453125 L 1.371094 6.578125 L 1.527344 6.1875 L 1.679688 6.582031 L 2.082031 6.460938 L 1.867188 6.820312 L 2.214844 7.0625 L 1.796875 7.121094 Z M 1.828125 7.539062 "/>
<path style=" stroke:none;fill-rule:nonzero;fill:rgb(100%,100%,100%);fill-opacity:1;" d="M 7.117188 6.625 L 6.8125 6.335938 L 6.503906 6.621094 L 6.535156 6.203125 L 6.121094 6.136719 L 6.46875 5.902344 L 6.261719 5.535156 L 6.664062 5.660156 L 6.820312 5.273438 L 6.96875 5.664062 L 7.371094 5.542969 L 7.160156 5.90625 L 7.503906 6.144531 L 7.089844 6.203125 Z M 7.117188 6.625 "/>
</g>
</svg>
