<?xml version="1.0" encoding="utf-8"?>
<svg viewBox="0 0 24 16" width="24px" height="24px" xmlns="http://www.w3.org/2000/svg">
  <defs/>
  <path fill="#fff" d="M 0 0 L 24 0 L 24 16 L 0 16 L 0 0 Z"/>
  <path id="a" d="M 12.349 13.513 C 12.346 13.512 12.343 13.509 12.34 13.507 L 12.337 13.503 C 12.322 13.49 12.308 13.475 12.295 13.46 C 12.259 13.419 12.211 13.36 12.169 13.308 C 12.086 13.204 12.018 13.115 12.005 13.098 L 11.984 13.071 L 11.777 13.007 L 11.625 12.937 L 11.706 12.846 L 11.984 12.965 L 12.191 13.007 L 12.574 13.289 L 12.574 13.289 C 12.573 13.29 12.518 13.335 12.463 13.385 C 12.439 13.407 12.408 13.436 12.387 13.459 C 12.378 13.469 12.369 13.479 12.362 13.49 C 12.357 13.497 12.353 13.505 12.349 13.513 M 10.927 13.086 C 10.74 13.084 10.557 13.033 10.396 12.937 L 10.396 12.937 L 10.396 12.937 C 10.416 12.905 10.442 12.877 10.473 12.855 C 10.525 12.817 10.618 12.771 10.769 12.771 L 10.772 12.771 C 10.951 12.771 11.169 12.831 11.422 12.951 C 11.272 13.04 11.101 13.087 10.927 13.086 L 10.927 13.086 L 10.927 13.086 L 10.927 13.086 Z M 10.144 12.912 C 10.112 12.913 10.081 12.9 10.059 12.877 C 10.04 12.855 10.027 12.828 10.021 12.8 C 10.013 12.763 10.01 12.725 10.012 12.688 C 10.025 12.682 10.039 12.679 10.054 12.678 L 10.057 12.678 C 10.124 12.678 10.176 12.736 10.199 12.794 C 10.211 12.819 10.214 12.848 10.206 12.876 C 10.195 12.899 10.17 12.914 10.144 12.912 L 10.144 12.912 L 10.144 12.912 Z M 11.522 12.753 C 11.059 12.686 10.863 12.519 10.78 12.39 C 10.727 12.312 10.702 12.219 10.709 12.125 L 10.709 12.124 L 10.71 12.124 C 10.733 12.119 10.757 12.116 10.781 12.117 C 10.904 12.117 11.219 12.179 11.522 12.752 L 11.522 12.753 L 11.522 12.752 L 11.522 12.753 Z M 10.573 12.661 C 10.375 12.661 10.225 12.627 10.126 12.56 C 10.083 12.532 10.049 12.494 10.027 12.45 C 10.019 12.432 10.014 12.414 10.011 12.396 C 10.077 12.369 10.147 12.354 10.218 12.352 C 10.229 12.351 10.239 12.351 10.25 12.351 C 10.403 12.351 10.635 12.401 10.88 12.638 L 10.881 12.638 L 10.88 12.638 C 10.778 12.653 10.676 12.66 10.573 12.661 L 10.573 12.661 L 10.573 12.661 Z M 9.615 12.624 C 9.407 12.624 9.12 12.56 8.942 12.382 L 8.942 12.382 L 8.942 12.382 C 9.078 12.349 9.217 12.331 9.356 12.327 C 9.369 12.326 9.382 12.326 9.395 12.326 C 9.591 12.326 9.741 12.364 9.84 12.439 C 9.868 12.455 9.889 12.482 9.898 12.513 C 9.901 12.536 9.89 12.558 9.87 12.57 C 9.825 12.604 9.745 12.622 9.632 12.624 L 9.616 12.625 L 9.615 12.624 L 9.615 12.624 Z M 8.94 12.277 C 8.914 12.277 8.89 12.266 8.874 12.246 C 8.859 12.227 8.848 12.203 8.844 12.179 C 8.837 12.147 8.835 12.114 8.836 12.081 L 8.836 12.081 C 8.847 12.076 8.858 12.073 8.869 12.073 C 8.895 12.074 8.92 12.085 8.938 12.104 C 8.958 12.124 8.973 12.148 8.983 12.175 C 8.992 12.197 8.994 12.222 8.988 12.245 C 8.98 12.265 8.961 12.277 8.94 12.277 L 8.94 12.277 L 8.94 12.277 Z M 10.501 12.242 C 10.469 12.243 10.438 12.23 10.416 12.207 C 10.397 12.185 10.384 12.158 10.378 12.13 C 10.37 12.093 10.366 12.055 10.369 12.017 C 10.382 12.012 10.396 12.009 10.41 12.008 L 10.413 12.008 C 10.48 12.008 10.533 12.066 10.556 12.124 C 10.568 12.149 10.571 12.178 10.563 12.205 C 10.552 12.229 10.527 12.244 10.501 12.242 L 10.501 12.242 L 10.501 12.242 Z M 9.74 12.211 C 9.321 12.196 9.103 12.077 8.994 11.979 C 8.947 11.938 8.909 11.889 8.881 11.834 C 8.87 11.813 8.862 11.791 8.857 11.769 L 8.857 11.769 C 8.891 11.758 8.926 11.753 8.961 11.753 L 8.971 11.753 C 9.112 11.753 9.4 11.813 9.74 12.211 L 9.74 12.211 L 9.74 12.211 L 9.74 12.211 Z M 10.196 12.168 C 9.858 12.117 9.667 11.972 9.566 11.859 C 9.504 11.792 9.456 11.713 9.427 11.626 C 9.461 11.619 9.496 11.614 9.531 11.614 C 9.536 11.614 9.54 11.614 9.545 11.614 C 9.55 11.614 9.555 11.614 9.56 11.614 C 9.73 11.618 10.038 11.694 10.196 12.168 L 10.196 12.168 L 10.196 12.168 L 10.196 12.168 Z M 8.463 12.006 C 8.355 12.007 8.248 11.994 8.144 11.968 C 7.967 11.924 7.891 11.856 7.859 11.807 C 7.845 11.787 7.835 11.764 7.831 11.74 C 7.83 11.73 7.829 11.721 7.83 11.711 L 7.831 11.711 C 7.922 11.688 8.016 11.676 8.11 11.676 C 8.117 11.676 8.123 11.675 8.13 11.675 C 8.206 11.675 8.283 11.683 8.358 11.698 C 8.528 11.733 8.68 11.829 8.786 11.968 L 8.786 11.968 L 8.786 11.968 C 8.68 11.994 8.571 12.007 8.462 12.006 L 8.463 12.006 L 8.463 12.006 Z M 9.246 11.721 C 9.215 11.722 9.184 11.71 9.162 11.687 C 9.143 11.664 9.13 11.638 9.124 11.609 C 9.115 11.573 9.112 11.535 9.115 11.498 C 9.128 11.492 9.142 11.489 9.156 11.488 L 9.159 11.488 C 9.226 11.488 9.279 11.546 9.302 11.604 C 9.314 11.629 9.316 11.658 9.308 11.685 C 9.297 11.709 9.273 11.723 9.246 11.722 L 9.246 11.721 Z M 8.657 11.641 C 8.545 11.609 8.438 11.562 8.338 11.501 C 8.19 11.41 8.009 11.249 7.987 10.999 L 7.988 10.999 C 7.999 10.997 8.01 10.995 8.022 10.995 C 8.024 10.995 8.027 10.995 8.031 10.995 C 8.075 10.995 8.165 11.007 8.274 11.09 C 8.414 11.197 8.542 11.382 8.657 11.641 L 8.657 11.641 L 8.657 11.641 Z M 9.042 11.626 C 8.95 11.585 8.865 11.53 8.789 11.464 C 8.593 11.295 8.44 11.082 8.344 10.842 C 8.374 10.828 8.408 10.821 8.441 10.823 C 8.505 10.825 8.603 10.851 8.712 10.969 C 8.837 11.103 8.948 11.324 9.043 11.626 L 9.043 11.627 L 9.042 11.627 L 9.042 11.626 L 9.042 11.626 Z M 8.045 11.597 C 7.916 11.597 7.872 11.528 7.859 11.498 C 7.846 11.466 7.841 11.432 7.845 11.399 L 7.845 11.398 C 7.865 11.393 7.887 11.39 7.909 11.39 L 7.913 11.39 C 7.997 11.388 8.077 11.426 8.128 11.492 C 8.135 11.502 8.156 11.537 8.139 11.565 C 8.125 11.586 8.094 11.597 8.045 11.597 L 8.045 11.597 L 8.045 11.597 Z M 7.76 11.238 C 7.66 11.238 7.561 11.23 7.463 11.213 C 7.348 11.192 7.283 11.095 7.249 11.017 C 7.226 10.963 7.21 10.907 7.201 10.85 L 7.202 10.85 C 7.556 10.86 7.723 10.964 7.801 11.049 C 7.849 11.099 7.879 11.164 7.886 11.233 L 7.886 11.233 C 7.886 11.233 7.836 11.238 7.76 11.238 L 7.76 11.238 Z M 8.129 10.87 C 8.1 10.833 8.073 10.796 8.048 10.757 C 8.006 10.692 7.967 10.624 7.967 10.568 C 7.967 10.514 7.955 10.401 7.947 10.338 C 7.937 10.259 7.928 10.19 7.927 10.185 L 7.927 10.185 C 7.936 10.188 8.149 10.268 8.149 10.467 C 8.149 10.666 8.129 10.867 8.129 10.869 L 8.129 10.87 L 8.129 10.87 L 8.129 10.87 L 8.129 10.87 Z M 7.853 10.851 C 7.851 10.851 7.849 10.85 7.847 10.85 C 7.784 10.84 7.673 10.792 7.551 10.722 C 7.416 10.644 7.306 10.561 7.242 10.487 C 7.183 10.42 7.148 10.315 7.138 10.175 C 7.134 10.111 7.134 10.047 7.14 9.984 C 7.152 9.98 7.164 9.978 7.175 9.978 C 7.222 9.979 7.273 10 7.34 10.047 C 7.402 10.091 7.46 10.14 7.514 10.194 C 7.581 10.261 7.645 10.332 7.706 10.406 L 7.706 10.407 C 7.713 10.42 7.774 10.529 7.821 10.636 C 7.845 10.685 7.863 10.736 7.875 10.789 C 7.88 10.804 7.88 10.821 7.875 10.836 C 7.873 10.841 7.87 10.846 7.865 10.848 C 7.861 10.85 7.857 10.851 7.853 10.851 L 7.853 10.851 L 7.853 10.851 Z" fill="#4e5b31"/>
  <path d="M 11.651 13.513 C 11.654 13.512 11.657 13.509 11.66 13.507 L 11.663 13.503 C 11.678 13.49 11.692 13.475 11.705 13.46 C 11.741 13.419 11.789 13.36 11.831 13.308 C 11.914 13.204 11.982 13.115 11.995 13.098 L 12.016 13.071 L 12.223 13.007 L 12.375 12.937 L 12.294 12.846 L 12.016 12.965 L 11.809 13.007 L 11.426 13.289 L 11.426 13.289 C 11.427 13.29 11.482 13.335 11.537 13.385 C 11.561 13.407 11.592 13.436 11.613 13.459 C 11.622 13.469 11.631 13.479 11.638 13.49 C 11.643 13.497 11.647 13.505 11.651 13.513 M 13.073 13.086 C 13.26 13.084 13.443 13.033 13.604 12.937 L 13.604 12.937 L 13.604 12.937 C 13.584 12.905 13.558 12.877 13.527 12.855 C 13.475 12.817 13.382 12.771 13.231 12.771 L 13.228 12.771 C 13.049 12.771 12.831 12.831 12.578 12.951 C 12.728 13.04 12.899 13.087 13.073 13.086 L 13.073 13.086 L 13.073 13.086 Z M 13.856 12.912 C 13.888 12.913 13.919 12.9 13.941 12.877 C 13.96 12.855 13.973 12.828 13.979 12.8 C 13.987 12.763 13.99 12.725 13.988 12.688 C 13.975 12.682 13.961 12.679 13.946 12.678 L 13.943 12.678 C 13.876 12.678 13.824 12.736 13.801 12.794 C 13.789 12.819 13.786 12.848 13.794 12.876 C 13.805 12.899 13.83 12.914 13.856 12.912 L 13.856 12.912 Z M 12.478 12.753 C 12.941 12.686 13.137 12.519 13.22 12.39 C 13.273 12.312 13.298 12.219 13.291 12.125 L 13.291 12.124 L 13.29 12.124 C 13.267 12.119 13.243 12.116 13.219 12.117 C 13.096 12.117 12.781 12.179 12.478 12.752 L 12.478 12.753 L 12.478 12.752 L 12.478 12.753 Z M 13.427 12.661 C 13.625 12.661 13.775 12.627 13.874 12.56 C 13.917 12.533 13.951 12.494 13.973 12.45 C 13.981 12.432 13.986 12.414 13.989 12.396 C 13.923 12.369 13.853 12.354 13.782 12.352 C 13.771 12.351 13.761 12.351 13.75 12.351 C 13.597 12.351 13.365 12.401 13.12 12.638 L 13.119 12.638 L 13.12 12.638 C 13.222 12.653 13.324 12.66 13.427 12.661 L 13.427 12.661 Z M 14.385 12.624 C 14.593 12.624 14.88 12.56 15.058 12.382 L 15.058 12.382 L 15.058 12.382 C 14.922 12.349 14.783 12.331 14.644 12.327 C 14.631 12.326 14.618 12.326 14.605 12.326 C 14.409 12.326 14.259 12.364 14.16 12.439 C 14.132 12.455 14.111 12.482 14.102 12.513 C 14.099 12.536 14.11 12.558 14.13 12.57 C 14.175 12.604 14.255 12.622 14.368 12.624 L 14.384 12.625 L 14.385 12.624 Z M 15.06 12.277 C 15.086 12.277 15.11 12.266 15.126 12.246 C 15.141 12.227 15.152 12.203 15.156 12.179 C 15.163 12.147 15.165 12.114 15.164 12.081 L 15.164 12.081 C 15.153 12.076 15.142 12.073 15.131 12.073 C 15.105 12.074 15.08 12.085 15.062 12.104 C 15.042 12.124 15.027 12.148 15.017 12.175 C 15.008 12.197 15.006 12.222 15.012 12.245 C 15.02 12.265 15.039 12.277 15.06 12.277 L 15.06 12.277 Z M 13.499 12.242 C 13.531 12.243 13.562 12.23 13.584 12.207 C 13.603 12.185 13.616 12.158 13.622 12.13 C 13.63 12.093 13.634 12.055 13.631 12.017 C 13.618 12.012 13.604 12.009 13.59 12.008 L 13.587 12.008 C 13.52 12.008 13.467 12.066 13.444 12.124 C 13.432 12.149 13.429 12.178 13.437 12.205 C 13.448 12.229 13.473 12.244 13.499 12.242 L 13.499 12.242 Z M 14.26 12.211 C 14.679 12.196 14.897 12.077 15.006 11.979 C 15.053 11.938 15.091 11.889 15.119 11.834 C 15.13 11.813 15.138 11.791 15.143 11.769 L 15.143 11.769 C 15.109 11.758 15.074 11.753 15.039 11.753 L 15.029 11.753 C 14.888 11.753 14.6 11.813 14.26 12.211 L 14.26 12.211 L 14.26 12.211 Z M 13.804 12.168 C 14.142 12.117 14.333 11.972 14.434 11.859 C 14.496 11.792 14.544 11.713 14.573 11.626 C 14.539 11.619 14.504 11.614 14.469 11.614 C 14.464 11.614 14.46 11.614 14.455 11.614 C 14.45 11.614 14.445 11.614 14.44 11.614 C 14.27 11.618 13.962 11.694 13.804 12.168 L 13.804 12.168 L 13.804 12.168 Z M 15.537 12.006 C 15.645 12.007 15.752 11.994 15.856 11.968 C 16.033 11.924 16.109 11.856 16.141 11.807 C 16.155 11.787 16.165 11.764 16.169 11.74 C 16.17 11.73 16.171 11.721 16.17 11.711 L 16.169 11.711 C 16.078 11.688 15.984 11.676 15.89 11.676 C 15.883 11.676 15.877 11.675 15.87 11.675 C 15.794 11.675 15.717 11.683 15.642 11.698 C 15.472 11.733 15.32 11.829 15.214 11.968 L 15.214 11.968 L 15.214 11.968 C 15.32 11.994 15.429 12.007 15.538 12.006 L 15.537 12.006 Z M 14.754 11.721 C 14.785 11.722 14.816 11.71 14.838 11.687 C 14.857 11.664 14.87 11.638 14.876 11.609 C 14.885 11.573 14.888 11.535 14.885 11.498 C 14.872 11.492 14.858 11.489 14.844 11.488 L 14.841 11.488 C 14.774 11.488 14.721 11.546 14.698 11.604 C 14.686 11.629 14.684 11.658 14.692 11.685 C 14.703 11.709 14.727 11.723 14.754 11.722 L 14.754 11.721 Z M 15.343 11.641 C 15.455 11.609 15.562 11.562 15.662 11.501 C 15.81 11.41 15.991 11.249 16.013 10.999 L 16.012 10.999 C 16.001 10.997 15.99 10.995 15.978 10.995 C 15.976 10.995 15.973 10.995 15.969 10.995 C 15.925 10.995 15.835 11.007 15.726 11.09 C 15.586 11.197 15.458 11.382 15.343 11.641 L 15.343 11.641 Z M 14.958 11.626 C 15.05 11.585 15.135 11.53 15.211 11.464 C 15.407 11.295 15.56 11.082 15.656 10.842 C 15.626 10.828 15.593 10.821 15.559 10.823 C 15.495 10.825 15.397 10.851 15.288 10.969 C 15.163 11.103 15.052 11.324 14.957 11.626 L 14.957 11.627 L 14.958 11.627 L 14.958 11.626 Z M 15.955 11.597 C 16.084 11.597 16.128 11.528 16.141 11.498 C 16.154 11.466 16.159 11.432 16.155 11.399 L 16.155 11.398 C 16.135 11.393 16.113 11.39 16.091 11.39 L 16.087 11.39 C 16.003 11.388 15.923 11.426 15.872 11.492 C 15.865 11.502 15.844 11.537 15.861 11.565 C 15.875 11.586 15.906 11.597 15.955 11.597 L 15.955 11.597 Z M 16.24 11.238 C 16.34 11.238 16.439 11.23 16.537 11.213 C 16.652 11.192 16.717 11.095 16.751 11.017 C 16.774 10.963 16.79 10.907 16.799 10.85 L 16.798 10.85 C 16.444 10.86 16.277 10.964 16.199 11.049 C 16.151 11.099 16.121 11.164 16.114 11.233 L 16.114 11.233 C 16.114 11.233 16.164 11.238 16.24 11.238 L 16.24 11.238 Z M 15.871 10.87 C 15.9 10.833 15.927 10.796 15.952 10.757 C 15.994 10.692 16.033 10.624 16.033 10.568 C 16.033 10.514 16.045 10.401 16.053 10.338 C 16.063 10.259 16.072 10.19 16.073 10.185 L 16.073 10.185 C 16.064 10.188 15.851 10.268 15.851 10.467 C 15.851 10.666 15.871 10.867 15.871 10.869 L 15.871 10.87 L 15.871 10.87 L 15.871 10.87 Z M 16.147 10.851 C 16.149 10.851 16.151 10.85 16.153 10.85 C 16.216 10.84 16.327 10.792 16.449 10.722 C 16.584 10.644 16.694 10.561 16.758 10.487 C 16.817 10.42 16.852 10.315 16.862 10.175 C 16.866 10.111 16.866 10.047 16.86 9.984 C 16.848 9.98 16.836 9.978 16.825 9.978 C 16.778 9.979 16.727 10 16.66 10.047 C 16.598 10.091 16.54 10.14 16.486 10.194 C 16.419 10.261 16.355 10.332 16.294 10.406 L 16.294 10.407 C 16.287 10.42 16.226 10.529 16.179 10.636 C 16.155 10.685 16.137 10.736 16.125 10.789 C 16.12 10.804 16.12 10.821 16.125 10.836 C 16.127 10.841 16.13 10.846 16.135 10.848 C 16.139 10.85 16.143 10.851 16.147 10.851 L 16.147 10.851 Z" fill="#4e5b31"/>
  <path d="M 19.39 2.772 L 19.327 2.797 L 19.303 2.807 L 19.227 2.803 L 19.155 2.837 L 19.029 2.924 L 19.023 2.928 L 18.976 2.94 L 18.933 2.921 L 18.908 2.932 L 18.899 2.984 L 18.875 3.02 L 18.846 3.041 L 18.745 3.051 L 18.66 3.095 L 18.55 3.065 L 18.498 3.086 L 18.389 3.184 L 18.333 3.21 L 18.314 3.209 L 18.24 3.205 L 18.208 3.216 L 18.162 3.261 L 18.073 3.268 L 18.046 3.287 L 18.002 3.374 L 17.956 3.422 L 17.929 3.428 L 17.9 3.417 L 17.878 3.421 L 17.868 3.476 L 17.847 3.5 L 17.788 3.52 L 17.741 3.559 L 17.699 3.581 L 17.644 3.579 L 17.631 3.579 L 17.576 3.61 L 17.472 3.619 L 17.428 3.66 L 17.419 3.669 L 17.399 3.681 L 17.365 3.701 L 17.357 3.706 L 17.317 3.699 L 17.271 3.717 L 17.252 3.688 L 17.22 3.708 L 17.177 3.71 L 17.124 3.686 L 17.083 3.668 L 17.053 3.672 L 17.043 3.724 L 17.042 3.729 L 17.011 3.771 L 16.953 3.806 L 16.945 3.817 L 16.878 3.902 L 16.752 4.034 L 16.646 4.089 L 16.535 4.122 L 16.458 4.186 L 16.255 4.286 L 15.936 4.445 L 15.87 4.466 L 15.776 4.481 L 15.609 4.543 L 15.461 4.587 L 15.453 4.59 L 15.424 4.599 L 15.215 4.662 L 15.118 4.652 L 15.061 4.672 L 14.912 4.656 L 14.808 4.658 L 14.742 4.672 L 14.618 4.731 L 14.409 4.831 L 14.34 4.894 L 14.233 4.95 L 14.107 4.99 L 14.108 4.937 L 14.107 4.935 L 14.063 4.949 L 14.032 4.959 L 13.93 4.975 L 13.873 4.975 L 13.838 4.964 L 13.832 4.966 L 13.624 5.035 L 13.391 5.057 L 13.275 5.094 L 13.188 5.093 L 13.134 5.109 L 13.027 5.122 L 12.989 5.112 L 12.981 5.11 L 12.667 5.123 L 12.524 5.107 L 12.456 5.123 L 12.341 5.084 L 12.174 5.065 L 12.135 5.053 L 12.047 5.027 L 12.007 5.05 L 11.977 5.053 L 11.906 5.027 L 11.88 5.027 L 11.822 5.048 L 11.788 5.039 L 11.757 5.014 L 11.683 5.003 L 11.638 4.966 L 11.387 4.999 L 11.319 4.979 L 11.091 4.912 L 11.055 4.914 L 11.01 4.948 L 10.942 4.973 L 10.883 4.988 L 10.802 4.991 L 10.709 4.966 L 10.613 4.92 L 10.577 4.911 L 10.498 4.919 L 10.474 4.922 L 10.328 4.843 L 10.14 4.726 L 10.013 4.665 L 9.965 4.657 L 9.959 4.68 L 9.982 4.754 L 9.99 4.828 L 9.988 4.897 L 9.987 4.939 L 9.998 4.977 L 10.044 5.028 L 10.064 5.079 L 10.078 5.22 L 10.078 5.363 L 10.055 5.591 L 10.048 5.626 L 10.021 5.744 L 9.997 5.852 L 9.902 6.141 L 9.876 6.177 L 9.812 6.221 L 9.668 6.319 L 9.561 6.38 L 9.528 6.394 L 9.441 6.401 L 9.387 6.398 L 9.32 6.362 L 9.255 6.345 L 9.169 6.283 L 9.073 6.263 L 8.967 6.202 L 8.94 6.169 L 8.883 6.164 L 8.803 6.14 L 8.803 6.14 L 8.774 6.131 L 8.754 6.126 L 8.653 6.123 L 8.558 6.079 L 8.509 6.067 L 8.441 6.064 L 8.37 6.097 L 8.334 6.114 L 8.288 6.096 L 8.255 6.098 L 8.218 6.154 L 8.213 6.163 L 8.188 6.176 L 8.156 6.176 L 8.131 6.175 L 8.103 6.187 L 8.067 6.203 L 8.035 6.217 L 8.019 6.224 L 8.019 6.223 L 8.009 6.225 L 7.992 6.228 L 7.971 6.232 L 7.933 6.21 L 7.913 6.199 L 7.879 6.192 L 7.861 6.205 L 7.858 6.266 L 7.841 6.303 L 7.789 6.349 L 7.736 6.396 L 7.699 6.451 L 7.601 6.674 L 7.54 6.765 L 7.52 6.786 L 7.456 6.857 L 7.399 6.901 L 7.268 7.002 L 7.144 7.049 L 7.037 7.071 L 6.985 7.071 L 6.886 7.058 L 6.797 7.031 L 6.7 6.97 L 6.593 6.884 L 6.439 6.731 L 6.417 6.718 L 6.412 6.715 L 6.364 6.684 L 6.328 6.685 L 6.313 6.708 L 6.306 6.742 L 6.299 6.772 L 6.281 6.942 L 6.283 6.951 L 6.292 7.021 L 6.409 7.185 L 6.446 7.273 L 6.452 7.282 L 6.476 7.323 L 6.494 7.354 L 6.496 7.357 L 6.536 7.477 L 6.508 7.545 L 6.522 7.59 L 6.486 7.618 L 6.48 7.657 L 6.585 7.789 L 6.608 7.847 L 6.583 7.928 L 6.542 7.972 L 6.53 7.984 L 6.536 8.019 L 6.584 8.062 L 6.667 8.136 L 6.711 8.244 L 6.744 8.274 L 6.783 8.266 L 6.805 8.282 L 6.837 8.281 L 6.869 8.314 L 6.89 8.324 L 6.923 8.34 L 6.949 8.374 L 6.955 8.478 L 7.004 8.608 L 7.004 8.678 L 7.005 8.688 L 7.035 8.74 L 7.044 8.781 L 7.028 8.89 L 7.067 8.925 L 7.109 8.916 L 7.136 8.92 L 7.179 8.956 L 7.232 9.036 L 7.283 9.029 L 7.316 9.045 L 7.473 9.187 L 7.509 9.205 L 7.511 9.206 L 7.536 9.219 L 7.568 9.251 L 7.618 9.218 L 7.623 9.218 L 7.677 9.213 L 7.701 9.229 L 7.746 9.26 L 7.806 9.259 L 7.935 9.298 L 7.991 9.313 L 8.105 9.383 L 8.153 9.413 L 8.182 9.437 L 8.22 9.468 L 8.296 9.5 L 8.361 9.516 L 8.396 9.524 L 8.423 9.534 L 8.423 9.533 L 8.424 9.533 L 8.423 9.534 L 8.564 9.588 L 8.64 9.606 L 8.711 9.632 L 8.762 9.651 L 8.8 9.651 L 8.853 9.607 L 8.905 9.604 L 8.948 9.614 L 8.99 9.607 L 9.056 9.566 L 9.069 9.547 L 9.116 9.525 L 9.274 9.505 L 9.321 9.52 L 9.44 9.468 L 9.519 9.491 L 9.59 9.466 L 9.744 9.5 L 9.785 9.529 L 9.831 9.581 L 9.836 9.581 L 9.887 9.582 L 9.866 9.618 L 9.933 9.688 L 9.994 9.78 L 9.998 9.792 L 10.042 9.922 L 10.075 9.968 L 10.098 10.032 L 10.099 10.074 L 10.064 10.101 L 10.058 10.117 L 10.056 10.123 L 10.063 10.14 L 10.076 10.133 L 10.102 10.118 L 10.133 10.114 L 10.188 10.119 L 10.225 10.123 L 10.282 10.095 L 10.32 10.076 L 10.381 10.102 L 10.449 10.101 L 10.477 10.114 L 10.557 10.15 L 10.598 10.154 L 10.613 10.144 L 10.622 10.121 L 10.617 10.095 L 10.587 10.059 L 10.519 9.981 L 10.492 9.941 L 10.471 9.883 L 10.464 9.808 L 10.459 9.758 L 10.468 9.692 L 10.486 9.668 L 10.499 9.616 L 10.499 9.616 L 10.503 9.602 L 10.54 9.552 L 10.64 9.488 L 10.746 9.393 L 10.831 9.337 L 10.918 9.3 L 10.92 9.289 L 10.93 9.293 L 11.151 9.218 L 11.154 9.217 L 11.253 9.2 L 11.917 9.247 L 11.942 9.239 L 11.942 9.239 L 11.964 9.177 L 11.976 9.166 L 11.984 9.158 L 12.057 9.126 L 12.091 9.121 L 12.186 9.144 L 12.225 9.154 L 12.287 9.119 L 12.331 9.12 L 12.422 9.07 L 12.479 9.072 L 12.5 9.063 L 12.61 8.984 L 12.715 8.954 L 12.743 8.939 L 12.752 8.934 L 12.861 8.877 L 12.929 8.824 L 12.989 8.792 L 13.054 8.776 L 13.224 8.764 L 13.258 8.707 L 13.331 8.697 L 13.376 8.647 L 13.426 8.626 L 13.462 8.574 L 13.493 8.531 L 13.535 8.506 L 13.671 8.497 L 13.832 8.517 L 13.854 8.504 L 13.89 8.374 L 13.928 8.35 L 14.031 8.2 L 14.031 8.146 L 14.031 8.1 L 14.048 8.035 L 14.037 7.918 L 14.05 7.8 L 14.114 7.649 L 14.17 7.588 L 14.261 7.527 L 14.307 7.507 L 14.373 7.496 L 14.373 7.496 L 14.382 7.494 L 14.399 7.492 L 14.624 7.488 C 14.627 7.486 14.705 7.487 14.705 7.487 L 14.78 7.486 L 14.97 7.52 L 14.984 7.522 L 15.048 7.543 L 15.122 7.601 L 15.2 7.677 L 15.215 7.691 L 15.265 7.713 L 15.281 7.719 L 15.323 7.713 L 15.382 7.682 L 15.427 7.644 L 15.489 7.61 L 15.49 7.608 L 15.525 7.556 L 15.526 7.555 L 15.526 7.555 L 15.526 7.555 L 15.526 7.555 L 15.539 7.534 L 15.658 7.488 L 15.797 7.48 L 15.813 7.471 L 15.822 7.467 L 15.859 7.424 L 15.893 7.423 L 15.977 7.454 L 16.036 7.442 L 16.082 7.461 L 16.118 7.456 L 16.187 7.448 L 16.26 7.5 L 16.303 7.505 L 16.454 7.593 L 16.462 7.595 L 16.466 7.595 L 16.475 7.597 L 16.492 7.592 L 16.519 7.584 L 16.523 7.583 L 16.526 7.588 L 16.543 7.612 L 16.567 7.615 L 16.594 7.578 L 16.583 7.561 L 16.579 7.555 L 16.525 7.544 L 16.477 7.461 L 16.523 7.412 L 16.451 7.323 L 16.439 7.308 L 16.435 7.302 L 16.41 7.264 L 16.283 7.071 L 16.118 6.94 L 16.061 6.893 L 16.06 6.893 L 16.04 6.877 L 15.952 6.788 L 15.889 6.704 L 15.881 6.686 L 15.868 6.658 L 15.83 6.576 L 15.764 6.525 L 15.711 6.467 L 15.708 6.463 L 15.598 6.313 L 15.58 6.288 L 15.554 6.273 L 15.499 6.273 L 15.493 6.267 L 15.49 6.264 L 15.492 6.262 L 15.518 6.236 L 15.548 6.228 L 15.561 6.199 L 15.504 6.037 L 15.504 6.031 L 15.5 5.979 L 15.546 5.743 L 15.552 5.714 L 15.63 5.555 L 15.678 5.516 L 15.731 5.412 L 15.776 5.345 L 15.819 5.303 L 15.827 5.299 L 15.905 5.251 L 15.971 5.242 L 16.034 5.233 L 16.143 5.267 L 16.247 5.265 L 16.267 5.263 L 16.314 5.258 L 16.392 5.233 L 16.429 5.21 L 16.448 5.181 L 16.487 5.048 L 16.5 5.006 L 16.525 4.96 L 16.666 4.797 L 16.773 4.698 L 17.014 4.522 L 17.131 4.451 L 17.191 4.416 L 17.728 4.177 L 17.868 4.036 L 17.94 3.962 L 18.069 3.876 L 18.219 3.814 L 18.349 3.712 L 18.377 3.676 L 18.413 3.562 L 18.442 3.554 L 18.469 3.496 L 18.477 3.48 L 18.582 3.405 L 18.594 3.4 L 19.004 3.194 L 19.064 3.202 L 19.096 3.154 L 19.215 3.134 L 19.237 3.131 L 19.267 3.116 L 19.292 3.073 L 19.292 3.065 L 19.295 2.951 L 19.321 2.92 L 19.335 2.845 L 19.348 2.828 L 19.361 2.81 L 19.395 2.786 L 19.389 2.772 L 19.39 2.772 L 19.39 2.772 Z" fill="#d57800"/>
</svg>