<?xml version="1.0" encoding="UTF-8"?>
<svg xmlns="http://www.w3.org/2000/svg" xmlns:xlink="http://www.w3.org/1999/xlink" width="24px" height="24px" viewBox="0 0 24 12" version="1.1">
<g id="surface1">
<rect x="0" y="0" width="24" height="12" style="fill:rgb(0%,41.960784%,24.705882%);fill-opacity:1;stroke:none;"/>
<path style=" stroke:none;fill-rule:nonzero;fill:rgb(98.823529%,81.960784%,8.627451%);fill-opacity:1;" d="M 0 4.5 L 24 4.5 L 24 6.5 L 0 6.5 Z M 0 4.5 "/>
<path style=" stroke:none;fill-rule:nonzero;fill:rgb(100%,100%,100%);fill-opacity:1;" d="M 0 5.5 L 24 5.5 L 24 7.5 L 0 7.5 Z M 0 5.5 "/>
<path style=" stroke:none;fill-rule:nonzero;fill:rgb(0%,0%,0%);fill-opacity:1;" d="M 0 5.5 L 24 5.5 L 24 6.5 L 0 6.5 Z M 0 5.5 "/>
<path style=" stroke:none;fill-rule:nonzero;fill:rgb(98.823529%,81.960784%,8.627451%);fill-opacity:1;" d="M 10.5 0 L 12.5 0 L 12.5 12 L 10.5 12 Z M 10.5 0 "/>
<path style=" stroke:none;fill-rule:nonzero;fill:rgb(100%,100%,100%);fill-opacity:1;" d="M 11.5 0 L 13.5 0 L 13.5 12 L 11.5 12 Z M 11.5 0 "/>
<path style=" stroke:none;fill-rule:nonzero;fill:rgb(0%,0%,0%);fill-opacity:1;" d="M 11.5 0 L 12.5 0 L 12.5 12 L 11.5 12 Z M 11.5 0 "/>
<path style=" stroke:none;fill-rule:nonzero;fill:rgb(83.137255%,10.980392%,18.823529%);fill-opacity:1;" d="M 15 6 C 15 7.65625 13.65625 9 12 9 C 10.34375 9 9 7.65625 9 6 C 9 4.34375 10.34375 3 12 3 C 13.65625 3 15 4.34375 15 6 Z M 15 6 "/>
<path style="fill-rule:nonzero;fill:rgb(0%,41.960784%,24.705882%);fill-opacity:1;stroke-width:1;stroke-linecap:butt;stroke-linejoin:miter;stroke:rgb(0%,0%,0%);stroke-opacity:1;stroke-miterlimit:4;" d="M -4.882812 -118.359375 L 0 -132.226562 L 4.296875 -118.554688 L 18.945312 -118.359375 L 7.421875 -109.570312 L 12.695312 -94.53125 L 0 -103.710938 L -12.5 -94.921875 L -7.617188 -109.570312 L -18.945312 -118.164062 Z M -4.882812 -118.359375 " transform="matrix(0.02,0,0,0.02,12,6)"/>
<path style="fill-rule:nonzero;fill:rgb(0%,41.960784%,24.705882%);fill-opacity:1;stroke-width:1;stroke-linecap:butt;stroke-linejoin:miter;stroke:rgb(0%,0%,0%);stroke-opacity:1;stroke-miterlimit:4;" d="M -4.882812 -118.359375 L 0 -132.226562 L 4.296875 -118.554688 L 18.945312 -118.359375 L 7.421875 -109.570312 L 12.695312 -94.53125 L 0 -103.710938 L -12.5 -94.921875 L -7.617188 -109.570312 L -18.945312 -118.164062 Z M -4.882812 -118.359375 " transform="matrix(-0.02,0,0,-0.02,12,6)"/>
<path style="fill-rule:nonzero;fill:rgb(0%,41.960784%,24.705882%);fill-opacity:1;stroke-width:1;stroke-linecap:butt;stroke-linejoin:miter;stroke:rgb(0%,0%,0%);stroke-opacity:1;stroke-miterlimit:4;" d="M -4.883172 -118.369029 L 0.0918419 -132.123208 L 4.378911 -118.579999 L 19.02566 -118.357606 L 7.404429 -109.431448 L 12.724713 -94.466138 L -0.065304 -103.76295 L -12.504974 -94.966421 L -7.673145 -109.582248 L -19.027505 -118.23219 Z M -4.883172 -118.369029 " transform="matrix(0.0161803,0.0117557,-0.0117557,0.0161803,12,6)"/>
<path style="fill-rule:nonzero;fill:rgb(0%,41.960784%,24.705882%);fill-opacity:1;stroke-width:1;stroke-linecap:butt;stroke-linejoin:miter;stroke:rgb(0%,0%,0%);stroke-opacity:1;stroke-miterlimit:4;" d="M -4.883172 -118.369029 L 0.0918419 -132.123208 L 4.378911 -118.579999 L 19.02566 -118.357606 L 7.404429 -109.431448 L 12.724713 -94.466138 L -0.065304 -103.76295 L -12.504974 -94.966421 L -7.673145 -109.582248 L -19.027505 -118.23219 Z M -4.883172 -118.369029 " transform="matrix(-0.0161803,-0.0117557,0.0117557,-0.0161803,12,6)"/>
<path style="fill-rule:nonzero;fill:rgb(0%,41.960784%,24.705882%);fill-opacity:1;stroke-width:1;stroke-linecap:butt;stroke-linejoin:miter;stroke:rgb(0%,0%,0%);stroke-opacity:1;stroke-miterlimit:4;" d="M -4.852003 -118.428466 L -0.0142353 -132.053494 L 4.47257 -118.684547 L 18.988857 -118.485922 L 7.445219 -109.504127 L 12.624059 -94.472778 L 0.0156862 -103.70358 L -12.456718 -95.023559 L -7.749037 -109.512311 L -19.117493 -118.134875 Z M -4.852003 -118.428466 " transform="matrix(0.00618034,0.0190211,-0.0190211,0.00618034,12,6)"/>
<path style="fill-rule:nonzero;fill:rgb(0%,41.960784%,24.705882%);fill-opacity:1;stroke-width:1;stroke-linecap:butt;stroke-linejoin:miter;stroke:rgb(0%,0%,0%);stroke-opacity:1;stroke-miterlimit:4;" d="M -4.852003 -118.428466 L -0.0142353 -132.053494 L 4.47257 -118.684547 L 18.988857 -118.485922 L 7.445219 -109.504127 L 12.624059 -94.472778 L 0.0156862 -103.70358 L -12.456718 -95.023559 L -7.749037 -109.512311 L -19.117493 -118.134875 Z M -4.852003 -118.428466 " transform="matrix(-0.00618034,-0.0190211,0.0190211,-0.00618034,12,6)"/>
<path style="fill-rule:nonzero;fill:rgb(0%,41.960784%,24.705882%);fill-opacity:1;stroke-width:1;stroke-linecap:butt;stroke-linejoin:miter;stroke:rgb(0%,0%,0%);stroke-opacity:1;stroke-miterlimit:4;" d="M -4.783722 -118.378084 L 0.0142353 -132.053494 L 4.359787 -118.679262 L 19.057138 -118.320628 L 7.502929 -109.637709 L 12.637783 -94.466299 L -0.0156862 -103.70358 L -12.373263 -94.964994 L -7.691327 -109.629525 L -19.114255 -118.239814 Z M -4.783722 -118.378084 " transform="matrix(-0.00618034,0.0190211,-0.0190211,-0.00618034,12,6)"/>
<path style="fill-rule:nonzero;fill:rgb(0%,41.960784%,24.705882%);fill-opacity:1;stroke-width:1;stroke-linecap:butt;stroke-linejoin:miter;stroke:rgb(0%,0%,0%);stroke-opacity:1;stroke-miterlimit:4;" d="M -4.783722 -118.378084 L 0.0142353 -132.053494 L 4.359787 -118.679262 L 19.057138 -118.320628 L 7.502929 -109.637709 L 12.637783 -94.466299 L -0.0156862 -103.70358 L -12.373263 -94.964994 L -7.691327 -109.629525 L -19.114255 -118.239814 Z M -4.783722 -118.378084 " transform="matrix(0.00618034,-0.0190211,0.0190211,0.00618034,12,6)"/>
<path style="fill-rule:nonzero;fill:rgb(0%,41.960784%,24.705882%);fill-opacity:1;stroke-width:1;stroke-linecap:butt;stroke-linejoin:miter;stroke:rgb(0%,0%,0%);stroke-opacity:1;stroke-miterlimit:4;" d="M -4.766525 -118.378778 L -0.0918419 -132.123208 L 4.409139 -118.713434 L 18.984296 -118.505003 L 7.400332 -109.539039 L 12.706194 -94.578806 L 0.065304 -103.76295 L -12.380308 -94.940172 L -7.56244 -109.54625 L -18.982451 -118.084793 Z M -4.766525 -118.378778 " transform="matrix(-0.0161803,0.0117557,-0.0117557,-0.0161803,12,6)"/>
<path style="fill-rule:nonzero;fill:rgb(0%,41.960784%,24.705882%);fill-opacity:1;stroke-width:1;stroke-linecap:butt;stroke-linejoin:miter;stroke:rgb(0%,0%,0%);stroke-opacity:1;stroke-miterlimit:4;" d="M -4.766525 -118.378778 L -0.0918419 -132.123208 L 4.409139 -118.713434 L 18.984296 -118.505003 L 7.400332 -109.539039 L 12.706194 -94.578806 L 0.065304 -103.76295 L -12.380308 -94.940172 L -7.56244 -109.54625 L -18.982451 -118.084793 Z M -4.766525 -118.378778 " transform="matrix(0.0161803,-0.0117557,0.0117557,0.0161803,12,6)"/>
<path style="fill-rule:nonzero;fill:rgb(0%,41.960784%,24.705882%);fill-opacity:1;stroke-width:2.5;stroke-linecap:butt;stroke-linejoin:miter;stroke:rgb(0%,0%,0%);stroke-opacity:1;stroke-miterlimit:4;" d="M 711.071518 585.800454 C 710.975867 481.51372 696.963075 396.441631 680.128594 395.935992 C 663.246288 396.265061 649.616097 481.108892 649.663923 586.230333 C 649.711748 691.351774 663.054987 776.336862 679.937293 776.007793 C 697.489152 775.765726 711.119343 690.921895 711.071518 585.800454 Z M 711.071518 585.800454 " transform="matrix(0.005791,-0.0006036,0.0003318,0.0046452,8.27766,4.48148)"/>
<path style="fill-rule:nonzero;fill:rgb(0%,41.960784%,24.705882%);fill-opacity:1;stroke-width:2.5;stroke-linecap:butt;stroke-linejoin:miter;stroke:rgb(0%,0%,0%);stroke-opacity:1;stroke-miterlimit:4;" d="M 711.20062 586.452111 C 711.189718 481.330864 697.335997 396.176763 680.108393 396.337842 C 662.880789 396.498921 649.333337 481.260327 649.344239 586.381574 C 649.40063 690.668099 663.254351 775.8222 680.481954 775.661121 C 697.031064 776.247983 711.257011 690.738636 711.20062 586.452111 Z M 711.20062 586.452111 " transform="matrix(0.0061252,-0.0006368,0.0003338,0.004645,8.22534,4.50226)"/>
<path style="fill-rule:nonzero;fill:rgb(0%,41.960784%,24.705882%);fill-opacity:1;stroke-width:2.5;stroke-linecap:butt;stroke-linejoin:miter;stroke:rgb(0%,0%,0%);stroke-opacity:1;stroke-miterlimit:4;" d="M 711.27425 586.441833 C 710.974349 481.433488 697.259216 396.371767 680.530282 396.205635 C 663.009987 395.959673 649.598145 481.327768 649.106684 586.256283 C 649.406584 691.264627 663.17689 775.571203 679.905823 775.737335 C 697.426118 775.983297 710.837961 690.615202 711.27425 586.441833 Z M 711.27425 586.441833 " transform="matrix(0.0049,-0.000518,0.000358,0.005135,8.96106,4.18128)"/>
<path style="fill-rule:nonzero;fill:rgb(61.176471%,29.019608%,0%);fill-opacity:1;stroke-width:0.657;stroke-linecap:butt;stroke-linejoin:miter;stroke:rgb(0%,0%,0%);stroke-opacity:1;stroke-miterlimit:4;" d="M -44.140625 62.5 C -36.523438 62.304688 -39.84375 58.203125 -35.9375 56.054688 C -32.226562 53.710938 -26.5625 55.273438 -25 58.007812 C -23.4375 60.742188 -24.609375 63.28125 -22.460938 63.476562 C -20.507812 63.476562 37.304688 60.9375 39.453125 63.28125 C 41.601562 65.625 41.796875 70.117188 39.648438 71.875 C 37.5 73.632812 -35.546875 74.414062 -38.085938 72.460938 C -40.625 70.703125 -44.140625 63.085938 -44.140625 62.5 Z M -44.140625 62.5 " transform="matrix(0.02,0,0,0.02,12,6)"/>
<path style="fill-rule:nonzero;fill:rgb(98.823529%,81.960784%,8.627451%);fill-opacity:1;stroke-width:0.633;stroke-linecap:butt;stroke-linejoin:miter;stroke:rgb(0%,0%,0%);stroke-opacity:1;stroke-miterlimit:4;" d="M -3.320312 68.164062 C -3.515625 74.023438 5.078125 72.265625 5.078125 77.148438 C 4.882812 82.226562 -9.179688 77.539062 -9.375 68.164062 C -8.789062 58.789062 5.078125 54.101562 5.273438 59.570312 C 5.273438 63.867188 -3.320312 62.5 -3.320312 68.164062 Z M -3.320312 68.164062 " transform="matrix(0.02,0,0,0.02,12,6)"/>
<path style="fill-rule:nonzero;fill:rgb(98.823529%,81.960784%,8.627451%);fill-opacity:1;stroke-width:0.633;stroke-linecap:butt;stroke-linejoin:miter;stroke:rgb(0%,0%,0%);stroke-opacity:1;stroke-miterlimit:4;" d="M 1.757812 68.164062 C 1.5625 74.023438 10.15625 72.460938 10.15625 77.148438 C 9.960938 82.421875 -4.101562 77.539062 -4.296875 68.164062 C -3.710938 58.789062 10.15625 54.296875 10.15625 59.570312 C 10.351562 64.0625 1.757812 62.5 1.757812 68.164062 Z M 1.757812 68.164062 " transform="matrix(0.02,0,0,0.02,12,6)"/>
<path style="fill-rule:nonzero;fill:rgb(98.823529%,81.960784%,8.627451%);fill-opacity:1;stroke-width:0.633;stroke-linecap:butt;stroke-linejoin:miter;stroke:rgb(0%,0%,0%);stroke-opacity:1;stroke-miterlimit:4;" d="M 7.03125 67.96875 C 6.835938 73.828125 15.429688 72.265625 15.625 76.953125 C 15.429688 82.226562 1.171875 77.34375 1.171875 67.96875 C 1.757812 58.59375 15.429688 54.101562 15.625 59.375 C 15.820312 63.867188 7.226562 62.304688 7.03125 67.96875 Z M 7.03125 67.96875 " transform="matrix(0.02,0,0,0.02,12,6)"/>
<path style="fill-rule:nonzero;fill:rgb(98.823529%,81.960784%,8.627451%);fill-opacity:1;stroke-width:0.633;stroke-linecap:butt;stroke-linejoin:miter;stroke:rgb(0%,0%,0%);stroke-opacity:1;stroke-miterlimit:4;" d="M 12.109375 68.164062 C 11.914062 73.828125 20.507812 72.265625 20.703125 77.148438 C 20.3125 82.226562 6.25 77.34375 6.25 67.96875 C 6.835938 58.789062 20.507812 54.101562 20.703125 59.375 C 20.898438 63.867188 12.304688 62.304688 12.109375 68.164062 Z M 12.109375 68.164062 " transform="matrix(0.02,0,0,0.02,12,6)"/>
<path style="fill-rule:nonzero;fill:rgb(61.176471%,29.019608%,0%);fill-opacity:1;stroke-width:0.399;stroke-linecap:butt;stroke-linejoin:miter;stroke:rgb(0%,0%,0%);stroke-opacity:1;stroke-miterlimit:4;" d="M 481.89961 -41.140275 C 481.857906 -43.019698 480.268703 -44.474151 478.429279 -44.44787 C 476.445383 -44.553813 474.783199 -42.91862 474.824903 -41.039197 C 474.866607 -39.159773 476.455809 -37.705321 478.436727 -37.733623 C 480.27913 -37.625659 481.941314 -39.260852 481.89961 -41.140275 Z M 481.89961 -41.140275 " transform="matrix(0.0275984,0.0004156,-0.0006124,0.0290888,-0.50454,8.3441)"/>
<path style="fill-rule:nonzero;fill:rgb(0%,41.960784%,24.705882%);fill-opacity:1;stroke-width:2.5;stroke-linecap:butt;stroke-linejoin:miter;stroke:rgb(0%,0%,0%);stroke-opacity:1;stroke-miterlimit:4;" d="M 447.705499 905.057687 C 447.601373 891.703695 438.562551 880.607684 427.244264 880.699709 C 415.925978 880.791734 406.134026 891.878973 406.238151 905.232966 C 406.441384 918.100522 415.480207 929.196533 426.798493 929.104508 C 439.043452 929.085887 447.809625 918.41168 447.705499 905.057687 Z M 447.705499 905.057687 " transform="matrix(0.0041484,-0.000626,0.0008452,0.0079028,9.60044,0.13168)"/>
<path style="fill-rule:nonzero;fill:rgb(0%,41.960784%,24.705882%);fill-opacity:1;stroke-width:2.5;stroke-linecap:butt;stroke-linejoin:miter;stroke:rgb(0%,0%,0%);stroke-opacity:1;stroke-miterlimit:4;" d="M 448.327381 905.091922 C 448.223255 891.737929 438.158653 881.054951 426.939474 880.660539 C 415.621187 880.752564 405.829235 891.839804 405.933361 905.193796 C 406.037486 918.547789 415.175416 929.157363 427.420375 929.138743 C 438.738662 929.046718 447.504834 918.372511 448.327381 905.091922 Z M 448.327381 905.091922 " transform="matrix(0.0041484,-0.000626,0.0008452,0.0079028,9.4533,0.12008)"/>
<path style="fill-rule:nonzero;fill:rgb(0%,41.960784%,24.705882%);fill-opacity:1;stroke-width:2.5;stroke-linecap:butt;stroke-linejoin:miter;stroke:rgb(0%,0%,0%);stroke-opacity:1;stroke-miterlimit:4;" d="M 448.281285 905.189501 C 448.17716 891.835508 438.211664 880.666093 426.893378 880.758118 C 415.575091 880.850143 405.882246 891.450946 405.986372 904.804939 C 406.090498 918.158931 415.12932 929.254942 427.37428 929.236321 C 438.692566 929.144296 447.458738 918.470089 448.281285 905.189501 Z M 448.281285 905.189501 " transform="matrix(0.0041484,-0.000626,0.0008452,0.0079028,9.34794,-0.06822)"/>
<path style="fill-rule:nonzero;fill:rgb(0%,41.960784%,24.705882%);fill-opacity:1;stroke-width:2.5;stroke-linecap:butt;stroke-linejoin:miter;stroke:rgb(0%,0%,0%);stroke-opacity:1;stroke-miterlimit:4;" d="M 447.962311 905.208362 C 448.143067 891.780348 438.938914 880.809581 427.176212 880.85461 C 415.41351 880.899639 406.01044 891.868263 405.932027 904.855645 C 406.714439 918.353344 415.918591 929.324111 426.718125 929.209396 C 438.480828 929.164368 447.883897 918.195744 447.962311 905.208362 Z M 447.962311 905.208362 " transform="matrix(0.0039886,-0.0006308,0.0009264,0.0087186,9.49186,-0.8127)"/>
<path style="fill-rule:nonzero;fill:rgb(0%,41.960784%,24.705882%);fill-opacity:1;stroke-width:2.5;stroke-linecap:butt;stroke-linejoin:miter;stroke:rgb(0%,0%,0%);stroke-opacity:1;stroke-miterlimit:4;" d="M 448.320615 904.981058 C 448.305204 891.600363 438.903004 880.856305 427.140005 880.924451 C 415.377005 880.992598 406.171562 891.766205 406.186973 905.1469 C 406.202383 918.527595 415.604583 929.271653 427.367583 929.203507 C 438.16744 929.06269 448.336025 918.361753 448.320615 904.981058 Z M 448.320615 904.981058 " transform="matrix(0.00399,-0.0006168,0.0008712,0.0081748,9.747,-0.32464)"/>
<path style="fill-rule:nonzero;fill:rgb(0%,41.960784%,24.705882%);fill-opacity:1;stroke-width:2.5;stroke-linecap:butt;stroke-linejoin:miter;stroke:rgb(0%,0%,0%);stroke-opacity:1;stroke-miterlimit:4;" d="M 448.225436 905.185962 C 448.210025 891.805267 438.807826 881.061208 427.14747 880.659259 C 415.38447 880.727405 406.179027 891.501012 406.194438 904.881707 C 406.209848 918.262402 415.612048 929.00646 427.375048 928.938314 C 439.035404 929.340264 448.240847 918.566657 448.225436 905.185962 Z M 448.225436 905.185962 " transform="matrix(0.00399,-0.0006168,0.0008712,0.0081748,9.63392,-0.39278)"/>
<path style="fill-rule:nonzero;fill:rgb(0%,41.960784%,24.705882%);fill-opacity:1;stroke-width:2.5;stroke-linecap:butt;stroke-linejoin:miter;stroke:rgb(0%,0%,0%);stroke-opacity:1;stroke-miterlimit:4;" d="M 447.84978 904.758526 C 447.731726 891.847926 438.43217 880.633772 426.66917 880.701919 C 415.869313 880.842735 406.66387 891.616342 406.679281 904.997037 C 406.694692 918.377732 416.096891 929.12179 426.896748 928.980974 C 438.659748 928.912828 447.865191 918.13922 447.84978 904.758526 Z M 447.84978 904.758526 " transform="matrix(0.00399,-0.0006168,0.0008712,0.0081748,9.49126,-0.49108)"/>
<path style="fill-rule:nonzero;fill:rgb(0%,41.960784%,24.705882%);fill-opacity:1;stroke-width:2.5;stroke-linecap:butt;stroke-linejoin:miter;stroke:rgb(0%,0%,0%);stroke-opacity:1;stroke-miterlimit:4;" d="M 447.648713 904.861553 C 447.633302 891.480858 438.231103 880.7368 427.431246 880.877617 C 415.668246 880.945763 406.462803 891.71937 406.478214 905.100065 C 406.493625 918.48076 415.895824 929.224818 426.695681 929.084002 C 438.458681 929.015855 447.664124 918.242248 447.648713 904.861553 Z M 447.648713 904.861553 " transform="matrix(0.00399,-0.0006168,0.0008712,0.0081748,9.35916,-0.55064)"/>
<path style="fill-rule:nonzero;fill:rgb(58.039216%,38.039216%,78.823529%);fill-opacity:1;stroke-width:0.575;stroke-linecap:butt;stroke-linejoin:miter;stroke:rgb(0%,0%,0%);stroke-opacity:1;stroke-miterlimit:4;" d="M -14.648438 -52.734375 C -14.648438 -52.734375 -29.296875 -40.039062 -27.734375 -5.46875 C -25.976562 29.101562 4.6875 45.3125 4.6875 45.3125 C 4.6875 45.3125 12.5 35.546875 11.523438 7.617188 C 9.375 -33.007812 -5.078125 -50.976562 -5.078125 -50.976562 Z M -14.648438 -52.734375 " transform="matrix(0.02,0,0,0.02,12,6)"/>
<path style="fill-rule:nonzero;fill:rgb(0%,41.960784%,24.705882%);fill-opacity:1;stroke-width:2.5;stroke-linecap:butt;stroke-linejoin:miter;stroke:rgb(0%,0%,0%);stroke-opacity:1;stroke-miterlimit:4;" d="M 448.045611 905.234182 C 448.010809 891.436597 438.157475 880.74885 427.003649 880.922768 C 415.849823 881.096686 406.116327 891.597053 406.083495 904.902903 C 406.050663 918.208752 415.903997 928.896499 427.125457 929.214316 C 438.279283 929.040398 448.012779 918.540031 448.045611 905.234182 Z M 448.045611 905.234182 " transform="matrix(0.0041936,0.0001236,-0.0005768,0.0079268,11.09634,-0.18802)"/>
<path style="fill-rule:nonzero;fill:rgb(0%,41.960784%,24.705882%);fill-opacity:1;stroke-width:2.5;stroke-linecap:butt;stroke-linejoin:miter;stroke:rgb(0%,0%,0%);stroke-opacity:1;stroke-miterlimit:4;" d="M 447.589998 905.061832 C 447.62283 891.755982 438.698981 881.053742 427.477521 880.735925 C 415.394209 880.924336 406.657834 891.901946 406.625001 905.207795 C 406.592169 918.513645 415.516018 929.215884 426.669844 929.041966 C 438.82079 929.345291 447.557165 918.367681 447.589998 905.061832 Z M 447.589998 905.061832 " transform="matrix(0.0041936,0.0001236,-0.0005768,0.0079268,10.95362,-0.22566)"/>
<path style="fill-rule:nonzero;fill:rgb(0%,41.960784%,24.705882%);fill-opacity:1;stroke-width:2.5;stroke-linecap:butt;stroke-linejoin:miter;stroke:rgb(0%,0%,0%);stroke-opacity:1;stroke-miterlimit:4;" d="M 447.560728 905.182765 C 447.59356 891.876916 438.602077 880.682941 427.448251 880.856859 C 415.36494 881.04527 406.560929 891.531144 406.528097 904.836993 C 406.495265 918.142843 415.486748 929.336818 427.570059 929.148407 C 438.723885 928.974489 447.527896 918.488615 447.560728 905.182765 Z M 447.560728 905.182765 " transform="matrix(0.0041936,0.0001236,-0.0005768,0.0079268,10.8835,-0.42974)"/>
<path style="fill-rule:nonzero;fill:rgb(0%,41.960784%,24.705882%);fill-opacity:1;stroke-width:2.5;stroke-linecap:butt;stroke-linejoin:miter;stroke:rgb(0%,0%,0%);stroke-opacity:1;stroke-miterlimit:4;" d="M 448.344714 904.918293 C 448.148292 891.518272 438.717756 880.893917 427.126007 881.013493 C 415.463312 880.687066 406.540246 891.500751 406.736668 904.900772 C 405.967111 918.310758 415.397647 928.935113 427.060342 929.26154 C 438.65209 929.141964 447.575156 918.328279 448.344714 904.918293 Z M 448.344714 904.918293 " transform="matrix(0.0040372,0.0000902,-0.0006422,0.008744,11.1578,-1.13664)"/>
<path style="fill-rule:nonzero;fill:rgb(0%,41.960784%,24.705882%);fill-opacity:1;stroke-width:2.5;stroke-linecap:butt;stroke-linejoin:miter;stroke:rgb(0%,0%,0%);stroke-opacity:1;stroke-miterlimit:4;" d="M 447.640758 904.937626 C 447.594761 891.598494 438.241709 880.759734 426.649373 880.907056 C 416.023066 881.042101 405.984915 891.650877 406.030912 904.990009 C 406.076908 918.32914 415.429961 929.1679 427.022297 929.020578 C 438.685277 929.348777 447.686755 918.276758 447.640758 904.937626 Z M 447.640758 904.937626 " transform="matrix(0.004036,0.0001042,-0.0005996,0.0081992,11.32186,-0.61094)"/>
<path style="fill-rule:nonzero;fill:rgb(0%,41.960784%,24.705882%);fill-opacity:1;stroke-width:2.5;stroke-linecap:butt;stroke-linejoin:miter;stroke:rgb(0%,0%,0%);stroke-opacity:1;stroke-miterlimit:4;" d="M 448.025219 905.084279 C 447.979222 891.745148 438.626169 880.906388 427.033834 881.053709 C 415.370854 880.725511 406.369375 891.79753 406.415372 905.136662 C 406.461369 918.475793 415.814422 929.314554 427.406757 929.167232 C 438.999093 929.01991 448.071216 918.423411 448.025219 905.084279 Z M 448.025219 905.084279 " transform="matrix(0.004036,0.0001042,-0.0005996,0.0081992,11.22274,-0.69812)"/>
<path style="fill-rule:nonzero;fill:rgb(0%,41.960784%,24.705882%);fill-opacity:1;stroke-width:2.5;stroke-linecap:butt;stroke-linejoin:miter;stroke:rgb(0%,0%,0%);stroke-opacity:1;stroke-miterlimit:4;" d="M 447.515273 905.220803 C 448.435305 891.869395 439.082252 881.030635 427.419272 880.702436 C 415.826936 880.849758 405.788785 891.458534 405.834782 904.797665 C 405.880779 918.136797 415.233831 928.975557 426.896812 929.303756 C 438.489147 929.156434 447.56127 918.559935 447.515273 905.220803 Z M 447.515273 905.220803 " transform="matrix(0.004036,0.0001042,-0.0005996,0.0081992,11.09988,-0.82028)"/>
<path style="fill-rule:nonzero;fill:rgb(0%,41.960784%,24.705882%);fill-opacity:1;stroke-width:2.5;stroke-linecap:butt;stroke-linejoin:miter;stroke:rgb(0%,0%,0%);stroke-opacity:1;stroke-miterlimit:4;" d="M 448.054506 905.227214 C 448.008509 891.888082 438.655457 881.049322 426.992477 880.721123 C 415.400141 880.868445 406.328018 891.464944 406.374015 904.804076 C 406.420012 918.143207 415.773064 928.981967 427.436045 929.310166 C 439.02838 929.162844 448.100503 918.566345 448.054506 905.227214 Z M 448.054506 905.227214 " transform="matrix(0.004036,0.0001042,-0.0005996,0.0081992,10.98052,-0.90242)"/>
<path style="fill-rule:nonzero;fill:rgb(83.137255%,10.980392%,18.823529%);fill-opacity:1;stroke-width:1.25;stroke-linecap:butt;stroke-linejoin:miter;stroke:rgb(0%,0%,0%);stroke-opacity:1;stroke-miterlimit:4;" d="M 683.040918 605.937693 C 682.213746 503.298218 656.823344 419.853732 624.521017 419.185015 C 591.85557 419.411858 565.949204 502.779584 566.413255 606.314618 C 566.030491 709.50373 592.630828 792.398579 624.08634 792.721374 C 656.751788 792.494531 682.658154 709.126805 683.040918 605.937693 Z M 683.040918 605.937693 " transform="matrix(0.0039574,-0.0015286,0.0016046,0.003742,8.88324,4.81574)"/>
<path style="fill-rule:nonzero;fill:rgb(0%,41.960784%,24.705882%);fill-opacity:1;stroke-width:1.464;stroke-linecap:butt;stroke-linejoin:miter;stroke:rgb(0%,0%,0%);stroke-opacity:1;stroke-miterlimit:4;" d="M 229.105542 356.776538 C 229.007856 349.367852 224.228912 343.659786 217.959325 343.81051 C 212.081587 343.951814 207.449173 349.356775 207.15501 356.774881 C 207.245719 363.654374 212.03164 369.891633 218.301227 369.740909 C 224.178964 369.599605 228.804401 363.665451 229.105542 356.776538 Z M 229.105542 356.776538 " transform="matrix(0.0099656,0.0001774,-0.0001314,0.0073792,10.0098,2.7446)"/>
<path style="fill-rule:nonzero;fill:rgb(0%,41.960784%,24.705882%);fill-opacity:1;stroke-width:1.546;stroke-linecap:butt;stroke-linejoin:miter;stroke:rgb(0%,0%,0%);stroke-opacity:1;stroke-miterlimit:4;" d="M 228.73934 356.526513 C 229.075501 349.637596 224.178216 343.920163 218.054355 344.052114 C 212.360123 343.645448 207.196778 349.579658 207.305825 356.988342 C 207.407082 363.867834 212.304367 369.585267 217.99081 369.462741 C 224.12246 369.859982 228.848386 363.935197 228.73934 356.526513 Z M 228.73934 356.526513 " transform="matrix(0.0089274,0.000159,-0.0001314,0.0073792,10.3173,2.614)"/>
<path style="fill-rule:nonzero;fill:rgb(0%,41.960784%,24.705882%);fill-opacity:1;stroke-width:1.546;stroke-linecap:butt;stroke-linejoin:miter;stroke:rgb(0%,0%,0%);stroke-opacity:1;stroke-miterlimit:4;" d="M 228.904516 356.837351 C 228.79547 349.428667 223.898185 343.711234 218.211742 343.83376 C 212.087881 343.965711 207.354165 349.361304 207.463212 356.769989 C 207.12705 363.658906 212.032124 369.905531 218.155986 369.77358 C 224.279847 369.641628 229.005774 363.716844 228.904516 356.837351 Z M 228.904516 356.837351 " transform="matrix(0.0089274,0.000159,-0.0001314,0.0073792,10.18696,2.61168)"/>
<path style="fill-rule:nonzero;fill:rgb(0%,41.960784%,24.705882%);fill-opacity:1;stroke-width:1.56;stroke-linecap:butt;stroke-linejoin:miter;stroke:rgb(0%,0%,0%);stroke-opacity:1;stroke-miterlimit:4;" d="M 229.113329 356.969324 C 229.016539 349.641157 223.926443 344.124584 218.067416 343.701437 C 212.215835 343.841995 207.274648 349.599525 207.371439 356.927692 C 207.460784 363.692154 212.140355 369.782472 217.991936 369.641914 C 224.261488 369.491315 228.784705 363.743825 229.113329 356.969324 Z M 229.113329 356.969324 " transform="matrix(0.0093428,0.0001664,-0.0001234,0.0069274,10.12224,2.6726)"/>
<path style="fill-rule:nonzero;fill:rgb(0%,41.960784%,24.705882%);fill-opacity:1;stroke-width:1.56;stroke-linecap:butt;stroke-linejoin:miter;stroke:rgb(0%,0%,0%);stroke-opacity:1;stroke-miterlimit:4;" d="M 229.087133 356.920692 C 228.990342 349.592525 224.318217 344.065912 218.04122 343.652805 C 212.189638 343.793363 207.248451 349.550893 207.345242 356.87906 C 207.434587 363.643522 212.114158 369.73384 217.965739 369.593282 C 224.235291 369.442684 228.758508 363.695194 229.087133 356.920692 Z M 229.087133 356.920692 " transform="matrix(0.0093428,0.0001664,-0.0001234,0.0069274,10.11076,2.55966)"/>
<path style="fill-rule:nonzero;fill:rgb(0%,41.960784%,24.705882%);fill-opacity:1;stroke-width:1.546;stroke-linecap:butt;stroke-linejoin:miter;stroke:rgb(0%,0%,0%);stroke-opacity:1;stroke-miterlimit:4;" d="M 228.846688 356.561467 C 228.745431 349.681975 224.285565 343.955116 218.161703 344.087068 C 212.030053 343.689827 207.304127 349.614612 207.405384 356.494104 C 207.51443 363.902788 211.974297 369.629646 218.098158 369.497695 C 224.229809 369.894936 228.955735 363.970151 228.846688 356.561467 Z M 228.846688 356.561467 " transform="matrix(0.0089274,0.000159,-0.0001314,0.0073792,10.06244,2.5356)"/>
<path style="fill-rule:nonzero;fill:rgb(0%,41.960784%,24.705882%);fill-opacity:1;stroke-width:1.562;stroke-linecap:butt;stroke-linejoin:miter;stroke:rgb(0%,0%,0%);stroke-opacity:1;stroke-miterlimit:4;" d="M 229.088298 356.6702 C 228.986976 349.647383 224.089638 343.810834 217.965778 343.945535 C 212.279336 344.070613 207.108253 349.588238 207.209574 356.611056 C 207.310896 363.633873 212.208234 369.470422 218.339889 369.875938 C 224.02633 369.75086 228.752201 363.70264 229.088298 356.6702 Z M 229.088298 356.6702 " transform="matrix(0.0089274,0.000159,-0.0001288,0.0072286,10.09062,2.46738)"/>
<path style="fill-rule:nonzero;fill:rgb(0%,41.960784%,24.705882%);fill-opacity:1;stroke-width:1.464;stroke-linecap:butt;stroke-linejoin:miter;stroke:rgb(0%,0%,0%);stroke-opacity:1;stroke-miterlimit:4;" d="M 229.066615 356.773239 C 228.968928 349.364553 224.189985 343.656487 218.312247 343.797791 C 212.04266 343.948515 207.417224 349.882668 207.116083 356.771582 C 207.206791 363.651075 211.992713 369.888334 218.262299 369.73761 C 224.140037 369.596305 228.765474 363.662152 229.066615 356.773239 Z M 229.066615 356.773239 " transform="matrix(0.0099656,0.0001774,-0.0001314,0.0073792,9.7055,2.4126)"/>
<path style="fill-rule:nonzero;fill:rgb(0%,41.960784%,24.705882%);fill-opacity:1;stroke-width:1.56;stroke-linecap:butt;stroke-linejoin:miter;stroke:rgb(0%,0%,0%);stroke-opacity:1;stroke-miterlimit:4;" d="M 229.054275 357.016033 C 228.957484 349.687866 224.277913 343.597548 218.008362 343.748146 C 212.15678 343.888705 207.215593 349.646235 207.312384 356.974402 C 207.401729 363.738863 212.0813 369.829181 217.932882 369.688623 C 224.202433 369.538025 229.14362 363.780495 229.054275 357.016033 Z M 229.054275 357.016033 " transform="matrix(0.0093428,0.0001664,-0.0001234,0.0069274,10.03686,2.41838)"/>
<path style="fill-rule:nonzero;fill:rgb(0%,41.960784%,24.705882%);fill-opacity:1;stroke-width:1.562;stroke-linecap:butt;stroke-linejoin:miter;stroke:rgb(0%,0%,0%);stroke-opacity:1;stroke-miterlimit:4;" d="M 228.954261 356.822728 C 228.852939 349.79991 223.955601 343.963362 218.269159 344.088441 C 212.137505 343.682924 207.411634 349.731144 207.512956 356.753962 C 207.176859 363.786401 212.074197 369.622949 218.198057 369.488249 C 223.892293 369.903387 229.055582 363.845546 228.954261 356.822728 Z M 228.954261 356.822728 " transform="matrix(0.0089274,0.000159,-0.0001288,0.0072286,9.99418,2.32958)"/>
<path style="fill-rule:nonzero;fill:rgb(0%,41.960784%,24.705882%);fill-opacity:1;stroke-width:1.546;stroke-linecap:butt;stroke-linejoin:miter;stroke:rgb(0%,0%,0%);stroke-opacity:1;stroke-miterlimit:4;" d="M 229.148647 356.614418 C 229.04739 349.734926 224.150105 344.017493 218.018455 343.620252 C 212.332012 343.742778 207.168667 349.676988 207.269924 356.556481 C 207.378971 363.965165 212.276255 369.682598 217.962698 369.560072 C 224.08656 369.428121 228.820275 364.032527 229.148647 356.614418 Z M 229.148647 356.614418 " transform="matrix(0.0089274,0.000159,-0.0001314,0.0073792,9.79022,2.42188)"/>
<path style="fill-rule:nonzero;fill:rgb(0%,41.960784%,24.705882%);fill-opacity:1;stroke-width:1.562;stroke-linecap:butt;stroke-linejoin:miter;stroke:rgb(0%,0%,0%);stroke-opacity:1;stroke-miterlimit:4;" d="M 228.890593 356.718818 C 228.789272 349.696 223.891934 343.859452 218.205492 343.98453 C 212.073838 343.579014 207.347967 349.627234 207.449288 356.650052 C 207.113191 363.682491 212.01053 369.519039 218.142184 369.924556 C 224.266044 369.789855 228.991915 363.741635 228.890593 356.718818 Z M 228.890593 356.718818 " transform="matrix(0.0089274,0.000159,-0.0001288,0.0072286,9.82286,2.40456)"/>
<path style="fill-rule:nonzero;fill:rgb(0%,41.960784%,24.705882%);fill-opacity:1;stroke-width:1.562;stroke-linecap:butt;stroke-linejoin:miter;stroke:rgb(0%,0%,0%);stroke-opacity:1;stroke-miterlimit:4;" d="M 229.111761 356.763063 C 229.010439 349.740246 224.113101 343.903697 217.98924 344.038398 C 212.295005 343.62326 207.131715 349.681101 207.233037 356.703919 C 207.334359 363.726736 212.231697 369.563285 217.918139 369.438206 C 224.049793 369.843723 228.775664 363.795503 229.111761 356.763063 Z M 229.111761 356.763063 " transform="matrix(0.0089274,0.000159,-0.0001288,0.0072286,9.86386,2.32608)"/>
<path style="fill-rule:nonzero;fill:rgb(0%,41.960784%,24.705882%);fill-opacity:1;stroke-width:2.545;stroke-linecap:butt;stroke-linejoin:miter;stroke:rgb(0%,0%,0%);stroke-opacity:1;stroke-miterlimit:4;" d="M 596.239409 564.475386 C 595.68861 451.148929 566.38707 358.707248 528.927343 358.851694 C 491.467617 358.996139 461.320569 450.888781 460.765827 564.758306 C 461.316626 678.084763 491.723707 769.983376 529.183434 769.838931 C 565.53762 770.237553 595.684668 678.344911 596.239409 564.475386 Z M 596.239409 564.475386 " transform="matrix(0.0043864,-0.0015486,0.0017366,0.0040404,9.0997,4.54888)"/>
<path style="fill-rule:nonzero;fill:rgb(0%,41.960784%,24.705882%);fill-opacity:1;stroke-width:2.5;stroke-linecap:butt;stroke-linejoin:miter;stroke:rgb(0%,0%,0%);stroke-opacity:1;stroke-miterlimit:4;" d="M 541.97761 645.7861 C 541.76145 623.571289 535.964687 605.230443 528.301863 605.378785 C 521.771811 605.128605 515.291403 623.330528 515.157725 646.305298 C 515.373885 668.520108 521.170648 686.860954 528.833472 686.712612 C 536.146458 687.324228 541.843932 668.760869 541.97761 645.7861 Z M 541.97761 645.7861 " transform="matrix(0.0041148,-0.001957,0.0018942,0.0042392,9.25756,4.45194)"/>
<path style="fill-rule:nonzero;fill:rgb(0%,41.960784%,24.705882%);fill-opacity:1;stroke-width:0.575;stroke-linecap:butt;stroke-linejoin:miter;stroke:rgb(0%,0%,0%);stroke-opacity:1;stroke-miterlimit:4;" d="M 31.445312 7.8125 C 44.335938 23.4375 42.578125 33.398438 41.40625 41.601562 C 37.304688 32.03125 35.15625 25.976562 22.265625 10.351562 C 9.375 -5.273438 15.820312 -16.210938 16.796875 -22.070312 C 18.75 -16.992188 18.554688 -7.8125 31.445312 7.8125 Z M 31.445312 7.8125 " transform="matrix(0.02,0,0,0.02,12,6)"/>
<path style="fill-rule:nonzero;fill:rgb(0%,41.960784%,24.705882%);fill-opacity:1;stroke-width:0.575;stroke-linecap:butt;stroke-linejoin:miter;stroke:rgb(0%,0%,0%);stroke-opacity:1;stroke-miterlimit:4;" d="M 32.617188 20.3125 C 45.507812 35.9375 43.75 45.898438 42.382812 54.296875 C 38.476562 44.53125 36.328125 38.476562 23.4375 22.851562 C 10.546875 7.421875 16.992188 -3.515625 17.96875 -9.375 C 19.921875 -4.296875 19.726562 4.882812 32.617188 20.3125 Z M 32.617188 20.3125 " transform="matrix(0.02,0,0,0.02,12,6)"/>
<path style="fill-rule:nonzero;fill:rgb(0%,41.960784%,24.705882%);fill-opacity:1;stroke-width:0.575;stroke-linecap:butt;stroke-linejoin:miter;stroke:rgb(0%,0%,0%);stroke-opacity:1;stroke-miterlimit:4;" d="M 33.007812 30.46875 C 46.09375 45.898438 44.726562 55.859375 43.554688 64.257812 C 39.257812 54.6875 36.914062 48.632812 23.828125 33.203125 C 10.742188 17.96875 16.992188 6.835938 17.773438 1.171875 C 19.726562 6.054688 19.921875 15.234375 33.007812 30.46875 Z M 33.007812 30.46875 " transform="matrix(0.02,0,0,0.02,12,6)"/>
<path style="fill-rule:nonzero;fill:rgb(0%,41.960784%,24.705882%);fill-opacity:1;stroke-width:1.389;stroke-linecap:butt;stroke-linejoin:miter;stroke:rgb(0%,0%,0%);stroke-opacity:1;stroke-miterlimit:4;" d="M 541.834702 646.250211 C 542.028046 623.548696 536.063854 605.36064 528.845738 605.445396 C 521.197154 605.41184 515.258004 623.431252 515.495127 646.251077 C 515.492061 668.487737 521.456253 686.675793 528.484092 687.055892 C 536.132675 687.089448 541.831636 668.48687 541.834702 646.250211 Z M 541.834702 646.250211 " transform="matrix(0.0081568,-0.002076,0.0033388,0.0075534,6.0086,2.0794)"/>
<path style="fill-rule:nonzero;fill:rgb(0%,41.960784%,24.705882%);fill-opacity:1;stroke-width:1.64;stroke-linecap:butt;stroke-linejoin:miter;stroke:rgb(0%,0%,0%);stroke-opacity:1;stroke-miterlimit:4;" d="M 541.762504 646.194711 C 541.734423 623.699839 536.081488 605.067342 528.506693 605.412673 C 521.138144 605.17493 515.241395 623.350534 515.269476 645.845407 C 515.297557 668.340279 521.447353 687.073055 528.525287 686.627445 C 535.893836 686.865188 541.790585 668.689584 541.762504 646.194711 Z M 541.762504 646.194711 " transform="matrix(0.007338,-0.001262,0.0025956,0.006253,6.81994,2.66258)"/>
<path style="fill-rule:nonzero;fill:rgb(0%,41.960784%,24.705882%);fill-opacity:1;stroke-width:1.64;stroke-linecap:butt;stroke-linejoin:miter;stroke:rgb(0%,0%,0%);stroke-opacity:1;stroke-miterlimit:4;" d="M 541.894185 645.820062 C 541.930768 623.526998 535.890469 605.123206 528.984534 605.150445 C 521.577509 605.08977 515.309208 623.811782 515.272624 646.104846 C 515.236041 668.397911 521.27634 686.801702 528.683365 686.862378 C 536.09039 686.923053 542.162807 668.786104 541.894185 645.820062 Z M 541.894185 645.820062 " transform="matrix(0.007363,-0.0011064,0.0024652,0.0063062,6.76952,2.6636)"/>
<path style="fill-rule:nonzero;fill:rgb(0%,41.960784%,24.705882%);fill-opacity:1;stroke-width:2.097;stroke-linecap:butt;stroke-linejoin:miter;stroke:rgb(0%,0%,0%);stroke-opacity:1;stroke-miterlimit:4;" d="M 541.972741 645.784343 C 541.922681 623.147667 536.211822 605.057712 528.971932 605.046671 C 521.732043 605.035631 515.385132 623.667857 515.435192 646.304532 C 515.485252 668.941207 521.196111 687.031162 528.436 687.042203 C 535.675889 687.053244 542.022801 668.421018 541.972741 645.784343 Z M 541.972741 645.784343 " transform="matrix(0.0059316,-0.0010862,0.0022302,0.0046616,7.7786,3.28924)"/>
<path style="fill-rule:nonzero;fill:rgb(0%,41.960784%,24.705882%);fill-opacity:1;stroke-width:2.097;stroke-linecap:butt;stroke-linejoin:miter;stroke:rgb(0%,0%,0%);stroke-opacity:1;stroke-miterlimit:4;" d="M 541.88692 646.338763 C 542.106099 623.465973 536.223718 605.348883 528.530076 604.942374 C 521.205143 605.412686 515.421324 623.309064 515.202145 646.181854 C 515.234436 668.276541 521.485528 687.270452 528.81046 686.80014 C 535.883922 687.107932 541.919211 668.43345 541.88692 646.338763 Z M 541.88692 646.338763 " transform="matrix(0.0059904,-0.00076,0.001936,0.0047746,7.8346,3.1227)"/>
<path style="fill-rule:nonzero;fill:rgb(0%,41.960784%,24.705882%);fill-opacity:1;stroke-width:0.575;stroke-linecap:butt;stroke-linejoin:miter;stroke:rgb(0%,0%,0%);stroke-opacity:1;stroke-miterlimit:4;" d="M 8.59375 -15.820312 C 12.5 -6.445312 13.867188 1.757812 12.109375 2.734375 C 10.15625 3.90625 5.46875 -2.929688 1.757812 -12.109375 " transform="matrix(0.02,0,0,0.02,12,6)"/>
<path style="fill-rule:nonzero;fill:rgb(0%,41.960784%,24.705882%);fill-opacity:1;stroke-width:2.097;stroke-linecap:butt;stroke-linejoin:miter;stroke:rgb(0%,0%,0%);stroke-opacity:1;stroke-miterlimit:4;" d="M 542.092114 646.097057 C 542.311293 623.224266 535.808731 605.008458 528.483799 605.47877 C 521.410337 605.170979 515.375048 623.845461 515.407339 645.940147 C 515.18816 668.812938 521.070541 686.930028 529.015654 686.558434 C 536.089116 686.866225 541.872934 668.969847 542.092114 646.097057 Z M 542.092114 646.097057 " transform="matrix(0.0059904,-0.00076,0.001936,0.0047746,7.82212,2.90526)"/>
<path style="fill-rule:nonzero;fill:rgb(0%,41.960784%,24.705882%);fill-opacity:1;stroke-width:2.097;stroke-linecap:butt;stroke-linejoin:miter;stroke:rgb(0%,0%,0%);stroke-opacity:1;stroke-miterlimit:4;" d="M 541.728174 646.024794 C 542.130125 623.345016 535.869543 605.459552 528.757464 605.322434 C 521.645386 605.185315 515.319128 623.826931 515.154731 645.7265 C 515.377737 668.489671 521.400765 687.155344 528.750398 686.512254 C 535.862476 686.649372 541.95118 668.787965 541.728174 646.024794 Z M 541.728174 646.024794 " transform="matrix(0.0060064,-0.000642,0.0018288,0.0048112,7.75612,2.88026)"/>
<path style="fill-rule:nonzero;fill:rgb(0%,41.960784%,24.705882%);fill-opacity:1;stroke-width:0.575;stroke-linecap:butt;stroke-linejoin:miter;stroke:rgb(0%,0%,0%);stroke-opacity:1;stroke-miterlimit:4;" d="M 1.953125 -28.320312 C 5.664062 -22.070312 7.617188 -16.210938 6.445312 -15.234375 C 5.273438 -14.453125 1.171875 -18.75 -2.539062 -25 " transform="matrix(0.02,0,0,0.02,12,6)"/>
<path style="fill-rule:nonzero;fill:rgb(0%,41.960784%,24.705882%);fill-opacity:1;stroke-width:0.575;stroke-linecap:butt;stroke-linejoin:miter;stroke:rgb(0%,0%,0%);stroke-opacity:1;stroke-miterlimit:4;" d="M 4.492188 -32.421875 C 8.203125 -26.171875 10.15625 -20.3125 8.984375 -19.53125 C 7.8125 -18.554688 3.710938 -22.851562 0 -29.101562 M 16.015625 -31.640625 C 21.09375 -23.046875 23.828125 -15.039062 22.070312 -13.867188 C 20.507812 -12.5 14.84375 -18.359375 9.765625 -26.953125 " transform="matrix(0.02,0,0,0.02,12,6)"/>
<path style="fill-rule:nonzero;fill:rgb(0%,41.960784%,24.705882%);fill-opacity:1;stroke-width:0.575;stroke-linecap:butt;stroke-linejoin:miter;stroke:rgb(0%,0%,0%);stroke-opacity:1;stroke-miterlimit:4;" d="M 8.398438 -36.132812 C 12.109375 -29.101562 14.0625 -22.65625 12.890625 -21.679688 C 11.71875 -20.703125 7.617188 -25.390625 3.90625 -32.421875 " transform="matrix(0.02,0,0,0.02,12,6)"/>
<path style="fill-rule:nonzero;fill:rgb(58.039216%,38.039216%,78.823529%);fill-opacity:1;stroke-width:0.591;stroke-linecap:butt;stroke-linejoin:miter;stroke:rgb(0%,0%,0%);stroke-opacity:1;stroke-miterlimit:4;" d="M 8.203125 -46.09375 C 5.664062 -43.554688 8.007812 -38.867188 10.351562 -37.304688 C 12.890625 -34.960938 27.148438 -19.921875 37.109375 -32.617188 C 29.101562 -32.8125 14.0625 -51.5625 8.203125 -46.09375 Z M 8.203125 -46.09375 " transform="matrix(0.02,0,0,0.02,12,6)"/>
<path style="fill-rule:nonzero;fill:rgb(58.039216%,38.039216%,78.823529%);fill-opacity:1;stroke-width:0.591;stroke-linecap:butt;stroke-linejoin:miter;stroke:rgb(0%,0%,0%);stroke-opacity:1;stroke-miterlimit:4;" d="M 6.445312 -53.515625 C 3.90625 -50.976562 6.25 -46.289062 8.59375 -44.726562 C 11.132812 -42.382812 25.390625 -27.34375 35.351562 -40.039062 C 27.34375 -40.234375 12.304688 -58.984375 6.445312 -53.515625 Z M 6.445312 -53.515625 " transform="matrix(0.02,0,0,0.02,12,6)"/>
<path style="fill-rule:nonzero;fill:rgb(58.039216%,38.039216%,78.823529%);fill-opacity:1;stroke-width:0.591;stroke-linecap:butt;stroke-linejoin:miter;stroke:rgb(0%,0%,0%);stroke-opacity:1;stroke-miterlimit:4;" d="M 4.101562 -60.546875 C 1.5625 -58.007812 4.101562 -53.515625 6.25 -51.757812 C 8.789062 -49.414062 23.046875 -34.570312 33.007812 -47.070312 C 25 -47.265625 10.15625 -66.015625 4.101562 -60.546875 Z M 4.101562 -60.546875 " transform="matrix(0.02,0,0,0.02,12,6)"/>
<path style="fill-rule:nonzero;fill:rgb(58.039216%,38.039216%,78.823529%);fill-opacity:1;stroke-width:0.591;stroke-linecap:butt;stroke-linejoin:miter;stroke:rgb(0%,0%,0%);stroke-opacity:1;stroke-miterlimit:4;" d="M -0.78125 -68.75 C -3.320312 -66.210938 -0.78125 -61.523438 1.367188 -59.960938 C 3.90625 -57.617188 18.164062 -42.578125 28.125 -55.273438 C 20.117188 -55.273438 5.273438 -74.21875 -0.78125 -68.75 Z M -0.78125 -68.75 " transform="matrix(0.02,0,0,0.02,12,6)"/>
<path style="fill-rule:nonzero;fill:rgb(58.039216%,38.039216%,78.823529%);fill-opacity:1;stroke-width:0.628;stroke-linecap:butt;stroke-linejoin:miter;stroke:rgb(0%,0%,0%);stroke-opacity:1;stroke-miterlimit:4;" d="M -18.359375 -76.367188 C -13.28125 -80.273438 -3.90625 -81.25 3.320312 -77.539062 C 9.375 -74.609375 19.53125 -62.5 27.148438 -59.765625 C 21.875 -58.789062 18.554688 -59.570312 15.234375 -61.132812 C 8.398438 -56.25 6.054688 -55.664062 -0.78125 -54.6875 C -10.351562 -53.320312 -18.359375 -55.664062 -21.09375 -60.742188 C -24.023438 -65.429688 -22.65625 -72.851562 -18.359375 -76.367188 Z M -18.359375 -76.367188 " transform="matrix(0.02,0,0,0.02,12,6)"/>
<path style="fill-rule:nonzero;fill:rgb(83.137255%,10.980392%,18.823529%);fill-opacity:1;stroke-width:2.5;stroke-linecap:butt;stroke-linejoin:miter;stroke:rgb(0%,0%,0%);stroke-opacity:1;stroke-miterlimit:4;" d="M 301.367875 323.524932 C 301.278046 314.300306 294.893924 307.58701 287.313824 307.833219 C 279.102049 308.099945 272.852671 315.223589 272.931271 323.295137 C 273.009871 331.366685 279.393993 338.07998 286.974093 337.833771 C 295.185868 337.567045 301.446475 331.59648 301.367875 323.524932 Z M 301.367875 323.524932 " transform="matrix(0.006182,0.00011,-0.0000602,0.0033866,10.09392,3.4962)"/>
<path style="fill-rule:nonzero;fill:rgb(98.823529%,81.960784%,8.627451%);fill-opacity:1;stroke-width:2.5;stroke-linecap:butt;stroke-linejoin:miter;stroke:rgb(0%,0%,0%);stroke-opacity:1;stroke-miterlimit:4;" d="M 228.101968 348.480987 C 227.898781 339.488037 217.503652 332.4802 204.777673 332.517653 C 192.051694 332.555105 181.004106 339.528292 181.207293 348.521242 C 181.410479 357.514193 191.805609 364.522029 204.531588 364.484576 C 217.257567 364.447124 227.606899 357.182725 228.101968 348.480987 Z M 228.101968 348.480987 " transform="matrix(0.004916,-0.0018288,0.0016264,0.004385,10.0111,3.67422)"/>
<path style=" stroke:none;fill-rule:nonzero;fill:rgb(0%,0%,0%);fill-opacity:1;" d="M 11.878906 4.617188 C 11.875 4.632812 11.863281 4.644531 11.84375 4.644531 C 11.828125 4.644531 11.8125 4.632812 11.8125 4.617188 C 11.8125 4.601562 11.828125 4.589844 11.847656 4.589844 C 11.863281 4.589844 11.878906 4.605469 11.878906 4.617188 Z M 11.878906 4.617188 "/>
<path style="fill-rule:nonzero;fill:rgb(98.823529%,81.960784%,8.627451%);fill-opacity:1;stroke-width:0.732;stroke-linecap:butt;stroke-linejoin:miter;stroke:rgb(0%,0%,0%);stroke-opacity:1;stroke-miterlimit:4;" d="M -17.1875 -65.429688 C -16.796875 -63.476562 -18.164062 -60.9375 -21.289062 -59.960938 C -24.414062 -58.59375 -26.953125 -55.664062 -28.320312 -50.78125 C -33.203125 -61.914062 -30.078125 -66.601562 -25 -67.773438 C -20.507812 -69.335938 -17.773438 -69.140625 -17.1875 -65.429688 Z M -17.1875 -65.429688 " transform="matrix(0.02,0,0,0.02,12,6)"/>
</g>
</svg>
