<?xml version="1.0" encoding="UTF-8"?>
<svg xmlns="http://www.w3.org/2000/svg" xmlns:xlink="http://www.w3.org/1999/xlink" width="24px" height="24px" viewBox="0 0 24 16" version="1.1">
<g id="surface1">
<rect x="0" y="0" width="24" height="16" style="fill:rgb(100%,100%,100%);fill-opacity:1;stroke:none;"/>
<path style=" stroke:none;fill-rule:nonzero;fill:rgb(0%,38.431373%,20%);fill-opacity:1;" d="M 0 0 L 12 0 L 12 16 L 0 16 Z M 0 0 "/>
<path style=" stroke:none;fill-rule:nonzero;fill:rgb(82.352941%,6.27451%,20.392157%);fill-opacity:1;" d="M 15.464844 6 C 14.5625 4.433594 12.714844 3.667969 10.96875 4.136719 C 9.21875 4.605469 8.003906 6.191406 8.003906 8 C 8.003906 9.808594 9.21875 11.394531 10.96875 11.863281 C 12.714844 12.332031 14.5625 11.566406 15.464844 10 C 14.617188 11.0625 13.191406 11.46875 11.910156 11.019531 C 10.625 10.570312 9.769531 9.359375 9.769531 8 C 9.769531 6.640625 10.625 5.429688 11.910156 4.980469 C 13.191406 4.53125 14.617188 4.9375 15.464844 6 M 15.601562 8 L 12 6.828125 L 14.238281 9.894531 L 14.238281 6.105469 L 12 9.171875 Z M 15.601562 8 "/>
</g>
</svg>
