<?xml version="1.0" encoding="UTF-8"?>
<svg xmlns="http://www.w3.org/2000/svg" xmlns:xlink="http://www.w3.org/1999/xlink" width="24px" height="24px" viewBox="0 0 24 16" version="1.1">
<g id="surface1">
<rect x="0" y="0" width="24" height="16" style="fill:rgb(0%,0%,0%);fill-opacity:1;stroke:none;"/>
<path style=" stroke:none;fill-rule:nonzero;fill:rgb(100%,100%,100%);fill-opacity:1;" d="M 0 0 L 24 0 L 24 10.667969 L 0 10.667969 Z M 0 0 "/>
<path style=" stroke:none;fill-rule:nonzero;fill:rgb(80.784314%,6.666667%,14.901961%);fill-opacity:1;" d="M 0 0 L 24 0 L 24 5.332031 L 0 5.332031 Z M 0 0 "/>
<path style="fill-rule:nonzero;fill:rgb(100%,100%,100%);fill-opacity:1;stroke-width:1.2703;stroke-linecap:butt;stroke-linejoin:round;stroke:rgb(75.294118%,57.647059%,0%);stroke-opacity:1;stroke-miterlimit:4;" d="M 450.878906 302.34375 L 519.287109 365.917969 L 514.453125 250.488281 C 513.720703 233.056641 498.486328 237.011719 487.5 243.310547 C 476.220703 250.488281 463.476562 250.488281 450 245.800781 C 436.523438 250.488281 423.779297 250.488281 412.5 243.310547 C 401.513672 237.011719 386.279297 233.056641 385.546875 250.488281 L 380.712891 365.917969 Z M 450.878906 302.34375 " transform="matrix(0.0266667,0,0,0.0266667,0,0)"/>
<path style=" stroke:none;fill-rule:nonzero;fill:rgb(75.294118%,57.647059%,0%);fill-opacity:1;" d="M 10.492188 6.574219 L 10.367188 9.566406 L 10.152344 9.757812 L 10.28125 6.679688 C 10.34375 6.636719 10.449219 6.574219 10.492188 6.574219 Z M 10.492188 6.574219 "/>
<path style=" stroke:none;fill-rule:nonzero;fill:rgb(75.294118%,57.647059%,0%);fill-opacity:1;" d="M 10.75 6.789062 L 10.640625 9.292969 L 10.429688 9.511719 L 10.558594 6.617188 C 10.601562 6.660156 10.726562 6.765625 10.75 6.789062 Z M 10.75 6.789062 "/>
<path style=" stroke:none;fill-rule:nonzero;fill:rgb(75.294118%,57.647059%,0%);fill-opacity:1;" d="M 10.980469 6.980469 L 10.898438 9.066406 L 10.726562 9.238281 L 10.832031 6.851562 C 10.875 6.894531 10.960938 6.957031 10.980469 6.980469 Z M 10.980469 6.980469 "/>
<path style=" stroke:none;fill-rule:nonzero;fill:rgb(75.294118%,57.647059%,0%);fill-opacity:1;" d="M 11.234375 7.085938 L 11.152344 8.867188 L 10.980469 9.003906 L 11.066406 7.019531 C 11.109375 7.039062 11.191406 7.085938 11.234375 7.085938 Z M 11.234375 7.085938 "/>
<path style=" stroke:none;fill-rule:nonzero;fill:rgb(75.294118%,57.647059%,0%);fill-opacity:1;" d="M 11.46875 7.085938 L 11.40625 8.570312 L 11.234375 8.738281 L 11.300781 7.105469 C 11.34375 7.105469 11.449219 7.105469 11.46875 7.085938 Z M 11.46875 7.085938 "/>
<path style=" stroke:none;fill-rule:nonzero;fill:rgb(75.294118%,57.647059%,0%);fill-opacity:1;" d="M 13.507812 6.574219 L 13.632812 9.566406 L 13.847656 9.757812 L 13.71875 6.679688 C 13.65625 6.636719 13.550781 6.574219 13.507812 6.574219 Z M 13.507812 6.574219 "/>
<path style=" stroke:none;fill-rule:nonzero;fill:rgb(75.294118%,57.647059%,0%);fill-opacity:1;" d="M 13.25 6.789062 L 13.359375 9.292969 L 13.570312 9.511719 L 13.441406 6.617188 C 13.398438 6.660156 13.273438 6.765625 13.25 6.789062 Z M 13.25 6.789062 "/>
<path style=" stroke:none;fill-rule:nonzero;fill:rgb(75.294118%,57.647059%,0%);fill-opacity:1;" d="M 13.019531 6.980469 L 13.101562 9.066406 L 13.273438 9.238281 L 13.167969 6.851562 C 13.125 6.894531 13.039062 6.957031 13.019531 6.980469 Z M 13.019531 6.980469 "/>
<path style=" stroke:none;fill-rule:nonzero;fill:rgb(75.294118%,57.647059%,0%);fill-opacity:1;" d="M 12.765625 7.085938 L 12.847656 8.867188 L 13.019531 9.003906 L 12.933594 7.019531 C 12.890625 7.039062 12.808594 7.085938 12.765625 7.085938 Z M 12.765625 7.085938 "/>
<path style=" stroke:none;fill-rule:nonzero;fill:rgb(75.294118%,57.647059%,0%);fill-opacity:1;" d="M 12.53125 7.085938 L 12.59375 8.570312 L 12.765625 8.738281 L 12.699219 7.105469 C 12.65625 7.105469 12.550781 7.105469 12.53125 7.085938 Z M 12.53125 7.085938 "/>
<path style="fill-rule:nonzero;fill:rgb(75.294118%,57.647059%,0%);fill-opacity:1;stroke-width:1.0739;stroke-linecap:butt;stroke-linejoin:miter;stroke:rgb(75.294118%,57.647059%,0%);stroke-opacity:1;stroke-miterlimit:4;" d="M 453.222656 315.087891 L 462.744141 358.886719 L 459.667969 361.962891 L 456.298828 359.472656 L 450.878906 320.507812 L 453.222656 359.472656 L 450 363.574219 L 446.777344 359.472656 L 449.121094 320.507812 L 443.701172 359.472656 L 440.332031 361.962891 L 437.255859 358.886719 L 446.777344 315.087891 Z M 453.222656 315.087891 " transform="matrix(0.0266667,0,0,0.0266667,0,0)"/>
<path style="fill-rule:nonzero;fill:rgb(100%,100%,100%);fill-opacity:1;stroke-width:1.1888;stroke-linecap:butt;stroke-linejoin:round;stroke:rgb(75.294118%,57.647059%,0%);stroke-opacity:1;stroke-miterlimit:4;" d="M 428.466797 295.898438 L 409.423828 363.574219 L 435.644531 367.529297 L 446.777344 316.699219 Z M 428.466797 295.898438 " transform="matrix(0.0266667,0,0,0.0266667,0,0)"/>
<path style="fill:none;stroke-width:1.2705;stroke-linecap:butt;stroke-linejoin:round;stroke:rgb(75.294118%,57.647059%,0%);stroke-opacity:1;stroke-miterlimit:4;" d="M 422.167969 318.896484 L 424.511719 324.462891 L 436.816406 312.744141 " transform="matrix(0.0266667,0,0,0.0266667,0,0)"/>
<path style="fill:none;stroke-width:1.2705;stroke-linecap:butt;stroke-linejoin:round;stroke:rgb(75.294118%,57.647059%,0%);stroke-opacity:1;stroke-miterlimit:4;" d="M 430.810547 304.980469 L 433.300781 329.296875 L 441.210938 318.896484 " transform="matrix(0.0266667,0,0,0.0266667,0,0)"/>
<path style="fill:none;stroke-width:1.2705;stroke-linecap:butt;stroke-linejoin:round;stroke:rgb(75.294118%,57.647059%,0%);stroke-opacity:1;stroke-miterlimit:4;" d="M 438.134766 322.998047 L 442.382812 337.792969 " transform="matrix(0.0266667,0,0,0.0266667,0,0)"/>
<path style="fill:none;stroke-width:1.2705;stroke-linecap:butt;stroke-linejoin:round;stroke:rgb(75.294118%,57.647059%,0%);stroke-opacity:1;stroke-miterlimit:4;" d="M 444.140625 332.373047 L 435.351562 345.556641 M 438.134766 358.886719 L 435.351562 345.556641 L 432.861328 332.226562 L 427.001953 340.136719 L 424.511719 331.054688 L 416.308594 339.404297 L 420.410156 354.638672 L 426.123047 345.117188 L 429.345703 354.785156 L 435.205078 345.703125 " transform="matrix(0.0266667,0,0,0.0266667,0,0)"/>
<path style="fill:none;stroke-width:1.2705;stroke-linecap:butt;stroke-linejoin:round;stroke:rgb(75.294118%,57.647059%,0%);stroke-opacity:1;stroke-miterlimit:4;" d="M 414.990234 361.962891 L 420.263672 354.492188 L 423.779297 365.917969 L 428.466797 358.007812 L 431.689453 367.529297 " transform="matrix(0.0266667,0,0,0.0266667,0,0)"/>
<path style="fill-rule:nonzero;fill:rgb(100%,100%,100%);fill-opacity:1;stroke-width:1.1888;stroke-linecap:butt;stroke-linejoin:round;stroke:rgb(75.294118%,57.647059%,0%);stroke-opacity:1;stroke-miterlimit:4;" d="M 428.466797 295.898438 L 409.423828 363.574219 L 435.644531 367.529297 L 446.777344 316.699219 Z M 428.466797 295.898438 " transform="matrix(-0.0266667,0,0,0.0266667,24,0)"/>
<path style="fill:none;stroke-width:1.2705;stroke-linecap:butt;stroke-linejoin:round;stroke:rgb(75.294118%,57.647059%,0%);stroke-opacity:1;stroke-miterlimit:4;" d="M 422.167969 318.896484 L 424.511719 324.462891 L 436.816406 312.744141 " transform="matrix(-0.0266667,0,0,0.0266667,24,0)"/>
<path style="fill:none;stroke-width:1.2705;stroke-linecap:butt;stroke-linejoin:round;stroke:rgb(75.294118%,57.647059%,0%);stroke-opacity:1;stroke-miterlimit:4;" d="M 430.810547 304.980469 L 433.300781 329.296875 L 441.210938 318.896484 " transform="matrix(-0.0266667,0,0,0.0266667,24,0)"/>
<path style="fill:none;stroke-width:1.2705;stroke-linecap:butt;stroke-linejoin:round;stroke:rgb(75.294118%,57.647059%,0%);stroke-opacity:1;stroke-miterlimit:4;" d="M 438.134766 322.998047 L 442.382812 337.792969 " transform="matrix(-0.0266667,0,0,0.0266667,24,0)"/>
<path style="fill:none;stroke-width:1.2705;stroke-linecap:butt;stroke-linejoin:round;stroke:rgb(75.294118%,57.647059%,0%);stroke-opacity:1;stroke-miterlimit:4;" d="M 444.140625 332.373047 L 435.351562 345.556641 M 438.134766 358.886719 L 435.351562 345.556641 L 432.861328 332.226562 L 427.001953 340.136719 L 424.511719 331.054688 L 416.308594 339.404297 L 420.410156 354.638672 L 426.123047 345.117188 L 429.345703 354.785156 L 435.205078 345.703125 " transform="matrix(-0.0266667,0,0,0.0266667,24,0)"/>
<path style="fill:none;stroke-width:1.2705;stroke-linecap:butt;stroke-linejoin:round;stroke:rgb(75.294118%,57.647059%,0%);stroke-opacity:1;stroke-miterlimit:4;" d="M 414.990234 361.962891 L 420.263672 354.492188 L 423.779297 365.917969 L 428.466797 358.007812 L 431.689453 367.529297 " transform="matrix(-0.0266667,0,0,0.0266667,24,0)"/>
<path style="fill-rule:nonzero;fill:rgb(100%,100%,100%);fill-opacity:1;stroke-width:2.3777;stroke-linecap:round;stroke-linejoin:round;stroke:rgb(75.294118%,57.647059%,0%);stroke-opacity:1;stroke-miterlimit:4;" d="M 450 393.75 C 469.921875 393.75 488.964844 392.285156 500.244141 389.0625 C 504.931641 388.183594 504.931641 385.839844 504.931641 382.617188 C 509.619141 381.005859 507.275391 375.439453 510.498047 375.439453 C 507.275391 376.318359 506.542969 369.873047 502.441406 370.751953 C 502.441406 365.185547 496.875 364.453125 492.1875 365.917969 C 482.666016 369.140625 465.966797 369.873047 450 369.873047 C 434.033203 369.140625 417.480469 369.140625 407.8125 365.917969 C 403.125 364.453125 397.558594 365.185547 397.558594 370.751953 C 393.457031 369.873047 392.724609 376.318359 389.501953 375.439453 C 392.724609 375.439453 390.380859 381.005859 395.068359 382.617188 C 395.068359 385.839844 395.068359 388.183594 399.902344 389.0625 C 411.035156 392.285156 430.078125 393.75 450 393.75 Z M 450 393.75 " transform="matrix(0.0266667,0,0,0.0266667,0,0)"/>
<path style="fill-rule:nonzero;fill:rgb(100%,100%,100%);fill-opacity:1;stroke-width:1.2705;stroke-linecap:round;stroke-linejoin:round;stroke:rgb(75.294118%,57.647059%,0%);stroke-opacity:1;stroke-miterlimit:4;" d="M 422.900391 363.574219 C 429.345703 364.453125 436.523438 365.185547 442.089844 364.453125 C 445.3125 364.453125 447.509766 369.873047 441.210938 370.751953 C 435.644531 371.484375 426.855469 370.751953 422.167969 369.873047 C 418.212891 369.140625 409.423828 367.529297 403.857422 365.917969 C 398.144531 363.574219 402.246094 358.740234 405.322266 359.472656 C 410.302734 361.083984 416.601562 362.695312 422.900391 363.574219 Z M 422.900391 363.574219 " transform="matrix(0.0266667,0,0,0.0266667,0,0)"/>
<path style="fill-rule:nonzero;fill:rgb(100%,100%,100%);fill-opacity:1;stroke-width:1.2705;stroke-linecap:round;stroke-linejoin:round;stroke:rgb(75.294118%,57.647059%,0%);stroke-opacity:1;stroke-miterlimit:4;" d="M 477.099609 363.574219 C 470.654297 364.453125 463.476562 365.185547 458.056641 364.453125 C 454.6875 364.453125 452.490234 369.873047 458.789062 370.751953 C 464.355469 371.484375 473.144531 370.751953 477.832031 369.873047 C 481.787109 369.140625 490.576172 367.529297 496.142578 365.917969 C 501.855469 363.574219 497.753906 358.740234 494.677734 359.472656 C 489.697266 361.083984 483.398438 362.695312 477.099609 363.574219 Z M 477.099609 363.574219 " transform="matrix(0.0266667,0,0,0.0266667,0,0)"/>
<path style="fill-rule:nonzero;fill:rgb(100%,100%,100%);fill-opacity:1;stroke-width:1.2705;stroke-linecap:round;stroke-linejoin:round;stroke:rgb(75.294118%,57.647059%,0%);stroke-opacity:1;stroke-miterlimit:4;" d="M 403.125 360.351562 C 398.144531 359.472656 395.947266 365.185547 397.558594 368.261719 C 398.144531 366.650391 401.513672 366.650391 402.246094 365.185547 C 403.125 362.695312 401.513672 362.695312 403.125 360.351562 Z M 403.125 360.351562 " transform="matrix(0.0266667,0,0,0.0266667,0,0)"/>
<path style="fill-rule:nonzero;fill:rgb(100%,100%,100%);fill-opacity:1;stroke-width:1.2705;stroke-linecap:round;stroke-linejoin:round;stroke:rgb(75.294118%,57.647059%,0%);stroke-opacity:1;stroke-miterlimit:4;" d="M 422.167969 375 C 422.167969 371.923828 425.390625 372.363281 425.390625 369.140625 C 425.390625 367.529297 424.511719 365.185547 422.900391 365.185547 C 421.289062 365.185547 419.677734 366.650391 419.677734 368.261719 C 418.945312 371.484375 422.167969 371.923828 422.167969 375 Z M 422.167969 375 " transform="matrix(0.0266667,0,0,0.0266667,0,0)"/>
<path style="fill-rule:nonzero;fill:rgb(100%,100%,100%);fill-opacity:1;stroke-width:1.2705;stroke-linecap:round;stroke-linejoin:round;stroke:rgb(75.294118%,57.647059%,0%);stroke-opacity:1;stroke-miterlimit:4;" d="M 444.873047 365.917969 C 449.560547 365.917969 449.121094 372.363281 446.777344 375.439453 C 446.777344 373.095703 442.822266 372.363281 442.822266 370.751953 C 442.822266 368.261719 446.484375 368.261719 444.873047 365.917969 Z M 444.873047 365.917969 " transform="matrix(0.0266667,0,0,0.0266667,0,0)"/>
<path style="fill-rule:nonzero;fill:rgb(100%,100%,100%);fill-opacity:1;stroke-width:1.2705;stroke-linecap:round;stroke-linejoin:round;stroke:rgb(75.294118%,57.647059%,0%);stroke-opacity:1;stroke-miterlimit:4;" d="M 496.875 360.351562 C 501.855469 359.472656 504.052734 365.185547 502.441406 368.261719 C 501.855469 366.650391 498.486328 366.650391 497.753906 365.185547 C 496.875 362.695312 498.486328 362.695312 496.875 360.351562 Z M 496.875 360.351562 " transform="matrix(0.0266667,0,0,0.0266667,0,0)"/>
<path style="fill-rule:nonzero;fill:rgb(100%,100%,100%);fill-opacity:1;stroke-width:1.2705;stroke-linecap:round;stroke-linejoin:round;stroke:rgb(75.294118%,57.647059%,0%);stroke-opacity:1;stroke-miterlimit:4;" d="M 477.832031 375 C 477.832031 371.923828 474.609375 372.363281 474.609375 369.140625 C 474.609375 367.529297 475.488281 365.185547 477.099609 365.185547 C 478.710938 365.185547 480.322266 366.650391 480.322266 368.261719 C 481.054688 371.484375 477.832031 371.923828 477.832031 375 Z M 477.832031 375 " transform="matrix(0.0266667,0,0,0.0266667,0,0)"/>
<path style="fill-rule:nonzero;fill:rgb(100%,100%,100%);fill-opacity:1;stroke-width:1.2705;stroke-linecap:round;stroke-linejoin:round;stroke:rgb(75.294118%,57.647059%,0%);stroke-opacity:1;stroke-miterlimit:4;" d="M 455.126953 365.917969 C 450.439453 365.917969 450.878906 372.363281 453.222656 375.439453 C 453.222656 373.095703 457.177734 372.363281 457.177734 370.751953 C 457.177734 368.261719 453.515625 368.261719 455.126953 365.917969 Z M 455.126953 365.917969 " transform="matrix(0.0266667,0,0,0.0266667,0,0)"/>
<path style="fill-rule:nonzero;fill:rgb(100%,100%,100%);fill-opacity:1;stroke-width:0.8915;stroke-linecap:round;stroke-linejoin:round;stroke:rgb(75.294118%,57.647059%,0%);stroke-opacity:1;stroke-miterlimit:4;" d="M 404.736328 361.962891 C 406.201172 361.962891 408.691406 362.695312 409.423828 363.574219 Z M 404.736328 361.962891 " transform="matrix(0.0266667,0,0,0.0266667,0,0)"/>
<path style="fill-rule:nonzero;fill:rgb(100%,100%,100%);fill-opacity:1;stroke-width:0.8915;stroke-linecap:round;stroke-linejoin:round;stroke:rgb(75.294118%,57.647059%,0%);stroke-opacity:1;stroke-miterlimit:4;" d="M 412.5 364.453125 C 413.378906 364.453125 416.601562 365.185547 418.212891 365.917969 Z M 412.5 364.453125 " transform="matrix(0.0266667,0,0,0.0266667,0,0)"/>
<path style="fill-rule:nonzero;fill:rgb(100%,100%,100%);fill-opacity:1;stroke-width:0.8915;stroke-linecap:round;stroke-linejoin:round;stroke:rgb(75.294118%,57.647059%,0%);stroke-opacity:1;stroke-miterlimit:4;" d="M 441.210938 367.529297 C 439.599609 367.529297 436.523438 367.529297 435.644531 368.261719 Z M 441.210938 367.529297 " transform="matrix(0.0266667,0,0,0.0266667,0,0)"/>
<path style="fill-rule:nonzero;fill:rgb(100%,100%,100%);fill-opacity:1;stroke-width:0.8915;stroke-linecap:round;stroke-linejoin:round;stroke:rgb(75.294118%,57.647059%,0%);stroke-opacity:1;stroke-miterlimit:4;" d="M 432.568359 367.529297 C 431.689453 366.650391 428.466797 366.650391 426.855469 367.529297 Z M 432.568359 367.529297 " transform="matrix(0.0266667,0,0,0.0266667,0,0)"/>
<path style="fill-rule:nonzero;fill:rgb(100%,100%,100%);fill-opacity:1;stroke-width:0.8915;stroke-linecap:round;stroke-linejoin:round;stroke:rgb(75.294118%,57.647059%,0%);stroke-opacity:1;stroke-miterlimit:4;" d="M 495.410156 361.962891 C 493.798828 361.962891 491.455078 362.695312 490.576172 363.574219 Z M 495.410156 361.962891 " transform="matrix(0.0266667,0,0,0.0266667,0,0)"/>
<path style="fill-rule:nonzero;fill:rgb(100%,100%,100%);fill-opacity:1;stroke-width:0.8915;stroke-linecap:round;stroke-linejoin:round;stroke:rgb(75.294118%,57.647059%,0%);stroke-opacity:1;stroke-miterlimit:4;" d="M 487.5 364.453125 C 486.621094 364.453125 483.398438 365.185547 481.787109 365.917969 Z M 487.5 364.453125 " transform="matrix(0.0266667,0,0,0.0266667,0,0)"/>
<path style="fill-rule:nonzero;fill:rgb(100%,100%,100%);fill-opacity:1;stroke-width:0.8915;stroke-linecap:round;stroke-linejoin:round;stroke:rgb(75.294118%,57.647059%,0%);stroke-opacity:1;stroke-miterlimit:4;" d="M 458.789062 367.529297 C 460.400391 367.529297 463.476562 367.529297 464.355469 368.261719 Z M 458.789062 367.529297 " transform="matrix(0.0266667,0,0,0.0266667,0,0)"/>
<path style="fill-rule:nonzero;fill:rgb(100%,100%,100%);fill-opacity:1;stroke-width:0.8915;stroke-linecap:round;stroke-linejoin:round;stroke:rgb(75.294118%,57.647059%,0%);stroke-opacity:1;stroke-miterlimit:4;" d="M 467.431641 367.529297 C 468.310547 366.650391 471.533203 366.650391 473.144531 367.529297 Z M 467.431641 367.529297 " transform="matrix(0.0266667,0,0,0.0266667,0,0)"/>
<path style=" stroke:none;fill-rule:nonzero;fill:rgb(75.294118%,57.647059%,0%);fill-opacity:1;" d="M 10.753906 9.988281 C 10.742188 9.984375 10.734375 9.976562 10.738281 9.960938 C 10.742188 9.945312 10.753906 9.9375 10.765625 9.941406 C 10.773438 9.941406 10.789062 9.957031 10.789062 9.960938 C 10.789062 9.96875 10.78125 9.984375 10.777344 9.984375 C 10.777344 9.984375 10.773438 9.984375 10.773438 9.984375 C 10.769531 9.988281 10.761719 9.988281 10.753906 9.988281 Z M 10.753906 9.988281 "/>
<path style=" stroke:none;fill-rule:nonzero;fill:rgb(75.294118%,57.647059%,0%);fill-opacity:1;" d="M 12.21875 10.09375 C 12.214844 10.089844 12.207031 10.078125 12.207031 10.074219 C 12.207031 10.0625 12.222656 10.046875 12.230469 10.046875 C 12.234375 10.046875 12.25 10.054688 12.253906 10.058594 C 12.261719 10.066406 12.261719 10.082031 12.25 10.089844 C 12.246094 10.09375 12.226562 10.097656 12.21875 10.09375 Z M 12.21875 10.09375 "/>
<path style=" stroke:none;fill-rule:nonzero;fill:rgb(75.294118%,57.647059%,0%);fill-opacity:1;" d="M 12.230469 10.160156 C 12.21875 10.15625 12.214844 10.148438 12.214844 10.136719 C 12.214844 10.125 12.214844 10.121094 12.226562 10.117188 L 12.238281 10.109375 L 12.246094 10.113281 C 12.257812 10.121094 12.265625 10.125 12.265625 10.132812 C 12.265625 10.144531 12.257812 10.152344 12.25 10.15625 C 12.238281 10.164062 12.238281 10.164062 12.230469 10.160156 Z M 12.230469 10.160156 "/>
<path style=" stroke:none;fill-rule:nonzero;fill:rgb(75.294118%,57.647059%,0%);fill-opacity:1;" d="M 10.875 9.867188 C 10.863281 9.867188 10.851562 9.878906 10.84375 9.882812 C 10.828125 9.886719 10.808594 9.894531 10.789062 9.886719 C 10.773438 9.878906 10.75 9.882812 10.75 9.902344 C 10.753906 9.921875 10.777344 9.929688 10.792969 9.917969 C 10.804688 9.90625 10.832031 9.898438 10.835938 9.921875 C 10.824219 9.941406 10.824219 9.964844 10.816406 9.984375 C 10.8125 9.996094 10.808594 10.007812 10.800781 10.019531 C 10.789062 10.019531 10.777344 10.019531 10.765625 10.027344 C 10.75 10.027344 10.734375 10.035156 10.722656 10.050781 C 10.710938 10.066406 10.703125 10.082031 10.699219 10.097656 C 10.703125 10.117188 10.722656 10.125 10.742188 10.125 C 10.757812 10.128906 10.777344 10.136719 10.792969 10.140625 C 10.824219 10.148438 10.851562 10.160156 10.878906 10.164062 C 10.921875 10.175781 10.964844 10.183594 11.007812 10.195312 C 11.011719 10.195312 11.015625 10.199219 11.023438 10.199219 C 11.039062 10.203125 11.046875 10.183594 11.050781 10.167969 C 11.058594 10.136719 11.066406 10.105469 11.074219 10.074219 C 11.082031 10.0625 11.085938 10.035156 11.0625 10.039062 C 11.050781 10.050781 11.039062 10.0625 11.019531 10.0625 C 10.996094 10.0625 11.011719 10.085938 11.019531 10.097656 C 11.023438 10.113281 11.015625 10.132812 11.007812 10.144531 C 10.992188 10.152344 10.976562 10.140625 10.960938 10.140625 C 10.945312 10.140625 10.914062 10.132812 10.929688 10.109375 C 10.933594 10.09375 10.933594 10.078125 10.941406 10.0625 C 10.949219 10.046875 10.949219 10.027344 10.953125 10.011719 C 10.945312 9.992188 10.925781 10.019531 10.914062 10.019531 C 10.90625 10.027344 10.871094 10.03125 10.890625 10.046875 C 10.90625 10.058594 10.894531 10.078125 10.890625 10.09375 C 10.890625 10.113281 10.867188 10.117188 10.851562 10.113281 C 10.835938 10.113281 10.8125 10.101562 10.824219 10.082031 C 10.828125 10.066406 10.832031 10.050781 10.835938 10.035156 C 10.84375 10.015625 10.847656 10 10.855469 9.980469 C 10.859375 9.964844 10.863281 9.949219 10.871094 9.933594 C 10.871094 9.914062 10.882812 9.898438 10.882812 9.882812 C 10.882812 9.871094 10.878906 9.871094 10.875 9.867188 Z M 10.777344 10.0625 C 10.78125 10.0625 10.78125 10.0625 10.785156 10.0625 C 10.789062 10.066406 10.789062 10.070312 10.785156 10.078125 C 10.78125 10.078125 10.777344 10.082031 10.777344 10.082031 C 10.761719 10.082031 10.757812 10.078125 10.757812 10.074219 C 10.757812 10.070312 10.761719 10.070312 10.769531 10.066406 C 10.773438 10.0625 10.773438 10.0625 10.777344 10.0625 Z M 10.777344 10.0625 "/>
<path style=" stroke:none;fill-rule:nonzero;fill:rgb(75.294118%,57.647059%,0%);fill-opacity:1;" d="M 10.75 10.195312 C 10.738281 10.183594 10.738281 10.175781 10.757812 10.160156 C 10.765625 10.152344 10.773438 10.15625 10.78125 10.164062 C 10.796875 10.175781 10.796875 10.183594 10.785156 10.195312 C 10.777344 10.203125 10.773438 10.203125 10.765625 10.203125 C 10.757812 10.203125 10.757812 10.203125 10.75 10.195312 Z M 10.75 10.195312 "/>
<path style=" stroke:none;fill-rule:nonzero;fill:rgb(75.294118%,57.647059%,0%);fill-opacity:1;" d="M 10.832031 10.222656 C 10.816406 10.21875 10.8125 10.203125 10.816406 10.191406 C 10.816406 10.179688 10.820312 10.179688 10.835938 10.179688 C 10.855469 10.179688 10.859375 10.183594 10.859375 10.199219 C 10.859375 10.207031 10.859375 10.210938 10.855469 10.214844 C 10.847656 10.21875 10.839844 10.222656 10.832031 10.222656 Z M 10.832031 10.222656 "/>
<path style=" stroke:none;fill-rule:nonzero;fill:rgb(75.294118%,57.647059%,0%);fill-opacity:1;" d="M 13.207031 10.222656 C 13.203125 10.21875 13.199219 10.214844 13.199219 10.210938 C 13.199219 10.199219 13.207031 10.191406 13.21875 10.183594 C 13.238281 10.175781 13.246094 10.175781 13.253906 10.1875 C 13.261719 10.203125 13.261719 10.210938 13.25 10.222656 C 13.246094 10.226562 13.242188 10.230469 13.230469 10.230469 C 13.214844 10.230469 13.214844 10.230469 13.207031 10.222656 Z M 13.207031 10.222656 "/>
<path style=" stroke:none;fill-rule:nonzero;fill:rgb(75.294118%,57.647059%,0%);fill-opacity:1;" d="M 10.9375 10.253906 C 10.929688 10.25 10.925781 10.242188 10.925781 10.230469 C 10.925781 10.222656 10.925781 10.222656 10.929688 10.21875 C 10.933594 10.214844 10.941406 10.210938 10.945312 10.210938 C 10.953125 10.210938 10.957031 10.210938 10.960938 10.214844 C 10.976562 10.222656 10.980469 10.234375 10.972656 10.246094 C 10.960938 10.253906 10.953125 10.257812 10.9375 10.253906 Z M 10.9375 10.253906 "/>
<path style=" stroke:none;fill-rule:nonzero;fill:rgb(75.294118%,57.647059%,0%);fill-opacity:1;" d="M 11.523438 10.28125 C 11.523438 10.277344 11.515625 10.277344 11.515625 10.273438 C 11.515625 10.257812 11.519531 10.242188 11.523438 10.226562 C 11.523438 10.214844 11.523438 10.199219 11.527344 10.1875 C 11.53125 10.160156 11.53125 10.136719 11.539062 10.109375 C 11.539062 10.097656 11.539062 10.085938 11.542969 10.074219 C 11.546875 10.054688 11.542969 10.035156 11.550781 10.015625 C 11.550781 10.007812 11.558594 9.988281 11.566406 10 C 11.574219 10.015625 11.589844 10.027344 11.601562 10.039062 C 11.613281 10.046875 11.601562 10.058594 11.59375 10.0625 C 11.585938 10.066406 11.582031 10.078125 11.582031 10.089844 C 11.582031 10.097656 11.578125 10.109375 11.574219 10.121094 C 11.574219 10.136719 11.574219 10.15625 11.570312 10.171875 C 11.566406 10.1875 11.570312 10.203125 11.566406 10.222656 C 11.566406 10.230469 11.5625 10.242188 11.5625 10.253906 C 11.5625 10.261719 11.5625 10.277344 11.550781 10.285156 C 11.542969 10.289062 11.53125 10.289062 11.523438 10.28125 Z M 11.523438 10.28125 "/>
<path style=" stroke:none;fill-rule:nonzero;fill:rgb(75.294118%,57.647059%,0%);fill-opacity:1;" d="M 12.316406 10.019531 C 12.304688 10.027344 12.292969 10.039062 12.28125 10.050781 C 12.265625 10.0625 12.292969 10.070312 12.296875 10.078125 C 12.300781 10.097656 12.300781 10.113281 12.300781 10.128906 C 12.304688 10.144531 12.308594 10.160156 12.308594 10.175781 C 12.304688 10.191406 12.285156 10.1875 12.273438 10.195312 C 12.261719 10.203125 12.257812 10.214844 12.246094 10.222656 C 12.238281 10.238281 12.238281 10.253906 12.238281 10.265625 C 12.238281 10.28125 12.230469 10.292969 12.238281 10.304688 C 12.238281 10.304688 12.238281 10.308594 12.242188 10.308594 C 12.242188 10.3125 12.25 10.308594 12.253906 10.308594 C 12.265625 10.308594 12.28125 10.3125 12.292969 10.304688 C 12.328125 10.300781 12.359375 10.300781 12.390625 10.296875 C 12.410156 10.300781 12.429688 10.292969 12.449219 10.292969 C 12.464844 10.296875 12.472656 10.277344 12.472656 10.265625 C 12.464844 10.25 12.472656 10.230469 12.464844 10.210938 C 12.457031 10.191406 12.460938 10.171875 12.457031 10.152344 C 12.457031 10.140625 12.4375 10.132812 12.429688 10.144531 C 12.421875 10.152344 12.40625 10.15625 12.398438 10.167969 C 12.390625 10.183594 12.414062 10.183594 12.417969 10.195312 C 12.425781 10.207031 12.421875 10.222656 12.425781 10.234375 C 12.425781 10.25 12.410156 10.25 12.398438 10.253906 C 12.382812 10.257812 12.363281 10.261719 12.355469 10.246094 C 12.351562 10.230469 12.351562 10.21875 12.351562 10.203125 C 12.351562 10.179688 12.34375 10.15625 12.34375 10.132812 C 12.34375 10.105469 12.335938 10.074219 12.335938 10.046875 C 12.335938 10.035156 12.332031 10.015625 12.316406 10.019531 Z M 12.300781 10.238281 L 12.308594 10.238281 L 12.308594 10.257812 L 12.296875 10.261719 C 12.292969 10.265625 12.289062 10.265625 12.289062 10.265625 C 12.289062 10.265625 12.285156 10.261719 12.28125 10.261719 C 12.277344 10.257812 12.277344 10.25 12.285156 10.242188 C 12.289062 10.238281 12.292969 10.238281 12.300781 10.238281 Z M 12.300781 10.238281 "/>
<path style=" stroke:none;fill-rule:nonzero;fill:rgb(75.294118%,57.647059%,0%);fill-opacity:1;" d="M 11.5 9.992188 C 11.488281 9.996094 11.476562 10.007812 11.464844 10.007812 C 11.441406 10.011719 11.445312 10.035156 11.464844 10.042969 C 11.464844 10.046875 11.464844 10.058594 11.464844 10.066406 C 11.46875 10.085938 11.453125 10.101562 11.457031 10.125 C 11.457031 10.148438 11.449219 10.171875 11.449219 10.195312 C 11.441406 10.21875 11.441406 10.242188 11.4375 10.265625 C 11.433594 10.289062 11.417969 10.28125 11.402344 10.273438 C 11.402344 10.265625 11.402344 10.257812 11.402344 10.246094 C 11.410156 10.226562 11.390625 10.21875 11.375 10.214844 C 11.355469 10.21875 11.347656 10.203125 11.351562 10.1875 C 11.359375 10.175781 11.378906 10.179688 11.390625 10.175781 C 11.417969 10.183594 11.414062 10.148438 11.402344 10.136719 C 11.394531 10.117188 11.371094 10.113281 11.363281 10.09375 C 11.367188 10.070312 11.351562 10.046875 11.332031 10.035156 C 11.304688 10.035156 11.28125 10.058594 11.269531 10.085938 C 11.257812 10.085938 11.246094 10.089844 11.234375 10.097656 C 11.214844 10.101562 11.1875 10.132812 11.214844 10.144531 C 11.230469 10.148438 11.273438 10.160156 11.253906 10.179688 C 11.242188 10.199219 11.222656 10.199219 11.203125 10.195312 C 11.183594 10.195312 11.164062 10.183594 11.164062 10.164062 C 11.160156 10.144531 11.160156 10.121094 11.152344 10.101562 C 11.148438 10.082031 11.121094 10.085938 11.121094 10.105469 C 11.101562 10.121094 11.101562 10.144531 11.117188 10.160156 C 11.125 10.179688 11.117188 10.203125 11.109375 10.21875 C 11.101562 10.242188 11.078125 10.246094 11.058594 10.25 C 11.050781 10.253906 11.015625 10.25 11.027344 10.269531 C 11.046875 10.277344 11.074219 10.28125 11.09375 10.277344 C 11.117188 10.273438 11.132812 10.261719 11.144531 10.242188 C 11.160156 10.226562 11.183594 10.234375 11.203125 10.234375 C 11.226562 10.234375 11.246094 10.246094 11.265625 10.238281 C 11.273438 10.222656 11.296875 10.199219 11.308594 10.222656 C 11.304688 10.246094 11.324219 10.257812 11.347656 10.257812 C 11.371094 10.253906 11.359375 10.273438 11.359375 10.285156 C 11.363281 10.3125 11.378906 10.324219 11.398438 10.335938 C 11.40625 10.335938 11.414062 10.335938 11.421875 10.335938 C 11.441406 10.328125 11.460938 10.320312 11.46875 10.296875 C 11.476562 10.28125 11.476562 10.257812 11.484375 10.238281 C 11.488281 10.210938 11.492188 10.179688 11.496094 10.148438 C 11.5 10.121094 11.5 10.09375 11.503906 10.0625 C 11.507812 10.042969 11.511719 10.023438 11.511719 10 C 11.511719 9.992188 11.507812 9.988281 11.5 9.992188 Z M 11.320312 10.101562 C 11.324219 10.101562 11.324219 10.105469 11.324219 10.117188 C 11.328125 10.125 11.332031 10.132812 11.335938 10.136719 C 11.34375 10.136719 11.34375 10.140625 11.335938 10.144531 C 11.332031 10.148438 11.328125 10.148438 11.316406 10.148438 C 11.304688 10.148438 11.292969 10.144531 11.285156 10.136719 L 11.28125 10.132812 L 11.289062 10.125 C 11.292969 10.121094 11.296875 10.117188 11.300781 10.113281 C 11.308594 10.105469 11.316406 10.101562 11.320312 10.101562 Z M 11.320312 10.101562 "/>
<path style=" stroke:none;fill-rule:nonzero;fill:rgb(75.294118%,57.647059%,0%);fill-opacity:1;" d="M 13.078125 9.890625 C 13.066406 9.890625 13.050781 9.894531 13.035156 9.898438 C 13.007812 9.898438 12.996094 9.925781 13.019531 9.941406 C 13.035156 9.980469 13.0625 9.929688 13.085938 9.933594 C 13.125 9.941406 13.128906 9.984375 13.136719 10.015625 C 13.136719 10.046875 13.144531 10.074219 13.15625 10.105469 C 13.179688 10.132812 13.136719 10.152344 13.117188 10.128906 C 13.101562 10.113281 13.066406 10.089844 13.046875 10.113281 C 13.023438 10.125 13.019531 10.15625 13 10.164062 C 12.96875 10.175781 12.964844 10.136719 12.949219 10.121094 C 12.933594 10.097656 12.902344 10.09375 12.878906 10.085938 C 12.867188 10.0625 12.871094 10.023438 12.847656 10.007812 C 12.828125 10.015625 12.792969 10.054688 12.824219 10.070312 C 12.851562 10.097656 12.808594 10.109375 12.796875 10.125 C 12.777344 10.148438 12.773438 10.179688 12.769531 10.207031 C 12.738281 10.222656 12.730469 10.183594 12.726562 10.160156 C 12.722656 10.128906 12.699219 10.140625 12.679688 10.148438 C 12.65625 10.160156 12.644531 10.183594 12.625 10.203125 C 12.621094 10.21875 12.625 10.238281 12.625 10.257812 C 12.632812 10.277344 12.65625 10.269531 12.675781 10.265625 C 12.699219 10.257812 12.710938 10.285156 12.691406 10.300781 C 12.675781 10.316406 12.628906 10.308594 12.636719 10.335938 C 12.648438 10.339844 12.664062 10.339844 12.679688 10.335938 C 12.707031 10.328125 12.738281 10.308594 12.742188 10.277344 C 12.746094 10.25 12.785156 10.253906 12.808594 10.246094 C 12.835938 10.238281 12.871094 10.238281 12.875 10.273438 C 12.894531 10.292969 12.9375 10.316406 12.957031 10.289062 C 12.980469 10.273438 12.988281 10.25 12.988281 10.226562 C 12.984375 10.207031 13.019531 10.207031 13.03125 10.21875 C 13.042969 10.242188 13.089844 10.234375 13.109375 10.222656 C 13.132812 10.203125 13.136719 10.175781 13.167969 10.175781 C 13.214844 10.160156 13.265625 10.152344 13.3125 10.136719 C 13.347656 10.125 13.304688 10.101562 13.296875 10.089844 C 13.269531 10.074219 13.242188 10.132812 13.210938 10.105469 C 13.1875 10.085938 13.1875 10.050781 13.179688 10.019531 C 13.171875 9.984375 13.171875 9.941406 13.148438 9.914062 C 13.128906 9.894531 13.105469 9.890625 13.078125 9.890625 Z M 12.898438 10.144531 C 12.902344 10.144531 12.90625 10.144531 12.910156 10.148438 C 12.921875 10.15625 12.933594 10.167969 12.933594 10.175781 C 12.933594 10.179688 12.929688 10.179688 12.921875 10.183594 C 12.917969 10.1875 12.910156 10.191406 12.910156 10.191406 C 12.902344 10.191406 12.890625 10.179688 12.890625 10.175781 C 12.890625 10.175781 12.890625 10.167969 12.886719 10.164062 C 12.886719 10.15625 12.886719 10.15625 12.890625 10.148438 C 12.894531 10.144531 12.894531 10.144531 12.898438 10.144531 Z M 13.074219 10.152344 C 13.082031 10.152344 13.089844 10.15625 13.09375 10.164062 C 13.097656 10.171875 13.09375 10.179688 13.082031 10.183594 C 13.078125 10.1875 13.070312 10.1875 13.070312 10.1875 C 13.070312 10.1875 13.066406 10.1875 13.058594 10.183594 C 13.054688 10.179688 13.050781 10.175781 13.050781 10.171875 C 13.050781 10.160156 13.0625 10.152344 13.074219 10.152344 Z M 12.835938 10.15625 C 12.835938 10.15625 12.839844 10.15625 12.84375 10.160156 C 12.847656 10.164062 12.851562 10.167969 12.851562 10.175781 C 12.851562 10.183594 12.851562 10.1875 12.851562 10.191406 C 12.847656 10.199219 12.847656 10.199219 12.835938 10.199219 C 12.820312 10.199219 12.816406 10.195312 12.816406 10.179688 C 12.816406 10.171875 12.816406 10.167969 12.824219 10.164062 C 12.828125 10.160156 12.832031 10.15625 12.835938 10.15625 Z M 12.6875 10.195312 C 12.691406 10.195312 12.699219 10.199219 12.699219 10.207031 C 12.699219 10.214844 12.699219 10.21875 12.691406 10.222656 C 12.6875 10.226562 12.671875 10.226562 12.667969 10.222656 C 12.667969 10.222656 12.664062 10.21875 12.664062 10.21875 C 12.664062 10.214844 12.664062 10.214844 12.664062 10.210938 C 12.667969 10.210938 12.667969 10.207031 12.667969 10.207031 C 12.667969 10.207031 12.671875 10.203125 12.671875 10.199219 C 12.675781 10.195312 12.683594 10.191406 12.6875 10.195312 Z M 12.933594 10.226562 C 12.9375 10.226562 12.941406 10.226562 12.945312 10.230469 C 12.949219 10.234375 12.949219 10.242188 12.945312 10.246094 C 12.941406 10.246094 12.921875 10.246094 12.914062 10.246094 C 12.910156 10.242188 12.910156 10.242188 12.910156 10.238281 C 12.910156 10.234375 12.910156 10.234375 12.917969 10.230469 C 12.921875 10.226562 12.929688 10.226562 12.933594 10.226562 Z M 12.933594 10.226562 "/>
<path style=" stroke:none;fill-rule:nonzero;fill:rgb(75.294118%,57.647059%,0%);fill-opacity:1;" d="M 12.476562 10.355469 C 12.472656 10.351562 12.46875 10.351562 12.472656 10.347656 C 12.476562 10.339844 12.488281 10.335938 12.496094 10.335938 C 12.511719 10.328125 12.523438 10.316406 12.53125 10.304688 C 12.535156 10.296875 12.542969 10.292969 12.542969 10.28125 C 12.542969 10.269531 12.542969 10.257812 12.542969 10.242188 C 12.539062 10.234375 12.53125 10.222656 12.519531 10.21875 C 12.511719 10.210938 12.5 10.210938 12.5 10.203125 C 12.496094 10.191406 12.503906 10.183594 12.507812 10.175781 C 12.515625 10.164062 12.519531 10.152344 12.527344 10.144531 C 12.53125 10.136719 12.542969 10.144531 12.546875 10.148438 C 12.550781 10.15625 12.554688 10.164062 12.558594 10.175781 C 12.566406 10.183594 12.574219 10.191406 12.578125 10.207031 C 12.582031 10.214844 12.585938 10.222656 12.585938 10.230469 C 12.585938 10.242188 12.59375 10.25 12.59375 10.261719 C 12.59375 10.277344 12.59375 10.292969 12.585938 10.308594 C 12.582031 10.316406 12.578125 10.320312 12.570312 10.328125 C 12.5625 10.335938 12.554688 10.34375 12.542969 10.347656 C 12.535156 10.347656 12.53125 10.359375 12.519531 10.355469 C 12.507812 10.355469 12.492188 10.359375 12.480469 10.355469 C 12.480469 10.355469 12.476562 10.351562 12.476562 10.355469 Z M 12.476562 10.355469 "/>
<path style=" stroke:none;fill-rule:nonzero;fill:rgb(75.294118%,57.647059%,0%);fill-opacity:1;" d="M 12.292969 10.367188 C 12.289062 10.359375 12.285156 10.355469 12.285156 10.351562 C 12.285156 10.34375 12.285156 10.339844 12.292969 10.335938 C 12.304688 10.324219 12.3125 10.324219 12.332031 10.332031 C 12.351562 10.34375 12.355469 10.34375 12.359375 10.335938 C 12.359375 10.328125 12.371094 10.324219 12.382812 10.324219 C 12.386719 10.324219 12.390625 10.324219 12.398438 10.328125 C 12.402344 10.335938 12.40625 10.335938 12.40625 10.347656 C 12.40625 10.359375 12.40625 10.359375 12.398438 10.367188 C 12.390625 10.375 12.386719 10.375 12.378906 10.371094 C 12.367188 10.371094 12.359375 10.367188 12.359375 10.355469 C 12.355469 10.351562 12.355469 10.347656 12.351562 10.355469 C 12.351562 10.355469 12.351562 10.355469 12.347656 10.359375 C 12.339844 10.359375 12.332031 10.363281 12.324219 10.371094 C 12.324219 10.375 12.320312 10.375 12.3125 10.375 C 12.300781 10.375 12.300781 10.375 12.292969 10.367188 Z M 12.292969 10.367188 "/>
<path style=" stroke:none;fill-rule:nonzero;fill:rgb(75.294118%,57.647059%,0%);fill-opacity:1;" d="M 11.765625 10.128906 C 11.746094 10.128906 11.726562 10.144531 11.726562 10.160156 C 11.730469 10.179688 11.746094 10.203125 11.734375 10.222656 C 11.742188 10.25 11.714844 10.257812 11.695312 10.242188 C 11.683594 10.21875 11.679688 10.191406 11.664062 10.167969 C 11.640625 10.160156 11.632812 10.195312 11.617188 10.207031 C 11.625 10.226562 11.644531 10.246094 11.648438 10.269531 C 11.652344 10.292969 11.640625 10.320312 11.617188 10.335938 C 11.597656 10.351562 11.574219 10.34375 11.550781 10.347656 C 11.523438 10.363281 11.570312 10.371094 11.585938 10.371094 C 11.613281 10.375 11.640625 10.371094 11.660156 10.351562 C 11.683594 10.339844 11.679688 10.304688 11.703125 10.300781 C 11.746094 10.300781 11.789062 10.308594 11.832031 10.308594 C 11.855469 10.3125 11.890625 10.304688 11.90625 10.324219 C 11.90625 10.351562 11.929688 10.371094 11.953125 10.382812 C 11.96875 10.386719 11.980469 10.367188 11.996094 10.367188 C 12.019531 10.359375 12.011719 10.324219 12.027344 10.3125 C 12.074219 10.3125 12.117188 10.3125 12.160156 10.3125 C 12.167969 10.3125 12.171875 10.300781 12.175781 10.292969 C 12.175781 10.277344 12.175781 10.261719 12.171875 10.242188 C 12.164062 10.222656 12.175781 10.195312 12.160156 10.175781 C 12.136719 10.167969 12.117188 10.191406 12.097656 10.191406 C 12.070312 10.203125 12.050781 10.226562 12.050781 10.253906 C 12.035156 10.277344 12.011719 10.25 12.019531 10.230469 C 12.019531 10.21875 12.019531 10.210938 12.019531 10.203125 C 12.003906 10.1875 11.980469 10.191406 11.960938 10.1875 C 11.933594 10.191406 11.910156 10.183594 11.882812 10.183594 C 11.859375 10.183594 11.832031 10.1875 11.808594 10.179688 C 11.78125 10.179688 11.785156 10.152344 11.78125 10.132812 C 11.777344 10.128906 11.769531 10.128906 11.765625 10.128906 Z M 11.820312 10.226562 C 11.828125 10.226562 11.835938 10.230469 11.84375 10.230469 C 11.855469 10.230469 11.867188 10.226562 11.878906 10.230469 C 11.90625 10.234375 11.933594 10.234375 11.957031 10.234375 C 11.964844 10.234375 11.96875 10.242188 11.976562 10.246094 C 11.976562 10.261719 11.976562 10.28125 11.976562 10.300781 C 11.972656 10.308594 11.976562 10.316406 11.972656 10.320312 C 11.96875 10.320312 11.964844 10.324219 11.964844 10.324219 C 11.957031 10.320312 11.949219 10.316406 11.945312 10.3125 C 11.945312 10.300781 11.945312 10.292969 11.945312 10.28125 C 11.945312 10.28125 11.949219 10.277344 11.945312 10.273438 C 11.941406 10.269531 11.933594 10.265625 11.925781 10.265625 C 11.90625 10.265625 11.882812 10.265625 11.859375 10.265625 C 11.839844 10.261719 11.820312 10.265625 11.804688 10.261719 C 11.796875 10.257812 11.785156 10.257812 11.78125 10.25 C 11.777344 10.246094 11.785156 10.234375 11.792969 10.230469 C 11.800781 10.230469 11.808594 10.226562 11.820312 10.226562 Z M 12.121094 10.234375 C 12.125 10.234375 12.125 10.234375 12.125 10.242188 C 12.128906 10.25 12.128906 10.253906 12.128906 10.257812 C 12.132812 10.257812 12.128906 10.261719 12.125 10.261719 C 12.113281 10.265625 12.097656 10.265625 12.09375 10.261719 C 12.09375 10.257812 12.09375 10.25 12.097656 10.246094 C 12.105469 10.238281 12.113281 10.234375 12.121094 10.234375 Z M 12.121094 10.234375 "/>
<path style="fill-rule:nonzero;fill:rgb(100%,100%,100%);fill-opacity:1;stroke-width:1.1502;stroke-linecap:butt;stroke-linejoin:miter;stroke:rgb(75.294118%,57.647059%,0%);stroke-opacity:1;stroke-miterlimit:4;" d="M 450 327.246094 C 482.666016 302.050781 479.882812 265.283203 479.882812 265.283203 C 479.003906 265.576172 478.125 265.576172 477.246094 265.576172 C 470.507812 265.576172 454.101562 261.621094 450.292969 256.640625 C 446.191406 261.181641 429.492188 265.576172 422.753906 265.576172 C 421.875 265.576172 420.996094 265.576172 420.117188 265.283203 C 420.117188 265.283203 417.333984 302.050781 450 327.246094 Z M 450 327.246094 " transform="matrix(0.0266667,0,0,0.0266667,0,0)"/>
<path style="fill-rule:nonzero;fill:rgb(100%,100%,100%);fill-opacity:1;stroke-width:0.9157;stroke-linecap:butt;stroke-linejoin:miter;stroke:rgb(75.294118%,57.647059%,0%);stroke-opacity:1;stroke-miterlimit:4;" d="M 477.246094 268.066406 C 476.953125 268.066406 476.660156 268.066406 476.367188 268.066406 C 470.214844 268.066406 455.712891 264.84375 450.146484 260.15625 C 444.433594 264.550781 429.785156 268.066406 423.632812 268.066406 C 423.339844 268.066406 423.046875 268.066406 422.753906 267.919922 C 422.753906 269.384766 422.900391 270.849609 422.900391 272.167969 C 423.193359 277.001953 424.072266 281.982422 425.390625 286.669922 C 429.492188 301.611328 437.988281 314.208984 450 323.876953 C 462.011719 314.208984 470.507812 301.611328 474.609375 286.669922 C 475.927734 281.982422 476.806641 277.001953 477.099609 272.021484 C 477.099609 270.849609 477.246094 269.384766 477.246094 268.066406 Z M 477.246094 268.066406 " transform="matrix(0.0266667,0,0,0.0266667,0,0)"/>
<path style=" stroke:none;fill-rule:nonzero;fill:rgb(75.294118%,57.647059%,0%);fill-opacity:1;" d="M 11.71875 7.066406 C 11.558594 7.117188 11.390625 7.148438 11.296875 7.148438 C 11.289062 7.148438 11.28125 7.148438 11.273438 7.144531 C 11.273438 7.183594 11.277344 7.222656 11.277344 7.257812 C 11.285156 7.386719 11.308594 7.519531 11.34375 7.644531 C 11.417969 7.910156 11.542969 8.152344 11.71875 8.359375 Z M 11.71875 7.066406 "/>
<path style=" stroke:none;fill-rule:nonzero;fill:rgb(75.294118%,57.647059%,0%);fill-opacity:1;" d="M 12.265625 7.066406 L 12.265625 8.378906 C 12.449219 8.167969 12.578125 7.917969 12.65625 7.644531 C 12.691406 7.515625 12.714844 7.386719 12.722656 7.257812 C 12.722656 7.222656 12.726562 7.183594 12.726562 7.148438 C 12.71875 7.148438 12.710938 7.148438 12.703125 7.148438 C 12.605469 7.148438 12.425781 7.117188 12.265625 7.066406 Z M 12.265625 7.066406 "/>
<path style="fill-rule:nonzero;fill:rgb(100%,100%,100%);fill-opacity:1;stroke-width:1.2179;stroke-linecap:butt;stroke-linejoin:miter;stroke:rgb(75.294118%,57.647059%,0%);stroke-opacity:1;stroke-miterlimit:4;" d="M 462.304688 253.125 C 463.037109 253.125 461.425781 249.462891 461.425781 249.462891 C 463.183594 251.367188 469.775391 251.806641 469.775391 251.806641 C 465.820312 250.048828 461.865234 236.71875 462.304688 226.025391 C 462.744141 215.332031 460.839844 211.230469 459.228516 209.619141 C 457.177734 207.568359 450.732422 205.810547 446.484375 205.664062 C 444.140625 205.517578 444.580078 207.421875 444.580078 207.421875 C 440.185547 206.25 435.644531 205.810547 433.740234 207.128906 C 431.835938 208.447266 431.396484 214.746094 432.714844 213.574219 C 436.083984 210.9375 439.013672 213.427734 441.064453 216.210938 C 442.822266 218.847656 442.675781 226.025391 440.185547 234.521484 C 437.402344 243.310547 430.224609 252.246094 430.224609 252.246094 C 434.179688 252.246094 439.746094 248.730469 439.746094 248.730469 L 438.28125 254.150391 C 442.529297 252.246094 445.898438 249.023438 445.898438 249.023438 L 449.853516 253.271484 C 451.171875 251.513672 453.808594 249.023438 453.808594 249.023438 C 453.808594 249.023438 457.177734 252.685547 462.304688 253.125 Z M 462.304688 253.125 " transform="matrix(0.0266667,0,0,0.0266667,0,0)"/>
<path style="fill:none;stroke-width:1.2704;stroke-linecap:butt;stroke-linejoin:miter;stroke:rgb(75.294118%,57.647059%,0%);stroke-opacity:1;stroke-miterlimit:4;" d="M 446.191406 227.636719 C 446.191406 227.636719 443.847656 244.042969 439.746094 248.730469 " transform="matrix(0.0266667,0,0,0.0266667,0,0)"/>
<path style="fill:none;stroke-width:1.2704;stroke-linecap:butt;stroke-linejoin:miter;stroke:rgb(75.294118%,57.647059%,0%);stroke-opacity:1;stroke-miterlimit:4;" d="M 449.707031 227.197266 C 449.707031 227.197266 448.828125 243.75 445.898438 249.023438 " transform="matrix(0.0266667,0,0,0.0266667,0,0)"/>
<path style="fill:none;stroke-width:1.2704;stroke-linecap:butt;stroke-linejoin:miter;stroke:rgb(75.294118%,57.647059%,0%);stroke-opacity:1;stroke-miterlimit:4;" d="M 452.783203 227.783203 C 452.783203 227.783203 452.783203 245.947266 453.808594 249.169922 " transform="matrix(0.0266667,0,0,0.0266667,0,0)"/>
<path style="fill:none;stroke-width:1.2704;stroke-linecap:butt;stroke-linejoin:miter;stroke:rgb(75.294118%,57.647059%,0%);stroke-opacity:1;stroke-miterlimit:4;" d="M 456.738281 228.662109 C 456.738281 228.662109 457.617188 244.042969 461.425781 249.462891 " transform="matrix(0.0266667,0,0,0.0266667,0,0)"/>
<path style="fill-rule:nonzero;fill:rgb(75.294118%,57.647059%,0%);fill-opacity:1;stroke-width:0.3542;stroke-linecap:butt;stroke-linejoin:miter;stroke:rgb(75.294118%,57.647059%,0%);stroke-opacity:1;stroke-miterlimit:4;" d="M 442.089844 219.580078 C 441.943359 218.115234 441.503906 217.089844 441.064453 216.210938 C 439.013672 213.427734 436.083984 210.9375 432.714844 213.574219 C 432.714844 213.574219 433.886719 210.058594 436.376953 209.912109 C 438.28125 209.912109 442.529297 211.376953 446.337891 217.822266 C 446.337891 217.822266 443.554688 217.236328 442.822266 217.822266 C 441.503906 218.847656 442.089844 219.580078 442.089844 219.580078 Z M 442.089844 219.580078 " transform="matrix(0.0266667,0,0,0.0266667,0,0)"/>
<path style="fill-rule:nonzero;fill:rgb(75.294118%,57.647059%,0%);fill-opacity:1;stroke-width:0.3542;stroke-linecap:butt;stroke-linejoin:miter;stroke:rgb(75.294118%,57.647059%,0%);stroke-opacity:1;stroke-miterlimit:4;" d="M 432.421875 209.326172 C 432.714844 208.300781 433.154297 207.568359 433.740234 207.128906 C 435.644531 205.810547 440.185547 206.25 444.580078 207.421875 C 444.580078 207.421875 444.140625 205.517578 446.484375 205.664062 C 450.732422 205.810547 457.177734 207.568359 459.228516 209.619141 C 459.667969 210.058594 460.253906 210.9375 460.693359 211.962891 C 459.667969 210.644531 456.884766 210.644531 456.152344 210.791016 C 455.126953 210.9375 454.541016 210.9375 453.076172 211.230469 C 452.34375 211.376953 451.318359 211.523438 450.878906 211.962891 C 450.439453 212.402344 450 213.720703 449.414062 213.720703 C 448.388672 213.720703 448.388672 213.427734 448.095703 213.134766 C 447.802734 212.695312 447.509766 211.962891 447.216797 212.109375 C 446.191406 212.255859 444.287109 211.376953 442.089844 209.619141 C 439.892578 207.861328 439.013672 207.421875 436.083984 207.568359 C 433.300781 207.861328 432.421875 209.472656 432.421875 209.472656 Z M 432.421875 209.326172 " transform="matrix(0.0266667,0,0,0.0266667,0,0)"/>
<path style=" stroke:none;fill-rule:nonzero;fill:rgb(100%,100%,100%);fill-opacity:1;" d="M 12 5.617188 C 12 5.636719 11.984375 5.648438 11.96875 5.648438 C 11.953125 5.648438 11.9375 5.636719 11.9375 5.617188 C 11.9375 5.601562 11.953125 5.585938 11.96875 5.585938 C 11.984375 5.585938 12 5.601562 12 5.617188 Z M 12 5.617188 "/>
</g>
</svg>
