<?xml version="1.0" encoding="UTF-8"?>
<svg xmlns="http://www.w3.org/2000/svg" xmlns:xlink="http://www.w3.org/1999/xlink" width="24px" height="24px" viewBox="0 0 24 12" version="1.1">
<g id="surface1">
<path style=" stroke:none;fill-rule:nonzero;fill:rgb(0%,0%,0%);fill-opacity:1;" d="M 0 0 L 24 0 L 24 6 L 0 6 Z M 0 0 "/>
<path style=" stroke:none;fill-rule:nonzero;fill:rgb(0%,47.843137%,23.921569%);fill-opacity:1;" d="M 0 6 L 24 6 L 24 12 L 0 12 Z M 0 6 "/>
<path style=" stroke:none;fill-rule:nonzero;fill:rgb(100%,100%,100%);fill-opacity:1;" d="M 0 4 L 24 4 L 24 8 L 0 8 Z M 0 4 "/>
<path style=" stroke:none;fill-rule:nonzero;fill:rgb(76.862745%,6.666667%,10.588235%);fill-opacity:1;" d="M 0 0 L 8 6 L 0 12 Z M 0 0 "/>
<path style=" stroke:none;fill-rule:nonzero;fill:rgb(76.862745%,6.666667%,10.588235%);fill-opacity:1;" d="M 13.601562 6 C 13.601562 6.882812 12.882812 7.601562 12 7.601562 C 11.117188 7.601562 10.398438 6.882812 10.398438 6 C 10.398438 5.117188 11.117188 4.398438 12 4.398438 C 12.882812 4.398438 13.601562 5.117188 13.601562 6 Z M 13.601562 6 "/>
<path style=" stroke:none;fill-rule:nonzero;fill:rgb(100%,100%,100%);fill-opacity:1;" d="M 14.199219 6 C 14.199219 6.882812 13.484375 7.601562 12.601562 7.601562 C 11.714844 7.601562 11 6.882812 11 6 C 11 5.117188 11.714844 4.398438 12.601562 4.398438 C 13.484375 4.398438 14.199219 5.117188 14.199219 6 Z M 14.199219 6 "/>
<path style=" stroke:none;fill-rule:nonzero;fill:rgb(76.862745%,6.666667%,10.588235%);fill-opacity:1;" d="M 11.570312 6.96875 L 12.253906 6.480469 L 12.929688 6.976562 L 12.675781 6.175781 L 13.355469 5.6875 L 12.519531 5.679688 L 12.261719 4.882812 L 11.996094 5.675781 L 11.15625 5.675781 L 11.832031 6.171875 Z M 11.570312 6.96875 "/>
</g>
</svg>
