<?xml version="1.0" encoding="UTF-8"?>
<svg xmlns="http://www.w3.org/2000/svg" xmlns:xlink="http://www.w3.org/1999/xlink" width="24px" height="24px" viewBox="0 0 24 12" version="1.1">
<g id="surface1">
<rect x="0" y="0" width="24" height="12" style="fill:rgb(91.764706%,1.568627%,21.568627%);fill-opacity:1;stroke:none;"/>
<path style=" stroke:none;fill-rule:nonzero;fill:rgb(25.490196%,53.72549%,86.666667%);fill-opacity:1;" d="M 0 12 L 24 12 L 24 6 "/>
<path style=" stroke:none;fill-rule:nonzero;fill:rgb(7.058824%,67.843137%,16.862745%);fill-opacity:1;" d="M 0 0 L 24 0 L 24 6 "/>
<path style=" stroke:none;fill-rule:nonzero;fill:rgb(100%,78.039216%,14.901961%);fill-opacity:1;" d="M 5.527344 8.859375 C 5.265625 8.929688 5.117188 9.132812 5.121094 9.324219 L 6.398438 9.316406 C 6.410156 9.113281 6.242188 8.925781 5.988281 8.851562 C 7.238281 8.824219 8.324219 8.355469 8.519531 8.054688 C 8.324219 7.972656 8.097656 8.109375 7.9375 8.074219 C 8.320312 7.898438 9.464844 7.15625 9.28125 6.363281 C 9.136719 6.804688 8.695312 7.171875 8.511719 7.269531 C 8.9375 6.617188 9.523438 5.941406 9.015625 5.417969 C 9.039062 5.722656 8.820312 6.054688 8.726562 6.082031 C 8.972656 5.394531 9.210938 4.53125 8.671875 3.964844 C 8.742188 4.171875 8.714844 4.75 8.617188 4.777344 C 8.585938 4.308594 8.507812 3.328125 8.015625 3.339844 C 8.171875 3.480469 8.242188 3.859375 8.246094 4.242188 C 8.132812 3.980469 8.003906 3.78125 7.734375 3.589844 C 7.511719 3.164062 7.121094 2.816406 6.730469 2.566406 C 6.773438 2.871094 6.808594 3.117188 7.238281 3.433594 C 7.015625 3.421875 6.789062 2.996094 6.550781 2.984375 C 6.359375 2.976562 6.210938 3.15625 5.902344 3.050781 C 5.933594 3.15625 6.082031 3.199219 6.109375 3.277344 C 6.042969 3.320312 5.886719 3.269531 5.753906 3.199219 C 5.9375 3.445312 6.214844 3.589844 6.453125 3.542969 C 6.738281 3.488281 7.039062 3.515625 7.328125 3.683594 C 7.253906 3.71875 6.96875 3.71875 6.785156 3.695312 C 6.949219 3.867188 7.0625 3.980469 7.355469 3.976562 C 7.617188 3.976562 7.753906 3.839844 7.820312 3.921875 C 7.984375 4.117188 8.09375 4.308594 8.230469 4.539062 C 7.925781 4.570312 8.019531 4.195312 7.683594 4.003906 C 7.492188 4.394531 7.898438 4.859375 8.175781 5.050781 C 8.179688 5.347656 8.222656 5.59375 8.347656 5.816406 C 8.429688 5.972656 8.539062 6.136719 8.5 6.492188 C 8.332031 6.371094 8.171875 5.964844 8.230469 5.640625 C 8.023438 5.699219 7.941406 6.0625 8.039062 6.246094 C 8.113281 6.386719 8.164062 6.652344 8.078125 6.773438 C 7.996094 6.882812 7.988281 6.871094 7.988281 7.109375 C 7.992188 7.253906 7.910156 7.421875 7.78125 7.539062 C 7.808594 7.4375 7.839844 7.265625 7.808594 7.15625 C 7.707031 7.332031 7.449219 7.511719 7.367188 7.699219 C 7.289062 7.886719 7.269531 8.210938 6.882812 8.289062 C 6.386719 8.386719 6.214844 8.472656 5.894531 8.601562 C 5.859375 8.359375 5.964844 7.855469 6.167969 7.882812 C 6.367188 7.917969 6.96875 7.675781 6.753906 7.171875 C 6.710938 7.328125 6.566406 7.484375 6.414062 7.492188 C 6.582031 7.277344 6.875 7.054688 6.730469 6.695312 C 6.652344 6.847656 6.527344 7.03125 6.335938 7.136719 C 6.539062 6.742188 6.359375 6.625 6.117188 6.949219 C 6.023438 7.074219 5.96875 7.324219 5.910156 7.640625 C 5.816406 7.382812 5.824219 7.042969 5.710938 6.769531 C 5.59375 6.46875 5.867188 6.390625 5.996094 6.414062 C 6.3125 6.5 6.839844 6.5 6.800781 5.976562 C 6.664062 6.152344 6.425781 6.207031 6.167969 6.144531 C 6.457031 5.933594 6.6875 5.535156 6.363281 5.324219 C 6.351562 5.546875 6.179688 5.792969 5.953125 5.910156 C 5.898438 5.722656 5.898438 5.523438 5.945312 5.308594 C 5.816406 5.441406 5.722656 5.71875 5.648438 6.039062 C 5.644531 5.722656 5.703125 5.5 5.75 5.328125 C 5.816406 5.082031 5.980469 5.242188 6.234375 5.261719 C 6.480469 5.277344 6.816406 5.140625 6.75 4.808594 C 6.667969 4.941406 6.496094 4.992188 6.320312 4.976562 C 6.53125 4.851562 6.898438 4.621094 6.699219 4.273438 C 6.613281 4.40625 6.585938 4.519531 6.339844 4.558594 C 6.40625 4.414062 6.414062 4.203125 6.605469 4.121094 C 6.265625 4.054688 6.074219 4.277344 5.972656 4.625 C 5.933594 4.382812 5.886719 4.292969 5.875 4.117188 C 6.058594 3.914062 6.078125 3.515625 5.683594 3.425781 C 5.660156 3.632812 5.667969 3.679688 5.710938 3.847656 C 5.523438 3.738281 5.261719 3.675781 5.089844 3.832031 C 5.207031 3.960938 5.390625 4.074219 5.671875 3.933594 C 5.605469 4.152344 5.433594 4.113281 5.191406 4.03125 C 5.339844 4.304688 5.523438 4.355469 5.726562 4.320312 C 5.832031 4.601562 5.835938 4.816406 5.527344 5.222656 C 5.539062 4.96875 5.523438 4.78125 5.320312 4.574219 C 5.148438 4.40625 5.007812 4.582031 5.277344 4.957031 C 5.113281 4.839844 4.929688 4.59375 4.875 4.347656 C 4.820312 4.652344 4.867188 5.007812 5.035156 5.207031 C 4.957031 5.292969 4.867188 5.199219 4.734375 4.992188 C 4.785156 5.652344 5.066406 5.78125 5.445312 5.632812 C 5.457031 5.996094 5.457031 6.332031 5.476562 6.773438 C 5.257812 6.453125 4.976562 6.214844 4.820312 6.15625 C 4.769531 6.335938 4.953125 6.566406 5.058594 6.695312 C 4.902344 6.664062 4.558594 6.40625 4.558594 6.40625 C 4.527344 6.699219 4.90625 6.972656 5.152344 7.09375 C 4.863281 7.082031 4.738281 6.972656 4.550781 6.792969 C 4.554688 7.613281 5.4375 7.46875 5.601562 7.34375 C 5.625 7.746094 5.652344 8.210938 5.675781 8.613281 C 5.425781 8.570312 5.445312 8.496094 5.230469 8.476562 C 4.640625 8.453125 4.167969 7.765625 4.011719 7.257812 C 3.96875 7.34375 4.003906 7.429688 3.964844 7.53125 C 3.867188 7.28125 3.742188 6.960938 3.578125 6.8125 C 3.621094 6.957031 3.625 7.105469 3.609375 7.375 C 3.554688 7.199219 3.5 7.144531 3.496094 6.941406 C 3.5 6.78125 3.652344 6.664062 3.640625 6.441406 C 3.636719 6.28125 3.488281 5.929688 3.464844 5.65625 C 3.394531 5.9375 3.347656 6.230469 3.238281 6.40625 C 3.292969 6.105469 3.277344 5.898438 3.367188 5.699219 C 3.476562 5.484375 3.566406 5.296875 3.496094 5.082031 C 3.425781 5.164062 3.449219 5.238281 3.28125 5.441406 C 3.242188 5.222656 3.5 4.871094 3.75 4.730469 C 3.929688 4.636719 4.152344 4.304688 4.007812 4.078125 C 3.839844 4.195312 3.765625 4.359375 3.53125 4.632812 C 3.699219 3.976562 4.132812 3.804688 4.65625 3.804688 C 4.769531 3.804688 5.003906 3.761719 5.066406 3.609375 C 4.921875 3.667969 4.746094 3.671875 4.59375 3.640625 C 4.707031 3.476562 4.941406 3.5 5.164062 3.496094 C 5.335938 3.496094 5.605469 3.472656 5.714844 3.226562 C 5.503906 3.316406 5.175781 3.335938 4.96875 3.273438 C 5.296875 3.101562 5.816406 3.082031 6.082031 2.859375 C 5.777344 2.632812 5.023438 2.910156 4.542969 3.238281 C 4.675781 3.117188 4.886719 2.898438 5.003906 2.726562 C 4.742188 2.601562 4.082031 3.332031 3.855469 3.765625 C 3.640625 3.890625 3.550781 4.082031 3.46875 4.214844 C 3.582031 3.824219 3.597656 3.542969 3.691406 3.222656 C 2.949219 3.476562 3.257812 4.847656 3.097656 5.171875 C 3.117188 4.8125 3.101562 4.347656 2.953125 4.109375 C 2.722656 4.28125 2.707031 5.308594 2.921875 6.160156 C 2.84375 5.929688 2.695312 5.71875 2.648438 5.441406 C 2.3125 6.054688 2.847656 6.785156 3.296875 7.359375 C 2.957031 7.183594 2.625 6.804688 2.40625 6.488281 C 2.464844 7.589844 3.617188 7.820312 3.796875 8.089844 C 3.554688 7.976562 3.089844 7.753906 2.894531 7.988281 C 3.214844 8.0625 3.46875 8.148438 3.675781 8.28125 C 3.972656 8.65625 4.539062 8.820312 5.527344 8.859375 Z M 5.527344 8.859375 "/>
</g>
</svg>
