<?xml version="1.0" encoding="UTF-8"?>
<svg xmlns="http://www.w3.org/2000/svg" xmlns:xlink="http://www.w3.org/1999/xlink" width="24px" height="24px" viewBox="0 0 24 16" version="1.1">
<g id="surface1">
<rect x="0" y="0" width="24" height="16" style="fill:rgb(0%,20%,60%);fill-opacity:1;stroke:none;"/>
<path style=" stroke:none;fill-rule:nonzero;fill:rgb(100%,80%,0%);fill-opacity:1;" d="M 12 1.777344 L 11.726562 2.625 L 12.148438 2.761719 Z M 12 1.777344 "/>
<path style=" stroke:none;fill-rule:nonzero;fill:rgb(100%,80%,0%);fill-opacity:1;" d="M 12 1.777344 L 12.273438 2.625 L 11.851562 2.761719 Z M 12 1.777344 "/>
<path style=" stroke:none;fill-rule:nonzero;fill:rgb(100%,80%,0%);fill-opacity:1;" d="M 12.84375 2.390625 L 11.957031 2.390625 L 11.957031 2.835938 Z M 12.84375 2.390625 "/>
<path style=" stroke:none;fill-rule:nonzero;fill:rgb(100%,80%,0%);fill-opacity:1;" d="M 12.84375 2.390625 L 12.125 2.914062 L 11.863281 2.554688 Z M 12.84375 2.390625 "/>
<path style=" stroke:none;fill-rule:nonzero;fill:rgb(100%,80%,0%);fill-opacity:1;" d="M 12.523438 3.386719 L 12.246094 2.539062 L 11.824219 2.679688 Z M 12.523438 3.386719 "/>
<path style=" stroke:none;fill-rule:nonzero;fill:rgb(100%,80%,0%);fill-opacity:1;" d="M 12.523438 3.386719 L 11.804688 2.863281 L 12.066406 2.503906 Z M 12.523438 3.386719 "/>
<path style=" stroke:none;fill-rule:nonzero;fill:rgb(100%,80%,0%);fill-opacity:1;" d="M 11.15625 2.390625 L 12.042969 2.390625 L 12.042969 2.835938 Z M 11.15625 2.390625 "/>
<path style=" stroke:none;fill-rule:nonzero;fill:rgb(100%,80%,0%);fill-opacity:1;" d="M 11.15625 2.390625 L 11.875 2.914062 L 12.136719 2.554688 Z M 11.15625 2.390625 "/>
<path style=" stroke:none;fill-rule:nonzero;fill:rgb(100%,80%,0%);fill-opacity:1;" d="M 11.476562 3.386719 L 11.753906 2.539062 L 12.175781 2.679688 Z M 11.476562 3.386719 "/>
<path style=" stroke:none;fill-rule:nonzero;fill:rgb(100%,80%,0%);fill-opacity:1;" d="M 11.476562 3.386719 L 12.195312 2.863281 L 11.933594 2.503906 Z M 11.476562 3.386719 "/>
<path style=" stroke:none;fill-rule:nonzero;fill:rgb(100%,80%,0%);fill-opacity:1;" d="M 12 12.445312 L 11.726562 13.289062 L 12.148438 13.425781 Z M 12 12.445312 "/>
<path style=" stroke:none;fill-rule:nonzero;fill:rgb(100%,80%,0%);fill-opacity:1;" d="M 12 12.445312 L 12.273438 13.289062 L 11.851562 13.425781 Z M 12 12.445312 "/>
<path style=" stroke:none;fill-rule:nonzero;fill:rgb(100%,80%,0%);fill-opacity:1;" d="M 12.84375 13.058594 L 11.957031 13.058594 L 11.957031 13.503906 Z M 12.84375 13.058594 "/>
<path style=" stroke:none;fill-rule:nonzero;fill:rgb(100%,80%,0%);fill-opacity:1;" d="M 12.84375 13.058594 L 12.125 13.582031 L 11.863281 13.222656 Z M 12.84375 13.058594 "/>
<path style=" stroke:none;fill-rule:nonzero;fill:rgb(100%,80%,0%);fill-opacity:1;" d="M 12.523438 14.050781 L 12.246094 13.207031 L 11.824219 13.34375 Z M 12.523438 14.050781 "/>
<path style=" stroke:none;fill-rule:nonzero;fill:rgb(100%,80%,0%);fill-opacity:1;" d="M 12.523438 14.050781 L 11.804688 13.53125 L 12.066406 13.171875 Z M 12.523438 14.050781 "/>
<path style=" stroke:none;fill-rule:nonzero;fill:rgb(100%,80%,0%);fill-opacity:1;" d="M 11.15625 13.058594 L 12.042969 13.058594 L 12.042969 13.503906 Z M 11.15625 13.058594 "/>
<path style=" stroke:none;fill-rule:nonzero;fill:rgb(100%,80%,0%);fill-opacity:1;" d="M 11.15625 13.058594 L 11.875 13.582031 L 12.136719 13.222656 Z M 11.15625 13.058594 "/>
<path style=" stroke:none;fill-rule:nonzero;fill:rgb(100%,80%,0%);fill-opacity:1;" d="M 11.476562 14.050781 L 11.753906 13.207031 L 12.175781 13.34375 Z M 11.476562 14.050781 "/>
<path style=" stroke:none;fill-rule:nonzero;fill:rgb(100%,80%,0%);fill-opacity:1;" d="M 11.476562 14.050781 L 12.195312 13.53125 L 11.933594 13.171875 Z M 11.476562 14.050781 "/>
<path style=" stroke:none;fill-rule:nonzero;fill:rgb(100%,80%,0%);fill-opacity:1;" d="M 6.667969 7.109375 L 6.390625 7.957031 L 6.816406 8.09375 Z M 6.667969 7.109375 "/>
<path style=" stroke:none;fill-rule:nonzero;fill:rgb(100%,80%,0%);fill-opacity:1;" d="M 6.667969 7.109375 L 6.941406 7.957031 L 6.519531 8.09375 Z M 6.667969 7.109375 "/>
<path style=" stroke:none;fill-rule:nonzero;fill:rgb(100%,80%,0%);fill-opacity:1;" d="M 7.511719 7.726562 L 6.625 7.726562 L 6.625 8.167969 Z M 7.511719 7.726562 "/>
<path style=" stroke:none;fill-rule:nonzero;fill:rgb(100%,80%,0%);fill-opacity:1;" d="M 7.511719 7.726562 L 6.792969 8.246094 L 6.53125 7.886719 Z M 7.511719 7.726562 "/>
<path style=" stroke:none;fill-rule:nonzero;fill:rgb(100%,80%,0%);fill-opacity:1;" d="M 7.1875 8.71875 L 6.914062 7.875 L 6.492188 8.011719 Z M 7.1875 8.71875 "/>
<path style=" stroke:none;fill-rule:nonzero;fill:rgb(100%,80%,0%);fill-opacity:1;" d="M 7.1875 8.71875 L 6.46875 8.195312 L 6.730469 7.835938 Z M 7.1875 8.71875 "/>
<path style=" stroke:none;fill-rule:nonzero;fill:rgb(100%,80%,0%);fill-opacity:1;" d="M 5.820312 7.726562 L 6.710938 7.726562 L 6.710938 8.167969 Z M 5.820312 7.726562 "/>
<path style=" stroke:none;fill-rule:nonzero;fill:rgb(100%,80%,0%);fill-opacity:1;" d="M 5.820312 7.726562 L 6.539062 8.246094 L 6.800781 7.886719 Z M 5.820312 7.726562 "/>
<path style=" stroke:none;fill-rule:nonzero;fill:rgb(100%,80%,0%);fill-opacity:1;" d="M 6.144531 8.71875 L 6.417969 7.875 L 6.839844 8.011719 Z M 6.144531 8.71875 "/>
<path style=" stroke:none;fill-rule:nonzero;fill:rgb(100%,80%,0%);fill-opacity:1;" d="M 6.144531 8.71875 L 6.863281 8.195312 L 6.601562 7.835938 Z M 6.144531 8.71875 "/>
<path style=" stroke:none;fill-rule:nonzero;fill:rgb(100%,80%,0%);fill-opacity:1;" d="M 8.8125 4.101562 L 9.53125 3.578125 L 9.269531 3.21875 Z M 8.8125 4.101562 "/>
<path style=" stroke:none;fill-rule:nonzero;fill:rgb(100%,80%,0%);fill-opacity:1;" d="M 8.8125 4.101562 L 9.085938 3.257812 L 9.507812 3.394531 Z M 8.8125 4.101562 "/>
<path style=" stroke:none;fill-rule:nonzero;fill:rgb(100%,80%,0%);fill-opacity:1;" d="M 8.488281 3.109375 L 9.207031 3.628906 L 9.46875 3.269531 Z M 8.488281 3.109375 "/>
<path style=" stroke:none;fill-rule:nonzero;fill:rgb(100%,80%,0%);fill-opacity:1;" d="M 8.488281 3.109375 L 9.375 3.109375 L 9.375 3.550781 Z M 8.488281 3.109375 "/>
<path style=" stroke:none;fill-rule:nonzero;fill:rgb(100%,80%,0%);fill-opacity:1;" d="M 9.332031 2.492188 L 9.058594 3.339844 L 9.480469 3.476562 Z M 9.332031 2.492188 "/>
<path style=" stroke:none;fill-rule:nonzero;fill:rgb(100%,80%,0%);fill-opacity:1;" d="M 9.332031 2.492188 L 9.609375 3.339844 L 9.183594 3.476562 Z M 9.332031 2.492188 "/>
<path style=" stroke:none;fill-rule:nonzero;fill:rgb(100%,80%,0%);fill-opacity:1;" d="M 9.855469 4.101562 L 9.136719 3.578125 L 9.398438 3.21875 Z M 9.855469 4.101562 "/>
<path style=" stroke:none;fill-rule:nonzero;fill:rgb(100%,80%,0%);fill-opacity:1;" d="M 9.855469 4.101562 L 9.582031 3.257812 L 9.160156 3.394531 Z M 9.855469 4.101562 "/>
<path style=" stroke:none;fill-rule:nonzero;fill:rgb(100%,80%,0%);fill-opacity:1;" d="M 10.179688 3.109375 L 9.460938 3.628906 L 9.199219 3.269531 Z M 10.179688 3.109375 "/>
<path style=" stroke:none;fill-rule:nonzero;fill:rgb(100%,80%,0%);fill-opacity:1;" d="M 10.179688 3.109375 L 9.289062 3.109375 L 9.289062 3.550781 Z M 10.179688 3.109375 "/>
<path style=" stroke:none;fill-rule:nonzero;fill:rgb(100%,80%,0%);fill-opacity:1;" d="M 7.90625 6.050781 L 7.628906 5.207031 L 7.207031 5.34375 Z M 7.90625 6.050781 "/>
<path style=" stroke:none;fill-rule:nonzero;fill:rgb(100%,80%,0%);fill-opacity:1;" d="M 7.90625 6.050781 L 7.1875 5.53125 L 7.445312 5.171875 Z M 7.90625 6.050781 "/>
<path style=" stroke:none;fill-rule:nonzero;fill:rgb(100%,80%,0%);fill-opacity:1;" d="M 6.859375 6.050781 L 7.578125 5.53125 L 7.316406 5.171875 Z M 6.859375 6.050781 "/>
<path style=" stroke:none;fill-rule:nonzero;fill:rgb(100%,80%,0%);fill-opacity:1;" d="M 6.859375 6.050781 L 7.132812 5.207031 L 7.558594 5.34375 Z M 6.859375 6.050781 "/>
<path style=" stroke:none;fill-rule:nonzero;fill:rgb(100%,80%,0%);fill-opacity:1;" d="M 6.535156 5.058594 L 7.257812 5.582031 L 7.515625 5.222656 Z M 6.535156 5.058594 "/>
<path style=" stroke:none;fill-rule:nonzero;fill:rgb(100%,80%,0%);fill-opacity:1;" d="M 6.535156 5.058594 L 7.425781 5.058594 L 7.425781 5.503906 Z M 6.535156 5.058594 "/>
<path style=" stroke:none;fill-rule:nonzero;fill:rgb(100%,80%,0%);fill-opacity:1;" d="M 8.226562 5.058594 L 7.507812 5.582031 L 7.246094 5.222656 Z M 8.226562 5.058594 "/>
<path style=" stroke:none;fill-rule:nonzero;fill:rgb(100%,80%,0%);fill-opacity:1;" d="M 8.226562 5.058594 L 7.339844 5.058594 L 7.339844 5.503906 Z M 8.226562 5.058594 "/>
<path style=" stroke:none;fill-rule:nonzero;fill:rgb(100%,80%,0%);fill-opacity:1;" d="M 7.382812 4.445312 L 7.65625 5.289062 L 7.234375 5.425781 Z M 7.382812 4.445312 "/>
<path style=" stroke:none;fill-rule:nonzero;fill:rgb(100%,80%,0%);fill-opacity:1;" d="M 7.382812 4.445312 L 7.109375 5.289062 L 7.53125 5.425781 Z M 7.382812 4.445312 "/>
<path style=" stroke:none;fill-rule:nonzero;fill:rgb(100%,80%,0%);fill-opacity:1;" d="M 8.226562 10.390625 L 7.335938 10.390625 L 7.335938 10.835938 Z M 8.226562 10.390625 "/>
<path style=" stroke:none;fill-rule:nonzero;fill:rgb(100%,80%,0%);fill-opacity:1;" d="M 8.226562 10.390625 L 7.507812 10.914062 L 7.246094 10.554688 Z M 8.226562 10.390625 "/>
<path style=" stroke:none;fill-rule:nonzero;fill:rgb(100%,80%,0%);fill-opacity:1;" d="M 7.902344 11.386719 L 7.628906 10.539062 L 7.207031 10.679688 Z M 7.902344 11.386719 "/>
<path style=" stroke:none;fill-rule:nonzero;fill:rgb(100%,80%,0%);fill-opacity:1;" d="M 7.902344 11.386719 L 7.183594 10.863281 L 7.445312 10.503906 Z M 7.902344 11.386719 "/>
<path style=" stroke:none;fill-rule:nonzero;fill:rgb(100%,80%,0%);fill-opacity:1;" d="M 6.859375 11.386719 L 7.578125 10.863281 L 7.316406 10.503906 Z M 6.859375 11.386719 "/>
<path style=" stroke:none;fill-rule:nonzero;fill:rgb(100%,80%,0%);fill-opacity:1;" d="M 6.859375 11.386719 L 7.132812 10.539062 L 7.554688 10.679688 Z M 6.859375 11.386719 "/>
<path style=" stroke:none;fill-rule:nonzero;fill:rgb(100%,80%,0%);fill-opacity:1;" d="M 7.382812 9.777344 L 7.65625 10.625 L 7.234375 10.761719 Z M 7.382812 9.777344 "/>
<path style=" stroke:none;fill-rule:nonzero;fill:rgb(100%,80%,0%);fill-opacity:1;" d="M 7.382812 9.777344 L 7.105469 10.625 L 7.527344 10.761719 Z M 7.382812 9.777344 "/>
<path style=" stroke:none;fill-rule:nonzero;fill:rgb(100%,80%,0%);fill-opacity:1;" d="M 6.535156 10.390625 L 7.425781 10.390625 L 7.425781 10.835938 Z M 6.535156 10.390625 "/>
<path style=" stroke:none;fill-rule:nonzero;fill:rgb(100%,80%,0%);fill-opacity:1;" d="M 6.535156 10.390625 L 7.253906 10.914062 L 7.515625 10.554688 Z M 6.535156 10.390625 "/>
<path style=" stroke:none;fill-rule:nonzero;fill:rgb(100%,80%,0%);fill-opacity:1;" d="M 10.179688 12.34375 L 9.289062 12.34375 L 9.289062 12.789062 Z M 10.179688 12.34375 "/>
<path style=" stroke:none;fill-rule:nonzero;fill:rgb(100%,80%,0%);fill-opacity:1;" d="M 10.179688 12.34375 L 9.460938 12.867188 L 9.199219 12.507812 Z M 10.179688 12.34375 "/>
<path style=" stroke:none;fill-rule:nonzero;fill:rgb(100%,80%,0%);fill-opacity:1;" d="M 9.855469 13.339844 L 9.582031 12.492188 L 9.160156 12.628906 Z M 9.855469 13.339844 "/>
<path style=" stroke:none;fill-rule:nonzero;fill:rgb(100%,80%,0%);fill-opacity:1;" d="M 9.855469 13.339844 L 9.136719 12.816406 L 9.398438 12.457031 Z M 9.855469 13.339844 "/>
<path style=" stroke:none;fill-rule:nonzero;fill:rgb(100%,80%,0%);fill-opacity:1;" d="M 8.8125 13.339844 L 9.53125 12.816406 L 9.269531 12.457031 Z M 8.8125 13.339844 "/>
<path style=" stroke:none;fill-rule:nonzero;fill:rgb(100%,80%,0%);fill-opacity:1;" d="M 8.8125 13.339844 L 9.085938 12.492188 L 9.507812 12.628906 Z M 8.8125 13.339844 "/>
<path style=" stroke:none;fill-rule:nonzero;fill:rgb(100%,80%,0%);fill-opacity:1;" d="M 9.332031 11.730469 L 9.609375 12.574219 L 9.1875 12.714844 Z M 9.332031 11.730469 "/>
<path style=" stroke:none;fill-rule:nonzero;fill:rgb(100%,80%,0%);fill-opacity:1;" d="M 9.332031 11.730469 L 9.058594 12.574219 L 9.480469 12.714844 Z M 9.332031 11.730469 "/>
<path style=" stroke:none;fill-rule:nonzero;fill:rgb(100%,80%,0%);fill-opacity:1;" d="M 8.488281 12.34375 L 9.378906 12.34375 L 9.378906 12.789062 Z M 8.488281 12.34375 "/>
<path style=" stroke:none;fill-rule:nonzero;fill:rgb(100%,80%,0%);fill-opacity:1;" d="M 8.488281 12.34375 L 9.207031 12.867188 L 9.46875 12.507812 Z M 8.488281 12.34375 "/>
<path style=" stroke:none;fill-rule:nonzero;fill:rgb(100%,80%,0%);fill-opacity:1;" d="M 17.332031 7.109375 L 17.609375 7.957031 L 17.183594 8.09375 Z M 17.332031 7.109375 "/>
<path style=" stroke:none;fill-rule:nonzero;fill:rgb(100%,80%,0%);fill-opacity:1;" d="M 17.332031 7.109375 L 17.058594 7.957031 L 17.480469 8.09375 Z M 17.332031 7.109375 "/>
<path style=" stroke:none;fill-rule:nonzero;fill:rgb(100%,80%,0%);fill-opacity:1;" d="M 16.488281 7.726562 L 17.375 7.726562 L 17.375 8.167969 Z M 16.488281 7.726562 "/>
<path style=" stroke:none;fill-rule:nonzero;fill:rgb(100%,80%,0%);fill-opacity:1;" d="M 16.488281 7.726562 L 17.207031 8.246094 L 17.46875 7.886719 Z M 16.488281 7.726562 "/>
<path style=" stroke:none;fill-rule:nonzero;fill:rgb(100%,80%,0%);fill-opacity:1;" d="M 16.8125 8.71875 L 17.085938 7.875 L 17.507812 8.011719 Z M 16.8125 8.71875 "/>
<path style=" stroke:none;fill-rule:nonzero;fill:rgb(100%,80%,0%);fill-opacity:1;" d="M 16.8125 8.71875 L 17.53125 8.195312 L 17.269531 7.835938 Z M 16.8125 8.71875 "/>
<path style=" stroke:none;fill-rule:nonzero;fill:rgb(100%,80%,0%);fill-opacity:1;" d="M 18.179688 7.726562 L 17.289062 7.726562 L 17.289062 8.167969 Z M 18.179688 7.726562 "/>
<path style=" stroke:none;fill-rule:nonzero;fill:rgb(100%,80%,0%);fill-opacity:1;" d="M 18.179688 7.726562 L 17.460938 8.246094 L 17.199219 7.886719 Z M 18.179688 7.726562 "/>
<path style=" stroke:none;fill-rule:nonzero;fill:rgb(100%,80%,0%);fill-opacity:1;" d="M 17.855469 8.71875 L 17.582031 7.875 L 17.160156 8.011719 Z M 17.855469 8.71875 "/>
<path style=" stroke:none;fill-rule:nonzero;fill:rgb(100%,80%,0%);fill-opacity:1;" d="M 17.855469 8.71875 L 17.136719 8.195312 L 17.398438 7.835938 Z M 17.855469 8.71875 "/>
<path style=" stroke:none;fill-rule:nonzero;fill:rgb(100%,80%,0%);fill-opacity:1;" d="M 15.1875 4.101562 L 14.46875 3.578125 L 14.730469 3.21875 Z M 15.1875 4.101562 "/>
<path style=" stroke:none;fill-rule:nonzero;fill:rgb(100%,80%,0%);fill-opacity:1;" d="M 15.1875 4.101562 L 14.914062 3.257812 L 14.492188 3.394531 Z M 15.1875 4.101562 "/>
<path style=" stroke:none;fill-rule:nonzero;fill:rgb(100%,80%,0%);fill-opacity:1;" d="M 15.511719 3.109375 L 14.792969 3.628906 L 14.53125 3.269531 Z M 15.511719 3.109375 "/>
<path style=" stroke:none;fill-rule:nonzero;fill:rgb(100%,80%,0%);fill-opacity:1;" d="M 15.511719 3.109375 L 14.625 3.109375 L 14.625 3.550781 Z M 15.511719 3.109375 "/>
<path style=" stroke:none;fill-rule:nonzero;fill:rgb(100%,80%,0%);fill-opacity:1;" d="M 14.667969 2.492188 L 14.941406 3.339844 L 14.519531 3.476562 Z M 14.667969 2.492188 "/>
<path style=" stroke:none;fill-rule:nonzero;fill:rgb(100%,80%,0%);fill-opacity:1;" d="M 14.667969 2.492188 L 14.390625 3.339844 L 14.816406 3.476562 Z M 14.667969 2.492188 "/>
<path style=" stroke:none;fill-rule:nonzero;fill:rgb(100%,80%,0%);fill-opacity:1;" d="M 14.144531 4.101562 L 14.863281 3.578125 L 14.601562 3.21875 Z M 14.144531 4.101562 "/>
<path style=" stroke:none;fill-rule:nonzero;fill:rgb(100%,80%,0%);fill-opacity:1;" d="M 14.144531 4.101562 L 14.417969 3.257812 L 14.839844 3.394531 Z M 14.144531 4.101562 "/>
<path style=" stroke:none;fill-rule:nonzero;fill:rgb(100%,80%,0%);fill-opacity:1;" d="M 13.820312 3.109375 L 14.539062 3.628906 L 14.800781 3.269531 Z M 13.820312 3.109375 "/>
<path style=" stroke:none;fill-rule:nonzero;fill:rgb(100%,80%,0%);fill-opacity:1;" d="M 13.820312 3.109375 L 14.710938 3.109375 L 14.710938 3.550781 Z M 13.820312 3.109375 "/>
<path style=" stroke:none;fill-rule:nonzero;fill:rgb(100%,80%,0%);fill-opacity:1;" d="M 16.09375 6.050781 L 16.371094 5.207031 L 16.792969 5.34375 Z M 16.09375 6.050781 "/>
<path style=" stroke:none;fill-rule:nonzero;fill:rgb(100%,80%,0%);fill-opacity:1;" d="M 16.09375 6.050781 L 16.8125 5.53125 L 16.554688 5.171875 Z M 16.09375 6.050781 "/>
<path style=" stroke:none;fill-rule:nonzero;fill:rgb(100%,80%,0%);fill-opacity:1;" d="M 17.140625 6.050781 L 16.421875 5.53125 L 16.683594 5.171875 Z M 17.140625 6.050781 "/>
<path style=" stroke:none;fill-rule:nonzero;fill:rgb(100%,80%,0%);fill-opacity:1;" d="M 17.140625 6.050781 L 16.867188 5.207031 L 16.441406 5.34375 Z M 17.140625 6.050781 "/>
<path style=" stroke:none;fill-rule:nonzero;fill:rgb(100%,80%,0%);fill-opacity:1;" d="M 17.464844 5.058594 L 16.742188 5.582031 L 16.484375 5.222656 Z M 17.464844 5.058594 "/>
<path style=" stroke:none;fill-rule:nonzero;fill:rgb(100%,80%,0%);fill-opacity:1;" d="M 17.464844 5.058594 L 16.574219 5.058594 L 16.574219 5.503906 Z M 17.464844 5.058594 "/>
<path style=" stroke:none;fill-rule:nonzero;fill:rgb(100%,80%,0%);fill-opacity:1;" d="M 15.773438 5.058594 L 16.492188 5.582031 L 16.753906 5.222656 Z M 15.773438 5.058594 "/>
<path style=" stroke:none;fill-rule:nonzero;fill:rgb(100%,80%,0%);fill-opacity:1;" d="M 15.773438 5.058594 L 16.660156 5.058594 L 16.660156 5.503906 Z M 15.773438 5.058594 "/>
<path style=" stroke:none;fill-rule:nonzero;fill:rgb(100%,80%,0%);fill-opacity:1;" d="M 16.617188 4.445312 L 16.34375 5.289062 L 16.765625 5.425781 Z M 16.617188 4.445312 "/>
<path style=" stroke:none;fill-rule:nonzero;fill:rgb(100%,80%,0%);fill-opacity:1;" d="M 16.617188 4.445312 L 16.890625 5.289062 L 16.46875 5.425781 Z M 16.617188 4.445312 "/>
<path style=" stroke:none;fill-rule:nonzero;fill:rgb(100%,80%,0%);fill-opacity:1;" d="M 15.773438 10.390625 L 16.664062 10.390625 L 16.664062 10.835938 Z M 15.773438 10.390625 "/>
<path style=" stroke:none;fill-rule:nonzero;fill:rgb(100%,80%,0%);fill-opacity:1;" d="M 15.773438 10.390625 L 16.492188 10.914062 L 16.753906 10.554688 Z M 15.773438 10.390625 "/>
<path style=" stroke:none;fill-rule:nonzero;fill:rgb(100%,80%,0%);fill-opacity:1;" d="M 16.097656 11.386719 L 16.371094 10.539062 L 16.792969 10.679688 Z M 16.097656 11.386719 "/>
<path style=" stroke:none;fill-rule:nonzero;fill:rgb(100%,80%,0%);fill-opacity:1;" d="M 16.097656 11.386719 L 16.816406 10.863281 L 16.554688 10.503906 Z M 16.097656 11.386719 "/>
<path style=" stroke:none;fill-rule:nonzero;fill:rgb(100%,80%,0%);fill-opacity:1;" d="M 17.140625 11.386719 L 16.421875 10.863281 L 16.683594 10.503906 Z M 17.140625 11.386719 "/>
<path style=" stroke:none;fill-rule:nonzero;fill:rgb(100%,80%,0%);fill-opacity:1;" d="M 17.140625 11.386719 L 16.867188 10.539062 L 16.445312 10.679688 Z M 17.140625 11.386719 "/>
<path style=" stroke:none;fill-rule:nonzero;fill:rgb(100%,80%,0%);fill-opacity:1;" d="M 16.617188 9.777344 L 16.34375 10.625 L 16.765625 10.761719 Z M 16.617188 9.777344 "/>
<path style=" stroke:none;fill-rule:nonzero;fill:rgb(100%,80%,0%);fill-opacity:1;" d="M 16.617188 9.777344 L 16.894531 10.625 L 16.472656 10.761719 Z M 16.617188 9.777344 "/>
<path style=" stroke:none;fill-rule:nonzero;fill:rgb(100%,80%,0%);fill-opacity:1;" d="M 17.464844 10.390625 L 16.574219 10.390625 L 16.574219 10.835938 Z M 17.464844 10.390625 "/>
<path style=" stroke:none;fill-rule:nonzero;fill:rgb(100%,80%,0%);fill-opacity:1;" d="M 17.464844 10.390625 L 16.746094 10.914062 L 16.484375 10.554688 Z M 17.464844 10.390625 "/>
<path style=" stroke:none;fill-rule:nonzero;fill:rgb(100%,80%,0%);fill-opacity:1;" d="M 13.820312 12.34375 L 14.710938 12.34375 L 14.710938 12.789062 Z M 13.820312 12.34375 "/>
<path style=" stroke:none;fill-rule:nonzero;fill:rgb(100%,80%,0%);fill-opacity:1;" d="M 13.820312 12.34375 L 14.539062 12.867188 L 14.800781 12.507812 Z M 13.820312 12.34375 "/>
<path style=" stroke:none;fill-rule:nonzero;fill:rgb(100%,80%,0%);fill-opacity:1;" d="M 14.144531 13.339844 L 14.417969 12.492188 L 14.839844 12.628906 Z M 14.144531 13.339844 "/>
<path style=" stroke:none;fill-rule:nonzero;fill:rgb(100%,80%,0%);fill-opacity:1;" d="M 14.144531 13.339844 L 14.863281 12.816406 L 14.601562 12.457031 Z M 14.144531 13.339844 "/>
<path style=" stroke:none;fill-rule:nonzero;fill:rgb(100%,80%,0%);fill-opacity:1;" d="M 15.1875 13.339844 L 14.46875 12.816406 L 14.730469 12.457031 Z M 15.1875 13.339844 "/>
<path style=" stroke:none;fill-rule:nonzero;fill:rgb(100%,80%,0%);fill-opacity:1;" d="M 15.1875 13.339844 L 14.914062 12.492188 L 14.492188 12.628906 Z M 15.1875 13.339844 "/>
<path style=" stroke:none;fill-rule:nonzero;fill:rgb(100%,80%,0%);fill-opacity:1;" d="M 14.667969 11.730469 L 14.390625 12.574219 L 14.8125 12.714844 Z M 14.667969 11.730469 "/>
<path style=" stroke:none;fill-rule:nonzero;fill:rgb(100%,80%,0%);fill-opacity:1;" d="M 14.667969 11.730469 L 14.941406 12.574219 L 14.519531 12.714844 Z M 14.667969 11.730469 "/>
<path style=" stroke:none;fill-rule:nonzero;fill:rgb(100%,80%,0%);fill-opacity:1;" d="M 15.511719 12.34375 L 14.621094 12.34375 L 14.621094 12.789062 Z M 15.511719 12.34375 "/>
<path style=" stroke:none;fill-rule:nonzero;fill:rgb(100%,80%,0%);fill-opacity:1;" d="M 15.511719 12.34375 L 14.792969 12.867188 L 14.53125 12.507812 Z M 15.511719 12.34375 "/>
</g>
</svg>
