<?xml version="1.0" encoding="UTF-8"?>
<svg xmlns="http://www.w3.org/2000/svg" xmlns:xlink="http://www.w3.org/1999/xlink" width="24px" height="24px" viewBox="0 0 24 14" version="1.1">
<g id="surface1">
<path style=" stroke:none;fill-rule:nonzero;fill:rgb(0%,67.058824%,22.352941%);fill-opacity:1;" d="M 0 7 L 24 7 L 24 14 L 0 14 Z M 0 7 "/>
<path style=" stroke:none;fill-rule:nonzero;fill:rgb(100%,100%,100%);fill-opacity:1;" d="M 0 0 L 24 0 L 24 7 L 0 7 Z M 0 0 "/>
<path style="fill-rule:nonzero;fill:rgb(82.352941%,6.27451%,20.392157%);fill-opacity:1;stroke-width:1.8;stroke-linecap:butt;stroke-linejoin:miter;stroke:rgb(0%,0%,0%);stroke-opacity:1;stroke-miterlimit:4;" d="M 541.616589 28.62654 C 541.616589 28.62654 541.481497 28.62654 541.481497 28.62654 C 541.616589 28.62654 541.616589 28.62654 541.616589 28.62654 Z M 541.481497 28.62654 C 489.336315 57.528326 442.594779 87.541719 396.528698 125.892165 C 374.508841 145.206339 380.723034 160.490938 379.912487 177.859799 C 380.587943 189.392723 377.345755 200.230893 370.185924 206.761585 C 353.839896 210.096406 337.493867 213.431228 321.147839 216.627098 C 319.526745 212.18067 318.040742 207.59529 316.419648 203.148862 C 317.905651 196.201317 323.71457 192.727545 335.737682 197.173973 C 336.68332 188.142165 329.52349 184.529442 321.147839 181.472522 C 318.310924 179.249308 314.663464 177.442946 315.203828 169.800647 C 313.717826 152.292835 341.816784 171.051205 342.086966 171.051205 C 342.357148 171.051205 341.141328 153.404442 328.172578 149.93067 C 321.147839 147.429554 318.175833 139.926205 320.877656 134.507121 C 326.551484 123.252098 337.088594 135.340826 345.194062 135.757679 C 344.92388 128.532232 342.762422 123.252098 336.548229 117.416161 C 333.170951 115.331897 324.795299 113.664487 324.525117 110.190714 C 324.390026 105.466384 332.360404 103.382121 343.302786 104.771629 C 341.006237 98.101987 333.711315 93.794509 323.579479 90.598638 C 321.553112 87.124866 319.526745 83.651094 317.500378 80.177321 C 314.663464 74.897188 313.447643 74.758237 320.067109 64.892723 C 325.876029 61.002098 333.711315 55.583013 339.655326 51.831339 C 337.493867 51.553438 335.332409 51.275536 333.170951 50.997634 C 333.981497 43.911138 334.116589 41.410022 335.737682 29.599196 C 329.388398 38.353103 321.553112 36.685692 314.393281 40.298415 C 314.393281 40.298415 293.994518 43.911138 287.510143 52.526094 C 287.239961 52.526094 236.310599 50.024978 236.310599 50.024978 C 225.503307 51.414487 216.317109 54.610357 214.425833 65.031674 C 189.704154 67.53279 163.766654 65.448527 144.853893 89.070179 C 157.687552 88.514375 168.900117 85.457455 183.35487 87.263817 C 183.35487 87.263817 195.783255 87.541719 198.214896 100.603103 C 198.485078 101.019955 202.402721 101.158906 202.402721 101.158906 C 204.023815 102.270513 205.644909 103.521071 207.130911 104.771629 C 207.806367 103.104219 208.346732 101.436808 209.022188 99.769397 C 210.373099 100.742054 211.72401 101.71471 213.210013 102.687366 C 213.615286 100.881004 214.02056 99.074643 214.425833 97.12933 C 215.911836 98.101987 217.262747 99.074643 218.613659 100.047299 C 218.74875 97.824085 218.883841 95.739821 218.883841 93.516607 C 220.775117 94.767165 222.531302 96.156674 224.422578 97.407232 L 224.422578 88.792277 C 224.422578 88.792277 244.551159 88.792277 250.765352 101.575759 C 251.035534 101.853661 194.02707 112.136027 139.044974 107.411696 C 144.313529 104.771629 149.717174 102.131563 154.985729 99.491496 C 134.857148 95.46192 116.079479 91.710246 98.382539 77.815156 C 105.002005 102.965268 139.585339 132.561808 146.610078 132.422857 C 146.610078 132.700759 139.855521 120.195179 139.855521 120.195179 C 159.713919 121.028884 179.707409 121.862589 199.565807 122.696295 C 201.727266 129.365938 200.781628 136.730335 206.185273 142.566272 C 206.185273 142.566272 202.807995 153.543393 210.102917 157.989821 C 210.373099 158.545625 218.883841 135.757679 218.883841 135.757679 C 218.883841 135.757679 221.450573 141.871518 224.152396 145.901094 C 227.934948 126.447969 249.144258 123.252098 249.144258 123.252098 C 249.144258 123.252098 253.602266 133.395513 253.602266 133.673415 C 246.982799 134.646071 238.74224 148.263259 243.200247 155.627656 C 238.74224 155.766607 230.771862 168.827991 233.203503 175.914487 C 229.556042 179.666161 220.234753 184.668393 222.531302 200.230893 C 215.23638 201.759353 210.913464 215.237589 213.210013 229.41058 C 201.862357 239.970848 204.56418 259.423973 214.696016 267.344174 C 210.50819 270.956897 207.941458 273.874866 207.941458 278.460246 C 203.888724 277.070737 200.241263 278.321295 198.485078 280.822411 C 193.621797 275.820179 186.597057 271.512701 181.598685 276.09808 C 180.247773 270.262143 172.547578 263.731451 164.036836 264.426205 C 164.577201 258.173415 161.335013 250.392165 152.418997 247.752098 C 152.418997 247.752098 150.527721 218.294509 141.611706 208.845848 C 140.801159 203.565714 142.15207 199.952991 149.446992 195.506563 C 156.877005 191.615938 158.363008 188.559018 157.822643 177.581897 C 160.794648 170.078549 162.956107 162.575201 153.905 157.434018 C 154.175182 166.326875 151.473359 170.495402 147.96099 174.386027 C 143.638073 173.830223 142.15207 178.832455 139.315156 180.916719 C 135.262422 175.497634 147.825898 167.16058 138.504609 155.071853 C 137.964245 154.516049 132.020234 139.370402 117.430391 139.787254 C 124.320039 143.81683 127.292044 150.625424 127.292044 157.71192 C 122.698945 170.773304 120.402396 180.777768 124.995495 195.784464 C 118.916393 186.752656 115.404023 169.383795 110.405651 166.326875 C 105.947643 165.49317 103.786185 154.932902 86.629609 157.989821 C 94.059622 159.935134 96.356172 165.632121 98.382539 170.773304 C 93.78944 173.135469 96.08599 179.249308 99.463268 183.556786 C 98.787813 193.56125 104.731823 199.397188 113.78293 203.148862 C 112.296927 216.766049 110.810924 230.383237 109.324922 244.000424 C 105.812552 243.583571 100.273815 257.478661 98.112357 257.895513 C 94.599987 260.118728 88.520885 265.954665 95.545625 267.622076 C 93.384167 274.986473 91.492891 279.571853 80.280326 281.100312 C 80.280326 281.100312 92.168346 288.047857 101.894909 276.09808 C 112.432018 275.959129 108.919648 263.453549 114.053112 257.895513 C 114.053112 257.617612 116.890026 255.81125 121.077852 244.834129 C 122.834036 254.699643 132.965872 284.713036 155.796276 299.719732 C 175.654674 320.979219 191.865612 340.988147 191.730521 369.334129 C 199.565807 362.108683 204.158906 350.71471 207.671276 339.87654 C 218.478568 336.124866 233.878958 334.596406 247.658255 335.291161 C 245.226615 340.154442 242.659883 345.017723 246.037161 348.213594 C 236.44569 351.548415 234.284232 358.49596 238.201875 365.443504 C 228.070039 372.252098 227.394583 376.698527 227.259492 388.0925 C 208.481823 412.131004 196.999076 411.297299 178.491589 405.044509 C 172.412487 401.431786 162.956107 396.290603 158.63319 399.069621 C 150.662813 393.789487 139.180065 392.955781 137.153698 405.044509 C 143.232799 400.042277 146.745169 401.014933 151.608451 405.878214 C 150.662813 408.240379 149.852266 410.741496 153.364635 412.131004 C 151.878633 413.798415 150.257539 415.604777 148.771536 417.272187 C 140.125703 416.021629 128.507865 416.021629 125.535859 428.52721 C 129.858776 424.914487 139.72043 423.94183 147.690807 427.554554 C 149.17681 427.971406 150.662813 428.52721 152.148815 429.083013 C 152.283906 431.028326 152.418997 433.112589 152.68918 435.057902 C 152.68918 435.057902 140.93625 433.25154 137.694063 452.287812 C 148.771536 440.615937 156.471732 443.672857 156.471732 443.672857 C 160.794648 449.925647 176.33013 448.952991 187.542695 438.670625 C 203.348359 429.916719 207.941458 442.56125 218.073294 434.224196 C 226.584036 427.971406 236.580781 432.139933 243.47043 439.50433 C 251.305716 442.422299 259.546276 444.923415 266.165742 439.50433 C 266.165742 439.50433 274.13612 434.363147 281.971406 442.56125 C 282.106497 433.390491 275.622122 428.388259 266.706107 428.249308 L 264.004284 425.609241 C 255.628633 423.94183 246.307344 424.636585 239.012422 420.468058 C 242.389701 407.406674 247.523164 395.595848 257.249727 385.452433 C 269.272839 372.53 278.188854 366.555112 293.454154 346.824085 C 292.913789 357.940156 301.559622 370.445737 306.01763 381.83971 C 306.01763 381.83971 315.203828 367.249866 316.419648 355.43904 C 316.689831 355.43904 327.902396 349.603103 332.630586 344.739821 C 342.762422 350.992612 359.108451 339.737589 369.64556 330.427879 C 376.265026 332.928996 381.128307 332.790045 388.693411 330.427879 C 382.61431 342.794509 392.205781 354.327433 407.471081 359.190714 C 408.957083 370.028884 420.034557 372.391049 436.785859 372.391049 C 437.461315 378.921741 447.45806 379.755446 447.45806 379.755446 C 441.108776 382.673415 437.866589 385.591384 438.00168 392.261027 C 431.652396 392.261027 426.654023 393.928437 425.03293 401.431786 C 416.116914 401.570737 407.065807 402.265491 399.500703 406.572969 C 391.260143 405.322411 381.263398 401.987589 374.914115 395.456897 C 371.536836 392.677879 370.726289 388.648304 365.052461 387.119844 C 361.405 382.673415 356.946992 383.646071 355.596081 387.814598 C 351.813529 384.896629 337.628958 383.507121 335.197318 396.985357 C 341.816784 392.122076 347.760794 390.315714 351.94862 396.151652 C 349.65207 400.320179 357.487357 402.682344 364.241914 404.349754 C 368.970104 404.627656 377.480846 408.935134 380.182669 416.299531 C 373.968477 418.105893 364.647187 417.550089 358.432995 412.825759 C 353.029349 408.240379 345.599336 408.796183 341.546602 411.853103 C 335.872773 408.240379 322.49875 415.048973 321.958385 425.887143 C 327.632214 420.74596 332.765677 418.244844 337.899141 421.440714 C 335.332409 422.135469 336.278047 422.413371 336.548229 423.802879 C 340.871146 426.303996 345.194062 428.944062 349.65207 431.445179 C 343.167695 433.112589 337.223685 435.613705 339.925508 447.563482 C 339.925508 447.563482 345.194062 437.281116 356.946992 441.03279 C 357.217174 440.754888 358.568086 444.784464 361.810273 442.144397 C 366.943737 436.30846 378.561576 433.668393 388.693411 432.695737 C 396.933971 431.72308 405.03944 429.360915 412.199271 433.946295 C 418.548555 430.750424 425.573294 428.52721 432.868216 433.807344 C 441.378958 436.447411 447.593151 446.312924 458.400443 441.866496 C 463.804089 438.114821 470.423555 437.975871 477.178112 445.479219 C 477.313203 435.891607 470.153372 432.695737 460.021536 430.611473 C 457.589896 429.221964 455.293346 427.832455 452.996797 426.442946 C 446.377331 425.47029 439.892956 426.581897 433.408581 423.524978 C 467.451549 414.771071 491.362682 395.734799 508.249076 368.500424 C 513.652721 370.445737 519.056367 372.391049 524.460013 374.197411 C 528.242565 374.475312 528.512747 375.864821 536.348034 378.226987 C 536.753307 366.555112 531.754935 354.605335 510.815807 353.354777 L 483.392305 342.93346 C 477.583385 336.819621 475.016654 323.758237 482.446667 316.115937 C 489.606497 309.585246 490.957409 310.418951 495.685599 302.49875 C 501.494518 301.942946 507.033255 308.056786 512.436901 308.056786 C 515.003633 315.560134 529.728568 322.229777 539.049857 320.006562 C 544.858776 325.147746 556.071341 328.065714 568.229544 323.897187 C 575.119193 330.011027 584.170299 332.512143 594.8425 327.787812 C 597.679414 330.56683 603.623424 332.928996 610.513073 331.400536 C 611.053437 331.400536 614.025443 339.042835 621.455456 341.682902 C 618.213268 344.878772 620.239635 358.634911 623.616914 363.498192 C 621.320365 368.917277 620.509818 374.475312 622.536185 380.033348 C 614.971081 384.896629 613.349987 388.509353 616.727266 396.707455 C 606.865612 412.547857 594.977591 414.354219 583.900117 409.490937 C 579.847383 406.989821 575.92974 404.488705 571.877005 401.848638 C 567.68918 397.680112 563.366263 393.511585 559.178437 389.343058 C 557.016979 387.397746 552.42388 386.702991 551.478242 391.288371 C 551.478242 391.288371 535.132214 387.536696 533.781302 401.431786 C 540.670951 394.762143 550.262422 400.59808 550.262422 400.875982 C 550.262422 401.153884 547.965872 402.682344 549.722057 405.322411 C 550.127331 405.044509 561.745169 409.629888 572.012096 414.076317 C 577.550833 416.16058 578.766654 416.855335 581.333385 418.244844 C 578.631562 416.994286 575.389375 415.604777 572.012096 414.076317 C 565.662812 411.714152 559.583711 409.768839 557.827526 410.324643 C 552.018607 409.768839 545.804414 409.074085 542.9675 413.381562 C 536.618216 416.021629 526.891654 418.244844 527.296927 429.777768 C 531.484753 422.969174 537.293672 423.247076 544.723685 423.802879 C 544.588594 424.358683 544.453503 424.914487 544.18332 425.47029 C 552.288789 429.083013 550.802786 424.358683 558.232799 423.663929 C 564.582083 423.108125 573.498099 425.331339 578.091198 426.99875 C 572.282279 428.666161 564.17681 427.971406 560.394258 432.139933 C 559.718802 433.529442 557.287161 432.973638 558.367891 436.30846 C 558.367891 436.30846 546.750052 436.030558 543.778047 452.009911 C 555.395885 444.506562 564.311901 444.784464 564.582083 444.784464 C 564.852266 444.784464 568.229544 445.479219 568.229544 445.479219 C 568.229544 445.479219 582.279023 436.030558 582.549206 436.030558 C 582.819388 436.030558 596.193411 430.194621 602.407604 436.864263 C 607.81125 439.50433 613.620169 439.643281 619.158906 436.30846 C 630.101289 431.584129 640.368216 431.306228 650.500052 437.975871 L 659.551159 443.394955 C 660.90207 442.56125 662.117891 441.588594 663.468802 440.754888 C 663.468802 440.754888 673.735729 437.83692 681.435924 447.007679 C 678.193737 431.167277 666.846081 430.611473 666.846081 430.611473 C 666.035534 429.777768 665.089896 429.083013 664.279349 428.249308 C 658.875703 426.165045 653.472057 424.080781 648.068411 421.996518 C 645.771862 416.16058 639.827852 411.575201 645.771862 404.488705 C 651.715872 374.614263 658.875703 352.104219 647.257865 321.812924 C 658.200247 326.537254 666.305716 340.988147 679.949922 335.846964 C 679.949922 323.758237 635.099661 300.553437 600.78651 282.072969 C 656.984427 279.155 724.394909 237.747634 698.457409 185.085246 C 702.510143 172.440714 706.562878 159.796183 710.750703 147.012701 C 716.424531 158.684576 728.177461 167.577433 738.579479 171.329107 C 729.933646 154.793951 725.070365 104.354777 729.933646 69.478103 C 707.373424 97.407232 682.381562 122.279442 655.903698 147.429554 C 669.007539 150.486473 680.355195 148.263259 692.918672 146.734799 C 689.406302 154.099196 685.893932 161.324643 682.381562 168.68904 C 647.93332 148.541161 607.405977 163.686808 607.135794 190.643281 C 608.351615 222.046183 647.122773 226.492612 669.547904 215.515491 C 665.089896 244.139375 599.300508 233.579107 599.300508 233.579107 C 575.92974 225.519955 553.639701 226.909464 529.053112 227.187366 C 534.186576 211.346964 562.555716 197.451875 584.170299 203.565714 C 553.909883 169.661696 588.493216 127.559576 630.101289 114.637143 C 584.710664 99.630446 623.752005 65.031674 657.659883 40.298415 C 657.659883 40.298415 559.988984 81.427879 551.20806 81.288929 C 523.379284 79.204665 530.944388 46.273304 541.481497 28.62654 Z M 234.959688 68.088594 C 237.256237 68.088594 239.95806 68.366496 242.119518 68.783348 C 246.442435 69.894955 251.846081 70.58971 251.71099 71.840268 C 249.684622 75.31404 244.68625 79.343616 239.822969 79.065714 C 234.824596 78.926763 231.987682 75.869844 230.366589 68.505446 C 230.906953 68.227545 232.663138 68.088594 234.959688 68.088594 Z M 646.042044 183.973638 C 652.526419 183.834688 660.226615 186.613705 667.656628 194.533906 C 664.009167 204.955223 632.803112 210.235357 630.776745 194.811808 C 630.101289 190.226429 636.720755 184.112589 646.042044 183.973638 Z M 646.042044 183.973638 " transform="matrix(0.0289157,0,0,0.0281124,0.0497349,0.0272691)"/>
<path style="fill:none;stroke-width:1.8;stroke-linecap:butt;stroke-linejoin:round;stroke:rgb(0%,0%,0%);stroke-opacity:1;stroke-miterlimit:4;" d="M 267.246471 158.684576 L 271.974661 165.632121 M 271.83957 165.910022 C 271.83957 165.910022 271.83957 175.080781 273.730846 175.358683 M 269.40793 180.221964 C 269.678112 180.499866 274.406302 188.420067 274.406302 188.420067 M 260.762096 190.643281 C 261.032279 190.643281 266.841198 197.312924 266.841198 197.312924 M 271.83957 192.171741 C 271.83957 192.310692 277.378307 202.732009 277.783581 202.732009 M 264.67974 199.258237 C 264.67974 199.258237 266.571016 211.763817 268.327201 211.346964 M 256.574271 222.185134 L 262.113008 230.522188 M 266.841198 213.292277 C 266.841198 213.292277 269.813203 225.103103 272.244844 223.991496 M 274.541393 206.06683 C 274.811576 206.344732 280.215221 214.125982 281.701224 213.014375 M 280.350312 216.071295 L 285.618867 226.353661 M 271.83957 223.991496 C 271.974661 224.408348 276.027396 236.219174 276.027396 236.219174 M 261.842826 230.244286 C 261.842826 230.244286 265.760469 243.444621 269.137747 241.221406 M 260.356823 247.752098 C 260.356823 247.752098 260.627005 254.560692 264.004284 254.977545 M 266.435924 244.278326 C 266.435924 244.417277 269.813203 249.141607 269.813203 249.141607 M 276.297578 236.080223 L 279.134492 240.526652 M 285.348685 227.604219 L 289.671602 233.023304 M 265.355195 165.910022 C 265.625378 171.74596 274.811576 163.825759 278.459036 158.962478 M 261.437552 186.057902 C 261.437552 186.057902 271.569388 178.971406 279.269583 168.272188 M 258.195365 203.148862 C 265.355195 201.203549 278.459036 185.363147 281.025768 176.887143 M 256.709362 218.850313 C 258.600638 219.684018 283.052135 202.037254 283.727591 189.114821 M 256.033906 232.328549 C 256.033906 232.189598 278.323945 226.631563 287.645234 202.176205 M 254.818086 250.947969 C 254.818086 250.947969 290.482148 229.549531 292.508516 213.84808 M 533.240937 286.93625 C 533.240937 286.93625 530.944388 305.277768 512.436901 308.195737 M 539.049857 319.867612 C 539.320039 319.58971 556.746797 300.414487 552.153698 294.578549 M 579.577201 301.248192 C 579.577201 301.248192 579.307018 314.726429 568.364635 323.897187 M 601.326875 305.138817 C 601.326875 305.138817 601.732148 321.396071 594.8425 327.787812 M 621.320365 314.865379 C 621.320365 314.865379 613.620169 330.011027 610.783255 331.539487 M 620.915091 341.682902 C 620.915091 341.682902 631.182018 344.184018 634.424206 337.514375 M 623.616914 363.637143 C 623.616914 363.637143 633.073294 365.304554 637.26112 356.272746 M 622.536185 380.589152 C 622.536185 380.589152 630.23638 386.980893 635.369844 378.504888 M 513.382539 256.089152 C 513.382539 256.089152 512.571992 288.881562 558.638073 295.551205 C 610.107799 309.724196 634.424206 302.220848 637.531302 359.885469 C 635.504935 381.83971 632.803112 406.71192 616.862357 397.263259 M 464.614635 286.241496 C 464.614635 286.241496 471.909557 299.44183 480.690482 298.608125 C 492.30832 295.134353 496.631237 302.220848 496.631237 302.220848 M 433.138398 299.44183 C 433.138398 299.44183 452.456432 308.890491 469.072643 293.605893 M 435.299857 285.824643 C 436.920951 308.473638 409.227266 321.396071 398.284883 319.172857 M 436.515677 372.53 C 436.785859 372.53 451.645885 363.637143 448.67388 357.384353 M 407.065807 359.329665 C 407.471081 358.912812 432.057669 356.411696 436.515677 347.65779 M 395.58306 323.063482 C 395.58306 322.924531 430.436576 323.202433 432.868216 329.594174 M 441.919323 302.359799 C 441.919323 302.359799 407.876354 360.580223 470.828828 360.580223 M 405.985078 301.526094 C 405.985078 301.526094 398.690156 323.341384 388.288138 330.56683 M 369.780651 294.022746 C 369.780651 294.022746 382.479219 318.478103 369.780651 330.56683 M 336.818411 300.97029 C 337.088594 301.387143 340.871146 335.569062 332.360404 345.295625 M 320.472383 301.942946 C 320.472383 301.942946 321.823294 323.758237 315.338919 331.539487 C 308.854544 339.181786 316.824922 355.300089 316.824922 355.300089 M 238.336966 365.860357 C 238.336966 365.860357 242.930065 373.919509 249.41444 371.140491 M 246.172253 348.074643 C 246.172253 348.074643 256.574271 352.660022 259.951549 350.853661 M 257.384818 311.530558 C 257.384818 311.530558 242.119518 315.838036 247.928438 333.901652 C 256.709362 340.988147 265.355195 339.87654 265.355195 339.87654 M 227.259492 388.370402 C 226.98931 388.370402 228.880586 402.543393 238.877331 391.844174 C 245.766979 377.393281 267.516654 336.68067 272.515026 322.646629 M 282.511771 315.976987 C 282.511771 315.976987 271.974661 307.778884 272.515026 319.172857 C 272.244844 326.259353 275.622122 328.065714 275.622122 328.065714 C 276.162487 333.206897 280.620495 340.571295 284.267956 333.901652 C 285.753958 327.37096 283.187227 324.591942 283.187227 324.591942 M 289.266328 312.920067 C 279.809948 312.364263 274.541393 333.206897 292.913789 320.145513 M 299.127982 305.833571 C 299.127982 305.833571 296.831432 309.168393 293.183971 305.694621 C 291.157604 302.220848 284.267956 321.11817 296.291068 321.812924 C 298.452526 316.254888 305.207083 314.726429 305.207083 314.726429 M 310.74582 296.801763 C 310.74582 296.801763 305.342174 299.44183 303.450898 299.024978 C 296.966523 300.414487 298.317435 315.560134 306.422904 314.726429 C 309.259818 311.530558 312.231823 306.945179 312.231823 306.945179 M 259.951549 277.070737 C 259.816458 277.070737 238.607148 310.418951 271.83957 319.172857 M 528.512747 227.048415 C 528.512747 227.048415 515.543997 238.025536 527.702201 255.672299 C 487.58013 254.977545 466.100638 273.596964 464.344453 286.102545 C 413.28 282.350871 422.601289 297.496518 405.985078 302.359799 C 383.83013 283.87933 351.273164 294.161696 353.434622 312.781116 C 338.574596 291.799531 315.744193 301.942946 312.907279 307.084129 C 310.070365 312.364263 311.151094 281.517165 311.151094 281.517165 C 311.151094 281.517165 296.291068 288.186808 286.024141 300.414487 C 286.159232 292.355335 286.024141 278.877098 286.024141 274.569621 C 273.595755 277.209687 261.572643 277.348638 248.738984 276.931786 M 215.101289 267.483125 C 215.101289 267.483125 233.608776 277.904442 256.43918 263.870402 M 213.615286 230.244286 C 213.615286 230.244286 228.070039 243.166719 255.223359 239.137143 M 222.666393 200.508795 C 222.666393 200.508795 225.908581 211.069063 256.979544 211.763817 M 233.203503 176.192388 C 233.203503 176.192388 244.821341 190.365379 260.627005 188.281116 M 243.200247 155.766607 C 243.200247 155.766607 247.658255 163.547857 264.949922 164.798415 M 253.332083 133.117612 C 253.332083 133.117612 262.38319 142.983125 272.650117 141.315714 M 307.098359 52.665045 C 307.098359 52.665045 311.151094 48.635469 317.77056 50.580781 M 304.261445 73.78558 C 304.261445 73.78558 291.697969 73.368728 292.643607 68.366496 C 293.454154 62.80846 305.747448 58.917835 305.747448 58.917835 C 305.747448 58.917835 321.958385 48.357567 324.390026 44.883795 M 251.035534 101.853661 L 266.841198 132.006004 L 274.406302 120.750982 L 278.323945 128.532232 L 284.80832 117.138259 L 296.020885 124.224754 L 291.697969 110.468616 L 301.019258 109.773862 C 301.019258 109.773862 298.587617 103.104219 290.211966 101.853661 C 292.373424 100.047299 300.208711 94.906116 300.208711 94.906116 C 300.208711 94.906116 295.750703 89.764933 288.861055 89.625982 C 291.022513 87.124866 294.129609 81.149978 293.994518 81.149978 C 293.724336 81.149978 287.10487 79.482567 287.10487 79.482567 C 287.10487 79.482567 302.910534 84.62375 315.068737 77.537254 M 284.80832 53.081897 C 285.078503 53.359799 283.997773 59.334688 280.620495 62.80846 M 223.882214 69.756004 C 223.882214 69.756004 233.608776 67.115938 240.903698 68.644397 C 248.19862 70.033906 257.925182 72.673973 257.925182 72.673973 C 257.925182 72.673973 269.543021 71.145513 273.325573 68.366496 M 199.565807 76.286696 C 199.565807 76.286696 198.349987 80.872076 197.809622 84.067946 C 197.809622 86.291161 190.784883 89.070179 190.784883 89.070179 M 204.023815 66.699085 C 204.023815 66.699085 210.238008 74.480335 210.50819 78.926763 C 210.778372 83.373192 205.915091 86.708013 205.915091 86.708013 M 139.72043 119.778326 L 133.371146 109.357009 L 139.044974 107.411696 M 256.304089 264.148304 C 251.170625 257.478661 260.221732 154.932902 279.404674 128.25433 C 272.650117 176.47029 294.805065 225.797857 300.478893 225.519955 M 198.079805 99.491496 C 198.079805 99.491496 206.725638 102.965268 224.827852 88.514375 M 249.279349 123.252098 L 262.248099 123.391049 M 651.715872 42.938482 C 651.715872 42.938482 435.570039 143.955781 432.462943 149.235915 C 468.937552 138.258795 623.752005 112.413929 627.534557 114.637143 C 618.348359 116.860357 430.571667 159.935134 421.790742 170.356451 C 468.66737 168.827991 566.743542 185.502098 582.279023 201.481451 C 548.91151 193.978103 449.079154 179.110357 418.548555 185.78 C 440.973685 191.060134 526.48638 246.50154 526.48638 255.255446 C 513.652721 243.027768 410.713268 200.508795 406.660534 204.677321 C 430.166393 218.850313 463.533906 271.37375 463.533906 284.296183 C 456.644258 273.319062 397.204154 209.401652 393.691784 213.431228 C 400.041068 222.324085 412.469453 297.635469 406.120169 301.248192 C 406.120169 292.077433 383.019583 226.075759 381.128307 224.130446 C 376.400117 225.381004 346.950247 304.721964 352.759167 312.086362 C 348.976615 285.685692 353.434622 230.522188 360.729544 232.606451 C 347.760794 234.551763 306.557995 288.881562 311.016003 297.357567 C 312.231823 283.740379 314.123099 274.847522 337.358776 229.827433 C 311.556367 231.355893 258.060273 265.12096 249.009167 277.070737 C 256.168997 255.672299 301.559622 219.406116 321.28293 216.905 M 414.630911 138.119844 C 437.461315 125.475312 508.113984 99.630446 555.260794 80.594174 M 370.321016 206.483683 C 370.321016 206.483683 385.856497 206.205781 401.391979 163.96471 C 416.79237 106.022188 538.509492 41.548973 540.941133 29.460246 M 164.307018 264.565156 C 164.307018 264.565156 160.659557 272.346406 156.201549 274.569621 M 181.733776 276.237031 C 181.733776 276.237031 176.870495 285.685692 175.789766 290.132121 M 198.485078 280.822411 C 198.485078 280.822411 202.537813 293.605893 199.160534 299.719732 M 151.878633 247.613147 C 139.72043 254.560692 158.903372 298.052321 216.992565 302.359799 M 207.671276 278.738147 C 207.671276 278.738147 206.050182 286.519397 216.992565 302.081897 C 213.885469 319.450759 230.231497 333.067946 236.580781 335.291161 M 202.943086 122.279442 C 202.943086 122.140491 204.699271 117.694063 204.699271 117.694063 L 206.725638 122.835246 L 209.967826 122.696295 L 211.994193 117.555112 L 213.750378 122.696295 L 216.992565 122.696295 L 218.883841 116.999308 L 221.855846 122.418393 L 224.422578 122.557344 L 226.313854 115.887701 L 230.366589 120.612031 L 231.852591 120.056228 L 233.203503 113.525536 L 237.256237 118.110915 L 238.336966 117.416161 L 240.228242 110.885469 L 243.605521 115.74875 L 245.226615 115.192946 L 246.847708 109.773862 L 249.954805 114.776094 M 199.430716 122.835246 L 223.612031 122.557344 C 231.447318 122.418393 244.145885 111.719174 258.330456 115.053996 M 148.231172 174.802879 C 148.231172 174.802879 152.283906 183.556786 157.822643 178.554554 M 138.909883 180.638817 C 138.909883 180.638817 131.074596 201.481451 140.395885 206.483683 M 127.697318 157.434018 C 127.697318 157.434018 127.697318 162.43625 137.964245 154.793951 M 95.950898 267.344174 C 95.950898 267.344174 104.191458 269.84529 102.840547 276.09808 M 99.057995 171.329107 C 99.057995 171.329107 104.191458 173.691272 109.05474 166.187924 M 153.364635 411.992054 C 161.335013 411.575201 163.091198 415.187924 170.38612 415.187924 C 178.761771 415.465826 186.86724 411.992054 197.53944 409.213036 M 266.300833 428.52721 C 266.165742 428.52721 262.518281 436.030558 265.625378 439.921183 M 152.148815 429.221964 C 152.148815 429.221964 164.847383 418.661696 171.60194 425.192388 C 177.951224 427.415603 181.598685 426.99875 181.598685 426.99875 M 158.903372 399.347522 C 158.903372 399.347522 162.010469 407.406674 151.608451 406.295067 M 148.366263 417.827991 C 148.366263 417.827991 155.12082 421.996518 147.555716 427.554554 M 152.418997 435.196853 C 152.418997 435.196853 161.605195 436.586362 156.201549 443.811808 M 447.187878 379.755446 C 447.187878 379.755446 471.909557 382.256562 472.990286 384.201875 C 475.827201 381.144955 497.982148 363.22029 470.828828 360.719174 C 466.235729 379.338594 447.593151 380.033348 447.187878 379.755446 Z M 438.271862 392.122076 C 447.593151 399.486473 443.810599 403.932902 472.855195 384.479777 M 425.03293 401.431786 C 425.03293 401.431786 438.677135 416.021629 448.67388 398.235915 M 398.960339 406.71192 L 380.452852 416.299531 M 347.22043 430.05567 C 347.22043 430.05567 358.432995 420.329107 363.701549 425.47029 C 368.970104 430.611473 391.260143 421.023862 391.260143 421.023862 M 355.596081 387.953549 C 355.596081 387.953549 359.378633 395.734799 351.94862 396.707455 M 340.871146 412.131004 C 340.871146 412.131004 344.788789 419.356451 337.223685 421.301763 M 349.516979 431.72308 C 349.516979 431.72308 361.269909 432.278884 357.082083 441.171741 M 458.805716 430.194621 C 458.805716 430.194621 452.456432 435.613705 457.049531 441.727545 M 551.748424 391.288371 C 551.748424 391.288371 559.178437 394.901094 550.397513 401.014933 M 542.9675 413.798415 C 542.9675 413.798415 548.506237 419.634353 544.858776 424.497634 M 558.502982 436.169509 C 558.502982 436.169509 566.203177 438.253772 565.257539 444.645513 M 666.170625 430.472522 C 666.170625 430.472522 659.68625 435.196853 663.19862 441.310692 M 552.018607 243.30567 C 567.418997 241.499308 589.438854 275.681228 600.651419 282.350871 M 667.92681 194.950759 C 667.92681 194.950759 675.762096 201.620402 668.872448 218.155558 M 682.381562 168.68904 C 684.543021 170.356451 692.918672 174.94183 698.457409 185.224196 M 703.725964 117.555112 C 703.725964 117.694063 692.918672 146.734799 692.918672 146.734799 M 715.884167 116.165603 C 715.884167 116.165603 713.722708 142.010469 710.615612 147.290603 M 667.656628 194.533906 C 664.009167 204.955223 632.803112 210.235357 630.776745 194.811808 C 629.696016 187.030558 649.284232 174.94183 667.656628 194.533906 Z M 667.656628 194.533906 " transform="matrix(0.0289157,0,0,0.0281124,0.0497349,0.0272691)"/>
<path style="fill-rule:nonzero;fill:rgb(0%,0%,0%);fill-opacity:1;stroke-width:1.8;stroke-linecap:butt;stroke-linejoin:round;stroke:rgb(0%,0%,0%);stroke-opacity:1;stroke-miterlimit:4;" d="M 234.824596 68.227545 L 246.712617 70.450759 C 246.712617 70.450759 238.336966 81.705781 234.824596 68.227545 Z M 234.824596 68.227545 " transform="matrix(0.0289157,0,0,0.0281124,0.0497349,0.0272691)"/>
</g>
</svg>
