<?xml version="1.0" encoding="utf-8"?>
<svg viewBox="0 0 24 12" width="24px" height="12px" xmlns="http://www.w3.org/2000/svg">
  <defs/>
  <path d="M 0 0 L 0 12 L 24 12 L 24 0 L 0 0 Z" fill="#012169" style=""/>
  <path d="M 2.683 0 L 12 4.658 L 21.32 0 L 24 0 L 24 1.343 L 14.683 6 L 24 10.659 L 24 12 L 21.32 12 L 12 7.342 L 2.683 12 L 0 12 L 0 10.659 L 9.317 6 L 0 1.343 L 0 0 L 2.683 0 Z" style="fill: rgb(255, 255, 255);"/>
  <path d="M 22.201 0 L 24 0 L 12.006 6.005 L 12.006 6.901 L 1.798 12 L 0 12 L 12.006 6.005 L 12.006 5.107 L 22.201 0 Z M 12.006 6.005 L 10.207 6.005 L 0 0.9 L 0 0 L 12.006 6.005 Z M 24 11.08 L 24 12 L 12.006 6.005 L 13.796 6.005 L 24 11.08 Z" style="fill: rgb(201, 16, 46);"/>
  <path d="M 14 0 L 14 4 L 24 4 L 24 8 L 14 8 L 14 12 L 10 12 L 10 8 L 0 8 L 0 4 L 10 4 L 10 0 L 14 0 Z" style="fill: rgb(255, 255, 255);"/>
  <path d="M 13.2 0 L 13.2 4.8 L 24 4.8 L 24 7.2 L 13.2 7.2 L 13.2 12 L 10.8 12 L 10.8 7.2 L 0 7.2 L 0 4.8 L 10.8 4.8 L 10.8 0 L 13.2 0 Z" style="fill: rgb(200, 16, 46);"/>
</svg>