<?xml version="1.0" encoding="UTF-8"?>
<svg xmlns="http://www.w3.org/2000/svg" xmlns:xlink="http://www.w3.org/1999/xlink" width="24px" height="24px" viewBox="0 0 24 14" version="1.1">
<g id="surface1">
<rect x="0" y="0" width="24" height="14" style="fill:rgb(80.784314%,6.666667%,14.901961%);fill-opacity:1;stroke:none;"/>
<path style=" stroke:none;fill-rule:nonzero;fill:rgb(0%,47.843137%,36.862745%);fill-opacity:1;" d="M 2.015625 1.960938 L 21.984375 1.960938 L 21.984375 12.039062 L 2.015625 12.039062 Z M 2.015625 1.960938 "/>
<path style=" stroke:none;fill-rule:nonzero;fill:rgb(98.823529%,81.960784%,8.627451%);fill-opacity:1;" d="M 2.015625 1.960938 L 21.984375 1.960938 L 2.015625 12.039062 L 21.984375 12.039062 Z M 2.015625 1.960938 "/>
<path style=" stroke:none;fill-rule:nonzero;fill:rgb(80.784314%,6.666667%,14.901961%);fill-opacity:1;" d="M 13.726562 7 C 13.726562 7.929688 12.953125 8.679688 12 8.679688 C 11.046875 8.679688 10.273438 7.929688 10.273438 7 C 10.273438 6.070312 11.046875 5.320312 12 5.320312 C 12.953125 5.320312 13.726562 6.070312 13.726562 7 Z M 13.726562 7 "/>
<path style=" stroke:none;fill-rule:nonzero;fill:rgb(80.784314%,6.666667%,14.901961%);fill-opacity:1;" d="M 3.25 7.019531 C 3.46875 7.410156 3.890625 7.835938 4.257812 7.988281 C 4.261719 7.589844 4.117188 7.078125 3.917969 6.671875 Z M 3.25 7.019531 "/>
<path style=" stroke:none;fill-rule:nonzero;fill:rgb(98.823529%,81.960784%,8.627451%);fill-opacity:1;" d="M 2.886719 5.675781 C 3.199219 6.3125 2.074219 7.828125 3.949219 8.179688 C 3.71875 7.875 3.566406 7.367188 3.625 6.960938 C 4.019531 7.105469 4.433594 7.53125 4.601562 7.859375 C 5.089844 6.125 3.339844 6.230469 2.886719 5.675781 Z M 7.199219 12.109375 L 6.648438 13.757812 L 8.089844 12.738281 L 6.308594 12.738281 L 7.75 13.757812 Z M 12 12.109375 L 11.449219 13.757812 L 12.890625 12.738281 L 11.109375 12.738281 L 12.550781 13.757812 Z M 16.800781 12.109375 L 16.25 13.757812 L 17.691406 12.738281 L 15.910156 12.738281 L 17.351562 13.757812 Z M 16.800781 0.0703125 L 16.25 1.714844 L 17.691406 0.699219 L 15.910156 0.699219 L 17.351562 1.714844 Z M 12 0.0703125 L 11.449219 1.714844 L 12.890625 0.699219 L 11.109375 0.699219 L 12.550781 1.714844 Z M 7.199219 0.0703125 L 6.648438 1.714844 L 8.089844 0.699219 L 6.308594 0.699219 L 7.75 1.714844 Z M 12 5.460938 L 11.070312 8.246094 L 13.507812 6.523438 L 10.492188 6.523438 L 12.929688 8.246094 Z M 12 5.460938 "/>
</g>
</svg>
