<?xml version="1.0" encoding="utf-8"?>
<svg viewBox="0 0 24 16" width="24px" height="16px" xmlns="http://www.w3.org/2000/svg" xmlns:bx="https://boxy-svg.com">
  <path fill="#fff" d="M 0 0 L 24 0 L 24 16 L 0 16 L 0 0 Z" style=""/>
  <path d="M 10.4 0 L 10.4 6.4 L 0 6.4 L 0 9.6 L 10.4 9.6 L 10.4 16 L 13.6 16 L 13.6 9.6 L 24 9.6 L 24 6.4 L 13.6 6.4 L 13.6 0 L 10.4 0 Z" fill="red" style=""/>
  <path d="M 4.614 4.709 C 4.687 4.339 4.729 3.945 4.748 3.566 C 4.369 3.585 3.975 3.627 3.605 3.7 C 3.635 3.461 3.638 3.309 3.638 3.153 L 3.638 3.153 C 3.638 2.997 3.635 2.846 3.605 2.606 C 3.975 2.68 4.369 2.721 4.748 2.741 C 4.729 2.362 4.687 1.968 4.614 1.598 C 4.853 1.628 5.005 1.631 5.161 1.63 L 5.161 1.63 C 5.316 1.631 5.468 1.628 5.707 1.598 C 5.634 1.968 5.593 2.362 5.573 2.741 C 5.952 2.721 6.346 2.68 6.716 2.606 C 6.686 2.846 6.683 2.997 6.684 3.153 L 6.684 3.153 C 6.683 3.309 6.686 3.461 6.716 3.7 C 6.346 3.627 5.952 3.585 5.573 3.566 C 5.593 3.945 5.634 4.339 5.707 4.709 C 5.468 4.678 5.316 4.676 5.161 4.676 L 5.161 4.676 C 5.005 4.676 4.853 4.678 4.614 4.709 Z" style="fill: rgb(255, 0, 0);"/>
  <path d="M 18.293 4.709 C 18.366 4.339 18.407 3.945 18.427 3.566 C 18.048 3.585 17.654 3.627 17.284 3.7 C 17.314 3.461 17.317 3.309 17.316 3.153 L 17.316 3.153 C 17.317 2.997 17.314 2.846 17.284 2.606 C 17.654 2.68 18.048 2.721 18.427 2.741 C 18.407 2.362 18.366 1.968 18.293 1.598 C 18.532 1.628 18.684 1.631 18.839 1.63 L 18.84 1.63 C 18.995 1.631 19.147 1.628 19.386 1.598 C 19.313 1.968 19.272 2.362 19.252 2.741 C 19.631 2.721 20.025 2.68 20.395 2.606 C 20.365 2.846 20.362 2.997 20.363 3.153 L 20.363 3.153 C 20.362 3.309 20.365 3.461 20.395 3.7 C 20.025 3.627 19.631 3.585 19.252 3.566 C 19.272 3.945 19.313 4.339 19.386 4.709 C 19.147 4.678 18.995 4.676 18.84 4.676 L 18.839 4.676 C 18.684 4.676 18.532 4.678 18.293 4.709 Z" style="fill: rgb(255, 0, 0);"/>
  <path d="M 18.293 14.402 C 18.366 14.032 18.407 13.638 18.427 13.259 C 18.048 13.279 17.654 13.32 17.284 13.393 C 17.314 13.154 17.317 13.002 17.316 12.847 L 17.316 12.847 C 17.317 12.691 17.314 12.539 17.284 12.3 C 17.654 12.373 18.048 12.415 18.427 12.434 C 18.407 12.055 18.366 11.661 18.293 11.291 C 18.532 11.322 18.684 11.324 18.839 11.324 L 18.84 11.324 C 18.995 11.324 19.147 11.322 19.386 11.291 C 19.313 11.661 19.272 12.055 19.252 12.434 C 19.631 12.415 20.025 12.373 20.395 12.3 C 20.365 12.539 20.362 12.691 20.363 12.847 L 20.363 12.847 C 20.362 13.002 20.365 13.154 20.395 13.393 C 20.025 13.32 19.631 13.279 19.252 13.259 C 19.272 13.638 19.313 14.032 19.386 14.402 C 19.147 14.372 18.995 14.369 18.84 14.37 L 18.839 14.37 C 18.684 14.369 18.532 14.372 18.293 14.402 Z" style="fill: rgb(255, 0, 0);"/>
  <path d="M 4.614 14.402 C 4.687 14.032 4.729 13.638 4.748 13.259 C 4.369 13.279 3.975 13.32 3.605 13.393 C 3.635 13.154 3.638 13.002 3.638 12.847 L 3.638 12.847 C 3.638 12.691 3.635 12.539 3.605 12.3 C 3.975 12.373 4.369 12.415 4.748 12.434 C 4.729 12.055 4.687 11.661 4.614 11.291 C 4.853 11.322 5.005 11.324 5.161 11.324 L 5.161 11.324 C 5.316 11.324 5.468 11.322 5.707 11.291 C 5.634 11.661 5.593 12.055 5.573 12.434 C 5.952 12.415 6.346 12.373 6.716 12.3 C 6.686 12.539 6.683 12.691 6.684 12.847 L 6.684 12.847 C 6.683 13.002 6.686 13.154 6.716 13.393 C 6.346 13.32 5.952 13.279 5.573 13.259 C 5.593 13.638 5.634 14.032 5.707 14.402 C 5.468 14.372 5.316 14.369 5.161 14.37 L 5.161 14.37 C 5.005 14.369 4.853 14.372 4.614 14.402 Z" style="fill: rgb(255, 0, 0);"/>
</svg>