<?xml version="1.0" encoding="UTF-8"?>
<svg xmlns="http://www.w3.org/2000/svg" xmlns:xlink="http://www.w3.org/1999/xlink" width="24px" height="24px" viewBox="0 0 24 12" version="1.1">
<g id="surface1">
<rect x="0" y="0" width="24" height="12" style="fill:rgb(85.490196%,0%,4.705882%);fill-opacity:1;stroke:none;"/>
<path style=" stroke:none;fill-rule:nonzero;fill:rgb(100%,100%,100%);fill-opacity:1;" d="M 0 0 L 24 0 L 24 8.039062 L 0 8.039062 Z M 0 0 "/>
<path style=" stroke:none;fill-rule:nonzero;fill:rgb(0%,0%,0%);fill-opacity:1;" d="M 9.214844 5.453125 L 12.214844 5.453125 L 12.214844 7.515625 L 9.214844 7.515625 Z M 9.214844 5.453125 "/>
<path style="fill-rule:nonzero;fill:rgb(85.490196%,0%,4.705882%);fill-opacity:1;stroke-width:1;stroke-linecap:square;stroke-linejoin:miter;stroke:rgb(0%,0%,0%);stroke-opacity:1;stroke-miterlimit:4;" d="M 229.833333 153.833333 L 190.75 153.833333 L 182.083333 159.583333 L 182.083333 165.583333 L 229.833333 165.583333 " transform="matrix(0.046875,0,0,0.046875,0,0)"/>
<path style="fill-rule:nonzero;fill:rgb(85.490196%,0%,4.705882%);fill-opacity:1;stroke-width:1;stroke-linecap:square;stroke-linejoin:miter;stroke:rgb(0%,0%,0%);stroke-opacity:1;stroke-miterlimit:4;" d="M 213.5 128.583333 C 219.083333 128.583333 223.666667 133.25 223.666667 139.083333 L 223.666667 153.833333 L 231 153.833333 L 231 97.833333 L 190.75 97.833333 L 190.75 153.833333 L 203.25 153.833333 L 203.25 139.083333 C 203.25 133.5 207.75 128.583333 213.5 128.583333 Z M 213.5 128.583333 " transform="matrix(0.046875,0,0,0.046875,0,0)"/>
<path style=" stroke:none;fill-rule:nonzero;fill:rgb(0%,0%,0%);fill-opacity:1;" d="M 9.585938 2.8125 L 10.457031 2.8125 L 10.457031 4.402344 L 9.585938 4.402344 Z M 9.585938 2.8125 "/>
<path style="fill-rule:nonzero;fill:rgb(85.490196%,0%,4.705882%);fill-opacity:1;stroke-width:1;stroke-linecap:square;stroke-linejoin:miter;stroke:rgb(0%,0%,0%);stroke-opacity:1;stroke-miterlimit:4;" d="M 223 88.666667 L 206.75 88.666667 L 206.75 82.916667 L 194.916667 82.916667 L 194.916667 88.666667 L 186.833333 88.666667 L 186.833333 82.916667 L 182 82.916667 L 182 93.333333 L 223 93.333333 M 186.833333 93.333333 L 221.833333 93.333333 L 221.833333 97.833333 L 186.833333 97.833333 Z M 186.833333 93.333333 " transform="matrix(0.046875,0,0,0.046875,0,0)"/>
<path style="fill-rule:nonzero;fill:rgb(85.490196%,0%,4.705882%);fill-opacity:1;stroke-width:1;stroke-linecap:square;stroke-linejoin:miter;stroke:rgb(0%,0%,0%);stroke-opacity:1;stroke-miterlimit:4;" d="M 200.75 47.666667 L 200.75 82.916667 L 206.75 82.916667 L 206.75 73.25 C 206.75 69.583333 209.333333 66.583333 212.916667 66.416667 C 213.083333 66.416667 213.166667 66.416667 213.25 66.416667 C 217 66.416667 220.083333 69.5 220.083333 73.25 L 220.083333 82.916667 L 225.833333 82.916667 L 225.833333 47.666667 Z M 200.75 47.666667 " transform="matrix(0.046875,0,0,0.046875,0,0)"/>
<path style="fill-rule:nonzero;fill:rgb(85.490196%,0%,4.705882%);fill-opacity:1;stroke-width:1;stroke-linecap:square;stroke-linejoin:miter;stroke:rgb(0%,0%,0%);stroke-opacity:1;stroke-miterlimit:4;" d="M 198.5 42.833333 L 198.5 47.666667 L 227.75 47.666667 L 227.75 42.833333 Z M 198.5 42.833333 " transform="matrix(0.046875,0,0,0.046875,0,0)"/>
<path style="fill-rule:nonzero;fill:rgb(85.490196%,0%,4.705882%);fill-opacity:1;stroke-width:1;stroke-linecap:square;stroke-linejoin:miter;stroke:rgb(0%,0%,0%);stroke-opacity:1;stroke-miterlimit:4;" d="M 194.75 33.666667 L 194.75 42.833333 L 229.833333 42.833333 L 229.833333 33.666667 L 224.5 33.666667 L 224.5 38.333333 L 217.916667 38.333333 L 217.916667 33.666667 L 208 33.666667 L 208 38.333333 L 201.416667 38.333333 L 201.416667 33.666667 Z M 194.75 33.666667 " transform="matrix(0.046875,0,0,0.046875,0,0)"/>
<path style="fill:none;stroke-width:1;stroke-linecap:square;stroke-linejoin:miter;stroke:rgb(0%,0%,0%);stroke-opacity:1;stroke-miterlimit:4;" d="M 182.083333 159.583333 L 230 159.583333 " transform="matrix(0.046875,0,0,0.046875,0,0)"/>
<path style="fill-rule:nonzero;fill:rgb(85.490196%,0%,4.705882%);fill-opacity:1;stroke-width:1;stroke-linecap:square;stroke-linejoin:miter;stroke:rgb(0%,0%,0%);stroke-opacity:1;stroke-miterlimit:4;" d="M 261 156.833333 L 228.583333 156.833333 L 218.75 161.5 L 218.75 168.583333 L 261 168.583333 " transform="matrix(0.046875,0,0,0.046875,0,0)"/>
<path style="fill:none;stroke-width:1;stroke-linecap:butt;stroke-linejoin:miter;stroke:rgb(0%,0%,0%);stroke-opacity:1;stroke-miterlimit:4;" d="M 218.75 161.5 L 262 161.5 " transform="matrix(0.046875,0,0,0.046875,0,0)"/>
<path style=" stroke:none;fill-rule:nonzero;fill:rgb(0%,0%,0%);fill-opacity:1;" d="M 14.785156 5.453125 L 11.785156 5.453125 L 11.785156 7.515625 L 14.785156 7.515625 Z M 14.785156 5.453125 "/>
<path style="fill-rule:nonzero;fill:rgb(85.490196%,0%,4.705882%);fill-opacity:1;stroke-width:1;stroke-linecap:square;stroke-linejoin:miter;stroke:rgb(0%,0%,0%);stroke-opacity:1;stroke-miterlimit:4;" d="M 229.833333 153.833333 L 190.75 153.833333 L 182.083333 159.583333 L 182.083333 165.583333 L 229.833333 165.583333 " transform="matrix(-0.046875,0,0,0.046875,24,0)"/>
<path style="fill-rule:nonzero;fill:rgb(85.490196%,0%,4.705882%);fill-opacity:1;stroke-width:1;stroke-linecap:square;stroke-linejoin:miter;stroke:rgb(0%,0%,0%);stroke-opacity:1;stroke-miterlimit:4;" d="M 213.5 128.583333 C 219.083333 128.583333 223.666667 133.25 223.666667 139.083333 L 223.666667 153.833333 L 231 153.833333 L 231 97.833333 L 190.75 97.833333 L 190.75 153.833333 L 203.25 153.833333 L 203.25 139.083333 C 203.25 133.5 207.75 128.583333 213.5 128.583333 Z M 213.5 128.583333 " transform="matrix(-0.046875,0,0,0.046875,24,0)"/>
<path style=" stroke:none;fill-rule:nonzero;fill:rgb(0%,0%,0%);fill-opacity:1;" d="M 14.414062 2.8125 L 13.542969 2.8125 L 13.542969 4.402344 L 14.414062 4.402344 Z M 14.414062 2.8125 "/>
<path style="fill-rule:nonzero;fill:rgb(85.490196%,0%,4.705882%);fill-opacity:1;stroke-width:1;stroke-linecap:square;stroke-linejoin:miter;stroke:rgb(0%,0%,0%);stroke-opacity:1;stroke-miterlimit:4;" d="M 223 88.666667 L 206.75 88.666667 L 206.75 82.916667 L 194.916667 82.916667 L 194.916667 88.666667 L 186.833333 88.666667 L 186.833333 82.916667 L 182 82.916667 L 182 93.333333 L 223 93.333333 M 186.833333 93.333333 L 221.833333 93.333333 L 221.833333 97.833333 L 186.833333 97.833333 Z M 186.833333 93.333333 " transform="matrix(-0.046875,0,0,0.046875,24,0)"/>
<path style="fill-rule:nonzero;fill:rgb(85.490196%,0%,4.705882%);fill-opacity:1;stroke-width:1;stroke-linecap:square;stroke-linejoin:miter;stroke:rgb(0%,0%,0%);stroke-opacity:1;stroke-miterlimit:4;" d="M 200.75 47.666667 L 200.75 82.916667 L 206.75 82.916667 L 206.75 73.25 C 206.75 69.583333 209.333333 66.583333 212.916667 66.416667 C 213.083333 66.416667 213.166667 66.416667 213.25 66.416667 C 217 66.416667 220.083333 69.5 220.083333 73.25 L 220.083333 82.916667 L 225.833333 82.916667 L 225.833333 47.666667 Z M 200.75 47.666667 " transform="matrix(-0.046875,0,0,0.046875,24,0)"/>
<path style="fill-rule:nonzero;fill:rgb(85.490196%,0%,4.705882%);fill-opacity:1;stroke-width:1;stroke-linecap:square;stroke-linejoin:miter;stroke:rgb(0%,0%,0%);stroke-opacity:1;stroke-miterlimit:4;" d="M 198.5 42.833333 L 198.5 47.666667 L 227.75 47.666667 L 227.75 42.833333 Z M 198.5 42.833333 " transform="matrix(-0.046875,0,0,0.046875,24,0)"/>
<path style="fill-rule:nonzero;fill:rgb(85.490196%,0%,4.705882%);fill-opacity:1;stroke-width:1;stroke-linecap:square;stroke-linejoin:miter;stroke:rgb(0%,0%,0%);stroke-opacity:1;stroke-miterlimit:4;" d="M 194.75 33.666667 L 194.75 42.833333 L 229.833333 42.833333 L 229.833333 33.666667 L 224.5 33.666667 L 224.5 38.333333 L 217.916667 38.333333 L 217.916667 33.666667 L 208 33.666667 L 208 38.333333 L 201.416667 38.333333 L 201.416667 33.666667 Z M 194.75 33.666667 " transform="matrix(-0.046875,0,0,0.046875,24,0)"/>
<path style="fill:none;stroke-width:1;stroke-linecap:square;stroke-linejoin:miter;stroke:rgb(0%,0%,0%);stroke-opacity:1;stroke-miterlimit:4;" d="M 182.083333 159.583333 L 230 159.583333 " transform="matrix(-0.046875,0,0,0.046875,24,0)"/>
<path style="fill-rule:nonzero;fill:rgb(85.490196%,0%,4.705882%);fill-opacity:1;stroke-width:1;stroke-linecap:square;stroke-linejoin:miter;stroke:rgb(0%,0%,0%);stroke-opacity:1;stroke-miterlimit:4;" d="M 261 156.833333 L 228.583333 156.833333 L 218.75 161.5 L 218.75 168.583333 L 261 168.583333 " transform="matrix(-0.046875,0,0,0.046875,24,0)"/>
<path style="fill:none;stroke-width:1;stroke-linecap:butt;stroke-linejoin:miter;stroke:rgb(0%,0%,0%);stroke-opacity:1;stroke-miterlimit:4;" d="M 218.75 161.5 L 262 161.5 " transform="matrix(-0.046875,0,0,0.046875,24,0)"/>
<path style="fill-rule:nonzero;fill:rgb(97.254902%,84.705882%,5.490196%);fill-opacity:1;stroke-width:0.768;stroke-linecap:round;stroke-linejoin:miter;stroke:rgb(0%,0%,0%);stroke-opacity:1;stroke-miterlimit:4;" d="M 273.333333 150 C 270.666667 150.916667 268.25 152.416667 265.833333 153.75 C 262.75 155.583333 259.75 157.583333 256.916667 159.916667 C 255.916667 160.5 255 161.25 254.25 162.166667 C 253.25 163 252.166667 164.25 252.333333 165.666667 C 252.416667 166.333333 253.25 164.916667 253.75 164.833333 C 254.75 164.333333 255.833333 164.166667 256.916667 164.333333 C 258.166667 163 259.833333 162.166667 261.25 161 C 264.25 158.75 267.5 156.833333 270.75 155 C 271.916667 154.416667 273.083333 153.833333 274.333333 153.416667 C 274 152.25 273.666667 151.166667 273.333333 150 Z M 273.333333 150 " transform="matrix(0.046875,0,0,0.046875,0,0)"/>
<path style="fill:none;stroke-width:1;stroke-linecap:round;stroke-linejoin:miter;stroke:rgb(0%,0%,0%);stroke-opacity:1;stroke-miterlimit:4;" d="M 260.416667 157.416667 L 260.416667 161.333333 " transform="matrix(0.046875,0,0,0.046875,0,0)"/>
<path style="fill:none;stroke-width:1;stroke-linecap:round;stroke-linejoin:miter;stroke:rgb(0%,0%,0%);stroke-opacity:1;stroke-miterlimit:4;" d="M 262.833333 155.666667 L 262.833333 159.583333 " transform="matrix(0.046875,0,0,0.046875,0,0)"/>
<path style="fill:none;stroke-width:1;stroke-linecap:round;stroke-linejoin:miter;stroke:rgb(0%,0%,0%);stroke-opacity:1;stroke-miterlimit:4;" d="M 265.25 154.166667 L 265.25 158 " transform="matrix(0.046875,0,0,0.046875,0,0)"/>
<path style="fill:none;stroke-width:1;stroke-linecap:round;stroke-linejoin:miter;stroke:rgb(0%,0%,0%);stroke-opacity:1;stroke-miterlimit:4;" d="M 267.666667 152.666667 L 267.666667 156.666667 " transform="matrix(0.046875,0,0,0.046875,0,0)"/>
<path style="fill-rule:nonzero;fill:rgb(97.254902%,84.705882%,5.490196%);fill-opacity:1;stroke-width:0.768;stroke-linecap:round;stroke-linejoin:miter;stroke:rgb(0%,0%,0%);stroke-opacity:1;stroke-miterlimit:4;" d="M 238.916667 150.166667 C 238.5 151.25 238.083333 152.333333 237.666667 153.5 C 243.25 155.583333 248.5 158.333333 253.5 161.5 C 255.166667 162.666667 257 163.833333 258.333333 165.333333 C 258.583333 166.166667 257.75 166.833333 257 166.583333 C 256.25 166.333333 255.5 166.083333 254.75 166.583333 C 253.666667 167.083333 252.666667 168.75 254.333333 169.333333 C 256.666667 170.833333 260.416667 170.166667 261.5 167.5 C 262.083333 166.083333 262.166667 164.25 261 163.083333 C 258.916667 160.75 256.25 159.083333 253.583333 157.416667 C 248.916667 154.583333 244 152.083333 238.916667 150.166667 Z M 238.916667 150.166667 " transform="matrix(0.046875,0,0,0.046875,0,0)"/>
<path style="fill-rule:nonzero;fill:rgb(97.254902%,84.705882%,5.490196%);fill-opacity:1;stroke-width:1;stroke-linecap:round;stroke-linejoin:miter;stroke:rgb(0%,0%,0%);stroke-opacity:1;stroke-miterlimit:4;" d="M 254.083333 158 L 253.75 161.333333 " transform="matrix(0.046875,0,0,0.046875,0,0)"/>
<path style="fill-rule:nonzero;fill:rgb(97.254902%,84.705882%,5.490196%);fill-opacity:1;stroke-width:1;stroke-linecap:round;stroke-linejoin:miter;stroke:rgb(0%,0%,0%);stroke-opacity:1;stroke-miterlimit:4;" d="M 256.833333 159.75 L 256 163 " transform="matrix(0.046875,0,0,0.046875,0,0)"/>
<path style="fill-rule:nonzero;fill:rgb(97.254902%,84.705882%,5.490196%);fill-opacity:1;stroke-width:1;stroke-linecap:round;stroke-linejoin:miter;stroke:rgb(0%,0%,0%);stroke-opacity:1;stroke-miterlimit:4;" d="M 259.833333 162 L 258 164.583333 " transform="matrix(0.046875,0,0,0.046875,0,0)"/>
<path style="fill-rule:nonzero;fill:rgb(97.254902%,84.705882%,5.490196%);fill-opacity:1;stroke-width:1;stroke-linecap:round;stroke-linejoin:miter;stroke:rgb(0%,0%,0%);stroke-opacity:1;stroke-miterlimit:4;" d="M 260.75 168.166667 L 258.083333 166.75 " transform="matrix(0.046875,0,0,0.046875,0,0)"/>
<path style="fill-rule:nonzero;fill:rgb(97.254902%,84.705882%,5.490196%);fill-opacity:1;stroke-width:1;stroke-linecap:round;stroke-linejoin:miter;stroke:rgb(0%,0%,0%);stroke-opacity:1;stroke-miterlimit:4;" d="M 261.5 165.416667 L 258.5 165.75 " transform="matrix(0.046875,0,0,0.046875,0,0)"/>
<path style="fill-rule:nonzero;fill:rgb(97.254902%,84.705882%,5.490196%);fill-opacity:1;stroke-width:1;stroke-linecap:round;stroke-linejoin:miter;stroke:rgb(0%,0%,0%);stroke-opacity:1;stroke-miterlimit:4;" d="M 257.666667 169.75 L 257.5 167.166667 " transform="matrix(0.046875,0,0,0.046875,0,0)"/>
<path style="fill-rule:nonzero;fill:rgb(97.254902%,84.705882%,5.490196%);fill-opacity:1;stroke-width:1;stroke-linecap:round;stroke-linejoin:miter;stroke:rgb(0%,0%,0%);stroke-opacity:1;stroke-miterlimit:4;" d="M 256.583333 166.75 L 254.083333 168.583333 " transform="matrix(0.046875,0,0,0.046875,0,0)"/>
<path style="fill:none;stroke-width:1;stroke-linecap:round;stroke-linejoin:miter;stroke:rgb(0%,0%,0%);stroke-opacity:1;stroke-miterlimit:4;" d="M 244.666667 152.916667 L 244.666667 156.083333 " transform="matrix(0.046875,0,0,0.046875,0,0)"/>
<path style="fill:none;stroke-width:1;stroke-linecap:round;stroke-linejoin:miter;stroke:rgb(0%,0%,0%);stroke-opacity:1;stroke-miterlimit:4;" d="M 251 156.25 L 251 159.75 " transform="matrix(0.046875,0,0,0.046875,0,0)"/>
<path style="fill:none;stroke-width:1;stroke-linecap:round;stroke-linejoin:miter;stroke:rgb(0%,0%,0%);stroke-opacity:1;stroke-miterlimit:4;" d="M 247.833333 154.583333 L 247.833333 157.916667 " transform="matrix(0.046875,0,0,0.046875,0,0)"/>
<path style="fill-rule:nonzero;fill:rgb(97.254902%,84.705882%,5.490196%);fill-opacity:1;stroke-width:1;stroke-linecap:butt;stroke-linejoin:miter;stroke:rgb(0%,0%,0%);stroke-opacity:1;stroke-miterlimit:4;" d="M 235.75 227.583333 L 235.75 235.583333 L 240.833333 235.583333 L 240.833333 231.583333 L 247.666667 231.583333 L 247.666667 235.583333 L 253.083333 235.583333 L 253.083333 227.583333 Z M 235.75 238.666667 L 235.75 246.666667 L 253.083333 246.666667 L 253.083333 238.666667 L 247.666667 238.666667 L 247.666667 242.666667 L 240.833333 242.666667 L 240.833333 238.666667 Z M 235.75 238.666667 " transform="matrix(0.046875,0,0,0.046875,0,0)"/>
<path style="fill-rule:nonzero;fill:rgb(97.254902%,84.705882%,5.490196%);fill-opacity:1;stroke-width:1;stroke-linecap:butt;stroke-linejoin:miter;stroke:rgb(0%,0%,0%);stroke-opacity:1;stroke-miterlimit:4;" d="M 253.083333 193.666667 L 258.083333 193.666667 L 258.083333 251.75 L 253.083333 251.75 Z M 253.083333 193.666667 " transform="matrix(0.046875,0,0,0.046875,0,0)"/>
<path style="fill-rule:nonzero;fill:rgb(97.254902%,84.705882%,5.490196%);fill-opacity:1;stroke-width:1;stroke-linecap:butt;stroke-linejoin:miter;stroke:rgb(0%,0%,0%);stroke-opacity:1;stroke-miterlimit:4;" d="M 253.083333 198.666667 L 258.083333 198.666667 L 258.083333 248.75 L 253.083333 248.75 Z M 253.083333 198.666667 " transform="matrix(0.046875,0,0,0.046875,0,0)"/>
<path style="fill-rule:nonzero;fill:rgb(97.254902%,84.705882%,5.490196%);fill-opacity:1;stroke-width:1.024;stroke-linecap:butt;stroke-linejoin:miter;stroke:rgb(0%,0%,0%);stroke-opacity:1;stroke-miterlimit:4;" d="M 255.583333 179.416667 L 266.166667 185.583333 L 255.583333 191.75 L 244.916667 185.583333 Z M 241.333333 183.333333 L 238.583333 183.333333 L 238.583333 187.833333 L 241.333333 187.833333 L 255.583333 196.083333 L 269.75 187.833333 L 272.583333 187.833333 L 272.583333 183.333333 L 269.75 183.333333 L 255.583333 175.166667 Z M 241.333333 183.333333 " transform="matrix(0.046875,0,0,0.046875,0,0)"/>
<path style="fill-rule:nonzero;fill:rgb(97.254902%,84.705882%,5.490196%);fill-opacity:1;stroke-width:1.024;stroke-linecap:butt;stroke-linejoin:miter;stroke:rgb(0%,0%,0%);stroke-opacity:1;stroke-miterlimit:4;" d="M 255.333333 164.25 C 252.916667 164.583333 251.083333 167 251.25 169.416667 C 251.25 173.166667 251.25 176.916667 251.25 180.666667 C 251.416667 183 253.5 185.166667 255.916667 185.25 C 257.916667 185.416667 259.916667 184.25 260.75 182.416667 C 260.166667 182.083333 259.583333 181.75 259 181.416667 C 258.583333 182.583333 257.333333 183.333333 256.083333 183.166667 C 254.416667 183.25 253.083333 181.666667 253.25 180.083333 C 253.25 176.333333 253.25 172.666667 253.25 168.916667 C 253.333333 167.416667 254.833333 166.166667 256.333333 166.333333 C 256.916667 166.166667 257.833333 167 258.166667 166.25 C 258.75 165.416667 257.75 164.75 257.25 164.333333 C 256.583333 164.25 256 164.333333 255.333333 164.25 Z M 261.166667 168.166667 C 260.75 168.916667 259.916667 169.416667 259.25 169.75 L 259.25 177.25 C 259.916667 177.666667 260.583333 178.083333 261.25 178.416667 C 261.25 175.25 261.25 172 261.25 168.833333 C 261.166667 168.666667 261.25 168.333333 261.166667 168.166667 Z M 261.166667 168.166667 " transform="matrix(0.046875,0,0,0.046875,0,0)"/>
<path style=" stroke:none;fill-rule:nonzero;fill:rgb(0%,0%,0%);fill-opacity:1;" d="M 11.289062 1.796875 L 12.664062 1.796875 L 12.664062 4.292969 L 11.289062 4.292969 Z M 11.289062 1.796875 "/>
<path style="fill-rule:nonzero;fill:rgb(85.490196%,0%,4.705882%);fill-opacity:1;stroke-width:1;stroke-linecap:butt;stroke-linejoin:miter;stroke:rgb(0%,0%,0%);stroke-opacity:1;stroke-miterlimit:4;" d="M 238.75 38.333333 L 238.75 82.916667 L 248.083333 82.916667 L 248.083333 69.75 C 248.083333 66.666667 250 62.416667 256 62.416667 C 262 62.416667 263.916667 66.666667 263.916667 69.75 L 263.916667 82.916667 L 273.25 82.916667 L 273.25 38.333333 Z M 254.583333 43.333333 L 257.416667 43.333333 L 257.416667 58.666667 L 254.583333 58.666667 Z M 246.333333 46.333333 L 249.25 46.333333 L 249.25 57.5 L 246.333333 57.5 Z M 262.75 46.333333 L 265.666667 46.333333 L 265.666667 57.5 L 262.75 57.5 Z M 262.75 46.333333 " transform="matrix(0.046875,0,0,0.046875,0,0)"/>
<path style="fill-rule:nonzero;fill:rgb(85.490196%,0%,4.705882%);fill-opacity:1;stroke-width:1;stroke-linecap:butt;stroke-linejoin:miter;stroke:rgb(0%,0%,0%);stroke-opacity:1;stroke-miterlimit:4;" d="M 235.583333 32 L 235.583333 38.333333 L 276.416667 38.333333 L 276.416667 32 Z M 235.583333 32 " transform="matrix(0.046875,0,0,0.046875,0,0)"/>
<path style="fill-rule:nonzero;fill:rgb(85.490196%,0%,4.705882%);fill-opacity:1;stroke-width:1;stroke-linecap:butt;stroke-linejoin:miter;stroke:rgb(0%,0%,0%);stroke-opacity:1;stroke-miterlimit:4;" d="M 231.75 24.583333 L 231.75 32 L 280.25 32 L 280.25 24.583333 L 274.166667 24.583333 L 274.166667 28.666667 L 267.25 28.666667 L 267.25 24.583333 L 259.416667 24.583333 L 259.416667 28.666667 L 252.583333 28.666667 L 252.583333 24.583333 L 244.75 24.583333 L 244.75 28.666667 L 237.833333 28.666667 L 237.833333 24.583333 Z M 231.75 24.583333 " transform="matrix(0.046875,0,0,0.046875,0,0)"/>
<path style="fill-rule:nonzero;fill:rgb(85.490196%,0%,4.705882%);fill-opacity:1;stroke-width:1;stroke-linecap:butt;stroke-linejoin:miter;stroke:rgb(0%,0%,0%);stroke-opacity:1;stroke-miterlimit:4;" d="M 222.75 97.833333 L 222.75 102.416667 L 289.25 102.416667 L 289.25 97.833333 Z M 222.75 97.833333 " transform="matrix(0.046875,0,0,0.046875,0,0)"/>
<path style="fill-rule:nonzero;fill:rgb(85.490196%,0%,4.705882%);fill-opacity:1;stroke-width:1;stroke-linecap:butt;stroke-linejoin:miter;stroke:rgb(0%,0%,0%);stroke-opacity:1;stroke-miterlimit:4;" d="M 220 82.916667 L 220 97.833333 L 292 97.833333 L 292 82.916667 L 285.166667 82.916667 L 285.166667 88.666667 L 276.083333 88.666667 L 276.083333 82.916667 L 263.916667 82.916667 L 263.916667 88.666667 L 248.083333 88.666667 L 248.083333 82.916667 L 235.916667 82.916667 L 235.916667 88.666667 L 226.833333 88.666667 L 226.833333 82.916667 Z M 220 82.916667 " transform="matrix(0.046875,0,0,0.046875,0,0)"/>
<path style="fill-rule:nonzero;fill:rgb(85.490196%,0%,4.705882%);fill-opacity:1;stroke-width:1;stroke-linecap:butt;stroke-linejoin:round;stroke:rgb(0%,0%,0%);stroke-opacity:1;stroke-miterlimit:4;" d="M 228.666667 102.416667 L 228.666667 156.75 L 241.5 156.75 L 241.5 136.416667 C 241.5 126.833333 247.916667 122.333333 256 122.333333 C 263.75 122.333333 270.5 126.833333 270.5 136.416667 L 270.5 156.75 L 283.333333 156.75 L 283.333333 102.416667 Z M 228.666667 102.416667 " transform="matrix(0.046875,0,0,0.046875,0,0)"/>
</g>
</svg>
