<?xml version="1.0" encoding="UTF-8"?>
<svg xmlns="http://www.w3.org/2000/svg" xmlns:xlink="http://www.w3.org/1999/xlink" width="24px" height="24px" viewBox="0 0 24 16" version="1.1">
<g id="surface1">
<rect x="0" y="0" width="24" height="16" style="fill:rgb(89.019608%,12.941176%,9.411765%);fill-opacity:1;stroke:none;"/>
<path style=" stroke:none;fill-rule:nonzero;fill:rgb(100%,100%,100%);fill-opacity:1;" d="M 0 0 L 24 0 L 24 10.667969 L 0 10.667969 Z M 0 0 "/>
<path style=" stroke:none;fill-rule:nonzero;fill:rgb(24.313725%,60.392157%,0%);fill-opacity:1;" d="M 0 0 L 24 0 L 24 5.332031 L 0 5.332031 Z M 0 0 "/>
<path style=" stroke:none;fill-rule:nonzero;fill:rgb(0%,45.098039%,80.784314%);fill-opacity:1;" d="M 0 0 L 0 16 L 6 8 Z M 0 0 "/>
<path style="fill-rule:nonzero;fill:rgb(100%,100%,100%);fill-opacity:1;stroke-width:4.8;stroke-linecap:butt;stroke-linejoin:miter;stroke:rgb(0%,0%,0%);stroke-opacity:1;stroke-miterlimit:4;" d="M 1607.8125 958.59375 L 1991.015625 958.59375 L 1991.015625 1359.960938 C 1991.015625 1494.726562 1815.234375 1391.015625 1800 1463.085938 C 1774.21875 1389.257812 1608.984375 1495.898438 1608.984375 1351.757812 C 1608.984375 1211.71875 1607.8125 958.59375 1607.8125 958.59375 Z M 1607.8125 958.59375 " transform="matrix(0.00666667,0,0,0.00666667,0,0)"/>
<path style="fill-rule:nonzero;fill:rgb(45.098039%,27.058824%,16.862745%);fill-opacity:1;stroke-width:1;stroke-linecap:butt;stroke-linejoin:miter;stroke:rgb(0%,0%,0%);stroke-opacity:1;stroke-miterlimit:4;" d="M 1826.953125 1399.21875 C 1826.953125 1399.21875 1822.265625 1403.90625 1812.890625 1399.804688 C 1804.101562 1396.289062 1802.929688 1143.164062 1802.929688 1143.164062 C 1822.851562 1120.898438 1839.257812 1113.867188 1839.257812 1113.867188 C 1839.257812 1113.867188 1850.976562 1123.828125 1850.976562 1123.828125 C 1805.859375 1147.265625 1809.960938 1180.078125 1814.0625 1236.914062 C 1815.234375 1258.007812 1815.234375 1284.960938 1819.921875 1310.742188 C 1826.953125 1344.140625 1841.015625 1372.265625 1842.1875 1392.773438 C 1842.773438 1406.25 1826.953125 1399.21875 1826.953125 1399.21875 Z M 1826.953125 1399.21875 " transform="matrix(0.00666667,0,0,0.00666667,0,0)"/>
<path style="fill-rule:nonzero;fill:rgb(45.098039%,27.058824%,16.862745%);fill-opacity:1;stroke-width:1;stroke-linecap:butt;stroke-linejoin:miter;stroke:rgb(0%,0%,0%);stroke-opacity:1;stroke-miterlimit:4;" d="M 1795.898438 1108.007812 L 1814.0625 1108.007812 C 1798.828125 1252.734375 1811.71875 1338.867188 1811.71875 1381.054688 C 1811.71875 1395.117188 1819.921875 1399.804688 1818.75 1399.804688 C 1801.171875 1419.726562 1791.796875 1399.21875 1791.796875 1399.21875 Z M 1795.898438 1108.007812 " transform="matrix(0.00666667,0,0,0.00666667,0,0)"/>
<path style="fill-rule:nonzero;fill:rgb(63.921569%,40%,16.078431%);fill-opacity:1;stroke-width:1;stroke-linecap:butt;stroke-linejoin:miter;stroke:rgb(0%,0%,0%);stroke-opacity:1;stroke-miterlimit:4;" d="M 1767.773438 1399.21875 C 1750.78125 1406.835938 1749.023438 1391.015625 1750.195312 1389.257812 C 1787.109375 1314.257812 1802.929688 1149.023438 1768.945312 1130.859375 C 1768.945312 1130.859375 1771.289062 1115.039062 1771.289062 1115.039062 C 1784.179688 1119.140625 1795.898438 1136.132812 1795.898438 1136.132812 C 1801.171875 1321.289062 1795.898438 1396.875 1792.96875 1399.804688 C 1774.804688 1419.140625 1767.773438 1396.875 1767.1875 1395.117188 " transform="matrix(0.00666667,0,0,0.00666667,0,0)"/>
<path style="fill:none;stroke-width:1;stroke-linecap:butt;stroke-linejoin:miter;stroke:rgb(0%,0%,0%);stroke-opacity:1;stroke-miterlimit:4;" d="M 1767.1875 1396.289062 C 1764.257812 1379.882812 1792.96875 1338.867188 1791.210938 1296.09375 " transform="matrix(0.00666667,0,0,0.00666667,0,0)"/>
<path style="fill:none;stroke-width:1;stroke-linecap:butt;stroke-linejoin:miter;stroke:rgb(0%,0%,0%);stroke-opacity:1;stroke-miterlimit:4;" d="M 1815.820312 1331.25 C 1825.195312 1355.859375 1828.710938 1378.125 1826.953125 1399.21875 " transform="matrix(0.00666667,0,0,0.00666667,0,0)"/>
<path style="fill-rule:nonzero;fill:rgb(0%,60.392157%,23.137255%);fill-opacity:1;stroke-width:1;stroke-linecap:butt;stroke-linejoin:miter;stroke:rgb(0%,0%,0%);stroke-opacity:1;stroke-miterlimit:4;" d="M 1855.078125 1040.039062 C 1860.9375 1033.007812 1860.9375 1033.007812 1872.070312 1033.007812 C 1873.828125 1017.773438 1899.023438 1017.773438 1900.78125 1037.109375 C 1921.289062 1033.007812 1924.804688 1044.726562 1917.1875 1057.03125 C 1935.9375 1051.757812 1952.929688 1057.03125 1948.242188 1078.710938 C 1982.226562 1088.085938 1968.75 1112.109375 1954.101562 1116.796875 C 1951.757812 1132.03125 1938.28125 1136.71875 1918.945312 1130.859375 C 1894.921875 1147.851562 1880.859375 1141.992188 1869.726562 1125 C 1842.773438 1129.101562 1841.015625 1123.242188 1828.710938 1108.007812 C 1808.203125 1116.796875 1804.101562 1116.796875 1785.9375 1106.25 C 1784.765625 1119.726562 1780.078125 1116.210938 1771.289062 1115.039062 C 1771.875 1133.203125 1764.84375 1140.820312 1749.023438 1134.960938 C 1760.742188 1160.15625 1730.273438 1171.289062 1715.039062 1150.195312 C 1700.976562 1150.78125 1699.804688 1147.265625 1692.773438 1141.992188 C 1686.914062 1161.914062 1665.234375 1158.984375 1661.132812 1147.851562 C 1633.007812 1143.75 1635.9375 1129.101562 1658.789062 1127.929688 C 1661.132812 1112.109375 1675.195312 1115.039062 1683.984375 1116.796875 C 1685.15625 1106.835938 1691.015625 1109.179688 1696.289062 1110.9375 C 1692.773438 1103.90625 1695.117188 1099.804688 1703.90625 1098.046875 C 1691.015625 1081.054688 1699.21875 1075.195312 1712.109375 1068.75 C 1705.078125 1052.929688 1716.796875 1054.101562 1726.171875 1052.929688 C 1725 1035.9375 1730.273438 1033.007812 1747.851562 1031.25 C 1746.09375 1024.804688 1749.023438 1020.117188 1758.984375 1020.117188 C 1753.125 1003.125 1760.742188 999.023438 1778.90625 1001.953125 C 1781.835938 977.34375 1835.15625 989.0625 1831.054688 1023.046875 C 1846.289062 1024.804688 1850.976562 1027.734375 1855.078125 1040.039062 Z M 1855.078125 1040.039062 " transform="matrix(0.00666667,0,0,0.00666667,0,0)"/>
<path style="fill:none;stroke-width:1;stroke-linecap:butt;stroke-linejoin:miter;stroke:rgb(0%,0%,0%);stroke-opacity:1;stroke-miterlimit:4;" d="M 1747.851562 1031.25 C 1751.953125 1033.007812 1757.226562 1031.25 1757.8125 1041.796875 C 1766.015625 1027.734375 1775.976562 1035.9375 1775.976562 1051.757812 " transform="matrix(0.00666667,0,0,0.00666667,0,0)"/>
<path style="fill:none;stroke-width:1;stroke-linecap:butt;stroke-linejoin:miter;stroke:rgb(0%,0%,0%);stroke-opacity:1;stroke-miterlimit:4;" d="M 1831.054688 1023.046875 C 1826.953125 1028.90625 1811.71875 1028.90625 1814.0625 1044.726562 C 1808.789062 1038.28125 1798.828125 1035.9375 1794.726562 1042.96875 " transform="matrix(0.00666667,0,0,0.00666667,0,0)"/>
<path style="fill:none;stroke-width:1;stroke-linecap:butt;stroke-linejoin:miter;stroke:rgb(0%,0%,0%);stroke-opacity:1;stroke-miterlimit:4;" d="M 1855.078125 1040.039062 C 1855.078125 1044.140625 1853.90625 1055.859375 1849.804688 1061.71875 " transform="matrix(0.00666667,0,0,0.00666667,0,0)"/>
<path style="fill:none;stroke-width:1;stroke-linecap:butt;stroke-linejoin:miter;stroke:rgb(0%,0%,0%);stroke-opacity:1;stroke-miterlimit:4;" d="M 1917.1875 1057.03125 C 1917.773438 1058.203125 1903.125 1057.03125 1896.09375 1061.71875 " transform="matrix(0.00666667,0,0,0.00666667,0,0)"/>
<path style="fill:none;stroke-width:1;stroke-linecap:butt;stroke-linejoin:miter;stroke:rgb(0%,0%,0%);stroke-opacity:1;stroke-miterlimit:4;" d="M 1954.101562 1116.796875 C 1950 1115.039062 1941.796875 1109.765625 1935.9375 1117.96875 C 1935.9375 1113.867188 1935.9375 1102.734375 1924.804688 1102.734375 " transform="matrix(0.00666667,0,0,0.00666667,0,0)"/>
<path style="fill:none;stroke-width:1;stroke-linecap:butt;stroke-linejoin:miter;stroke:rgb(0%,0%,0%);stroke-opacity:1;stroke-miterlimit:4;" d="M 1918.945312 1130.859375 C 1918.945312 1120.898438 1917.1875 1117.96875 1914.84375 1115.039062 " transform="matrix(0.00666667,0,0,0.00666667,0,0)"/>
<path style="fill:none;stroke-width:1;stroke-linecap:butt;stroke-linejoin:miter;stroke:rgb(0%,0%,0%);stroke-opacity:1;stroke-miterlimit:4;" d="M 1886.132812 1116.796875 C 1877.929688 1110.9375 1869.726562 1119.726562 1869.726562 1125 " transform="matrix(0.00666667,0,0,0.00666667,0,0)"/>
<path style="fill:none;stroke-width:1;stroke-linecap:butt;stroke-linejoin:miter;stroke:rgb(0%,0%,0%);stroke-opacity:1;stroke-miterlimit:4;" d="M 1828.125 1108.007812 C 1828.125 1103.90625 1825.195312 1096.289062 1832.226562 1092.773438 " transform="matrix(0.00666667,0,0,0.00666667,0,0)"/>
<path style="fill:none;stroke-width:1;stroke-linecap:butt;stroke-linejoin:miter;stroke:rgb(0%,0%,0%);stroke-opacity:1;stroke-miterlimit:4;" d="M 1713.867188 1150.195312 C 1716.210938 1140.234375 1723.242188 1140.234375 1722.070312 1134.960938 C 1720.898438 1126.757812 1712.109375 1119.726562 1700.976562 1130.859375 " transform="matrix(0.00666667,0,0,0.00666667,0,0)"/>
<path style="fill:none;stroke-width:1;stroke-linecap:butt;stroke-linejoin:miter;stroke:rgb(0%,0%,0%);stroke-opacity:1;stroke-miterlimit:4;" d="M 1722.070312 1134.960938 C 1727.929688 1133.203125 1733.789062 1133.789062 1736.132812 1136.71875 " transform="matrix(0.00666667,0,0,0.00666667,0,0)"/>
<path style="fill:none;stroke-width:1;stroke-linecap:butt;stroke-linejoin:miter;stroke:rgb(0%,0%,0%);stroke-opacity:1;stroke-miterlimit:4;" d="M 1705.078125 1098.046875 C 1709.179688 1093.945312 1719.140625 1095.117188 1725 1098.046875 " transform="matrix(0.00666667,0,0,0.00666667,0,0)"/>
<path style="fill:none;stroke-width:1;stroke-linecap:butt;stroke-linejoin:miter;stroke:rgb(0%,0%,0%);stroke-opacity:1;stroke-miterlimit:4;" d="M 1725 1074.023438 C 1730.273438 1074.023438 1739.0625 1072.265625 1741.992188 1081.054688 C 1753.125 1064.0625 1760.742188 1065.820312 1763.085938 1069.921875 " transform="matrix(0.00666667,0,0,0.00666667,0,0)"/>
<path style="fill:none;stroke-width:1;stroke-linecap:butt;stroke-linejoin:miter;stroke:rgb(0%,0%,0%);stroke-opacity:1;stroke-miterlimit:4;" d="M 1783.007812 1068.164062 C 1791.210938 1065.234375 1805.273438 1072.851562 1812.890625 1086.914062 C 1816.992188 1075.78125 1822.851562 1078.125 1828.710938 1076.953125 " transform="matrix(0.00666667,0,0,0.00666667,0,0)"/>
<path style="fill:none;stroke-width:1;stroke-linecap:butt;stroke-linejoin:miter;stroke:rgb(0%,0%,0%);stroke-opacity:1;stroke-miterlimit:4;" d="M 1866.796875 1086.914062 C 1880.273438 1081.054688 1887.890625 1092.773438 1891.992188 1098.046875 C 1897.851562 1089.84375 1903.125 1089.84375 1908.984375 1089.84375 " transform="matrix(0.00666667,0,0,0.00666667,0,0)"/>
<path style="fill:none;stroke-width:1;stroke-linecap:butt;stroke-linejoin:miter;stroke:rgb(0%,0%,0%);stroke-opacity:1;stroke-miterlimit:4;" d="M 1746.09375 1110.9375 C 1749.023438 1106.25 1756.054688 1105.078125 1760.742188 1108.007812 C 1760.15625 1099.21875 1766.015625 1095.117188 1770.117188 1096.875 " transform="matrix(0.00666667,0,0,0.00666667,0,0)"/>
<path style="fill-rule:nonzero;fill:rgb(100%,84.313725%,0%);fill-opacity:1;stroke-width:3.5;stroke-linecap:butt;stroke-linejoin:miter;stroke:rgb(0%,0%,0%);stroke-opacity:1;stroke-miterlimit:4;" d="M 1787.109375 902.34375 L 1764.84375 903.515625 L 1753.710938 923.4375 L 1741.992188 904.6875 L 1719.726562 905.273438 L 1730.273438 885.351562 L 1717.96875 866.601562 L 1740.820312 866.015625 L 1750.78125 846.09375 L 1763.085938 864.84375 L 1784.765625 864.257812 L 1774.804688 883.59375 Z M 1787.109375 902.34375 " transform="matrix(0.00666667,0,0,0.00666667,0,0)"/>
<path style="fill-rule:nonzero;fill:rgb(100%,84.313725%,0%);fill-opacity:1;stroke-width:3.5;stroke-linecap:butt;stroke-linejoin:miter;stroke:rgb(0%,0%,0%);stroke-opacity:1;stroke-miterlimit:4;" d="M 1692.773438 909.960938 L 1671.09375 915.234375 L 1665.234375 936.328125 L 1648.828125 920.507812 L 1627.734375 925.78125 L 1634.179688 904.6875 L 1618.945312 888.28125 L 1640.039062 883.007812 L 1645.898438 861.328125 L 1661.71875 877.734375 L 1683.984375 872.460938 L 1676.953125 893.554688 Z M 1692.773438 909.960938 " transform="matrix(0.00666667,0,0,0.00666667,0,0)"/>
<path style="fill-rule:nonzero;fill:rgb(100%,84.313725%,0%);fill-opacity:1;stroke-width:3.5;stroke-linecap:butt;stroke-linejoin:miter;stroke:rgb(0%,0%,0%);stroke-opacity:1;stroke-miterlimit:4;" d="M 1601.953125 928.710938 L 1582.03125 938.671875 L 1580.859375 960.9375 L 1562.109375 948.632812 L 1542.1875 958.007812 L 1543.945312 936.328125 L 1525.195312 924.023438 L 1545.117188 914.0625 L 1546.875 891.796875 L 1565.039062 903.515625 L 1584.960938 894.140625 L 1583.789062 916.40625 Z M 1601.953125 928.710938 " transform="matrix(0.00666667,0,0,0.00666667,0,0)"/>
<path style="fill-rule:nonzero;fill:rgb(100%,84.313725%,0%);fill-opacity:1;stroke-width:3.5;stroke-linecap:butt;stroke-linejoin:miter;stroke:rgb(0%,0%,0%);stroke-opacity:1;stroke-miterlimit:4;" d="M 1815.820312 902.34375 L 1838.085938 903.515625 L 1848.046875 923.4375 L 1859.765625 904.6875 L 1882.03125 905.273438 L 1872.070312 885.351562 L 1883.789062 866.601562 L 1862.109375 866.015625 L 1850.976562 846.09375 L 1839.257812 864.84375 L 1816.992188 864.257812 L 1826.953125 883.59375 Z M 1815.820312 902.34375 " transform="matrix(0.00666667,0,0,0.00666667,0,0)"/>
<path style="fill-rule:nonzero;fill:rgb(100%,84.313725%,0%);fill-opacity:1;stroke-width:3.5;stroke-linecap:butt;stroke-linejoin:miter;stroke:rgb(0%,0%,0%);stroke-opacity:1;stroke-miterlimit:4;" d="M 1910.15625 909.960938 L 1931.25 915.234375 L 1937.109375 936.328125 L 1952.929688 920.507812 L 1974.023438 925.78125 L 1968.164062 904.6875 L 1983.984375 888.28125 L 1961.71875 883.007812 L 1955.859375 861.328125 L 1940.039062 877.734375 L 1918.945312 872.460938 L 1924.804688 893.554688 Z M 1910.15625 909.960938 " transform="matrix(0.00666667,0,0,0.00666667,0,0)"/>
<path style="fill-rule:nonzero;fill:rgb(100%,84.313725%,0%);fill-opacity:1;stroke-width:3.5;stroke-linecap:butt;stroke-linejoin:miter;stroke:rgb(0%,0%,0%);stroke-opacity:1;stroke-miterlimit:4;" d="M 1999.804688 928.710938 L 2019.726562 938.671875 L 2020.898438 960.9375 L 2040.234375 948.632812 L 2060.15625 958.007812 L 2058.984375 936.328125 L 2077.148438 924.023438 L 2057.226562 914.0625 L 2056.054688 891.796875 L 2036.71875 903.515625 L 2016.796875 894.140625 L 2019.140625 916.40625 Z M 1999.804688 928.710938 " transform="matrix(0.00666667,0,0,0.00666667,0,0)"/>
<path style="fill-rule:nonzero;fill:rgb(100%,100%,100%);fill-opacity:1;stroke-width:3.5;stroke-linecap:butt;stroke-linejoin:miter;stroke:rgb(0%,0%,0%);stroke-opacity:1;stroke-miterlimit:4;" d="M 2026.757812 1351.757812 L 2051.953125 1388.085938 L 2074.804688 1354.101562 L 2058.984375 1324.804688 Z M 2026.757812 1351.757812 " transform="matrix(0.00666667,0,0,0.00666667,0,0)"/>
<path style="fill-rule:nonzero;fill:rgb(100%,100%,100%);fill-opacity:1;stroke-width:3.5;stroke-linecap:butt;stroke-linejoin:miter;stroke:rgb(0%,0%,0%);stroke-opacity:1;stroke-miterlimit:4;" d="M 1867.96875 1457.226562 L 1869.726562 1492.96875 C 1869.726562 1492.96875 1880.273438 1492.96875 1889.0625 1490.039062 C 1897.265625 1487.109375 1903.710938 1481.25 1903.710938 1481.25 L 1903.125 1461.914062 Z M 1867.96875 1457.226562 " transform="matrix(0.00666667,0,0,0.00666667,0,0)"/>
<path style="fill-rule:nonzero;fill:rgb(100%,100%,100%);fill-opacity:1;stroke-width:3.5;stroke-linecap:butt;stroke-linejoin:miter;stroke:rgb(0%,0%,0%);stroke-opacity:1;stroke-miterlimit:4;" d="M 1733.789062 1457.226562 L 1732.03125 1491.796875 C 1732.03125 1491.796875 1723.242188 1491.796875 1713.867188 1490.039062 C 1706.25 1488.28125 1699.21875 1483.007812 1699.21875 1483.007812 L 1689.257812 1458.984375 Z M 1733.789062 1457.226562 " transform="matrix(0.00666667,0,0,0.00666667,0,0)"/>
<path style="fill-rule:nonzero;fill:rgb(100%,100%,100%);fill-opacity:1;stroke-width:3.5;stroke-linecap:butt;stroke-linejoin:miter;stroke:rgb(0%,0%,0%);stroke-opacity:1;stroke-miterlimit:4;" d="M 1573.242188 1351.757812 L 1546.875 1388.085938 L 1518.75 1341.796875 L 1539.84375 1320.117188 Z M 1573.242188 1351.757812 " transform="matrix(0.00666667,0,0,0.00666667,0,0)"/>
<path style="fill-rule:nonzero;fill:rgb(100%,100%,100%);fill-opacity:1;stroke-width:3.5;stroke-linecap:butt;stroke-linejoin:miter;stroke:rgb(0%,0%,0%);stroke-opacity:1;stroke-miterlimit:4;" d="M 1698.046875 1528.710938 C 1698.046875 1563.28125 1903.710938 1563.28125 1903.710938 1528.710938 L 1903.710938 1481.25 C 1903.710938 1505.859375 1698.046875 1501.171875 1698.046875 1481.25 Z M 1698.046875 1528.710938 " transform="matrix(0.00666667,0,0,0.00666667,0,0)"/>
<path style="fill-rule:nonzero;fill:rgb(100%,100%,100%);fill-opacity:1;stroke-width:3.5;stroke-linecap:butt;stroke-linejoin:miter;stroke:rgb(0%,0%,0%);stroke-opacity:1;stroke-miterlimit:4;" d="M 1514.0625 1417.96875 C 1532.226562 1509.960938 1698.046875 1511.71875 1698.046875 1511.71875 C 1698.046875 1511.71875 1698.046875 1481.25 1698.046875 1481.25 C 1693.945312 1468.945312 1700.976562 1464.84375 1727.929688 1460.742188 C 1739.0625 1460.15625 1733.789062 1443.75 1733.789062 1443.75 C 1733.789062 1443.75 1661.71875 1457.226562 1610.742188 1436.71875 C 1542.1875 1409.179688 1532.226562 1355.273438 1532.226562 1355.273438 C 1532.226562 1355.273438 1526.953125 1396.875 1514.0625 1417.96875 Z M 1514.0625 1417.96875 " transform="matrix(0.00666667,0,0,0.00666667,0,0)"/>
<path style="fill-rule:nonzero;fill:rgb(100%,100%,100%);fill-opacity:1;stroke-width:3.5;stroke-linecap:butt;stroke-linejoin:miter;stroke:rgb(0%,0%,0%);stroke-opacity:1;stroke-miterlimit:4;" d="M 2087.109375 1417.96875 C 2070.117188 1509.960938 1903.710938 1511.71875 1903.710938 1511.71875 C 1903.710938 1511.71875 1903.710938 1481.25 1903.710938 1481.25 C 1907.226562 1468.945312 1900.195312 1464.84375 1873.242188 1460.742188 C 1862.109375 1460.15625 1867.96875 1443.75 1867.96875 1443.75 C 1867.96875 1443.75 1940.039062 1457.226562 1991.015625 1436.71875 C 2058.984375 1409.179688 2067.1875 1355.273438 2067.1875 1355.273438 C 2067.1875 1355.273438 2074.21875 1396.875 2087.109375 1417.96875 Z M 2087.109375 1417.96875 " transform="matrix(0.00666667,0,0,0.00666667,0,0)"/>
<path style="fill-rule:nonzero;fill:rgb(100%,100%,100%);fill-opacity:1;stroke-width:3.5;stroke-linecap:butt;stroke-linejoin:miter;stroke:rgb(0%,0%,0%);stroke-opacity:1;stroke-miterlimit:4;" d="M 1526.953125 1382.8125 C 1481.25 1358.203125 1516.992188 1331.835938 1521.09375 1258.007812 C 1528.125 1303.125 1579.101562 1321.875 1573.242188 1351.171875 C 1552.148438 1351.757812 1542.1875 1320.117188 1532.226562 1355.273438 C 1532.226562 1355.273438 1526.953125 1382.8125 1526.953125 1382.8125 Z M 1526.953125 1382.8125 " transform="matrix(0.00666667,0,0,0.00666667,0,0)"/>
<path style="fill-rule:nonzero;fill:rgb(100%,100%,100%);fill-opacity:1;stroke-width:3.5;stroke-linecap:butt;stroke-linejoin:miter;stroke:rgb(0%,0%,0%);stroke-opacity:1;stroke-miterlimit:4;" d="M 2074.21875 1382.8125 C 2119.921875 1357.03125 2081.835938 1331.835938 2077.734375 1258.007812 C 2071.289062 1303.125 2020.898438 1321.875 2026.757812 1351.171875 C 2047.265625 1351.757812 2057.226562 1320.117188 2067.1875 1355.273438 C 2067.1875 1355.273438 2074.21875 1382.226562 2074.21875 1382.226562 Z M 2074.21875 1382.8125 " transform="matrix(0.00666667,0,0,0.00666667,0,0)"/>
<path style=" stroke:none;fill-rule:nonzero;fill:rgb(0%,0%,0%);fill-opacity:1;" d="M 10.367188 9.445312 L 10.398438 9.472656 L 10.328125 9.554688 C 10.296875 9.585938 10.289062 9.605469 10.3125 9.625 C 10.335938 9.648438 10.355469 9.640625 10.378906 9.613281 L 10.460938 9.527344 L 10.488281 9.554688 L 10.40625 9.648438 C 10.363281 9.695312 10.324219 9.6875 10.289062 9.652344 C 10.261719 9.625 10.242188 9.585938 10.285156 9.539062 Z M 10.367188 9.445312 "/>
<path style=" stroke:none;fill-rule:nonzero;fill:rgb(0%,0%,0%);fill-opacity:1;" d="M 10.5 9.558594 L 10.535156 9.578125 L 10.527344 9.738281 L 10.601562 9.625 L 10.632812 9.648438 L 10.527344 9.820312 L 10.488281 9.800781 L 10.492188 9.640625 L 10.421875 9.753906 L 10.386719 9.734375 Z M 10.5 9.558594 "/>
<path style=" stroke:none;fill-rule:nonzero;fill:rgb(0%,0%,0%);fill-opacity:1;" d="M 10.558594 9.839844 L 10.652344 9.652344 L 10.6875 9.671875 L 10.601562 9.851562 Z M 10.558594 9.839844 "/>
<path style=" stroke:none;fill-rule:nonzero;fill:rgb(0%,0%,0%);fill-opacity:1;" d="M 10.707031 9.679688 L 10.632812 9.875 L 10.707031 9.898438 C 10.773438 9.925781 10.808594 9.894531 10.828125 9.835938 C 10.851562 9.777344 10.839844 9.734375 10.773438 9.707031 Z M 10.734375 9.726562 C 10.800781 9.75 10.804688 9.777344 10.789062 9.824219 C 10.769531 9.871094 10.753906 9.886719 10.6875 9.851562 Z M 10.734375 9.726562 "/>
<path style=" stroke:none;fill-rule:nonzero;fill:rgb(0%,0%,0%);fill-opacity:1;" d="M 10.925781 9.753906 L 10.808594 9.933594 L 10.851562 9.945312 L 10.878906 9.898438 L 10.960938 9.921875 L 10.964844 9.96875 L 11.011719 9.972656 L 10.964844 9.761719 Z M 10.941406 9.800781 L 10.953125 9.878906 L 10.898438 9.875 Z M 10.941406 9.800781 "/>
<path style=" stroke:none;fill-rule:nonzero;fill:rgb(0%,0%,0%);fill-opacity:1;" d="M 11.039062 9.769531 L 11.035156 9.976562 L 11.113281 9.980469 C 11.183594 9.980469 11.207031 9.941406 11.207031 9.878906 C 11.210938 9.816406 11.1875 9.777344 11.113281 9.773438 Z M 11.082031 9.804688 C 11.152344 9.808594 11.167969 9.832031 11.164062 9.882812 C 11.160156 9.929688 11.152344 9.953125 11.078125 9.941406 Z M 11.082031 9.804688 "/>
<path style=" stroke:none;fill-rule:nonzero;fill:rgb(0%,0%,0%);fill-opacity:1;" d="M 11.738281 10.058594 L 11.738281 10.273438 L 11.785156 10.273438 L 11.785156 10.191406 C 11.785156 10.191406 11.828125 10.195312 11.859375 10.1875 C 11.886719 10.179688 11.90625 10.164062 11.90625 10.121094 C 11.90625 10.082031 11.882812 10.058594 11.839844 10.058594 Z M 11.785156 10.09375 L 11.832031 10.09375 C 11.871094 10.09375 11.867188 10.152344 11.835938 10.152344 L 11.785156 10.152344 Z M 11.785156 10.09375 "/>
<path style=" stroke:none;fill-rule:nonzero;fill:rgb(0%,0%,0%);fill-opacity:1;" d="M 11.980469 10.058594 L 11.894531 10.273438 L 11.941406 10.273438 L 11.960938 10.21875 L 12.046875 10.21875 L 12.066406 10.273438 L 12.113281 10.273438 L 12.027344 10.058594 Z M 12 10.105469 L 12.03125 10.1875 L 11.972656 10.1875 Z M 12 10.105469 "/>
<path style=" stroke:none;fill-rule:nonzero;fill:rgb(0%,0%,0%);fill-opacity:1;" d="M 12.113281 10.234375 L 12.226562 10.09375 L 12.125 10.09375 L 12.125 10.058594 L 12.285156 10.058594 L 12.285156 10.09375 L 12.167969 10.234375 L 12.285156 10.234375 L 12.285156 10.273438 L 12.113281 10.273438 Z M 12.113281 10.234375 "/>
<path style=" stroke:none;fill-rule:nonzero;fill:rgb(0%,0%,0%);fill-opacity:1;" d="M 12.785156 9.820312 L 12.828125 9.8125 L 12.847656 9.933594 C 12.855469 9.976562 12.835938 10.003906 12.804688 10.015625 C 12.769531 10.027344 12.726562 10.015625 12.71875 9.960938 L 12.753906 9.953125 C 12.761719 9.988281 12.773438 9.992188 12.789062 9.984375 C 12.804688 9.980469 12.808594 9.960938 12.808594 9.941406 Z M 12.785156 9.820312 "/>
<path style=" stroke:none;fill-rule:nonzero;fill:rgb(0%,0%,0%);fill-opacity:1;" d="M 12.851562 9.808594 L 12.894531 9.800781 L 12.910156 9.898438 C 12.917969 9.941406 12.933594 9.960938 12.960938 9.957031 C 12.996094 9.949219 13 9.929688 12.992188 9.894531 L 12.964844 9.785156 L 13.007812 9.78125 L 13.035156 9.890625 C 13.050781 9.957031 13.015625 9.980469 12.96875 9.988281 C 12.929688 9.996094 12.886719 9.988281 12.875 9.921875 Z M 12.851562 9.808594 "/>
<path style=" stroke:none;fill-rule:nonzero;fill:rgb(0%,0%,0%);fill-opacity:1;" d="M 13.058594 9.898438 L 13.09375 9.886719 C 13.109375 9.917969 13.136719 9.914062 13.15625 9.90625 C 13.183594 9.894531 13.1875 9.871094 13.171875 9.863281 C 13.152344 9.851562 13.105469 9.867188 13.082031 9.855469 C 13.050781 9.847656 13.039062 9.828125 13.039062 9.804688 C 13.042969 9.773438 13.070312 9.753906 13.097656 9.746094 C 13.132812 9.734375 13.164062 9.738281 13.1875 9.78125 L 13.148438 9.792969 C 13.132812 9.769531 13.117188 9.773438 13.101562 9.78125 C 13.089844 9.785156 13.070312 9.796875 13.082031 9.8125 C 13.089844 9.828125 13.136719 9.820312 13.164062 9.820312 C 13.191406 9.820312 13.210938 9.839844 13.214844 9.863281 C 13.222656 9.902344 13.207031 9.921875 13.167969 9.9375 C 13.113281 9.957031 13.070312 9.933594 13.058594 9.898438 Z M 13.058594 9.898438 "/>
<path style=" stroke:none;fill-rule:nonzero;fill:rgb(0%,0%,0%);fill-opacity:1;" d="M 13.238281 9.734375 L 13.1875 9.761719 L 13.171875 9.726562 L 13.320312 9.667969 L 13.332031 9.691406 L 13.28125 9.71875 L 13.339844 9.867188 L 13.308594 9.886719 Z M 13.238281 9.734375 "/>
<path style=" stroke:none;fill-rule:nonzero;fill:rgb(0%,0%,0%);fill-opacity:1;" d="M 13.328125 9.660156 L 13.359375 9.640625 L 13.453125 9.8125 L 13.421875 9.832031 Z M 13.328125 9.660156 "/>
<path style=" stroke:none;fill-rule:nonzero;fill:rgb(0%,0%,0%);fill-opacity:1;" d="M 13.554688 9.671875 L 13.59375 9.660156 C 13.613281 9.699219 13.582031 9.769531 13.515625 9.769531 C 13.414062 9.769531 13.402344 9.65625 13.417969 9.621094 C 13.445312 9.558594 13.519531 9.558594 13.554688 9.59375 L 13.519531 9.621094 C 13.5 9.59375 13.453125 9.609375 13.449219 9.636719 C 13.445312 9.675781 13.460938 9.714844 13.496094 9.730469 C 13.527344 9.746094 13.578125 9.707031 13.554688 9.671875 Z M 13.554688 9.671875 "/>
<path style=" stroke:none;fill-rule:nonzero;fill:rgb(0%,0%,0%);fill-opacity:1;" d="M 13.535156 9.535156 L 13.566406 9.507812 L 13.6875 9.667969 L 13.652344 9.691406 Z M 13.535156 9.535156 "/>
<path style=" stroke:none;fill-rule:nonzero;fill:rgb(0%,0%,0%);fill-opacity:1;" d="M 13.660156 9.433594 L 13.625 9.460938 L 13.699219 9.660156 L 13.734375 9.625 L 13.714844 9.585938 L 13.773438 9.535156 L 13.8125 9.554688 L 13.847656 9.527344 Z M 13.671875 9.480469 L 13.738281 9.511719 L 13.699219 9.554688 Z M 13.671875 9.480469 "/>
</g>
</svg>
