<?xml version="1.0" encoding="UTF-8"?>
<svg xmlns="http://www.w3.org/2000/svg" xmlns:xlink="http://www.w3.org/1999/xlink" width="24px" height="24px" viewBox="0 0 24 12" version="1.1">
<g id="surface1">
<rect x="0" y="0" width="24" height="12" style="fill:rgb(77.647059%,12.941176%,22.352941%);fill-opacity:1;stroke:none;"/>
<path style=" stroke:none;fill-rule:evenodd;fill:rgb(0%,16.078431%,48.235294%);fill-opacity:1;" d="M 0.585938 0.546875 L 23.414062 0.546875 L 23.414062 11.453125 L 0.585938 11.453125 Z M 0.585938 0.546875 "/>
<path style=" stroke:none;fill-rule:evenodd;fill:rgb(57.254902%,85.882353%,98.823529%);fill-opacity:1;" d="M 12.007812 2.949219 C 12.007812 2.949219 10 4.4375 10 5.980469 C 10 7.523438 12.007812 9.050781 12.007812 9.050781 C 12.007812 9.050781 14 7.636719 14 5.980469 C 14 4.324219 12.007812 2.949219 12.007812 2.949219 Z M 12.007812 2.949219 "/>
<path style=" stroke:none;fill-rule:evenodd;fill:rgb(0%,54.901961%,90.588235%);fill-opacity:1;" d="M 10.222656 6.921875 C 10.746094 8.089844 12.007812 9.050781 12.007812 9.050781 C 12.007812 9.050781 13.289062 8.136719 13.796875 6.921875 "/>
<path style=" stroke:none;fill-rule:evenodd;fill:rgb(61.176471%,51.764706%,19.215686%);fill-opacity:1;" d="M 13.804688 6.585938 C 13.496094 6.792969 11.753906 6.691406 11.753906 6.691406 L 11.65625 6.921875 L 13.730469 6.929688 C 13.738281 6.898438 13.757812 6.859375 13.765625 6.828125 Z M 13.804688 6.585938 "/>
<path style=" stroke:none;fill-rule:evenodd;fill:rgb(100%,87.058824%,32.156863%);fill-opacity:1;" d="M 10.691406 7.539062 C 10.78125 7.542969 10.867188 7.558594 10.945312 7.601562 C 11.085938 7.667969 11.167969 7.667969 11.320312 7.671875 C 11.480469 7.671875 11.605469 7.78125 11.777344 7.785156 C 12.09375 7.792969 12.226562 7.941406 11.980469 7.941406 C 11.863281 7.941406 11.613281 7.867188 11.492188 7.882812 C 11.308594 7.902344 11.203125 7.914062 11.070312 8.015625 C 10.941406 7.871094 10.8125 7.710938 10.691406 7.539062 Z M 11.316406 8.273438 C 11.394531 8.226562 11.449219 8.1875 11.527344 8.183594 C 11.671875 8.179688 11.722656 8.09375 11.894531 8.09375 C 12.089844 8.128906 12.351562 8.074219 12.507812 8.042969 C 12.78125 7.980469 12.652344 7.804688 12.484375 7.738281 C 12.351562 7.6875 12.101562 7.738281 11.945312 7.683594 C 11.828125 7.640625 11.925781 7.574219 11.988281 7.558594 C 12.050781 7.546875 12.121094 7.566406 12.199219 7.578125 C 12.339844 7.589844 12.519531 7.578125 12.644531 7.558594 C 12.902344 7.523438 12.890625 7.453125 13.015625 7.449219 C 13.105469 7.445312 13.175781 7.421875 13.238281 7.378906 C 13.3125 7.335938 13.386719 7.242188 13.476562 7.246094 L 13.527344 7.25 C 12.984375 8.230469 12.007812 8.871094 12.007812 8.871094 C 12.007812 8.871094 11.691406 8.648438 11.316406 8.273438 Z M 11.316406 8.273438 "/>
<path style=" stroke:none;fill-rule:evenodd;fill:rgb(54.901961%,25.882353%,0%);fill-opacity:1;" d="M 12.566406 7.558594 C 12.601562 7.679688 12.636719 7.71875 12.773438 7.75 C 12.910156 7.78125 13.117188 7.660156 12.988281 7.539062 C 12.867188 7.429688 12.738281 7.402344 12.628906 7.300781 C 12.457031 7.144531 12.226562 6.820312 12.117188 6.515625 C 11.996094 6.179688 12.015625 5.238281 12.019531 4.761719 C 12.019531 4.753906 12.035156 4.75 12.039062 4.75 C 12.046875 4.738281 12.054688 4.753906 12.039062 4.683594 C 12.039062 4.664062 12.023438 4.644531 12.023438 4.628906 C 12.023438 4.597656 11.902344 4.664062 11.871094 4.722656 C 11.863281 4.734375 11.894531 4.773438 11.894531 4.78125 C 11.898438 5.238281 11.84375 6.140625 11.976562 6.550781 C 12.054688 6.804688 12.203125 7 12.335938 7.183594 C 12.417969 7.296875 12.53125 7.421875 12.566406 7.558594 Z M 12.566406 7.558594 "/>
<path style=" stroke:none;fill-rule:nonzero;fill:rgb(100%,100%,100%);fill-opacity:1;" d="M 11.070312 6.214844 C 11.070312 6.214844 11.0625 6.214844 11.058594 6.214844 C 11.015625 6.210938 10.972656 6.191406 10.9375 6.171875 C 10.894531 6.136719 10.863281 6.085938 10.851562 6.023438 C 10.847656 6.003906 10.847656 5.960938 10.851562 5.941406 C 10.859375 5.894531 10.878906 5.851562 10.90625 5.820312 C 10.914062 5.808594 10.929688 5.796875 10.941406 5.789062 C 10.964844 5.773438 10.992188 5.761719 11.023438 5.753906 C 11.046875 5.746094 11.058594 5.746094 11.085938 5.746094 C 11.121094 5.746094 11.148438 5.746094 11.175781 5.757812 C 11.214844 5.769531 11.242188 5.785156 11.265625 5.8125 C 11.277344 5.828125 11.296875 5.867188 11.300781 5.886719 C 11.300781 5.894531 11.296875 5.902344 11.285156 5.90625 C 11.285156 5.90625 11.269531 5.910156 11.253906 5.914062 C 11.226562 5.921875 11.222656 5.921875 11.214844 5.917969 C 11.210938 5.914062 11.207031 5.910156 11.203125 5.898438 C 11.203125 5.894531 11.199219 5.882812 11.195312 5.878906 C 11.1875 5.867188 11.1875 5.863281 11.179688 5.855469 C 11.171875 5.847656 11.167969 5.847656 11.15625 5.84375 C 11.132812 5.832031 11.101562 5.828125 11.070312 5.832031 C 11.046875 5.832031 11.019531 5.84375 11.003906 5.855469 C 10.96875 5.878906 10.949219 5.929688 10.949219 5.988281 C 10.953125 6.070312 10.988281 6.113281 11.066406 6.128906 C 11.078125 6.128906 11.113281 6.128906 11.128906 6.128906 C 11.148438 6.125 11.183594 6.113281 11.203125 6.101562 L 11.207031 6.097656 L 11.207031 6.046875 L 11.148438 6.042969 L 11.085938 6.042969 C 11.082031 6.039062 11.082031 6.039062 11.078125 6.035156 C 11.074219 6.03125 11.074219 6.03125 11.074219 6 C 11.078125 5.972656 11.078125 5.972656 11.078125 5.96875 C 11.082031 5.964844 11.082031 5.964844 11.085938 5.960938 L 11.296875 5.960938 C 11.300781 5.964844 11.300781 5.964844 11.304688 5.96875 L 11.304688 6.050781 C 11.308594 6.136719 11.304688 6.140625 11.300781 6.144531 C 11.300781 6.148438 11.292969 6.152344 11.285156 6.15625 C 11.238281 6.191406 11.1875 6.210938 11.132812 6.214844 C 11.121094 6.214844 11.078125 6.21875 11.070312 6.214844 Z M 11.605469 6.21875 C 11.550781 6.214844 11.511719 6.203125 11.484375 6.175781 C 11.453125 6.148438 11.4375 6.117188 11.433594 6.0625 C 11.429688 6.046875 11.429688 6.03125 11.429688 5.90625 C 11.429688 5.773438 11.429688 5.769531 11.433594 5.765625 C 11.433594 5.765625 11.4375 5.761719 11.441406 5.757812 L 11.480469 5.757812 C 11.511719 5.753906 11.515625 5.753906 11.519531 5.757812 C 11.523438 5.757812 11.527344 5.761719 11.527344 5.765625 L 11.53125 5.769531 L 11.53125 5.910156 C 11.53125 6.035156 11.53125 6.054688 11.53125 6.0625 C 11.535156 6.089844 11.542969 6.097656 11.554688 6.113281 C 11.570312 6.125 11.585938 6.132812 11.621094 6.132812 C 11.648438 6.132812 11.667969 6.132812 11.6875 6.121094 C 11.707031 6.113281 11.714844 6.097656 11.722656 6.066406 C 11.726562 6.054688 11.726562 6.050781 11.726562 5.910156 C 11.726562 5.753906 11.726562 5.765625 11.734375 5.757812 L 11.777344 5.757812 C 11.816406 5.757812 11.816406 5.757812 11.824219 5.765625 L 11.824219 5.894531 C 11.824219 6.023438 11.824219 6.050781 11.820312 6.074219 C 11.8125 6.125 11.796875 6.160156 11.761719 6.183594 C 11.75 6.191406 11.742188 6.195312 11.730469 6.203125 C 11.714844 6.210938 11.695312 6.214844 11.671875 6.21875 C 11.65625 6.21875 11.617188 6.222656 11.605469 6.21875 Z M 12.082031 6.214844 C 12.082031 6.214844 12.078125 6.210938 12.074219 6.207031 C 12.070312 6.203125 12.070312 6.199219 12.070312 6.191406 C 12.074219 6.183594 12.246094 5.765625 12.25 5.765625 C 12.253906 5.757812 12.253906 5.757812 12.296875 5.757812 C 12.335938 5.757812 12.339844 5.757812 12.34375 5.765625 C 12.34375 5.765625 12.386719 5.863281 12.4375 5.980469 C 12.519531 6.164062 12.53125 6.191406 12.53125 6.195312 C 12.53125 6.203125 12.527344 6.207031 12.523438 6.210938 C 12.519531 6.214844 12.519531 6.214844 12.476562 6.214844 L 12.4375 6.214844 L 12.433594 6.210938 C 12.425781 6.207031 12.425781 6.207031 12.402344 6.144531 C 12.390625 6.113281 12.378906 6.089844 12.378906 6.089844 C 12.378906 6.085938 12.371094 6.085938 12.296875 6.085938 C 12.222656 6.085938 12.21875 6.085938 12.214844 6.089844 C 12.214844 6.089844 12.207031 6.117188 12.195312 6.144531 C 12.179688 6.175781 12.171875 6.203125 12.167969 6.207031 C 12.167969 6.207031 12.164062 6.210938 12.164062 6.210938 C 12.160156 6.214844 12.160156 6.214844 12.125 6.214844 C 12.101562 6.214844 12.085938 6.214844 12.082031 6.214844 Z M 12.34375 6 C 12.339844 5.996094 12.296875 5.890625 12.296875 5.886719 C 12.292969 5.894531 12.25 6.003906 12.25 6.003906 C 12.25 6.003906 12.269531 6.003906 12.296875 6.003906 L 12.34375 6.003906 Z M 12.710938 6.214844 C 12.703125 6.210938 12.699219 6.207031 12.699219 6.199219 C 12.695312 6.199219 12.695312 6.128906 12.695312 5.980469 L 12.699219 5.769531 L 12.699219 5.765625 C 12.707031 5.757812 12.707031 5.757812 12.761719 5.757812 C 12.808594 5.757812 12.8125 5.757812 12.816406 5.757812 C 12.816406 5.761719 12.820312 5.761719 12.824219 5.765625 C 12.824219 5.765625 12.851562 5.835938 12.878906 5.921875 C 12.910156 6.003906 12.933594 6.074219 12.933594 6.074219 C 12.933594 6.074219 12.960938 6.007812 12.992188 5.921875 C 13.027344 5.828125 13.050781 5.769531 13.050781 5.765625 C 13.058594 5.757812 13.058594 5.757812 13.109375 5.757812 C 13.152344 5.757812 13.152344 5.757812 13.15625 5.757812 C 13.160156 5.761719 13.164062 5.765625 13.164062 5.765625 L 13.167969 5.769531 L 13.167969 5.984375 C 13.167969 6.1875 13.167969 6.203125 13.164062 6.203125 C 13.164062 6.207031 13.160156 6.210938 13.160156 6.210938 L 13.152344 6.214844 L 13.117188 6.214844 C 13.082031 6.214844 13.082031 6.214844 13.078125 6.210938 C 13.078125 6.210938 13.074219 6.207031 13.074219 6.207031 L 13.070312 6.203125 L 13.070312 5.953125 L 13.0625 5.972656 C 13.058594 5.980469 13.039062 6.035156 13.015625 6.097656 C 12.976562 6.199219 12.976562 6.203125 12.972656 6.207031 C 12.96875 6.210938 12.964844 6.214844 12.964844 6.214844 C 12.960938 6.214844 12.945312 6.214844 12.929688 6.214844 C 12.902344 6.214844 12.902344 6.214844 12.894531 6.210938 C 12.894531 6.210938 12.890625 6.207031 12.886719 6.207031 C 12.886719 6.203125 12.867188 6.144531 12.839844 6.078125 C 12.816406 6.007812 12.792969 5.953125 12.792969 5.953125 C 12.792969 5.953125 12.792969 6.007812 12.792969 6.074219 C 12.792969 6.214844 12.792969 6.203125 12.785156 6.210938 L 12.78125 6.214844 L 12.746094 6.214844 C 12.726562 6.214844 12.710938 6.214844 12.710938 6.210938 Z M 12.710938 6.214844 "/>
<path style=" stroke:none;fill-rule:nonzero;fill:rgb(74.117647%,2.745098%,15.686275%);fill-opacity:1;" d="M 11.070312 6.195312 C 11.007812 6.191406 10.953125 6.164062 10.921875 6.128906 C 10.894531 6.097656 10.875 6.058594 10.871094 6.015625 C 10.871094 6 10.871094 5.964844 10.871094 5.949219 C 10.878906 5.902344 10.898438 5.855469 10.929688 5.824219 C 10.980469 5.769531 11.085938 5.75 11.171875 5.773438 C 11.222656 5.789062 11.257812 5.820312 11.273438 5.875 C 11.277344 5.882812 11.277344 5.886719 11.277344 5.886719 C 11.277344 5.886719 11.230469 5.898438 11.230469 5.902344 C 11.226562 5.902344 11.226562 5.898438 11.222656 5.890625 C 11.214844 5.867188 11.203125 5.847656 11.1875 5.835938 C 11.15625 5.816406 11.113281 5.804688 11.058594 5.8125 C 11.027344 5.816406 10.992188 5.832031 10.972656 5.855469 C 10.945312 5.886719 10.933594 5.921875 10.929688 5.972656 C 10.929688 6.019531 10.9375 6.058594 10.960938 6.089844 C 10.996094 6.140625 11.078125 6.164062 11.152344 6.140625 C 11.175781 6.136719 11.203125 6.125 11.21875 6.113281 L 11.230469 6.105469 L 11.230469 6.027344 L 11.09375 6.027344 L 11.09375 5.976562 L 11.285156 5.976562 L 11.285156 6.132812 L 11.277344 6.140625 C 11.234375 6.167969 11.191406 6.1875 11.144531 6.195312 C 11.125 6.199219 11.085938 6.199219 11.070312 6.195312 Z M 11.597656 6.199219 C 11.554688 6.195312 11.519531 6.183594 11.496094 6.160156 C 11.476562 6.140625 11.460938 6.117188 11.457031 6.082031 C 11.453125 6.054688 11.453125 6.042969 11.453125 5.90625 L 11.453125 5.773438 L 11.511719 5.773438 L 11.511719 5.917969 C 11.511719 6.066406 11.511719 6.066406 11.515625 6.085938 C 11.523438 6.117188 11.546875 6.136719 11.582031 6.148438 C 11.609375 6.15625 11.644531 6.15625 11.671875 6.148438 C 11.710938 6.140625 11.730469 6.121094 11.738281 6.085938 C 11.746094 6.0625 11.746094 6.0625 11.746094 5.914062 L 11.746094 5.773438 L 11.804688 5.773438 L 11.804688 5.902344 C 11.804688 5.976562 11.804688 6.039062 11.804688 6.046875 C 11.800781 6.113281 11.78125 6.148438 11.738281 6.175781 C 11.722656 6.1875 11.699219 6.195312 11.675781 6.199219 C 11.664062 6.199219 11.609375 6.203125 11.597656 6.199219 Z M 12.09375 6.1875 C 12.09375 6.1875 12.132812 6.089844 12.179688 5.980469 L 12.265625 5.777344 L 12.296875 5.777344 L 12.328125 5.773438 L 12.417969 5.984375 C 12.46875 6.097656 12.511719 6.191406 12.511719 6.195312 C 12.511719 6.195312 12.507812 6.195312 12.476562 6.195312 L 12.445312 6.195312 L 12.4375 6.183594 C 12.4375 6.175781 12.425781 6.144531 12.414062 6.117188 L 12.394531 6.070312 L 12.203125 6.070312 L 12.175781 6.132812 L 12.152344 6.195312 L 12.089844 6.195312 Z M 12.375 6.023438 C 12.371094 6.019531 12.359375 5.988281 12.34375 5.949219 C 12.328125 5.910156 12.3125 5.867188 12.304688 5.851562 C 12.300781 5.832031 12.296875 5.820312 12.292969 5.820312 C 12.292969 5.820312 12.292969 5.828125 12.289062 5.835938 C 12.28125 5.867188 12.273438 5.886719 12.246094 5.953125 C 12.234375 5.988281 12.21875 6.019531 12.21875 6.019531 C 12.21875 6.023438 12.222656 6.023438 12.296875 6.023438 C 12.371094 6.023438 12.375 6.023438 12.375 6.023438 Z M 12.71875 5.984375 L 12.71875 5.773438 L 12.761719 5.773438 L 12.804688 5.777344 L 12.867188 5.941406 C 12.898438 6.035156 12.925781 6.117188 12.929688 6.125 C 12.933594 6.128906 12.933594 6.136719 12.933594 6.136719 C 12.933594 6.136719 12.941406 6.117188 12.949219 6.089844 C 12.960938 6.066406 12.988281 5.988281 13.015625 5.910156 L 13.066406 5.777344 L 13.148438 5.777344 L 13.148438 5.984375 L 13.144531 6.195312 L 13.089844 6.195312 L 13.089844 6.019531 C 13.089844 5.921875 13.089844 5.84375 13.089844 5.84375 C 13.089844 5.84375 13.0625 5.917969 13.027344 6.007812 C 12.996094 6.097656 12.964844 6.175781 12.960938 6.183594 L 12.957031 6.195312 L 12.90625 6.195312 L 12.839844 6.019531 C 12.804688 5.917969 12.777344 5.839844 12.773438 5.839844 C 12.773438 5.835938 12.773438 5.917969 12.773438 6.015625 L 12.773438 6.195312 L 12.71875 6.195312 Z M 12.71875 5.984375 "/>
<path style=" stroke:none;fill-rule:evenodd;fill:rgb(6.27451%,58.039216%,12.941176%);fill-opacity:1;" d="M 10.761719 4.625 C 10.769531 4.636719 10.769531 4.683594 10.769531 4.683594 C 10.773438 4.6875 10.886719 4.59375 10.886719 4.597656 C 10.886719 4.617188 10.890625 4.65625 10.890625 4.65625 C 10.890625 4.65625 11.007812 4.554688 11.011719 4.566406 C 11.019531 4.578125 11.011719 4.636719 11.011719 4.636719 C 11.011719 4.636719 11.089844 4.558594 11.105469 4.542969 C 11.113281 4.53125 11.113281 4.554688 11.113281 4.59375 C 11.113281 4.601562 11.242188 4.507812 11.25 4.503906 C 11.265625 4.5 11.269531 4.554688 11.269531 4.566406 C 11.269531 4.578125 11.386719 4.503906 11.382812 4.511719 L 11.390625 4.570312 C 11.425781 4.566406 11.503906 4.539062 11.550781 4.542969 C 11.566406 4.546875 11.5625 4.554688 11.550781 4.558594 C 11.324219 4.644531 11.148438 4.773438 11.046875 4.953125 C 11.011719 5.015625 11 5.070312 11.007812 5.082031 C 11.007812 5.082031 11.050781 5 11.097656 4.988281 C 11.101562 4.988281 11.105469 5.042969 11.113281 5.039062 C 11.113281 5.039062 11.148438 4.957031 11.171875 4.925781 C 11.179688 4.917969 11.191406 4.96875 11.199219 4.960938 C 11.199219 4.960938 11.214844 4.90625 11.253906 4.867188 C 11.257812 4.863281 11.265625 4.917969 11.273438 4.914062 C 11.308594 4.882812 11.34375 4.804688 11.359375 4.796875 C 11.367188 4.789062 11.367188 4.863281 11.378906 4.859375 C 11.378906 4.859375 11.429688 4.757812 11.460938 4.742188 C 11.480469 4.730469 11.480469 4.796875 11.480469 4.796875 C 11.519531 4.757812 11.566406 4.699219 11.585938 4.671875 C 11.597656 4.660156 11.589844 4.75 11.601562 4.753906 C 11.613281 4.757812 11.699219 4.683594 11.710938 4.683594 C 11.714844 4.679688 11.722656 4.703125 11.707031 4.722656 C 11.707031 4.722656 11.601562 4.835938 11.601562 4.835938 C 11.621094 4.839844 11.628906 4.835938 11.644531 4.839844 C 11.6875 4.847656 11.5625 4.917969 11.5625 4.929688 C 11.5625 4.929688 11.625 4.929688 11.605469 4.9375 C 11.589844 4.945312 11.507812 5.042969 11.507812 5.039062 C 11.507812 5.039062 11.550781 5.039062 11.550781 5.050781 C 11.550781 5.070312 11.484375 5.171875 11.484375 5.171875 C 11.480469 5.167969 11.519531 5.167969 11.523438 5.179688 C 11.53125 5.195312 11.457031 5.28125 11.46875 5.292969 C 11.472656 5.296875 11.515625 5.292969 11.535156 5.296875 C 11.542969 5.300781 11.566406 5.449219 11.5625 5.445312 C 11.558594 5.441406 11.589844 5.304688 11.605469 5.261719 C 11.617188 5.238281 11.652344 5.300781 11.652344 5.292969 C 11.652344 5.292969 11.648438 5.203125 11.652344 5.164062 C 11.652344 5.152344 11.675781 5.175781 11.675781 5.164062 C 11.675781 5.136719 11.675781 5.113281 11.679688 5.085938 C 11.683594 5.070312 11.703125 5.121094 11.710938 5.105469 C 11.710938 5.105469 11.6875 5.015625 11.699219 4.992188 C 11.703125 4.976562 11.722656 5.03125 11.734375 5.035156 C 11.734375 5.035156 11.726562 4.964844 11.738281 4.945312 L 11.773438 4.980469 C 11.78125 4.96875 11.78125 4.859375 11.785156 4.851562 C 11.792969 4.84375 11.828125 4.890625 11.835938 4.882812 C 11.839844 4.878906 11.820312 4.796875 11.824219 4.789062 C 11.828125 4.78125 11.871094 4.8125 11.871094 4.8125 C 11.886719 4.796875 11.886719 4.757812 11.894531 4.746094 C 11.910156 4.707031 12.015625 4.699219 12.027344 4.726562 C 12.035156 4.742188 12.03125 4.757812 12.027344 4.777344 C 12.03125 4.78125 12.082031 4.785156 12.082031 4.78125 C 12.082031 4.78125 12.074219 4.824219 12.078125 4.875 C 12.078125 4.878906 12.132812 4.871094 12.132812 4.878906 C 12.136719 4.925781 12.125 4.929688 12.125 4.929688 C 12.125 4.933594 12.160156 4.925781 12.160156 4.929688 C 12.164062 4.953125 12.15625 4.980469 12.140625 5.007812 C 12.140625 5.011719 12.191406 5.003906 12.191406 5.007812 C 12.199219 5.042969 12.199219 5.070312 12.191406 5.117188 C 12.191406 5.125 12.242188 5.085938 12.246094 5.089844 C 12.253906 5.128906 12.242188 5.175781 12.246094 5.21875 C 12.25 5.226562 12.28125 5.1875 12.285156 5.199219 C 12.289062 5.210938 12.277344 5.292969 12.28125 5.296875 C 12.28125 5.296875 12.335938 5.296875 12.34375 5.300781 C 12.386719 5.339844 12.378906 5.40625 12.378906 5.40625 C 12.390625 5.394531 12.386719 5.316406 12.375 5.242188 C 12.371094 5.234375 12.414062 5.238281 12.414062 5.230469 C 12.414062 5.230469 12.367188 5.203125 12.351562 5.128906 C 12.347656 5.113281 12.398438 5.117188 12.398438 5.117188 C 12.382812 5.085938 12.359375 5.082031 12.339844 5.054688 C 12.332031 5.042969 12.390625 5.039062 12.390625 5.039062 C 12.390625 5.007812 12.339844 4.996094 12.316406 4.964844 C 12.304688 4.953125 12.367188 4.953125 12.367188 4.953125 C 12.351562 4.929688 12.289062 4.917969 12.257812 4.886719 C 12.238281 4.867188 12.320312 4.851562 12.316406 4.847656 C 12.308594 4.824219 12.234375 4.816406 12.199219 4.785156 C 12.191406 4.78125 12.246094 4.761719 12.246094 4.761719 C 12.238281 4.75 12.121094 4.675781 12.179688 4.683594 C 12.207031 4.683594 12.257812 4.71875 12.261719 4.714844 C 12.261719 4.714844 12.261719 4.671875 12.265625 4.667969 C 12.285156 4.648438 12.355469 4.75 12.378906 4.746094 C 12.378906 4.746094 12.386719 4.671875 12.398438 4.667969 C 12.421875 4.664062 12.453125 4.777344 12.480469 4.777344 C 12.480469 4.777344 12.484375 4.710938 12.496094 4.707031 C 12.511719 4.703125 12.527344 4.78125 12.546875 4.796875 C 12.5625 4.8125 12.5625 4.738281 12.574219 4.75 C 12.589844 4.773438 12.59375 4.820312 12.617188 4.84375 C 12.632812 4.855469 12.636719 4.777344 12.652344 4.789062 C 12.671875 4.800781 12.667969 4.839844 12.6875 4.863281 C 12.699219 4.871094 12.707031 4.808594 12.71875 4.820312 C 12.726562 4.828125 12.734375 4.902344 12.746094 4.914062 C 12.761719 4.929688 12.777344 4.875 12.792969 4.882812 C 12.804688 4.890625 12.800781 4.953125 12.8125 4.96875 C 12.832031 4.996094 12.839844 4.933594 12.855469 4.945312 C 12.863281 4.949219 12.886719 5.027344 12.894531 5.03125 C 12.914062 5.042969 12.921875 4.996094 12.9375 5.003906 C 12.949219 5.007812 12.96875 5.105469 12.976562 5.101562 C 12.984375 5.101562 12.996094 4.882812 12.90625 4.789062 C 12.757812 4.640625 12.496094 4.550781 12.277344 4.550781 C 12.277344 4.550781 12.386719 4.53125 12.390625 4.511719 C 12.394531 4.480469 12.449219 4.484375 12.488281 4.492188 C 12.492188 4.492188 12.492188 4.433594 12.492188 4.433594 C 12.523438 4.429688 12.554688 4.449219 12.585938 4.46875 C 12.597656 4.472656 12.566406 4.40625 12.578125 4.414062 C 12.617188 4.4375 12.664062 4.441406 12.691406 4.46875 C 12.699219 4.476562 12.683594 4.417969 12.683594 4.417969 C 12.703125 4.414062 12.746094 4.441406 12.761719 4.46875 C 12.769531 4.480469 12.761719 4.398438 12.765625 4.414062 C 12.765625 4.414062 12.839844 4.4375 12.847656 4.464844 C 12.847656 4.464844 12.851562 4.414062 12.859375 4.417969 C 12.890625 4.421875 12.914062 4.46875 12.9375 4.476562 C 12.9375 4.476562 12.929688 4.429688 12.9375 4.429688 C 12.988281 4.445312 13.046875 4.476562 13.046875 4.476562 C 13.019531 4.402344 12.902344 4.328125 12.699219 4.308594 C 12.664062 4.304688 12.511719 4.300781 12.382812 4.328125 C 12.277344 4.351562 12.195312 4.363281 12.210938 4.347656 C 12.28125 4.285156 12.394531 4.277344 12.425781 4.261719 C 12.445312 4.253906 12.351562 4.21875 12.367188 4.210938 C 12.386719 4.207031 12.472656 4.203125 12.472656 4.203125 C 12.492188 4.1875 12.410156 4.160156 12.421875 4.140625 C 12.449219 4.101562 12.59375 4.136719 12.605469 4.121094 C 12.609375 4.117188 12.542969 4.082031 12.546875 4.074219 C 12.554688 4.054688 12.683594 4.089844 12.6875 4.074219 C 12.6875 4.074219 12.648438 4.046875 12.621094 4.023438 C 12.617188 4.023438 12.734375 3.992188 12.734375 3.992188 C 12.734375 3.988281 12.714844 3.976562 12.6875 3.96875 C 12.664062 3.960938 12.789062 3.929688 12.789062 3.929688 C 12.628906 3.859375 12.207031 4.054688 12.125 4.257812 C 12.101562 4.308594 12.101562 4.253906 12.105469 4.214844 C 12.109375 4.171875 12.117188 4.132812 12.113281 4.089844 C 12.109375 4.078125 12.078125 4.121094 12.074219 4.109375 C 12.066406 4.066406 12.089844 4.019531 12.082031 3.972656 C 12.078125 3.957031 12.03125 4.019531 12.027344 4.003906 C 12.011719 3.957031 12.039062 3.898438 12.027344 3.835938 C 12.023438 3.8125 11.980469 3.886719 11.96875 3.863281 C 11.953125 3.839844 11.960938 3.75 11.953125 3.734375 C 11.945312 3.722656 11.910156 3.777344 11.90625 3.769531 C 11.855469 3.597656 11.921875 3.578125 11.828125 3.671875 C 11.824219 3.675781 11.800781 3.574219 11.796875 3.578125 C 11.757812 3.65625 11.695312 3.519531 11.671875 3.535156 C 11.65625 3.542969 11.71875 3.59375 11.71875 3.617188 C 11.71875 3.628906 11.660156 3.628906 11.660156 3.628906 C 11.664062 3.648438 11.769531 3.703125 11.773438 3.726562 C 11.777344 3.742188 11.699219 3.738281 11.699219 3.738281 C 11.699219 3.761719 11.789062 3.785156 11.792969 3.808594 C 11.796875 3.824219 11.753906 3.824219 11.753906 3.839844 C 11.757812 3.863281 11.839844 3.902344 11.84375 3.925781 C 11.84375 3.941406 11.789062 3.949219 11.789062 3.960938 C 11.785156 3.980469 11.898438 4.035156 11.898438 4.054688 C 11.898438 4.074219 11.851562 4.0625 11.832031 4.074219 C 11.804688 4.089844 11.925781 4.15625 11.929688 4.175781 C 11.933594 4.191406 11.882812 4.179688 11.878906 4.191406 C 11.878906 4.210938 11.9375 4.242188 11.953125 4.277344 C 11.96875 4.308594 11.953125 4.316406 11.933594 4.304688 C 11.890625 4.277344 11.730469 4.117188 11.6875 4.074219 C 11.625 4.011719 11.496094 3.941406 11.367188 3.9375 C 11.351562 3.941406 11.4375 3.996094 11.4375 4.015625 C 11.4375 4.019531 11.398438 4.027344 11.402344 4.027344 C 11.421875 4.050781 11.496094 4.074219 11.496094 4.074219 L 11.472656 4.109375 C 11.480469 4.121094 11.511719 4.121094 11.566406 4.136719 C 11.566406 4.136719 11.527344 4.160156 11.527344 4.164062 C 11.558594 4.183594 11.613281 4.199219 11.613281 4.199219 L 11.558594 4.21875 C 11.554688 4.226562 11.679688 4.273438 11.679688 4.273438 C 11.679688 4.273438 11.640625 4.304688 11.644531 4.308594 C 11.652344 4.316406 11.746094 4.335938 11.746094 4.335938 C 11.746094 4.339844 11.679688 4.359375 11.679688 4.359375 C 11.703125 4.378906 11.773438 4.386719 11.789062 4.425781 C 11.789062 4.425781 11.796875 4.445312 11.769531 4.441406 C 11.664062 4.40625 11.503906 4.335938 11.191406 4.363281 C 10.875 4.402344 10.628906 4.660156 10.632812 4.6875 C 10.632812 4.6875 10.75 4.609375 10.761719 4.625 Z M 10.761719 4.625 "/>
<path style=" stroke:none;fill-rule:evenodd;fill:rgb(54.901961%,25.882353%,0%);fill-opacity:1;" d="M 11.972656 4.609375 C 11.953125 4.578125 11.910156 4.570312 11.878906 4.589844 C 11.847656 4.605469 11.835938 4.648438 11.859375 4.679688 C 11.878906 4.710938 11.921875 4.71875 11.953125 4.699219 C 11.984375 4.679688 11.992188 4.640625 11.972656 4.609375 Z M 11.972656 4.609375 "/>
<path style=" stroke:none;fill-rule:evenodd;fill:rgb(54.901961%,25.882353%,0%);fill-opacity:1;" d="M 11.964844 4.664062 C 11.988281 4.628906 12.035156 4.617188 12.074219 4.640625 C 12.109375 4.660156 12.117188 4.707031 12.09375 4.742188 C 12.070312 4.777344 12.019531 4.789062 11.984375 4.769531 C 11.949219 4.746094 11.9375 4.699219 11.964844 4.664062 Z M 11.964844 4.664062 "/>
<path style=" stroke:none;fill-rule:evenodd;fill:rgb(54.901961%,25.882353%,0%);fill-opacity:1;" d="M 11.867188 4.722656 C 11.894531 4.683594 11.945312 4.671875 11.984375 4.695312 C 12.023438 4.71875 12.03125 4.765625 12.007812 4.804688 C 11.980469 4.84375 11.929688 4.855469 11.890625 4.832031 C 11.851562 4.808594 11.839844 4.761719 11.867188 4.722656 Z M 11.867188 4.722656 "/>
<path style=" stroke:none;fill-rule:evenodd;fill:rgb(0%,0%,0%);fill-opacity:1;" d="M 11.304688 7.183594 L 11.40625 7.183594 L 11.40625 7.257812 L 11.304688 7.257812 Z M 11.304688 7.183594 "/>
<path style=" stroke:none;fill-rule:evenodd;fill:rgb(54.901961%,25.882353%,0%);fill-opacity:1;" d="M 10.796875 7.230469 C 10.796875 7.230469 11.464844 7.277344 11.875 7.195312 C 11.875 7.195312 11.910156 7.21875 11.859375 7.273438 C 11.808594 7.324219 11.683594 7.335938 11.617188 7.347656 C 11.617188 7.347656 11.597656 7.382812 11.601562 7.402344 C 11.601562 7.417969 11.644531 7.417969 11.664062 7.414062 L 11.683594 7.410156 C 11.683594 7.410156 11.675781 7.476562 11.421875 7.484375 C 11.339844 7.488281 11.066406 7.492188 11.007812 7.417969 C 11.007812 7.417969 11.058594 7.421875 11.070312 7.417969 C 11.085938 7.414062 11.074219 7.367188 11.070312 7.359375 C 11.066406 7.351562 10.894531 7.359375 10.800781 7.28125 C 10.78125 7.257812 10.769531 7.234375 10.769531 7.226562 C 10.769531 7.226562 10.796875 7.230469 10.796875 7.230469 Z M 11.144531 7.363281 C 11.144531 7.363281 11.328125 7.382812 11.539062 7.363281 C 11.539062 7.363281 11.542969 7.398438 11.535156 7.414062 C 11.523438 7.425781 11.28125 7.4375 11.160156 7.417969 C 11.140625 7.410156 11.140625 7.390625 11.144531 7.363281 Z M 11.144531 7.363281 "/>
<path style=" stroke:none;fill-rule:evenodd;fill:rgb(99.215686%,97.647059%,100%);fill-opacity:1;" d="M 10.890625 7.199219 C 10.890625 7.199219 11.136719 6.953125 11.0625 6.441406 C 11.0625 6.441406 11.320312 6.503906 11.582031 6.859375 C 11.582031 6.859375 11.660156 6.929688 11.75 7.1875 Z M 10.890625 7.199219 "/>
<path style=" stroke:none;fill-rule:evenodd;fill:rgb(77.647059%,12.941176%,22.352941%);fill-opacity:1;" d="M 12.007812 2.773438 C 12.007812 2.773438 9.886719 4.242188 9.886719 5.980469 C 9.886719 7.714844 12.007812 9.226562 12.007812 9.226562 C 12.007812 9.226562 14.113281 7.839844 14.113281 5.980469 C 14.113281 4.117188 12.007812 2.773438 12.007812 2.773438 Z M 12.007812 3.128906 C 12.007812 3.128906 10.117188 4.4375 10.117188 5.980469 C 10.117188 7.527344 12.007812 8.871094 12.007812 8.871094 C 12.007812 8.871094 13.882812 7.636719 13.882812 5.980469 C 13.882812 4.328125 12.007812 3.128906 12.007812 3.128906 Z M 12.007812 3.128906 "/>
</g>
</svg>
