<?xml version="1.0" encoding="UTF-8"?>
<svg xmlns="http://www.w3.org/2000/svg" xmlns:xlink="http://www.w3.org/1999/xlink" width="24px" height="24px" viewBox="0 0 24 16" version="1.1">
<g id="surface1">
<rect x="0" y="0" width="24" height="16" style="fill:rgb(93.333333%,10.980392%,14.509804%);fill-opacity:1;stroke:none;"/>
<path style=" stroke:none;fill-rule:nonzero;fill:rgb(100%,100%,100%);fill-opacity:1;" d="M 12 7.996094 C 9.191406 6.8125 10.4375 3.15625 13.121094 3.339844 C 12.578125 3.617188 12.5 4.140625 12.808594 4.621094 C 13.15625 5.160156 12.777344 6.03125 12.308594 6.242188 C 11.535156 6.589844 11.382812 7.515625 12 7.996094 Z M 12 7.996094 "/>
<path style=" stroke:none;fill-rule:nonzero;fill:rgb(93.333333%,10.980392%,14.509804%);fill-opacity:1;" d="M 11.847656 5.359375 L 11.6875 5.605469 L 11.632812 5.316406 L 11.347656 5.242188 L 11.605469 5.101562 L 11.585938 4.808594 L 11.800781 5.007812 L 12.074219 4.898438 L 11.953125 5.164062 L 12.140625 5.390625 Z M 12.015625 7.96875 C 11.675781 7.792969 11.402344 7.429688 11.28125 6.996094 C 11.144531 6.496094 11.222656 5.960938 11.496094 5.527344 L 11.4375 5.492188 C 11.15625 5.941406 11.074219 6.496094 11.214844 7.015625 C 11.339844 7.472656 11.621094 7.84375 11.984375 8.027344 Z M 12.015625 7.96875 "/>
<path style=" stroke:none;fill-rule:nonzero;fill:rgb(100%,100%,100%);fill-opacity:1;" d="M 12 8 C 12.261719 4.960938 16.125 5.015625 16.777344 7.625 C 16.347656 7.195312 15.824219 7.28125 15.464844 7.726562 C 15.058594 8.222656 14.113281 8.128906 13.765625 7.75 C 13.199219 7.121094 12.269531 7.261719 12 8 Z M 12 8 "/>
<path style=" stroke:none;fill-rule:nonzero;fill:rgb(93.333333%,10.980392%,14.509804%);fill-opacity:1;" d="M 14.464844 7.039062 L 14.179688 6.964844 L 14.4375 6.820312 L 14.417969 6.527344 L 14.636719 6.726562 L 14.910156 6.621094 L 14.785156 6.886719 L 14.972656 7.113281 L 14.679688 7.078125 L 14.523438 7.328125 Z M 12.035156 8.003906 C 12.097656 7.628906 12.359375 7.253906 12.734375 7.007812 C 13.164062 6.722656 13.699219 6.632812 14.195312 6.757812 L 14.214844 6.691406 C 13.695312 6.5625 13.144531 6.65625 12.695312 6.949219 C 12.296875 7.210938 12.03125 7.589844 11.96875 7.992188 Z M 12.035156 8.003906 "/>
<path style=" stroke:none;fill-rule:nonzero;fill:rgb(100%,100%,100%);fill-opacity:1;" d="M 12.003906 8 C 14.96875 7.3125 16.113281 11 13.832031 12.429688 C 14.109375 11.882812 13.867188 11.417969 13.332031 11.207031 C 12.734375 10.976562 12.527344 10.050781 12.785156 9.601562 C 13.203125 8.867188 12.785156 8.027344 12.003906 8 Z M 12.003906 8 "/>
<path style=" stroke:none;fill-rule:nonzero;fill:rgb(93.333333%,10.980392%,14.509804%);fill-opacity:1;" d="M 13.675781 10.046875 L 13.660156 9.753906 L 13.875 9.953125 L 14.148438 9.847656 L 14.023438 10.113281 L 14.210938 10.339844 L 13.917969 10.304688 L 13.761719 10.554688 L 13.703125 10.265625 L 13.421875 10.191406 Z M 12.007812 8.035156 C 12.382812 7.976562 12.820312 8.109375 13.171875 8.390625 C 13.574219 8.714844 13.824219 9.191406 13.859375 9.703125 L 13.929688 9.699219 C 13.894531 9.167969 13.632812 8.671875 13.214844 8.335938 C 12.84375 8.039062 12.398438 7.90625 11.996094 7.964844 Z M 12.007812 8.035156 "/>
<path style=" stroke:none;fill-rule:nonzero;fill:rgb(100%,100%,100%);fill-opacity:1;" d="M 12 8.003906 C 13.574219 10.613281 10.417969 12.839844 8.355469 11.113281 C 8.957031 11.207031 9.328125 10.832031 9.359375 10.257812 C 9.394531 9.617188 10.214844 9.136719 10.71875 9.242188 C 11.546875 9.414062 12.214844 8.753906 12 8.003906 Z M 12 8.003906 "/>
<path style=" stroke:none;fill-rule:nonzero;fill:rgb(93.333333%,10.980392%,14.509804%);fill-opacity:1;" d="M 10.570312 10.226562 L 10.84375 10.121094 L 10.71875 10.386719 L 10.90625 10.613281 L 10.617188 10.578125 L 10.457031 10.828125 L 10.402344 10.539062 L 10.117188 10.464844 L 10.371094 10.320312 L 10.355469 10.027344 Z M 11.96875 8.019531 C 12.140625 8.359375 12.148438 8.8125 11.988281 9.234375 C 11.808594 9.71875 11.429688 10.105469 10.953125 10.296875 L 10.980469 10.359375 C 11.472656 10.160156 11.867188 9.761719 12.054688 9.257812 C 12.222656 8.8125 12.214844 8.351562 12.03125 7.988281 Z M 11.96875 8.019531 "/>
<path style=" stroke:none;fill-rule:nonzero;fill:rgb(100%,100%,100%);fill-opacity:1;" d="M 11.996094 8 C 10 10.304688 6.910156 7.988281 7.914062 5.492188 C 8.011719 6.097656 8.480469 6.332031 9.035156 6.1875 C 9.65625 6.023438 10.367188 6.652344 10.421875 7.164062 C 10.515625 8.003906 11.347656 8.4375 11.996094 8 Z M 11.996094 8 "/>
<path style=" stroke:none;fill-rule:nonzero;fill:rgb(93.333333%,10.980392%,14.509804%);fill-opacity:1;" d="M 9.441406 7.328125 L 9.625 7.554688 L 9.335938 7.519531 L 9.175781 7.769531 L 9.121094 7.480469 L 8.835938 7.40625 L 9.089844 7.261719 L 9.074219 6.96875 L 9.289062 7.167969 L 9.5625 7.0625 Z M 11.972656 7.976562 C 11.703125 8.246094 11.273438 8.394531 10.824219 8.371094 C 10.308594 8.347656 9.824219 8.109375 9.492188 7.714844 L 9.441406 7.757812 C 9.78125 8.167969 10.285156 8.417969 10.820312 8.441406 C 11.296875 8.464844 11.734375 8.3125 12.023438 8.023438 Z M 11.972656 7.976562 "/>
</g>
</svg>
