<?xml version="1.0" encoding="UTF-8"?>
<svg xmlns="http://www.w3.org/2000/svg" xmlns:xlink="http://www.w3.org/1999/xlink" width="24px" height="24px" viewBox="0 0 24 12" version="1.1">
<g id="surface1">
<rect x="0" y="0" width="24" height="12" style="fill:rgb(5.098039%,23.137255%,60%);fill-opacity:1;stroke:none;"/>
<path style=" stroke:none;fill-rule:nonzero;fill:rgb(100%,100%,100%);fill-opacity:1;" d="M 24 4 L 0 4 L 0 8 L 24 8 Z M 24 4 "/>
<path style=" stroke:none;fill-rule:nonzero;fill:rgb(5.098039%,23.137255%,60%);fill-opacity:1;" d="M 12 5.332031 L 12.390625 6.539062 L 11.367188 5.792969 L 12.632812 5.792969 L 11.609375 6.539062 Z M 12 5.332031 "/>
<path style=" stroke:none;fill-rule:nonzero;fill:rgb(5.098039%,23.137255%,60%);fill-opacity:1;" d="M 8.667969 4.335938 L 9.058594 5.539062 L 8.03125 4.792969 L 9.300781 4.792969 L 8.273438 5.539062 Z M 8.667969 4.335938 "/>
<path style=" stroke:none;fill-rule:nonzero;fill:rgb(5.098039%,23.137255%,60%);fill-opacity:1;" d="M 8.667969 6.332031 L 9.058594 7.539062 L 8.03125 6.792969 L 9.300781 6.792969 L 8.273438 7.539062 Z M 8.667969 6.332031 "/>
<path style=" stroke:none;fill-rule:nonzero;fill:rgb(5.098039%,23.137255%,60%);fill-opacity:1;" d="M 15.332031 4.335938 L 15.726562 5.539062 L 14.699219 4.792969 L 15.96875 4.792969 L 14.941406 5.539062 Z M 15.332031 4.335938 "/>
<path style=" stroke:none;fill-rule:nonzero;fill:rgb(5.098039%,23.137255%,60%);fill-opacity:1;" d="M 15.332031 6.332031 L 15.726562 7.539062 L 14.699219 6.792969 L 15.96875 6.792969 L 14.941406 7.539062 Z M 15.332031 6.332031 "/>
</g>
</svg>
