<?xml version="1.0" encoding="UTF-8"?>
<svg xmlns="http://www.w3.org/2000/svg" xmlns:xlink="http://www.w3.org/1999/xlink" width="24px" height="24px" viewBox="0 0 24 12" version="1.1">
<g id="surface1">
<rect x="0" y="0" width="24" height="12" style="fill:rgb(81.176471%,7.843137%,16.862745%);fill-opacity:1;stroke:none;"/>
<path style="fill-rule:nonzero;fill:rgb(97.647059%,86.666667%,8.627451%);fill-opacity:1;stroke-width:1;stroke-linecap:butt;stroke-linejoin:miter;stroke:rgb(0%,0%,0%);stroke-opacity:1;stroke-miterlimit:4;" d="M 225.981584 126.386305 C 226.172237 126.568008 228.811222 128.172838 228.900518 128.075888 C 228.897504 127.981987 235.778646 126.438659 235.689349 126.535609 C 235.692364 126.62951 231.861661 131.080085 232.049298 131.167886 C 232.236936 131.255688 235.987822 135.831805 236.080133 135.828756 C 236.17546 135.919607 228.948041 135.312362 228.948041 135.312362 L 224.17312 139.136125 L 223.087204 134.095967 C 223.087204 134.095967 217.011594 131.946663 216.919283 131.949712 C 216.823957 131.858861 222.129777 130.179572 222.129777 130.179572 L 223.661741 126.086939 C 223.661741 126.086939 225.70465 126.395453 225.981584 126.386305 Z M 225.981584 126.386305 " transform="matrix(0.0422712,0.0013728,-0.0013572,0.0415556,-0.5802,-1.24588)"/>
<path style="fill-rule:nonzero;fill:rgb(100%,100%,100%);fill-opacity:1;stroke-width:1.3;stroke-linecap:butt;stroke-linejoin:miter;stroke:rgb(0%,0%,0%);stroke-opacity:1;stroke-miterlimit:4;" d="M 314.456627 136.247586 C 314.502565 131.922042 306.124334 112.740702 304.738514 109.872465 C 302.232898 106.665219 299.482362 101.586052 298.325239 97.206252 C 297.534345 92.720352 295.207323 89.319205 291.841906 88.114374 C 288.08011 86.076633 284.316449 86.85897 280.630025 87.168753 C 278.888169 87.602298 277.346011 88.499249 276.560432 89.935209 C 274.524702 92.728477 273.500233 92.480319 272.154756 93.746774 C 261.027292 95.430381 250.494039 101.230383 242.577518 105.063928 C 238.329331 108.024285 234.68813 109.742583 233.035571 110.079178 C 228.5093 110.134703 225.206046 107.987814 223.689871 106.815894 L 208.366469 92.940019 C 203.916286 89.609011 202.774671 94.346753 203.629592 95.070515 C 205.119783 98.311306 201.946168 100.202158 214.141894 111.643341 L 218.698748 121.174862 C 218.698748 121.174862 218.503216 123.719337 218.690853 123.807139 C 220.893551 129.092405 224.4545 127.75276 226.070881 126.289354 L 229.663843 123.068641 C 229.663843 123.068641 236.890112 120.761907 236.976394 120.571056 C 244.683458 121.726459 264.427891 117.878177 267.705876 116.35988 C 270.611601 114.759879 270.838432 116.068394 273.359837 114.011087 C 275.533101 112.623284 274.369232 113.78974 278.227069 110.184274 C 279.486265 109.10867 280.463646 110.768392 280.687462 111.983006 C 280.861609 123.163321 282.290787 130.26015 283.295737 141.413019 L 300.019599 149.978597 Z M 314.456627 136.247586 " transform="matrix(0.0422712,0.0013728,-0.0013572,0.0415556,-0.5802,-1.24588)"/>
<path style=" stroke:none;fill-rule:nonzero;fill:rgb(97.647059%,86.666667%,8.627451%);fill-opacity:1;" d="M 8.488281 3.304688 C 8.496094 3.308594 8.359375 3.699219 8.359375 3.699219 C 8.359375 3.699219 8.25 3.585938 8.25 3.582031 L 8.34375 3.171875 Z M 8.488281 3.304688 "/>
<path style="fill:none;stroke-width:1.13;stroke-linecap:butt;stroke-linejoin:miter;stroke:rgb(0%,0%,0%);stroke-opacity:1;stroke-miterlimit:4;" d="M 217.896076 101.931262 C 217.824869 102.591619 217.269136 105.429995 216.924009 106.1934 C 216.766521 107.044608 216.519735 107.992766 216.362246 108.843974 C 216.115461 109.792133 216.041239 110.358588 215.705157 111.403697 C 215.636965 112.157954 215.479476 113.009162 215.229676 113.863419 M 213.412729 97.567344 C 213.415744 97.661245 213.630515 98.594155 213.648605 99.157561 C 213.574382 99.724016 213.456087 101.795937 213.200257 102.462392 C 213.042768 103.3136 212.882265 104.070907 212.721761 104.828214 C 212.564272 105.679421 212.49005 106.245877 212.243265 107.194035 C 212.175072 107.948292 212.011554 108.611698 211.85105 109.369005 " transform="matrix(0.0422712,0.0013728,-0.0013572,0.0415556,-0.5802,-1.24588)"/>
<path style="fill:none;stroke-width:1;stroke-linecap:butt;stroke-linejoin:miter;stroke:rgb(0%,0%,0%);stroke-opacity:1;stroke-miterlimit:4;" d="M 262.266533 96.61145 C 265.814707 100.63026 266.945847 107.078931 266.22961 110.674614 M 248.423 120.192914 L 248.419985 120.099013 C 248.247422 120.480716 248.426015 120.286815 248.026621 119.360003 C 247.645316 118.996598 247.296025 116.752123 247.998337 115.600915 C 248.161856 114.937509 248.596279 114.077153 248.852108 113.410697 C 248.941405 113.313747 249.212309 113.116796 249.298591 112.925945 M 222.763743 106.752488 L 222.769773 106.94029 L 222.507913 107.418943 C 222.159772 108.088448 221.716304 108.667102 221.365148 109.242706 C 221.013992 109.818309 220.570525 110.396963 220.219368 110.972567 C 219.775901 111.55122 219.430775 112.314626 218.987307 112.89328 C 218.642181 113.656686 218.195698 114.141438 217.758261 114.907894 C 217.407105 115.483497 217.139215 115.774349 216.791074 116.443854 L 217.758261 114.907894 C 217.407105 115.483497 217.139215 115.774349 216.791074 116.443854 M 209.808422 94.678395 C 209.903748 94.769246 210.115505 95.608256 210.130579 96.077761 C 210.056357 96.644216 210.027358 98.619186 209.771528 99.285641 C 209.60801 99.949047 209.539817 100.703304 209.471625 101.457562 C 209.21881 102.217918 209.236899 102.781324 208.984084 103.54168 C 208.915892 104.295938 208.844685 104.956294 208.681166 105.6197 M 225.421252 117.568762 C 224.560301 116.657198 224.015478 116.957198 223.553921 116.972446 C 222.910756 117.087694 221.818095 117.593793 220.743522 118.663298 C 220.29704 119.14805 220.029151 119.438902 219.490357 119.926704 C 219.225482 120.311456 219.043875 120.411456 218.77297 120.608407 M 288.503623 87.754652 L 288.414327 87.851603 C 288.58689 87.4699 288.503623 87.754652 288.623069 88.596711 C 288.921107 89.24487 288.936181 89.714374 289.234219 90.362533 M 275.399578 91.195566 C 275.402592 91.289467 275.230464 100.319208 275.638902 101.527722 C 275.755333 102.27588 275.958045 102.833187 276.080505 103.769147 C 276.098594 104.332553 276.202965 104.705108 276.221054 105.268513 C 276.516077 105.822771 276.626478 106.383127 276.918486 106.843483 C 277.031902 107.49774 277.588785 107.573344 277.883808 108.127602 C 278.268128 108.584908 278.846115 109.317819 279.224405 109.587324 M 269.170798 115.935484 C 268.890849 115.850731 268.134269 115.311722 267.568342 114.954415 C 266.817791 114.603207 265.182171 112.589228 265.044637 111.183763 " transform="matrix(0.0422712,0.0013728,-0.0013572,0.0415556,-0.5802,-1.24588)"/>
<path style="fill:none;stroke-width:1;stroke-linecap:butt;stroke-linejoin:miter;stroke:rgb(0%,0%,0%);stroke-opacity:1;stroke-miterlimit:4;" d="M 275.874778 103.11794 C 275.877793 103.211841 274.981813 104.087445 273.460759 105.641702 C 271.484177 107.399009 266.315891 110.483763 265.675742 110.692911 C 265.038607 110.995961 264.32122 111.677664 263.675041 111.699011 C 263.037906 112.00206 262.30243 112.120357 261.659266 112.235605 C 260.926805 112.447803 260.191329 112.5661 259.637461 112.584398 C 257.723042 113.399645 248.009247 113.062539 247.544675 112.983886 C 246.990807 113.002183 246.433924 112.926579 245.880056 112.944876 C 245.421514 113.054025 244.864632 112.978421 244.218452 112.999768 C 243.476947 112.930263 243.02142 113.133313 242.37524 113.15466 C 241.922728 113.45161 241.097956 113.666858 240.463836 114.063808 C 239.73439 114.369908 239.287907 114.85466 238.740069 115.060759 C 238.201276 115.548561 230.579777 119.936364 230.216562 120.136364 C 229.487116 120.442464 226.649583 121.288207 225.940091 119.337633 C 225.728335 118.498623 225.331955 117.665713 225.313866 117.102307 C 225.105125 116.357198 225.265628 115.599891 225.244524 114.942585 C 225.966791 111.534704 227.032318 110.183496 227.291163 109.610942 L 227.639304 108.941437 M 297.839563 96.470292 L 297.842578 96.564193 C 298.015141 96.18249 297.928859 96.373341 297.393081 96.955044 C 296.943583 97.345896 296.318508 98.024549 295.869011 98.415401 C 295.422529 98.900153 295.071372 99.475757 294.615845 99.678807 C 294.261674 100.16051 293.713836 100.366609 293.169013 100.666609 C 292.528863 100.875757 291.891728 101.178807 291.257608 101.575758 C 290.438866 101.978807 289.989369 102.369659 289.173641 102.866609 C 288.730174 103.445263 288.280676 103.836114 287.840224 104.508669 C 287.492082 105.178174 287.048615 105.756827 286.700474 106.426332 L 285.739317 108.150094 L 286.700474 106.426332 L 285.739317 108.150094 M 291.610937 144.240343 L 291.694204 143.955591 C 291.432344 144.434244 291.521641 144.337294 291.774456 143.576937 C 291.744307 142.637928 291.985062 141.501967 291.957929 140.656859 C 292.115417 139.805651 292.269891 138.860542 292.332054 137.918483 C 292.206579 136.888622 292.271756 136.040463 292.05397 135.013652 C 292.116133 134.071593 291.993673 133.135632 291.963524 132.196623 C 291.93639 131.351514 291.81996 130.603356 291.700514 129.761297 C 291.67941 129.10399 291.649261 128.16498 291.44052 127.419871 C 291.511727 126.759515 291.401326 126.199159 291.201629 125.735753 C 290.983843 124.708941 290.873442 124.148585 290.658671 123.215674 C 290.455959 122.658368 290.342544 122.00411 290.130787 121.165101 C 290.014357 120.416942 289.611948 119.39623 289.406221 118.745022 C 289.206524 118.281616 289.000797 117.630409 288.890396 117.070052 C 288.687684 116.512745 288.297335 115.867637 288.279246 115.304231 C 287.987237 114.843875 287.686184 114.101816 287.480457 113.450608 C 287.185434 112.896351 287.072019 112.242093 286.776995 111.687836 C 286.571269 111.036628 286.276245 110.482371 286.067504 109.737262 C 285.78454 109.558609 285.775495 109.276906 285.677154 109.092154 " transform="matrix(0.0422712,0.0013728,-0.0013572,0.0415556,-0.5802,-1.24588)"/>
<path style="fill-rule:nonzero;fill:rgb(97.647059%,86.666667%,8.627451%);fill-opacity:1;stroke-width:1;stroke-linecap:butt;stroke-linejoin:miter;stroke:rgb(0%,0%,0%);stroke-opacity:1;stroke-miterlimit:4;" d="M 289.925622 91.749701 C 289.062806 93.658215 286.842454 96.457582 286.845469 96.551483 L 284.759636 100.662413 C 283.816568 102.949581 284.400585 103.870294 284.790935 104.515402 C 285.669975 105.990372 285.786405 106.73853 286.376452 107.847045 C 286.606297 109.24946 284.218262 109.704352 284.128966 109.801302 C 279.010783 111.568393 276.4509 106.670929 276.441855 106.389226 C 275.714274 103.875247 275.791511 103.402692 277.34573 102.881345 C 279.179897 102.444751 279.918388 102.420355 280.823412 101.826453 C 282.445823 100.550849 283.709898 96.749068 283.706883 96.655167 C 283.703868 96.561266 283.914475 94.486296 283.914475 94.486296 C 284.065934 93.447286 283.574228 92.523524 284.17217 90.999762 C 284.767096 89.382098 285.216594 88.991247 286.782872 88.845504 C 288.903017 88.681464 290.520548 90.132037 289.925622 91.749701 Z M 289.925622 91.749701 " transform="matrix(0.0422712,0.0013728,-0.0013572,0.0415556,-0.5802,-1.24588)"/>
<path style="fill-rule:nonzero;fill:rgb(97.647059%,86.666667%,8.627451%);fill-opacity:1;stroke-width:1;stroke-linecap:butt;stroke-linejoin:miter;stroke:rgb(0%,0%,0%);stroke-opacity:1;stroke-miterlimit:4;" d="M 225.961947 126.370373 C 226.18815 126.556069 228.849247 128.165224 228.880263 128.037243 C 228.960076 127.987682 235.718119 126.400441 235.766916 126.478861 C 235.687102 126.528422 231.874244 131.070493 232.05165 131.17777 C 232.229057 131.285047 236.021564 135.779403 236.070361 135.857823 C 236.19897 135.88668 228.957111 135.273787 228.957111 135.273787 L 224.159627 139.122635 L 223.058839 134.15273 C 223.058839 134.15273 217.022869 131.921255 216.943056 131.970816 C 216.814446 131.941959 222.126764 130.165264 222.126764 130.165264 L 223.66475 126.057333 C 223.66475 126.057333 225.67371 126.440638 225.961947 126.370373 Z M 225.961947 126.370373 " transform="matrix(-0.022311,0.0353018,-0.0359293,-0.0219667,23.980271,-1.89624)"/>
<path style="fill-rule:nonzero;fill:rgb(100%,100%,100%);fill-opacity:1;stroke-width:1.3;stroke-linecap:butt;stroke-linejoin:miter;stroke:rgb(0%,0%,0%);stroke-opacity:1;stroke-miterlimit:4;" d="M 314.50557 136.184942 C 314.518017 131.937118 306.141592 112.785251 304.752962 109.842333 C 302.206844 106.639695 299.500705 101.579459 298.324648 97.199896 C 297.565436 92.778926 295.209961 89.349185 291.910358 88.136522 C 288.073993 86.061248 284.278125 86.896275 280.686138 87.169819 C 278.907924 87.512991 277.360457 88.582639 276.553632 89.953414 C 274.523136 92.736372 273.494258 92.50551 272.172994 93.760854 C 261.051304 95.448491 250.573453 101.19386 242.503234 105.118005 C 238.339711 108.029581 234.743574 109.719065 233.09397 110.091095 C 228.552917 110.084215 225.262007 107.996391 223.647569 106.824499 L 208.318703 92.859637 C 203.958811 89.587372 202.811199 94.322656 203.636198 95.115002 C 205.171217 98.293177 201.929893 100.197216 214.140712 111.64075 L 218.696974 121.096857 C 218.696974 121.096857 218.462473 123.743043 218.639879 123.85032 C 220.898156 129.079944 224.401243 127.774402 226.04176 126.320812 L 229.752876 123.037844 C 229.752876 123.037844 236.874424 120.789997 236.936457 120.534035 C 244.648503 121.72472 264.417279 117.929129 267.645367 116.359471 C 270.616235 114.732098 270.820509 116.127335 273.369987 114.000589 C 275.524943 112.66243 274.314509 113.740232 278.296081 110.180599 C 279.506515 109.102797 280.451431 110.799162 280.637925 111.987999 C 280.844171 123.166844 282.300167 130.308024 283.260292 141.453616 L 299.971665 149.993729 Z M 314.50557 136.184942 " transform="matrix(-0.022311,0.0353018,-0.0359293,-0.0219667,23.980271,-1.89624)"/>
<path style=" stroke:none;fill-rule:nonzero;fill:rgb(97.647059%,86.666667%,8.627451%);fill-opacity:1;" d="M 15.445312 3.546875 C 15.4375 3.550781 15.160156 3.238281 15.160156 3.238281 C 15.160156 3.238281 15.316406 3.203125 15.316406 3.203125 L 15.632812 3.488281 Z M 15.445312 3.546875 "/>
<path style="fill:none;stroke-width:1.13;stroke-linecap:butt;stroke-linejoin:miter;stroke:rgb(0%,0%,0%);stroke-opacity:1;stroke-miterlimit:4;" d="M 217.925914 101.897275 C 217.770832 102.537179 217.265874 105.46003 216.951165 106.199056 C 216.734049 107.09492 216.516933 107.990785 216.379631 108.837088 C 216.082701 109.782514 216.007432 110.372856 215.710503 111.318282 C 215.621997 112.243004 215.435898 113.010888 215.249798 113.778772 M 213.348512 97.564153 C 213.446105 97.720991 213.645835 98.575448 213.650379 99.116229 C 213.575109 99.70657 213.415877 101.762415 213.180982 102.451879 C 213.043679 103.298182 212.85758 104.066066 212.80009 104.862808 C 212.534178 105.680253 212.458908 106.270595 212.241792 107.16646 C 212.135506 107.884782 212.02922 108.603104 211.843121 109.370988 " transform="matrix(-0.022311,0.0353018,-0.0359293,-0.0219667,23.980271,-1.89624)"/>
<path style="fill:none;stroke-width:1;stroke-linecap:butt;stroke-linejoin:miter;stroke:rgb(0%,0%,0%);stroke-opacity:1;stroke-miterlimit:4;" d="M 262.248897 96.661791 C 265.828437 100.636071 266.973872 107.100336 266.234019 110.712652 M 248.39103 120.270493 L 248.422047 120.142513 C 248.200387 120.497597 248.39103 120.270493 248.06269 119.387179 C 247.561487 118.937367 247.33489 116.794949 247.902275 115.572858 C 248.185968 114.961813 248.611506 114.045245 248.895199 113.434199 C 249.006029 113.256657 249.245468 113.107973 249.276485 112.979992 M 222.844893 106.779333 L 222.685267 106.878456 L 222.481387 107.43994 C 222.117882 108.100546 221.656783 108.604315 221.37309 109.21536 C 221.089398 109.826406 220.548485 110.379736 220.264793 110.990781 C 219.85249 111.572969 219.457968 112.361557 219.045666 112.943744 C 218.602347 113.653913 218.141248 114.157681 217.746725 114.946269 C 217.463033 115.557314 217.192577 115.833979 216.829071 116.494586 L 217.746725 114.946269 C 217.463033 115.557314 217.192577 115.833979 216.829071 116.494586 M 209.778059 94.671433 C 209.826855 94.749852 210.106399 95.554748 210.110942 96.095528 C 210.115486 96.636309 209.987271 98.564173 209.752375 99.253637 C 209.646089 99.97196 209.539802 100.690282 209.433516 101.408605 C 209.247417 102.176488 209.172148 102.76683 208.986048 103.534714 C 209.008372 104.281894 208.853289 104.921798 208.747003 105.64012 M 225.374809 117.602457 C 224.580826 116.68213 224.101947 116.979498 223.507695 116.913629 C 222.931222 117.054159 221.796058 117.54162 220.714233 118.648279 C 220.332947 119.102487 219.982678 119.428713 219.472782 119.854062 C 219.17131 120.258708 219.06048 120.43625 218.741227 120.634496 M 288.473453 87.770162 L 288.442437 87.898143 C 288.615299 87.46464 288.424657 87.691743 288.673183 88.624619 C 288.855134 89.272677 288.93949 89.763896 289.201254 90.362392 M 275.440791 91.188054 C 275.409774 91.316035 275.260813 100.323605 275.65573 101.491739 C 275.757867 102.189357 275.939817 102.837415 276.059734 103.741433 C 276.064277 104.282214 276.148634 104.773433 276.232991 105.264652 C 276.494754 105.863147 276.627908 106.432785 276.920688 106.903301 C 277.102638 107.551358 277.56828 107.58837 277.830044 108.186866 C 278.202637 108.607819 278.85023 109.292889 279.253839 109.585862 M 269.166361 115.958584 C 268.860345 115.82245 268.181735 115.265361 267.569703 114.993092 C 266.860077 114.563984 265.174518 112.566492 265.050057 111.121693 " transform="matrix(-0.022311,0.0353018,-0.0359293,-0.0219667,23.980271,-1.89624)"/>
<path style="fill:none;stroke-width:1;stroke-linecap:butt;stroke-linejoin:miter;stroke:rgb(0%,0%,0%);stroke-opacity:1;stroke-miterlimit:4;" d="M 275.877784 103.093376 C 275.92658 103.171795 274.955586 104.100913 273.443679 105.583361 C 271.581502 107.392035 266.296052 110.456691 265.688563 110.725201 C 265.081074 110.993712 264.251926 111.617307 263.675453 111.757838 C 263.067964 112.026349 262.362882 112.138021 261.6578 112.249694 C 260.872904 112.410928 260.216619 112.601019 259.59135 112.66313 C 257.720086 113.390244 248.025947 113.104214 247.511507 112.988783 C 246.966052 113.001333 246.371799 112.935463 245.906156 112.898451 C 245.409497 112.98942 244.864041 113.00197 244.189976 112.985662 C 243.51591 112.969354 243.019251 113.060322 242.393982 113.122433 C 241.915103 113.419802 241.099191 113.709017 240.540498 114.055947 C 239.724586 114.345161 239.263487 114.84893 238.735811 115.067879 C 238.146103 115.54279 230.577086 119.916747 230.257833 120.114993 C 229.490718 120.482626 226.577339 121.313258 225.902879 119.340229 C 225.703149 118.485771 225.343793 117.730437 225.290452 117.111238 C 225.059705 116.384761 225.245805 115.616877 225.272278 114.948116 C 225.901301 111.513343 227.045159 110.150721 227.377648 109.618095 L 227.661341 109.00705 M 297.836681 96.415704 L 297.805665 96.543685 C 297.947511 96.238162 297.916494 96.366143 297.424379 96.997892 C 296.914483 97.423241 296.373571 97.976571 295.863675 98.401921 C 295.482389 98.856128 294.990274 99.487877 294.622224 99.607703 C 294.209922 100.189891 293.762059 100.359279 293.15457 100.62779 C 292.547081 100.896301 291.859779 101.214373 291.301087 101.561303 C 290.454158 101.978499 289.944263 102.403848 289.225944 102.849901 C 288.685032 103.403231 288.254949 103.779019 287.81163 104.489187 C 287.448125 105.149794 287.035822 105.731982 286.672316 106.392589 L 285.772442 108.147306 L 286.672316 106.392589 L 285.772442 108.147306 M 291.611238 144.204531 L 291.673271 143.94857 C 291.420595 144.431635 291.580221 144.332512 291.76632 143.564628 C 291.726217 142.611048 292.005365 141.459222 291.983042 140.712042 C 292.151361 139.737758 292.288664 138.891455 292.24856 137.937875 C 292.288269 136.934734 292.248165 135.981154 292.079452 134.998716 C 292.088144 134.123555 291.919431 133.141117 291.928124 132.265956 C 291.936816 131.390795 291.865696 130.565196 291.665966 129.710739 C 291.612626 129.091539 291.621318 128.216379 291.470385 127.440341 C 291.496858 126.77158 291.363704 126.201942 291.279348 125.710723 C 290.982024 124.699427 290.897667 124.208208 290.600344 123.196913 C 290.46719 122.627274 290.28524 121.979217 290.134307 121.203179 C 289.983373 120.427141 289.606236 119.465407 289.424286 118.81735 C 289.21132 118.297273 289.02937 117.649216 288.896216 117.079578 C 288.683249 116.559501 288.372689 115.882586 288.239536 115.312948 C 287.946756 114.842433 287.716009 114.115956 287.454246 113.51746 C 287.192483 112.918965 287.010533 112.270907 286.797566 111.750831 C 286.566819 111.024354 286.225243 110.47542 286.074309 109.699382 C 285.848106 109.513686 285.781529 109.228867 285.683936 109.072028 " transform="matrix(-0.022311,0.0353018,-0.0359293,-0.0219667,23.980271,-1.89624)"/>
<path style="fill-rule:nonzero;fill:rgb(97.647059%,86.666667%,8.627451%);fill-opacity:1;stroke-width:1;stroke-linecap:butt;stroke-linejoin:miter;stroke:rgb(0%,0%,0%);stroke-opacity:1;stroke-miterlimit:4;" d="M 289.87117 91.794641 C 289.068889 93.706196 286.829971 96.509858 286.829971 96.509858 L 284.795326 100.708757 C 283.851199 102.925836 284.436758 103.866866 284.827131 104.49422 C 285.625658 105.955327 285.776591 106.731365 286.379931 107.878795 C 286.664018 109.224471 284.180722 109.679315 284.149705 109.807296 C 279.045811 111.563287 276.437265 106.659889 276.419485 106.453489 C 275.771498 103.811698 275.864547 103.427757 277.416558 102.898889 C 279.145975 102.477298 279.899854 102.444045 280.808816 101.770888 C 282.467113 100.523698 283.654829 96.741994 283.734642 96.692433 C 283.685845 96.614014 283.92489 94.508608 283.92489 94.508608 C 284.044413 93.455905 283.587463 92.543732 284.168085 90.987261 C 284.828519 89.381228 285.258602 89.00544 286.797376 88.810953 C 288.85059 88.731896 290.482808 90.110189 289.87117 91.794641 Z M 289.87117 91.794641 " transform="matrix(-0.022311,0.0353018,-0.0359293,-0.0219667,23.980271,-1.89624)"/>
<path style="fill-rule:nonzero;fill:rgb(97.647059%,86.666667%,8.627451%);fill-opacity:1;stroke-width:1;stroke-linecap:butt;stroke-linejoin:miter;stroke:rgb(0%,0%,0%);stroke-opacity:1;stroke-miterlimit:4;" d="M 225.972458 126.318547 C 226.177427 126.533034 228.823724 128.159176 228.867239 128.077707 C 228.910753 127.996238 235.72486 126.405815 235.681345 126.487284 C 235.720659 126.613092 231.863154 131.0434 232.111638 131.176419 C 232.277294 131.265098 236.036969 135.79204 236.119797 135.836379 C 236.202625 135.880719 228.972877 135.258143 228.972877 135.258143 L 224.121436 139.156377 L 223.093586 134.101338 C 223.093586 134.101338 216.982616 131.982406 216.899788 131.938067 C 216.81696 131.893727 222.127557 130.127024 222.127557 130.127024 L 223.67578 126.031956 C 223.67578 126.031956 225.719772 126.392805 225.972458 126.318547 Z M 225.972458 126.318547 " transform="matrix(-0.0199602,-0.0366746,0.0372865,-0.0195889,12.292669,19.34002)"/>
<path style="fill-rule:nonzero;fill:rgb(100%,100%,100%);fill-opacity:1;stroke-width:1.3;stroke-linecap:butt;stroke-linejoin:miter;stroke:rgb(0%,0%,0%);stroke-opacity:1;stroke-miterlimit:4;" d="M 314.439417 136.171524 C 314.440615 131.981645 306.164105 112.779476 304.758728 109.827126 C 302.185356 106.668577 299.484139 101.555855 298.317342 97.159776 C 297.568887 92.778118 295.169573 89.293694 291.843846 88.141944 C 288.033755 86.102326 284.291188 86.927456 280.644054 87.175095 C 278.91877 87.613435 277.350739 88.555008 276.528161 89.895637 C 274.586805 92.732622 273.545152 92.489294 272.138576 93.726823 C 261.093337 95.461785 250.55227 101.23811 242.519752 105.109657 C 238.31683 107.993137 234.723114 109.736055 233.041345 110.092926 C 228.561728 110.104447 225.213493 107.99778 223.687476 106.866584 L 208.355579 92.897145 C 203.943184 89.592234 202.800699 94.323553 203.664091 95.100033 C 205.148095 98.304 201.885691 100.224275 214.086927 111.679704 L 218.708796 121.173006 C 218.708796 121.173006 218.405694 123.734589 218.654179 123.867607 C 220.850024 129.128845 224.435338 127.800482 226.0988 126.281417 L 229.639098 123.043221 C 229.639098 123.043221 236.844837 120.71958 236.931866 120.556642 C 244.654381 121.652532 264.448182 117.896017 267.702183 116.390295 C 270.624872 114.707216 270.848148 116.083896 273.317384 114.053311 C 275.482016 112.593006 274.328126 113.756277 278.251653 110.199417 C 279.488371 109.080485 280.4571 110.856222 280.684577 112.025625 C 280.919562 123.151535 282.240912 130.249424 283.312579 141.404175 L 300.008736 150.027674 Z M 314.439417 136.171524 " transform="matrix(-0.0199602,-0.0366746,0.0372865,-0.0195889,12.292669,19.34002)"/>
<path style=" stroke:none;fill-rule:nonzero;fill:rgb(97.647059%,86.666667%,8.627451%);fill-opacity:1;" d="M 11.757812 9.347656 C 11.761719 9.339844 12.171875 9.261719 12.171875 9.261719 C 12.171875 9.261719 12.125 9.410156 12.125 9.410156 L 11.714844 9.539062 Z M 11.757812 9.347656 "/>
<path style="fill:none;stroke-width:1.13;stroke-linecap:butt;stroke-linejoin:miter;stroke:rgb(0%,0%,0%);stroke-opacity:1;stroke-miterlimit:4;" d="M 217.927324 101.897324 C 217.788377 102.556284 217.228388 105.399402 217.002412 106.221299 C 216.732921 107.124666 216.506945 107.946563 216.363797 108.812801 C 216.177134 109.760506 216.038187 110.419467 215.725182 111.404302 C 215.625548 112.18907 215.399572 113.010968 215.173596 113.832865 M 213.409592 97.593157 C 213.448906 97.718965 213.641271 98.555284 213.672182 99.095646 C 213.57675 99.673137 213.408393 101.783036 213.225932 102.523465 C 213.04347 103.263894 212.861009 104.004323 212.717861 104.87056 C 212.491885 105.692458 212.396453 106.269949 212.253305 107.136186 C 212.153671 107.920955 212.014724 108.579915 211.788748 109.401813 " transform="matrix(-0.0199602,-0.0366746,0.0372865,-0.0195889,12.292669,19.34002)"/>
<path style="fill:none;stroke-width:1;stroke-linecap:butt;stroke-linejoin:miter;stroke:rgb(0%,0%,0%);stroke-opacity:1;stroke-miterlimit:4;" d="M 262.283841 96.622901 C 265.803434 100.60227 266.928218 107.071119 266.268596 110.699005 M 248.409552 120.205571 L 248.453067 120.124102 C 248.235494 120.531446 248.366038 120.28704 248.008016 119.362042 C 247.598077 118.933068 247.348092 116.808748 247.917984 115.542377 C 248.222587 114.972096 248.618421 114.031601 248.923024 113.46132 C 249.010053 113.298382 249.223425 113.098315 249.310454 112.935378 M 222.767965 106.793403 L 222.463362 107.363684 C 222.115244 108.015434 221.684298 108.622844 221.379696 109.193125 C 221.031578 109.844875 220.561319 110.326477 220.213201 110.978227 C 219.782256 111.585637 219.473451 112.363195 219.042506 112.970606 C 218.568045 113.659485 218.180614 114.185426 217.788982 114.918645 C 217.440864 115.570395 217.183978 115.85193 216.83586 116.50368 L 217.788982 114.918645 C 217.440864 115.570395 217.183978 115.85193 216.83586 116.50368 M 209.786164 94.605833 C 209.908305 94.775981 210.100671 95.612299 210.175096 96.071192 C 210.079664 96.648684 209.998338 98.595646 209.776563 99.210266 C 209.676929 99.995035 209.537982 100.653995 209.438349 101.438763 C 209.255888 102.179192 209.160455 102.756684 208.934479 103.578581 C 209.004703 104.244752 208.865757 104.903712 208.683295 105.644141 M 225.438573 117.546943 C 224.535867 116.644654 224.026295 117.000448 223.525125 116.941687 C 222.936926 117.045865 221.79564 117.587305 220.685264 118.669107 C 220.341348 119.113579 219.958118 119.432244 219.487859 119.913846 C 219.187458 120.27685 219.0176 120.395448 218.760713 120.676984 M 288.418486 87.774962 L 288.374972 87.856431 C 288.592545 87.449087 288.462001 87.693493 288.69368 88.65562 C 288.890247 89.284661 288.964672 89.743555 289.161239 90.372596 M 275.413584 91.184716 C 275.37007 91.266185 275.311553 100.349243 275.665374 101.481518 C 275.774911 102.273496 275.971478 102.902538 276.037501 103.775985 C 276.068411 104.316347 276.142837 104.775241 276.217262 105.234134 C 276.540172 105.826046 276.65391 106.410748 276.937507 106.876852 C 277.007731 107.543023 277.552415 107.520314 277.83181 108.193695 C 278.285264 108.541201 278.856657 109.266131 279.227283 109.569298 M 269.135468 115.900405 C 268.84347 115.848856 268.185046 115.286862 267.522422 114.932146 C 266.859797 114.57743 265.141415 112.609915 265.087996 111.114637 " transform="matrix(-0.0199602,-0.0366746,0.0372865,-0.0195889,12.292669,19.34002)"/>
<path style="fill:none;stroke-width:1;stroke-linecap:butt;stroke-linejoin:miter;stroke:rgb(0%,0%,0%);stroke-opacity:1;stroke-miterlimit:4;" d="M 275.840934 103.146944 C 275.840934 103.146944 274.94393 104.028679 273.446124 105.636423 C 271.525774 107.437023 266.272797 110.491728 265.641083 110.677374 C 265.048683 110.988828 264.282223 111.626157 263.694024 111.730335 C 263.018796 111.99745 262.304254 112.138756 261.716055 112.242933 C 260.87517 112.421369 260.243456 112.607015 259.615944 112.585384 C 257.799429 113.393939 248.051228 113.099393 247.550058 113.040633 C 246.966061 112.937533 246.421376 112.960242 245.837378 112.857142 C 245.414835 113.049998 244.830838 112.946899 244.242639 113.051076 C 243.44947 112.940766 243.026927 113.133622 242.399414 113.111991 C 241.889842 113.467785 241.048957 113.646221 240.49587 114.083483 C 239.694299 114.387727 239.267555 114.787861 238.718669 115.017846 C 238.165582 115.455109 230.665144 119.925779 230.242601 120.118635 C 229.44103 120.422879 226.617974 121.32119 225.906132 119.263919 C 225.75308 118.553409 225.351544 117.70988 225.364148 117.088049 C 225.084753 116.414668 225.184386 115.6299 225.240505 114.9266 C 225.978754 111.55033 227.010503 110.216912 227.315105 109.646631 L 227.663223 108.994881 M 297.872291 96.397717 L 297.785262 96.560654 C 297.95932 96.234779 297.872291 96.397717 297.441345 97.005127 C 296.931773 97.360921 296.374484 98.00546 295.94774 98.405594 C 295.477481 98.887196 295.046535 99.494606 294.623992 99.687462 C 294.236561 100.213404 293.73119 100.361921 293.182305 100.591906 C 292.507076 100.859021 291.914676 101.170475 291.27876 101.563398 C 290.433674 101.949111 289.963415 102.430713 289.201157 102.860765 C 288.687384 103.423836 288.260639 103.823969 287.869007 104.557188 C 287.438061 105.164598 287.05063 105.69054 286.658998 106.423758 L 285.828017 108.178941 L 286.658998 106.423758 L 285.828017 108.178941 M 291.585482 144.261381 L 291.716026 144.016974 C 291.498452 144.424318 291.541967 144.342849 291.767943 143.520952 C 291.745435 142.566035 292.019127 141.455392 292.035933 140.626284 C 292.179081 139.760047 292.239401 138.84947 292.299721 137.938894 C 292.194385 136.939638 292.254705 136.029061 292.066541 134.985466 C 292.126861 134.074889 291.97801 133.157102 291.955502 132.202186 C 291.889479 131.328738 291.86277 130.581099 291.670404 129.744781 C 291.60018 129.07861 291.616986 128.249502 291.42462 127.413184 C 291.563567 126.754224 291.323486 126.206651 291.24906 125.747758 C 290.934553 124.741292 290.903643 124.20093 290.589136 123.194464 C 290.475397 122.609762 290.27883 121.980721 290.086465 121.144402 C 290.059755 120.396763 289.618906 119.427426 289.422339 118.798385 C 289.265085 118.295152 288.985691 117.621771 288.95478 117.081409 C 288.714698 116.533836 288.308961 115.897585 288.195222 115.312883 C 287.994454 114.891119 287.758574 114.136269 287.479179 113.462888 C 287.239097 112.915316 287.04253 112.286274 286.802449 111.738702 C 286.523054 111.065321 286.200144 110.473409 286.047092 109.762899 C 285.842123 109.548412 285.763496 109.296795 285.684869 109.045179 " transform="matrix(-0.0199602,-0.0366746,0.0372865,-0.0195889,12.292669,19.34002)"/>
<path style="fill-rule:nonzero;fill:rgb(97.647059%,86.666667%,8.627451%);fill-opacity:1;stroke-width:1;stroke-linecap:butt;stroke-linejoin:miter;stroke:rgb(0%,0%,0%);stroke-opacity:1;stroke-miterlimit:4;" d="M 289.929199 91.726568 C 289.011189 93.644688 286.860662 96.474463 286.817148 96.555932 L 284.724241 100.673708 C 283.841343 102.924913 284.408535 103.857121 284.814273 104.493373 C 285.621547 105.973153 285.813912 106.809471 286.420418 107.867487 C 286.643694 109.244168 284.164555 109.698006 284.12104 109.779475 C 279.019614 111.553389 276.440538 106.610815 276.44474 106.403538 C 275.701987 103.805904 275.793218 103.43569 277.39636 102.827202 C 279.204472 102.433201 279.958328 102.417703 280.807615 101.824713 C 282.466876 100.512926 283.631869 96.736523 283.675384 96.655054 C 283.718899 96.573585 283.970083 94.508026 283.970083 94.508026 C 284.073918 93.51598 283.633068 92.546643 284.167848 90.947188 C 284.785457 89.392071 285.212201 88.991938 286.763426 88.879473 C 288.902851 88.66283 290.46398 90.127112 289.929199 91.726568 Z M 289.929199 91.726568 " transform="matrix(-0.0199602,-0.0366746,0.0372865,-0.0195889,12.292669,19.34002)"/>
<path style="fill-rule:nonzero;fill:rgb(97.647059%,86.666667%,8.627451%);fill-opacity:1;stroke-width:1.3;stroke-linecap:butt;stroke-linejoin:miter;stroke:rgb(0%,0%,0%);stroke-opacity:1;stroke-miterlimit:4;" d="M 304.61608 169.378869 C 302.832016 168.497801 301.530613 168.258791 300.807196 168.752692 C 299.789472 162.958278 298.867074 157.254715 297.572415 151.469449 C 286.707526 146.940344 284.363564 145.889771 280.80448 144.409336 C 282.525232 143.318484 283.319856 142.164227 283.295737 141.413019 C 288.719137 143.395869 294.145552 145.472619 299.839856 147.258519 C 309.220149 140.086597 311.205776 138.610993 314.364316 136.250636 C 314.427628 138.222556 315.023704 139.518873 315.681943 139.87313 C 311.273253 143.590794 306.67994 147.314556 302.372605 151.310874 C 303.949512 163.008851 304.215536 165.538078 304.61608 169.378869 Z M 304.61608 169.378869 " transform="matrix(0.0422712,0.0013728,-0.0013572,0.0415556,-0.5802,-1.24588)"/>
</g>
</svg>
