<?xml version="1.0" encoding="UTF-8"?>
<svg xmlns="http://www.w3.org/2000/svg" xmlns:xlink="http://www.w3.org/1999/xlink" width="24px" height="24px" viewBox="0 0 24 16" version="1.1">
<g id="surface1">
<path style=" stroke:none;fill-rule:nonzero;fill:rgb(100%,60%,20%);fill-opacity:1;" d="M 0 0 L 24 0 L 24 5.332031 L 0 5.332031 Z M 0 0 "/>
<path style=" stroke:none;fill-rule:nonzero;fill:rgb(100%,100%,100%);fill-opacity:1;" d="M 0 5.332031 L 24 5.332031 L 24 10.667969 L 0 10.667969 Z M 0 5.332031 "/>
<path style=" stroke:none;fill-rule:nonzero;fill:rgb(7.058824%,53.333333%,2.745098%);fill-opacity:1;" d="M 0 10.667969 L 24 10.667969 L 24 16 L 0 16 Z M 0 10.667969 "/>
<path style=" stroke:none;fill-rule:nonzero;fill:rgb(0%,0%,53.333333%);fill-opacity:1;" d="M 14.464844 8 C 14.464844 9.363281 13.363281 10.464844 12 10.464844 C 10.636719 10.464844 9.535156 9.363281 9.535156 8 C 9.535156 6.636719 10.636719 5.535156 12 5.535156 C 13.363281 5.535156 14.464844 6.636719 14.464844 8 Z M 14.464844 8 "/>
<path style=" stroke:none;fill-rule:nonzero;fill:rgb(100%,100%,100%);fill-opacity:1;" d="M 14.132812 8 C 14.132812 9.179688 13.179688 10.132812 12 10.132812 C 10.820312 10.132812 9.867188 9.179688 9.867188 8 C 9.867188 6.820312 10.820312 5.867188 12 5.867188 C 13.179688 5.867188 14.132812 6.820312 14.132812 8 Z M 14.132812 8 "/>
<path style=" stroke:none;fill-rule:nonzero;fill:rgb(0%,0%,53.333333%);fill-opacity:1;" d="M 12.425781 8 C 12.425781 8.234375 12.234375 8.425781 12 8.425781 C 11.765625 8.425781 11.574219 8.234375 11.574219 8 C 11.574219 7.765625 11.765625 7.574219 12 7.574219 C 12.234375 7.574219 12.425781 7.765625 12.425781 8 Z M 12.425781 8 "/>
<path style=" stroke:none;fill-rule:nonzero;fill:rgb(0%,0%,53.333333%);fill-opacity:1;" d="M 14.207031 8.289062 C 14.199219 8.339844 14.152344 8.378906 14.101562 8.371094 C 14.050781 8.363281 14.015625 8.316406 14.023438 8.265625 C 14.027344 8.214844 14.074219 8.179688 14.128906 8.1875 C 14.179688 8.191406 14.214844 8.238281 14.207031 8.289062 Z M 14.207031 8.289062 "/>
<path style=" stroke:none;fill-rule:nonzero;fill:rgb(0%,0%,53.333333%);fill-opacity:1;" d="M 12 10.132812 L 12.078125 8.851562 L 12.027344 8.425781 L 12.027344 8.398438 L 11.972656 8.398438 L 11.972656 8.425781 L 11.921875 8.851562 Z M 12 10.132812 "/>
<path style=" stroke:none;fill-rule:nonzero;fill:rgb(0%,0%,53.333333%);fill-opacity:1;" d="M 14.058594 8.851562 C 14.039062 8.898438 13.984375 8.921875 13.933594 8.902344 C 13.886719 8.882812 13.863281 8.828125 13.882812 8.78125 C 13.90625 8.734375 13.960938 8.710938 14.007812 8.730469 C 14.054688 8.75 14.078125 8.804688 14.058594 8.851562 Z M 14.058594 8.851562 "/>
<path style=" stroke:none;fill-rule:nonzero;fill:rgb(0%,0%,53.333333%);fill-opacity:1;" d="M 11.449219 10.0625 L 11.855469 8.84375 L 11.914062 8.417969 L 11.921875 8.394531 L 11.871094 8.378906 L 11.863281 8.40625 L 11.703125 8.804688 Z M 11.449219 10.0625 "/>
<path style=" stroke:none;fill-rule:nonzero;fill:rgb(0%,0%,53.333333%);fill-opacity:1;" d="M 13.765625 9.355469 C 13.734375 9.394531 13.675781 9.402344 13.636719 9.371094 C 13.59375 9.339844 13.585938 9.28125 13.617188 9.242188 C 13.648438 9.199219 13.707031 9.191406 13.75 9.226562 C 13.789062 9.257812 13.796875 9.316406 13.765625 9.355469 Z M 13.765625 9.355469 "/>
<path style=" stroke:none;fill-rule:nonzero;fill:rgb(0%,0%,53.333333%);fill-opacity:1;" d="M 10.933594 9.847656 L 11.644531 8.777344 L 11.808594 8.382812 L 11.824219 8.359375 L 11.777344 8.332031 L 11.765625 8.355469 L 11.503906 8.699219 Z M 10.933594 9.847656 "/>
<path style=" stroke:none;fill-rule:nonzero;fill:rgb(0%,0%,53.333333%);fill-opacity:1;" d="M 13.355469 9.765625 C 13.316406 9.796875 13.257812 9.789062 13.226562 9.75 C 13.191406 9.707031 13.199219 9.648438 13.242188 9.617188 C 13.28125 9.585938 13.339844 9.59375 13.371094 9.636719 C 13.402344 9.675781 13.394531 9.734375 13.355469 9.765625 Z M 13.355469 9.765625 "/>
<path style=" stroke:none;fill-rule:nonzero;fill:rgb(0%,0%,53.333333%);fill-opacity:1;" d="M 10.492188 9.507812 L 11.453125 8.660156 L 11.71875 8.320312 L 11.734375 8.300781 L 11.699219 8.265625 L 11.679688 8.28125 L 11.339844 8.546875 Z M 10.492188 9.507812 "/>
<path style=" stroke:none;fill-rule:nonzero;fill:rgb(0%,0%,53.333333%);fill-opacity:1;" d="M 12.851562 10.058594 C 12.804688 10.078125 12.75 10.054688 12.730469 10.007812 C 12.710938 9.960938 12.734375 9.90625 12.78125 9.882812 C 12.828125 9.863281 12.882812 9.886719 12.902344 9.933594 C 12.921875 9.984375 12.898438 10.039062 12.851562 10.058594 Z M 12.851562 10.058594 "/>
<path style=" stroke:none;fill-rule:nonzero;fill:rgb(0%,0%,53.333333%);fill-opacity:1;" d="M 10.152344 9.066406 L 11.300781 8.496094 L 11.644531 8.234375 L 11.667969 8.222656 L 11.640625 8.175781 L 11.617188 8.191406 L 11.222656 8.355469 Z M 10.152344 9.066406 "/>
<path style=" stroke:none;fill-rule:nonzero;fill:rgb(0%,0%,53.333333%);fill-opacity:1;" d="M 12.289062 10.207031 C 12.238281 10.214844 12.191406 10.179688 12.1875 10.128906 C 12.179688 10.074219 12.214844 10.027344 12.265625 10.023438 C 12.316406 10.015625 12.363281 10.050781 12.371094 10.101562 C 12.378906 10.152344 12.339844 10.199219 12.289062 10.207031 Z M 12.289062 10.207031 "/>
<path style=" stroke:none;fill-rule:nonzero;fill:rgb(0%,0%,53.333333%);fill-opacity:1;" d="M 9.9375 8.550781 L 11.195312 8.296875 L 11.59375 8.136719 L 11.621094 8.128906 L 11.605469 8.078125 L 11.582031 8.085938 L 11.15625 8.144531 Z M 9.9375 8.550781 "/>
<path style=" stroke:none;fill-rule:nonzero;fill:rgb(0%,0%,53.333333%);fill-opacity:1;" d="M 11.710938 10.207031 C 11.660156 10.199219 11.621094 10.152344 11.628906 10.101562 C 11.636719 10.050781 11.683594 10.015625 11.734375 10.023438 C 11.785156 10.027344 11.820312 10.074219 11.8125 10.128906 C 11.808594 10.179688 11.761719 10.214844 11.710938 10.207031 Z M 11.710938 10.207031 "/>
<path style=" stroke:none;fill-rule:nonzero;fill:rgb(0%,0%,53.333333%);fill-opacity:1;" d="M 9.867188 8 L 11.148438 8.078125 L 11.574219 8.027344 L 11.601562 8.027344 L 11.601562 7.972656 L 11.574219 7.972656 L 11.148438 7.921875 Z M 9.867188 8 "/>
<path style=" stroke:none;fill-rule:nonzero;fill:rgb(0%,0%,53.333333%);fill-opacity:1;" d="M 11.148438 10.058594 C 11.101562 10.039062 11.078125 9.984375 11.097656 9.933594 C 11.117188 9.886719 11.171875 9.863281 11.21875 9.882812 C 11.265625 9.90625 11.289062 9.960938 11.269531 10.007812 C 11.25 10.054688 11.195312 10.078125 11.148438 10.058594 Z M 11.148438 10.058594 "/>
<path style=" stroke:none;fill-rule:nonzero;fill:rgb(0%,0%,53.333333%);fill-opacity:1;" d="M 9.9375 7.449219 L 11.15625 7.855469 L 11.582031 7.914062 L 11.605469 7.921875 L 11.621094 7.871094 L 11.59375 7.863281 L 11.195312 7.703125 Z M 9.9375 7.449219 "/>
<path style=" stroke:none;fill-rule:nonzero;fill:rgb(0%,0%,53.333333%);fill-opacity:1;" d="M 10.644531 9.765625 C 10.605469 9.734375 10.597656 9.675781 10.628906 9.636719 C 10.660156 9.59375 10.71875 9.585938 10.757812 9.617188 C 10.800781 9.648438 10.808594 9.707031 10.773438 9.75 C 10.742188 9.789062 10.683594 9.796875 10.644531 9.765625 Z M 10.644531 9.765625 "/>
<path style=" stroke:none;fill-rule:nonzero;fill:rgb(0%,0%,53.333333%);fill-opacity:1;" d="M 10.152344 6.933594 L 11.222656 7.644531 L 11.617188 7.808594 L 11.640625 7.824219 L 11.667969 7.777344 L 11.644531 7.765625 L 11.300781 7.503906 Z M 10.152344 6.933594 "/>
<path style=" stroke:none;fill-rule:nonzero;fill:rgb(0%,0%,53.333333%);fill-opacity:1;" d="M 10.234375 9.355469 C 10.203125 9.316406 10.210938 9.257812 10.25 9.226562 C 10.292969 9.191406 10.351562 9.199219 10.382812 9.242188 C 10.414062 9.28125 10.40625 9.339844 10.363281 9.371094 C 10.324219 9.402344 10.265625 9.394531 10.234375 9.355469 Z M 10.234375 9.355469 "/>
<path style=" stroke:none;fill-rule:nonzero;fill:rgb(0%,0%,53.333333%);fill-opacity:1;" d="M 10.492188 6.492188 L 11.339844 7.453125 L 11.679688 7.71875 L 11.699219 7.734375 L 11.734375 7.699219 L 11.71875 7.679688 L 11.453125 7.339844 Z M 10.492188 6.492188 "/>
<path style=" stroke:none;fill-rule:nonzero;fill:rgb(0%,0%,53.333333%);fill-opacity:1;" d="M 9.941406 8.851562 C 9.921875 8.804688 9.945312 8.75 9.992188 8.730469 C 10.039062 8.710938 10.09375 8.734375 10.117188 8.78125 C 10.136719 8.828125 10.113281 8.882812 10.066406 8.902344 C 10.015625 8.921875 9.960938 8.898438 9.941406 8.851562 Z M 9.941406 8.851562 "/>
<path style=" stroke:none;fill-rule:nonzero;fill:rgb(0%,0%,53.333333%);fill-opacity:1;" d="M 10.933594 6.152344 L 11.503906 7.300781 L 11.765625 7.644531 L 11.777344 7.667969 L 11.824219 7.640625 L 11.808594 7.617188 L 11.644531 7.222656 Z M 10.933594 6.152344 "/>
<path style=" stroke:none;fill-rule:nonzero;fill:rgb(0%,0%,53.333333%);fill-opacity:1;" d="M 9.792969 8.289062 C 9.785156 8.238281 9.820312 8.191406 9.871094 8.1875 C 9.925781 8.179688 9.972656 8.214844 9.976562 8.265625 C 9.984375 8.316406 9.949219 8.363281 9.898438 8.371094 C 9.847656 8.378906 9.800781 8.339844 9.792969 8.289062 Z M 9.792969 8.289062 "/>
<path style=" stroke:none;fill-rule:nonzero;fill:rgb(0%,0%,53.333333%);fill-opacity:1;" d="M 11.449219 5.9375 L 11.703125 7.195312 L 11.863281 7.59375 L 11.871094 7.621094 L 11.921875 7.605469 L 11.914062 7.582031 L 11.855469 7.15625 Z M 11.449219 5.9375 "/>
<path style=" stroke:none;fill-rule:nonzero;fill:rgb(0%,0%,53.333333%);fill-opacity:1;" d="M 9.792969 7.710938 C 9.800781 7.660156 9.847656 7.621094 9.898438 7.628906 C 9.949219 7.636719 9.984375 7.683594 9.976562 7.734375 C 9.972656 7.785156 9.925781 7.820312 9.871094 7.8125 C 9.820312 7.808594 9.785156 7.761719 9.792969 7.710938 Z M 9.792969 7.710938 "/>
<path style=" stroke:none;fill-rule:nonzero;fill:rgb(0%,0%,53.333333%);fill-opacity:1;" d="M 12 5.867188 L 11.921875 7.148438 L 11.972656 7.574219 L 11.972656 7.601562 L 12.027344 7.601562 L 12.027344 7.574219 L 12.078125 7.148438 Z M 12 5.867188 "/>
<path style=" stroke:none;fill-rule:nonzero;fill:rgb(0%,0%,53.333333%);fill-opacity:1;" d="M 9.941406 7.148438 C 9.960938 7.101562 10.015625 7.078125 10.066406 7.097656 C 10.113281 7.117188 10.136719 7.171875 10.117188 7.21875 C 10.09375 7.265625 10.039062 7.289062 9.992188 7.269531 C 9.945312 7.25 9.921875 7.195312 9.941406 7.148438 Z M 9.941406 7.148438 "/>
<path style=" stroke:none;fill-rule:nonzero;fill:rgb(0%,0%,53.333333%);fill-opacity:1;" d="M 12.550781 5.9375 L 12.144531 7.15625 L 12.085938 7.582031 L 12.078125 7.605469 L 12.128906 7.621094 L 12.136719 7.59375 L 12.296875 7.195312 Z M 12.550781 5.9375 "/>
<path style=" stroke:none;fill-rule:nonzero;fill:rgb(0%,0%,53.333333%);fill-opacity:1;" d="M 10.234375 6.644531 C 10.265625 6.605469 10.324219 6.597656 10.363281 6.628906 C 10.40625 6.660156 10.414062 6.71875 10.382812 6.757812 C 10.351562 6.800781 10.292969 6.808594 10.25 6.773438 C 10.210938 6.742188 10.203125 6.683594 10.234375 6.644531 Z M 10.234375 6.644531 "/>
<path style=" stroke:none;fill-rule:nonzero;fill:rgb(0%,0%,53.333333%);fill-opacity:1;" d="M 13.066406 6.152344 L 12.355469 7.222656 L 12.191406 7.617188 L 12.175781 7.640625 L 12.222656 7.667969 L 12.234375 7.644531 L 12.496094 7.300781 Z M 13.066406 6.152344 "/>
<path style=" stroke:none;fill-rule:nonzero;fill:rgb(0%,0%,53.333333%);fill-opacity:1;" d="M 10.644531 6.234375 C 10.683594 6.203125 10.742188 6.210938 10.773438 6.25 C 10.808594 6.292969 10.800781 6.351562 10.757812 6.382812 C 10.71875 6.414062 10.660156 6.40625 10.628906 6.363281 C 10.597656 6.324219 10.605469 6.265625 10.644531 6.234375 Z M 10.644531 6.234375 "/>
<path style=" stroke:none;fill-rule:nonzero;fill:rgb(0%,0%,53.333333%);fill-opacity:1;" d="M 13.507812 6.492188 L 12.546875 7.339844 L 12.28125 7.679688 L 12.265625 7.699219 L 12.300781 7.734375 L 12.320312 7.71875 L 12.660156 7.453125 Z M 13.507812 6.492188 "/>
<path style=" stroke:none;fill-rule:nonzero;fill:rgb(0%,0%,53.333333%);fill-opacity:1;" d="M 11.148438 5.941406 C 11.195312 5.921875 11.25 5.945312 11.269531 5.992188 C 11.289062 6.039062 11.265625 6.09375 11.21875 6.117188 C 11.171875 6.136719 11.117188 6.113281 11.097656 6.066406 C 11.078125 6.015625 11.101562 5.960938 11.148438 5.941406 Z M 11.148438 5.941406 "/>
<path style=" stroke:none;fill-rule:nonzero;fill:rgb(0%,0%,53.333333%);fill-opacity:1;" d="M 13.847656 6.933594 L 12.699219 7.503906 L 12.355469 7.765625 L 12.332031 7.777344 L 12.359375 7.824219 L 12.382812 7.808594 L 12.777344 7.644531 Z M 13.847656 6.933594 "/>
<path style=" stroke:none;fill-rule:nonzero;fill:rgb(0%,0%,53.333333%);fill-opacity:1;" d="M 11.710938 5.792969 C 11.761719 5.785156 11.808594 5.820312 11.8125 5.871094 C 11.820312 5.925781 11.785156 5.972656 11.734375 5.976562 C 11.683594 5.984375 11.636719 5.949219 11.628906 5.898438 C 11.621094 5.847656 11.660156 5.800781 11.710938 5.792969 Z M 11.710938 5.792969 "/>
<path style=" stroke:none;fill-rule:nonzero;fill:rgb(0%,0%,53.333333%);fill-opacity:1;" d="M 14.0625 7.449219 L 12.804688 7.703125 L 12.40625 7.863281 L 12.378906 7.871094 L 12.394531 7.921875 L 12.417969 7.914062 L 12.84375 7.855469 Z M 14.0625 7.449219 "/>
<path style=" stroke:none;fill-rule:nonzero;fill:rgb(0%,0%,53.333333%);fill-opacity:1;" d="M 12.289062 5.792969 C 12.339844 5.800781 12.378906 5.847656 12.371094 5.898438 C 12.363281 5.949219 12.316406 5.984375 12.265625 5.976562 C 12.214844 5.972656 12.179688 5.925781 12.1875 5.871094 C 12.191406 5.820312 12.238281 5.785156 12.289062 5.792969 Z M 12.289062 5.792969 "/>
<path style=" stroke:none;fill-rule:nonzero;fill:rgb(0%,0%,53.333333%);fill-opacity:1;" d="M 14.132812 8 L 12.851562 7.921875 L 12.425781 7.972656 L 12.398438 7.972656 L 12.398438 8.027344 L 12.425781 8.027344 L 12.851562 8.078125 Z M 14.132812 8 "/>
<path style=" stroke:none;fill-rule:nonzero;fill:rgb(0%,0%,53.333333%);fill-opacity:1;" d="M 12.851562 5.941406 C 12.898438 5.960938 12.921875 6.015625 12.902344 6.066406 C 12.882812 6.113281 12.828125 6.136719 12.78125 6.117188 C 12.734375 6.09375 12.710938 6.039062 12.730469 5.992188 C 12.75 5.945312 12.804688 5.921875 12.851562 5.941406 Z M 12.851562 5.941406 "/>
<path style=" stroke:none;fill-rule:nonzero;fill:rgb(0%,0%,53.333333%);fill-opacity:1;" d="M 14.0625 8.550781 L 12.84375 8.144531 L 12.417969 8.085938 L 12.394531 8.078125 L 12.378906 8.128906 L 12.40625 8.136719 L 12.804688 8.296875 Z M 14.0625 8.550781 "/>
<path style=" stroke:none;fill-rule:nonzero;fill:rgb(0%,0%,53.333333%);fill-opacity:1;" d="M 13.355469 6.234375 C 13.394531 6.265625 13.402344 6.324219 13.371094 6.363281 C 13.339844 6.40625 13.28125 6.414062 13.242188 6.382812 C 13.199219 6.351562 13.191406 6.292969 13.226562 6.25 C 13.257812 6.210938 13.316406 6.203125 13.355469 6.234375 Z M 13.355469 6.234375 "/>
<path style=" stroke:none;fill-rule:nonzero;fill:rgb(0%,0%,53.333333%);fill-opacity:1;" d="M 13.847656 9.066406 L 12.777344 8.355469 L 12.382812 8.191406 L 12.359375 8.175781 L 12.332031 8.222656 L 12.355469 8.234375 L 12.699219 8.496094 Z M 13.847656 9.066406 "/>
<path style=" stroke:none;fill-rule:nonzero;fill:rgb(0%,0%,53.333333%);fill-opacity:1;" d="M 13.765625 6.644531 C 13.796875 6.683594 13.789062 6.742188 13.75 6.773438 C 13.707031 6.808594 13.648438 6.800781 13.617188 6.757812 C 13.585938 6.71875 13.59375 6.660156 13.636719 6.628906 C 13.675781 6.597656 13.734375 6.605469 13.765625 6.644531 Z M 13.765625 6.644531 "/>
<path style=" stroke:none;fill-rule:nonzero;fill:rgb(0%,0%,53.333333%);fill-opacity:1;" d="M 13.507812 9.507812 L 12.660156 8.546875 L 12.320312 8.28125 L 12.300781 8.265625 L 12.265625 8.300781 L 12.28125 8.320312 L 12.546875 8.660156 Z M 13.507812 9.507812 "/>
<path style=" stroke:none;fill-rule:nonzero;fill:rgb(0%,0%,53.333333%);fill-opacity:1;" d="M 14.058594 7.148438 C 14.078125 7.195312 14.054688 7.25 14.007812 7.269531 C 13.960938 7.289062 13.90625 7.265625 13.882812 7.21875 C 13.863281 7.171875 13.886719 7.117188 13.933594 7.097656 C 13.984375 7.078125 14.039062 7.101562 14.058594 7.148438 Z M 14.058594 7.148438 "/>
<path style=" stroke:none;fill-rule:nonzero;fill:rgb(0%,0%,53.333333%);fill-opacity:1;" d="M 13.066406 9.847656 L 12.496094 8.699219 L 12.234375 8.355469 L 12.222656 8.332031 L 12.175781 8.359375 L 12.191406 8.382812 L 12.355469 8.777344 Z M 13.066406 9.847656 "/>
<path style=" stroke:none;fill-rule:nonzero;fill:rgb(0%,0%,53.333333%);fill-opacity:1;" d="M 14.207031 7.710938 C 14.214844 7.761719 14.179688 7.808594 14.128906 7.8125 C 14.074219 7.820312 14.027344 7.785156 14.023438 7.734375 C 14.015625 7.683594 14.050781 7.636719 14.101562 7.628906 C 14.152344 7.621094 14.199219 7.660156 14.207031 7.710938 Z M 14.207031 7.710938 "/>
<path style=" stroke:none;fill-rule:nonzero;fill:rgb(0%,0%,53.333333%);fill-opacity:1;" d="M 12.550781 10.0625 L 12.296875 8.804688 L 12.136719 8.40625 L 12.128906 8.378906 L 12.078125 8.394531 L 12.085938 8.417969 L 12.144531 8.84375 Z M 12.550781 10.0625 "/>
</g>
</svg>
