<?xml version="1.0" encoding="UTF-8"?>
<svg xmlns="http://www.w3.org/2000/svg" xmlns:xlink="http://www.w3.org/1999/xlink" width="24px" height="24px" viewBox="0 0 24 16" version="1.1">
<g id="surface1">
<rect x="0" y="0" width="24" height="16" style="fill:rgb(80.784314%,6.666667%,14.901961%);fill-opacity:1;stroke:none;"/>
<path style=" stroke:none;fill-rule:nonzero;fill:rgb(100%,100%,100%);fill-opacity:1;" d="M 0 5.332031 L 24 5.332031 L 24 16 L 0 16 Z M 0 5.332031 "/>
<path style=" stroke:none;fill-rule:nonzero;fill:rgb(0%,0%,0%);fill-opacity:1;" d="M 0 10.667969 L 24 10.667969 L 24 16 L 0 16 Z M 0 10.667969 "/>
<path style=" stroke:none;fill-rule:nonzero;fill:rgb(0%,47.843137%,23.921569%);fill-opacity:1;" d="M 14.339844 7.003906 C 14.308594 6.984375 14.269531 6.957031 14.257812 6.941406 C 14.238281 6.914062 14.25 6.914062 14.324219 6.933594 C 14.460938 6.972656 14.546875 6.957031 14.636719 6.882812 L 14.710938 6.820312 L 14.800781 6.863281 C 14.851562 6.890625 14.902344 6.90625 14.917969 6.902344 C 14.957031 6.894531 15.039062 6.789062 15.035156 6.753906 C 15.03125 6.710938 15.070312 6.71875 15.089844 6.769531 C 15.125 6.863281 15.070312 6.972656 14.980469 6.996094 C 14.933594 7.007812 14.890625 7.003906 14.824219 6.980469 C 14.738281 6.953125 14.726562 6.953125 14.683594 6.984375 C 14.589844 7.058594 14.457031 7.0625 14.339844 7.003906 Z M 14.675781 6.695312 C 14.640625 6.652344 14.601562 6.496094 14.613281 6.457031 C 14.625 6.421875 14.636719 6.417969 14.667969 6.425781 C 14.722656 6.441406 14.734375 6.480469 14.726562 6.605469 C 14.71875 6.707031 14.703125 6.734375 14.675781 6.695312 Z M 10.730469 6.582031 C 10.722656 6.660156 10.867188 6.847656 10.933594 6.882812 C 10.890625 6.902344 10.832031 6.894531 10.792969 6.917969 C 10.5625 7.148438 9.71875 7.96875 9.566406 8.164062 C 10.019531 8.175781 10.527344 8.160156 10.953125 8.140625 C 10.953125 7.828125 11.246094 7.8125 11.441406 7.699219 C 11.542969 7.859375 11.796875 7.847656 11.828125 8.085938 C 11.828125 8.375 11.828125 8.804688 11.828125 9.117188 L 7.9375 9.117188 C 7.871094 9.421875 7.597656 9.652344 7.21875 9.554688 C 7.335938 9.433594 7.53125 9.390625 7.605469 9.222656 C 7.664062 8.847656 7.484375 8.621094 7.367188 8.410156 C 7.558594 8.339844 7.589844 8.320312 7.785156 8.191406 C 7.648438 8.605469 8.140625 8.5625 8.503906 8.550781 C 8.519531 8.410156 8.511719 8.242188 8.402344 8.222656 C 8.542969 8.171875 8.566406 8.15625 8.789062 7.964844 L 8.789062 8.527344 C 9.660156 8.527344 10.597656 8.519531 11.484375 8.519531 C 11.484375 8.34375 11.53125 8.0625 11.390625 8.0625 C 11.257812 8.0625 11.382812 8.421875 11.28125 8.421875 L 9.203125 8.421875 C 9.203125 8.34375 9.199219 8.183594 9.199219 8.066406 C 9.289062 7.976562 9.277344 7.984375 9.878906 7.382812 C 9.9375 7.324219 10.363281 6.941406 10.730469 6.582031 Z M 15.933594 6.566406 C 16.078125 6.644531 16.191406 6.753906 16.371094 6.800781 C 16.351562 6.875 16.285156 6.902344 16.265625 6.980469 L 16.265625 8.550781 C 16.464844 8.59375 16.507812 8.480469 16.601562 8.421875 C 16.628906 8.675781 16.789062 8.921875 16.78125 9.117188 L 15.933594 9.117188 C 15.933594 8.269531 15.933594 7.417969 15.933594 6.566406 Z M 14.800781 7.410156 C 14.800781 7.410156 15.109375 7.148438 15.109375 7.136719 L 15.109375 8.507812 L 15.332031 8.507812 C 15.332031 7.988281 15.324219 7.457031 15.324219 6.972656 C 15.414062 6.878906 15.589844 6.75 15.636719 6.65625 L 15.636719 9.113281 C 15.007812 9.113281 13.835938 9.113281 13.683594 9.113281 C 13.652344 8.605469 13.648438 8.078125 14.242188 8.191406 L 14.242188 7.984375 C 14.226562 7.945312 14.191406 7.992188 14.183594 7.945312 C 14.28125 7.851562 14.3125 7.828125 14.566406 7.601562 C 14.566406 7.871094 14.570312 8.507812 14.570312 8.507812 C 14.632812 8.507812 14.753906 8.507812 14.796875 8.507812 C 14.796875 8.507812 14.800781 7.445312 14.800781 7.410156 Z M 14.066406 8.496094 C 14.109375 8.558594 14.25 8.558594 14.242188 8.453125 C 14.21875 8.363281 14.03125 8.398438 14.066406 8.496094 Z M 14.066406 8.496094 "/>
<path style=" stroke:none;fill-rule:nonzero;fill:rgb(0%,47.843137%,23.921569%);fill-opacity:1;" d="M 8.53125 9.40625 C 8.53125 9.472656 8.476562 9.527344 8.414062 9.527344 C 8.347656 9.527344 8.292969 9.472656 8.292969 9.40625 C 8.292969 9.339844 8.347656 9.289062 8.414062 9.289062 C 8.476562 9.289062 8.53125 9.339844 8.53125 9.40625 Z M 8.53125 9.40625 "/>
<path style=" stroke:none;fill-rule:nonzero;fill:rgb(0%,47.843137%,23.921569%);fill-opacity:1;" d="M 12.09375 6.570312 C 12.238281 6.648438 12.351562 6.757812 12.53125 6.800781 C 12.511719 6.875 12.445312 6.90625 12.425781 6.980469 L 12.425781 8.554688 C 12.625 8.597656 12.667969 8.484375 12.761719 8.425781 C 12.789062 8.675781 12.949219 8.921875 12.941406 9.121094 L 12.09375 9.121094 C 12.09375 8.269531 12.09375 7.421875 12.09375 6.570312 Z M 12.09375 6.570312 "/>
</g>
</svg>
