<?xml version="1.0" encoding="UTF-8"?>
<svg xmlns="http://www.w3.org/2000/svg" xmlns:xlink="http://www.w3.org/1999/xlink" width="24px" height="24px" viewBox="0 0 24 13" version="1.1">
<g id="surface1">
<rect x="0" y="0" width="24" height="13" style="fill:rgb(85.490196%,0%,0%);fill-opacity:1;stroke:none;"/>
<path style=" stroke:none;fill-rule:nonzero;fill:rgb(100%,100%,100%);fill-opacity:1;" d="M 0 0 L 24 0 L 24 8.667969 L 0 8.667969 Z M 0 0 "/>
<path style=" stroke:none;fill-rule:nonzero;fill:rgb(13.72549%,62.352941%,25.098039%);fill-opacity:1;" d="M 0 0 L 24 0 L 24 4.332031 L 0 4.332031 Z M 0 0 "/>
<path style="fill:none;stroke-width:2;stroke-linecap:butt;stroke-linejoin:miter;stroke:rgb(100%,100%,100%);stroke-opacity:1;stroke-miterlimit:4;" d="M 0.00585937 0.993475 L 26.006836 0.993475 M 1.03125 10.033654 L 1.03125 5.011332 L 9.014648 5.011332 L 9.014648 9.02919 L 16.998047 9.02919 L 16.998047 5.011332 L 12.017578 5.011332 M 4.03418 9.02919 L 6.011719 9.02919 M 26.006836 9.02919 L 21.026367 9.02919 L 21.026367 5.011332 L 29.009766 5.011332 M 29.009766 -0.010989 L 29.009766 9.02919 L 36.993164 9.02919 L 36.993164 -0.010989 M 32.964844 -0.010989 L 32.964844 9.02919 " transform="matrix(0.0533333,0,0,0.0505556,0.32,3.625556)"/>
<path style="fill:none;stroke-width:2;stroke-linecap:butt;stroke-linejoin:miter;stroke:rgb(100%,100%,100%);stroke-opacity:1;stroke-miterlimit:4;" d="M 0.00292969 6.987122 L 9.011719 6.987122 M 10.000488 6.987122 L 19.009277 6.987122 " transform="matrix(0.106667,0,0,0.101111,0.32,3.625556)"/>
<path style="fill:none;stroke-width:2;stroke-linecap:butt;stroke-linejoin:miter;stroke:rgb(100%,100%,100%);stroke-opacity:1;stroke-miterlimit:4;" d="M 0.00292969 7.012878 L 9.011719 7.012878 M 10.000488 7.012878 L 19.009277 7.012878 " transform="matrix(0.106667,0,0,0.101111,0.32,7.958889)"/>
<path style="fill:none;stroke-width:2;stroke-linecap:butt;stroke-linejoin:miter;stroke:rgb(100%,100%,100%);stroke-opacity:1;stroke-miterlimit:4;" d="M 0.00585937 0.97081 L 26.006836 0.97081 M 1.03125 10.010989 L 1.03125 4.988668 L 9.014648 4.988668 L 9.014648 9.006525 L 16.998047 9.006525 L 16.998047 4.988668 L 12.017578 4.988668 M 4.03418 9.006525 L 6.011719 9.006525 M 26.006836 9.006525 L 21.026367 9.006525 L 21.026367 4.988668 L 29.009766 4.988668 M 29.009766 -0.0336538 L 29.009766 9.006525 L 36.993164 9.006525 L 36.993164 -0.0336538 M 32.964844 -0.0336538 L 32.964844 9.006525 " transform="matrix(0.0533333,0,0,0.0505556,0.32,8.868889)"/>
<path style="fill:none;stroke-width:2;stroke-linecap:butt;stroke-linejoin:miter;stroke:rgb(100%,100%,100%);stroke-opacity:1;stroke-miterlimit:4;" d="M -0.00390625 0.993475 L 25.99707 0.993475 M 1.021484 10.033654 L 1.021484 5.011332 L 9.004883 5.011332 L 9.004883 9.02919 L 16.988281 9.02919 L 16.988281 5.011332 L 12.007812 5.011332 M 4.024414 9.02919 L 6.001953 9.02919 M 25.99707 9.02919 L 21.016602 9.02919 L 21.016602 5.011332 L 29 5.011332 M 29 -0.010989 L 29 9.02919 L 36.983398 9.02919 L 36.983398 -0.010989 M 33.02832 -0.010989 L 33.02832 9.02919 " transform="matrix(0.0533333,0,0,0.0505556,2.453333,3.625556)"/>
<path style="fill:none;stroke-width:2;stroke-linecap:butt;stroke-linejoin:miter;stroke:rgb(100%,100%,100%);stroke-opacity:1;stroke-miterlimit:4;" d="M -0.00195313 6.987122 L 9.006836 6.987122 M 9.995605 6.987122 L 19.004395 6.987122 " transform="matrix(0.106667,0,0,0.101111,2.453333,3.625556)"/>
<path style="fill:none;stroke-width:2;stroke-linecap:butt;stroke-linejoin:miter;stroke:rgb(100%,100%,100%);stroke-opacity:1;stroke-miterlimit:4;" d="M -0.00195313 7.012878 L 9.006836 7.012878 M 9.995605 7.012878 L 19.004395 7.012878 " transform="matrix(0.106667,0,0,0.101111,2.453333,7.958889)"/>
<path style="fill:none;stroke-width:2;stroke-linecap:butt;stroke-linejoin:miter;stroke:rgb(100%,100%,100%);stroke-opacity:1;stroke-miterlimit:4;" d="M -0.00390625 0.97081 L 25.99707 0.97081 M 1.021484 10.010989 L 1.021484 4.988668 L 9.004883 4.988668 L 9.004883 9.006525 L 16.988281 9.006525 L 16.988281 4.988668 L 12.007812 4.988668 M 4.024414 9.006525 L 6.001953 9.006525 M 25.99707 9.006525 L 21.016602 9.006525 L 21.016602 4.988668 L 29 4.988668 M 29 -0.0336538 L 29 9.006525 L 36.983398 9.006525 L 36.983398 -0.0336538 M 33.02832 -0.0336538 L 33.02832 9.006525 " transform="matrix(0.0533333,0,0,0.0505556,2.453333,8.868889)"/>
<path style="fill:none;stroke-width:2;stroke-linecap:butt;stroke-linejoin:miter;stroke:rgb(100%,100%,100%);stroke-opacity:1;stroke-miterlimit:4;" d="M -0.0136719 0.993475 L 25.987305 0.993475 M 1.011719 10.033654 L 1.011719 5.011332 L 8.995117 5.011332 L 8.995117 9.02919 L 16.978516 9.02919 L 16.978516 5.011332 L 11.998047 5.011332 M 4.014648 9.02919 L 5.992187 9.02919 M 25.987305 9.02919 L 21.006836 9.02919 L 21.006836 5.011332 L 28.990234 5.011332 M 28.990234 -0.010989 L 28.990234 9.02919 L 36.973633 9.02919 L 36.973633 -0.010989 M 33.018555 -0.010989 L 33.018555 9.02919 " transform="matrix(0.0533333,0,0,0.0505556,4.586667,3.625556)"/>
<path style="fill:none;stroke-width:2;stroke-linecap:butt;stroke-linejoin:miter;stroke:rgb(100%,100%,100%);stroke-opacity:1;stroke-miterlimit:4;" d="M -0.00683594 6.987122 L 9.001953 6.987122 M 9.990723 6.987122 L 18.999512 6.987122 " transform="matrix(0.106667,0,0,0.101111,4.586667,3.625556)"/>
<path style="fill:none;stroke-width:2;stroke-linecap:butt;stroke-linejoin:miter;stroke:rgb(100%,100%,100%);stroke-opacity:1;stroke-miterlimit:4;" d="M -0.00683594 7.012878 L 9.001953 7.012878 M 9.990723 7.012878 L 18.999512 7.012878 " transform="matrix(0.106667,0,0,0.101111,4.586667,7.958889)"/>
<path style="fill:none;stroke-width:2;stroke-linecap:butt;stroke-linejoin:miter;stroke:rgb(100%,100%,100%);stroke-opacity:1;stroke-miterlimit:4;" d="M -0.0136719 0.97081 L 25.987305 0.97081 M 1.011719 10.010989 L 1.011719 4.988668 L 8.995117 4.988668 L 8.995117 9.006525 L 16.978516 9.006525 L 16.978516 4.988668 L 11.998047 4.988668 M 4.014648 9.006525 L 5.992187 9.006525 M 25.987305 9.006525 L 21.006836 9.006525 L 21.006836 4.988668 L 28.990234 4.988668 M 28.990234 -0.0336538 L 28.990234 9.006525 L 36.973633 9.006525 L 36.973633 -0.0336538 M 33.018555 -0.0336538 L 33.018555 9.006525 " transform="matrix(0.0533333,0,0,0.0505556,4.586667,8.868889)"/>
<path style="fill:none;stroke-width:2;stroke-linecap:butt;stroke-linejoin:miter;stroke:rgb(100%,100%,100%);stroke-opacity:1;stroke-miterlimit:4;" d="M -0.0234375 0.993475 L 25.977539 0.993475 M 1.001953 10.033654 L 1.001953 5.011332 L 8.985352 5.011332 L 8.985352 9.02919 L 16.96875 9.02919 L 16.96875 5.011332 L 11.988281 5.011332 M 4.004883 9.02919 L 5.982422 9.02919 M 25.977539 9.02919 L 20.99707 9.02919 L 20.99707 5.011332 L 28.980469 5.011332 M 28.980469 -0.010989 L 28.980469 9.02919 L 36.963867 9.02919 L 36.963867 -0.010989 M 33.008789 -0.010989 L 33.008789 9.02919 " transform="matrix(0.0533333,0,0,0.0505556,6.72,3.625556)"/>
<path style="fill:none;stroke-width:2;stroke-linecap:butt;stroke-linejoin:miter;stroke:rgb(100%,100%,100%);stroke-opacity:1;stroke-miterlimit:4;" d="M -0.0117188 6.987122 L 8.99707 6.987122 M 9.98584 6.987122 L 18.994629 6.987122 " transform="matrix(0.106667,0,0,0.101111,6.72,3.625556)"/>
<path style="fill:none;stroke-width:2;stroke-linecap:butt;stroke-linejoin:miter;stroke:rgb(100%,100%,100%);stroke-opacity:1;stroke-miterlimit:4;" d="M -0.0117188 7.012878 L 8.99707 7.012878 M 9.98584 7.012878 L 18.994629 7.012878 " transform="matrix(0.106667,0,0,0.101111,6.72,7.958889)"/>
<path style="fill:none;stroke-width:2;stroke-linecap:butt;stroke-linejoin:miter;stroke:rgb(100%,100%,100%);stroke-opacity:1;stroke-miterlimit:4;" d="M -0.0234375 0.97081 L 25.977539 0.97081 M 1.001953 10.010989 L 1.001953 4.988668 L 8.985352 4.988668 L 8.985352 9.006525 L 16.96875 9.006525 L 16.96875 4.988668 L 11.988281 4.988668 M 4.004883 9.006525 L 5.982422 9.006525 M 25.977539 9.006525 L 20.99707 9.006525 L 20.99707 4.988668 L 28.980469 4.988668 M 28.980469 -0.0336538 L 28.980469 9.006525 L 36.963867 9.006525 L 36.963867 -0.0336538 M 33.008789 -0.0336538 L 33.008789 9.006525 " transform="matrix(0.0533333,0,0,0.0505556,6.72,8.868889)"/>
<path style="fill:none;stroke-width:2;stroke-linecap:butt;stroke-linejoin:miter;stroke:rgb(100%,100%,100%);stroke-opacity:1;stroke-miterlimit:4;" d="M -0.0332031 0.993475 L 25.967773 0.993475 M 0.992187 10.033654 L 0.992187 5.011332 L 8.975586 5.011332 L 8.975586 9.02919 L 17.032227 9.02919 L 17.032227 5.011332 L 11.978516 5.011332 M 3.995117 9.02919 L 5.972656 9.02919 M 25.967773 9.02919 L 20.987305 9.02919 L 20.987305 5.011332 L 28.970703 5.011332 M 28.970703 -0.010989 L 28.970703 9.02919 L 37.027344 9.02919 L 37.027344 -0.010989 M 32.999023 -0.010989 L 32.999023 9.02919 " transform="matrix(0.0533333,0,0,0.0505556,8.853333,3.625556)"/>
<path style="fill:none;stroke-width:2;stroke-linecap:butt;stroke-linejoin:miter;stroke:rgb(100%,100%,100%);stroke-opacity:1;stroke-miterlimit:4;" d="M -0.0166016 6.987122 L 8.992187 6.987122 M 10.017578 6.987122 L 18.989746 6.987122 " transform="matrix(0.106667,0,0,0.101111,8.853333,3.625556)"/>
<path style="fill:none;stroke-width:2;stroke-linecap:butt;stroke-linejoin:miter;stroke:rgb(100%,100%,100%);stroke-opacity:1;stroke-miterlimit:4;" d="M -0.0166016 7.012878 L 8.992187 7.012878 M 10.017578 7.012878 L 18.989746 7.012878 " transform="matrix(0.106667,0,0,0.101111,8.853333,7.958889)"/>
<path style="fill:none;stroke-width:2;stroke-linecap:butt;stroke-linejoin:miter;stroke:rgb(100%,100%,100%);stroke-opacity:1;stroke-miterlimit:4;" d="M -0.0332031 0.97081 L 25.967773 0.97081 M 0.992187 10.010989 L 0.992187 4.988668 L 8.975586 4.988668 L 8.975586 9.006525 L 17.032227 9.006525 L 17.032227 4.988668 L 11.978516 4.988668 M 3.995117 9.006525 L 5.972656 9.006525 M 25.967773 9.006525 L 20.987305 9.006525 L 20.987305 4.988668 L 28.970703 4.988668 M 28.970703 -0.0336538 L 28.970703 9.006525 L 37.027344 9.006525 L 37.027344 -0.0336538 M 32.999023 -0.0336538 L 32.999023 9.006525 " transform="matrix(0.0533333,0,0,0.0505556,8.853333,8.868889)"/>
<path style="fill:none;stroke-width:2;stroke-linecap:butt;stroke-linejoin:miter;stroke:rgb(100%,100%,100%);stroke-opacity:1;stroke-miterlimit:4;" d="M 0.0302734 0.993475 L 26.03125 0.993475 M 0.982422 10.033654 L 0.982422 5.011332 L 8.96582 5.011332 L 8.96582 9.02919 L 17.022461 9.02919 L 17.022461 5.011332 L 11.96875 5.011332 M 3.985352 9.02919 L 6.036133 9.02919 M 26.03125 9.02919 L 20.977539 9.02919 L 20.977539 5.011332 L 29.03418 5.011332 M 29.03418 -0.010989 L 29.03418 9.02919 L 37.017578 9.02919 L 37.017578 -0.010989 M 32.989258 -0.010989 L 32.989258 9.02919 " transform="matrix(0.0533333,0,0,0.0505556,10.986667,3.625556)"/>
<path style="fill:none;stroke-width:2;stroke-linecap:butt;stroke-linejoin:miter;stroke:rgb(100%,100%,100%);stroke-opacity:1;stroke-miterlimit:4;" d="M 0.0151367 6.987122 L 8.987305 6.987122 M 10.012695 6.987122 L 18.984863 6.987122 " transform="matrix(0.106667,0,0,0.101111,10.986667,3.625556)"/>
<path style="fill:none;stroke-width:2;stroke-linecap:butt;stroke-linejoin:miter;stroke:rgb(100%,100%,100%);stroke-opacity:1;stroke-miterlimit:4;" d="M 0.0151367 7.012878 L 8.987305 7.012878 M 10.012695 7.012878 L 18.984863 7.012878 " transform="matrix(0.106667,0,0,0.101111,10.986667,7.958889)"/>
<path style="fill:none;stroke-width:2;stroke-linecap:butt;stroke-linejoin:miter;stroke:rgb(100%,100%,100%);stroke-opacity:1;stroke-miterlimit:4;" d="M 0.0302734 0.97081 L 26.03125 0.97081 M 0.982422 10.010989 L 0.982422 4.988668 L 8.96582 4.988668 L 8.96582 9.006525 L 17.022461 9.006525 L 17.022461 4.988668 L 11.96875 4.988668 M 3.985352 9.006525 L 6.036133 9.006525 M 26.03125 9.006525 L 20.977539 9.006525 L 20.977539 4.988668 L 29.03418 4.988668 M 29.03418 -0.0336538 L 29.03418 9.006525 L 37.017578 9.006525 L 37.017578 -0.0336538 M 32.989258 -0.0336538 L 32.989258 9.006525 " transform="matrix(0.0533333,0,0,0.0505556,10.986667,8.868889)"/>
<path style="fill:none;stroke-width:2;stroke-linecap:butt;stroke-linejoin:miter;stroke:rgb(100%,100%,100%);stroke-opacity:1;stroke-miterlimit:4;" d="M 0.0205078 0.993475 L 26.021484 0.993475 M 0.972656 10.033654 L 0.972656 5.011332 L 9.029297 5.011332 L 9.029297 9.02919 L 17.012695 9.02919 L 17.012695 5.011332 L 12.032227 5.011332 M 3.975586 9.02919 L 6.026367 9.02919 M 26.021484 9.02919 L 20.967773 9.02919 L 20.967773 5.011332 L 29.024414 5.011332 M 29.024414 -0.010989 L 29.024414 9.02919 L 37.007812 9.02919 L 37.007812 -0.010989 M 32.979492 -0.010989 L 32.979492 9.02919 " transform="matrix(0.0533333,0,0,0.0505556,13.12,3.625556)"/>
<path style="fill:none;stroke-width:2;stroke-linecap:butt;stroke-linejoin:miter;stroke:rgb(100%,100%,100%);stroke-opacity:1;stroke-miterlimit:4;" d="M 0.0102539 6.987122 L 8.982422 6.987122 M 10.007812 6.987122 L 19.016602 6.987122 " transform="matrix(0.106667,0,0,0.101111,13.12,3.625556)"/>
<path style="fill:none;stroke-width:2;stroke-linecap:butt;stroke-linejoin:miter;stroke:rgb(100%,100%,100%);stroke-opacity:1;stroke-miterlimit:4;" d="M 0.0102539 7.012878 L 8.982422 7.012878 M 10.007812 7.012878 L 19.016602 7.012878 " transform="matrix(0.106667,0,0,0.101111,13.12,7.958889)"/>
<path style="fill:none;stroke-width:2;stroke-linecap:butt;stroke-linejoin:miter;stroke:rgb(100%,100%,100%);stroke-opacity:1;stroke-miterlimit:4;" d="M 0.0205078 0.97081 L 26.021484 0.97081 M 0.972656 10.010989 L 0.972656 4.988668 L 9.029297 4.988668 L 9.029297 9.006525 L 17.012695 9.006525 L 17.012695 4.988668 L 12.032227 4.988668 M 3.975586 9.006525 L 6.026367 9.006525 M 26.021484 9.006525 L 20.967773 9.006525 L 20.967773 4.988668 L 29.024414 4.988668 M 29.024414 -0.0336538 L 29.024414 9.006525 L 37.007812 9.006525 L 37.007812 -0.0336538 M 32.979492 -0.0336538 L 32.979492 9.006525 " transform="matrix(0.0533333,0,0,0.0505556,13.12,8.868889)"/>
<path style="fill:none;stroke-width:2;stroke-linecap:butt;stroke-linejoin:miter;stroke:rgb(100%,100%,100%);stroke-opacity:1;stroke-miterlimit:4;" d="M 0.0107422 0.993475 L 26.011719 0.993475 M 1.036133 10.033654 L 1.036133 5.011332 L 9.019531 5.011332 L 9.019531 9.02919 L 17.00293 9.02919 L 17.00293 5.011332 L 12.022461 5.011332 M 3.96582 9.02919 L 6.016602 9.02919 M 26.011719 9.02919 L 21.03125 9.02919 L 21.03125 5.011332 L 29.014648 5.011332 M 29.014648 -0.010989 L 29.014648 9.02919 L 36.998047 9.02919 L 36.998047 -0.010989 M 32.969727 -0.010989 L 32.969727 9.02919 " transform="matrix(0.0533333,0,0,0.0505556,15.253333,3.625556)"/>
<path style="fill:none;stroke-width:2;stroke-linecap:butt;stroke-linejoin:miter;stroke:rgb(100%,100%,100%);stroke-opacity:1;stroke-miterlimit:4;" d="M 0.00537109 6.987122 L 9.01416 6.987122 M 10.00293 6.987122 L 19.011719 6.987122 " transform="matrix(0.106667,0,0,0.101111,15.253333,3.625556)"/>
<path style="fill:none;stroke-width:2;stroke-linecap:butt;stroke-linejoin:miter;stroke:rgb(100%,100%,100%);stroke-opacity:1;stroke-miterlimit:4;" d="M 0.00537109 7.012878 L 9.01416 7.012878 M 10.00293 7.012878 L 19.011719 7.012878 " transform="matrix(0.106667,0,0,0.101111,15.253333,7.958889)"/>
<path style="fill:none;stroke-width:2;stroke-linecap:butt;stroke-linejoin:miter;stroke:rgb(100%,100%,100%);stroke-opacity:1;stroke-miterlimit:4;" d="M 0.0107422 0.97081 L 26.011719 0.97081 M 1.036133 10.010989 L 1.036133 4.988668 L 9.019531 4.988668 L 9.019531 9.006525 L 17.00293 9.006525 L 17.00293 4.988668 L 12.022461 4.988668 M 3.96582 9.006525 L 6.016602 9.006525 M 26.011719 9.006525 L 21.03125 9.006525 L 21.03125 4.988668 L 29.014648 4.988668 M 29.014648 -0.0336538 L 29.014648 9.006525 L 36.998047 9.006525 L 36.998047 -0.0336538 M 32.969727 -0.0336538 L 32.969727 9.006525 " transform="matrix(0.0533333,0,0,0.0505556,15.253333,8.868889)"/>
<path style="fill:none;stroke-width:2;stroke-linecap:butt;stroke-linejoin:miter;stroke:rgb(100%,100%,100%);stroke-opacity:1;stroke-miterlimit:4;" d="M 0.000976562 0.993475 L 26.001953 0.993475 M 1.026367 10.033654 L 1.026367 5.011332 L 9.009766 5.011332 L 9.009766 9.02919 L 16.993164 9.02919 L 16.993164 5.011332 L 12.012695 5.011332 M 4.029297 9.02919 L 6.006836 9.02919 M 26.001953 9.02919 L 21.021484 9.02919 L 21.021484 5.011332 L 29.004883 5.011332 M 29.004883 -0.010989 L 29.004883 9.02919 L 36.988281 9.02919 L 36.988281 -0.010989 M 33.033203 -0.010989 L 33.033203 9.02919 " transform="matrix(0.0533333,0,0,0.0505556,17.386667,3.625556)"/>
<path style="fill:none;stroke-width:2;stroke-linecap:butt;stroke-linejoin:miter;stroke:rgb(100%,100%,100%);stroke-opacity:1;stroke-miterlimit:4;" d="M 0.000488281 6.987122 L 9.009277 6.987122 M 9.998047 6.987122 L 19.006836 6.987122 " transform="matrix(0.106667,0,0,0.101111,17.386667,3.625556)"/>
<path style="fill:none;stroke-width:2;stroke-linecap:butt;stroke-linejoin:miter;stroke:rgb(100%,100%,100%);stroke-opacity:1;stroke-miterlimit:4;" d="M 0.000488281 7.012878 L 9.009277 7.012878 M 9.998047 7.012878 L 19.006836 7.012878 " transform="matrix(0.106667,0,0,0.101111,17.386667,7.958889)"/>
<path style="fill:none;stroke-width:2;stroke-linecap:butt;stroke-linejoin:miter;stroke:rgb(100%,100%,100%);stroke-opacity:1;stroke-miterlimit:4;" d="M 0.000976562 0.97081 L 26.001953 0.97081 M 1.026367 10.010989 L 1.026367 4.988668 L 9.009766 4.988668 L 9.009766 9.006525 L 16.993164 9.006525 L 16.993164 4.988668 L 12.012695 4.988668 M 4.029297 9.006525 L 6.006836 9.006525 M 26.001953 9.006525 L 21.021484 9.006525 L 21.021484 4.988668 L 29.004883 4.988668 M 29.004883 -0.0336538 L 29.004883 9.006525 L 36.988281 9.006525 L 36.988281 -0.0336538 M 33.033203 -0.0336538 L 33.033203 9.006525 " transform="matrix(0.0533333,0,0,0.0505556,17.386667,8.868889)"/>
<path style="fill:none;stroke-width:2;stroke-linecap:butt;stroke-linejoin:miter;stroke:rgb(100%,100%,100%);stroke-opacity:1;stroke-miterlimit:4;" d="M -0.00878906 0.993475 L 25.992187 0.993475 M 1.016602 10.033654 L 1.016602 5.011332 L 9 5.011332 L 9 9.02919 L 16.983398 9.02919 L 16.983398 5.011332 L 12.00293 5.011332 M 4.019531 9.02919 L 5.99707 9.02919 M 25.992187 9.02919 L 21.011719 9.02919 L 21.011719 5.011332 L 28.995117 5.011332 M 28.995117 -0.010989 L 28.995117 9.02919 L 36.978516 9.02919 L 36.978516 -0.010989 M 33.023437 -0.010989 L 33.023437 9.02919 " transform="matrix(0.0533333,0,0,0.0505556,19.52,3.625556)"/>
<path style="fill:none;stroke-width:2;stroke-linecap:butt;stroke-linejoin:miter;stroke:rgb(100%,100%,100%);stroke-opacity:1;stroke-miterlimit:4;" d="M -0.00439453 6.987122 L 9.004395 6.987122 M 9.993164 6.987122 L 19.001953 6.987122 " transform="matrix(0.106667,0,0,0.101111,19.52,3.625556)"/>
<path style="fill:none;stroke-width:2;stroke-linecap:butt;stroke-linejoin:miter;stroke:rgb(100%,100%,100%);stroke-opacity:1;stroke-miterlimit:4;" d="M -0.00439453 7.012878 L 9.004395 7.012878 M 9.993164 7.012878 L 19.001953 7.012878 " transform="matrix(0.106667,0,0,0.101111,19.52,7.958889)"/>
<path style="fill:none;stroke-width:2;stroke-linecap:butt;stroke-linejoin:miter;stroke:rgb(100%,100%,100%);stroke-opacity:1;stroke-miterlimit:4;" d="M -0.00878906 0.97081 L 25.992187 0.97081 M 1.016602 10.010989 L 1.016602 4.988668 L 9 4.988668 L 9 9.006525 L 16.983398 9.006525 L 16.983398 4.988668 L 12.00293 4.988668 M 4.019531 9.006525 L 5.99707 9.006525 M 25.992187 9.006525 L 21.011719 9.006525 L 21.011719 4.988668 L 28.995117 4.988668 M 28.995117 -0.0336538 L 28.995117 9.006525 L 36.978516 9.006525 L 36.978516 -0.0336538 M 33.023437 -0.0336538 L 33.023437 9.006525 " transform="matrix(0.0533333,0,0,0.0505556,19.52,8.868889)"/>
<path style="fill:none;stroke-width:2;stroke-linecap:butt;stroke-linejoin:miter;stroke:rgb(100%,100%,100%);stroke-opacity:1;stroke-miterlimit:4;" d="M -0.0185547 0.993475 L 25.982422 0.993475 M 1.006836 10.033654 L 1.006836 5.011332 L 8.990234 5.011332 L 8.990234 9.02919 L 16.973633 9.02919 L 16.973633 5.011332 L 11.993164 5.011332 M 4.009766 9.02919 L 5.987305 9.02919 M 25.982422 9.02919 L 21.001953 9.02919 L 21.001953 5.011332 L 28.985352 5.011332 M 28.985352 -0.010989 L 28.985352 9.02919 L 36.96875 9.02919 L 36.96875 -0.010989 M 33.013672 -0.010989 L 33.013672 9.02919 " transform="matrix(0.0533333,0,0,0.0505556,21.653333,3.625556)"/>
<path style="fill:none;stroke-width:2;stroke-linecap:butt;stroke-linejoin:miter;stroke:rgb(100%,100%,100%);stroke-opacity:1;stroke-miterlimit:4;" d="M -0.00927734 6.987122 L 8.999512 6.987122 M 9.988281 6.987122 L 18.99707 6.987122 " transform="matrix(0.106667,0,0,0.101111,21.653333,3.625556)"/>
<path style="fill:none;stroke-width:2;stroke-linecap:butt;stroke-linejoin:miter;stroke:rgb(100%,100%,100%);stroke-opacity:1;stroke-miterlimit:4;" d="M -0.00927734 7.012878 L 8.999512 7.012878 M 9.988281 7.012878 L 18.99707 7.012878 " transform="matrix(0.106667,0,0,0.101111,21.653333,7.958889)"/>
<path style="fill:none;stroke-width:2;stroke-linecap:butt;stroke-linejoin:miter;stroke:rgb(100%,100%,100%);stroke-opacity:1;stroke-miterlimit:4;" d="M -0.0185547 0.97081 L 25.982422 0.97081 M 1.006836 10.010989 L 1.006836 4.988668 L 8.990234 4.988668 L 8.990234 9.006525 L 16.973633 9.006525 L 16.973633 4.988668 L 11.993164 4.988668 M 4.009766 9.006525 L 5.987305 9.006525 M 25.982422 9.006525 L 21.001953 9.006525 L 21.001953 4.988668 L 28.985352 4.988668 M 28.985352 -0.0336538 L 28.985352 9.006525 L 36.96875 9.006525 L 36.96875 -0.0336538 M 33.013672 -0.0336538 L 33.013672 9.006525 " transform="matrix(0.0533333,0,0,0.0505556,21.653333,8.868889)"/>
<path style=" stroke:none;fill-rule:nonzero;fill:rgb(85.490196%,0%,0%);fill-opacity:1;" d="M 11.058594 7.859375 C 11.769531 8.078125 12.542969 7.792969 12.90625 7.175781 C 13.269531 6.5625 13.128906 5.785156 12.5625 5.324219 C 12.925781 5.835938 12.957031 6.496094 12.636719 7.03125 C 12.320312 7.570312 11.707031 7.890625 11.058594 7.859375 "/>
<path style=" stroke:none;fill-rule:nonzero;fill:rgb(85.490196%,0%,0%);fill-opacity:1;" d="M 13.058594 7.574219 C 13.523438 7.320312 13.777344 6.828125 13.703125 6.328125 C 13.628906 5.828125 13.242188 5.417969 12.722656 5.296875 C 13.085938 5.554688 13.328125 5.941406 13.390625 6.367188 C 13.453125 6.796875 13.335938 7.230469 13.058594 7.574219 "/>
<path style=" stroke:none;fill-rule:nonzero;fill:rgb(85.490196%,0%,0%);fill-opacity:1;" d="M 12 8.125 L 11.914062 6.5 L 12 5.21875 C 12.050781 5.289062 12.121094 5.34375 12.203125 5.382812 L 12.203125 6.335938 L 12.132812 7.949219 Z M 12 8.125 "/>
<path style=" stroke:none;fill-rule:nonzero;fill:rgb(85.490196%,0%,0%);fill-opacity:1;" d="M 11.964844 5.117188 L 12 5.148438 C 12.070312 5.246094 12.210938 5.277344 12.320312 5.21875 C 12.429688 5.164062 12.480469 5.039062 12.433594 4.925781 C 12.414062 5.019531 12.339844 5.089844 12.242188 5.105469 C 12.144531 5.121094 12.050781 5.078125 12 4.996094 "/>
<path style=" stroke:none;fill-rule:nonzero;fill:rgb(85.490196%,0%,0%);fill-opacity:1;" d="M 12.941406 7.859375 C 12.230469 8.078125 11.457031 7.792969 11.09375 7.175781 C 10.730469 6.5625 10.871094 5.785156 11.4375 5.324219 C 11.074219 5.835938 11.042969 6.496094 11.363281 7.03125 C 11.679688 7.570312 12.292969 7.890625 12.941406 7.859375 "/>
<path style=" stroke:none;fill-rule:nonzero;fill:rgb(85.490196%,0%,0%);fill-opacity:1;" d="M 10.941406 7.574219 C 10.476562 7.320312 10.222656 6.828125 10.296875 6.328125 C 10.371094 5.828125 10.757812 5.417969 11.277344 5.296875 C 10.914062 5.554688 10.671875 5.941406 10.609375 6.367188 C 10.546875 6.796875 10.664062 7.230469 10.941406 7.574219 "/>
<path style=" stroke:none;fill-rule:nonzero;fill:rgb(85.490196%,0%,0%);fill-opacity:1;" d="M 12 8.125 L 12.085938 6.5 L 12 5.21875 C 11.949219 5.289062 11.878906 5.34375 11.796875 5.382812 L 11.796875 6.335938 L 11.867188 7.949219 Z M 12 8.125 "/>
<path style=" stroke:none;fill-rule:nonzero;fill:rgb(85.490196%,0%,0%);fill-opacity:1;" d="M 12.035156 5.117188 L 12 5.148438 C 11.929688 5.246094 11.789062 5.277344 11.679688 5.21875 C 11.570312 5.164062 11.519531 5.039062 11.566406 4.925781 C 11.585938 5.019531 11.660156 5.089844 11.757812 5.105469 C 11.855469 5.121094 11.949219 5.078125 12 4.996094 "/>
</g>
</svg>
