<?xml version="1.0" encoding="UTF-8"?>
<svg xmlns="http://www.w3.org/2000/svg" xmlns:xlink="http://www.w3.org/1999/xlink" width="24px" height="24px" viewBox="0 0 24 12" version="1.1">
<g id="surface1">
<rect x="0" y="0" width="24" height="12" style="fill:rgb(0%,47.843137%,23.921569%);fill-opacity:1;stroke:none;"/>
<path style=" stroke:none;fill-rule:nonzero;fill:rgb(100%,100%,100%);fill-opacity:1;" d="M 0 0 L 24 0 L 24 8 L 0 8 Z M 0 0 "/>
<path style=" stroke:none;fill-rule:nonzero;fill:rgb(0%,0%,0%);fill-opacity:1;" d="M 0 0 L 24 0 L 24 4 L 0 4 Z M 0 0 "/>
<path style=" stroke:none;fill-rule:nonzero;fill:rgb(80.784314%,6.666667%,14.901961%);fill-opacity:1;" d="M 0 0 L 0 12 L 12 6 Z M 0 0 "/>
<path style=" stroke:none;fill-rule:nonzero;fill:rgb(100%,100%,100%);fill-opacity:1;" d="M 3.707031 5.144531 L 3.894531 5.613281 L 4.378906 5.464844 L 4.125 5.90625 L 4.542969 6.191406 L 4.042969 6.265625 L 4.082031 6.773438 L 3.707031 6.429688 L 3.335938 6.773438 L 3.375 6.265625 L 2.871094 6.191406 L 3.289062 5.90625 L 3.039062 5.464844 L 3.523438 5.613281 Z M 3.707031 5.144531 "/>
</g>
</svg>
