<?xml version="1.0" encoding="UTF-8"?>
<svg xmlns="http://www.w3.org/2000/svg" xmlns:xlink="http://www.w3.org/1999/xlink" width="24px" height="24px" viewBox="0 0 24 16" version="1.1">
<g id="surface1">
<rect x="0" y="0" width="24" height="16" style="fill:rgb(100%,100%,100%);fill-opacity:1;stroke:none;"/>
<path style=" stroke:none;fill-rule:nonzero;fill:rgb(0%,0%,0%);fill-opacity:1;" d="M 0 0 L 24 0 L 24 4.800781 L 0 4.800781 Z M 0 0 "/>
<path style=" stroke:none;fill-rule:nonzero;fill:rgb(0%,40%,0%);fill-opacity:1;" d="M 0 11.199219 L 24 11.199219 L 24 16 L 0 16 Z M 0 11.199219 "/>
<path style="fill-rule:nonzero;fill:rgb(0%,0%,0%);fill-opacity:1;stroke-width:1;stroke-linecap:butt;stroke-linejoin:miter;stroke:rgb(0%,0%,0%);stroke-opacity:1;stroke-miterlimit:10;" d="M -1.012914 55.433082 L 1.017209 55.433732 L 1.008083 -38.019574 C 3.024559 -39.995685 3.001472 -43.004424 2.997916 -45.979333 C 2.998566 -48.009456 2.992105 -55.989397 0.00269665 -64.682829 C -3.011074 -55.996583 -3.004612 -48.016641 -3.005263 -45.986519 C -3.001707 -43.011609 -3.012449 -39.98334 -1.002508 -37.986395 Z M -1.012914 55.433082 " transform="matrix(0.0866025,0.05,-0.05,0.0866025,12,8)"/>
<path style=" stroke:none;fill-rule:nonzero;fill:rgb(100%,100%,100%);fill-opacity:1;" d="M 9.140625 12.75 L 9.316406 12.851562 L 13.988281 4.757812 C 14.261719 4.6875 14.410156 4.425781 14.558594 4.167969 C 14.660156 3.992188 15.058594 3.300781 15.234375 2.398438 C 14.539062 3 14.140625 3.691406 14.039062 3.867188 C 13.890625 4.125 13.738281 4.386719 13.8125 4.660156 Z M 9.140625 12.75 "/>
<path style="fill-rule:nonzero;fill:rgb(0%,0%,0%);fill-opacity:1;stroke-width:1;stroke-linecap:butt;stroke-linejoin:miter;stroke:rgb(0%,0%,0%);stroke-opacity:1;stroke-miterlimit:10;" d="M -1.012914 55.433082 L 1.017209 55.433732 L 1.008083 -38.019574 C 3.024559 -39.995685 3.001472 -43.004424 2.997916 -45.979333 C 2.998566 -48.009456 2.992105 -55.989397 0.00269665 -64.682829 C -3.011074 -55.996583 -3.004612 -48.016641 -3.005263 -45.986519 C -3.001707 -43.011609 -3.012449 -39.98334 -1.002508 -37.986395 Z M -1.012914 55.433082 " transform="matrix(-0.0866025,0.05,0.05,0.0866025,12,8)"/>
<path style=" stroke:none;fill-rule:nonzero;fill:rgb(100%,100%,100%);fill-opacity:1;" d="M 14.859375 12.75 L 14.683594 12.851562 L 10.011719 4.757812 C 9.738281 4.6875 9.589844 4.425781 9.441406 4.167969 C 9.339844 3.992188 8.941406 3.300781 8.765625 2.398438 C 9.460938 3 9.859375 3.691406 9.960938 3.867188 C 10.109375 4.125 10.261719 4.386719 10.1875 4.660156 Z M 14.859375 12.75 "/>
<path style=" stroke:none;fill-rule:nonzero;fill:rgb(73.333333%,0%,0%);fill-opacity:1;" d="M 0 5.601562 L 0 10.398438 L 10.101562 10.398438 C 10.398438 11.199219 11.398438 12.800781 12 12.800781 C 12.601562 12.800781 13.601562 11.199219 13.898438 10.398438 L 24 10.398438 L 24 5.601562 L 13.898438 5.601562 C 13.601562 4.800781 12.601562 3.199219 12 3.199219 C 11.398438 3.199219 10.398438 4.800781 10.101562 5.601562 Z M 0 5.601562 "/>
<path style=" stroke:none;fill-rule:nonzero;fill:rgb(0%,0%,0%);fill-opacity:1;" d="M 13.898438 10.398438 C 14.199219 9.601562 14.398438 8.800781 14.398438 8 C 14.398438 7.199219 14.199219 6.398438 13.898438 5.601562 C 13.601562 6.398438 13.398438 7.199219 13.398438 8 C 13.398438 8.800781 13.601562 9.601562 13.898438 10.398438 "/>
<path style=" stroke:none;fill-rule:nonzero;fill:rgb(0%,0%,0%);fill-opacity:1;" d="M 10.101562 10.398438 C 9.800781 9.601562 9.601562 8.800781 9.601562 8 C 9.601562 7.199219 9.800781 6.398438 10.101562 5.601562 C 10.398438 6.398438 10.601562 7.199219 10.601562 8 C 10.601562 8.800781 10.398438 9.601562 10.101562 10.398438 "/>
<path style=" stroke:none;fill-rule:nonzero;fill:rgb(100%,100%,100%);fill-opacity:1;" d="M 12.398438 8 C 12.398438 7.667969 12.222656 7.398438 12 7.398438 C 11.777344 7.398438 11.601562 7.667969 11.601562 8 C 11.601562 8.332031 11.777344 8.601562 12 8.601562 C 12.222656 8.601562 12.398438 8.332031 12.398438 8 Z M 12.398438 8 "/>
<path style=" stroke:none;fill-rule:nonzero;fill:rgb(100%,100%,100%);fill-opacity:1;" d="M 12.101562 8.585938 C 12.101562 8.585938 12.5 9.386719 12.5 10.683594 C 12.5 11.984375 12.101562 12.785156 12.101562 12.785156 Z M 12.101562 8.585938 "/>
<path style=" stroke:none;fill-rule:nonzero;fill:rgb(100%,100%,100%);fill-opacity:1;" d="M 11.898438 7.414062 C 11.898438 7.414062 11.5 6.613281 11.5 5.316406 C 11.5 4.015625 11.898438 3.214844 11.898438 3.214844 Z M 11.898438 7.414062 "/>
<path style=" stroke:none;fill-rule:nonzero;fill:rgb(100%,100%,100%);fill-opacity:1;" d="M 11.898438 8.585938 C 11.898438 8.585938 11.5 9.386719 11.5 10.683594 C 11.5 11.984375 11.898438 12.785156 11.898438 12.785156 Z M 11.898438 8.585938 "/>
<path style=" stroke:none;fill-rule:nonzero;fill:rgb(100%,100%,100%);fill-opacity:1;" d="M 12.101562 7.414062 C 12.101562 7.414062 12.5 6.613281 12.5 5.316406 C 12.5 4.015625 12.101562 3.214844 12.101562 3.214844 Z M 12.101562 7.414062 "/>
</g>
</svg>
