<?xml version="1.0" encoding="UTF-8"?>
<svg xmlns="http://www.w3.org/2000/svg" xmlns:xlink="http://www.w3.org/1999/xlink" width="24px" height="24px" viewBox="0 0 24 14" version="1.1">
<g id="surface1">
<rect x="0" y="0" width="24" height="14" style="fill:rgb(93.333333%,15.294118%,21.568627%);fill-opacity:1;stroke:none;"/>
<path style=" stroke:none;fill-rule:nonzero;fill:rgb(99.607843%,86.666667%,0%);fill-opacity:1;" d="M 10.917969 6.050781 C 10.648438 5.890625 10.367188 5.753906 10.070312 5.644531 C 9.8125 6.015625 9.671875 6.460938 9.671875 6.910156 C 9.671875 7.140625 9.707031 7.367188 9.777344 7.582031 C 9.902344 7.304688 10.058594 7.039062 10.242188 6.792969 C 10.4375 6.519531 10.664062 6.273438 10.917969 6.050781 Z M 10.203125 5.476562 C 10.519531 5.585938 10.824219 5.722656 11.117188 5.882812 C 11.179688 5.828125 11.25 5.78125 11.316406 5.734375 C 11.003906 5.566406 10.679688 5.433594 10.339844 5.332031 C 10.289062 5.375 10.246094 5.425781 10.203125 5.476562 Z M 10.484375 5.195312 C 10.847656 5.289062 11.199219 5.421875 11.53125 5.589844 C 11.609375 5.542969 11.683594 5.5 11.757812 5.457031 C 11.40625 5.285156 11.039062 5.152344 10.65625 5.066406 C 10.597656 5.105469 10.539062 5.148438 10.484375 5.195312 Z M 10.832031 4.960938 C 11.234375 5.035156 11.621094 5.164062 11.988281 5.339844 C 12.359375 5.164062 12.746094 5.039062 13.148438 4.960938 C 12.433594 4.554688 11.546875 4.554688 10.832031 4.960938 Z M 13.324219 5.070312 C 12.941406 5.15625 12.570312 5.285156 12.222656 5.457031 C 12.296875 5.5 12.375 5.546875 12.449219 5.589844 C 12.78125 5.421875 13.132812 5.289062 13.492188 5.195312 C 13.441406 5.148438 13.382812 5.105469 13.324219 5.070312 Z M 13.640625 5.335938 C 13.300781 5.433594 12.972656 5.566406 12.664062 5.734375 C 12.734375 5.78125 12.800781 5.832031 12.867188 5.882812 C 13.15625 5.71875 13.460938 5.582031 13.777344 5.476562 C 13.738281 5.425781 13.691406 5.375 13.640625 5.335938 Z M 13.910156 5.648438 C 13.613281 5.753906 13.332031 5.890625 13.066406 6.050781 C 13.320312 6.273438 13.546875 6.523438 13.742188 6.792969 C 13.921875 7.042969 14.078125 7.304688 14.203125 7.582031 C 14.273438 7.363281 14.304688 7.136719 14.304688 6.910156 C 14.308594 6.460938 14.167969 6.019531 13.90625 5.648438 Z M 13.710938 7.195312 C 13.472656 6.820312 13.179688 6.480469 12.847656 6.183594 C 12.773438 6.234375 12.695312 6.285156 12.628906 6.339844 C 13.195312 6.851562 13.628906 7.484375 13.898438 8.1875 C 13.964844 8.09375 14.023438 7.996094 14.074219 7.894531 C 13.972656 7.652344 13.847656 7.417969 13.710938 7.195312 Z M 12.421875 6.167969 C 12.492188 6.117188 12.566406 6.066406 12.644531 6.019531 C 12.578125 5.960938 12.511719 5.910156 12.441406 5.859375 C 12.363281 5.90625 12.285156 5.953125 12.210938 6.007812 L 12.214844 6.007812 C 12.28125 6.058594 12.351562 6.113281 12.421875 6.167969 Z M 11.988281 5.851562 C 12.066406 5.804688 12.148438 5.757812 12.222656 5.714844 C 12.144531 5.667969 12.066406 5.617188 11.988281 5.574219 C 11.914062 5.617188 11.839844 5.667969 11.761719 5.714844 C 11.839844 5.757812 11.914062 5.804688 11.988281 5.851562 Z M 11.769531 6.007812 C 11.691406 5.953125 11.621094 5.90625 11.542969 5.859375 L 11.335938 6.015625 C 11.414062 6.066406 11.484375 6.113281 11.558594 6.164062 C 11.628906 6.109375 11.699219 6.058594 11.769531 6.007812 Z M 11.988281 6.164062 C 11.921875 6.214844 11.851562 6.269531 11.777344 6.328125 C 11.851562 6.386719 11.921875 6.445312 11.988281 6.503906 C 12.058594 6.445312 12.128906 6.386719 12.203125 6.328125 C 12.132812 6.273438 12.0625 6.214844 11.988281 6.164062 Z M 11.988281 6.902344 C 11.671875 7.234375 11.402344 7.609375 11.1875 8.011719 C 11.042969 8.285156 10.921875 8.570312 10.832031 8.867188 C 11.550781 9.261719 12.429688 9.261719 13.148438 8.867188 C 13.058594 8.570312 12.9375 8.285156 12.789062 8.011719 C 12.578125 7.609375 12.308594 7.234375 11.988281 6.902344 Z M 10.648438 8.402344 C 10.902344 7.765625 11.289062 7.183594 11.78125 6.699219 C 11.714844 6.632812 11.644531 6.574219 11.570312 6.511719 C 10.996094 7.050781 10.558594 7.710938 10.296875 8.445312 C 10.371094 8.527344 10.453125 8.601562 10.542969 8.671875 C 10.574219 8.582031 10.613281 8.492188 10.648438 8.402344 Z M 12.195312 6.699219 C 12.691406 7.1875 13.078125 7.765625 13.335938 8.402344 C 13.371094 8.492188 13.402344 8.582031 13.4375 8.671875 C 13.527344 8.601562 13.609375 8.527344 13.6875 8.445312 C 13.421875 7.710938 12.980469 7.050781 12.410156 6.511719 C 12.335938 6.574219 12.265625 6.632812 12.195312 6.699219 Z M 10.078125 8.1875 C 10.351562 7.484375 10.789062 6.851562 11.355469 6.34375 C 11.28125 6.285156 11.207031 6.234375 11.132812 6.183594 C 10.800781 6.484375 10.507812 6.824219 10.269531 7.199219 C 10.128906 7.421875 10.007812 7.652344 9.90625 7.894531 C 9.957031 7.996094 10.011719 8.09375 10.078125 8.1875 Z M 12.003906 4.472656 C 13.4375 4.472656 14.597656 5.601562 14.597656 6.996094 C 14.597656 8.390625 13.4375 9.523438 12.003906 9.523438 C 10.566406 9.523438 9.40625 8.390625 9.40625 6.996094 C 9.40625 5.605469 10.570312 4.476562 12.003906 4.472656 Z M 13.148438 3.917969 C 13.050781 4.027344 12.972656 4.148438 12.914062 4.277344 C 12.894531 4.230469 12.890625 4.179688 12.902344 4.128906 C 12.925781 3.949219 12.976562 3.835938 13.074219 3.683594 C 13.109375 3.628906 13.140625 3.578125 13.15625 3.519531 C 13.226562 3.316406 13.191406 3.097656 13.070312 2.921875 C 13.089844 3.089844 13.046875 3.265625 12.953125 3.410156 C 12.941406 3.425781 12.929688 3.445312 12.914062 3.457031 C 12.804688 3.550781 12.714844 3.660156 12.640625 3.78125 C 12.5625 3.902344 12.5 4.035156 12.460938 4.171875 C 12.4375 4.128906 12.425781 4.078125 12.433594 4.03125 C 12.425781 3.84375 12.457031 3.730469 12.527344 3.558594 C 12.554688 3.503906 12.574219 3.445312 12.582031 3.386719 C 12.613281 3.203125 12.5625 2.972656 12.402344 2.808594 C 12.445312 2.976562 12.433594 3.152344 12.363281 3.3125 C 12.355469 3.328125 12.34375 3.347656 12.332031 3.363281 C 12.242188 3.472656 12.167969 3.59375 12.113281 3.722656 C 12.058594 3.855469 12.019531 3.996094 12.003906 4.136719 C 11.96875 4.097656 11.949219 4.050781 11.949219 4 C 11.914062 3.816406 11.925781 3.699219 11.964844 3.519531 C 11.984375 3.464844 11.996094 3.402344 11.992188 3.34375 C 11.992188 3.128906 11.894531 2.929688 11.722656 2.796875 C 11.792969 2.957031 11.808594 3.132812 11.765625 3.304688 C 11.757812 3.320312 11.75 3.339844 11.742188 3.355469 C 11.691406 3.453125 11.636719 3.546875 11.582031 3.746094 C 11.550781 3.886719 11.535156 4.027344 11.539062 4.171875 C 11.503906 4.136719 11.480469 4.09375 11.464844 4.046875 C 11.402344 3.867188 11.390625 3.753906 11.410156 3.566406 C 11.414062 3.507812 11.414062 3.449219 11.410156 3.390625 C 11.375 3.203125 11.253906 3 11.050781 2.890625 C 11.148438 3.039062 11.191406 3.210938 11.171875 3.382812 L 11.160156 3.441406 C 11.113281 3.574219 11.082031 3.710938 11.066406 3.851562 C 11.054688 3.996094 11.0625 4.140625 11.089844 4.28125 C 11.050781 4.25 11.019531 4.210938 11 4.164062 C 10.90625 4 10.878906 3.882812 10.863281 3.703125 C 10.863281 3.640625 10.851562 3.582031 10.832031 3.523438 C 10.773438 3.347656 10.621094 3.160156 10.402344 3.089844 C 10.542969 3.242188 10.601562 3.421875 10.601562 3.550781 C 10.601562 3.570312 10.597656 3.59375 10.597656 3.613281 C 10.570312 3.75 10.5625 3.890625 10.570312 4.03125 C 10.585938 4.171875 10.617188 4.3125 10.664062 4.449219 C 10.617188 4.425781 10.578125 4.390625 10.550781 4.351562 C 10.433594 4.203125 10.394531 4.09375 10.347656 3.914062 C 10.335938 3.855469 10.316406 3.796875 10.285156 3.742188 C 10.203125 3.578125 10.019531 3.417969 9.792969 3.378906 C 9.953125 3.511719 10.039062 3.683594 10.0625 3.808594 C 10.066406 3.828125 10.066406 3.847656 10.066406 3.867188 C 10.066406 4.007812 10.082031 4.148438 10.113281 4.289062 C 10.144531 4.425781 10.199219 4.558594 10.269531 4.683594 C 10.222656 4.667969 10.179688 4.640625 10.144531 4.601562 C 10.003906 4.476562 9.941406 4.375 9.871094 4.203125 C 9.851562 4.148438 9.820312 4.09375 9.785156 4.042969 C 9.671875 3.894531 9.46875 3.765625 9.234375 3.761719 C 9.421875 3.867188 9.53125 4.019531 9.574219 4.140625 L 9.589844 4.199219 C 9.609375 4.308594 9.621094 4.417969 9.699219 4.609375 C 9.753906 4.738281 9.828125 4.863281 9.921875 4.976562 C 9.871094 4.96875 9.824219 4.949219 9.78125 4.914062 C 9.625 4.8125 9.546875 4.71875 9.445312 4.5625 C 9.417969 4.511719 9.378906 4.460938 9.335938 4.417969 C 9.203125 4.289062 8.976562 4.1875 8.746094 4.21875 C 8.945312 4.300781 9.078125 4.433594 9.144531 4.546875 C 9.152344 4.5625 9.160156 4.582031 9.167969 4.605469 C 9.207031 4.703125 9.234375 4.808594 9.339844 4.988281 C 9.417969 5.109375 9.511719 5.222656 9.621094 5.320312 C 9.570312 5.316406 9.519531 5.304688 9.472656 5.277344 C 9.300781 5.199219 9.210938 5.121094 9.089844 4.984375 C 9.046875 4.9375 9.003906 4.890625 8.953125 4.851562 C 8.800781 4.746094 8.5625 4.683594 8.339844 4.75 C 8.550781 4.796875 8.707031 4.90625 8.785156 5.011719 C 8.796875 5.023438 8.808594 5.042969 8.816406 5.0625 C 8.878906 5.1875 8.957031 5.304688 9.050781 5.414062 C 9.144531 5.523438 9.253906 5.621094 9.375 5.703125 C 9.324219 5.707031 9.273438 5.703125 9.226562 5.683594 C 9.042969 5.636719 8.941406 5.566406 8.800781 5.449219 C 8.753906 5.410156 8.703125 5.375 8.648438 5.34375 C 8.453125 5.25 8.222656 5.246094 8.023438 5.335938 C 8.203125 5.34375 8.371094 5.410156 8.507812 5.523438 C 8.519531 5.539062 8.53125 5.554688 8.542969 5.570312 C 8.613281 5.65625 8.671875 5.75 8.832031 5.882812 C 8.945312 5.976562 9.070312 6.054688 9.203125 6.117188 C 9.152344 6.132812 9.101562 6.132812 9.050781 6.121094 C 8.859375 6.101562 8.75 6.050781 8.589844 5.953125 C 8.53125 5.921875 8.484375 5.890625 8.421875 5.875 C 8.214844 5.808594 7.988281 5.839844 7.808594 5.957031 C 7.984375 5.941406 8.160156 5.980469 8.3125 6.074219 C 8.328125 6.085938 8.34375 6.097656 8.355469 6.113281 C 8.4375 6.1875 8.515625 6.269531 8.691406 6.378906 C 8.8125 6.453125 8.949219 6.511719 9.09375 6.550781 C 9.046875 6.574219 8.996094 6.585938 8.945312 6.582031 C 8.753906 6.585938 8.636719 6.554688 8.460938 6.488281 C 8.40625 6.460938 8.34375 6.445312 8.28125 6.433594 C 8.097656 6.40625 7.855469 6.453125 7.691406 6.609375 C 7.898438 6.558594 8.089844 6.589844 8.207031 6.648438 C 8.222656 6.65625 8.242188 6.667969 8.257812 6.679688 C 8.488281 6.855469 8.765625 6.964844 9.054688 7 C 9.015625 7.03125 8.96875 7.046875 8.917969 7.050781 C 8.726562 7.089844 8.609375 7.074219 8.421875 7.035156 C 8.363281 7.015625 8.300781 7.007812 8.238281 7.007812 C 8.046875 7.007812 7.820312 7.089844 7.683594 7.269531 C 7.84375 7.199219 8.027344 7.183594 8.199219 7.226562 C 8.21875 7.234375 8.234375 7.242188 8.253906 7.25 C 8.382812 7.320312 8.515625 7.371094 8.65625 7.40625 C 8.800781 7.4375 8.945312 7.453125 9.09375 7.449219 C 9.054688 7.480469 9.011719 7.507812 8.960938 7.519531 C 8.78125 7.582031 8.660156 7.589844 8.472656 7.574219 C 8.410156 7.570312 8.347656 7.570312 8.289062 7.574219 C 8.101562 7.605469 7.890625 7.726562 7.777344 7.925781 C 7.925781 7.832031 8.105469 7.785156 8.28125 7.804688 C 8.304688 7.808594 8.320312 7.8125 8.339844 7.816406 C 8.617188 7.914062 8.914062 7.9375 9.203125 7.882812 C 9.171875 7.921875 9.128906 7.953125 9.082031 7.972656 C 8.917969 8.066406 8.796875 8.089844 8.609375 8.105469 C 8.546875 8.109375 8.484375 8.121094 8.425781 8.136719 C 8.21875 8.203125 8.054688 8.355469 7.976562 8.554688 C 8.109375 8.4375 8.28125 8.371094 8.457031 8.363281 C 8.476562 8.359375 8.5 8.363281 8.519531 8.367188 C 8.660156 8.390625 8.804688 8.398438 8.949219 8.390625 C 9.097656 8.378906 9.238281 8.347656 9.375 8.296875 C 9.355469 8.34375 9.320312 8.382812 9.273438 8.410156 C 9.125 8.523438 9.011719 8.5625 8.828125 8.605469 C 8.765625 8.617188 8.707031 8.636719 8.652344 8.664062 C 8.460938 8.761719 8.320312 8.941406 8.277344 9.148438 C 8.390625 9.015625 8.546875 8.921875 8.71875 8.882812 C 8.738281 8.878906 8.757812 8.878906 8.777344 8.878906 C 8.921875 8.878906 9.066406 8.863281 9.210938 8.835938 C 9.351562 8.800781 9.492188 8.75 9.621094 8.679688 C 9.605469 8.730469 9.574219 8.773438 9.535156 8.804688 C 9.40625 8.941406 9.300781 9 9.125 9.070312 C 9.066406 9.09375 9.015625 9.121094 8.960938 9.152344 C 8.808594 9.261719 8.671875 9.460938 8.667969 9.6875 C 8.757812 9.539062 8.898438 9.421875 9.0625 9.355469 C 9.082031 9.351562 9.101562 9.347656 9.121094 9.34375 C 9.230469 9.324219 9.34375 9.3125 9.539062 9.238281 C 9.675781 9.183594 9.804688 9.113281 9.921875 9.023438 C 9.910156 9.074219 9.890625 9.117188 9.855469 9.15625 C 9.75 9.308594 9.65625 9.386719 9.496094 9.484375 C 9.441406 9.511719 9.390625 9.546875 9.34375 9.589844 C 9.191406 9.742188 9.117188 9.953125 9.144531 10.164062 C 9.207031 10 9.324219 9.863281 9.476562 9.777344 C 9.5 9.769531 9.515625 9.761719 9.535156 9.753906 C 9.671875 9.714844 9.804688 9.660156 9.929688 9.585938 C 10.054688 9.511719 10.171875 9.417969 10.269531 9.3125 C 10.273438 9.363281 10.257812 9.414062 10.230469 9.457031 C 10.148438 9.625 10.066406 9.710938 9.925781 9.832031 C 9.875 9.871094 9.832031 9.914062 9.796875 9.960938 C 9.683594 10.113281 9.621094 10.339844 9.6875 10.558594 C 9.734375 10.351562 9.847656 10.203125 9.957031 10.128906 C 9.972656 10.117188 9.988281 10.105469 10.007812 10.097656 C 10.136719 10.035156 10.261719 9.957031 10.371094 9.867188 C 10.484375 9.773438 10.582031 9.667969 10.664062 9.550781 C 10.671875 9.601562 10.664062 9.648438 10.648438 9.695312 C 10.597656 9.875 10.53125 9.972656 10.40625 10.113281 C 10.363281 10.15625 10.328125 10.207031 10.300781 10.261719 C 10.214844 10.429688 10.183594 10.660156 10.285156 10.867188 C 10.304688 10.65625 10.390625 10.492188 10.484375 10.398438 C 10.5 10.386719 10.515625 10.371094 10.53125 10.359375 C 10.621094 10.292969 10.714844 10.234375 10.851562 10.082031 C 10.949219 9.972656 11.027344 9.851562 11.089844 9.71875 C 11.105469 9.769531 11.109375 9.816406 11.101562 9.867188 C 11.074219 10.050781 11.027344 10.160156 10.929688 10.316406 C 10.894531 10.367188 10.863281 10.421875 10.84375 10.480469 C 10.785156 10.65625 10.800781 10.894531 10.933594 11.078125 C 10.914062 10.871094 10.972656 10.691406 11.050781 10.585938 C 11.0625 10.570312 11.074219 10.554688 11.085938 10.542969 C 11.164062 10.464844 11.25 10.386719 11.363281 10.21875 C 11.441406 10.097656 11.5 9.964844 11.539062 9.828125 C 11.5625 9.871094 11.574219 9.921875 11.570312 9.96875 C 11.578125 10.15625 11.546875 10.269531 11.472656 10.441406 C 11.449219 10.496094 11.429688 10.554688 11.417969 10.613281 C 11.386719 10.796875 11.4375 11.027344 11.601562 11.191406 C 11.546875 10.988281 11.578125 10.804688 11.640625 10.6875 C 11.648438 10.671875 11.65625 10.652344 11.667969 10.636719 C 11.757812 10.527344 11.832031 10.40625 11.886719 10.273438 C 11.945312 10.144531 11.984375 10.003906 12.003906 9.863281 C 12.03125 9.902344 12.050781 9.949219 12.054688 9.996094 C 12.089844 10.183594 12.078125 10.296875 12.035156 10.480469 C 12.015625 10.539062 12.007812 10.597656 12.007812 10.65625 C 12.007812 10.871094 12.109375 11.070312 12.28125 11.199219 C 12.195312 11.007812 12.195312 10.824219 12.238281 10.695312 C 12.242188 10.679688 12.25 10.660156 12.257812 10.640625 C 12.328125 10.519531 12.378906 10.386719 12.417969 10.25 C 12.449219 10.113281 12.464844 9.96875 12.460938 9.828125 C 12.496094 9.863281 12.523438 9.90625 12.535156 9.953125 C 12.605469 10.128906 12.609375 10.246094 12.59375 10.433594 C 12.585938 10.492188 12.585938 10.550781 12.59375 10.609375 C 12.628906 10.820312 12.761719 11.003906 12.953125 11.109375 C 12.839844 10.929688 12.8125 10.746094 12.832031 10.617188 C 12.832031 10.597656 12.835938 10.578125 12.84375 10.558594 C 12.890625 10.425781 12.921875 10.289062 12.9375 10.148438 C 12.945312 10.003906 12.9375 9.863281 12.914062 9.722656 C 12.953125 9.75 12.984375 9.789062 13.003906 9.835938 C 13.097656 9.996094 13.125 10.117188 13.140625 10.296875 C 13.140625 10.359375 13.152344 10.417969 13.167969 10.476562 C 13.238281 10.675781 13.398438 10.835938 13.601562 10.910156 C 13.460938 10.753906 13.402344 10.574219 13.398438 10.445312 C 13.398438 10.425781 13.402344 10.402344 13.402344 10.382812 C 13.433594 10.246094 13.441406 10.105469 13.429688 9.964844 C 13.417969 9.824219 13.386719 9.683594 13.339844 9.550781 C 13.382812 9.574219 13.421875 9.609375 13.449219 9.648438 C 13.566406 9.796875 13.613281 9.90625 13.65625 10.085938 C 13.667969 10.144531 13.6875 10.199219 13.714844 10.253906 C 13.800781 10.421875 13.980469 10.578125 14.214844 10.617188 C 14.074219 10.511719 13.976562 10.359375 13.9375 10.191406 C 13.933594 10.171875 13.933594 10.152344 13.933594 10.132812 C 13.9375 9.992188 13.921875 9.851562 13.890625 9.710938 C 13.855469 9.574219 13.800781 9.4375 13.730469 9.3125 C 13.777344 9.328125 13.824219 9.359375 13.855469 9.398438 C 13.996094 9.523438 14.058594 9.625 14.132812 9.796875 C 14.152344 9.851562 14.179688 9.90625 14.21875 9.953125 C 14.332031 10.105469 14.535156 10.234375 14.765625 10.238281 C 14.613281 10.152344 14.492188 10.015625 14.429688 9.855469 C 14.421875 9.835938 14.414062 9.820312 14.410156 9.800781 C 14.394531 9.660156 14.355469 9.523438 14.300781 9.394531 C 14.246094 9.261719 14.171875 9.136719 14.082031 9.023438 C 14.132812 9.03125 14.183594 9.050781 14.222656 9.085938 C 14.378906 9.1875 14.457031 9.277344 14.554688 9.4375 C 14.585938 9.488281 14.621094 9.539062 14.664062 9.582031 C 14.820312 9.730469 15.035156 9.800781 15.253906 9.777344 C 15.054688 9.699219 14.921875 9.566406 14.859375 9.453125 C 14.847656 9.433594 14.839844 9.417969 14.835938 9.398438 C 14.792969 9.261719 14.734375 9.132812 14.660156 9.011719 C 14.582031 8.890625 14.488281 8.78125 14.382812 8.679688 C 14.433594 8.683594 14.484375 8.695312 14.53125 8.722656 C 14.699219 8.800781 14.792969 8.878906 14.917969 9.015625 C 14.953125 9.066406 14.996094 9.109375 15.046875 9.144531 C 15.222656 9.269531 15.449219 9.308594 15.660156 9.25 C 15.453125 9.203125 15.296875 9.09375 15.21875 8.984375 C 15.203125 8.972656 15.195312 8.957031 15.183594 8.9375 C 15.132812 8.84375 15.085938 8.742188 14.953125 8.582031 C 14.855469 8.476562 14.746094 8.378906 14.625 8.296875 C 14.675781 8.292969 14.726562 8.296875 14.773438 8.3125 C 14.957031 8.367188 15.058594 8.433594 15.203125 8.550781 C 15.25 8.589844 15.300781 8.625 15.355469 8.652344 C 15.527344 8.738281 15.765625 8.765625 15.976562 8.664062 C 15.761719 8.648438 15.59375 8.5625 15.496094 8.472656 C 15.480469 8.460938 15.46875 8.445312 15.457031 8.429688 C 15.375 8.3125 15.28125 8.207031 15.171875 8.117188 C 15.058594 8.023438 14.933594 7.945312 14.800781 7.882812 C 14.851562 7.867188 14.902344 7.867188 14.953125 7.875 C 15.140625 7.898438 15.253906 7.945312 15.410156 8.046875 C 15.464844 8.078125 15.519531 8.105469 15.578125 8.125 C 15.761719 8.179688 16.003906 8.167969 16.195312 8.039062 C 15.980469 8.058594 15.800781 7.996094 15.691406 7.921875 L 15.644531 7.886719 C 15.546875 7.785156 15.433594 7.695312 15.308594 7.617188 C 15.183594 7.542969 15.050781 7.488281 14.90625 7.449219 C 14.953125 7.425781 15.003906 7.414062 15.054688 7.417969 C 15.25 7.410156 15.367188 7.441406 15.539062 7.511719 C 15.59375 7.535156 15.65625 7.554688 15.71875 7.566406 C 15.902344 7.59375 16.144531 7.546875 16.308594 7.390625 C 16.101562 7.441406 15.917969 7.410156 15.792969 7.351562 C 15.777344 7.34375 15.757812 7.332031 15.742188 7.320312 C 15.628906 7.234375 15.503906 7.164062 15.371094 7.109375 C 15.234375 7.054688 15.089844 7.019531 14.945312 6.996094 C 14.988281 6.96875 15.035156 6.953125 15.085938 6.945312 C 15.273438 6.910156 15.394531 6.921875 15.578125 6.964844 C 15.636719 6.984375 15.699219 6.992188 15.761719 6.992188 C 15.980469 6.992188 16.183594 6.894531 16.324219 6.730469 C 16.125 6.808594 15.933594 6.808594 15.804688 6.769531 C 15.785156 6.765625 15.765625 6.757812 15.75 6.75 C 15.648438 6.703125 15.550781 6.644531 15.347656 6.59375 C 15.203125 6.5625 15.054688 6.546875 14.90625 6.550781 C 14.945312 6.515625 14.988281 6.492188 15.039062 6.480469 C 15.222656 6.414062 15.34375 6.410156 15.53125 6.421875 C 15.589844 6.429688 15.65625 6.429688 15.714844 6.421875 C 15.933594 6.386719 16.121094 6.257812 16.226562 6.074219 C 16.042969 6.183594 15.855469 6.210938 15.722656 6.195312 C 15.699219 6.191406 15.679688 6.1875 15.660156 6.179688 C 15.523438 6.132812 15.382812 6.101562 15.242188 6.089844 C 15.09375 6.082031 14.945312 6.089844 14.800781 6.117188 C 14.832031 6.074219 14.871094 6.042969 14.921875 6.023438 C 15.085938 5.929688 15.203125 5.90625 15.390625 5.890625 C 15.453125 5.890625 15.515625 5.882812 15.574219 5.863281 C 15.757812 5.804688 15.949219 5.660156 16.023438 5.441406 C 15.890625 5.558594 15.722656 5.628906 15.546875 5.640625 C 15.527344 5.640625 15.503906 5.636719 15.484375 5.636719 C 15.375 5.617188 15.261719 5.59375 15.054688 5.609375 C 14.90625 5.621094 14.761719 5.652344 14.625 5.703125 C 14.648438 5.65625 14.683594 5.621094 14.726562 5.589844 C 14.875 5.476562 14.988281 5.433594 15.171875 5.390625 C 15.234375 5.378906 15.292969 5.359375 15.351562 5.335938 C 15.519531 5.246094 15.683594 5.074219 15.726562 4.847656 C 15.585938 5.011719 15.417969 5.09375 15.28125 5.117188 C 15.261719 5.121094 15.242188 5.121094 15.222656 5.121094 C 15.078125 5.117188 14.933594 5.128906 14.792969 5.160156 C 14.652344 5.195312 14.511719 5.246094 14.382812 5.320312 C 14.398438 5.269531 14.425781 5.226562 14.464844 5.195312 C 14.59375 5.058594 14.699219 5 14.875 4.925781 C 14.933594 4.90625 14.992188 4.878906 15.042969 4.84375 C 15.191406 4.734375 15.328125 4.535156 15.332031 4.3125 C 15.222656 4.488281 15.066406 4.597656 14.941406 4.640625 C 14.921875 4.644531 14.898438 4.652344 14.878906 4.65625 C 14.769531 4.675781 14.65625 4.6875 14.460938 4.761719 C 14.324219 4.816406 14.199219 4.886719 14.082031 4.976562 C 14.089844 4.925781 14.113281 4.878906 14.144531 4.839844 C 14.25 4.6875 14.347656 4.613281 14.503906 4.515625 C 14.558594 4.488281 14.609375 4.453125 14.65625 4.410156 C 14.789062 4.28125 14.890625 4.0625 14.859375 3.835938 C 14.777344 4.03125 14.640625 4.160156 14.523438 4.222656 C 14.503906 4.234375 14.488281 4.238281 14.46875 4.242188 C 14.328125 4.285156 14.195312 4.34375 14.070312 4.414062 C 13.945312 4.488281 13.832031 4.578125 13.730469 4.683594 C 13.730469 4.632812 13.746094 4.585938 13.769531 4.542969 C 13.851562 4.375 13.933594 4.289062 14.074219 4.164062 C 14.125 4.128906 14.167969 4.085938 14.207031 4.039062 C 14.320312 3.886719 14.382812 3.660156 14.3125 3.441406 C 14.265625 3.644531 14.152344 3.792969 14.046875 3.871094 C 14.03125 3.886719 14.011719 3.894531 13.992188 3.902344 C 13.894531 3.957031 13.789062 4 13.632812 4.128906 C 13.519531 4.222656 13.421875 4.328125 13.339844 4.449219 C 13.328125 4.398438 13.335938 4.347656 13.355469 4.304688 C 13.410156 4.125 13.472656 4.027344 13.59375 3.882812 C 13.636719 3.835938 13.675781 3.796875 13.703125 3.738281 C 13.800781 3.546875 13.804688 3.324219 13.714844 3.132812 C 13.707031 3.304688 13.636719 3.472656 13.519531 3.601562 C 13.503906 3.613281 13.488281 3.628906 13.472656 3.640625 C 13.351562 3.71875 13.242188 3.8125 13.148438 3.917969 Z M 13.148438 3.917969 "/>
</g>
</svg>
