<?xml version="1.0" encoding="UTF-8"?>
<svg xmlns="http://www.w3.org/2000/svg" xmlns:xlink="http://www.w3.org/1999/xlink" width="24px" height="24px" viewBox="0 0 24 15" version="1.1">
<g id="surface1">
<rect x="0" y="0" width="24" height="15" style="fill:rgb(1.176471%,18.039216%,63.137255%);fill-opacity:1;stroke:none;"/>
<path style=" stroke:none;fill-rule:nonzero;fill:rgb(87.843137%,0%,14.509804%);fill-opacity:1;" d="M 0 3.75 L 24 3.75 L 24 11.25 L 0 11.25 Z M 0 3.75 "/>
<path style="fill-rule:nonzero;fill:rgb(100%,100%,100%);fill-opacity:1;stroke-width:0.96;stroke-linecap:butt;stroke-linejoin:bevel;stroke:rgb(0%,0%,0%);stroke-opacity:1;stroke-miterlimit:4;" d="M 139.001346 623.475267 L 252.831912 623.475267 L 252.831912 667.225267 L 139.001346 667.225267 Z M 139.001346 623.475267 " transform="matrix(0.0384,0,0,0.0375,4.498286,-16.31001)"/>
<path style="fill-rule:nonzero;fill:rgb(100%,100%,100%);fill-opacity:1;stroke-width:0.96;stroke-linecap:butt;stroke-linejoin:bevel;stroke:rgb(0%,0%,0%);stroke-opacity:1;stroke-miterlimit:4;" d="M 246.931847 647.641933 L 250.492231 647.641933 L 250.492231 664.100267 L 246.931847 664.100267 Z M 246.931847 647.641933 " transform="matrix(0.0384,0,0,0.0375,4.498286,-16.31001)"/>
<path style="fill-rule:nonzero;fill:rgb(100%,100%,100%);fill-opacity:1;stroke-width:0.96;stroke-linecap:butt;stroke-linejoin:bevel;stroke:rgb(0%,0%,0%);stroke-opacity:1;stroke-miterlimit:4;" d="M 139.001346 639.516933 L 252.831912 639.516933 L 252.831912 644.6211 L 139.001346 644.6211 Z M 139.001346 639.516933 " transform="matrix(0.0384,0,0,0.0375,4.498286,-16.31001)"/>
<path style="fill-rule:nonzero;fill:rgb(100%,100%,100%);fill-opacity:1;stroke-width:0.96;stroke-linecap:butt;stroke-linejoin:bevel;stroke:rgb(0%,0%,0%);stroke-opacity:1;stroke-miterlimit:4;" d="M 139.001346 632.641933 L 252.831912 632.641933 L 252.831912 637.1211 L 139.001346 637.1211 Z M 139.001346 632.641933 " transform="matrix(0.0384,0,0,0.0375,4.498286,-16.31001)"/>
<path style="fill-rule:nonzero;fill:rgb(100%,100%,100%);fill-opacity:1;stroke-width:0.94545;stroke-linecap:butt;stroke-linejoin:bevel;stroke:rgb(0%,0%,0%);stroke-opacity:1;stroke-miterlimit:4;" d="M 139.001346 625.662767 L 252.831912 625.662767 L 252.831912 630.037767 L 139.001346 630.037767 Z M 139.001346 625.662767 " transform="matrix(0.0384,0,0,0.0375,4.498286,-16.31001)"/>
<path style="fill-rule:nonzero;fill:rgb(100%,100%,100%);fill-opacity:1;stroke-width:0.96;stroke-linecap:butt;stroke-linejoin:bevel;stroke:rgb(0%,0%,0%);stroke-opacity:1;stroke-miterlimit:4;" d="M 169.010298 647.641933 L 172.570682 647.641933 L 172.570682 664.100267 L 169.010298 664.100267 Z M 169.010298 647.641933 " transform="matrix(0.0384,0,0,0.0375,4.498286,-16.31001)"/>
<path style="fill-rule:nonzero;fill:rgb(100%,100%,100%);fill-opacity:1;stroke-width:0.96;stroke-linecap:butt;stroke-linejoin:bevel;stroke:rgb(0%,0%,0%);stroke-opacity:1;stroke-miterlimit:4;" d="M 217.940148 647.641933 L 221.602257 647.641933 L 221.602257 664.100267 L 217.940148 664.100267 Z M 217.940148 647.641933 " transform="matrix(0.0384,0,0,0.0375,4.498286,-16.31001)"/>
<path style="fill-rule:nonzero;fill:rgb(100%,100%,100%);fill-opacity:1;stroke-width:0.96;stroke-linecap:butt;stroke-linejoin:bevel;stroke:rgb(0%,0%,0%);stroke-opacity:1;stroke-miterlimit:4;" d="M 139.916873 647.641933 L 143.477257 647.641933 L 143.477257 664.100267 L 139.916873 664.100267 Z M 139.916873 647.641933 " transform="matrix(0.0384,0,0,0.0375,4.498286,-16.31001)"/>
<path style="fill-rule:nonzero;fill:rgb(100%,100%,100%);fill-opacity:1;stroke-width:0.96;stroke-linecap:butt;stroke-linejoin:bevel;stroke:rgb(0%,0%,0%);stroke-opacity:1;stroke-miterlimit:4;" d="M 146.935916 647.641933 L 150.4963 647.641933 L 150.4963 664.100267 L 146.935916 664.100267 Z M 146.935916 647.641933 " transform="matrix(0.0384,0,0,0.0375,4.498286,-16.31001)"/>
<path style="fill-rule:nonzero;fill:rgb(100%,100%,100%);fill-opacity:1;stroke-width:0.96;stroke-linecap:butt;stroke-linejoin:bevel;stroke:rgb(0%,0%,0%);stroke-opacity:1;stroke-miterlimit:4;" d="M 154.463585 647.641933 L 158.023969 647.641933 L 158.023969 664.100267 L 154.463585 664.100267 Z M 154.463585 647.641933 " transform="matrix(0.0384,0,0,0.0375,4.498286,-16.31001)"/>
<path style="fill-rule:nonzero;fill:rgb(100%,100%,100%);fill-opacity:1;stroke-width:0.96;stroke-linecap:butt;stroke-linejoin:bevel;stroke:rgb(0%,0%,0%);stroke-opacity:1;stroke-miterlimit:4;" d="M 161.991255 647.641933 L 165.551639 647.641933 L 165.551639 664.100267 L 161.991255 664.100267 Z M 161.991255 647.641933 " transform="matrix(0.0384,0,0,0.0375,4.498286,-16.31001)"/>
<path style="fill-rule:nonzero;fill:rgb(100%,100%,100%);fill-opacity:1;stroke-width:0.96;stroke-linecap:butt;stroke-linejoin:bevel;stroke:rgb(0%,0%,0%);stroke-opacity:1;stroke-miterlimit:4;" d="M 224.75574 647.641933 L 228.316124 647.641933 L 228.316124 664.100267 L 224.75574 664.100267 Z M 224.75574 647.641933 " transform="matrix(0.0384,0,0,0.0375,4.498286,-16.31001)"/>
<path style="fill-rule:nonzero;fill:rgb(100%,100%,100%);fill-opacity:1;stroke-width:0.96;stroke-linecap:butt;stroke-linejoin:bevel;stroke:rgb(0%,0%,0%);stroke-opacity:1;stroke-miterlimit:4;" d="M 232.28341 647.641933 L 235.843794 647.641933 L 235.843794 664.100267 L 232.28341 664.100267 Z M 232.28341 647.641933 " transform="matrix(0.0384,0,0,0.0375,4.498286,-16.31001)"/>
<path style="fill-rule:nonzero;fill:rgb(100%,100%,100%);fill-opacity:1;stroke-width:0.96;stroke-linecap:butt;stroke-linejoin:bevel;stroke:rgb(0%,0%,0%);stroke-opacity:1;stroke-miterlimit:4;" d="M 239.811079 647.641933 L 243.371463 647.641933 L 243.371463 664.100267 L 239.811079 664.100267 Z M 239.811079 647.641933 " transform="matrix(0.0384,0,0,0.0375,4.498286,-16.31001)"/>
<path style="fill-rule:nonzero;fill:rgb(100%,100%,100%);fill-opacity:1;stroke-width:0.96;stroke-linecap:butt;stroke-linejoin:miter;stroke:rgb(0%,0%,0%);stroke-opacity:1;stroke-miterlimit:4;" d="M 94.547407 669.516933 C 96.276736 668.6836 98.311242 666.600267 98.921593 664.204433 L 291.996137 664.204433 C 292.708214 666.600267 294.640994 668.6836 296.472049 669.516933 Z M 94.547407 669.516933 " transform="matrix(0.0384,0,0,0.0375,4.498286,-16.31001)"/>
<path style="fill-rule:nonzero;fill:rgb(100%,100%,100%);fill-opacity:1;stroke-width:0.96;stroke-linecap:butt;stroke-linejoin:miter;stroke:rgb(0%,0%,0%);stroke-opacity:1;stroke-miterlimit:4;" d="M 193.017459 556.8086 C 193.017459 556.8086 192.814008 552.641933 195.255415 552.641933 C 197.595096 552.641933 197.49337 556.8086 197.49337 556.8086 Z M 193.017459 556.8086 " transform="matrix(0.0384,0,0,0.0375,4.498286,-16.31001)"/>
<path style="fill-rule:nonzero;fill:rgb(100%,100%,100%);fill-opacity:1;stroke-width:0.96;stroke-linecap:butt;stroke-linejoin:miter;stroke:rgb(0%,0%,0%);stroke-opacity:1;stroke-miterlimit:4;" d="M 180.505252 611.391933 L 180.505252 605.766933 C 180.403527 603.0586 177.75867 602.850267 177.656945 600.766933 C 177.656945 600.766933 177.351769 597.7461 178.165571 596.391933 C 179.182824 600.454433 181.217329 599.725267 181.217329 598.0586 C 181.217329 596.600267 180.098351 595.2461 177.75867 591.704433 C 177.046593 590.5586 177.453494 587.016933 178.470747 585.766933 C 178.877648 588.891933 179.386274 590.350267 180.708703 590.350267 C 181.522505 590.350267 182.132856 589.829433 182.132856 588.266933 C 182.132856 586.287767 180.810428 585.350267 180.200076 583.579433 C 179.386274 581.4961 179.8949 579.3086 181.217329 578.162767 C 181.725955 581.1836 181.62423 582.4336 182.946658 582.4336 C 185.591515 581.600267 182.946658 577.641933 182.336307 576.600267 C 181.725955 575.454433 183.251834 573.162767 183.251834 573.162767 C 184.065636 575.8711 184.370812 576.079433 185.286339 575.8711 C 186.507042 575.5586 186.303592 573.787767 184.879438 572.329433 C 183.963911 571.4961 184.065636 570.141933 185.082889 569.100267 C 185.998416 570.975267 187.320844 570.8711 187.42257 569.725267 L 186.608768 565.350267 L 203.902062 565.350267 L 202.986535 569.6211 C 202.783084 570.8711 204.410688 571.079433 205.427941 569.100267 C 206.445193 570.141933 206.546919 571.4961 205.631391 572.329433 C 204.207238 573.787767 204.003787 575.5586 205.22449 575.8711 C 206.140018 576.079433 206.445193 575.8711 207.258995 573.162767 C 207.258995 573.162767 208.683149 574.725267 208.174523 576.600267 C 207.564171 577.641933 204.817589 581.600267 207.564171 582.4336 C 208.8866 582.4336 208.784874 581.1836 209.293501 578.162767 C 210.615929 579.3086 211.124555 581.4961 210.310753 583.579433 C 209.700402 585.350267 208.377973 586.287767 208.377973 588.266933 C 208.377973 589.829433 208.988325 590.350267 209.802127 590.350267 C 211.124555 590.350267 211.633182 588.891933 211.938357 585.766933 C 213.057335 587.016933 213.464236 590.5586 212.75216 591.704433 C 210.412479 595.2461 209.293501 596.600267 209.293501 598.0586 C 209.293501 599.725267 211.328006 600.454433 212.345258 596.391933 C 213.159061 597.7461 212.853885 600.766933 212.853885 600.766933 C 212.75216 602.850267 210.107303 603.0586 210.005578 605.766933 L 210.005578 611.391933 Z M 180.505252 611.391933 " transform="matrix(0.0384,0,0,0.0375,4.498286,-16.31001)"/>
<path style="fill-rule:nonzero;fill:rgb(100%,100%,100%);fill-opacity:1;stroke-width:0.96;stroke-linecap:butt;stroke-linejoin:miter;stroke:rgb(0%,0%,0%);stroke-opacity:1;stroke-miterlimit:4;" d="M 187.727745 565.350267 L 187.320844 562.225267 L 203.189985 562.225267 L 202.783084 565.350267 Z M 187.727745 565.350267 " transform="matrix(0.0384,0,0,0.0375,4.498286,-16.31001)"/>
<path style="fill-rule:nonzero;fill:rgb(100%,100%,100%);fill-opacity:1;stroke-width:0.96;stroke-linecap:butt;stroke-linejoin:miter;stroke:rgb(0%,0%,0%);stroke-opacity:1;stroke-miterlimit:4;" d="M 188.744998 562.1211 L 188.439822 559.516933 L 202.071007 559.516933 L 201.664106 562.1211 Z M 188.744998 562.1211 " transform="matrix(0.0384,0,0,0.0375,4.498286,-16.31001)"/>
<path style="fill-rule:nonzero;fill:rgb(100%,100%,100%);fill-opacity:1;stroke-width:0.96;stroke-linecap:butt;stroke-linejoin:miter;stroke:rgb(0%,0%,0%);stroke-opacity:1;stroke-miterlimit:4;" d="M 190.982954 559.516933 L 190.677778 556.912767 L 199.731326 556.912767 L 199.527876 559.516933 Z M 190.982954 559.516933 " transform="matrix(0.0384,0,0,0.0375,4.498286,-16.31001)"/>
<path style="fill-rule:nonzero;fill:rgb(100%,100%,100%);fill-opacity:1;stroke-width:0.96;stroke-linecap:butt;stroke-linejoin:miter;stroke:rgb(0%,0%,0%);stroke-opacity:1;stroke-miterlimit:4;" d="M 223.941938 669.516933 C 221.907433 668.787767 218.9574 666.600267 218.9574 664.516933 L 218.9574 640.141933 L 221.602257 636.8086 L 168.806847 636.8086 L 171.349979 640.141933 L 171.349979 664.516933 C 171.349979 666.600267 169.315473 668.787767 167.280968 669.516933 Z M 223.941938 669.516933 " transform="matrix(0.0384,0,0,0.0375,4.498286,-16.31001)"/>
<path style="fill-rule:nonzero;fill:rgb(100%,100%,100%);fill-opacity:1;stroke-width:0.96;stroke-linecap:butt;stroke-linejoin:bevel;stroke:rgb(0%,0%,0%);stroke-opacity:1;stroke-miterlimit:4;" d="M 178.267296 647.641933 L 181.82768 647.641933 L 181.82768 664.100267 L 178.267296 664.100267 Z M 178.267296 647.641933 " transform="matrix(0.0384,0,0,0.0375,4.498286,-16.31001)"/>
<path style="fill-rule:nonzero;fill:rgb(100%,100%,100%);fill-opacity:1;stroke-width:0.96;stroke-linecap:butt;stroke-linejoin:bevel;stroke:rgb(0%,0%,0%);stroke-opacity:1;stroke-miterlimit:4;" d="M 208.581424 647.641933 L 212.141808 647.641933 L 212.141808 664.100267 L 208.581424 664.100267 Z M 208.581424 647.641933 " transform="matrix(0.0384,0,0,0.0375,4.498286,-16.31001)"/>
<path style="fill-rule:nonzero;fill:rgb(100%,100%,100%);fill-opacity:1;stroke-width:0.96;stroke-linecap:butt;stroke-linejoin:miter;stroke:rgb(0%,0%,0%);stroke-opacity:1;stroke-miterlimit:4;" d="M 167.89132 609.204433 L 167.89132 636.8086 L 221.907433 636.8086 L 221.907433 630.8711 L 222.009158 609.204433 C 219.771203 610.037767 219.364301 612.016933 219.364301 612.016933 L 219.364301 623.787767 L 170.637902 623.787767 L 170.637902 612.016933 C 170.637902 612.016933 170.129275 610.037767 167.89132 609.204433 Z M 167.89132 609.204433 " transform="matrix(0.0384,0,0,0.0375,4.498286,-16.31001)"/>
<path style="fill-rule:nonzero;fill:rgb(100%,100%,100%);fill-opacity:1;stroke-width:0.96;stroke-linecap:butt;stroke-linejoin:miter;stroke:rgb(0%,0%,0%);stroke-opacity:1;stroke-miterlimit:4;" d="M 214.583214 669.516933 C 212.853885 668.787767 208.988325 666.600267 208.988325 664.516933 L 208.988325 637.329433 C 209.395226 635.766933 211.429731 634.829433 212.75216 633.891933 L 176.944868 633.891933 C 178.674197 634.829433 180.505252 635.5586 181.217329 637.329433 L 181.217329 664.516933 C 181.217329 666.600267 178.165571 668.787767 176.436242 669.516933 Z M 214.583214 669.516933 " transform="matrix(0.0384,0,0,0.0375,4.498286,-16.31001)"/>
<path style="fill-rule:nonzero;fill:rgb(100%,100%,100%);fill-opacity:1;stroke-width:0.96;stroke-linecap:butt;stroke-linejoin:miter;stroke:rgb(0%,0%,0%);stroke-opacity:1;stroke-miterlimit:4;" d="M 219.364301 634.204433 L 219.364301 614.6211 L 214.481489 614.6211 L 214.481489 612.7461 L 175.622439 612.7461 L 175.622439 614.6211 L 170.739627 614.6211 L 170.739627 634.204433 Z M 219.364301 634.204433 " transform="matrix(0.0384,0,0,0.0375,4.498286,-16.31001)"/>
<path style="fill-rule:nonzero;fill:rgb(100%,100%,100%);fill-opacity:1;stroke-width:0.96;stroke-linecap:butt;stroke-linejoin:miter;stroke:rgb(0%,0%,0%);stroke-opacity:1;stroke-miterlimit:4;" d="M 206.852094 669.516933 C 205.122765 668.787767 202.579633 666.600267 202.579633 664.516933 L 202.579633 641.287767 L 204.003787 639.204433 L 186.303592 639.204433 L 187.727745 641.287767 L 187.727745 664.516933 C 187.727745 666.600267 185.286339 668.787767 183.55701 669.516933 Z M 206.852094 669.516933 " transform="matrix(0.0384,0,0,0.0375,4.498286,-16.31001)"/>
<path style="fill-rule:nonzero;fill:rgb(100%,100%,100%);fill-opacity:1;stroke-width:0.981;stroke-linecap:butt;stroke-linejoin:miter;stroke:rgb(0%,0%,0%);stroke-opacity:1;stroke-miterlimit:4;" d="M 190.677778 639.204433 L 199.629601 639.204433 L 199.629601 669.516933 L 190.677778 669.516933 Z M 190.677778 639.204433 " transform="matrix(0.0384,0,0,0.0375,4.498286,-16.31001)"/>
<path style="fill-rule:nonzero;fill:rgb(100%,100%,100%);fill-opacity:1;stroke-width:0.96;stroke-linecap:butt;stroke-linejoin:bevel;stroke:rgb(0%,0%,0%);stroke-opacity:1;stroke-miterlimit:4;" d="M 204.410688 632.4336 C 204.410688 630.454433 210.209028 630.350267 213.260786 628.6836 L 177.250044 628.6836 C 180.301801 630.350267 185.896691 630.5586 185.896691 632.4336 L 187.117394 636.391933 L 202.071007 636.912767 Z M 204.410688 632.4336 " transform="matrix(0.0384,0,0,0.0375,4.498286,-16.31001)"/>
<path style="fill-rule:nonzero;fill:rgb(100%,100%,100%);fill-opacity:1;stroke-width:0.96;stroke-linecap:butt;stroke-linejoin:miter;stroke:rgb(0%,0%,0%);stroke-opacity:1;stroke-miterlimit:4;" d="M 211.429731 611.391933 C 211.429731 606.391933 211.633182 604.516933 213.159061 604.516933 L 213.159061 620.141933 C 209.395226 621.4961 206.750369 626.1836 206.750369 626.1836 L 183.55701 626.1836 C 183.55701 626.1836 180.912153 621.4961 177.250044 620.141933 L 177.250044 604.516933 C 179.081098 604.516933 179.081098 606.4961 179.081098 611.391933 Z M 211.429731 611.391933 " transform="matrix(0.0384,0,0,0.0375,4.498286,-16.31001)"/>
<path style="fill-rule:nonzero;fill:rgb(100%,100%,100%);fill-opacity:1;stroke-width:0.96;stroke-linecap:butt;stroke-linejoin:miter;stroke:rgb(0%,0%,0%);stroke-opacity:1;stroke-miterlimit:4;" d="M 213.159061 609.3086 C 213.159061 603.6836 217.940148 603.0586 217.940148 603.0586 L 217.940148 608.0586 C 216.109093 607.954433 215.193566 609.6211 215.193566 612.1211 C 215.193566 614.6211 216.719445 614.6211 216.719445 614.6211 L 216.719445 628.787767 L 213.159061 628.787767 Z M 213.159061 609.3086 " transform="matrix(0.0384,0,0,0.0375,4.498286,-16.31001)"/>
<path style="fill-rule:nonzero;fill:rgb(100%,100%,100%);fill-opacity:1;stroke-width:0.96;stroke-linecap:butt;stroke-linejoin:miter;stroke:rgb(0%,0%,0%);stroke-opacity:1;stroke-miterlimit:4;" d="M 177.250044 609.3086 C 177.250044 603.6836 172.468956 603.0586 172.468956 603.0586 L 172.468956 608.0586 C 174.300011 607.954433 175.215538 609.6211 175.215538 612.1211 C 175.215538 614.6211 173.68966 614.6211 173.68966 614.6211 L 173.68966 628.787767 L 177.250044 628.787767 Z M 177.250044 609.3086 " transform="matrix(0.0384,0,0,0.0375,4.498286,-16.31001)"/>
<path style="fill:none;stroke-width:0.8;stroke-linecap:butt;stroke-linejoin:miter;stroke:rgb(0%,0%,0%);stroke-opacity:1;stroke-miterlimit:4;" d="M 186.812218 570.662767 L 204.003787 570.662767 " transform="matrix(0.0384,0,0,0.0375,4.498286,-16.31001)"/>
<path style="fill:none;stroke-width:0.8;stroke-linecap:butt;stroke-linejoin:miter;stroke:rgb(0%,0%,0%);stroke-opacity:1;stroke-miterlimit:4;" d="M 184.777713 575.975267 L 205.733117 575.975267 " transform="matrix(0.0384,0,0,0.0375,4.498286,-16.31001)"/>
<path style="fill:none;stroke-width:0.8;stroke-linecap:butt;stroke-linejoin:miter;stroke:rgb(0%,0%,0%);stroke-opacity:1;stroke-miterlimit:4;" d="M 182.743208 582.4336 L 207.665897 582.4336 " transform="matrix(0.0384,0,0,0.0375,4.498286,-16.31001)"/>
<path style="fill:none;stroke-width:0.8;stroke-linecap:butt;stroke-linejoin:miter;stroke:rgb(0%,0%,0%);stroke-opacity:1;stroke-miterlimit:4;" d="M 180.708703 590.350267 L 210.209028 590.350267 " transform="matrix(0.0384,0,0,0.0375,4.498286,-16.31001)"/>
<path style="fill:none;stroke-width:0.8;stroke-linecap:butt;stroke-linejoin:miter;stroke:rgb(0%,0%,0%);stroke-opacity:1;stroke-miterlimit:4;" d="M 179.996626 599.412767 L 210.412479 599.412767 " transform="matrix(0.0384,0,0,0.0375,4.498286,-16.31001)"/>
<path style="fill:none;stroke-width:0.96;stroke-linecap:butt;stroke-linejoin:miter;stroke:rgb(0%,0%,0%);stroke-opacity:1;stroke-miterlimit:4;" d="M 170.739627 628.891933 L 219.364301 628.891933 " transform="matrix(0.0384,0,0,0.0375,4.498286,-16.31001)"/>
<path style="fill:none;stroke-width:0.96;stroke-linecap:butt;stroke-linejoin:miter;stroke:rgb(0%,0%,0%);stroke-opacity:1;stroke-miterlimit:4;" d="M 186.201867 628.891933 L 204.207238 628.891933 L 204.207238 635.5586 L 186.201867 635.5586 Z M 186.201867 628.891933 " transform="matrix(0.0384,0,0,0.0375,4.498286,-16.31001)"/>
<path style="fill-rule:nonzero;fill:rgb(100%,100%,100%);fill-opacity:1;stroke-width:0.96;stroke-linecap:butt;stroke-linejoin:miter;stroke:rgb(0%,0%,0%);stroke-opacity:1;stroke-miterlimit:4;" d="M 183.963911 614.204433 C 186.913943 617.850267 186.608768 623.891933 186.608768 627.537767 L 203.902062 627.537767 C 203.902062 623.891933 203.596886 617.850267 206.648644 614.204433 Z M 183.963911 614.204433 " transform="matrix(0.0384,0,0,0.0375,4.498286,-16.31001)"/>
<path style="fill-rule:nonzero;fill:rgb(100%,100%,100%);fill-opacity:1;stroke-width:0.96;stroke-linecap:butt;stroke-linejoin:miter;stroke:rgb(0%,0%,0%);stroke-opacity:1;stroke-miterlimit:4;" d="M 193.729536 573.0586 L 191.28813 571.912767 L 191.28813 568.3711 C 192.305382 568.6836 193.322635 568.787767 193.42436 570.350267 C 193.831261 568.162767 194.441613 568.266933 195.35714 567.4336 C 196.374393 568.266933 196.984744 568.162767 197.28992 570.350267 C 197.391645 568.787767 198.510623 568.6836 199.42615 568.3711 L 199.42615 571.912767 L 197.086469 573.0586 Z M 193.729536 573.0586 " transform="matrix(0.0384,0,0,0.0375,4.498286,-16.31001)"/>
<path style="fill-rule:nonzero;fill:rgb(100%,100%,100%);fill-opacity:1;stroke-width:0.96;stroke-linecap:butt;stroke-linejoin:miter;stroke:rgb(0%,0%,0%);stroke-opacity:1;stroke-miterlimit:4;" d="M 193.526085 578.891933 L 189.5588 576.1836 L 189.5588 572.954433 C 190.982954 573.266933 192.508833 573.3711 192.712283 575.037767 C 193.119184 572.641933 194.034712 571.391933 195.35714 570.454433 C 196.781294 571.391933 197.595096 572.641933 198.103722 575.037767 C 198.205447 573.3711 199.833051 573.266933 201.15548 572.954433 L 201.15548 576.1836 L 197.188195 578.891933 Z M 193.526085 578.891933 " transform="matrix(0.0384,0,0,0.0375,4.498286,-16.31001)"/>
<path style="fill-rule:nonzero;fill:rgb(100%,100%,100%);fill-opacity:1;stroke-width:0.96;stroke-linecap:butt;stroke-linejoin:miter;stroke:rgb(0%,0%,0%);stroke-opacity:1;stroke-miterlimit:4;" d="M 193.22091 587.850267 L 188.744998 583.787767 L 188.744998 579.100267 C 190.270877 579.516933 192.101932 579.725267 192.203657 582.225267 C 192.814008 578.6836 193.831261 576.8086 195.35714 575.454433 C 196.984744 576.8086 197.900272 578.6836 198.510623 582.225267 C 198.714074 579.725267 200.443403 579.516933 202.071007 579.100267 L 202.071007 583.787767 L 197.49337 587.850267 Z M 193.22091 587.850267 " transform="matrix(0.0384,0,0,0.0375,4.498286,-16.31001)"/>
<path style="fill-rule:nonzero;fill:rgb(100%,100%,100%);fill-opacity:1;stroke-width:0.96;stroke-linecap:butt;stroke-linejoin:miter;stroke:rgb(0%,0%,0%);stroke-opacity:1;stroke-miterlimit:4;" d="M 201.562381 593.0586 L 197.49337 598.787767 L 192.814008 598.787767 L 188.744998 593.0586 Z M 201.562381 593.0586 " transform="matrix(0.0384,0,0,0.0375,4.498286,-16.31001)"/>
<path style="fill-rule:nonzero;fill:rgb(100%,100%,100%);fill-opacity:1;stroke-width:0.96;stroke-linecap:butt;stroke-linejoin:miter;stroke:rgb(0%,0%,0%);stroke-opacity:1;stroke-miterlimit:4;" d="M 186.405317 602.641933 C 188.439822 603.787767 189.151899 605.975267 189.457075 610.141933 L 200.952029 610.141933 C 201.15548 605.975267 201.969282 603.787767 204.003787 602.641933 Z M 186.405317 602.641933 " transform="matrix(0.0384,0,0,0.0375,4.498286,-16.31001)"/>
<path style="fill-rule:nonzero;fill:rgb(100%,100%,100%);fill-opacity:1;stroke-width:0.96;stroke-linecap:butt;stroke-linejoin:bevel;stroke:rgb(0%,0%,0%);stroke-opacity:1;stroke-miterlimit:4;" d="M 204.207238 593.0586 L 204.207238 587.4336 C 202.172732 587.954433 200.952029 589.100267 200.443403 590.662767 C 200.443403 588.787767 197.900272 584.412767 195.153689 582.225267 C 192.508833 584.6211 189.965701 588.579433 189.965701 590.662767 C 189.5588 589.204433 188.134647 587.954433 186.201867 587.4336 L 186.201867 593.0586 Z M 204.207238 593.0586 " transform="matrix(0.0384,0,0,0.0375,4.498286,-16.31001)"/>
<path style="fill-rule:nonzero;fill:rgb(100%,100%,100%);fill-opacity:1;stroke-width:0.96;stroke-linecap:butt;stroke-linejoin:bevel;stroke:rgb(0%,0%,0%);stroke-opacity:1;stroke-miterlimit:4;" d="M 205.02104 602.641933 L 205.02104 596.912767 C 202.884809 597.4336 201.562381 598.579433 200.850304 600.141933 C 200.850304 598.266933 198.205447 593.891933 195.153689 591.704433 C 192.203657 594.204433 189.457075 598.162767 189.457075 600.141933 C 188.948449 598.6836 187.524295 597.4336 185.388064 596.912767 L 185.388064 602.641933 Z M 205.02104 602.641933 " transform="matrix(0.0384,0,0,0.0375,4.498286,-16.31001)"/>
<path style="fill-rule:nonzero;fill:rgb(100%,100%,100%);fill-opacity:1;stroke-width:0.96;stroke-linecap:butt;stroke-linejoin:bevel;stroke:rgb(0%,0%,0%);stroke-opacity:1;stroke-miterlimit:4;" d="M 207.462446 614.3086 L 207.462446 607.7461 C 204.817589 608.475267 203.08826 610.350267 202.274458 611.4961 C 202.274458 607.954433 198.307173 602.537767 195.153689 600.766933 C 192.000206 602.641933 188.134647 608.162767 188.134647 611.4961 C 187.219119 610.454433 185.591515 608.475267 182.946658 607.7461 L 182.946658 614.3086 Z M 207.462446 614.3086 " transform="matrix(0.0384,0,0,0.0375,4.498286,-16.31001)"/>
<path style="fill-rule:nonzero;fill:rgb(100%,100%,100%);fill-opacity:1;stroke-width:0.96;stroke-linecap:butt;stroke-linejoin:bevel;stroke:rgb(0%,0%,0%);stroke-opacity:1;stroke-miterlimit:4;" d="M 206.038292 628.891933 L 206.038292 622.1211 C 203.698611 623.0586 202.986535 625.350267 202.172732 626.912767 C 202.477908 620.037767 198.307173 612.641933 195.153689 610.766933 C 192.000206 612.641933 187.829471 620.141933 188.134647 626.912767 C 187.42257 625.350267 186.710493 623.0586 184.370812 622.1211 L 184.370812 628.891933 Z M 206.038292 628.891933 " transform="matrix(0.0384,0,0,0.0375,4.498286,-16.31001)"/>
<path style="fill-rule:nonzero;fill:rgb(100%,100%,100%);fill-opacity:1;stroke-width:0.96;stroke-linecap:butt;stroke-linejoin:miter;stroke:rgb(0%,0%,0%);stroke-opacity:1;stroke-miterlimit:4;" d="M 204.410688 639.204433 L 204.410688 632.4336 C 201.867557 632.954433 201.765831 633.891933 200.952029 635.454433 C 201.257205 631.287767 198.307173 626.600267 195.153689 624.725267 C 192.000206 626.600267 189.151899 631.287767 189.457075 635.454433 C 188.643273 633.891933 188.541548 632.954433 185.998416 632.4336 L 185.998416 639.204433 Z M 204.410688 639.204433 " transform="matrix(0.0384,0,0,0.0375,4.498286,-16.31001)"/>
<path style="fill-rule:nonzero;fill:rgb(100%,100%,100%);fill-opacity:1;stroke-width:0.96;stroke-linecap:butt;stroke-linejoin:miter;stroke:rgb(0%,0%,0%);stroke-opacity:1;stroke-miterlimit:4;" d="M 98.921593 664.204433 L 98.921593 643.787767 C 98.311242 641.1836 96.073286 638.891933 94.343956 638.475267 L 94.343956 620.454433 L 98.107791 622.4336 L 102.380252 641.287767 L 102.380252 664.204433 Z M 98.921593 664.204433 " transform="matrix(0.0384,0,0,0.0375,4.498286,-16.31001)"/>
<path style="fill-rule:nonzero;fill:rgb(100%,100%,100%);fill-opacity:1;stroke-width:0.96;stroke-linecap:butt;stroke-linejoin:miter;stroke:rgb(0%,0%,0%);stroke-opacity:1;stroke-miterlimit:4;" d="M 98.921593 664.3086 L 98.921593 643.787767 C 98.311242 641.1836 96.073286 638.891933 94.343956 638.475267 L 94.343956 619.204433 C 96.887088 619.204433 98.107791 622.4336 98.107791 622.4336 L 102.380252 641.287767 L 102.380252 664.100267 Z M 98.921593 664.3086 " transform="matrix(0.0384,0,0,0.0375,4.498286,-16.31001)"/>
<path style="fill-rule:nonzero;fill:rgb(100%,100%,100%);fill-opacity:1;stroke-width:0.96;stroke-linecap:butt;stroke-linejoin:miter;stroke:rgb(0%,0%,0%);stroke-opacity:1;stroke-miterlimit:4;" d="M 96.276736 669.516933 C 98.006066 668.787767 100.549197 666.600267 100.549197 664.516933 L 100.549197 638.891933 L 99.328494 636.8086 L 142.866906 636.8086 L 141.137576 638.891933 L 141.137576 664.516933 C 141.137576 666.600267 142.866906 668.787767 144.596235 669.516933 Z M 96.276736 669.516933 " transform="matrix(0.0384,0,0,0.0375,4.498286,-16.31001)"/>
<path style="fill-rule:nonzero;fill:rgb(100%,100%,100%);fill-opacity:1;stroke-width:0.96;stroke-linecap:butt;stroke-linejoin:miter;stroke:rgb(0%,0%,0%);stroke-opacity:1;stroke-miterlimit:4;" d="M 135.847863 669.516933 C 134.118533 668.787767 131.575402 666.600267 131.575402 664.516933 L 131.575402 640.141933 L 135.237511 636.8086 L 105.63546 636.8086 L 109.195844 640.141933 L 109.195844 664.516933 C 109.195844 666.600267 106.754438 668.787767 105.025109 669.516933 Z M 135.847863 669.516933 " transform="matrix(0.0384,0,0,0.0375,4.498286,-16.31001)"/>
<path style="fill-rule:nonzero;fill:rgb(100%,100%,100%);fill-opacity:1;stroke-width:0.96;stroke-linecap:butt;stroke-linejoin:miter;stroke:rgb(0%,0%,0%);stroke-opacity:1;stroke-miterlimit:4;" d="M 131.677127 669.516933 C 129.947798 668.787767 127.404666 666.600267 127.404666 664.516933 L 127.404666 642.537767 L 129.846072 639.204433 L 111.026899 639.204433 L 113.36658 642.537767 L 113.36658 664.516933 C 113.36658 666.600267 110.823449 668.787767 109.094119 669.516933 Z M 131.677127 669.516933 " transform="matrix(0.0384,0,0,0.0375,4.498286,-16.31001)"/>
<path style="fill-rule:nonzero;fill:rgb(100%,100%,100%);fill-opacity:1;stroke-width:0.96;stroke-linecap:butt;stroke-linejoin:miter;stroke:rgb(0%,0%,0%);stroke-opacity:1;stroke-miterlimit:4;" d="M 115.909712 639.204433 L 124.861535 639.204433 L 124.861535 669.516933 L 115.909712 669.516933 Z M 115.909712 639.204433 " transform="matrix(0.0384,0,0,0.0375,4.498286,-16.31001)"/>
<path style="fill-rule:nonzero;fill:rgb(100%,100%,100%);fill-opacity:1;stroke-width:0.96;stroke-linecap:butt;stroke-linejoin:bevel;stroke:rgb(0%,0%,0%);stroke-opacity:1;stroke-miterlimit:4;" d="M 103.70268 647.641933 L 107.263064 647.641933 L 107.263064 664.100267 L 103.70268 664.100267 Z M 103.70268 647.641933 " transform="matrix(0.0384,0,0,0.0375,4.498286,-16.31001)"/>
<path style="fill-rule:nonzero;fill:rgb(100%,100%,100%);fill-opacity:1;stroke-width:0.96;stroke-linecap:butt;stroke-linejoin:bevel;stroke:rgb(0%,0%,0%);stroke-opacity:1;stroke-miterlimit:4;" d="M 134.423709 647.641933 L 138.085818 647.641933 L 138.085818 664.100267 L 134.423709 664.100267 Z M 134.423709 647.641933 " transform="matrix(0.0384,0,0,0.0375,4.498286,-16.31001)"/>
<path style="fill-rule:nonzero;fill:rgb(100%,100%,100%);fill-opacity:1;stroke-width:0.96;stroke-linecap:butt;stroke-linejoin:bevel;stroke:rgb(0%,0%,0%);stroke-opacity:1;stroke-miterlimit:4;" d="M 100.650923 619.829433 L 104.923383 619.829433 L 104.923383 636.704433 L 100.650923 636.704433 Z M 100.650923 619.829433 " transform="matrix(0.0384,0,0,0.0375,4.498286,-16.31001)"/>
<path style="fill-rule:nonzero;fill:rgb(100%,100%,100%);fill-opacity:1;stroke-width:0.96;stroke-linecap:butt;stroke-linejoin:bevel;stroke:rgb(0%,0%,0%);stroke-opacity:1;stroke-miterlimit:4;" d="M 100.650923 616.600267 L 104.923383 616.600267 L 104.923383 619.829433 L 100.650923 619.829433 Z M 100.650923 616.600267 " transform="matrix(0.0384,0,0,0.0375,4.498286,-16.31001)"/>
<path style="fill-rule:nonzero;fill:rgb(100%,100%,100%);fill-opacity:1;stroke-width:1.0337;stroke-linecap:butt;stroke-linejoin:bevel;stroke:rgb(0%,0%,0%);stroke-opacity:1;stroke-miterlimit:4;" d="M 136.153038 623.475267 L 142.358279 623.475267 L 142.358279 636.4961 L 136.153038 636.4961 Z M 136.153038 623.475267 " transform="matrix(0.0384,0,0,0.0375,4.498286,-16.31001)"/>
<path style="fill-rule:nonzero;fill:rgb(100%,100%,100%);fill-opacity:1;stroke-width:0.96;stroke-linecap:butt;stroke-linejoin:miter;stroke:rgb(0%,0%,0%);stroke-opacity:1;stroke-miterlimit:4;" d="M 104.923383 636.600267 L 104.923383 607.641933 C 106.144087 607.641933 106.347537 611.912767 109.094119 611.912767 C 110.619998 611.912767 110.416548 610.141933 109.602745 608.6836 C 108.890669 607.4336 107.975141 605.662767 109.195844 602.4336 C 110.111372 604.9336 112.349328 605.766933 111.942426 604.204433 C 111.23035 601.4961 109.094119 600.975267 110.721723 596.8086 C 111.23035 600.350267 113.468305 600.141933 112.857954 598.162767 C 112.247602 595.8711 111.026899 594.9336 112.552778 591.704433 C 113.468305 595.350267 114.689008 595.141933 114.689008 592.850267 C 114.689008 589.516933 114.485558 585.975267 118.859744 584.6211 C 118.859744 584.6211 119.063195 581.4961 120.690799 581.4961 C 122.216678 581.4961 122.420128 584.6211 122.420128 584.6211 C 126.794314 585.975267 126.692589 589.516933 126.692589 592.850267 C 126.692589 595.141933 127.811567 595.350267 128.727094 591.704433 C 130.252973 594.9336 129.03227 595.8711 128.421919 598.162767 C 127.913292 600.141933 130.049523 600.350267 130.659874 596.8086 C 132.185753 600.975267 130.151248 601.4961 129.439171 604.204433 C 129.03227 605.766933 131.270226 604.9336 132.084028 602.4336 C 133.304731 605.662767 132.389204 607.4336 131.677127 608.6836 C 130.863325 610.141933 130.659874 611.912767 132.185753 611.912767 C 135.034061 611.912767 135.237511 607.641933 136.458214 607.641933 L 136.458214 636.600267 Z M 104.923383 636.600267 " transform="matrix(0.0384,0,0,0.0375,4.498286,-16.31001)"/>
<path style="fill-rule:nonzero;fill:rgb(100%,100%,100%);fill-opacity:1;stroke-width:0.96;stroke-linecap:butt;stroke-linejoin:miter;stroke:rgb(0%,0%,0%);stroke-opacity:1;stroke-miterlimit:4;" d="M 98.107791 614.725267 L 98.107791 636.8086 L 100.650923 636.8086 L 100.650923 614.725267 C 99.735395 614.204433 98.921593 614.204433 98.107791 614.725267 Z M 98.107791 614.725267 " transform="matrix(0.0384,0,0,0.0375,4.498286,-16.31001)"/>
<path style="fill-rule:nonzero;fill:rgb(100%,100%,100%);fill-opacity:1;stroke-width:0.96;stroke-linecap:butt;stroke-linejoin:miter;stroke:rgb(0%,0%,0%);stroke-opacity:1;stroke-miterlimit:4;" d="M 98.209516 628.9961 C 101.362999 630.662767 104.414757 632.4336 105.228559 636.8086 L 98.209516 636.8086 Z M 98.209516 628.9961 " transform="matrix(0.0384,0,0,0.0375,4.498286,-16.31001)"/>
<path style="fill-rule:nonzero;fill:rgb(100%,100%,100%);fill-opacity:1;stroke-width:0.96;stroke-linecap:butt;stroke-linejoin:miter;stroke:rgb(0%,0%,0%);stroke-opacity:1;stroke-miterlimit:4;" d="M 141.341027 622.4336 L 141.341027 636.8086 L 143.375532 636.8086 L 143.375532 622.4336 C 142.76518 622.1211 141.951378 622.016933 141.341027 622.4336 Z M 141.341027 622.4336 " transform="matrix(0.0384,0,0,0.0375,4.498286,-16.31001)"/>
<path style="fill-rule:nonzero;fill:rgb(100%,100%,100%);fill-opacity:1;stroke-width:0.96;stroke-linecap:butt;stroke-linejoin:miter;stroke:rgb(0%,0%,0%);stroke-opacity:1;stroke-miterlimit:4;" d="M 143.375532 628.891933 C 140.323774 630.5586 137.170291 632.329433 136.458214 636.704433 L 143.375532 636.704433 Z M 143.375532 628.891933 " transform="matrix(0.0384,0,0,0.0375,4.498286,-16.31001)"/>
<path style="fill-rule:nonzero;fill:rgb(100%,100%,100%);fill-opacity:1;stroke-width:0.96;stroke-linecap:butt;stroke-linejoin:miter;stroke:rgb(0%,0%,0%);stroke-opacity:1;stroke-miterlimit:4;" d="M 122.827029 595.2461 L 124.658084 593.787767 L 124.658084 591.8086 C 123.946007 591.8086 123.640831 592.1211 123.132205 592.7461 C 122.725304 591.391933 121.809777 590.454433 120.589074 589.829433 C 119.36837 590.454433 118.452843 591.391933 118.045942 592.641933 C 117.537316 592.016933 117.130415 591.8086 116.520063 591.8086 L 116.520063 593.787767 L 118.351118 595.2461 Z M 122.827029 595.2461 " transform="matrix(0.0384,0,0,0.0375,4.498286,-16.31001)"/>
<path style="fill-rule:nonzero;fill:rgb(100%,100%,100%);fill-opacity:1;stroke-width:0.96;stroke-linecap:butt;stroke-linejoin:miter;stroke:rgb(0%,0%,0%);stroke-opacity:1;stroke-miterlimit:4;" d="M 123.844282 600.141933 L 124.658084 598.3711 L 124.658084 595.766933 C 123.946007 595.8711 123.640831 596.079433 123.132205 596.704433 C 122.725304 595.454433 121.809777 594.412767 120.589074 593.787767 C 119.36837 594.412767 118.452843 595.350267 118.045942 596.704433 C 117.537316 596.079433 117.130415 595.8711 116.520063 595.766933 L 116.520063 598.3711 L 117.333865 600.141933 Z M 123.844282 600.141933 " transform="matrix(0.0384,0,0,0.0375,4.498286,-16.31001)"/>
<path style="fill-rule:nonzero;fill:rgb(100%,100%,100%);fill-opacity:1;stroke-width:0.96;stroke-linecap:butt;stroke-linejoin:miter;stroke:rgb(0%,0%,0%);stroke-opacity:1;stroke-miterlimit:4;" d="M 123.946007 606.8086 L 126.590864 603.475267 L 126.590864 600.2461 C 125.675337 600.350267 125.064985 600.766933 124.352908 601.912767 C 123.742557 599.6211 122.420128 599.204433 120.589074 598.0586 C 118.758019 599.204433 117.333865 599.516933 116.723514 601.8086 C 116.011437 600.662767 115.502811 600.350267 114.485558 600.2461 L 114.485558 603.475267 L 117.23214 606.8086 Z M 123.946007 606.8086 " transform="matrix(0.0384,0,0,0.0375,4.498286,-16.31001)"/>
<path style="fill-rule:nonzero;fill:rgb(100%,100%,100%);fill-opacity:1;stroke-width:0.96;stroke-linecap:butt;stroke-linejoin:miter;stroke:rgb(0%,0%,0%);stroke-opacity:1;stroke-miterlimit:4;" d="M 124.759809 613.266933 C 124.759809 613.266933 127.811567 610.5586 128.015018 609.100267 L 128.015018 605.5586 C 126.794314 605.766933 125.675337 606.079433 124.759809 607.4336 C 124.047732 604.6211 122.827029 603.787767 120.589074 602.4336 C 118.351118 603.787767 117.130415 604.6211 116.316613 607.4336 C 115.502811 606.079433 114.282107 605.766933 113.061404 605.5586 L 113.061404 609.100267 C 113.468305 610.5586 116.418338 613.266933 116.418338 613.266933 Z M 124.759809 613.266933 " transform="matrix(0.0384,0,0,0.0375,4.498286,-16.31001)"/>
<path style="fill-rule:nonzero;fill:rgb(100%,100%,100%);fill-opacity:1;stroke-width:0.96;stroke-linecap:butt;stroke-linejoin:miter;stroke:rgb(0%,0%,0%);stroke-opacity:1;stroke-miterlimit:4;" d="M 126.082238 625.350267 C 126.082238 625.350267 130.354699 620.5586 130.456424 618.6836 L 130.456424 613.266933 C 128.82882 613.475267 127.302941 614.6211 126.183963 616.8086 C 125.16671 612.329433 123.539106 609.204433 120.589074 607.1211 C 117.639041 609.204433 116.011437 612.329433 114.994184 616.8086 C 113.773481 614.6211 112.247602 613.475267 110.721723 613.266933 L 110.721723 618.6836 C 111.026899 620.5586 115.09591 625.350267 115.09591 625.350267 Z M 126.082238 625.350267 " transform="matrix(0.0384,0,0,0.0375,4.498286,-16.31001)"/>
<path style="fill-rule:nonzero;fill:rgb(100%,100%,100%);fill-opacity:1;stroke-width:0.96;stroke-linecap:butt;stroke-linejoin:miter;stroke:rgb(0%,0%,0%);stroke-opacity:1;stroke-miterlimit:4;" d="M 126.082238 632.4336 C 126.082238 632.4336 129.744347 628.6836 130.456424 627.016933 L 130.456424 621.704433 C 128.82882 621.912767 127.302941 622.954433 126.183963 625.2461 C 125.16671 620.766933 123.539106 618.162767 120.589074 615.975267 C 117.639041 618.162767 116.011437 620.766933 114.994184 625.2461 C 113.773481 622.954433 112.247602 621.912767 110.721723 621.704433 L 110.721723 627.016933 C 111.637251 628.6836 115.09591 632.4336 115.09591 632.4336 Z M 126.082238 632.4336 " transform="matrix(0.0384,0,0,0.0375,4.498286,-16.31001)"/>
<path style="fill-rule:nonzero;fill:rgb(100%,100%,100%);fill-opacity:1;stroke-width:0.96;stroke-linecap:butt;stroke-linejoin:miter;stroke:rgb(0%,0%,0%);stroke-opacity:1;stroke-miterlimit:4;" d="M 127.506391 636.600267 C 126.489139 631.912767 125.573611 628.475267 120.385623 624.9336 C 115.197635 628.475267 114.282107 631.912767 113.264855 636.600267 Z M 127.506391 636.600267 " transform="matrix(0.0384,0,0,0.0375,4.498286,-16.31001)"/>
<path style="fill-rule:nonzero;fill:rgb(100%,100%,100%);fill-opacity:1;stroke-width:0.96;stroke-linecap:butt;stroke-linejoin:miter;stroke:rgb(0%,0%,0%);stroke-opacity:1;stroke-miterlimit:4;" d="M 130.151248 639.204433 L 130.151248 632.4336 C 127.811567 633.266933 125.777062 634.725267 124.96326 636.1836 C 124.047732 632.4336 122.420128 630.766933 120.283898 628.475267 C 118.249393 630.766933 116.825239 632.4336 115.909712 636.1836 C 115.09591 634.725267 113.061404 633.266933 110.721723 632.4336 L 110.721723 639.204433 Z M 130.151248 639.204433 " transform="matrix(0.0384,0,0,0.0375,4.498286,-16.31001)"/>
<path style="fill-rule:nonzero;fill:rgb(100%,100%,100%);fill-opacity:1;stroke-width:0.96;stroke-linecap:butt;stroke-linejoin:miter;stroke:rgb(0%,0%,0%);stroke-opacity:1;stroke-miterlimit:4;" d="M 98.947103 664.204433 L 98.947103 643.787767 C 98.235026 641.1836 96.098796 638.891933 94.369466 638.475267 L 94.369466 620.454433 L 98.133301 622.4336 L 102.405762 641.287767 L 102.405762 664.204433 Z M 98.947103 664.204433 " transform="matrix(-0.0384,0,0,0.0375,19.502694,-16.31001)"/>
<path style="fill-rule:nonzero;fill:rgb(100%,100%,100%);fill-opacity:1;stroke-width:0.96;stroke-linecap:butt;stroke-linejoin:miter;stroke:rgb(0%,0%,0%);stroke-opacity:1;stroke-miterlimit:4;" d="M 98.947103 664.3086 L 98.947103 643.787767 C 98.235026 641.1836 96.098796 638.891933 94.369466 638.475267 L 94.369466 619.204433 C 96.912598 619.204433 98.133301 622.4336 98.133301 622.4336 L 102.405762 641.287767 L 102.405762 664.100267 Z M 98.947103 664.3086 " transform="matrix(-0.0384,0,0,0.0375,19.502694,-16.31001)"/>
<path style="fill-rule:nonzero;fill:rgb(100%,100%,100%);fill-opacity:1;stroke-width:0.96;stroke-linecap:butt;stroke-linejoin:miter;stroke:rgb(0%,0%,0%);stroke-opacity:1;stroke-miterlimit:4;" d="M 96.302246 669.516933 C 98.031576 668.787767 100.472982 666.600267 100.472982 664.516933 L 100.472982 638.891933 L 99.354004 636.8086 L 142.892416 636.8086 L 141.163086 638.891933 L 141.163086 664.516933 C 141.163086 666.600267 142.892416 668.787767 144.621745 669.516933 Z M 96.302246 669.516933 " transform="matrix(-0.0384,0,0,0.0375,19.502694,-16.31001)"/>
<path style="fill-rule:nonzero;fill:rgb(100%,100%,100%);fill-opacity:1;stroke-width:0.96;stroke-linecap:butt;stroke-linejoin:miter;stroke:rgb(0%,0%,0%);stroke-opacity:1;stroke-miterlimit:4;" d="M 135.873373 669.516933 C 134.144043 668.787767 131.600912 666.600267 131.600912 664.516933 L 131.600912 640.141933 L 135.161296 636.8086 L 105.66097 636.8086 L 109.221354 640.141933 L 109.221354 664.516933 C 109.221354 666.600267 106.678223 668.787767 104.948893 669.516933 Z M 135.873373 669.516933 " transform="matrix(-0.0384,0,0,0.0375,19.502694,-16.31001)"/>
<path style="fill-rule:nonzero;fill:rgb(100%,100%,100%);fill-opacity:1;stroke-width:0.96;stroke-linecap:butt;stroke-linejoin:miter;stroke:rgb(0%,0%,0%);stroke-opacity:1;stroke-miterlimit:4;" d="M 131.702637 669.516933 C 129.973308 668.787767 127.430176 666.600267 127.430176 664.516933 L 127.430176 642.537767 L 129.769857 639.204433 L 111.052409 639.204433 L 113.39209 642.537767 L 113.39209 664.516933 C 113.39209 666.600267 110.848959 668.787767 109.119629 669.516933 Z M 131.702637 669.516933 " transform="matrix(-0.0384,0,0,0.0375,19.502694,-16.31001)"/>
<path style="fill-rule:nonzero;fill:rgb(100%,100%,100%);fill-opacity:1;stroke-width:0.96;stroke-linecap:butt;stroke-linejoin:miter;stroke:rgb(0%,0%,0%);stroke-opacity:1;stroke-miterlimit:4;" d="M 115.935222 639.204433 L 124.887045 639.204433 L 124.887045 669.516933 L 115.935222 669.516933 Z M 115.935222 639.204433 " transform="matrix(-0.0384,0,0,0.0375,19.502694,-16.31001)"/>
<path style="fill-rule:nonzero;fill:rgb(100%,100%,100%);fill-opacity:1;stroke-width:0.96;stroke-linecap:butt;stroke-linejoin:bevel;stroke:rgb(0%,0%,0%);stroke-opacity:1;stroke-miterlimit:4;" d="M 103.72819 647.641933 L 107.288574 647.641933 L 107.288574 664.100267 L 103.72819 664.100267 Z M 103.72819 647.641933 " transform="matrix(-0.0384,0,0,0.0375,19.502694,-16.31001)"/>
<path style="fill-rule:nonzero;fill:rgb(100%,100%,100%);fill-opacity:1;stroke-width:0.96;stroke-linecap:butt;stroke-linejoin:bevel;stroke:rgb(0%,0%,0%);stroke-opacity:1;stroke-miterlimit:4;" d="M 134.449219 647.641933 L 138.009603 647.641933 L 138.009603 664.100267 L 134.449219 664.100267 Z M 134.449219 647.641933 " transform="matrix(-0.0384,0,0,0.0375,19.502694,-16.31001)"/>
<path style="fill-rule:nonzero;fill:rgb(100%,100%,100%);fill-opacity:1;stroke-width:0.96;stroke-linecap:butt;stroke-linejoin:bevel;stroke:rgb(0%,0%,0%);stroke-opacity:1;stroke-miterlimit:4;" d="M 100.676433 619.829433 L 104.948893 619.829433 L 104.948893 636.704433 L 100.676433 636.704433 Z M 100.676433 619.829433 " transform="matrix(-0.0384,0,0,0.0375,19.502694,-16.31001)"/>
<path style="fill-rule:nonzero;fill:rgb(100%,100%,100%);fill-opacity:1;stroke-width:0.96;stroke-linecap:butt;stroke-linejoin:bevel;stroke:rgb(0%,0%,0%);stroke-opacity:1;stroke-miterlimit:4;" d="M 100.676433 616.600267 L 104.948893 616.600267 L 104.948893 619.829433 L 100.676433 619.829433 Z M 100.676433 616.600267 " transform="matrix(-0.0384,0,0,0.0375,19.502694,-16.31001)"/>
<path style="fill-rule:nonzero;fill:rgb(100%,100%,100%);fill-opacity:1;stroke-width:1.0337;stroke-linecap:butt;stroke-linejoin:bevel;stroke:rgb(0%,0%,0%);stroke-opacity:1;stroke-miterlimit:4;" d="M 136.178548 623.475267 L 142.282064 623.475267 L 142.282064 636.4961 L 136.178548 636.4961 Z M 136.178548 623.475267 " transform="matrix(-0.0384,0,0,0.0375,19.502694,-16.31001)"/>
<path style="fill-rule:nonzero;fill:rgb(100%,100%,100%);fill-opacity:1;stroke-width:0.96;stroke-linecap:butt;stroke-linejoin:miter;stroke:rgb(0%,0%,0%);stroke-opacity:1;stroke-miterlimit:4;" d="M 104.847168 636.600267 L 104.847168 607.641933 C 106.169597 607.641933 106.271322 611.912767 109.119629 611.912767 C 110.645508 611.912767 110.442058 610.141933 109.628255 608.6836 C 108.916179 607.4336 108.000651 605.662767 109.221354 602.4336 C 110.035157 604.9336 112.374838 605.766933 111.866211 604.204433 C 111.154134 601.4961 109.119629 600.975267 110.645508 596.8086 C 111.25586 600.350267 113.493815 600.141933 112.883464 598.162767 C 112.273112 595.8711 111.052409 594.9336 112.578288 591.704433 C 113.493815 595.350267 114.612793 595.141933 114.612793 592.850267 C 114.612793 589.516933 114.511068 585.975267 118.885254 584.6211 C 118.885254 584.6211 119.088705 581.4961 120.614584 581.4961 C 122.242188 581.4961 122.445638 584.6211 122.445638 584.6211 C 126.819824 585.975267 126.718099 589.516933 126.718099 592.850267 C 126.718099 595.141933 127.837077 595.350267 128.752604 591.704433 C 130.278483 594.9336 129.05778 595.8711 128.447429 598.162767 C 127.837077 600.141933 130.075033 600.350267 130.685384 596.8086 C 132.211263 600.975267 130.075033 601.4961 129.362956 604.204433 C 128.956055 605.766933 131.295736 604.9336 132.109538 602.4336 C 133.330241 605.662767 132.414714 607.4336 131.702637 608.6836 C 130.888835 610.141933 130.685384 611.912767 132.211263 611.912767 C 134.957845 611.912767 135.161296 607.641933 136.381999 607.641933 L 136.381999 636.600267 Z M 104.847168 636.600267 " transform="matrix(-0.0384,0,0,0.0375,19.502694,-16.31001)"/>
<path style="fill-rule:nonzero;fill:rgb(100%,100%,100%);fill-opacity:1;stroke-width:0.96;stroke-linecap:butt;stroke-linejoin:miter;stroke:rgb(0%,0%,0%);stroke-opacity:1;stroke-miterlimit:4;" d="M 98.133301 614.725267 L 98.133301 636.8086 L 100.676433 636.8086 L 100.676433 614.725267 C 99.760905 614.204433 98.845378 614.204433 98.133301 614.725267 Z M 98.133301 614.725267 " transform="matrix(-0.0384,0,0,0.0375,19.502694,-16.31001)"/>
<path style="fill-rule:nonzero;fill:rgb(100%,100%,100%);fill-opacity:1;stroke-width:0.96;stroke-linecap:butt;stroke-linejoin:miter;stroke:rgb(0%,0%,0%);stroke-opacity:1;stroke-miterlimit:4;" d="M 98.235026 628.9961 C 101.286784 630.662767 104.440267 632.4336 105.152344 636.8086 L 98.235026 636.8086 Z M 98.235026 628.9961 " transform="matrix(-0.0384,0,0,0.0375,19.502694,-16.31001)"/>
<path style="fill-rule:nonzero;fill:rgb(100%,100%,100%);fill-opacity:1;stroke-width:0.96;stroke-linecap:butt;stroke-linejoin:miter;stroke:rgb(0%,0%,0%);stroke-opacity:1;stroke-miterlimit:4;" d="M 141.366537 622.4336 L 141.366537 636.8086 L 143.401042 636.8086 L 143.401042 622.4336 C 142.79069 622.1211 141.875163 622.016933 141.366537 622.4336 Z M 141.366537 622.4336 " transform="matrix(-0.0384,0,0,0.0375,19.502694,-16.31001)"/>
<path style="fill-rule:nonzero;fill:rgb(100%,100%,100%);fill-opacity:1;stroke-width:0.96;stroke-linecap:butt;stroke-linejoin:miter;stroke:rgb(0%,0%,0%);stroke-opacity:1;stroke-miterlimit:4;" d="M 143.401042 628.891933 C 140.247559 630.5586 137.195801 632.329433 136.483724 636.704433 L 143.401042 636.704433 Z M 143.401042 628.891933 " transform="matrix(-0.0384,0,0,0.0375,19.502694,-16.31001)"/>
<path style="fill-rule:nonzero;fill:rgb(100%,100%,100%);fill-opacity:1;stroke-width:0.96;stroke-linecap:butt;stroke-linejoin:miter;stroke:rgb(0%,0%,0%);stroke-opacity:1;stroke-miterlimit:4;" d="M 122.852539 595.2461 L 124.683594 593.787767 L 124.683594 591.8086 C 123.971517 591.8086 123.666341 592.1211 123.157715 592.7461 C 122.750814 591.391933 121.835287 590.454433 120.614584 589.829433 C 119.292155 590.454433 118.376628 591.391933 117.969727 592.641933 C 117.562826 592.016933 117.155925 591.8086 116.443848 591.8086 L 116.443848 593.787767 L 118.274903 595.2461 Z M 122.852539 595.2461 " transform="matrix(-0.0384,0,0,0.0375,19.502694,-16.31001)"/>
<path style="fill-rule:nonzero;fill:rgb(100%,100%,100%);fill-opacity:1;stroke-width:0.96;stroke-linecap:butt;stroke-linejoin:miter;stroke:rgb(0%,0%,0%);stroke-opacity:1;stroke-miterlimit:4;" d="M 123.768067 600.141933 L 124.683594 598.3711 L 124.683594 595.766933 C 123.971517 595.8711 123.666341 596.079433 123.157715 596.704433 C 122.750814 595.454433 121.835287 594.412767 120.614584 593.787767 C 119.292155 594.412767 118.376628 595.350267 117.969727 596.704433 C 117.562826 596.079433 117.155925 595.8711 116.443848 595.766933 L 116.443848 598.3711 L 117.359375 600.141933 Z M 123.768067 600.141933 " transform="matrix(-0.0384,0,0,0.0375,19.502694,-16.31001)"/>
<path style="fill-rule:nonzero;fill:rgb(100%,100%,100%);fill-opacity:1;stroke-width:0.96;stroke-linecap:butt;stroke-linejoin:miter;stroke:rgb(0%,0%,0%);stroke-opacity:1;stroke-miterlimit:4;" d="M 123.971517 606.8086 L 126.616374 603.475267 L 126.616374 600.2461 C 125.599121 600.350267 125.090495 600.766933 124.378418 601.912767 C 123.768067 599.6211 122.343913 599.204433 120.614584 598.0586 C 118.783529 599.204433 117.359375 599.516933 116.749024 601.8086 C 116.036947 600.662767 115.528321 600.350267 114.511068 600.2461 L 114.511068 603.475267 L 117.155925 606.8086 Z M 123.971517 606.8086 " transform="matrix(-0.0384,0,0,0.0375,19.502694,-16.31001)"/>
<path style="fill-rule:nonzero;fill:rgb(100%,100%,100%);fill-opacity:1;stroke-width:0.96;stroke-linecap:butt;stroke-linejoin:miter;stroke:rgb(0%,0%,0%);stroke-opacity:1;stroke-miterlimit:4;" d="M 124.683594 613.266933 C 124.683594 613.266933 127.837077 610.5586 128.040528 609.100267 L 128.040528 605.5586 C 126.819824 605.766933 125.700847 606.079433 124.785319 607.4336 C 123.971517 604.6211 122.852539 603.787767 120.614584 602.4336 C 118.274903 603.787767 117.155925 604.6211 116.342123 607.4336 C 115.426595 606.079433 114.307617 605.766933 113.086914 605.5586 L 113.086914 609.100267 C 113.493815 610.5586 116.443848 613.266933 116.443848 613.266933 Z M 124.683594 613.266933 " transform="matrix(-0.0384,0,0,0.0375,19.502694,-16.31001)"/>
<path style="fill-rule:nonzero;fill:rgb(100%,100%,100%);fill-opacity:1;stroke-width:0.96;stroke-linecap:butt;stroke-linejoin:miter;stroke:rgb(0%,0%,0%);stroke-opacity:1;stroke-miterlimit:4;" d="M 126.107748 625.350267 C 126.107748 625.350267 130.380209 620.5586 130.481934 618.6836 L 130.481934 613.266933 C 128.85433 613.475267 127.328451 614.6211 126.107748 616.8086 C 125.090495 612.329433 123.564616 609.204433 120.614584 607.1211 C 117.562826 609.204433 116.036947 612.329433 115.019694 616.8086 C 113.798991 614.6211 112.273112 613.475267 110.645508 613.266933 L 110.645508 618.6836 C 110.950684 620.5586 115.12142 625.350267 115.12142 625.350267 Z M 126.107748 625.350267 " transform="matrix(-0.0384,0,0,0.0375,19.502694,-16.31001)"/>
<path style="fill-rule:nonzero;fill:rgb(100%,100%,100%);fill-opacity:1;stroke-width:0.96;stroke-linecap:butt;stroke-linejoin:miter;stroke:rgb(0%,0%,0%);stroke-opacity:1;stroke-miterlimit:4;" d="M 126.107748 632.4336 C 126.107748 632.4336 129.769857 628.6836 130.481934 627.016933 L 130.481934 621.704433 C 128.85433 621.912767 127.328451 622.954433 126.107748 625.2461 C 125.090495 620.766933 123.564616 618.162767 120.614584 615.975267 C 117.562826 618.162767 116.036947 620.766933 115.019694 625.2461 C 113.798991 622.954433 112.273112 621.912767 110.645508 621.704433 L 110.645508 627.016933 C 111.561035 628.6836 115.12142 632.4336 115.12142 632.4336 Z M 126.107748 632.4336 " transform="matrix(-0.0384,0,0,0.0375,19.502694,-16.31001)"/>
<path style="fill-rule:nonzero;fill:rgb(100%,100%,100%);fill-opacity:1;stroke-width:0.96;stroke-linecap:butt;stroke-linejoin:miter;stroke:rgb(0%,0%,0%);stroke-opacity:1;stroke-miterlimit:4;" d="M 127.531901 636.600267 C 126.514649 631.912767 125.497396 628.475267 120.411133 624.9336 C 115.223145 628.475267 114.307617 631.912767 113.18864 636.600267 Z M 127.531901 636.600267 " transform="matrix(-0.0384,0,0,0.0375,19.502694,-16.31001)"/>
<path style="fill-rule:nonzero;fill:rgb(100%,100%,100%);fill-opacity:1;stroke-width:0.96;stroke-linecap:butt;stroke-linejoin:miter;stroke:rgb(0%,0%,0%);stroke-opacity:1;stroke-miterlimit:4;" d="M 130.176758 639.204433 L 130.176758 632.4336 C 127.837077 633.266933 125.700847 634.725267 124.98877 636.1836 C 124.073242 632.4336 122.343913 630.766933 120.309408 628.475267 C 118.173177 630.766933 116.749024 632.4336 115.935222 636.1836 C 115.12142 634.725267 112.985189 633.266933 110.645508 632.4336 L 110.645508 639.204433 Z M 130.176758 639.204433 " transform="matrix(-0.0384,0,0,0.0375,19.502694,-16.31001)"/>
<path style="fill-rule:nonzero;fill:rgb(100%,100%,100%);fill-opacity:1;stroke-width:0.96;stroke-linecap:butt;stroke-linejoin:miter;stroke:rgb(0%,0%,0%);stroke-opacity:1;stroke-miterlimit:4;" d="M 72.676476 694.204433 L 318.037804 694.204433 L 318.037804 706.8086 L 72.676476 706.8086 Z M 72.676476 694.204433 " transform="matrix(0.0384,0,0,0.0375,4.498286,-16.31001)"/>
<path style="fill-rule:nonzero;fill:rgb(100%,100%,100%);fill-opacity:1;stroke-width:0.96;stroke-linecap:butt;stroke-linejoin:miter;stroke:rgb(0%,0%,0%);stroke-opacity:1;stroke-miterlimit:4;" d="M 66.267785 706.8086 L 324.446495 706.8086 L 324.446495 719.3086 L 66.267785 719.3086 Z M 66.267785 706.8086 " transform="matrix(0.0384,0,0,0.0375,4.498286,-16.31001)"/>
<path style="fill-rule:nonzero;fill:rgb(100%,100%,100%);fill-opacity:1;stroke-width:0.96;stroke-linecap:butt;stroke-linejoin:miter;stroke:rgb(0%,0%,0%);stroke-opacity:1;stroke-miterlimit:4;" d="M 85.595584 675.5586 L 305.118696 675.5586 L 305.118696 683.579433 L 85.595584 683.579433 Z M 85.595584 675.5586 " transform="matrix(0.0384,0,0,0.0375,4.498286,-16.31001)"/>
<path style="fill-rule:nonzero;fill:rgb(100%,100%,100%);fill-opacity:1;stroke-width:0.96;stroke-linecap:butt;stroke-linejoin:miter;stroke:rgb(0%,0%,0%);stroke-opacity:1;stroke-miterlimit:4;" d="M 79.186893 683.579433 L 311.527387 683.579433 L 311.527387 694.204433 L 79.186893 694.204433 Z M 79.186893 683.579433 " transform="matrix(0.0384,0,0,0.0375,4.498286,-16.31001)"/>
<path style="fill-rule:nonzero;fill:rgb(100%,100%,100%);fill-opacity:1;stroke-width:0.96;stroke-linecap:butt;stroke-linejoin:miter;stroke:rgb(0%,0%,0%);stroke-opacity:1;stroke-miterlimit:4;" d="M 89.461144 669.3086 L 301.253136 669.3086 L 301.253136 675.454433 L 89.461144 675.454433 Z M 89.461144 669.3086 " transform="matrix(0.0384,0,0,0.0375,4.498286,-16.31001)"/>
<path style="fill-rule:nonzero;fill:rgb(100%,100%,100%);fill-opacity:1;stroke-width:1.0446;stroke-linecap:butt;stroke-linejoin:miter;stroke:rgb(0%,0%,0%);stroke-opacity:1;stroke-miterlimit:4;" d="M 112.451053 669.3086 L 128.421919 669.3086 L 128.421919 719.204433 L 112.451053 719.204433 Z M 112.451053 669.3086 " transform="matrix(0.0384,0,0,0.0375,4.498286,-16.31001)"/>
<path style="fill-rule:nonzero;fill:rgb(100%,100%,100%);fill-opacity:1;stroke-width:1.0429;stroke-linecap:butt;stroke-linejoin:miter;stroke:rgb(0%,0%,0%);stroke-opacity:1;stroke-miterlimit:4;" d="M 115.909712 669.3086 L 124.861535 669.3086 L 124.861535 719.204433 L 115.909712 719.204433 Z M 115.909712 669.3086 " transform="matrix(0.0384,0,0,0.0375,4.498286,-16.31001)"/>
<path style="fill-rule:nonzero;fill:rgb(100%,100%,100%);fill-opacity:1;stroke-width:1.0446;stroke-linecap:butt;stroke-linejoin:miter;stroke:rgb(0%,0%,0%);stroke-opacity:1;stroke-miterlimit:4;" d="M 187.117394 669.3086 L 203.08826 669.3086 L 203.08826 719.204433 L 187.117394 719.204433 Z M 187.117394 669.3086 " transform="matrix(0.0384,0,0,0.0375,4.498286,-16.31001)"/>
<path style="fill-rule:nonzero;fill:rgb(100%,100%,100%);fill-opacity:1;stroke-width:1.0429;stroke-linecap:butt;stroke-linejoin:miter;stroke:rgb(0%,0%,0%);stroke-opacity:1;stroke-miterlimit:4;" d="M 190.779503 669.3086 L 199.629601 669.3086 L 199.629601 719.204433 L 190.779503 719.204433 Z M 190.779503 669.3086 " transform="matrix(0.0384,0,0,0.0375,4.498286,-16.31001)"/>
<path style="fill-rule:nonzero;fill:rgb(100%,100%,100%);fill-opacity:1;stroke-width:1.0446;stroke-linecap:butt;stroke-linejoin:miter;stroke:rgb(0%,0%,0%);stroke-opacity:1;stroke-miterlimit:4;" d="M 262.190636 669.3086 L 278.161502 669.3086 L 278.161502 719.204433 L 262.190636 719.204433 Z M 262.190636 669.3086 " transform="matrix(0.0384,0,0,0.0375,4.498286,-16.31001)"/>
<path style="fill-rule:nonzero;fill:rgb(100%,100%,100%);fill-opacity:1;stroke-width:1.0429;stroke-linecap:butt;stroke-linejoin:miter;stroke:rgb(0%,0%,0%);stroke-opacity:1;stroke-miterlimit:4;" d="M 265.75102 669.3086 L 274.601118 669.3086 L 274.601118 719.204433 L 265.75102 719.204433 Z M 265.75102 669.3086 " transform="matrix(0.0384,0,0,0.0375,4.498286,-16.31001)"/>
<path style="fill:none;stroke-width:0.96;stroke-linecap:butt;stroke-linejoin:miter;stroke:rgb(0%,0%,0%);stroke-opacity:1;stroke-miterlimit:4;" d="M 98.921593 664.204433 L 291.996137 664.204433 " transform="matrix(0.0384,0,0,0.0375,4.498286,-16.31001)"/>
<path style="fill:none;stroke-width:0.96;stroke-linecap:butt;stroke-linejoin:miter;stroke:rgb(0%,0%,0%);stroke-opacity:1;stroke-miterlimit:4;" d="M 115.807986 712.954433 L 125.064985 712.954433 M 115.807986 706.704433 L 125.064985 706.704433 M 115.807986 700.454433 L 125.064985 700.454433 M 115.807986 694.204433 L 125.064985 694.204433 M 115.807986 687.954433 L 125.064985 687.954433 M 115.807986 681.704433 L 125.064985 681.704433 M 115.807986 675.454433 L 125.064985 675.454433 " transform="matrix(0.0384,0,0,0.0375,4.498286,-16.31001)"/>
<path style="fill:none;stroke-width:0.96;stroke-linecap:butt;stroke-linejoin:miter;stroke:rgb(0%,0%,0%);stroke-opacity:1;stroke-miterlimit:4;" d="M 190.779503 712.954433 L 199.42615 712.954433 M 190.779503 706.704433 L 199.42615 706.704433 M 190.779503 700.454433 L 199.42615 700.454433 M 190.779503 694.204433 L 199.42615 694.204433 M 190.779503 687.954433 L 199.42615 687.954433 M 190.779503 681.704433 L 199.42615 681.704433 M 190.779503 675.454433 L 199.42615 675.454433 " transform="matrix(0.0384,0,0,0.0375,4.498286,-16.31001)"/>
<path style="fill:none;stroke-width:0.96;stroke-linecap:butt;stroke-linejoin:miter;stroke:rgb(0%,0%,0%);stroke-opacity:1;stroke-miterlimit:4;" d="M 265.54757 712.954433 L 274.804568 712.954433 M 265.54757 706.704433 L 274.804568 706.704433 M 265.54757 700.454433 L 274.804568 700.454433 M 265.54757 694.204433 L 274.804568 694.204433 M 265.54757 687.954433 L 274.804568 687.954433 M 265.54757 681.704433 L 274.804568 681.704433 M 265.54757 675.454433 L 274.804568 675.454433 " transform="matrix(0.0384,0,0,0.0375,4.498286,-16.31001)"/>
</g>
</svg>
