<?xml version="1.0" encoding="utf-8"?>
<svg viewBox="0 0 24 12" width="24px" height="12px" xmlns="http://www.w3.org/2000/svg">
  <defs>
    <style>.str1{stroke:#000;stroke-width:.46;stroke-miterlimit:22.9256}.fil3{fill:none}</style>
  </defs>
  <path fill="#c81010" d="M 0 0 L 24 0 L 24 6.48 L 0 6.48 L 0 0 Z"/>
  <g id="bird" transform="matrix(0.04, 0, 0, 0.04, 0, 0)">
    <path id="bird_outline" class="str1" d="M305.75 27.34c-19.08-7.89-30.76-9.34-43.81-9.47-18.9.13-27.92 8.25-45.94 9 7.14 7.69 33.02 9.57 43.93-.53 16.22 1.69 19.9 6.07 24.25 11.52-6.77-1.07-14.57-3.02-21.04 4.14-5.46 1.1-7.99 0-17.33 0-4.36 0-5.87 2.14-5.81 6 2.82-3.9 22.31-1.6 27.09 0 3.67 1.23 7.57 6.32 12.22 7.15 12.19 2.17 29.68-4.2 45.81-8.54L360 42h-23.93L366 36h-32.54c-.69-.79-2.34-1.81-3.66-2.68 8.37-5.39 15.77-15.19 17.66-19.92 15.09-.15 24.83-1.55 36.54-4.29-77.18-8.54-59.61.67-78.25 18.23z" fill="#f8d000"/>
    <path id="eye" d="M270.06 39.89c.83 0 1.5.67 1.5 1.5s-.67 1.5-1.5 1.5c-.82 0-1.5-.67-1.5-1.5s.68-1.5 1.5-1.5z" fill="#000"/>
    <path id="eye_outline" d="M270.06 39.89c.83 0 1.5.67 1.5 1.5s-.67 1.5-1.5 1.5c-.82 0-1.5-.67-1.5-1.5s.68-1.5 1.5-1.5z" fill="none" fill-rule="nonzero" stroke="#000" stroke-width=".15" stroke-miterlimit="22.926"/>
    <path class="fil3 str1" d="M290.13 38.29S283.86 42 279.7 42m45.42 4.61S330.85 42 336.07 42M233.82 24.6s4.66-2.44 6.86-3.09m12.45-.39s7.39-3.19 15.62-3.03m4.36 3.81s9.69-1.63 18.64.36m-7.5 1.98s8.04-1.35 15.75.83m-7.48 1.62s8.19.11 12.26 1.69M216 26.87s11.49 3.14 20.83-1.35m-19.37 2.71s14.92 3.68 21.74-3.15m-16.74 5.73s11.24 3.62 20.08-5.72m-9.64 7.99s9.08-2.6 12.52-7.95m-5.42 8.1s6.09-4.22 8.28-7.98m70.18 3.22s2.38 2.99 11.34 4.85m-9.76-6.26s3.85 3.85 11.87 4.79m-9.93-6.6s3.91 3.36 12.42 4.61m-10.49-6.54s5.98 3.99 12.79 4.45m-10.43-6.97s4.19 3.91 12.5 4.88m-10.74-6.89s4.91 4.22 12.63 4.8m-10.9-6.9s3.01 3.48 12.94 4.39m-11.18-6.66s3.35 3.68 12.78 4.48m-11.41-6.35s5.9 4.45 12.73 4.36m-11.56-6.06s7.8 4.68 12.45 4.53m-11.03-6.69s6.2 3.86 11.98 4.71m-38.62 16.98s2.5 1.89 4.84 1.81m-3.4-3.21s2.17 1.85 5.15 1.84m-3.4-3.56s2.46 2.3 5.41 1.88m-3.75-3.54s2.94 2 5.57 1.94m-3.73-3.83s2.18 1.89 5.63 2.07m-3.99-4.15s2.56 2.27 5.82 2.35m-4.09-3.85s2.48 1.59 5.99 1.89m-4.42-3.64s3.35 1.18 6.42 1.47m-4.61-3.61s2.31 1.62 6.41 1.52m-4.78-3.66s2.74 1.82 6.26 1.86m-5.06-3.89s3.68 2.06 6.85 1.6m-5.51-4.03s2.33 2.55 6.67 2.46m-5.73-3.56s4.18 2.35 7.01 1.75m-5.24-3.08s3.17 1.93 6.07 1.85m-2.85-2.82s5.65 2.88 13.29-.24m-8.48 2.29s11.42 2.62 16.37-1.96m-7.41 2.64s7.85.82 16.63-1.96m-11.41 2.01s11.92 2.4 32.63.09M243.24 32.96s5.33-3.51 7.54-7.55m-3.55 6.9s4.29-4.16 5.54-6.74m-1.58 5.67s3.53-3.17 4.31-5.39m-21.55-.19s7.66-1.67 25.98.68m-18.9-3.74s6.42-3.11 12.14-4.06m-5.76 2.77s4.69-2.21 11.61-3.31m-.95 2.89s6.49-2.77 14.43-2.51m-6.22 2.56s8.9-1.99 17.1-.87m6.73 5.22s6.79-.31 14.6 1.63m-26.21-4.36s9.73-.52 16.4.71m43.77-14.7s3.36 2.91 12.72 4.76m-7.44-4.29s5.26 2.99 13.56 4.03m-8.04-3.99s7.38 3.21 15.18 3.41m-7.01-2.71s7.52 1.81 16.84 1.32m-112.07 9.68s5.1-2.1 14.14-1.93m19.49 9.57s3.06-.37 6.86 1.44"/>
    <path class="fil3 str1" d="M284.18 37.86c2.11.33 4.12.58 5.95.43 7.16-3.91 12.05-7.58 15.62-10.95"/>
  </g>
  <g fill="#f8d000" stroke="#000" stroke-width=".46" stroke-miterlimit="22.926" transform="matrix(0.04, 0, 0, 0.04, 0, 0)">
    <g id="rays_6">
      <g id="rays_2" transform="rotate(-84.706 300 156)">
        <path id="wavy" d="M290.63 105.87A50 50 0 01300 66a50 50 0 009.37 39.87" transform="rotate(13.4 300 156)"/>
        <path id="straight" d="M290.63 105.87L300 63l9.37 42.87"/>
      </g>
      <g transform="matrix(0.44579164359481704, -0.895136755194999, 0.895136755194999, 0.44579164359481704, 26.621173111135022, 354.99753015770824)">
        <path d="M290.63 105.87A50 50 0 01300 66a50 50 0 009.37 39.87" transform="rotate(13.4 300 156)"/>
        <path d="M290.63 105.87L300 63l9.37 42.87"/>
      </g>
      <g transform="matrix(0.7389729168724072, -0.6737351320282225, 0.6737351320282225, 0.7389729168724072, -26.794555658124892, 242.84076457637127)">
        <path d="M290.63 105.87A50 50 0 01300 66a50 50 0 009.37 39.87" transform="rotate(13.4 300 156)"/>
        <path d="M290.63 105.87L300 63l9.37 42.87"/>
      </g>
    </g>
    <g transform="matrix(0.4457291845032233, 0.8951678580479147, -0.8951678580479147, 0.4457291845032233, 305.9274305045077, -182.0841101968772)">
      <g transform="rotate(-84.706 300 156)">
        <path d="M290.63 105.87A50 50 0 01300 66a50 50 0 009.37 39.87" transform="rotate(13.4 300 156)"/>
        <path d="M290.63 105.87L300 63l9.37 42.87"/>
      </g>
      <g transform="matrix(0.44579164359481704, -0.895136755194999, 0.895136755194999, 0.44579164359481704, 26.621173111135022, 354.99753015770824)">
        <path d="M290.63 105.87A50 50 0 01300 66a50 50 0 009.37 39.87" transform="rotate(13.4 300 156)"/>
        <path d="M290.63 105.87L300 63l9.37 42.87"/>
      </g>
      <g transform="matrix(0.7389729168724072, -0.6737351320282225, 0.6737351320282225, 0.7389729168724072, -26.794555658124892, 242.84076457637127)">
        <path d="M290.63 105.87A50 50 0 01300 66a50 50 0 009.37 39.87" transform="rotate(13.4 300 156)"/>
        <path d="M290.63 105.87L300 63l9.37 42.87"/>
      </g>
    </g>
    <g transform="matrix(-0.602650988164183, 0.7980048787223883, -0.7980048787223883, -0.602650988164183, 605.2840575299475, 10.612090536896062)">
      <g transform="rotate(-84.706 300 156)">
        <path d="M290.63 105.87A50 50 0 01300 66a50 50 0 009.37 39.87" transform="rotate(13.4 300 156)"/>
        <path d="M290.63 105.87L300 63l9.37 42.87"/>
      </g>
      <g transform="matrix(0.44579164359481704, -0.895136755194999, 0.895136755194999, 0.44579164359481704, 26.621173111135022, 354.99753015770824)">
        <path d="M290.63 105.87A50 50 0 01300 66a50 50 0 009.37 39.87" transform="rotate(13.4 300 156)"/>
        <path d="M290.63 105.87L300 63l9.37 42.87"/>
      </g>
      <g transform="matrix(0.7389729168724072, -0.6737351320282225, 0.6737351320282225, 0.7389729168724072, -26.794555658124892, 242.84076457637127)">
        <path d="M290.63 105.87A50 50 0 01300 66a50 50 0 009.37 39.87" transform="rotate(13.4 300 156)"/>
        <path d="M290.63 105.87L300 63l9.37 42.87"/>
      </g>
    </g>
    <circle cx="300" cy="156" r="51"/>
  </g>
  <path fill="#183070" d="M 0 6.48 L 24 6.48 L 24 12 L 0 12 L 0 6.48 Z"/>
  <path d="M 0 6.96 L 0 6 C 1.001 6.064 1.227 6.479 2.175 6.48 L 2.175 6.48 C 3.204 6.479 3.39 6 4.631 6 C 5.873 6 6.058 6.479 7.087 6.48 L 7.087 6.48 C 8.117 6.479 8.302 6 9.544 6 L 9.544 6 C 10.785 6 10.971 6.479 12 6.48 L 12 7.44 C 10.742 7.44 10.512 6.96 9.544 6.96 L 9.544 6.96 C 8.575 6.96 8.346 7.44 7.087 7.44 L 7.087 7.44 C 5.829 7.44 5.6 6.96 4.631 6.96 C 3.662 6.96 3.433 7.44 2.175 7.44 L 2.175 7.44 C 1.045 7.44 0.751 7.039 0 6.96 Z M 21.825 7.44 L 21.825 6.48 C 22.773 6.479 22.999 6.064 24 6 L 24 6.96 C 23.249 7.039 22.955 7.44 21.825 7.44 Z M 21.825 6.48 L 21.825 7.44 C 20.567 7.44 20.338 6.96 19.369 6.96 L 19.369 6.96 C 18.4 6.96 18.171 7.44 16.913 7.44 L 16.913 7.44 C 15.654 7.44 15.425 6.96 14.456 6.96 L 14.456 6.96 C 13.487 6.96 13.258 7.44 12 7.44 L 12 6.48 C 13.029 6.479 13.215 6 14.456 6 L 14.456 6 C 15.698 6 15.883 6.479 16.913 6.48 L 16.913 6.48 C 17.942 6.479 18.127 6 19.369 6 L 19.369 6 C 20.61 6 20.796 6.479 21.825 6.48 Z" style="fill: rgb(255, 255, 255);"/>
  <path d="M 0 8.892 L 0 7.932 C 1.001 7.996 1.227 8.411 2.175 8.412 L 2.175 8.412 C 3.204 8.411 3.39 7.932 4.631 7.932 C 5.873 7.932 6.058 8.411 7.087 8.412 L 7.087 8.412 C 8.117 8.411 8.302 7.932 9.544 7.932 L 9.544 7.932 C 10.785 7.932 10.971 8.411 12 8.412 L 12 9.372 C 10.742 9.372 10.512 8.892 9.544 8.892 L 9.544 8.892 C 8.575 8.892 8.346 9.372 7.087 9.372 L 7.087 9.372 C 5.829 9.372 5.6 8.892 4.631 8.892 C 3.662 8.892 3.433 9.372 2.175 9.372 L 2.175 9.372 C 1.045 9.372 0.751 8.971 0 8.892 Z M 21.825 9.372 L 21.825 8.412 C 22.773 8.411 22.999 7.996 24 7.932 L 24 8.892 C 23.249 8.971 22.955 9.372 21.825 9.372 Z M 21.825 8.412 L 21.825 9.372 C 20.567 9.372 20.338 8.892 19.369 8.892 L 19.369 8.892 C 18.4 8.892 18.171 9.372 16.913 9.372 L 16.913 9.372 C 15.654 9.372 15.425 8.892 14.456 8.892 L 14.456 8.892 C 13.487 8.892 13.258 9.372 12 9.372 L 12 8.412 C 13.029 8.411 13.215 7.932 14.456 7.932 L 14.456 7.932 C 15.698 7.932 15.883 8.411 16.913 8.412 L 16.913 8.412 C 17.942 8.411 18.127 7.932 19.369 7.932 L 19.369 7.932 C 20.61 7.932 20.796 8.411 21.825 8.412 Z" style="fill: rgb(255, 255, 255);"/>
  <path d="M 0 10.824 L 0 9.864 C 1.001 9.928 1.227 10.343 2.175 10.344 L 2.175 10.344 C 3.204 10.343 3.39 9.864 4.631 9.864 C 5.873 9.864 6.058 10.343 7.087 10.344 L 7.087 10.344 C 8.117 10.343 8.302 9.864 9.544 9.864 L 9.544 9.864 C 10.785 9.864 10.971 10.343 12 10.344 L 12 11.304 C 10.742 11.304 10.512 10.824 9.544 10.824 L 9.544 10.824 C 8.575 10.824 8.346 11.304 7.087 11.304 L 7.087 11.304 C 5.829 11.304 5.6 10.824 4.631 10.824 C 3.662 10.824 3.433 11.304 2.175 11.304 L 2.175 11.304 C 1.045 11.304 0.751 10.903 0 10.824 Z M 21.825 11.304 L 21.825 10.344 C 22.773 10.343 22.999 9.928 24 9.864 L 24 10.824 C 23.249 10.903 22.955 11.304 21.825 11.304 Z M 21.825 10.344 L 21.825 11.304 C 20.567 11.304 20.338 10.824 19.369 10.824 L 19.369 10.824 C 18.4 10.824 18.171 11.304 16.913 11.304 L 16.913 11.304 C 15.654 11.304 15.425 10.824 14.456 10.824 L 14.456 10.824 C 13.487 10.824 13.258 11.304 12 11.304 L 12 10.344 C 13.029 10.343 13.215 9.864 14.456 9.864 L 14.456 9.864 C 15.698 9.864 15.883 10.343 16.913 10.344 L 16.913 10.344 C 17.942 10.343 18.127 9.864 19.369 9.864 L 19.369 9.864 C 20.61 9.864 20.796 10.343 21.825 10.344 Z" style="fill: rgb(255, 255, 255);"/>
</svg>