<?xml version="1.0" encoding="UTF-8"?>
<svg xmlns="http://www.w3.org/2000/svg" xmlns:xlink="http://www.w3.org/1999/xlink" width="24px" height="24px" viewBox="0 0 24 12" version="1.1">
<g id="surface1">
<rect x="0" y="0" width="24" height="12" style="fill:rgb(0.784314%,30.980392%,63.529412%);fill-opacity:1;stroke:none;"/>
<path style=" stroke:none;fill-rule:nonzero;fill:rgb(100%,100%,100%);fill-opacity:1;" d="M 0 2 L 24 2 L 24 10 L 0 10 Z M 0 2 "/>
<path style=" stroke:none;fill-rule:nonzero;fill:rgb(92.941176%,10.980392%,15.294118%);fill-opacity:1;" d="M 0 2.332031 L 24 2.332031 L 24 9.667969 L 0 9.667969 Z M 0 2.332031 "/>
<path style=" stroke:none;fill-rule:nonzero;fill:rgb(100%,100%,100%);fill-opacity:1;" d="M 10.667969 6 C 10.667969 7.472656 9.472656 8.667969 8 8.667969 C 6.527344 8.667969 5.332031 7.472656 5.332031 6 C 5.332031 4.527344 6.527344 3.332031 8 3.332031 C 9.472656 3.332031 10.667969 4.527344 10.667969 6 Z M 10.667969 6 "/>
<path style=" stroke:none;fill-rule:nonzero;fill:rgb(92.941176%,10.980392%,15.294118%);fill-opacity:1;" d="M 8 3.417969 L 7.203125 5.875 L 8.429688 6.273438 Z M 8 3.417969 "/>
<path style=" stroke:none;fill-rule:nonzero;fill:rgb(92.941176%,10.980392%,15.294118%);fill-opacity:1;" d="M 8 3.417969 L 8.796875 5.875 L 7.570312 6.273438 Z M 8 3.417969 "/>
<path style=" stroke:none;fill-rule:nonzero;fill:rgb(92.941176%,10.980392%,15.294118%);fill-opacity:1;" d="M 10.457031 5.203125 L 7.875 5.203125 L 7.875 6.492188 Z M 10.457031 5.203125 "/>
<path style=" stroke:none;fill-rule:nonzero;fill:rgb(92.941176%,10.980392%,15.294118%);fill-opacity:1;" d="M 10.457031 5.203125 L 8.367188 6.71875 L 7.609375 5.675781 Z M 10.457031 5.203125 "/>
<path style=" stroke:none;fill-rule:nonzero;fill:rgb(92.941176%,10.980392%,15.294118%);fill-opacity:1;" d="M 5.542969 5.203125 L 7.632812 6.71875 L 8.390625 5.675781 Z M 5.542969 5.203125 "/>
<path style=" stroke:none;fill-rule:nonzero;fill:rgb(92.941176%,10.980392%,15.294118%);fill-opacity:1;" d="M 5.542969 5.203125 L 8.125 5.203125 L 8.125 6.492188 Z M 5.542969 5.203125 "/>
<path style=" stroke:none;fill-rule:nonzero;fill:rgb(92.941176%,10.980392%,15.294118%);fill-opacity:1;" d="M 9.519531 8.089844 L 8.71875 5.632812 L 7.492188 6.03125 Z M 9.519531 8.089844 "/>
<path style=" stroke:none;fill-rule:nonzero;fill:rgb(92.941176%,10.980392%,15.294118%);fill-opacity:1;" d="M 9.519531 8.089844 L 7.429688 6.570312 L 8.1875 5.527344 Z M 9.519531 8.089844 "/>
<path style=" stroke:none;fill-rule:nonzero;fill:rgb(92.941176%,10.980392%,15.294118%);fill-opacity:1;" d="M 6.480469 8.089844 L 8.570312 6.570312 L 7.8125 5.527344 Z M 6.480469 8.089844 "/>
<path style=" stroke:none;fill-rule:nonzero;fill:rgb(92.941176%,10.980392%,15.294118%);fill-opacity:1;" d="M 6.480469 8.089844 L 7.28125 5.632812 L 8.507812 6.03125 Z M 6.480469 8.089844 "/>
</g>
</svg>
