<?xml version="1.0" encoding="utf-8"?>
<svg viewBox="0 0 24 16" xmlns="http://www.w3.org/2000/svg">
  <defs/>
  <path fill="#fff" d="M 0 0 L 24 0 L 24 16 L 0 16 L 0 0 Z" style=""/>
  <path d="M 14.219 4.672 C 16.057 5.897 16.554 8.381 15.328 10.219 C 14.103 12.057 11.619 12.554 9.781 11.328 C 7.943 10.103 7.446 7.619 8.672 5.781 C 9.897 3.943 12.381 3.446 14.219 4.672 Z" fill="#cd2e3a" style=""/>
  <path fill="#0047a0" d="M 8.671 5.78 C 7.817 7.061 8.67 8.786 10.207 8.885 C 10.92 8.931 11.603 8.593 11.999 7.999 C 12.853 6.718 14.774 6.842 15.456 8.222 C 15.773 8.862 15.724 9.623 15.328 10.217 C 13.619 12.78 9.779 12.532 8.414 9.772 C 7.78 8.491 7.878 6.969 8.671 5.78 Z" style="transform-origin: 11.444px 8.832px;"/>
  <path d="M 3.68 4.857 L 5.898 1.529 L 6.453 1.898 L 4.234 5.227 L 3.68 4.857 Z M 4.512 5.412 L 6.73 2.083 L 7.285 2.453 L 5.066 5.781 L 4.512 5.412 Z M 5.344 5.966 L 7.562 2.638 L 8.117 3.008 L 5.898 6.336 L 5.344 5.966 Z" style="transform-origin: 5.898px 3.932px;"/>
  <path d="M 15.883 12.992 L 16.9 11.467 L 17.455 11.837 L 16.438 13.362 L 15.883 12.992 Z M 18.102 9.664 L 18.656 10.034 L 17.639 11.559 L 17.085 11.189 L 18.102 9.664 Z M 16.715 13.547 L 17.732 12.021 L 18.287 12.391 L 17.27 13.917 L 16.715 13.547 Z M 18.934 10.219 L 19.488 10.588 L 18.471 12.114 L 17.917 11.744 L 18.934 10.219 Z M 17.547 14.102 L 18.564 12.576 L 19.119 12.946 L 18.102 14.471 L 17.547 14.102 Z M 19.766 10.773 L 20.32 11.143 L 19.304 12.669 L 18.749 12.299 L 19.766 10.773 Z" style="transform-origin: 18.102px 12.068px;"/>
  <path d="M 5.898 14.471 L 3.68 11.143 L 4.234 10.773 L 6.453 14.102 L 5.898 14.471 Z M 6.73 13.917 L 5.713 12.391 L 6.268 12.021 L 7.285 13.547 L 6.73 13.917 Z M 4.512 10.588 L 5.066 10.219 L 6.083 11.744 L 5.529 12.114 L 4.512 10.588 Z M 7.562 13.362 L 5.344 10.034 L 5.898 9.664 L 8.117 12.992 L 7.562 13.362 Z" style="transform-origin: 5.898px 12.068px;"/>
  <path d="M 18.102 6.336 L 17.085 4.811 L 17.639 4.441 L 18.656 5.966 L 18.102 6.336 Z M 15.883 3.008 L 16.438 2.638 L 17.455 4.163 L 16.9 4.533 L 15.883 3.008 Z M 18.934 5.781 L 16.715 2.453 L 17.27 2.083 L 19.488 5.412 L 18.934 5.781 Z M 19.766 5.227 L 18.749 3.701 L 19.304 3.331 L 20.32 4.857 L 19.766 5.227 Z M 17.547 1.898 L 18.102 1.529 L 19.119 3.054 L 18.564 3.424 L 17.547 1.898 Z" style="transform-origin: 18.102px 3.932px;"/>
</svg>