<?xml version="1.0" encoding="UTF-8"?>
<svg xmlns="http://www.w3.org/2000/svg" xmlns:xlink="http://www.w3.org/1999/xlink" width="24px" height="24px" viewBox="0 0 24 12" version="1.1">
<g id="surface1">
<rect x="0" y="0" width="24" height="12" style="fill:rgb(0%,68.627451%,79.215686%);fill-opacity:1;stroke:none;"/>
<path style=" stroke:none;fill-rule:nonzero;fill:rgb(99.607843%,77.254902%,4.705882%);fill-opacity:1;" d="M 14.582031 5.039062 C 14.582031 5.933594 13.855469 6.65625 12.964844 6.65625 C 12.074219 6.65625 11.351562 5.933594 11.351562 5.039062 C 11.351562 4.148438 12.074219 3.425781 12.964844 3.425781 C 13.855469 3.425781 14.582031 4.148438 14.582031 5.039062 Z M 14.582031 5.039062 "/>
<path style=" stroke:none;fill-rule:nonzero;fill:rgb(99.607843%,77.254902%,4.705882%);fill-opacity:1;" d="M 12.964844 3.207031 C 13.0625 3.203125 13.097656 3.144531 13.097656 3.070312 C 13.097656 2.976562 12.964844 2.519531 12.964844 2.519531 C 12.964844 2.519531 12.832031 2.976562 12.832031 3.070312 C 12.832031 3.144531 12.871094 3.207031 12.964844 3.207031 Z M 12.964844 3.207031 "/>
<path style=" stroke:none;fill-rule:nonzero;fill:rgb(99.607843%,77.254902%,4.705882%);fill-opacity:1;" d="M 14.800781 5.039062 C 14.800781 5.136719 14.863281 5.171875 14.933594 5.171875 C 15.03125 5.171875 15.488281 5.039062 15.488281 5.039062 C 15.488281 5.039062 15.03125 4.90625 14.933594 4.90625 C 14.863281 4.90625 14.800781 4.945312 14.800781 5.039062 Z M 14.800781 5.039062 "/>
<path style=" stroke:none;fill-rule:nonzero;fill:rgb(99.607843%,77.254902%,4.705882%);fill-opacity:1;" d="M 12.964844 6.875 C 12.871094 6.875 12.832031 6.9375 12.832031 7.007812 C 12.832031 7.105469 12.964844 7.5625 12.964844 7.5625 C 12.964844 7.5625 13.097656 7.105469 13.097656 7.007812 C 13.097656 6.9375 13.0625 6.875 12.964844 6.875 Z M 12.964844 6.875 "/>
<path style=" stroke:none;fill-rule:nonzero;fill:rgb(99.607843%,77.254902%,4.705882%);fill-opacity:1;" d="M 11.128906 5.039062 C 11.128906 4.945312 11.070312 4.90625 10.996094 4.90625 C 10.902344 4.90625 10.445312 5.039062 10.445312 5.039062 C 10.445312 5.039062 10.902344 5.171875 10.996094 5.171875 C 11.070312 5.171875 11.128906 5.136719 11.128906 5.039062 Z M 11.128906 5.039062 "/>
<path style=" stroke:none;fill-rule:nonzero;fill:rgb(99.607843%,77.254902%,4.705882%);fill-opacity:1;" d="M 13.667969 3.34375 C 13.757812 3.378906 13.8125 3.339844 13.839844 3.273438 C 13.878906 3.183594 13.929688 2.710938 13.929688 2.710938 C 13.929688 2.710938 13.632812 3.082031 13.597656 3.171875 C 13.570312 3.238281 13.578125 3.308594 13.667969 3.34375 Z M 13.667969 3.34375 "/>
<path style=" stroke:none;fill-rule:nonzero;fill:rgb(99.607843%,77.254902%,4.705882%);fill-opacity:1;" d="M 14.660156 5.742188 C 14.625 5.832031 14.667969 5.886719 14.734375 5.914062 C 14.820312 5.953125 15.296875 6.003906 15.296875 6.003906 C 15.296875 6.003906 14.921875 5.707031 14.835938 5.671875 C 14.769531 5.644531 14.699219 5.652344 14.660156 5.742188 Z M 14.660156 5.742188 "/>
<path style=" stroke:none;fill-rule:nonzero;fill:rgb(99.607843%,77.254902%,4.705882%);fill-opacity:1;" d="M 12.261719 6.734375 C 12.175781 6.699219 12.117188 6.742188 12.089844 6.808594 C 12.054688 6.894531 12 7.371094 12 7.371094 C 12 7.371094 12.296875 6.996094 12.335938 6.910156 C 12.363281 6.84375 12.351562 6.773438 12.261719 6.734375 Z M 12.261719 6.734375 "/>
<path style=" stroke:none;fill-rule:nonzero;fill:rgb(99.607843%,77.254902%,4.705882%);fill-opacity:1;" d="M 11.269531 4.335938 C 11.304688 4.25 11.265625 4.191406 11.199219 4.164062 C 11.109375 4.128906 10.636719 4.074219 10.636719 4.074219 C 10.636719 4.074219 11.007812 4.371094 11.097656 4.410156 C 11.164062 4.4375 11.234375 4.425781 11.269531 4.335938 Z M 11.269531 4.335938 "/>
<path style=" stroke:none;fill-rule:nonzero;fill:rgb(99.607843%,77.254902%,4.705882%);fill-opacity:1;" d="M 14.261719 3.742188 C 14.332031 3.808594 14.398438 3.792969 14.449219 3.742188 C 14.519531 3.675781 14.75 3.257812 14.75 3.257812 C 14.75 3.257812 14.332031 3.488281 14.265625 3.554688 C 14.214844 3.605469 14.195312 3.675781 14.261719 3.742188 Z M 14.261719 3.742188 "/>
<path style=" stroke:none;fill-rule:nonzero;fill:rgb(99.607843%,77.254902%,4.705882%);fill-opacity:1;" d="M 14.261719 6.335938 C 14.195312 6.40625 14.214844 6.472656 14.265625 6.523438 C 14.332031 6.59375 14.75 6.824219 14.75 6.824219 C 14.75 6.824219 14.519531 6.40625 14.449219 6.339844 C 14.398438 6.289062 14.332031 6.269531 14.261719 6.335938 Z M 14.261719 6.335938 "/>
<path style=" stroke:none;fill-rule:nonzero;fill:rgb(99.607843%,77.254902%,4.705882%);fill-opacity:1;" d="M 11.667969 6.335938 C 11.597656 6.269531 11.53125 6.289062 11.480469 6.339844 C 11.414062 6.40625 11.183594 6.824219 11.183594 6.824219 C 11.183594 6.824219 11.597656 6.59375 11.667969 6.523438 C 11.71875 6.472656 11.734375 6.40625 11.667969 6.335938 Z M 11.667969 6.335938 "/>
<path style=" stroke:none;fill-rule:nonzero;fill:rgb(99.607843%,77.254902%,4.705882%);fill-opacity:1;" d="M 11.667969 3.742188 C 11.734375 3.675781 11.71875 3.605469 11.667969 3.554688 C 11.597656 3.488281 11.183594 3.257812 11.183594 3.257812 C 11.183594 3.257812 11.414062 3.675781 11.480469 3.742188 C 11.53125 3.792969 11.601562 3.808594 11.667969 3.742188 Z M 11.667969 3.742188 "/>
<path style=" stroke:none;fill-rule:nonzero;fill:rgb(99.607843%,77.254902%,4.705882%);fill-opacity:1;" d="M 14.660156 4.335938 C 14.699219 4.425781 14.769531 4.4375 14.835938 4.410156 C 14.921875 4.371094 15.296875 4.074219 15.296875 4.074219 C 15.296875 4.074219 14.820312 4.128906 14.734375 4.164062 C 14.667969 4.191406 14.625 4.25 14.660156 4.335938 Z M 14.660156 4.335938 "/>
<path style=" stroke:none;fill-rule:nonzero;fill:rgb(99.607843%,77.254902%,4.705882%);fill-opacity:1;" d="M 13.667969 6.734375 C 13.578125 6.773438 13.570312 6.84375 13.597656 6.910156 C 13.632812 6.996094 13.929688 7.371094 13.929688 7.371094 C 13.929688 7.371094 13.878906 6.894531 13.839844 6.808594 C 13.8125 6.742188 13.757812 6.699219 13.667969 6.734375 Z M 13.667969 6.734375 "/>
<path style=" stroke:none;fill-rule:nonzero;fill:rgb(99.607843%,77.254902%,4.705882%);fill-opacity:1;" d="M 11.269531 5.742188 C 11.234375 5.652344 11.164062 5.644531 11.097656 5.671875 C 11.007812 5.707031 10.636719 6.003906 10.636719 6.003906 C 10.636719 6.003906 11.109375 5.953125 11.199219 5.914062 C 11.265625 5.886719 11.308594 5.832031 11.269531 5.742188 Z M 11.269531 5.742188 "/>
<path style=" stroke:none;fill-rule:nonzero;fill:rgb(99.607843%,77.254902%,4.705882%);fill-opacity:1;" d="M 12.261719 3.34375 C 12.351562 3.308594 12.363281 3.238281 12.335938 3.171875 C 12.296875 3.082031 12 2.710938 12 2.710938 C 12 2.710938 12.054688 3.183594 12.089844 3.273438 C 12.117188 3.339844 12.175781 3.382812 12.261719 3.34375 Z M 12.261719 3.34375 "/>
<path style=" stroke:none;fill-rule:nonzero;fill:rgb(99.607843%,77.254902%,4.705882%);fill-opacity:1;" d="M 13.324219 3.242188 C 13.417969 3.257812 13.464844 3.207031 13.480469 3.136719 C 13.496094 3.042969 13.457031 2.566406 13.457031 2.566406 C 13.457031 2.566406 13.238281 2.988281 13.21875 3.085938 C 13.207031 3.15625 13.230469 3.222656 13.324219 3.242188 Z M 13.324219 3.242188 "/>
<path style=" stroke:none;fill-rule:nonzero;fill:rgb(99.607843%,77.254902%,4.705882%);fill-opacity:1;" d="M 14.765625 5.398438 C 14.746094 5.492188 14.800781 5.539062 14.871094 5.554688 C 14.964844 5.570312 15.4375 5.53125 15.4375 5.53125 C 15.4375 5.53125 15.015625 5.3125 14.921875 5.292969 C 14.851562 5.28125 14.785156 5.304688 14.765625 5.398438 Z M 14.765625 5.398438 "/>
<path style=" stroke:none;fill-rule:nonzero;fill:rgb(99.607843%,77.254902%,4.705882%);fill-opacity:1;" d="M 12.609375 6.839844 C 12.511719 6.820312 12.464844 6.875 12.453125 6.945312 C 12.433594 7.039062 12.472656 7.511719 12.472656 7.511719 C 12.472656 7.511719 12.691406 7.089844 12.710938 6.996094 C 12.726562 6.925781 12.703125 6.859375 12.609375 6.839844 Z M 12.609375 6.839844 "/>
<path style=" stroke:none;fill-rule:nonzero;fill:rgb(99.607843%,77.254902%,4.705882%);fill-opacity:1;" d="M 11.167969 4.683594 C 11.183594 4.585938 11.132812 4.539062 11.0625 4.527344 C 10.96875 4.507812 10.492188 4.546875 10.492188 4.546875 C 10.492188 4.546875 10.914062 4.765625 11.007812 4.785156 C 11.082031 4.800781 11.148438 4.777344 11.167969 4.683594 Z M 11.167969 4.683594 "/>
<path style=" stroke:none;fill-rule:nonzero;fill:rgb(99.607843%,77.254902%,4.705882%);fill-opacity:1;" d="M 13.984375 3.515625 C 14.066406 3.566406 14.128906 3.535156 14.167969 3.476562 C 14.222656 3.398438 14.367188 2.945312 14.367188 2.945312 C 14.367188 2.945312 14.003906 3.25 13.949219 3.332031 C 13.910156 3.390625 13.90625 3.460938 13.984375 3.515625 Z M 13.984375 3.515625 "/>
<path style=" stroke:none;fill-rule:nonzero;fill:rgb(99.607843%,77.254902%,4.705882%);fill-opacity:1;" d="M 14.492188 6.058594 C 14.4375 6.140625 14.46875 6.203125 14.527344 6.242188 C 14.609375 6.296875 15.0625 6.441406 15.0625 6.441406 C 15.0625 6.441406 14.753906 6.078125 14.675781 6.023438 C 14.617188 5.984375 14.542969 5.980469 14.492188 6.058594 Z M 14.492188 6.058594 "/>
<path style=" stroke:none;fill-rule:nonzero;fill:rgb(99.607843%,77.254902%,4.705882%);fill-opacity:1;" d="M 11.945312 6.566406 C 11.867188 6.511719 11.800781 6.542969 11.761719 6.601562 C 11.710938 6.683594 11.566406 7.136719 11.566406 7.136719 C 11.566406 7.136719 11.929688 6.828125 11.980469 6.75 C 12.023438 6.691406 12.027344 6.617188 11.945312 6.566406 Z M 11.945312 6.566406 "/>
<path style=" stroke:none;fill-rule:nonzero;fill:rgb(99.607843%,77.254902%,4.705882%);fill-opacity:1;" d="M 11.441406 4.019531 C 11.492188 3.941406 11.460938 3.875 11.402344 3.835938 C 11.324219 3.785156 10.871094 3.640625 10.871094 3.640625 C 10.871094 3.640625 11.175781 4.003906 11.257812 4.054688 C 11.316406 4.097656 11.386719 4.101562 11.441406 4.019531 Z M 11.441406 4.019531 "/>
<path style=" stroke:none;fill-rule:nonzero;fill:rgb(99.607843%,77.254902%,4.705882%);fill-opacity:1;" d="M 14.492188 4.019531 C 14.546875 4.101562 14.617188 4.097656 14.675781 4.054688 C 14.753906 4.003906 15.0625 3.640625 15.0625 3.640625 C 15.0625 3.640625 14.609375 3.785156 14.527344 3.835938 C 14.46875 3.875 14.4375 3.941406 14.492188 4.019531 Z M 14.492188 4.019531 "/>
<path style=" stroke:none;fill-rule:nonzero;fill:rgb(99.607843%,77.254902%,4.705882%);fill-opacity:1;" d="M 13.984375 6.566406 C 13.90625 6.621094 13.910156 6.691406 13.949219 6.75 C 14.003906 6.828125 14.367188 7.136719 14.367188 7.136719 C 14.367188 7.136719 14.222656 6.683594 14.167969 6.601562 C 14.128906 6.542969 14.066406 6.511719 13.984375 6.566406 Z M 13.984375 6.566406 "/>
<path style=" stroke:none;fill-rule:nonzero;fill:rgb(99.607843%,77.254902%,4.705882%);fill-opacity:1;" d="M 11.441406 6.058594 C 11.386719 5.980469 11.316406 5.984375 11.257812 6.023438 C 11.175781 6.078125 10.871094 6.441406 10.871094 6.441406 C 10.871094 6.441406 11.324219 6.296875 11.402344 6.242188 C 11.460938 6.203125 11.492188 6.140625 11.441406 6.058594 Z M 11.441406 6.058594 "/>
<path style=" stroke:none;fill-rule:nonzero;fill:rgb(99.607843%,77.254902%,4.705882%);fill-opacity:1;" d="M 11.945312 3.515625 C 12.027344 3.460938 12.023438 3.390625 11.980469 3.332031 C 11.929688 3.25 11.566406 2.945312 11.566406 2.945312 C 11.566406 2.945312 11.710938 3.398438 11.761719 3.476562 C 11.800781 3.535156 11.867188 3.566406 11.945312 3.515625 Z M 11.945312 3.515625 "/>
<path style=" stroke:none;fill-rule:nonzero;fill:rgb(99.607843%,77.254902%,4.705882%);fill-opacity:1;" d="M 14.765625 4.683594 C 14.785156 4.777344 14.851562 4.800781 14.921875 4.785156 C 15.015625 4.765625 15.4375 4.546875 15.4375 4.546875 C 15.4375 4.546875 14.964844 4.507812 14.871094 4.527344 C 14.800781 4.539062 14.746094 4.589844 14.765625 4.683594 Z M 14.765625 4.683594 "/>
<path style=" stroke:none;fill-rule:nonzero;fill:rgb(99.607843%,77.254902%,4.705882%);fill-opacity:1;" d="M 13.324219 6.839844 C 13.230469 6.859375 13.207031 6.925781 13.21875 6.996094 C 13.238281 7.089844 13.457031 7.511719 13.457031 7.511719 C 13.457031 7.511719 13.496094 7.039062 13.480469 6.945312 C 13.464844 6.875 13.417969 6.820312 13.324219 6.839844 Z M 13.324219 6.839844 "/>
<path style=" stroke:none;fill-rule:nonzero;fill:rgb(99.607843%,77.254902%,4.705882%);fill-opacity:1;" d="M 11.167969 5.398438 C 11.144531 5.304688 11.082031 5.28125 11.007812 5.292969 C 10.914062 5.3125 10.492188 5.53125 10.492188 5.53125 C 10.492188 5.53125 10.96875 5.570312 11.0625 5.554688 C 11.132812 5.539062 11.183594 5.492188 11.167969 5.398438 Z M 11.167969 5.398438 "/>
<path style=" stroke:none;fill-rule:nonzero;fill:rgb(99.607843%,77.254902%,4.705882%);fill-opacity:1;" d="M 12.609375 3.242188 C 12.703125 3.21875 12.726562 3.15625 12.710938 3.085938 C 12.691406 2.988281 12.472656 2.566406 12.472656 2.566406 C 12.472656 2.566406 12.433594 3.042969 12.453125 3.136719 C 12.464844 3.207031 12.511719 3.257812 12.609375 3.242188 Z M 12.609375 3.242188 "/>
<path style=" stroke:none;fill-rule:nonzero;fill:rgb(99.607843%,77.254902%,4.705882%);fill-opacity:1;" d="M 12.675781 8.539062 C 12.632812 8.539062 12.59375 8.546875 12.550781 8.558594 C 12.496094 8.566406 12.441406 8.585938 12.386719 8.59375 L 12.363281 8.597656 L 12.324219 8.601562 C 12.328125 8.613281 12.328125 8.625 12.328125 8.632812 C 12.328125 8.644531 12.328125 8.65625 12.324219 8.664062 C 12.324219 8.671875 12.316406 8.683594 12.308594 8.6875 C 12.300781 8.699219 12.292969 8.707031 12.28125 8.710938 C 12.273438 8.714844 12.261719 8.71875 12.25 8.71875 C 12.242188 8.71875 12.230469 8.71875 12.21875 8.714844 C 12.207031 8.710938 12.199219 8.703125 12.1875 8.695312 C 12.175781 8.699219 12.164062 8.699219 12.15625 8.703125 C 12.144531 8.703125 12.132812 8.703125 12.125 8.703125 C 12.113281 8.699219 12.101562 8.695312 12.089844 8.691406 C 12.078125 8.6875 12.070312 8.679688 12.058594 8.671875 C 12.019531 8.699219 11.972656 8.71875 11.949219 8.761719 C 11.933594 8.78125 11.929688 8.804688 11.925781 8.828125 C 11.925781 8.855469 11.933594 8.882812 11.945312 8.910156 C 11.949219 8.917969 11.953125 8.882812 11.964844 8.878906 C 11.988281 8.859375 12.019531 8.84375 12.046875 8.835938 C 12.070312 8.824219 12.066406 8.839844 12.058594 8.859375 C 12.054688 8.867188 12.042969 8.90625 12.058594 8.886719 C 12.140625 8.851562 12.230469 8.84375 12.320312 8.835938 C 12.445312 8.824219 12.574219 8.820312 12.703125 8.820312 C 12.820312 8.820312 12.941406 8.820312 13.0625 8.828125 C 13.117188 8.828125 13.175781 8.839844 13.230469 8.832031 C 13.246094 8.828125 13.265625 8.828125 13.273438 8.820312 C 13.25 8.804688 13.21875 8.804688 13.191406 8.800781 L 12.960938 8.800781 C 12.898438 8.792969 12.832031 8.792969 12.773438 8.769531 C 12.757812 8.761719 12.742188 8.746094 12.726562 8.761719 C 12.703125 8.773438 12.679688 8.777344 12.65625 8.777344 C 12.613281 8.78125 12.570312 8.773438 12.53125 8.757812 C 12.558594 8.71875 12.59375 8.683594 12.625 8.648438 C 12.601562 8.644531 12.574219 8.640625 12.550781 8.632812 C 12.59375 8.605469 12.636719 8.570312 12.675781 8.539062 Z M 12.675781 8.539062 "/>
<path style=" stroke:none;fill-rule:nonzero;fill:rgb(99.607843%,77.254902%,4.705882%);fill-opacity:1;" d="M 14.546875 8.953125 C 14.460938 9.003906 14.394531 8.910156 14.320312 8.882812 C 14.269531 8.914062 14.265625 9.007812 14.214844 9.050781 C 14.15625 9.117188 14.085938 9.03125 14.089844 8.96875 C 14.023438 9.027344 13.988281 9.160156 13.875 9.140625 C 13.820312 9.097656 13.78125 9.007812 13.742188 9.109375 C 13.707031 9.160156 13.621094 9.234375 13.574219 9.15625 C 13.558594 9.089844 13.527344 9.007812 13.488281 9.117188 C 13.464844 9.191406 13.382812 9.25 13.304688 9.214844 C 13.261719 9.179688 13.339844 9.050781 13.285156 9.058594 C 13.203125 9.113281 13.15625 9.246094 13.042969 9.238281 C 12.996094 9.1875 13.070312 9.101562 13.019531 9.046875 C 12.964844 9.121094 12.898438 9.230469 12.800781 9.238281 C 12.753906 9.199219 12.800781 9.085938 12.773438 9.070312 C 12.671875 9.132812 12.5625 9.238281 12.433594 9.207031 C 12.484375 9.015625 12.691406 8.949219 12.867188 8.933594 C 13.167969 8.898438 13.484375 8.964844 13.777344 8.855469 C 13.824219 8.828125 13.9375 8.789062 13.894531 8.722656 C 13.859375 8.667969 13.988281 8.691406 14 8.628906 C 13.992188 8.550781 14.058594 8.5625 14.125 8.554688 C 14.417969 8.542969 14.707031 8.605469 15 8.613281 C 15.019531 8.757812 14.863281 8.855469 14.734375 8.8125 C 14.675781 8.824219 14.585938 8.671875 14.601562 8.78125 C 14.589844 8.839844 14.597656 8.914062 14.546875 8.953125 M 12.058594 8.660156 C 12.125 8.722656 12.171875 8.648438 12.234375 8.621094 C 12.449219 8.550781 12.632812 8.421875 12.816406 8.292969 C 12.925781 8.203125 13.023438 8.085938 13.171875 8.054688 C 13.460938 7.96875 13.769531 7.976562 14.058594 7.898438 C 14.28125 7.59375 14.660156 7.484375 14.972656 7.3125 C 15.042969 7.289062 15.070312 7.230469 15.09375 7.167969 C 15.214844 6.976562 15.378906 6.808594 15.574219 6.691406 C 15.664062 6.644531 15.773438 6.613281 15.878906 6.636719 C 15.871094 6.761719 15.800781 6.871094 15.714844 6.957031 C 15.785156 6.953125 15.84375 6.910156 15.914062 6.914062 C 15.9375 7.039062 15.800781 7.105469 15.730469 7.183594 C 15.769531 7.195312 15.925781 7.207031 15.839844 7.246094 C 15.730469 7.320312 15.609375 7.371094 15.507812 7.460938 C 15.601562 7.476562 15.613281 7.496094 15.519531 7.53125 C 15.46875 7.5625 15.371094 7.574219 15.359375 7.644531 C 15.429688 7.683594 15.328125 7.726562 15.289062 7.742188 C 15.214844 7.757812 15.136719 7.792969 15.234375 7.847656 C 15.199219 7.90625 15.117188 7.917969 15.050781 7.910156 C 15.070312 7.976562 15.101562 8.046875 15.015625 8.078125 C 14.828125 8.21875 14.609375 8.320312 14.371094 8.34375 C 14.667969 8.367188 14.96875 8.3125 15.222656 8.152344 C 15.253906 8.113281 15.429688 8.070312 15.332031 8.039062 C 15.285156 8.019531 15.1875 8 15.179688 7.964844 C 15.316406 7.878906 15.488281 7.910156 15.636719 7.859375 C 15.640625 7.8125 15.523438 7.824219 15.480469 7.8125 C 15.378906 7.804688 15.386719 7.78125 15.484375 7.769531 C 15.609375 7.738281 15.75 7.730469 15.855469 7.648438 C 15.769531 7.609375 15.664062 7.644531 15.570312 7.613281 C 15.726562 7.542969 15.910156 7.539062 16.046875 7.433594 C 16.109375 7.363281 15.964844 7.386719 15.925781 7.386719 C 15.839844 7.402344 15.800781 7.363281 15.894531 7.328125 C 16.0625 7.203125 16.273438 7.125 16.390625 6.945312 C 16.417969 6.90625 16.457031 6.785156 16.367188 6.828125 C 16.25 6.867188 16.148438 7 16.015625 6.957031 C 16.277344 6.757812 16.527344 6.527344 16.703125 6.246094 C 16.714844 6.164062 16.585938 6.15625 16.554688 6.21875 C 16.386719 6.382812 16.234375 6.574219 16.019531 6.675781 C 16.226562 6.476562 16.394531 6.242188 16.542969 5.996094 C 16.574219 5.925781 16.660156 5.839844 16.613281 5.757812 C 16.539062 5.695312 16.445312 5.753906 16.40625 5.828125 C 16.277344 5.996094 16.179688 6.195312 16.011719 6.332031 C 16.15625 6.054688 16.308594 5.753906 16.3125 5.433594 C 16.3125 5.367188 16.300781 5.269531 16.207031 5.28125 C 16.136719 5.292969 16.152344 5.402344 16.125 5.453125 C 16.058594 5.675781 16.027344 5.914062 15.894531 6.105469 C 15.925781 5.929688 15.976562 5.742188 15.9375 5.558594 C 15.917969 5.480469 15.789062 5.515625 15.804688 5.59375 C 15.648438 6.382812 15.121094 7.074219 14.425781 7.476562 C 14.109375 7.65625 13.753906 7.769531 13.390625 7.824219 C 13.296875 7.84375 13.191406 7.832031 13.097656 7.867188 C 12.871094 8.039062 12.738281 8.328125 12.453125 8.417969 C 12.324219 8.480469 12.15625 8.492188 12.066406 8.613281 C 12.058594 8.625 12.058594 8.644531 12.058594 8.660156 "/>
<path style=" stroke:none;fill-rule:nonzero;fill:rgb(99.607843%,77.254902%,4.705882%);fill-opacity:1;" d="M 12.910156 7.859375 C 12.867188 7.9375 12.84375 8.023438 12.789062 8.089844 C 12.625 7.945312 12.390625 7.949219 12.183594 7.9375 C 12.015625 7.929688 11.828125 7.914062 11.699219 7.792969 C 11.558594 7.679688 11.445312 7.53125 11.292969 7.441406 C 11.152344 7.402344 11.007812 7.351562 10.894531 7.257812 C 10.652344 7.058594 10.511719 6.765625 10.277344 6.5625 C 10.230469 6.515625 10.175781 6.484375 10.125 6.445312 C 10.078125 6.457031 10.101562 6.558594 10.042969 6.507812 C 10.007812 6.484375 9.929688 6.480469 9.921875 6.515625 C 9.996094 6.609375 10.066406 6.71875 10.078125 6.839844 C 10.027344 6.847656 9.941406 6.832031 9.914062 6.847656 C 9.980469 6.949219 10.066406 7.035156 10.160156 7.105469 C 10.113281 7.113281 10.023438 7.109375 10.007812 7.125 C 10.101562 7.203125 10.203125 7.28125 10.328125 7.300781 C 10.351562 7.335938 10.289062 7.402344 10.34375 7.429688 C 10.375 7.441406 10.476562 7.460938 10.40625 7.496094 C 10.359375 7.53125 10.375 7.605469 10.4375 7.601562 C 10.476562 7.621094 10.5625 7.628906 10.566406 7.660156 C 10.535156 7.695312 10.425781 7.738281 10.519531 7.769531 C 10.601562 7.816406 10.699219 7.847656 10.796875 7.851562 C 10.746094 7.890625 10.6875 7.914062 10.636719 7.953125 C 10.859375 8.082031 11.105469 8.167969 11.351562 8.25 C 11.449219 8.285156 11.546875 8.3125 11.648438 8.332031 C 11.355469 8.316406 11.070312 8.230469 10.804688 8.109375 C 10.667969 8.050781 10.527344 7.992188 10.386719 7.941406 C 10.449219 7.90625 10.519531 7.898438 10.585938 7.871094 C 10.453125 7.84375 10.304688 7.835938 10.1875 7.761719 C 10.207031 7.730469 10.273438 7.730469 10.3125 7.714844 C 10.382812 7.695312 10.425781 7.675781 10.328125 7.667969 C 10.226562 7.640625 10.109375 7.652344 10.019531 7.59375 C 10.027344 7.558594 10.121094 7.570312 10.15625 7.554688 C 10.207031 7.546875 10.257812 7.539062 10.296875 7.507812 C 10.140625 7.441406 9.9375 7.488281 9.816406 7.351562 C 9.785156 7.296875 9.902344 7.339844 9.933594 7.332031 C 10.019531 7.332031 10.109375 7.359375 10.1875 7.324219 C 9.960938 7.222656 9.71875 7.128906 9.542969 6.945312 C 9.527344 6.917969 9.46875 6.835938 9.515625 6.824219 C 9.648438 6.84375 9.746094 6.992188 9.890625 6.96875 C 9.910156 6.941406 9.808594 6.898438 9.78125 6.863281 C 9.570312 6.683594 9.367188 6.484375 9.21875 6.25 C 9.210938 6.171875 9.332031 6.160156 9.367188 6.21875 C 9.527344 6.375 9.671875 6.554688 9.871094 6.660156 C 9.945312 6.695312 9.832031 6.621094 9.816406 6.59375 C 9.632812 6.378906 9.457031 6.152344 9.328125 5.898438 C 9.304688 5.851562 9.265625 5.769531 9.335938 5.746094 C 9.402344 5.710938 9.472656 5.757812 9.507812 5.816406 C 9.644531 5.988281 9.742188 6.195312 9.914062 6.335938 C 9.769531 6.054688 9.613281 5.761719 9.609375 5.4375 C 9.613281 5.375 9.617188 5.28125 9.703125 5.285156 C 9.773438 5.273438 9.761719 5.363281 9.785156 5.40625 C 9.855469 5.644531 9.886719 5.902344 10.027344 6.109375 C 9.996094 5.933594 9.949219 5.753906 9.980469 5.574219 C 9.988281 5.515625 10.054688 5.5 10.097656 5.535156 C 10.132812 5.621094 10.140625 5.726562 10.171875 5.816406 C 10.351562 6.433594 10.757812 6.976562 11.285156 7.34375 C 11.722656 7.640625 12.238281 7.820312 12.765625 7.851562 C 12.8125 7.855469 12.863281 7.855469 12.910156 7.859375 "/>
<path style=" stroke:none;fill-rule:nonzero;fill:rgb(99.607843%,77.254902%,4.705882%);fill-opacity:1;" d="M 12.269531 8.652344 C 12.269531 8.667969 12.253906 8.679688 12.238281 8.679688 C 12.222656 8.679688 12.210938 8.667969 12.210938 8.652344 C 12.210938 8.636719 12.222656 8.621094 12.238281 8.621094 C 12.253906 8.621094 12.269531 8.636719 12.269531 8.652344 Z M 12.269531 8.652344 "/>
<path style="fill-rule:nonzero;fill:rgb(99.607843%,77.254902%,4.705882%);fill-opacity:1;stroke-width:0.381274;stroke-linecap:butt;stroke-linejoin:miter;stroke:rgb(0%,68.627451%,79.215686%);stroke-opacity:1;stroke-miterlimit:4;" d="M 1020.833333 720.377604 C 1020.833333 721.028646 1020.182292 721.354167 1019.856771 721.354167 C 1019.205729 721.354167 1018.880208 721.028646 1018.880208 720.377604 C 1018.880208 720.052083 1019.205729 719.401042 1019.856771 719.401042 C 1020.182292 719.401042 1020.833333 720.052083 1020.833333 720.377604 Z M 1020.833333 720.377604 " transform="matrix(0.012,0,0,0.012,0,0)"/>
<path style=" stroke:none;fill-rule:nonzero;fill:rgb(99.607843%,77.254902%,4.705882%);fill-opacity:1;" d="M 1.441406 0.875 C 1.441406 0.875 1.324219 0.777344 1.285156 0.828125 C 1.222656 0.90625 1.480469 1.292969 1.480469 1.429688 C 1.480469 1.65625 1.328125 1.71875 1.144531 1.75 C 1.019531 1.773438 0.816406 1.742188 0.816406 1.742188 C 0.855469 1.691406 0.878906 1.675781 0.945312 1.671875 C 0.871094 1.632812 0.800781 1.550781 0.800781 1.425781 C 0.800781 1.234375 0.878906 1.152344 0.878906 0.933594 C 0.878906 0.8125 0.78125 0.660156 0.78125 0.660156 C 0.957031 0.675781 1.042969 0.839844 0.992188 0.96875 C 1.019531 0.972656 1.046875 0.96875 1.066406 0.945312 C 1.082031 0.984375 1.058594 1.023438 1.03125 1.0625 C 1.054688 1.074219 1.070312 1.066406 1.105469 1.058594 C 1.101562 1.09375 1.082031 1.136719 1.027344 1.171875 C 1.183594 1.132812 1.28125 1.242188 1.28125 1.355469 C 1.28125 1.441406 1.21875 1.503906 1.160156 1.503906 C 1.140625 1.503906 1.113281 1.496094 1.097656 1.484375 C 1.085938 1.507812 1.089844 1.542969 1.101562 1.566406 C 1.058594 1.554688 1.03125 1.527344 1.050781 1.472656 C 1.019531 1.472656 0.992188 1.460938 0.972656 1.4375 C 0.992188 1.414062 1.019531 1.402344 1.050781 1.402344 C 1.027344 1.351562 1.054688 1.324219 1.09375 1.300781 C 1.09375 1.300781 1.070312 1.402344 1.132812 1.402344 C 1.160156 1.402344 1.1875 1.394531 1.1875 1.351562 C 1.1875 1.3125 1.15625 1.261719 1.082031 1.265625 C 1.003906 1.269531 0.945312 1.316406 0.945312 1.4375 C 0.945312 1.546875 1.035156 1.601562 1.152344 1.605469 C 1.257812 1.609375 1.335938 1.550781 1.335938 1.441406 C 1.335938 1.296875 1.128906 0.964844 1.128906 0.835938 C 1.128906 0.738281 1.214844 0.683594 1.300781 0.683594 C 1.410156 0.683594 1.503906 0.792969 1.503906 0.792969 Z M 1.441406 0.875 "/>
<path style=" stroke:none;fill-rule:nonzero;fill:rgb(99.607843%,77.254902%,4.705882%);fill-opacity:1;" d="M 1.464844 3.503906 C 1.464844 3.75 1.246094 3.875 1.074219 3.875 C 0.84375 3.875 0.71875 3.734375 0.71875 3.554688 C 0.71875 3.453125 0.738281 3.386719 0.785156 3.289062 C 0.785156 3.289062 1.167969 2.496094 1.316406 2.191406 C 1.335938 2.152344 1.339844 2.109375 1.339844 2.042969 C 1.339844 1.945312 1.246094 1.863281 1.144531 1.863281 C 1.054688 1.859375 0.953125 1.949219 0.953125 2.046875 C 0.953125 2.167969 1.015625 2.222656 1.082031 2.222656 C 1.160156 2.222656 1.191406 2.191406 1.191406 2.132812 C 1.191406 2.09375 1.171875 2.078125 1.144531 2.078125 C 1.078125 2.078125 1.097656 2.171875 1.097656 2.171875 C 1.0625 2.164062 1.035156 2.128906 1.050781 2.085938 C 1.027344 2.078125 1.003906 2.066406 0.984375 2.046875 C 1.003906 2.027344 1.023438 2.015625 1.050781 2.011719 C 1.035156 1.957031 1.058594 1.929688 1.101562 1.921875 C 1.09375 1.941406 1.09375 1.960938 1.097656 1.976562 C 1.167969 1.957031 1.28125 1.988281 1.28125 2.113281 C 1.28125 2.238281 1.195312 2.34375 1.03125 2.316406 C 1.070312 2.335938 1.089844 2.375 1.09375 2.414062 C 1.066406 2.402344 1.03125 2.402344 1.03125 2.402344 C 1.050781 2.4375 1.078125 2.464844 1.074219 2.53125 C 1.046875 2.515625 1.019531 2.492188 0.980469 2.507812 C 1.039062 2.625 0.964844 2.789062 0.777344 2.828125 C 0.847656 2.746094 0.878906 2.660156 0.878906 2.574219 C 0.878906 2.289062 0.800781 2.242188 0.800781 2.046875 C 0.800781 1.964844 0.84375 1.875 0.925781 1.816406 L 0.925781 1.820312 C 0.871094 1.804688 0.835938 1.777344 0.816406 1.742188 C 0.941406 1.707031 1.125 1.707031 1.222656 1.746094 C 1.335938 1.757812 1.417969 1.84375 1.441406 1.886719 C 1.464844 1.933594 1.507812 2.09375 1.441406 2.234375 C 1.363281 2.394531 1.011719 3.140625 0.902344 3.378906 C 0.878906 3.429688 0.863281 3.480469 0.863281 3.539062 C 0.863281 3.683594 0.996094 3.734375 1.070312 3.734375 C 1.160156 3.734375 1.253906 3.664062 1.253906 3.578125 C 1.253906 3.523438 1.222656 3.492188 1.179688 3.492188 C 1.078125 3.492188 1.085938 3.578125 1.105469 3.632812 C 1.042969 3.605469 1.003906 3.554688 1.015625 3.5 C 0.980469 3.496094 0.945312 3.480469 0.914062 3.445312 C 0.9375 3.414062 0.96875 3.386719 1.015625 3.386719 C 0.996094 3.304688 1.050781 3.269531 1.105469 3.25 C 1.089844 3.3125 1.078125 3.382812 1.179688 3.382812 C 1.257812 3.382812 1.316406 3.394531 1.351562 3.445312 C 1.351562 3.378906 1.359375 3.121094 1.359375 3.121094 C 1.363281 3.023438 1.226562 3.023438 1.144531 3.054688 C 1.175781 2.941406 1.242188 2.882812 1.394531 2.898438 C 1.355469 2.882812 1.316406 2.847656 1.316406 2.777344 C 1.316406 2.6875 1.390625 2.585938 1.441406 2.558594 Z M 1.464844 3.503906 "/>
<path style=" stroke:none;fill-rule:nonzero;fill:rgb(99.607843%,77.254902%,4.705882%);fill-opacity:1;" d="M 1.464844 4.234375 C 1.464844 3.992188 1.246094 3.867188 1.074219 3.867188 C 0.84375 3.867188 0.71875 4.003906 0.71875 4.1875 C 0.71875 4.289062 0.738281 4.351562 0.785156 4.453125 C 0.785156 4.453125 1.167969 5.246094 1.316406 5.550781 C 1.335938 5.589844 1.339844 5.632812 1.339844 5.695312 C 1.339844 5.796875 1.246094 5.875 1.144531 5.878906 C 1.054688 5.878906 0.953125 5.792969 0.953125 5.695312 C 0.953125 5.574219 1.015625 5.519531 1.082031 5.519531 C 1.160156 5.519531 1.191406 5.550781 1.191406 5.605469 C 1.191406 5.644531 1.171875 5.664062 1.144531 5.664062 C 1.078125 5.664062 1.097656 5.570312 1.097656 5.570312 C 1.0625 5.578125 1.035156 5.613281 1.050781 5.65625 C 1.027344 5.660156 1.003906 5.675781 0.984375 5.695312 C 1.003906 5.710938 1.023438 5.726562 1.050781 5.730469 C 1.035156 5.785156 1.058594 5.808594 1.101562 5.820312 C 1.09375 5.800781 1.09375 5.78125 1.097656 5.765625 C 1.167969 5.785156 1.28125 5.75 1.28125 5.625 C 1.28125 5.503906 1.195312 5.398438 1.03125 5.421875 C 1.070312 5.40625 1.089844 5.367188 1.09375 5.324219 C 1.066406 5.335938 1.03125 5.339844 1.03125 5.339844 C 1.050781 5.304688 1.078125 5.277344 1.074219 5.210938 C 1.046875 5.222656 1.019531 5.25 0.980469 5.234375 C 1.039062 5.113281 0.964844 4.953125 0.777344 4.914062 C 0.847656 4.992188 0.878906 5.082031 0.878906 5.167969 C 0.878906 5.449219 0.800781 5.496094 0.800781 5.695312 C 0.800781 5.777344 0.84375 5.863281 0.925781 5.925781 L 0.925781 5.921875 C 0.871094 5.9375 0.835938 5.964844 0.816406 6 C 0.941406 6.035156 1.125 6.035156 1.222656 5.996094 C 1.335938 5.984375 1.417969 5.894531 1.441406 5.851562 C 1.464844 5.808594 1.507812 5.648438 1.441406 5.503906 C 1.363281 5.347656 1.011719 4.597656 0.902344 4.363281 C 0.878906 4.3125 0.863281 4.261719 0.863281 4.203125 C 0.863281 4.058594 0.996094 4.007812 1.070312 4.007812 C 1.160156 4.007812 1.253906 4.078125 1.253906 4.160156 C 1.253906 4.214844 1.222656 4.25 1.179688 4.25 C 1.078125 4.25 1.085938 4.160156 1.105469 4.109375 C 1.042969 4.136719 1.003906 4.1875 1.015625 4.238281 C 0.980469 4.246094 0.945312 4.261719 0.914062 4.296875 C 0.9375 4.328125 0.96875 4.351562 1.015625 4.351562 C 0.996094 4.4375 1.050781 4.472656 1.105469 4.492188 C 1.089844 4.429688 1.078125 4.359375 1.179688 4.359375 C 1.257812 4.359375 1.316406 4.347656 1.351562 4.296875 C 1.351562 4.363281 1.359375 4.621094 1.359375 4.621094 C 1.363281 4.71875 1.226562 4.714844 1.144531 4.6875 C 1.175781 4.800781 1.242188 4.859375 1.394531 4.84375 C 1.355469 4.859375 1.316406 4.894531 1.316406 4.960938 C 1.316406 5.054688 1.390625 5.152344 1.441406 5.183594 Z M 1.464844 4.234375 "/>
<path style=" stroke:none;fill-rule:nonzero;fill:rgb(99.607843%,77.254902%,4.705882%);fill-opacity:1;" d="M 1.441406 0.875 C 1.441406 0.875 1.554688 0.777344 1.59375 0.828125 C 1.65625 0.90625 1.402344 1.292969 1.402344 1.429688 C 1.402344 1.65625 1.550781 1.71875 1.738281 1.75 C 1.859375 1.773438 2.0625 1.742188 2.0625 1.742188 C 2.027344 1.691406 2 1.675781 1.9375 1.671875 C 2.007812 1.632812 2.082031 1.550781 2.082031 1.425781 C 2.082031 1.234375 2 1.152344 2 0.933594 C 2 0.8125 2.101562 0.660156 2.101562 0.660156 C 1.925781 0.675781 1.835938 0.839844 1.886719 0.96875 C 1.859375 0.972656 1.835938 0.96875 1.8125 0.945312 C 1.800781 0.984375 1.820312 1.023438 1.847656 1.0625 C 1.824219 1.074219 1.808594 1.066406 1.773438 1.058594 C 1.777344 1.09375 1.800781 1.136719 1.855469 1.171875 C 1.695312 1.132812 1.597656 1.242188 1.597656 1.355469 C 1.597656 1.441406 1.660156 1.503906 1.71875 1.503906 C 1.738281 1.503906 1.765625 1.496094 1.78125 1.484375 C 1.792969 1.507812 1.789062 1.542969 1.777344 1.566406 C 1.820312 1.554688 1.847656 1.527344 1.828125 1.472656 C 1.863281 1.472656 1.890625 1.460938 1.90625 1.4375 C 1.886719 1.414062 1.859375 1.402344 1.828125 1.402344 C 1.851562 1.351562 1.824219 1.324219 1.785156 1.300781 C 1.785156 1.300781 1.8125 1.402344 1.746094 1.402344 C 1.71875 1.402344 1.691406 1.394531 1.691406 1.351562 C 1.691406 1.3125 1.722656 1.261719 1.800781 1.265625 C 1.875 1.269531 1.933594 1.316406 1.933594 1.4375 C 1.933594 1.546875 1.847656 1.601562 1.726562 1.605469 C 1.621094 1.609375 1.542969 1.550781 1.542969 1.441406 C 1.542969 1.296875 1.753906 0.964844 1.753906 0.835938 C 1.753906 0.738281 1.664062 0.683594 1.578125 0.683594 C 1.46875 0.683594 1.375 0.792969 1.375 0.792969 Z M 1.441406 0.875 "/>
<path style=" stroke:none;fill-rule:nonzero;fill:rgb(99.607843%,77.254902%,4.705882%);fill-opacity:1;" d="M 1.414062 3.503906 C 1.414062 3.75 1.632812 3.875 1.804688 3.875 C 2.035156 3.875 2.160156 3.734375 2.160156 3.554688 C 2.160156 3.453125 2.140625 3.386719 2.09375 3.289062 C 2.09375 3.289062 1.710938 2.496094 1.5625 2.191406 C 1.546875 2.152344 1.539062 2.109375 1.539062 2.042969 C 1.539062 1.945312 1.636719 1.863281 1.734375 1.863281 C 1.828125 1.859375 1.925781 1.949219 1.925781 2.046875 C 1.925781 2.167969 1.863281 2.222656 1.800781 2.222656 C 1.71875 2.222656 1.6875 2.191406 1.6875 2.132812 C 1.6875 2.09375 1.707031 2.078125 1.734375 2.078125 C 1.800781 2.078125 1.78125 2.171875 1.78125 2.171875 C 1.816406 2.164062 1.84375 2.128906 1.828125 2.085938 C 1.851562 2.078125 1.875 2.066406 1.894531 2.046875 C 1.875 2.027344 1.855469 2.015625 1.828125 2.011719 C 1.84375 1.957031 1.824219 1.929688 1.777344 1.921875 C 1.785156 1.941406 1.785156 1.960938 1.785156 1.976562 C 1.710938 1.957031 1.601562 1.988281 1.601562 2.113281 C 1.601562 2.238281 1.6875 2.34375 1.847656 2.316406 C 1.808594 2.335938 1.789062 2.375 1.785156 2.414062 C 1.816406 2.402344 1.847656 2.402344 1.847656 2.402344 C 1.828125 2.4375 1.804688 2.464844 1.804688 2.53125 C 1.835938 2.515625 1.863281 2.492188 1.902344 2.507812 C 1.839844 2.625 1.914062 2.789062 2.101562 2.828125 C 2.035156 2.746094 2 2.660156 2 2.574219 C 2 2.289062 2.078125 2.242188 2.078125 2.046875 C 2.078125 1.964844 2.035156 1.875 1.953125 1.816406 L 1.953125 1.820312 C 2.007812 1.804688 2.042969 1.777344 2.0625 1.742188 C 1.9375 1.707031 1.753906 1.707031 1.65625 1.746094 C 1.542969 1.757812 1.464844 1.84375 1.441406 1.886719 C 1.417969 1.933594 1.371094 2.09375 1.441406 2.234375 C 1.515625 2.394531 1.867188 3.140625 1.980469 3.378906 C 2.003906 3.429688 2.015625 3.480469 2.015625 3.539062 C 2.015625 3.683594 1.882812 3.734375 1.808594 3.734375 C 1.71875 3.734375 1.628906 3.664062 1.628906 3.578125 C 1.628906 3.523438 1.65625 3.492188 1.699219 3.492188 C 1.800781 3.492188 1.796875 3.578125 1.773438 3.632812 C 1.839844 3.605469 1.875 3.554688 1.863281 3.5 C 1.898438 3.496094 1.933594 3.480469 1.964844 3.445312 C 1.941406 3.414062 1.910156 3.386719 1.863281 3.386719 C 1.886719 3.304688 1.828125 3.269531 1.773438 3.25 C 1.792969 3.3125 1.804688 3.382812 1.699219 3.382812 C 1.625 3.382812 1.566406 3.394531 1.53125 3.445312 C 1.527344 3.378906 1.523438 3.121094 1.523438 3.121094 C 1.515625 3.023438 1.652344 3.023438 1.738281 3.054688 C 1.703125 2.941406 1.640625 2.882812 1.484375 2.898438 C 1.523438 2.882812 1.5625 2.847656 1.5625 2.777344 C 1.5625 2.6875 1.488281 2.585938 1.441406 2.558594 Z M 1.414062 3.503906 "/>
<path style=" stroke:none;fill-rule:nonzero;fill:rgb(99.607843%,77.254902%,4.705882%);fill-opacity:1;" d="M 1.414062 4.234375 C 1.414062 3.992188 1.632812 3.867188 1.804688 3.867188 C 2.035156 3.867188 2.160156 4.003906 2.160156 4.1875 C 2.160156 4.289062 2.140625 4.351562 2.09375 4.453125 C 2.09375 4.453125 1.710938 5.246094 1.5625 5.550781 C 1.546875 5.589844 1.539062 5.632812 1.539062 5.695312 C 1.539062 5.796875 1.636719 5.875 1.734375 5.878906 C 1.828125 5.878906 1.925781 5.792969 1.925781 5.695312 C 1.925781 5.574219 1.863281 5.519531 1.800781 5.519531 C 1.71875 5.519531 1.6875 5.550781 1.6875 5.605469 C 1.6875 5.644531 1.707031 5.664062 1.734375 5.664062 C 1.800781 5.664062 1.78125 5.570312 1.78125 5.570312 C 1.816406 5.578125 1.84375 5.613281 1.828125 5.65625 C 1.851562 5.660156 1.875 5.675781 1.894531 5.695312 C 1.875 5.710938 1.855469 5.726562 1.828125 5.730469 C 1.84375 5.785156 1.824219 5.808594 1.777344 5.820312 C 1.785156 5.800781 1.785156 5.78125 1.785156 5.765625 C 1.710938 5.785156 1.601562 5.75 1.601562 5.625 C 1.601562 5.503906 1.6875 5.398438 1.847656 5.421875 C 1.808594 5.40625 1.789062 5.367188 1.785156 5.324219 C 1.816406 5.335938 1.847656 5.339844 1.847656 5.339844 C 1.828125 5.304688 1.804688 5.277344 1.804688 5.210938 C 1.835938 5.222656 1.863281 5.25 1.902344 5.234375 C 1.839844 5.113281 1.914062 4.953125 2.101562 4.914062 C 2.035156 4.992188 2 5.082031 2 5.167969 C 2 5.449219 2.078125 5.496094 2.078125 5.695312 C 2.078125 5.777344 2.035156 5.863281 1.953125 5.925781 L 1.953125 5.921875 C 2.007812 5.9375 2.042969 5.964844 2.0625 6 C 1.9375 6.035156 1.753906 6.035156 1.65625 5.996094 C 1.542969 5.984375 1.464844 5.894531 1.441406 5.851562 C 1.417969 5.808594 1.371094 5.648438 1.441406 5.503906 C 1.515625 5.347656 1.867188 4.597656 1.980469 4.363281 C 2.003906 4.3125 2.015625 4.261719 2.015625 4.203125 C 2.015625 4.058594 1.882812 4.007812 1.808594 4.007812 C 1.71875 4.007812 1.628906 4.078125 1.628906 4.160156 C 1.628906 4.214844 1.65625 4.25 1.699219 4.25 C 1.800781 4.25 1.796875 4.160156 1.773438 4.109375 C 1.839844 4.136719 1.875 4.1875 1.863281 4.238281 C 1.898438 4.246094 1.933594 4.261719 1.964844 4.296875 C 1.941406 4.328125 1.910156 4.351562 1.863281 4.351562 C 1.886719 4.4375 1.828125 4.472656 1.773438 4.492188 C 1.792969 4.429688 1.804688 4.359375 1.699219 4.359375 C 1.625 4.359375 1.566406 4.347656 1.53125 4.296875 C 1.527344 4.363281 1.523438 4.621094 1.523438 4.621094 C 1.515625 4.71875 1.652344 4.714844 1.738281 4.6875 C 1.703125 4.800781 1.640625 4.859375 1.484375 4.84375 C 1.523438 4.859375 1.5625 4.894531 1.5625 4.960938 C 1.5625 5.054688 1.488281 5.152344 1.441406 5.183594 Z M 1.414062 4.234375 "/>
<path style=" stroke:none;fill-rule:nonzero;fill:rgb(99.607843%,77.254902%,4.705882%);fill-opacity:1;" d="M 1.441406 11.125 C 1.441406 11.125 1.324219 11.222656 1.285156 11.171875 C 1.222656 11.09375 1.480469 10.707031 1.480469 10.570312 C 1.480469 10.34375 1.328125 10.28125 1.144531 10.25 C 1.019531 10.226562 0.816406 10.257812 0.816406 10.257812 C 0.855469 10.308594 0.878906 10.324219 0.945312 10.328125 C 0.871094 10.367188 0.800781 10.449219 0.800781 10.574219 C 0.800781 10.765625 0.878906 10.847656 0.878906 11.066406 C 0.878906 11.1875 0.78125 11.339844 0.78125 11.339844 C 0.957031 11.324219 1.042969 11.160156 0.992188 11.03125 C 1.019531 11.027344 1.046875 11.03125 1.066406 11.054688 C 1.082031 11.015625 1.058594 10.976562 1.03125 10.9375 C 1.054688 10.925781 1.070312 10.933594 1.105469 10.941406 C 1.101562 10.90625 1.082031 10.863281 1.027344 10.828125 C 1.183594 10.867188 1.28125 10.757812 1.28125 10.644531 C 1.28125 10.558594 1.21875 10.496094 1.160156 10.496094 C 1.140625 10.496094 1.113281 10.503906 1.097656 10.515625 C 1.085938 10.492188 1.089844 10.457031 1.101562 10.433594 C 1.058594 10.445312 1.03125 10.472656 1.050781 10.527344 C 1.019531 10.527344 0.992188 10.539062 0.972656 10.5625 C 0.992188 10.585938 1.019531 10.597656 1.050781 10.597656 C 1.027344 10.648438 1.054688 10.675781 1.09375 10.699219 C 1.09375 10.699219 1.070312 10.597656 1.132812 10.597656 C 1.160156 10.597656 1.1875 10.605469 1.1875 10.648438 C 1.1875 10.6875 1.15625 10.738281 1.082031 10.734375 C 1.003906 10.730469 0.945312 10.683594 0.945312 10.5625 C 0.945312 10.453125 1.035156 10.398438 1.152344 10.394531 C 1.257812 10.390625 1.335938 10.449219 1.335938 10.558594 C 1.335938 10.703125 1.128906 11.035156 1.128906 11.164062 C 1.128906 11.261719 1.214844 11.316406 1.300781 11.316406 C 1.410156 11.316406 1.503906 11.207031 1.503906 11.207031 Z M 1.441406 11.125 "/>
<path style=" stroke:none;fill-rule:nonzero;fill:rgb(99.607843%,77.254902%,4.705882%);fill-opacity:1;" d="M 1.464844 8.496094 C 1.464844 8.25 1.246094 8.125 1.074219 8.125 C 0.84375 8.125 0.71875 8.265625 0.71875 8.445312 C 0.71875 8.546875 0.738281 8.613281 0.785156 8.710938 C 0.785156 8.710938 1.167969 9.503906 1.316406 9.808594 C 1.335938 9.847656 1.339844 9.890625 1.339844 9.957031 C 1.339844 10.054688 1.246094 10.136719 1.144531 10.136719 C 1.054688 10.140625 0.953125 10.050781 0.953125 9.953125 C 0.953125 9.832031 1.015625 9.777344 1.082031 9.777344 C 1.160156 9.777344 1.191406 9.808594 1.191406 9.867188 C 1.191406 9.90625 1.171875 9.921875 1.144531 9.921875 C 1.078125 9.921875 1.097656 9.828125 1.097656 9.828125 C 1.0625 9.835938 1.035156 9.871094 1.050781 9.914062 C 1.027344 9.921875 1.003906 9.933594 0.984375 9.953125 C 1.003906 9.972656 1.023438 9.984375 1.050781 9.988281 C 1.035156 10.042969 1.058594 10.070312 1.101562 10.078125 C 1.09375 10.058594 1.09375 10.039062 1.097656 10.023438 C 1.167969 10.042969 1.28125 10.011719 1.28125 9.886719 C 1.28125 9.761719 1.195312 9.65625 1.03125 9.683594 C 1.070312 9.664062 1.089844 9.625 1.09375 9.585938 C 1.066406 9.597656 1.03125 9.597656 1.03125 9.597656 C 1.050781 9.5625 1.078125 9.535156 1.074219 9.46875 C 1.046875 9.484375 1.019531 9.507812 0.980469 9.492188 C 1.039062 9.375 0.964844 9.210938 0.777344 9.171875 C 0.847656 9.253906 0.878906 9.339844 0.878906 9.425781 C 0.878906 9.710938 0.800781 9.757812 0.800781 9.953125 C 0.800781 10.035156 0.84375 10.125 0.925781 10.183594 L 0.925781 10.179688 C 0.871094 10.195312 0.835938 10.222656 0.816406 10.257812 C 0.941406 10.292969 1.125 10.292969 1.222656 10.253906 C 1.335938 10.242188 1.417969 10.15625 1.441406 10.113281 C 1.464844 10.066406 1.507812 9.90625 1.441406 9.765625 C 1.363281 9.605469 1.011719 8.859375 0.902344 8.621094 C 0.878906 8.570312 0.863281 8.519531 0.863281 8.460938 C 0.863281 8.316406 0.996094 8.265625 1.070312 8.265625 C 1.160156 8.265625 1.253906 8.335938 1.253906 8.421875 C 1.253906 8.476562 1.222656 8.507812 1.179688 8.507812 C 1.078125 8.507812 1.085938 8.421875 1.105469 8.367188 C 1.042969 8.394531 1.003906 8.445312 1.015625 8.5 C 0.980469 8.503906 0.945312 8.519531 0.914062 8.554688 C 0.9375 8.585938 0.96875 8.613281 1.015625 8.613281 C 0.996094 8.695312 1.050781 8.730469 1.105469 8.75 C 1.089844 8.6875 1.078125 8.617188 1.179688 8.617188 C 1.257812 8.617188 1.316406 8.605469 1.351562 8.554688 C 1.351562 8.621094 1.359375 8.878906 1.359375 8.878906 C 1.363281 8.976562 1.226562 8.976562 1.144531 8.945312 C 1.175781 9.058594 1.242188 9.117188 1.394531 9.101562 C 1.355469 9.117188 1.316406 9.152344 1.316406 9.222656 C 1.316406 9.3125 1.390625 9.414062 1.441406 9.441406 Z M 1.464844 8.496094 "/>
<path style=" stroke:none;fill-rule:nonzero;fill:rgb(99.607843%,77.254902%,4.705882%);fill-opacity:1;" d="M 1.464844 7.765625 C 1.464844 8.007812 1.246094 8.132812 1.074219 8.132812 C 0.84375 8.132812 0.71875 7.996094 0.71875 7.8125 C 0.71875 7.710938 0.738281 7.648438 0.785156 7.546875 C 0.785156 7.546875 1.167969 6.753906 1.316406 6.449219 C 1.335938 6.410156 1.339844 6.367188 1.339844 6.304688 C 1.339844 6.203125 1.246094 6.125 1.144531 6.121094 C 1.054688 6.121094 0.953125 6.207031 0.953125 6.304688 C 0.953125 6.425781 1.015625 6.480469 1.082031 6.480469 C 1.160156 6.480469 1.191406 6.449219 1.191406 6.394531 C 1.191406 6.355469 1.171875 6.335938 1.144531 6.335938 C 1.078125 6.335938 1.097656 6.429688 1.097656 6.429688 C 1.0625 6.421875 1.035156 6.386719 1.050781 6.34375 C 1.027344 6.339844 1.003906 6.324219 0.984375 6.304688 C 1.003906 6.289062 1.023438 6.273438 1.050781 6.269531 C 1.035156 6.214844 1.058594 6.191406 1.101562 6.179688 C 1.09375 6.199219 1.09375 6.21875 1.097656 6.234375 C 1.167969 6.214844 1.28125 6.25 1.28125 6.375 C 1.28125 6.496094 1.195312 6.601562 1.03125 6.578125 C 1.070312 6.59375 1.089844 6.632812 1.09375 6.675781 C 1.066406 6.664062 1.03125 6.660156 1.03125 6.660156 C 1.050781 6.695312 1.078125 6.722656 1.074219 6.789062 C 1.046875 6.777344 1.019531 6.75 0.980469 6.765625 C 1.039062 6.886719 0.964844 7.046875 0.777344 7.085938 C 0.847656 7.007812 0.878906 6.917969 0.878906 6.832031 C 0.878906 6.550781 0.800781 6.503906 0.800781 6.304688 C 0.800781 6.222656 0.84375 6.136719 0.925781 6.074219 L 0.925781 6.078125 C 0.871094 6.0625 0.835938 6.035156 0.816406 6 C 0.941406 5.964844 1.125 5.964844 1.222656 6.003906 C 1.335938 6.015625 1.417969 6.105469 1.441406 6.148438 C 1.464844 6.191406 1.507812 6.351562 1.441406 6.496094 C 1.363281 6.652344 1.011719 7.402344 0.902344 7.636719 C 0.878906 7.6875 0.863281 7.738281 0.863281 7.796875 C 0.863281 7.941406 0.996094 7.992188 1.070312 7.992188 C 1.160156 7.992188 1.253906 7.921875 1.253906 7.839844 C 1.253906 7.785156 1.222656 7.75 1.179688 7.75 C 1.078125 7.75 1.085938 7.839844 1.105469 7.890625 C 1.042969 7.863281 1.003906 7.8125 1.015625 7.761719 C 0.980469 7.753906 0.945312 7.738281 0.914062 7.703125 C 0.9375 7.671875 0.96875 7.648438 1.015625 7.648438 C 0.996094 7.5625 1.050781 7.527344 1.105469 7.507812 C 1.089844 7.570312 1.078125 7.640625 1.179688 7.640625 C 1.257812 7.640625 1.316406 7.652344 1.351562 7.703125 C 1.351562 7.636719 1.359375 7.378906 1.359375 7.378906 C 1.363281 7.28125 1.226562 7.285156 1.144531 7.3125 C 1.175781 7.199219 1.242188 7.140625 1.394531 7.15625 C 1.355469 7.140625 1.316406 7.105469 1.316406 7.039062 C 1.316406 6.945312 1.390625 6.847656 1.441406 6.816406 Z M 1.464844 7.765625 "/>
<path style=" stroke:none;fill-rule:nonzero;fill:rgb(99.607843%,77.254902%,4.705882%);fill-opacity:1;" d="M 1.441406 11.125 C 1.441406 11.125 1.554688 11.222656 1.59375 11.171875 C 1.65625 11.09375 1.402344 10.707031 1.402344 10.570312 C 1.402344 10.34375 1.550781 10.28125 1.738281 10.25 C 1.859375 10.226562 2.0625 10.257812 2.0625 10.257812 C 2.027344 10.308594 2 10.324219 1.9375 10.328125 C 2.007812 10.367188 2.082031 10.449219 2.082031 10.574219 C 2.082031 10.765625 2 10.847656 2 11.066406 C 2 11.1875 2.101562 11.339844 2.101562 11.339844 C 1.925781 11.324219 1.835938 11.160156 1.886719 11.03125 C 1.859375 11.027344 1.835938 11.03125 1.8125 11.054688 C 1.800781 11.015625 1.820312 10.976562 1.847656 10.9375 C 1.824219 10.925781 1.808594 10.933594 1.773438 10.941406 C 1.777344 10.90625 1.800781 10.863281 1.855469 10.828125 C 1.695312 10.867188 1.597656 10.757812 1.597656 10.644531 C 1.597656 10.558594 1.660156 10.496094 1.71875 10.496094 C 1.738281 10.496094 1.765625 10.503906 1.78125 10.515625 C 1.792969 10.492188 1.789062 10.457031 1.777344 10.433594 C 1.820312 10.445312 1.847656 10.472656 1.828125 10.527344 C 1.863281 10.527344 1.890625 10.539062 1.90625 10.5625 C 1.886719 10.585938 1.859375 10.597656 1.828125 10.597656 C 1.851562 10.648438 1.824219 10.675781 1.785156 10.699219 C 1.785156 10.699219 1.8125 10.597656 1.746094 10.597656 C 1.71875 10.597656 1.691406 10.605469 1.691406 10.648438 C 1.691406 10.6875 1.722656 10.738281 1.800781 10.734375 C 1.875 10.730469 1.933594 10.683594 1.933594 10.5625 C 1.933594 10.453125 1.847656 10.398438 1.726562 10.394531 C 1.621094 10.390625 1.542969 10.449219 1.542969 10.558594 C 1.542969 10.703125 1.753906 11.035156 1.753906 11.164062 C 1.753906 11.261719 1.664062 11.316406 1.578125 11.316406 C 1.46875 11.316406 1.375 11.207031 1.375 11.207031 Z M 1.441406 11.125 "/>
<path style=" stroke:none;fill-rule:nonzero;fill:rgb(99.607843%,77.254902%,4.705882%);fill-opacity:1;" d="M 1.414062 8.496094 C 1.414062 8.25 1.632812 8.125 1.804688 8.125 C 2.035156 8.125 2.160156 8.265625 2.160156 8.445312 C 2.160156 8.546875 2.140625 8.613281 2.09375 8.710938 C 2.09375 8.710938 1.710938 9.503906 1.5625 9.808594 C 1.546875 9.847656 1.539062 9.890625 1.539062 9.957031 C 1.539062 10.054688 1.636719 10.136719 1.734375 10.136719 C 1.828125 10.140625 1.925781 10.050781 1.925781 9.953125 C 1.925781 9.832031 1.863281 9.777344 1.800781 9.777344 C 1.71875 9.777344 1.6875 9.808594 1.6875 9.867188 C 1.6875 9.90625 1.707031 9.921875 1.734375 9.921875 C 1.800781 9.921875 1.78125 9.828125 1.78125 9.828125 C 1.816406 9.835938 1.84375 9.871094 1.828125 9.914062 C 1.851562 9.921875 1.875 9.933594 1.894531 9.953125 C 1.875 9.972656 1.855469 9.984375 1.828125 9.988281 C 1.84375 10.042969 1.824219 10.070312 1.777344 10.078125 C 1.785156 10.058594 1.785156 10.039062 1.785156 10.023438 C 1.710938 10.042969 1.601562 10.011719 1.601562 9.886719 C 1.601562 9.761719 1.6875 9.65625 1.847656 9.683594 C 1.808594 9.664062 1.789062 9.625 1.785156 9.585938 C 1.816406 9.597656 1.847656 9.597656 1.847656 9.597656 C 1.828125 9.5625 1.804688 9.535156 1.804688 9.46875 C 1.835938 9.484375 1.863281 9.507812 1.902344 9.492188 C 1.839844 9.375 1.914062 9.210938 2.101562 9.171875 C 2.035156 9.253906 2 9.339844 2 9.425781 C 2 9.710938 2.078125 9.757812 2.078125 9.953125 C 2.078125 10.035156 2.035156 10.125 1.953125 10.183594 L 1.953125 10.179688 C 2.007812 10.195312 2.042969 10.222656 2.0625 10.257812 C 1.9375 10.292969 1.753906 10.292969 1.65625 10.253906 C 1.542969 10.242188 1.464844 10.15625 1.441406 10.113281 C 1.417969 10.066406 1.371094 9.90625 1.441406 9.765625 C 1.515625 9.605469 1.867188 8.859375 1.980469 8.621094 C 2.003906 8.570312 2.015625 8.519531 2.015625 8.460938 C 2.015625 8.316406 1.882812 8.265625 1.808594 8.265625 C 1.71875 8.265625 1.628906 8.335938 1.628906 8.421875 C 1.628906 8.476562 1.65625 8.507812 1.699219 8.507812 C 1.800781 8.507812 1.796875 8.421875 1.773438 8.367188 C 1.839844 8.394531 1.875 8.445312 1.863281 8.5 C 1.898438 8.503906 1.933594 8.519531 1.964844 8.554688 C 1.941406 8.585938 1.910156 8.613281 1.863281 8.613281 C 1.886719 8.695312 1.828125 8.730469 1.773438 8.75 C 1.792969 8.6875 1.804688 8.617188 1.699219 8.617188 C 1.625 8.617188 1.566406 8.605469 1.53125 8.554688 C 1.527344 8.621094 1.523438 8.878906 1.523438 8.878906 C 1.515625 8.976562 1.652344 8.976562 1.738281 8.945312 C 1.703125 9.058594 1.640625 9.117188 1.484375 9.101562 C 1.523438 9.117188 1.5625 9.152344 1.5625 9.222656 C 1.5625 9.3125 1.488281 9.414062 1.441406 9.441406 Z M 1.414062 8.496094 "/>
<path style=" stroke:none;fill-rule:nonzero;fill:rgb(99.607843%,77.254902%,4.705882%);fill-opacity:1;" d="M 1.414062 7.765625 C 1.414062 8.007812 1.632812 8.132812 1.804688 8.132812 C 2.035156 8.132812 2.160156 7.996094 2.160156 7.8125 C 2.160156 7.710938 2.140625 7.648438 2.09375 7.546875 C 2.09375 7.546875 1.710938 6.753906 1.5625 6.449219 C 1.546875 6.410156 1.539062 6.367188 1.539062 6.304688 C 1.539062 6.203125 1.636719 6.125 1.734375 6.121094 C 1.828125 6.121094 1.925781 6.207031 1.925781 6.304688 C 1.925781 6.425781 1.863281 6.480469 1.800781 6.480469 C 1.71875 6.480469 1.6875 6.449219 1.6875 6.394531 C 1.6875 6.355469 1.707031 6.335938 1.734375 6.335938 C 1.800781 6.335938 1.78125 6.429688 1.78125 6.429688 C 1.816406 6.421875 1.84375 6.386719 1.828125 6.34375 C 1.851562 6.339844 1.875 6.324219 1.894531 6.304688 C 1.875 6.289062 1.855469 6.273438 1.828125 6.269531 C 1.84375 6.214844 1.824219 6.191406 1.777344 6.179688 C 1.785156 6.199219 1.785156 6.21875 1.785156 6.234375 C 1.710938 6.214844 1.601562 6.25 1.601562 6.375 C 1.601562 6.496094 1.6875 6.601562 1.847656 6.578125 C 1.808594 6.59375 1.789062 6.632812 1.785156 6.675781 C 1.816406 6.664062 1.847656 6.660156 1.847656 6.660156 C 1.828125 6.695312 1.804688 6.722656 1.804688 6.789062 C 1.835938 6.777344 1.863281 6.75 1.902344 6.765625 C 1.839844 6.886719 1.914062 7.046875 2.101562 7.085938 C 2.035156 7.007812 2 6.917969 2 6.832031 C 2 6.550781 2.078125 6.503906 2.078125 6.304688 C 2.078125 6.222656 2.035156 6.136719 1.953125 6.074219 L 1.953125 6.078125 C 2.007812 6.0625 2.042969 6.035156 2.0625 6 C 1.9375 5.964844 1.753906 5.964844 1.65625 6.003906 C 1.542969 6.015625 1.464844 6.105469 1.441406 6.148438 C 1.417969 6.191406 1.371094 6.351562 1.441406 6.496094 C 1.515625 6.652344 1.867188 7.402344 1.980469 7.636719 C 2.003906 7.6875 2.015625 7.738281 2.015625 7.796875 C 2.015625 7.941406 1.882812 7.992188 1.808594 7.992188 C 1.71875 7.992188 1.628906 7.921875 1.628906 7.839844 C 1.628906 7.785156 1.65625 7.75 1.699219 7.75 C 1.800781 7.75 1.796875 7.839844 1.773438 7.890625 C 1.839844 7.863281 1.875 7.8125 1.863281 7.761719 C 1.898438 7.753906 1.933594 7.738281 1.964844 7.703125 C 1.941406 7.671875 1.910156 7.648438 1.863281 7.648438 C 1.886719 7.5625 1.828125 7.527344 1.773438 7.507812 C 1.792969 7.570312 1.804688 7.640625 1.699219 7.640625 C 1.625 7.640625 1.566406 7.652344 1.53125 7.703125 C 1.527344 7.636719 1.523438 7.378906 1.523438 7.378906 C 1.515625 7.28125 1.652344 7.285156 1.738281 7.3125 C 1.703125 7.199219 1.640625 7.140625 1.484375 7.15625 C 1.523438 7.140625 1.5625 7.105469 1.5625 7.039062 C 1.5625 6.945312 1.488281 6.847656 1.441406 6.816406 Z M 1.414062 7.765625 "/>
</g>
</svg>
