<?xml version="1.0" encoding="UTF-8"?>
<svg xmlns="http://www.w3.org/2000/svg" xmlns:xlink="http://www.w3.org/1999/xlink" width="24px" height="24px" viewBox="0 0 24 16" version="1.1">
<g id="surface1">
<rect x="0" y="0" width="24" height="16" style="fill:rgb(92.941176%,10.980392%,14.117647%);fill-opacity:1;stroke:none;"/>
<path style=" stroke:none;fill-rule:nonzero;fill:rgb(100%,100%,100%);fill-opacity:1;" d="M 0 4 L 24 4 L 24 12 L 0 12 Z M 0 4 "/>
<path style=" stroke:none;fill-rule:nonzero;fill:rgb(0%,65.098039%,31.764706%);fill-opacity:1;" d="M 11.890625 4 C 11.71875 4.363281 11.394531 4.613281 11.085938 4.851562 C 11.035156 4.898438 10.910156 4.984375 11 5.050781 C 11.078125 4.960938 11.296875 5.078125 11.171875 5.171875 C 11.058594 5.277344 10.902344 5.316406 10.777344 5.402344 C 10.667969 5.460938 10.554688 5.523438 10.46875 5.617188 C 10.460938 5.761719 10.648438 5.679688 10.722656 5.742188 C 10.816406 5.84375 10.679688 6.019531 10.550781 5.980469 C 10.390625 5.984375 10.277344 6.128906 10.214844 6.265625 C 10.085938 6.460938 9.84375 6.519531 9.652344 6.632812 C 9.542969 6.699219 9.4375 6.769531 9.332031 6.84375 C 9.203125 6.933594 9.316406 7.113281 9.457031 7.070312 C 9.609375 7.054688 9.746094 6.933594 9.902344 6.96875 C 10.046875 7.019531 10.085938 7.207031 10.035156 7.335938 C 10 7.4375 9.914062 7.511719 9.84375 7.59375 C 9.730469 7.707031 9.582031 7.785156 9.425781 7.820312 C 9.273438 7.871094 9.136719 7.960938 9.039062 8.085938 C 8.925781 8.203125 8.808594 8.320312 8.675781 8.417969 C 8.636719 8.523438 8.753906 8.613281 8.851562 8.613281 C 9.058594 8.597656 9.203125 8.429688 9.378906 8.34375 C 9.523438 8.277344 9.699219 8.433594 9.660156 8.585938 C 9.652344 8.734375 9.511719 8.8125 9.386719 8.855469 C 9.023438 9.039062 8.710938 9.304688 8.429688 9.59375 C 8.371094 9.714844 8.210938 9.679688 8.128906 9.761719 C 8.070312 9.867188 8.210938 9.921875 8.292969 9.910156 C 8.652344 9.867188 8.988281 9.714844 9.308594 9.546875 C 9.425781 9.492188 9.535156 9.417969 9.660156 9.371094 C 9.773438 9.34375 9.933594 9.394531 9.957031 9.523438 C 9.957031 9.664062 9.816406 9.738281 9.710938 9.792969 C 9.375 9.96875 9.007812 10.066406 8.648438 10.183594 C 8.515625 10.144531 8.414062 10.386719 8.558594 10.429688 C 8.714844 10.480469 8.878906 10.4375 9.039062 10.429688 C 9.53125 10.355469 9.960938 10.089844 10.421875 9.917969 C 10.613281 9.855469 10.839844 9.941406 10.933594 10.121094 C 11.027344 10.28125 11.019531 10.492188 10.921875 10.648438 C 10.761719 10.984375 10.523438 11.296875 10.199219 11.488281 C 9.996094 11.589844 9.761719 11.628906 9.585938 11.78125 C 9.425781 11.835938 9.667969 12.050781 9.703125 11.878906 C 9.796875 11.75 9.96875 11.707031 10.121094 11.703125 C 10.355469 11.679688 10.601562 11.636719 10.78125 11.476562 C 10.941406 11.347656 11.101562 11.175781 11.320312 11.171875 C 11.441406 11.1875 11.5625 11.285156 11.683594 11.226562 C 11.792969 11.175781 11.960938 11.207031 11.992188 11.339844 C 12.042969 11.492188 12.203125 11.5625 12.328125 11.644531 C 12.375 11.710938 12.527344 11.875 12.5625 11.730469 C 12.53125 11.625 12.574219 11.464844 12.710938 11.5 C 12.832031 11.507812 12.945312 11.550781 13.0625 11.558594 C 13.222656 11.589844 13.355469 11.699219 13.445312 11.832031 C 13.507812 11.917969 13.644531 12.0625 13.746094 11.949219 C 13.808594 11.832031 13.6875 11.734375 13.589844 11.691406 C 13.449219 11.605469 13.328125 11.488281 13.203125 11.375 C 13.019531 11.207031 12.859375 10.988281 12.832031 10.730469 C 12.792969 10.476562 12.8125 10.21875 12.847656 9.964844 C 12.886719 9.800781 13.097656 9.710938 13.242188 9.796875 C 13.449219 9.890625 13.652344 10.027344 13.890625 10.011719 C 14.230469 10.019531 14.582031 9.953125 14.914062 10.050781 C 15.238281 10.152344 15.472656 10.425781 15.785156 10.546875 C 15.859375 10.589844 15.949219 10.546875 15.972656 10.472656 C 16.003906 10.40625 15.984375 10.316406 15.917969 10.277344 C 15.550781 9.910156 15.050781 9.730469 14.628906 9.441406 C 14.496094 9.40625 14.46875 9.191406 14.59375 9.132812 C 14.753906 9.011719 14.984375 9.066406 15.128906 9.1875 C 15.25 9.261719 15.386719 9.3125 15.527344 9.3125 C 15.675781 9.269531 15.605469 9.058594 15.472656 9.042969 C 15.238281 8.90625 15.066406 8.6875 14.863281 8.515625 C 14.746094 8.414062 14.613281 8.3125 14.457031 8.292969 C 14.371094 8.277344 14.28125 8.273438 14.191406 8.28125 C 14.109375 8.191406 14.21875 8.054688 14.328125 8.066406 C 14.4375 8.070312 14.546875 8.082031 14.652344 8.066406 C 14.777344 8.054688 14.898438 8.042969 15.019531 8.042969 C 15.121094 8.109375 15.316406 7.992188 15.226562 7.878906 C 15.128906 7.792969 14.988281 7.800781 14.871094 7.753906 C 14.667969 7.6875 14.460938 7.632812 14.25 7.589844 C 14.101562 7.582031 14.121094 7.386719 14.25 7.367188 C 14.335938 7.335938 14.40625 7.402344 14.488281 7.410156 C 14.628906 7.441406 14.773438 7.441406 14.910156 7.46875 C 15.03125 7.414062 14.9375 7.238281 14.832031 7.230469 C 14.578125 7.140625 14.363281 6.976562 14.148438 6.820312 C 13.914062 6.644531 13.703125 6.4375 13.464844 6.265625 C 13.378906 6.214844 13.238281 6.199219 13.214844 6.078125 C 13.207031 5.96875 13.335938 5.921875 13.425781 5.945312 C 13.554688 5.984375 13.675781 6.050781 13.804688 6.082031 C 13.910156 6.101562 14.015625 6.132812 14.113281 6.117188 C 14.242188 6.039062 14.058594 5.988281 13.996094 5.960938 C 13.828125 5.871094 13.675781 5.75 13.527344 5.632812 C 13.398438 5.523438 13.632812 5.476562 13.714844 5.519531 C 13.851562 5.574219 13.867188 5.378906 13.765625 5.328125 C 13.644531 5.277344 13.542969 5.191406 13.433594 5.117188 C 13.238281 4.976562 13.015625 4.867188 12.773438 4.835938 C 12.503906 4.808594 12.25 4.652344 12.109375 4.421875 C 12.019531 4.292969 11.953125 4.144531 11.890625 4 Z M 11.003906 5.515625 C 11.140625 5.523438 11.121094 5.773438 10.984375 5.757812 C 10.851562 5.746094 10.859375 5.492188 11.003906 5.515625 Z M 12.316406 5.652344 C 12.453125 5.628906 12.480469 5.875 12.347656 5.886719 C 12.207031 5.914062 12.152344 5.636719 12.316406 5.652344 Z M 11.933594 5.683594 C 12.070312 5.710938 12.046875 5.953125 11.90625 5.953125 C 11.804688 5.976562 11.695312 6.046875 11.59375 5.992188 C 11.507812 5.90625 11.628906 5.773438 11.722656 5.746094 C 11.796875 5.730469 11.859375 5.699219 11.933594 5.683594 Z M 12.820312 5.6875 C 12.953125 5.734375 12.90625 5.96875 12.765625 5.964844 C 12.632812 5.984375 12.570312 5.761719 12.695312 5.710938 C 12.734375 5.695312 12.777344 5.683594 12.820312 5.6875 Z M 11.324219 5.953125 C 11.421875 6.042969 11.363281 6.222656 11.242188 6.265625 C 11.15625 6.3125 11.039062 6.429688 10.945312 6.335938 C 10.894531 6.21875 11.023438 6.132812 11.097656 6.070312 C 11.164062 6.015625 11.238281 5.96875 11.324219 5.953125 Z M 12.4375 6.46875 C 12.574219 6.535156 12.503906 6.785156 12.351562 6.769531 C 12.226562 6.738281 12.242188 6.523438 12.371094 6.503906 C 12.394531 6.496094 12.414062 6.484375 12.4375 6.46875 Z M 11.992188 6.492188 C 12.125 6.554688 12.023438 6.773438 11.894531 6.742188 C 11.757812 6.726562 11.757812 6.484375 11.910156 6.507812 C 11.9375 6.503906 11.96875 6.503906 11.992188 6.492188 Z M 12.949219 6.617188 C 13.089844 6.574219 13.261719 6.722656 13.21875 6.871094 C 13.152344 6.988281 12.996094 7 12.882812 6.957031 C 12.753906 6.953125 12.664062 6.757812 12.78125 6.675781 C 12.828125 6.636719 12.890625 6.625 12.949219 6.617188 Z M 10.835938 6.65625 C 10.953125 6.589844 11.078125 6.785156 10.980469 6.871094 C 10.914062 6.96875 10.742188 7.007812 10.664062 6.898438 C 10.601562 6.792969 10.703125 6.613281 10.835938 6.65625 Z M 10.289062 6.746094 C 10.425781 6.765625 10.511719 6.886719 10.5625 7.003906 C 10.574219 7.144531 10.363281 7.222656 10.273438 7.121094 C 10.171875 7.054688 10.082031 6.921875 10.136719 6.800781 C 10.167969 6.753906 10.234375 6.730469 10.289062 6.746094 Z M 13.554688 7.257812 C 13.699219 7.21875 13.804688 7.453125 13.679688 7.535156 C 13.566406 7.640625 13.34375 7.503906 13.402344 7.355469 C 13.433594 7.300781 13.492188 7.265625 13.554688 7.257812 Z M 11.699219 7.523438 C 11.824219 7.539062 11.785156 7.75 11.671875 7.742188 C 11.550781 7.722656 11.578125 7.511719 11.699219 7.523438 Z M 11.082031 7.636719 C 11.179688 7.566406 11.308594 7.738281 11.226562 7.816406 C 11.128906 7.886719 11 7.71875 11.082031 7.636719 Z M 12.066406 7.65625 C 12.183594 7.726562 12.25 7.859375 12.265625 7.988281 C 12.210938 8.113281 11.996094 8.082031 11.972656 7.953125 C 11.929688 7.847656 11.96875 7.714844 12.066406 7.65625 Z M 12.410156 7.859375 C 12.558594 7.824219 12.503906 8.132812 12.382812 8.027344 C 12.339844 7.976562 12.363281 7.898438 12.410156 7.859375 Z M 10.253906 8.078125 C 10.351562 8.046875 10.496094 8.078125 10.519531 8.191406 C 10.53125 8.296875 10.417969 8.351562 10.332031 8.378906 C 10.191406 8.421875 10.058594 8.492188 9.910156 8.480469 C 9.800781 8.417969 9.761719 8.289062 9.722656 8.175781 C 9.828125 8.078125 9.984375 8.105469 10.117188 8.082031 C 10.164062 8.078125 10.207031 8.078125 10.253906 8.078125 Z M 13.597656 8.566406 C 13.726562 8.503906 13.859375 8.703125 13.753906 8.796875 C 13.625 8.945312 13.371094 8.976562 13.210938 8.847656 C 13.195312 8.714844 13.328125 8.617188 13.445312 8.597656 C 13.496094 8.582031 13.546875 8.5625 13.597656 8.566406 Z M 14.304688 8.71875 C 14.449219 8.691406 14.5625 8.898438 14.457031 9.003906 C 14.363281 9.148438 14.132812 9.1875 14 9.066406 C 13.949219 8.945312 14.054688 8.820312 14.164062 8.78125 C 14.210938 8.761719 14.257812 8.734375 14.304688 8.71875 Z M 10.753906 8.933594 C 10.886719 8.921875 11.007812 9.050781 10.992188 9.183594 C 11.085938 9.277344 10.917969 9.453125 10.820312 9.355469 C 10.738281 9.253906 10.738281 9.113281 10.707031 8.992188 C 10.703125 8.964844 10.726562 8.929688 10.753906 8.933594 Z M 11.769531 9.011719 C 11.90625 8.949219 12.082031 9.113281 12.007812 9.253906 C 11.957031 9.367188 11.75 9.328125 11.753906 9.195312 C 11.753906 9.132812 11.75 9.070312 11.769531 9.011719 Z M 11.277344 9.097656 C 11.414062 9.066406 11.539062 9.246094 11.464844 9.363281 C 11.328125 9.375 11.253906 9.214844 11.277344 9.097656 Z M 11.277344 9.097656 "/>
</g>
</svg>
