<?xml version="1.0" encoding="UTF-8"?>
<svg xmlns="http://www.w3.org/2000/svg" xmlns:xlink="http://www.w3.org/1999/xlink" width="24px" height="24px" viewBox="0 0 24 14" version="1.1">
<g id="surface1">
<rect x="0" y="0" width="24" height="14" style="fill:rgb(0%,16.862745%,49.803922%);fill-opacity:1;stroke:none;"/>
<path style=" stroke:none;fill-rule:nonzero;fill:rgb(80.784314%,6.666667%,14.901961%);fill-opacity:1;" d="M 0 7 L 24 7 L 24 14 L 0 14 Z M 0 7 "/>
<path style=" stroke:none;fill-rule:nonzero;fill:rgb(100%,84.705882%,23.921569%);fill-opacity:1;" d="M 5.191406 2.851562 L 5.148438 4.3125 L 3.625 4.3125 C 3.441406 3.957031 3.285156 3.65625 3.285156 3.25 C 3.285156 2.910156 3.5625 2.640625 3.957031 2.640625 C 4.378906 2.640625 4.839844 2.777344 5.191406 2.851562 Z M 5.191406 2.851562 "/>
<path style="fill:none;stroke-width:1.5;stroke-linecap:round;stroke-linejoin:round;stroke:rgb(0%,0%,0%);stroke-opacity:1;stroke-miterlimit:4;" d="M 144.53125 125.223214 L 144.53125 161.216518 " transform="matrix(0.024,0,0,0.0233333,0,0)"/>
<path style="fill:none;stroke-width:1.5;stroke-linecap:round;stroke-linejoin:round;stroke:rgb(0%,0%,0%);stroke-opacity:1;stroke-miterlimit:4;" d="M 149.576823 121.540179 L 149.576823 169.587054 " transform="matrix(0.024,0,0,0.0233333,0,0)"/>
<path style="fill:none;stroke-width:1.5;stroke-linecap:round;stroke-linejoin:round;stroke:rgb(0%,0%,0%);stroke-opacity:1;stroke-miterlimit:4;" d="M 154.622396 119.029018 L 154.622396 176.116071 " transform="matrix(0.024,0,0,0.0233333,0,0)"/>
<path style="fill:none;stroke-width:1.5;stroke-linecap:round;stroke-linejoin:round;stroke:rgb(0%,0%,0%);stroke-opacity:1;stroke-miterlimit:4;" d="M 159.667969 117.689732 L 159.667969 162.723214 " transform="matrix(0.024,0,0,0.0233333,0,0)"/>
<path style="fill:none;stroke-width:1.5;stroke-linecap:round;stroke-linejoin:round;stroke:rgb(0%,0%,0%);stroke-opacity:1;stroke-miterlimit:4;" d="M 164.876302 117.522321 L 164.876302 162.890625 " transform="matrix(0.024,0,0,0.0233333,0,0)"/>
<path style="fill:none;stroke-width:1.5;stroke-linecap:round;stroke-linejoin:round;stroke:rgb(0%,0%,0%);stroke-opacity:1;stroke-miterlimit:4;" d="M 169.921875 116.015625 L 169.921875 162.890625 " transform="matrix(0.024,0,0,0.0233333,0,0)"/>
<path style="fill:none;stroke-width:1.5;stroke-linecap:round;stroke-linejoin:round;stroke:rgb(0%,0%,0%);stroke-opacity:1;stroke-miterlimit:4;" d="M 174.967448 116.015625 L 174.967448 162.890625 " transform="matrix(0.024,0,0,0.0233333,0,0)"/>
<path style="fill:none;stroke-width:1.5;stroke-linecap:round;stroke-linejoin:round;stroke:rgb(0%,0%,0%);stroke-opacity:1;stroke-miterlimit:4;" d="M 180.175781 116.350446 L 180.175781 163.392857 " transform="matrix(0.024,0,0,0.0233333,0,0)"/>
<path style="fill:none;stroke-width:1.5;stroke-linecap:round;stroke-linejoin:round;stroke:rgb(0%,0%,0%);stroke-opacity:1;stroke-miterlimit:4;" d="M 185.221354 116.852679 L 185.221354 163.727679 " transform="matrix(0.024,0,0,0.0233333,0,0)"/>
<path style="fill:none;stroke-width:1.5;stroke-linecap:round;stroke-linejoin:round;stroke:rgb(0%,0%,0%);stroke-opacity:1;stroke-miterlimit:4;" d="M 190.266927 119.866071 L 190.266927 166.741071 " transform="matrix(0.024,0,0,0.0233333,0,0)"/>
<path style="fill:none;stroke-width:1.5;stroke-linecap:round;stroke-linejoin:round;stroke:rgb(0%,0%,0%);stroke-opacity:1;stroke-miterlimit:4;" d="M 195.3125 120.368304 L 195.3125 173.270089 " transform="matrix(0.024,0,0,0.0233333,0,0)"/>
<path style="fill:none;stroke-width:1.5;stroke-linecap:round;stroke-linejoin:round;stroke:rgb(0%,0%,0%);stroke-opacity:1;stroke-miterlimit:4;" d="M 200.520833 120.368304 L 200.520833 167.243304 " transform="matrix(0.024,0,0,0.0233333,0,0)"/>
<path style="fill:none;stroke-width:1.5;stroke-linecap:round;stroke-linejoin:round;stroke:rgb(0%,0%,0%);stroke-opacity:1;stroke-miterlimit:4;" d="M 205.566406 120.368304 L 205.566406 167.243304 " transform="matrix(0.024,0,0,0.0233333,0,0)"/>
<path style="fill-rule:nonzero;fill:rgb(0%,0%,0%);fill-opacity:1;stroke-width:1.5;stroke-linecap:round;stroke-linejoin:round;stroke:rgb(0%,0%,0%);stroke-opacity:1;stroke-miterlimit:4;" d="M 176.432292 117.857143 C 187.174479 119.698661 210.77474 130.747768 208.170573 145.647321 C 204.264323 166.908482 191.894531 158.370536 175.455729 155.357143 L 163.085938 159.542411 C 158.691406 164.0625 152.018229 168.247768 147.623698 162.723214 L 140.299479 162.723214 L 140.299479 191.517857 L 221.679688 191.517857 L 221.679688 122.042411 Z M 176.432292 117.857143 " transform="matrix(0.024,0,0,0.0233333,0,0)"/>
<path style="fill-rule:nonzero;fill:rgb(100%,84.705882%,23.921569%);fill-opacity:1;stroke-width:2;stroke-linecap:round;stroke-linejoin:round;stroke:rgb(0%,0%,0%);stroke-opacity:1;stroke-miterlimit:4;" d="M 217.773438 113.002232 C 217.773438 115.680804 215.494792 117.857143 212.890625 117.857143 C 210.123698 117.857143 207.845052 115.680804 207.845052 113.002232 C 207.845052 110.323661 210.123698 107.979911 212.890625 107.979911 C 215.494792 107.979911 217.773438 110.323661 217.773438 113.002232 Z M 217.773438 113.002232 " transform="matrix(0.024,0,0,0.0233333,0,0)"/>
<path style="fill-rule:nonzero;fill:rgb(100%,84.705882%,23.921569%);fill-opacity:1;stroke-width:2;stroke-linecap:round;stroke-linejoin:round;stroke:rgb(0%,0%,0%);stroke-opacity:1;stroke-miterlimit:4;" d="M 206.705729 110.323661 C 206.705729 113.002232 204.427083 115.178571 201.660156 115.178571 C 199.05599 115.178571 196.777344 113.002232 196.777344 110.323661 C 196.777344 107.645089 199.05599 105.301339 201.660156 105.301339 C 204.427083 105.301339 206.705729 107.645089 206.705729 110.323661 Z M 206.705729 110.323661 " transform="matrix(0.024,0,0,0.0233333,0,0)"/>
<path style="fill-rule:nonzero;fill:rgb(100%,84.705882%,23.921569%);fill-opacity:1;stroke-width:2;stroke-linecap:round;stroke-linejoin:round;stroke:rgb(0%,0%,0%);stroke-opacity:1;stroke-miterlimit:4;" d="M 195.3125 107.477679 C 195.3125 110.15625 193.196615 112.5 190.429688 112.5 C 187.66276 112.5 185.546875 110.15625 185.546875 107.477679 C 185.546875 104.799107 187.66276 102.622768 190.429688 102.622768 C 193.196615 102.622768 195.3125 104.799107 195.3125 107.477679 Z M 195.3125 107.477679 " transform="matrix(0.024,0,0,0.0233333,0,0)"/>
<path style="fill-rule:nonzero;fill:rgb(100%,84.705882%,23.921569%);fill-opacity:1;stroke-width:2;stroke-linecap:round;stroke-linejoin:round;stroke:rgb(0%,0%,0%);stroke-opacity:1;stroke-miterlimit:4;" d="M 184.082031 105.636161 C 184.082031 108.314732 181.803385 110.491071 179.199219 110.491071 C 176.432292 110.491071 174.153646 108.314732 174.153646 105.636161 C 174.153646 102.790179 176.432292 100.613839 179.199219 100.613839 C 181.803385 100.613839 184.082031 102.790179 184.082031 105.636161 Z M 184.082031 105.636161 " transform="matrix(0.024,0,0,0.0233333,0,0)"/>
<path style="fill-rule:nonzero;fill:rgb(100%,84.705882%,23.921569%);fill-opacity:1;stroke-width:2;stroke-linecap:round;stroke-linejoin:round;stroke:rgb(0%,0%,0%);stroke-opacity:1;stroke-miterlimit:4;" d="M 172.851562 104.464286 C 172.851562 107.142857 170.572917 109.486607 167.80599 109.486607 C 165.039062 109.486607 162.923177 107.142857 162.923177 104.464286 C 162.923177 101.785714 165.039062 99.609375 167.80599 99.609375 C 170.572917 99.609375 172.851562 101.785714 172.851562 104.464286 Z M 172.851562 104.464286 " transform="matrix(0.024,0,0,0.0233333,0,0)"/>
<path style="fill-rule:nonzero;fill:rgb(100%,84.705882%,23.921569%);fill-opacity:1;stroke-width:2;stroke-linecap:round;stroke-linejoin:round;stroke:rgb(0%,0%,0%);stroke-opacity:1;stroke-miterlimit:4;" d="M 161.621094 105.133929 C 161.621094 107.8125 159.505208 109.988839 156.738281 109.988839 C 153.971354 109.988839 151.855469 107.8125 151.855469 105.133929 C 151.855469 102.455357 153.971354 100.111607 156.738281 100.111607 C 159.505208 100.111607 161.621094 102.455357 161.621094 105.133929 Z M 161.621094 105.133929 " transform="matrix(0.024,0,0,0.0233333,0,0)"/>
<path style="fill-rule:nonzero;fill:rgb(100%,84.705882%,23.921569%);fill-opacity:1;stroke-width:2;stroke-linecap:round;stroke-linejoin:round;stroke:rgb(0%,0%,0%);stroke-opacity:1;stroke-miterlimit:4;" d="M 151.041667 108.649554 C 151.041667 111.495536 148.925781 113.671875 146.158854 113.671875 C 143.391927 113.671875 141.276042 111.495536 141.276042 108.649554 C 141.276042 105.970982 143.391927 103.794643 146.158854 103.794643 C 148.925781 103.794643 151.041667 105.970982 151.041667 108.649554 Z M 151.041667 108.649554 " transform="matrix(0.024,0,0,0.0233333,0,0)"/>
<path style="fill-rule:nonzero;fill:rgb(100%,84.705882%,23.921569%);fill-opacity:1;stroke-width:2;stroke-linecap:round;stroke-linejoin:round;stroke:rgb(0%,0%,0%);stroke-opacity:1;stroke-miterlimit:4;" d="M 142.252604 115.345982 C 142.252604 118.024554 139.973958 120.200893 137.207031 120.200893 C 134.602865 120.200893 132.324219 118.024554 132.324219 115.345982 C 132.324219 112.5 134.602865 110.323661 137.207031 110.323661 C 139.973958 110.323661 142.252604 112.5 142.252604 115.345982 Z M 142.252604 115.345982 " transform="matrix(0.024,0,0,0.0233333,0,0)"/>
<path style="fill-rule:nonzero;fill:rgb(100%,84.705882%,23.921569%);fill-opacity:1;stroke-width:2;stroke-linecap:round;stroke-linejoin:round;stroke:rgb(0%,0%,0%);stroke-opacity:1;stroke-miterlimit:4;" d="M 135.904948 124.386161 C 135.904948 127.064732 133.626302 129.408482 131.022135 129.408482 C 128.255208 129.408482 125.976562 127.064732 125.976562 124.386161 C 125.976562 121.707589 128.255208 119.53125 131.022135 119.53125 C 133.626302 119.53125 135.904948 121.707589 135.904948 124.386161 Z M 135.904948 124.386161 " transform="matrix(0.024,0,0,0.0233333,0,0)"/>
<path style="fill-rule:nonzero;fill:rgb(100%,84.705882%,23.921569%);fill-opacity:1;stroke-width:2;stroke-linecap:round;stroke-linejoin:round;stroke:rgb(0%,0%,0%);stroke-opacity:1;stroke-miterlimit:4;" d="M 132.8125 135.100446 C 132.8125 137.946429 130.696615 140.122768 127.929687 140.122768 C 125.16276 140.122768 123.046875 137.946429 123.046875 135.100446 C 123.046875 132.421875 125.16276 130.245536 127.929687 130.245536 C 130.696615 130.245536 132.8125 132.421875 132.8125 135.100446 Z M 132.8125 135.100446 " transform="matrix(0.024,0,0,0.0233333,0,0)"/>
<path style="fill-rule:nonzero;fill:rgb(100%,84.705882%,23.921569%);fill-opacity:1;stroke-width:2;stroke-linecap:round;stroke-linejoin:round;stroke:rgb(0%,0%,0%);stroke-opacity:1;stroke-miterlimit:4;" d="M 132.97526 146.316964 C 132.97526 148.995536 130.696615 151.171875 128.092448 151.171875 C 125.325521 151.171875 123.046875 148.995536 123.046875 146.316964 C 123.046875 143.638393 125.325521 141.294643 128.092448 141.294643 C 130.696615 141.294643 132.97526 143.638393 132.97526 146.316964 Z M 132.97526 146.316964 " transform="matrix(0.024,0,0,0.0233333,0,0)"/>
<path style="fill-rule:nonzero;fill:rgb(100%,84.705882%,23.921569%);fill-opacity:1;stroke-width:2;stroke-linecap:round;stroke-linejoin:round;stroke:rgb(0%,0%,0%);stroke-opacity:1;stroke-miterlimit:4;" d="M 135.091146 157.198661 C 135.091146 159.877232 132.8125 162.220982 130.208333 162.220982 C 127.441406 162.220982 125.16276 159.877232 125.16276 157.198661 C 125.16276 154.520089 127.441406 152.34375 130.208333 152.34375 C 132.8125 152.34375 135.091146 154.520089 135.091146 157.198661 Z M 135.091146 157.198661 " transform="matrix(0.024,0,0,0.0233333,0,0)"/>
<path style="fill-rule:nonzero;fill:rgb(100%,84.705882%,23.921569%);fill-opacity:1;stroke-width:2;stroke-linecap:round;stroke-linejoin:round;stroke:rgb(0%,0%,0%);stroke-opacity:1;stroke-miterlimit:4;" d="M 215.00651 119.53125 L 214.518229 125.892857 C 202.311198 124.051339 184.895833 117.1875 168.619792 117.1875 C 153.645833 117.1875 141.927083 123.214286 141.927083 138.448661 C 141.927083 153.348214 148.27474 166.908482 156.575521 180.636161 L 147.949219 184.821429 C 140.136719 169.587054 133.626302 156.696429 133.626302 139.285714 C 133.626302 124.720982 145.182292 110.323661 164.876302 110.323661 C 182.454427 110.323661 200.358073 116.183036 215.00651 119.53125 Z M 215.00651 119.53125 " transform="matrix(0.024,0,0,0.0233333,0,0)"/>
<path style=" stroke:none;fill-rule:nonzero;fill:rgb(100%,84.705882%,23.921569%);fill-opacity:1;" d="M 5.460938 2.851562 L 5.503906 4.3125 L 7.027344 4.3125 C 7.214844 3.957031 7.371094 3.65625 7.371094 3.25 C 7.371094 2.910156 7.09375 2.640625 6.695312 2.640625 C 6.277344 2.640625 5.8125 2.777344 5.460938 2.851562 Z M 5.460938 2.851562 "/>
<path style="fill:none;stroke-width:1.5;stroke-linecap:round;stroke-linejoin:round;stroke:rgb(0%,0%,0%);stroke-opacity:1;stroke-miterlimit:4;" d="M 144.458333 125.223214 L 144.458333 161.216518 " transform="matrix(-0.024,0,0,0.0233333,10.6545,0)"/>
<path style="fill:none;stroke-width:1.5;stroke-linecap:round;stroke-linejoin:round;stroke:rgb(0%,0%,0%);stroke-opacity:1;stroke-miterlimit:4;" d="M 149.503906 121.540179 L 149.503906 169.587054 " transform="matrix(-0.024,0,0,0.0233333,10.6545,0)"/>
<path style="fill:none;stroke-width:1.5;stroke-linecap:round;stroke-linejoin:round;stroke:rgb(0%,0%,0%);stroke-opacity:1;stroke-miterlimit:4;" d="M 154.71224 119.029018 L 154.71224 176.116071 " transform="matrix(-0.024,0,0,0.0233333,10.6545,0)"/>
<path style="fill:none;stroke-width:1.5;stroke-linecap:round;stroke-linejoin:round;stroke:rgb(0%,0%,0%);stroke-opacity:1;stroke-miterlimit:4;" d="M 159.757812 117.689732 L 159.757812 162.723214 " transform="matrix(-0.024,0,0,0.0233333,10.6545,0)"/>
<path style="fill:none;stroke-width:1.5;stroke-linecap:round;stroke-linejoin:round;stroke:rgb(0%,0%,0%);stroke-opacity:1;stroke-miterlimit:4;" d="M 164.803385 117.522321 L 164.803385 162.890625 " transform="matrix(-0.024,0,0,0.0233333,10.6545,0)"/>
<path style="fill:none;stroke-width:1.5;stroke-linecap:round;stroke-linejoin:round;stroke:rgb(0%,0%,0%);stroke-opacity:1;stroke-miterlimit:4;" d="M 169.848958 116.015625 L 169.848958 162.890625 " transform="matrix(-0.024,0,0,0.0233333,10.6545,0)"/>
<path style="fill:none;stroke-width:1.5;stroke-linecap:round;stroke-linejoin:round;stroke:rgb(0%,0%,0%);stroke-opacity:1;stroke-miterlimit:4;" d="M 175.057292 116.015625 L 175.057292 162.890625 " transform="matrix(-0.024,0,0,0.0233333,10.6545,0)"/>
<path style="fill:none;stroke-width:1.5;stroke-linecap:round;stroke-linejoin:round;stroke:rgb(0%,0%,0%);stroke-opacity:1;stroke-miterlimit:4;" d="M 180.102865 116.350446 L 180.102865 163.392857 " transform="matrix(-0.024,0,0,0.0233333,10.6545,0)"/>
<path style="fill:none;stroke-width:1.5;stroke-linecap:round;stroke-linejoin:round;stroke:rgb(0%,0%,0%);stroke-opacity:1;stroke-miterlimit:4;" d="M 185.148438 116.852679 L 185.148438 163.727679 " transform="matrix(-0.024,0,0,0.0233333,10.6545,0)"/>
<path style="fill:none;stroke-width:1.5;stroke-linecap:round;stroke-linejoin:round;stroke:rgb(0%,0%,0%);stroke-opacity:1;stroke-miterlimit:4;" d="M 190.356771 119.866071 L 190.356771 166.741071 " transform="matrix(-0.024,0,0,0.0233333,10.6545,0)"/>
<path style="fill:none;stroke-width:1.5;stroke-linecap:round;stroke-linejoin:round;stroke:rgb(0%,0%,0%);stroke-opacity:1;stroke-miterlimit:4;" d="M 195.402344 120.368304 L 195.402344 173.270089 " transform="matrix(-0.024,0,0,0.0233333,10.6545,0)"/>
<path style="fill:none;stroke-width:1.5;stroke-linecap:round;stroke-linejoin:round;stroke:rgb(0%,0%,0%);stroke-opacity:1;stroke-miterlimit:4;" d="M 200.447917 120.368304 L 200.447917 167.243304 " transform="matrix(-0.024,0,0,0.0233333,10.6545,0)"/>
<path style="fill:none;stroke-width:1.5;stroke-linecap:round;stroke-linejoin:round;stroke:rgb(0%,0%,0%);stroke-opacity:1;stroke-miterlimit:4;" d="M 205.65625 120.368304 L 205.65625 167.243304 " transform="matrix(-0.024,0,0,0.0233333,10.6545,0)"/>
<path style="fill-rule:nonzero;fill:rgb(0%,0%,0%);fill-opacity:1;stroke-width:1.5;stroke-linecap:round;stroke-linejoin:round;stroke:rgb(0%,0%,0%);stroke-opacity:1;stroke-miterlimit:4;" d="M 176.359375 117.857143 C 187.101562 119.698661 210.864583 130.747768 208.097656 145.647321 C 204.354167 166.908482 191.821615 158.370536 175.545573 155.357143 L 163.013021 159.542411 C 158.61849 164.0625 152.108073 168.247768 147.713542 162.723214 L 140.389323 162.723214 L 140.389323 191.517857 L 221.606771 191.517857 L 221.606771 122.042411 Z M 176.359375 117.857143 " transform="matrix(-0.024,0,0,0.0233333,10.6545,0)"/>
<path style="fill-rule:nonzero;fill:rgb(100%,84.705882%,23.921569%);fill-opacity:1;stroke-width:2;stroke-linecap:round;stroke-linejoin:round;stroke:rgb(0%,0%,0%);stroke-opacity:1;stroke-miterlimit:4;" d="M 217.700521 113.002232 C 217.700521 115.680804 215.584635 117.857143 212.817708 117.857143 C 210.050781 117.857143 207.934896 115.680804 207.934896 113.002232 C 207.934896 110.323661 210.050781 107.979911 212.817708 107.979911 C 215.584635 107.979911 217.700521 110.323661 217.700521 113.002232 Z M 217.700521 113.002232 " transform="matrix(-0.024,0,0,0.0233333,10.6545,0)"/>
<path style="fill-rule:nonzero;fill:rgb(100%,84.705882%,23.921569%);fill-opacity:1;stroke-width:2;stroke-linecap:round;stroke-linejoin:round;stroke:rgb(0%,0%,0%);stroke-opacity:1;stroke-miterlimit:4;" d="M 206.632812 110.323661 C 206.632812 113.002232 204.516927 115.178571 201.75 115.178571 C 198.983073 115.178571 196.704427 113.002232 196.704427 110.323661 C 196.704427 107.645089 198.983073 105.301339 201.75 105.301339 C 204.516927 105.301339 206.632812 107.645089 206.632812 110.323661 Z M 206.632812 110.323661 " transform="matrix(-0.024,0,0,0.0233333,10.6545,0)"/>
<path style="fill-rule:nonzero;fill:rgb(100%,84.705882%,23.921569%);fill-opacity:1;stroke-width:2;stroke-linecap:round;stroke-linejoin:round;stroke:rgb(0%,0%,0%);stroke-opacity:1;stroke-miterlimit:4;" d="M 195.402344 107.477679 C 195.402344 110.15625 193.123698 112.5 190.519531 112.5 C 187.752604 112.5 185.473958 110.15625 185.473958 107.477679 C 185.473958 104.799107 187.752604 102.622768 190.519531 102.622768 C 193.123698 102.622768 195.402344 104.799107 195.402344 107.477679 Z M 195.402344 107.477679 " transform="matrix(-0.024,0,0,0.0233333,10.6545,0)"/>
<path style="fill-rule:nonzero;fill:rgb(100%,84.705882%,23.921569%);fill-opacity:1;stroke-width:2;stroke-linecap:round;stroke-linejoin:round;stroke:rgb(0%,0%,0%);stroke-opacity:1;stroke-miterlimit:4;" d="M 184.009115 105.636161 C 184.009115 108.314732 181.893229 110.491071 179.126302 110.491071 C 176.359375 110.491071 174.24349 108.314732 174.24349 105.636161 C 174.24349 102.790179 176.359375 100.613839 179.126302 100.613839 C 181.893229 100.613839 184.009115 102.790179 184.009115 105.636161 Z M 184.009115 105.636161 " transform="matrix(-0.024,0,0,0.0233333,10.6545,0)"/>
<path style="fill-rule:nonzero;fill:rgb(100%,84.705882%,23.921569%);fill-opacity:1;stroke-width:2;stroke-linecap:round;stroke-linejoin:round;stroke:rgb(0%,0%,0%);stroke-opacity:1;stroke-miterlimit:4;" d="M 172.778646 104.464286 C 172.778646 107.142857 170.5 109.486607 167.895833 109.486607 C 165.128906 109.486607 162.85026 107.142857 162.85026 104.464286 C 162.85026 101.785714 165.128906 99.609375 167.895833 99.609375 C 170.5 99.609375 172.778646 101.785714 172.778646 104.464286 Z M 172.778646 104.464286 " transform="matrix(-0.024,0,0,0.0233333,10.6545,0)"/>
<path style="fill-rule:nonzero;fill:rgb(100%,84.705882%,23.921569%);fill-opacity:1;stroke-width:2;stroke-linecap:round;stroke-linejoin:round;stroke:rgb(0%,0%,0%);stroke-opacity:1;stroke-miterlimit:4;" d="M 161.710938 105.133929 C 161.710938 107.8125 159.432292 109.988839 156.828125 109.988839 C 154.061198 109.988839 151.782552 107.8125 151.782552 105.133929 C 151.782552 102.455357 154.061198 100.111607 156.828125 100.111607 C 159.432292 100.111607 161.710938 102.455357 161.710938 105.133929 Z M 161.710938 105.133929 " transform="matrix(-0.024,0,0,0.0233333,10.6545,0)"/>
<path style="fill-rule:nonzero;fill:rgb(100%,84.705882%,23.921569%);fill-opacity:1;stroke-width:2;stroke-linecap:round;stroke-linejoin:round;stroke:rgb(0%,0%,0%);stroke-opacity:1;stroke-miterlimit:4;" d="M 151.13151 108.649554 C 151.13151 111.495536 148.852865 113.671875 146.248698 113.671875 C 143.481771 113.671875 141.203125 111.495536 141.203125 108.649554 C 141.203125 105.970982 143.481771 103.794643 146.248698 103.794643 C 148.852865 103.794643 151.13151 105.970982 151.13151 108.649554 Z M 151.13151 108.649554 " transform="matrix(-0.024,0,0,0.0233333,10.6545,0)"/>
<path style="fill-rule:nonzero;fill:rgb(100%,84.705882%,23.921569%);fill-opacity:1;stroke-width:2;stroke-linecap:round;stroke-linejoin:round;stroke:rgb(0%,0%,0%);stroke-opacity:1;stroke-miterlimit:4;" d="M 142.179688 115.345982 C 142.179688 118.024554 140.063802 120.200893 137.296875 120.200893 C 134.529948 120.200893 132.414062 118.024554 132.414062 115.345982 C 132.414062 112.5 134.529948 110.323661 137.296875 110.323661 C 140.063802 110.323661 142.179688 112.5 142.179688 115.345982 Z M 142.179688 115.345982 " transform="matrix(-0.024,0,0,0.0233333,10.6545,0)"/>
<path style="fill-rule:nonzero;fill:rgb(100%,84.705882%,23.921569%);fill-opacity:1;stroke-width:2;stroke-linecap:round;stroke-linejoin:round;stroke:rgb(0%,0%,0%);stroke-opacity:1;stroke-miterlimit:4;" d="M 135.832031 124.386161 C 135.832031 127.064732 133.716146 129.408482 130.949219 129.408482 C 128.182292 129.408482 126.066406 127.064732 126.066406 124.386161 C 126.066406 121.707589 128.182292 119.53125 130.949219 119.53125 C 133.716146 119.53125 135.832031 121.707589 135.832031 124.386161 Z M 135.832031 124.386161 " transform="matrix(-0.024,0,0,0.0233333,10.6545,0)"/>
<path style="fill-rule:nonzero;fill:rgb(100%,84.705882%,23.921569%);fill-opacity:1;stroke-width:2;stroke-linecap:round;stroke-linejoin:round;stroke:rgb(0%,0%,0%);stroke-opacity:1;stroke-miterlimit:4;" d="M 132.902344 135.100446 C 132.902344 137.946429 130.623698 140.122768 127.856771 140.122768 C 125.252604 140.122768 122.973958 137.946429 122.973958 135.100446 C 122.973958 132.421875 125.252604 130.245536 127.856771 130.245536 C 130.623698 130.245536 132.902344 132.421875 132.902344 135.100446 Z M 132.902344 135.100446 " transform="matrix(-0.024,0,0,0.0233333,10.6545,0)"/>
<path style="fill-rule:nonzero;fill:rgb(100%,84.705882%,23.921569%);fill-opacity:1;stroke-width:2;stroke-linecap:round;stroke-linejoin:round;stroke:rgb(0%,0%,0%);stroke-opacity:1;stroke-miterlimit:4;" d="M 132.902344 146.316964 C 132.902344 148.995536 130.786458 151.171875 128.019531 151.171875 C 125.252604 151.171875 123.136719 148.995536 123.136719 146.316964 C 123.136719 143.638393 125.252604 141.294643 128.019531 141.294643 C 130.786458 141.294643 132.902344 143.638393 132.902344 146.316964 Z M 132.902344 146.316964 " transform="matrix(-0.024,0,0,0.0233333,10.6545,0)"/>
<path style="fill-rule:nonzero;fill:rgb(100%,84.705882%,23.921569%);fill-opacity:1;stroke-width:2;stroke-linecap:round;stroke-linejoin:round;stroke:rgb(0%,0%,0%);stroke-opacity:1;stroke-miterlimit:4;" d="M 135.018229 157.198661 C 135.018229 159.877232 132.902344 162.220982 130.135417 162.220982 C 127.36849 162.220982 125.252604 159.877232 125.252604 157.198661 C 125.252604 154.520089 127.36849 152.34375 130.135417 152.34375 C 132.902344 152.34375 135.018229 154.520089 135.018229 157.198661 Z M 135.018229 157.198661 " transform="matrix(-0.024,0,0,0.0233333,10.6545,0)"/>
<path style="fill-rule:nonzero;fill:rgb(100%,84.705882%,23.921569%);fill-opacity:1;stroke-width:2;stroke-linecap:round;stroke-linejoin:round;stroke:rgb(0%,0%,0%);stroke-opacity:1;stroke-miterlimit:4;" d="M 214.933594 119.53125 L 214.608073 125.892857 C 202.238281 124.051339 184.822917 117.1875 168.546875 117.1875 C 153.572917 117.1875 141.854167 123.214286 141.854167 138.448661 C 141.854167 153.348214 148.201823 166.908482 156.665365 180.636161 L 147.876302 184.821429 C 140.063802 169.587054 133.716146 156.696429 133.716146 139.285714 C 133.716146 124.720982 145.109375 110.323661 164.966146 110.323661 C 182.38151 110.323661 200.285156 116.183036 214.933594 119.53125 Z M 214.933594 119.53125 " transform="matrix(-0.024,0,0,0.0233333,10.6545,0)"/>
<path style="fill-rule:nonzero;fill:rgb(100%,84.705882%,23.921569%);fill-opacity:1;stroke-width:2;stroke-linecap:round;stroke-linejoin:round;stroke:rgb(0%,0%,0%);stroke-opacity:1;stroke-miterlimit:4;" d="M 222.005208 53.069196 L 216.796875 62.779018 L 222.005208 72.488839 L 227.050781 62.779018 Z M 222.005208 77.511161 L 216.796875 87.053571 L 222.005208 96.763393 L 227.050781 87.053571 Z M 222.005208 77.511161 " transform="matrix(0.024,0,0,0.0233333,0,0)"/>
<path style="fill-rule:nonzero;fill:rgb(100%,84.705882%,23.921569%);fill-opacity:1;stroke-width:2;stroke-linecap:round;stroke-linejoin:round;stroke:rgb(0%,0%,0%);stroke-opacity:1;stroke-miterlimit:4;" d="M 203.613281 75 L 211.751302 80.189732 L 219.889323 75 L 211.751302 69.810268 Z M 224.121094 75 L 232.259115 80.189732 L 240.397135 75 L 232.259115 69.810268 Z M 224.121094 75 " transform="matrix(0.024,0,0,0.0233333,0,0)"/>
<path style="fill-rule:nonzero;fill:rgb(100%,84.705882%,23.921569%);fill-opacity:1;stroke-width:2;stroke-linecap:round;stroke-linejoin:round;stroke:rgb(0%,0%,0%);stroke-opacity:1;stroke-miterlimit:4;" d="M 225.911458 75 C 225.911458 77.176339 224.121094 79.017857 222.005208 79.017857 C 219.889323 79.017857 218.098958 77.176339 218.098958 75 C 218.098958 72.991071 219.889323 71.149554 222.005208 71.149554 C 224.121094 71.149554 225.911458 72.991071 225.911458 75 Z M 225.911458 75 " transform="matrix(0.024,0,0,0.0233333,0,0)"/>
<path style="fill-rule:nonzero;fill:rgb(100%,84.705882%,23.921569%);fill-opacity:1;stroke-width:2;stroke-linecap:round;stroke-linejoin:round;stroke:rgb(0%,0%,0%);stroke-opacity:1;stroke-miterlimit:4;" d="M 232.421875 99.944196 C 232.421875 105.803571 227.701823 110.491071 222.005208 110.491071 C 216.145833 110.491071 211.588542 105.803571 211.588542 99.944196 C 211.588542 94.252232 216.145833 89.564732 222.005208 89.564732 C 227.701823 89.564732 232.421875 94.252232 232.421875 99.944196 Z M 232.421875 99.944196 " transform="matrix(0.024,0,0,0.0233333,0,0)"/>
<path style="fill:none;stroke-width:1.5;stroke-linecap:round;stroke-linejoin:round;stroke:rgb(0%,0%,0%);stroke-opacity:1;stroke-miterlimit:4;" d="M 219.401042 89.899554 C 219.401042 92.912946 219.401042 94.754464 219.238281 96.428571 C 216.796875 96.595982 214.355469 96.930804 211.914062 97.265625 M 232.096354 97.265625 C 229.654948 96.930804 227.213542 96.595982 224.609375 96.428571 C 224.609375 94.754464 224.609375 93.080357 224.609375 89.899554 M 211.914062 102.622768 C 215.169271 101.953125 218.58724 101.785714 222.005208 101.785714 C 225.423177 101.785714 228.841146 101.953125 232.096354 102.622768 " transform="matrix(0.024,0,0,0.0233333,0,0)"/>
<path style="fill-rule:nonzero;fill:rgb(100%,84.705882%,23.921569%);fill-opacity:1;stroke-width:2;stroke-linecap:round;stroke-linejoin:round;stroke:rgb(0%,0%,0%);stroke-opacity:1;stroke-miterlimit:4;" d="M 211.751302 117.689732 C 210.77474 134.765625 208.821615 152.176339 202.148438 164.732143 L 212.890625 160.379464 C 216.634115 146.149554 217.447917 127.566964 218.58724 118.861607 Z M 232.259115 117.689732 L 225.260417 118.861607 C 226.39974 127.566964 227.213542 146.149554 230.957031 160.379464 L 241.861979 164.732143 C 235.188802 152.176339 233.235677 134.765625 232.259115 117.689732 Z M 232.259115 117.689732 " transform="matrix(0.024,0,0,0.0233333,0,0)"/>
<path style="fill-rule:nonzero;fill:rgb(100%,84.705882%,23.921569%);fill-opacity:1;stroke-width:2;stroke-linecap:round;stroke-linejoin:round;stroke:rgb(0%,0%,0%);stroke-opacity:1;stroke-miterlimit:4;" d="M 222.005208 154.6875 C 208.984375 154.6875 199.544271 160.714286 199.05599 176.283482 C 195.800781 170.758929 182.454427 153.180804 170.084635 155.524554 C 162.597656 157.03125 156.08724 167.243304 157.226562 178.962054 C 151.041667 161.383929 133.138021 158.537946 119.954427 168.917411 C 131.673177 178.459821 136.71875 206.752232 146.647135 218.973214 L 297.363281 218.973214 C 307.128906 206.752232 312.33724 178.459821 324.05599 168.917411 C 310.872396 158.537946 292.96875 161.383929 286.783854 178.962054 C 287.923177 167.243304 281.25 157.03125 273.925781 155.524554 C 261.393229 153.180804 248.046875 170.758929 244.954427 176.283482 C 244.303385 160.714286 234.863281 154.6875 222.005208 154.6875 Z M 222.005208 154.6875 " transform="matrix(0.024,0,0,0.0233333,0,0)"/>
<path style="fill-rule:nonzero;fill:rgb(0%,0%,0%);fill-opacity:1;stroke-width:1.5;stroke-linecap:round;stroke-linejoin:round;stroke:rgb(0%,0%,0%);stroke-opacity:1;stroke-miterlimit:4;" d="M 297.03776 218.973214 C 297.03776 224.665179 263.509115 230.691964 222.005208 230.691964 C 180.501302 230.691964 146.809896 224.665179 146.809896 218.973214 C 146.809896 213.448661 180.501302 210.602679 222.005208 210.602679 C 263.509115 210.602679 297.03776 213.448661 297.03776 218.973214 Z M 297.03776 218.973214 " transform="matrix(0.024,0,0,0.0233333,0,0)"/>
<path style="fill-rule:nonzero;fill:rgb(100%,84.705882%,23.921569%);fill-opacity:1;stroke-width:1.5;stroke-linecap:round;stroke-linejoin:round;stroke:rgb(0%,0%,0%);stroke-opacity:1;stroke-miterlimit:4;" d="M 225.423177 114.508929 C 225.423177 116.350446 223.958333 118.024554 222.005208 118.024554 C 220.052083 118.024554 218.424479 116.350446 218.424479 114.508929 C 218.424479 112.5 220.052083 110.993304 222.005208 110.993304 C 223.958333 110.993304 225.423177 112.5 225.423177 114.508929 Z M 225.423177 114.508929 " transform="matrix(0.024,0,0,0.0233333,0,0)"/>
<path style="fill-rule:nonzero;fill:rgb(100%,84.705882%,23.921569%);fill-opacity:1;stroke-width:1.5;stroke-linecap:round;stroke-linejoin:round;stroke:rgb(0%,0%,0%);stroke-opacity:1;stroke-miterlimit:4;" d="M 225.748698 122.042411 C 225.748698 124.051339 223.958333 125.725446 222.005208 125.725446 C 219.889323 125.725446 218.261719 124.051339 218.261719 122.042411 C 218.261719 120.033482 219.889323 118.359375 222.005208 118.359375 C 223.958333 118.359375 225.748698 120.033482 225.748698 122.042411 Z M 225.748698 122.042411 " transform="matrix(0.024,0,0,0.0233333,0,0)"/>
<path style="fill-rule:nonzero;fill:rgb(100%,84.705882%,23.921569%);fill-opacity:1;stroke-width:1.5;stroke-linecap:round;stroke-linejoin:round;stroke:rgb(0%,0%,0%);stroke-opacity:1;stroke-miterlimit:4;" d="M 226.074219 130.245536 C 226.074219 132.421875 224.283854 134.263393 222.005208 134.263393 C 219.726562 134.263393 217.936198 132.421875 217.936198 130.245536 C 217.936198 127.901786 219.726562 126.060268 222.005208 126.060268 C 224.283854 126.060268 226.074219 127.901786 226.074219 130.245536 Z M 226.074219 130.245536 " transform="matrix(0.024,0,0,0.0233333,0,0)"/>
<path style="fill-rule:nonzero;fill:rgb(100%,84.705882%,23.921569%);fill-opacity:1;stroke-width:1.5;stroke-linecap:round;stroke-linejoin:round;stroke:rgb(0%,0%,0%);stroke-opacity:1;stroke-miterlimit:4;" d="M 226.5625 139.285714 C 226.5625 141.796875 224.609375 143.973214 222.005208 143.973214 C 219.401042 143.973214 217.285156 141.796875 217.285156 139.285714 C 217.285156 136.774554 219.401042 134.598214 222.005208 134.598214 C 224.609375 134.598214 226.5625 136.774554 226.5625 139.285714 Z M 226.5625 139.285714 " transform="matrix(0.024,0,0,0.0233333,0,0)"/>
<path style="fill-rule:nonzero;fill:rgb(100%,84.705882%,23.921569%);fill-opacity:1;stroke-width:1.5;stroke-linecap:round;stroke-linejoin:round;stroke:rgb(0%,0%,0%);stroke-opacity:1;stroke-miterlimit:4;" d="M 227.050781 149.330357 C 227.050781 152.176339 224.772135 154.520089 222.005208 154.520089 C 219.075521 154.520089 216.796875 152.176339 216.796875 149.330357 C 216.796875 146.484375 219.075521 144.308036 222.005208 144.308036 C 224.772135 144.308036 227.050781 146.484375 227.050781 149.330357 Z M 227.050781 149.330357 " transform="matrix(0.024,0,0,0.0233333,0,0)"/>
<path style=" stroke:none;fill-rule:nonzero;fill:rgb(0%,0%,0%);fill-opacity:1;" d="M 5.277344 3.714844 C 5.265625 3.714844 5.253906 3.726562 5.257812 3.746094 C 5.261719 3.769531 5.265625 3.816406 5.269531 3.847656 C 5.273438 3.882812 5.296875 3.875 5.300781 3.847656 C 5.304688 3.820312 5.304688 3.800781 5.304688 3.75 C 5.304688 3.726562 5.292969 3.714844 5.277344 3.714844 Z M 5.375 3.714844 C 5.363281 3.714844 5.347656 3.726562 5.347656 3.75 C 5.351562 3.800781 5.347656 3.820312 5.351562 3.847656 C 5.359375 3.875 5.378906 3.882812 5.386719 3.847656 C 5.390625 3.816406 5.394531 3.769531 5.398438 3.746094 C 5.402344 3.726562 5.390625 3.714844 5.375 3.714844 Z M 5.191406 3.726562 C 5.179688 3.730469 5.167969 3.742188 5.167969 3.753906 C 5.167969 3.777344 5.175781 3.804688 5.179688 3.839844 C 5.179688 3.875 5.207031 3.863281 5.210938 3.839844 C 5.210938 3.820312 5.214844 3.789062 5.210938 3.75 C 5.210938 3.734375 5.203125 3.730469 5.195312 3.726562 C 5.195312 3.726562 5.191406 3.726562 5.191406 3.726562 Z M 5.457031 3.726562 C 5.449219 3.730469 5.441406 3.734375 5.441406 3.75 C 5.4375 3.789062 5.441406 3.820312 5.445312 3.839844 C 5.449219 3.863281 5.472656 3.875 5.476562 3.839844 C 5.480469 3.804688 5.484375 3.777344 5.488281 3.753906 C 5.488281 3.742188 5.476562 3.730469 5.464844 3.726562 C 5.460938 3.726562 5.460938 3.726562 5.457031 3.726562 Z M 5.085938 3.769531 C 5.074219 3.773438 5.066406 3.785156 5.070312 3.800781 C 5.074219 3.828125 5.082031 3.863281 5.082031 3.890625 C 5.082031 3.917969 5.105469 3.910156 5.105469 3.890625 C 5.105469 3.871094 5.109375 3.835938 5.109375 3.800781 C 5.109375 3.773438 5.097656 3.765625 5.085938 3.769531 Z M 5.558594 3.769531 C 5.550781 3.769531 5.542969 3.78125 5.542969 3.800781 C 5.542969 3.835938 5.546875 3.871094 5.546875 3.890625 C 5.550781 3.910156 5.574219 3.917969 5.574219 3.890625 C 5.574219 3.863281 5.578125 3.828125 5.585938 3.800781 C 5.589844 3.785156 5.578125 3.773438 5.566406 3.769531 C 5.566406 3.769531 5.5625 3.769531 5.558594 3.769531 Z M 4.140625 3.773438 C 4.128906 3.773438 4.117188 3.789062 4.128906 3.808594 C 4.144531 3.839844 4.15625 3.859375 4.171875 3.894531 C 4.1875 3.921875 4.207031 3.902344 4.199219 3.882812 C 4.191406 3.863281 4.1875 3.839844 4.167969 3.796875 C 4.160156 3.78125 4.148438 3.773438 4.140625 3.773438 Z M 6.511719 3.773438 C 6.503906 3.773438 6.496094 3.78125 6.488281 3.796875 C 6.46875 3.839844 6.460938 3.863281 6.453125 3.882812 C 6.449219 3.902344 6.46875 3.921875 6.480469 3.894531 C 6.496094 3.859375 6.511719 3.839844 6.527344 3.808594 C 6.535156 3.789062 6.527344 3.773438 6.511719 3.773438 Z M 4.238281 3.773438 C 4.226562 3.777344 4.222656 3.789062 4.226562 3.804688 C 4.238281 3.832031 4.257812 3.859375 4.269531 3.890625 C 4.28125 3.917969 4.304688 3.910156 4.296875 3.886719 C 4.289062 3.863281 4.285156 3.847656 4.269531 3.800781 C 4.261719 3.777344 4.246094 3.769531 4.238281 3.773438 Z M 6.410156 3.773438 C 6.402344 3.777344 6.390625 3.785156 6.386719 3.800781 C 6.371094 3.847656 6.367188 3.863281 6.359375 3.886719 C 6.351562 3.910156 6.375 3.917969 6.386719 3.890625 C 6.398438 3.859375 6.414062 3.832031 6.425781 3.804688 C 6.433594 3.789062 6.425781 3.777344 6.417969 3.773438 C 6.414062 3.773438 6.414062 3.773438 6.410156 3.773438 Z M 4.359375 3.796875 C 4.34375 3.800781 4.335938 3.816406 4.34375 3.839844 C 4.355469 3.867188 4.371094 3.894531 4.382812 3.925781 C 4.394531 3.960938 4.417969 3.953125 4.414062 3.933594 C 4.40625 3.910156 4.402344 3.878906 4.386719 3.824219 C 4.378906 3.804688 4.367188 3.796875 4.359375 3.796875 Z M 6.296875 3.796875 C 6.289062 3.796875 6.277344 3.804688 6.269531 3.824219 C 6.253906 3.878906 6.246094 3.910156 6.242188 3.933594 C 6.234375 3.953125 6.257812 3.960938 6.273438 3.925781 C 6.285156 3.894531 6.300781 3.867188 6.308594 3.839844 C 6.320312 3.816406 6.308594 3.800781 6.296875 3.796875 Z M 4.058594 3.8125 C 4.046875 3.8125 4.035156 3.835938 4.042969 3.851562 C 4.054688 3.878906 4.066406 3.886719 4.078125 3.914062 C 4.089844 3.941406 4.105469 3.917969 4.101562 3.902344 C 4.09375 3.882812 4.089844 3.863281 4.082031 3.835938 C 4.078125 3.816406 4.070312 3.8125 4.058594 3.8125 Z M 6.59375 3.8125 C 6.585938 3.8125 6.578125 3.816406 6.574219 3.835938 C 6.566406 3.863281 6.558594 3.882812 6.554688 3.902344 C 6.550781 3.917969 6.5625 3.941406 6.578125 3.914062 C 6.589844 3.886719 6.597656 3.878906 6.609375 3.851562 C 6.621094 3.835938 6.605469 3.8125 6.59375 3.8125 Z M 4.984375 3.878906 C 4.972656 3.878906 4.957031 3.894531 4.960938 3.914062 C 4.96875 3.941406 4.980469 3.964844 4.992188 4 C 5 4.03125 5.019531 4.015625 5.019531 3.992188 C 5.019531 3.972656 5.015625 3.945312 5.003906 3.902344 C 5.003906 3.886719 4.992188 3.878906 4.984375 3.878906 Z M 5.667969 3.878906 C 5.660156 3.878906 5.652344 3.886719 5.648438 3.902344 C 5.640625 3.945312 5.636719 3.972656 5.632812 3.992188 C 5.632812 4.015625 5.65625 4.03125 5.664062 4 C 5.671875 3.964844 5.683594 3.941406 5.691406 3.914062 C 5.699219 3.894531 5.683594 3.878906 5.667969 3.878906 Z M 5.328125 3.90625 C 5.308594 3.90625 5.308594 3.929688 5.308594 3.945312 C 5.304688 4.007812 5.28125 4.066406 5.257812 4.09375 C 5.234375 4.121094 5.203125 4.117188 5.171875 4.101562 C 5.144531 4.085938 5.125 4.074219 5.09375 4.050781 C 5.0625 4.027344 5.039062 4.039062 5.074219 4.09375 C 5.1875 4.246094 5.308594 4.378906 5.308594 4.628906 C 5.308594 4.660156 5.3125 4.671875 5.328125 4.671875 C 5.339844 4.671875 5.347656 4.660156 5.347656 4.628906 C 5.347656 4.378906 5.46875 4.246094 5.578125 4.09375 C 5.617188 4.039062 5.59375 4.027344 5.558594 4.050781 C 5.527344 4.074219 5.511719 4.085938 5.480469 4.101562 C 5.449219 4.117188 5.417969 4.121094 5.398438 4.09375 C 5.375 4.066406 5.347656 4.007812 5.347656 3.945312 C 5.347656 3.929688 5.34375 3.90625 5.328125 3.90625 Z M 4.480469 3.867188 C 4.480469 3.867188 4.476562 3.867188 4.476562 3.867188 C 4.46875 3.871094 4.464844 3.878906 4.46875 3.890625 C 4.472656 3.914062 4.488281 3.960938 4.496094 3.984375 C 4.503906 4.003906 4.53125 4 4.523438 3.96875 C 4.515625 3.941406 4.515625 3.933594 4.507812 3.898438 C 4.503906 3.878906 4.492188 3.867188 4.480469 3.867188 Z M 6.175781 3.867188 C 6.164062 3.867188 6.148438 3.878906 6.144531 3.898438 C 6.136719 3.933594 6.136719 3.941406 6.132812 3.96875 C 6.125 4 6.152344 4.003906 6.160156 3.984375 C 6.164062 3.960938 6.183594 3.914062 6.1875 3.890625 C 6.1875 3.878906 6.183594 3.871094 6.179688 3.867188 C 6.175781 3.867188 6.175781 3.867188 6.175781 3.867188 Z M 3.976562 3.878906 C 3.964844 3.878906 3.953125 3.894531 3.96875 3.921875 C 3.984375 3.949219 4.007812 3.980469 4.019531 4 C 4.03125 4.019531 4.054688 4.007812 4.039062 3.984375 C 4.023438 3.957031 4.019531 3.929688 4.003906 3.894531 C 3.996094 3.882812 3.984375 3.878906 3.976562 3.878906 Z M 6.675781 3.878906 C 6.667969 3.878906 6.660156 3.882812 6.652344 3.894531 C 6.636719 3.929688 6.628906 3.957031 6.617188 3.984375 C 6.601562 4.007812 6.621094 4.019531 6.632812 4 C 6.644531 3.980469 6.671875 3.949219 6.6875 3.921875 C 6.699219 3.894531 6.691406 3.878906 6.675781 3.878906 Z M 3.214844 3.957031 C 3.199219 3.953125 3.195312 3.984375 3.210938 4 C 3.234375 4.027344 3.246094 4.042969 3.273438 4.066406 C 3.292969 4.082031 3.296875 4.058594 3.289062 4.042969 C 3.277344 4.023438 3.265625 4.007812 3.246094 3.976562 C 3.234375 3.960938 3.222656 3.957031 3.214844 3.957031 Z M 7.4375 3.957031 C 7.429688 3.957031 7.421875 3.960938 7.410156 3.976562 C 7.390625 4.007812 7.375 4.023438 7.367188 4.042969 C 7.355469 4.058594 7.363281 4.082031 7.382812 4.066406 C 7.40625 4.042969 7.421875 4.027344 7.445312 4 C 7.457031 3.984375 7.453125 3.953125 7.4375 3.957031 Z M 3.335938 3.980469 C 3.324219 3.980469 3.316406 3.988281 3.328125 4.007812 C 3.339844 4.039062 3.359375 4.074219 3.371094 4.097656 C 3.382812 4.121094 3.417969 4.128906 3.40625 4.09375 C 3.390625 4.054688 3.386719 4.039062 3.375 4.003906 C 3.367188 3.988281 3.351562 3.980469 3.335938 3.980469 Z M 7.316406 3.980469 C 7.304688 3.980469 7.285156 3.988281 7.28125 4.003906 C 7.265625 4.039062 7.265625 4.054688 7.25 4.09375 C 7.234375 4.128906 7.269531 4.121094 7.285156 4.097656 C 7.296875 4.074219 7.3125 4.039062 7.328125 4.007812 C 7.339844 3.988281 7.328125 3.980469 7.316406 3.980469 Z M 3.101562 3.988281 C 3.085938 3.988281 3.082031 4.003906 3.101562 4.015625 C 3.121094 4.03125 3.148438 4.050781 3.171875 4.070312 C 3.203125 4.09375 3.214844 4.070312 3.199219 4.050781 C 3.183594 4.03125 3.167969 4.011719 3.128906 3.992188 C 3.117188 3.988281 3.109375 3.988281 3.101562 3.988281 Z M 7.550781 3.988281 C 7.542969 3.988281 7.535156 3.988281 7.527344 3.992188 C 7.488281 4.011719 7.472656 4.03125 7.457031 4.050781 C 7.441406 4.070312 7.453125 4.09375 7.480469 4.070312 C 7.507812 4.050781 7.53125 4.03125 7.554688 4.015625 C 7.570312 4.003906 7.570312 3.988281 7.550781 3.988281 Z M 4.917969 4.003906 C 4.910156 4.003906 4.898438 4.015625 4.902344 4.03125 C 4.914062 4.058594 4.921875 4.085938 4.925781 4.113281 C 4.933594 4.140625 4.964844 4.140625 4.960938 4.117188 C 4.953125 4.09375 4.949219 4.0625 4.941406 4.027344 C 4.9375 4.011719 4.929688 4.003906 4.921875 4.003906 C 4.921875 4.003906 4.921875 4.003906 4.917969 4.003906 Z M 5.730469 4.003906 C 5.722656 4.003906 5.714844 4.011719 5.710938 4.027344 C 5.703125 4.0625 5.699219 4.09375 5.695312 4.117188 C 5.691406 4.140625 5.722656 4.140625 5.726562 4.113281 C 5.734375 4.085938 5.742188 4.058594 5.75 4.03125 C 5.753906 4.015625 5.746094 4.003906 5.734375 4.003906 C 5.734375 4.003906 5.730469 4.003906 5.730469 4.003906 Z M 4.195312 3.957031 C 4.1875 3.960938 4.183594 3.972656 4.191406 3.996094 C 4.222656 4.113281 4.234375 4.175781 4.226562 4.207031 C 4.222656 4.234375 4.207031 4.238281 4.183594 4.226562 C 4.164062 4.21875 4.136719 4.203125 4.117188 4.191406 C 4.097656 4.179688 4.074219 4.195312 4.105469 4.21875 C 4.25 4.332031 4.351562 4.464844 4.390625 4.625 C 4.398438 4.660156 4.417969 4.664062 4.414062 4.625 C 4.378906 4.425781 4.375 4.257812 4.421875 4.152344 C 4.441406 4.113281 4.421875 4.074219 4.394531 4.140625 C 4.375 4.183594 4.339844 4.199219 4.316406 4.164062 C 4.289062 4.125 4.234375 4.027344 4.21875 3.984375 C 4.214844 3.964844 4.207031 3.957031 4.199219 3.957031 C 4.199219 3.957031 4.199219 3.957031 4.195312 3.957031 Z M 6.453125 3.957031 C 6.449219 3.957031 6.441406 3.964844 6.433594 3.984375 C 6.417969 4.027344 6.363281 4.125 6.339844 4.164062 C 6.3125 4.199219 6.28125 4.183594 6.261719 4.140625 C 6.230469 4.074219 6.210938 4.113281 6.230469 4.152344 C 6.28125 4.257812 6.273438 4.425781 6.242188 4.625 C 6.234375 4.664062 6.257812 4.660156 6.265625 4.625 C 6.304688 4.464844 6.40625 4.332031 6.550781 4.21875 C 6.578125 4.195312 6.558594 4.179688 6.539062 4.191406 C 6.519531 4.203125 6.492188 4.21875 6.46875 4.226562 C 6.449219 4.238281 6.433594 4.234375 6.425781 4.207031 C 6.421875 4.175781 6.429688 4.113281 6.464844 3.996094 C 6.46875 3.972656 6.464844 3.960938 6.457031 3.957031 C 6.457031 3.957031 6.453125 3.957031 6.453125 3.957031 Z M 3.464844 4.015625 C 3.453125 4.015625 3.441406 4.023438 3.449219 4.042969 C 3.457031 4.074219 3.476562 4.105469 3.484375 4.125 C 3.492188 4.144531 3.511719 4.136719 3.507812 4.109375 C 3.503906 4.082031 3.503906 4.066406 3.496094 4.035156 C 3.496094 4.023438 3.480469 4.011719 3.464844 4.015625 Z M 7.1875 4.015625 C 7.175781 4.011719 7.160156 4.023438 7.15625 4.035156 C 7.152344 4.066406 7.148438 4.082031 7.144531 4.109375 C 7.140625 4.136719 7.164062 4.144531 7.171875 4.125 C 7.175781 4.105469 7.195312 4.074219 7.207031 4.042969 C 7.210938 4.023438 7.199219 4.015625 7.1875 4.015625 Z M 3.917969 3.972656 C 3.902344 3.96875 3.898438 4.007812 3.914062 4.023438 C 3.929688 4.046875 3.953125 4.070312 3.976562 4.097656 C 3.996094 4.121094 4.011719 4.101562 4 4.082031 C 3.984375 4.0625 3.96875 4.042969 3.9375 3.992188 C 3.929688 3.980469 3.921875 3.972656 3.917969 3.972656 Z M 6.738281 3.972656 C 6.730469 3.972656 6.726562 3.980469 6.71875 3.992188 C 6.6875 4.042969 6.667969 4.0625 6.65625 4.082031 C 6.644531 4.101562 6.65625 4.121094 6.675781 4.097656 C 6.699219 4.070312 6.722656 4.046875 6.742188 4.023438 C 6.753906 4.007812 6.753906 3.96875 6.738281 3.972656 Z M 3.570312 4.066406 C 3.558594 4.066406 3.550781 4.074219 3.554688 4.089844 C 3.5625 4.117188 3.570312 4.140625 3.574219 4.164062 C 3.582031 4.1875 3.601562 4.183594 3.601562 4.160156 C 3.601562 4.136719 3.597656 4.109375 3.589844 4.085938 C 3.589844 4.074219 3.578125 4.066406 3.570312 4.066406 Z M 7.085938 4.066406 C 7.074219 4.066406 7.066406 4.074219 7.0625 4.085938 C 7.058594 4.109375 7.054688 4.136719 7.054688 4.160156 C 7.054688 4.183594 7.070312 4.1875 7.078125 4.164062 C 7.085938 4.140625 7.09375 4.117188 7.097656 4.089844 C 7.101562 4.074219 7.09375 4.066406 7.085938 4.066406 Z M 3.882812 4.097656 C 3.867188 4.101562 3.855469 4.113281 3.871094 4.136719 C 3.902344 4.171875 3.929688 4.195312 3.941406 4.207031 C 3.953125 4.222656 3.980469 4.21875 3.960938 4.191406 C 3.945312 4.164062 3.917969 4.128906 3.90625 4.109375 C 3.902344 4.101562 3.890625 4.097656 3.882812 4.097656 Z M 6.765625 4.097656 C 6.757812 4.097656 6.75 4.101562 6.75 4.109375 C 6.738281 4.128906 6.710938 4.164062 6.691406 4.191406 C 6.675781 4.21875 6.703125 4.222656 6.710938 4.207031 C 6.722656 4.195312 6.753906 4.171875 6.78125 4.136719 C 6.800781 4.113281 6.785156 4.101562 6.769531 4.097656 C 6.769531 4.097656 6.765625 4.097656 6.765625 4.097656 Z M 3.386719 4.195312 C 3.375 4.195312 3.371094 4.203125 3.386719 4.226562 C 3.421875 4.273438 3.464844 4.34375 3.464844 4.375 C 3.46875 4.40625 3.453125 4.40625 3.4375 4.40625 C 3.394531 4.40625 3.371094 4.375 3.332031 4.367188 C 3.292969 4.359375 3.289062 4.378906 3.316406 4.398438 C 3.460938 4.5 3.609375 4.617188 3.667969 4.722656 C 3.691406 4.761719 3.722656 4.777344 3.703125 4.738281 C 3.648438 4.613281 3.636719 4.507812 3.648438 4.445312 C 3.660156 4.378906 3.675781 4.335938 3.675781 4.300781 C 3.671875 4.265625 3.652344 4.265625 3.644531 4.300781 C 3.636719 4.324219 3.625 4.355469 3.617188 4.367188 C 3.609375 4.378906 3.578125 4.386719 3.546875 4.34375 C 3.515625 4.304688 3.4375 4.226562 3.414062 4.207031 C 3.40625 4.203125 3.394531 4.195312 3.386719 4.195312 Z M 7.265625 4.195312 C 7.257812 4.195312 7.25 4.203125 7.242188 4.207031 C 7.214844 4.226562 7.136719 4.304688 7.109375 4.34375 C 7.078125 4.386719 7.046875 4.378906 7.039062 4.367188 C 7.027344 4.355469 7.019531 4.324219 7.011719 4.300781 C 7.003906 4.265625 6.980469 4.265625 6.980469 4.300781 C 6.976562 4.335938 6.992188 4.378906 7.003906 4.445312 C 7.019531 4.507812 7.003906 4.613281 6.949219 4.738281 C 6.929688 4.777344 6.964844 4.761719 6.988281 4.722656 C 7.046875 4.617188 7.191406 4.5 7.339844 4.398438 C 7.367188 4.378906 7.359375 4.359375 7.320312 4.367188 C 7.28125 4.375 7.261719 4.40625 7.214844 4.40625 C 7.203125 4.40625 7.1875 4.40625 7.1875 4.375 C 7.191406 4.34375 7.230469 4.273438 7.265625 4.226562 C 7.28125 4.203125 7.277344 4.195312 7.265625 4.195312 Z M 7.265625 4.195312 "/>
<path style="fill-rule:nonzero;fill:rgb(100%,84.705882%,23.921569%);fill-opacity:1;stroke-width:1.5;stroke-linecap:round;stroke-linejoin:round;stroke:rgb(0%,0%,0%);stroke-opacity:1;stroke-miterlimit:4;" d="M 150.065104 212.611607 L 152.018229 218.805804 M 154.134115 211.439732 L 155.924479 217.801339 M 158.528646 210.770089 L 159.667969 217.131696 M 162.434896 209.933036 L 163.736979 216.294643 M 167.643229 209.430804 L 168.619792 215.792411 M 173.177083 209.430804 L 174.316406 215.792411 M 178.548177 207.589286 L 179.361979 214.118304 M 183.59375 207.924107 L 184.244792 214.453125 M 188.313802 207.254464 L 189.127604 213.783482 M 193.359375 206.752232 L 193.684896 213.28125 M 198.567708 206.752232 L 198.893229 213.28125 M 203.28776 206.417411 L 203.613281 212.946429 M 208.496094 206.25 L 208.821615 212.611607 M 214.518229 206.082589 L 214.84375 212.444196 M 293.782552 212.611607 L 291.829427 218.805804 M 289.876302 211.439732 L 288.085938 217.801339 M 285.481771 210.770089 L 284.342448 217.131696 M 281.41276 209.933036 L 280.110677 216.294643 M 276.367188 209.430804 L 275.227865 215.792411 M 270.833333 209.430804 L 269.69401 215.792411 M 265.46224 207.589286 L 264.648438 214.118304 M 260.416667 207.924107 L 259.602865 214.453125 M 255.533854 207.254464 L 254.720052 213.783482 M 250.651042 206.752232 L 250.16276 213.28125 M 245.442708 206.752232 L 245.117188 213.28125 M 240.722656 206.417411 L 240.397135 212.946429 M 235.514323 206.25 L 235.188802 212.611607 M 229.492188 206.082589 L 229.166667 212.444196 M 222.005208 205.580357 L 222.005208 212.779018 " transform="matrix(0.024,0,0,0.0233333,0,0)"/>
</g>
</svg>
