<?xml version="1.0" encoding="UTF-8"?>
<svg xmlns="http://www.w3.org/2000/svg" xmlns:xlink="http://www.w3.org/1999/xlink" width="24px" height="24px" viewBox="0 0 24 12" version="1.1">
<g id="surface1">
<rect x="0" y="0" width="24" height="12" style="fill:rgb(74.901961%,3.921569%,18.823529%);fill-opacity:1;stroke:none;"/>
<path style="fill-rule:nonzero;fill:rgb(0%,0%,0%);fill-opacity:1;stroke-width:10;stroke-linecap:butt;stroke-linejoin:miter;stroke:rgb(100%,100%,100%);stroke-opacity:1;stroke-miterlimit:4;" d="M 0 15.003255 L 209 15.003255 M 0 34.983724 L 209 34.983724 M 0 55 L 209 55 M 0 75.016276 L 209 75.016276 M 0 94.996745 L 209 94.996745 " transform="matrix(0.114833,0,0,0.109091,0,0)"/>
<path style=" stroke:none;fill-rule:nonzero;fill:rgb(0%,15.686275%,40.784314%);fill-opacity:1;" d="M 0 0 L 5.742188 0 L 5.742188 5.453125 L 0 5.453125 Z M 0 0 "/>
<path style=" stroke:none;fill-rule:nonzero;fill:rgb(100%,100%,100%);fill-opacity:1;" d="M 2.871094 1.089844 L 2.339844 2.648438 L 3.15625 2.898438 Z M 2.871094 1.089844 "/>
<path style=" stroke:none;fill-rule:nonzero;fill:rgb(100%,100%,100%);fill-opacity:1;" d="M 2.871094 1.089844 L 3.402344 2.648438 L 2.585938 2.898438 Z M 2.871094 1.089844 "/>
<path style=" stroke:none;fill-rule:nonzero;fill:rgb(100%,100%,100%);fill-opacity:1;" d="M 4.507812 2.222656 L 2.785156 2.222656 L 2.785156 3.039062 Z M 4.507812 2.222656 "/>
<path style=" stroke:none;fill-rule:nonzero;fill:rgb(100%,100%,100%);fill-opacity:1;" d="M 4.507812 2.222656 L 3.117188 3.183594 L 2.609375 2.523438 Z M 4.507812 2.222656 "/>
<path style=" stroke:none;fill-rule:nonzero;fill:rgb(100%,100%,100%);fill-opacity:1;" d="M 1.234375 2.222656 L 2.625 3.183594 L 3.132812 2.523438 Z M 1.234375 2.222656 "/>
<path style=" stroke:none;fill-rule:nonzero;fill:rgb(100%,100%,100%);fill-opacity:1;" d="M 1.234375 2.222656 L 2.957031 2.222656 L 2.957031 3.039062 Z M 1.234375 2.222656 "/>
<path style=" stroke:none;fill-rule:nonzero;fill:rgb(100%,100%,100%);fill-opacity:1;" d="M 3.882812 4.050781 L 3.351562 2.496094 L 2.53125 2.746094 Z M 3.882812 4.050781 "/>
<path style=" stroke:none;fill-rule:nonzero;fill:rgb(100%,100%,100%);fill-opacity:1;" d="M 3.882812 4.050781 L 2.488281 3.089844 L 2.996094 2.425781 Z M 3.882812 4.050781 "/>
<path style=" stroke:none;fill-rule:nonzero;fill:rgb(100%,100%,100%);fill-opacity:1;" d="M 1.859375 4.050781 L 3.25 3.089844 L 2.746094 2.425781 Z M 1.859375 4.050781 "/>
<path style=" stroke:none;fill-rule:nonzero;fill:rgb(100%,100%,100%);fill-opacity:1;" d="M 1.859375 4.050781 L 2.390625 2.496094 L 3.210938 2.746094 Z M 1.859375 4.050781 "/>
</g>
</svg>
