<?xml version="1.0" encoding="UTF-8"?>
<svg xmlns="http://www.w3.org/2000/svg" xmlns:xlink="http://www.w3.org/1999/xlink" width="24px" height="24px" viewBox="0 0 24 12" version="1.1">
<g id="surface1">
<rect x="0" y="0" width="24" height="12" style="fill:rgb(13.72549%,61.960784%,27.45098%);fill-opacity:1;stroke:none;"/>
<path style=" stroke:none;fill-rule:nonzero;fill:rgb(0%,0%,0%);fill-opacity:1;" d="M 0 0 L 24 0 L 24 9 L 0 9 Z M 0 0 "/>
<path style=" stroke:none;fill-rule:nonzero;fill:rgb(90.588235%,0%,7.45098%);fill-opacity:1;" d="M 0 0 L 24 0 L 24 3 L 0 3 Z M 0 0 "/>
<path style=" stroke:none;fill-rule:nonzero;fill:rgb(100%,100%,100%);fill-opacity:1;" d="M 13.5 6 C 13.5 6.828125 12.828125 7.5 12 7.5 C 11.171875 7.5 10.5 6.828125 10.5 6 C 10.5 5.171875 11.171875 4.5 12 4.5 C 12.828125 4.5 13.5 5.171875 13.5 6 Z M 13.5 6 "/>
<path style=" stroke:none;fill-rule:nonzero;fill:rgb(0%,0%,0%);fill-opacity:1;" d="M 13.605469 6 C 13.605469 6.71875 13.023438 7.304688 12.304688 7.304688 C 11.582031 7.304688 11 6.71875 11 6 C 11 5.28125 11.582031 4.695312 12.304688 4.695312 C 13.023438 4.695312 13.605469 5.28125 13.605469 6 Z M 13.605469 6 "/>
<path style=" stroke:none;fill-rule:nonzero;fill:rgb(100%,100%,100%);fill-opacity:1;" d="M 12.730469 6 L 14.746094 5.34375 L 13.5 7.0625 L 13.5 4.9375 L 14.746094 6.65625 Z M 12.730469 6 "/>
</g>
</svg>
