<?xml version="1.0" encoding="utf-8"?>
<svg viewBox="0 0 24 12" width="24px" height="12px" xmlns="http://www.w3.org/2000/svg">
  <defs/>
  <path fill="#C8102E" d="M 0 0 L 24 0 L 24 12 L 0 12 L 0 0 Z" style="vector-effect: non-scaling-stroke;"/>
  <path fill="#FFD100" d="M 0 0 L 16 0 L 16 12 L 0 12 L 0 0 Z" style="vector-effect: non-scaling-stroke;"/>
  <path fill="#003DA5" d="M 0 0 L 8 0 L 8 12 L 0 12 L 0 0 Z" style="vector-effect: non-scaling-stroke;"/>
  <path d="M 11.303 2.443 C 11.26 2.443 11.222 2.454 11.2 2.471 C 11.235 2.481 11.26 2.513 11.26 2.552 L 11.26 2.651 L 11.161 2.651 C 11.122 2.651 11.09 2.626 11.08 2.592 C 11.063 2.614 11.052 2.651 11.052 2.694 C 11.052 2.737 11.063 2.775 11.08 2.797 C 11.09 2.762 11.122 2.737 11.161 2.737 L 11.26 2.737 L 11.26 3.212 C 11.26 3.25 11.237 3.281 11.204 3.292 C 11.251 3.299 11.292 3.362 11.303 3.397 C 11.314 3.362 11.355 3.299 11.402 3.292 C 11.368 3.281 11.345 3.248 11.346 3.212 L 11.346 2.737 L 11.445 2.737 C 11.483 2.737 11.515 2.762 11.526 2.796 C 11.543 2.774 11.554 2.737 11.554 2.694 C 11.554 2.651 11.543 2.613 11.526 2.591 C 11.516 2.626 11.484 2.651 11.445 2.651 L 11.346 2.651 L 11.346 2.552 C 11.346 2.514 11.37 2.482 11.405 2.471 C 11.383 2.454 11.345 2.443 11.303 2.443 L 11.303 2.443 Z" style="vector-effect: non-scaling-stroke;"/>
  <path fill="#FFD100" d="M 11.303 2.464 C 11.28 2.464 11.26 2.468 11.244 2.473 C 11.266 2.493 11.281 2.521 11.281 2.552 L 11.281 2.651 C 11.281 2.653 11.28 2.654 11.28 2.656 L 11.28 2.671 L 11.264 2.671 C 11.263 2.672 11.262 2.672 11.26 2.672 L 11.161 2.672 C 11.13 2.672 11.102 2.657 11.083 2.636 C 11.077 2.653 11.073 2.672 11.073 2.694 C 11.073 2.717 11.077 2.737 11.082 2.753 C 11.101 2.731 11.129 2.716 11.161 2.716 L 11.281 2.716 C 11.281 2.718 11.28 2.72 11.28 2.722 L 11.28 2.733 C 11.28 2.734 11.281 2.735 11.281 2.737 L 11.281 3.213 C 11.281 3.243 11.265 3.268 11.244 3.287 C 11.259 3.296 11.272 3.308 11.283 3.321 C 11.293 3.333 11.296 3.344 11.303 3.357 C 11.31 3.344 11.314 3.333 11.324 3.321 C 11.335 3.308 11.347 3.297 11.362 3.288 C 11.341 3.268 11.325 3.244 11.325 3.213 L 11.325 2.717 L 11.341 2.717 C 11.343 2.717 11.344 2.716 11.346 2.716 L 11.444 2.716 C 11.476 2.716 11.504 2.731 11.523 2.752 C 11.529 2.736 11.533 2.717 11.533 2.694 C 11.533 2.671 11.529 2.652 11.524 2.635 C 11.504 2.657 11.476 2.672 11.444 2.672 L 11.346 2.672 C 11.344 2.672 11.343 2.671 11.341 2.671 L 11.326 2.671 L 11.326 2.656 C 11.325 2.654 11.325 2.653 11.325 2.651 L 11.325 2.552 C 11.325 2.521 11.339 2.493 11.361 2.474 C 11.344 2.468 11.325 2.464 11.303 2.464" style="vector-effect: non-scaling-stroke;"/>
  <path d="M 12.541 4.186 C 12.481 4.144 12.431 4.095 12.396 4.038 C 12.311 3.902 12.275 3.735 12.275 3.565 C 12.275 3.493 12.356 3.412 12.356 3.354 C 12.356 3.266 12.348 3.213 12.348 3.213 C 12.376 3.217 12.426 3.268 12.426 3.268 C 12.426 3.268 12.424 3.122 12.378 3.096 C 12.378 3.096 12.397 3.077 12.464 3.075 C 12.445 3.027 12.352 2.969 12.352 2.969 C 12.356 2.96 12.365 2.953 12.376 2.947 C 12.4 2.934 12.433 2.925 12.458 2.92 C 12.431 2.915 12.4 2.906 12.366 2.895 C 12.288 2.87 12.196 2.832 12.111 2.791 C 11.954 2.716 11.835 2.711 11.769 2.711 C 11.722 2.711 11.652 2.713 11.61 2.74 C 11.573 2.765 11.576 2.798 11.563 2.809 C 11.532 2.836 11.478 2.835 11.453 2.835 C 11.287 2.835 11.281 3.012 11.281 3.012 C 11.281 3.012 11.323 2.948 11.398 2.948 C 11.523 2.948 11.617 3.016 11.617 3.042 C 11.617 3.052 11.604 3.054 11.604 3.054 C 11.522 3.054 11.399 3.007 11.334 3.005 L 11.334 3.037 C 11.48 3.088 11.627 3.16 11.627 3.476 C 11.627 3.675 11.604 3.878 11.504 4.038 C 11.469 4.095 11.418 4.143 11.358 4.187 L 11.95 4.293 L 12.541 4.186 Z" style="vector-effect: non-scaling-stroke;"/>
  <g id="a" transform="matrix(0.013333, 0, 0, 0.013333, 0, 0)">
    <path d="M896.222 303.988l-44.383 10c-2.019-.61-11.513-3.56-18.174-7.269-11.726-6.532-17.806-13.03-31.74-13.669v-10.598c0-5.662 2.049-10.763 2.049-16.177-5.874-1.575-22.178-21.51-37.218-30.358-22.13 14.334-39.265 37.865-39.265 48.686 0 0 .665 232.51 0 313.51 0 4.668-2.815 11.263-2.815 11.263 8.079-3.418 22.888-23.68 26.006-31.382v3.687c12.201-5.564 21.135-20.184 25.136-27.747.071 1.094.257 3.839.257 3.839 10.9-9.555 24.776-66.038 24.776-66.038l23.124 22.725s-8.363 16.976-11.621 20.015c0 0 2.184.277 4.658.256-1.522 2.188-13.147 18.925-16.791 25.238-3.41 5.906-5.816 3.277-11.058 3.277-4.347 0-14.2 6.925-15.818 9.727-1.701 2.945-2.968 6.523-2.968 9.471 0 3.24 3.43 7.68 3.43 7.68.369-1.552 1.023-2.1 1.023-2.1s9.013 11.228 10.341 12.695c1.034 1.143 5.645 1.886 7.27.411 4.066-3.697 8.002-6.282 11.621-11.62 1.863-2.752 2.005-5.905 4.146-8.859 7.162-9.88 21.415-28.799 24.675-33.12.218 1.203.405 2.205.612 3.43 3.694-7.458 21.451-21.707 21.451-21.707l18.578 8.55s-34.687 79.735-65.476 91.995c0 0 13.395 5.691 29.845 14.232a447.91 447.91 0 017.372 3.943 203.524 203.524 0 006.399-8.14c9.836-13.16 19.455-28.413 19.455-28.413.67 3.961-4.524 16.194-13.31 31.281-1.728 2.964-3.53 6.064-5.529 9.213a333.743 333.743 0 016.655 3.892c16.295 9.805 31.598 21.077 37.267 31.432l4-10.009-4-10.009V317.264l2-5z" style="vector-effect: non-scaling-stroke;"/>
    <g fill="#AD7C59">
      <path d="M896.202 667.221c-5.749-6.236-17.769-13.855-31.278-20.886 16.334-29.316 24.428-75.655 20.63-84.88 0 0-6.705 24.033-14.898 37.729-7.586 12.684-16.925 26.95-25.954 37.526-7.428-3.169-14.631-5.828-20.785-7.68 27.058-20.843 54.726-89.742 54.726-89.742l-28.612-13.26s-10.704 12.479-14.18 14.796c0 0-1.485-6.206-2.355-8.396 0 0-4.101 3.102-6.346 3.176 0 0-.671-4.212-1.178-6.964-2.825 1.883-7.525 1.485-7.525 1.485 4.127-1.954 9.01-13.925 9.01-13.925l-27.322-36.343s-9.597 46.116-20.528 55.596v-198.58l8.652 8.036 13.105-12.235v-9.317l-11.621 10.852v-28.105a94.373 94.373 0 003.788-6.194c1.881 3.279 7.96 13.329 15.101 19.505 1.175-4.778 8.908-9.318 8.908-9.318s2.771 7.508 7.012 9.368c1.492-2.628 10.394-8.446 10.394-8.446s-7.616 1.157-10.7 4.045c-2.649-.593-3.328-11.058-3.328-11.058s-11.207 5.459-13.156 9.368c-2.137-.578-5.464-8.988-6.759-12.44a74.752 74.752 0 018.345-.46c3.196 0 7.285 1.514 11.569 3.532 4.707 2.216 9.631 5.022 14.028 7.014 5.632 2.55 14.153 3.068 16.637 3.174-2.845 2-5.973 3.826-9.367 5.529 0 0 13.411-.124 22.832-4.813 3.361-2.162 6.849-4.316 9.829-6.86-1.293 3.593-3.306 7.839-6.452 11.467 13.836-1.171 20.726-9.072 22.679-11.723.918 2.375 2.553 6.187 5.119 9.47h5v340zM794.247 267.298l.255 6.348v18.687c-5.019-1.727-11.326-9.973-14.384-14.334v-2.56c0-2.408 1.417-4.167 2.457-5.119l-3.02-1.074c-1.152 1.313-2.406 3.263-2.406 5.784v1.485l-9.009 9.676-8.856-13.413v-3.276c0-2.208 1.698-4.67 3.123-6.348l-2.97-1.075c-1.499 1.942-3.072 4.559-3.072 7.013v2.661a10183.97 10183.97 0 01-10.187 10.496l-5.17-11.109c6.205-8.595 16.266-18.219 25.749-25.125 0 0 20.564 18.881 27.49 21.283zm-52.12 18.123v15.411l-7.167 6.654v-22.883c0-2.191.918-4.831 2.456-7.731z" style="vector-effect: non-scaling-stroke;"/>
      <path d="M764.447 291.359v9.522l-8.241 7.731v-29.794zm-11.161 17.202l-8.243-7.679v-11.159l8.243-8.652zm37.627-11.57c-1.914 2.705-6.927 9.321-12.337 12.236v-26.16c1.241 2.064 6.934 11.274 12.337 13.924zm-15.257-12.594v24.163l-8.243-7.679v-8.549zm-33.53 25.75v24.113l-7.167-6.707v-10.7zm11.154 7.731v8.651l-8.244 7.678v-24.009zm11.158-7.678v24.01l-8.241-7.731v-8.549zm11.213 7.73v8.549l-8.243 7.73v-24.01zm11.159 16.33l-8.244-7.731v-8.036c2.843-1.735 5.702-4.924 8.243-8.293zm-20.885 10.648l8.703-8.089v198.63s.607 9.856 1.024 16.279l-18.429 18.634V336.766zM752.253 562.94c0 6.385-11.659 21.273-17.303 24.675v-250.74l8.6 8.036 8.703-8.09z" style="vector-effect: non-scaling-stroke;"/>
    </g>
    <g fill="#C8102E">
      <path d="M824.535 541.388l6.348-4.352s.423 2.1.972 4.967c-2.718 3.716-18.331 25.024-26.057 35.425-1.921 2.584-3.534 9.163-3.534 9.163s-2.814-1.331-2.814-3.736c0-2.362.308-5.171.308-5.171s-2.101 2.406-5.735 2.406c0-2.903 5.614-6.052 5.836-10.186-4.281 3.174-7.999 1.545-12.951 3.072-5.393 1.661-6.895 3.927-8.549 3.84-.974-.053-1.856-1.733-1.484-2.765.644-1.787 7.314-6.733 11.977-7.627 1.117-.214 9.903 1.912 11.673-.819 7.292-11.252 19.13-29.518 20.272-31.278.752-.18 1.444-.371 1.995-.719 0 0-.067 5.751 1.743 7.78z" style="vector-effect: non-scaling-stroke;"/>
      <path d="M783.72 576.452c.353.408.322 1.006-.053 1.33l-2.866 2.508c-.375.324-.977.255-1.33-.154-.354-.408-.324-1.006.052-1.331l2.866-2.508a.851.851 0 01.665-.204c.238.027.488.154.666.359zm4.351 3.02c.857.988.802 2.388-.103 3.175l-6.962 6.091c-.906.788-2.367.63-3.226-.357-.857-.988-.803-2.439.103-3.225l6.962-6.041a2.206 2.206 0 011.229-.513c.712-.058 1.46.254 1.997.87zm3.99 4.71c.857.988.803 2.387-.103 3.174l-7.012 6.092c-.906.787-2.316.63-3.175-.358-.858-.987-.803-2.438.104-3.224l6.961-6.041a2.07 2.07 0 011.178-.513c.711-.058 1.51.252 2.047.87zm2.403 3.737a2.37 2.37 0 011.997.819c.858.988.803 2.439-.102 3.225l-6.963 6.042c-.906.787-2.316.629-3.174-.359s-.854-2.388.051-3.175l7.014-6.091c.338-.296.749-.427 1.177-.461z" style="vector-effect: non-scaling-stroke;"/>
    </g>
  </g>
  <g transform="matrix(-0.013333, 0, 0, 0.013333, 23.898668, 0)">
    <path d="M896.222 303.988l-44.383 10c-2.019-.61-11.513-3.56-18.174-7.269-11.726-6.532-17.806-13.03-31.74-13.669v-10.598c0-5.662 2.049-10.763 2.049-16.177-5.874-1.575-22.178-21.51-37.218-30.358-22.13 14.334-39.265 37.865-39.265 48.686 0 0 .665 232.51 0 313.51 0 4.668-2.815 11.263-2.815 11.263 8.079-3.418 22.888-23.68 26.006-31.382v3.687c12.201-5.564 21.135-20.184 25.136-27.747.071 1.094.257 3.839.257 3.839 10.9-9.555 24.776-66.038 24.776-66.038l23.124 22.725s-8.363 16.976-11.621 20.015c0 0 2.184.277 4.658.256-1.522 2.188-13.147 18.925-16.791 25.238-3.41 5.906-5.816 3.277-11.058 3.277-4.347 0-14.2 6.925-15.818 9.727-1.701 2.945-2.968 6.523-2.968 9.471 0 3.24 3.43 7.68 3.43 7.68.369-1.552 1.023-2.1 1.023-2.1s9.013 11.228 10.341 12.695c1.034 1.143 5.645 1.886 7.27.411 4.066-3.697 8.002-6.282 11.621-11.62 1.863-2.752 2.005-5.905 4.146-8.859 7.162-9.88 21.415-28.799 24.675-33.12.218 1.203.405 2.205.612 3.43 3.694-7.458 21.451-21.707 21.451-21.707l18.578 8.55s-34.687 79.735-65.476 91.995c0 0 13.395 5.691 29.845 14.232a447.91 447.91 0 017.372 3.943 203.524 203.524 0 006.399-8.14c9.836-13.16 19.455-28.413 19.455-28.413.67 3.961-4.524 16.194-13.31 31.281-1.728 2.964-3.53 6.064-5.529 9.213a333.743 333.743 0 016.655 3.892c16.295 9.805 31.598 21.077 37.267 31.432l4-10.009-4-10.009V317.264l2-5z" style="vector-effect: non-scaling-stroke;"/>
    <g fill="#AD7C59">
      <path d="M896.202 667.221c-5.749-6.236-17.769-13.855-31.278-20.886 16.334-29.316 24.428-75.655 20.63-84.88 0 0-6.705 24.033-14.898 37.729-7.586 12.684-16.925 26.95-25.954 37.526-7.428-3.169-14.631-5.828-20.785-7.68 27.058-20.843 54.726-89.742 54.726-89.742l-28.612-13.26s-10.704 12.479-14.18 14.796c0 0-1.485-6.206-2.355-8.396 0 0-4.101 3.102-6.346 3.176 0 0-.671-4.212-1.178-6.964-2.825 1.883-7.525 1.485-7.525 1.485 4.127-1.954 9.01-13.925 9.01-13.925l-27.322-36.343s-9.597 46.116-20.528 55.596v-198.58l8.652 8.036 13.105-12.235v-9.317l-11.621 10.852v-28.105a94.373 94.373 0 003.788-6.194c1.881 3.279 7.96 13.329 15.101 19.505 1.175-4.778 8.908-9.318 8.908-9.318s2.771 7.508 7.012 9.368c1.492-2.628 10.394-8.446 10.394-8.446s-7.616 1.157-10.7 4.045c-2.649-.593-3.328-11.058-3.328-11.058s-11.207 5.459-13.156 9.368c-2.137-.578-5.464-8.988-6.759-12.44a74.752 74.752 0 018.345-.46c3.196 0 7.285 1.514 11.569 3.532 4.707 2.216 9.631 5.022 14.028 7.014 5.632 2.55 14.153 3.068 16.637 3.174-2.845 2-5.973 3.826-9.367 5.529 0 0 13.411-.124 22.832-4.813 3.361-2.162 6.849-4.316 9.829-6.86-1.293 3.593-3.306 7.839-6.452 11.467 13.836-1.171 20.726-9.072 22.679-11.723.918 2.375 2.553 6.187 5.119 9.47h5v340zM794.247 267.298l.255 6.348v18.687c-5.019-1.727-11.326-9.973-14.384-14.334v-2.56c0-2.408 1.417-4.167 2.457-5.119l-3.02-1.074c-1.152 1.313-2.406 3.263-2.406 5.784v1.485l-9.009 9.676-8.856-13.413v-3.276c0-2.208 1.698-4.67 3.123-6.348l-2.97-1.075c-1.499 1.942-3.072 4.559-3.072 7.013v2.661a10183.97 10183.97 0 01-10.187 10.496l-5.17-11.109c6.205-8.595 16.266-18.219 25.749-25.125 0 0 20.564 18.881 27.49 21.283zm-52.12 18.123v15.411l-7.167 6.654v-22.883c0-2.191.918-4.831 2.456-7.731z" style="vector-effect: non-scaling-stroke;"/>
      <path d="M764.447 291.359v9.522l-8.241 7.731v-29.794zm-11.161 17.202l-8.243-7.679v-11.159l8.243-8.652zm37.627-11.57c-1.914 2.705-6.927 9.321-12.337 12.236v-26.16c1.241 2.064 6.934 11.274 12.337 13.924zm-15.257-12.594v24.163l-8.243-7.679v-8.549zm-33.53 25.75v24.113l-7.167-6.707v-10.7zm11.154 7.731v8.651l-8.244 7.678v-24.009zm11.158-7.678v24.01l-8.241-7.731v-8.549zm11.213 7.73v8.549l-8.243 7.73v-24.01zm11.159 16.33l-8.244-7.731v-8.036c2.843-1.735 5.702-4.924 8.243-8.293zm-20.885 10.648l8.703-8.089v198.63s.607 9.856 1.024 16.279l-18.429 18.634V336.766zM752.253 562.94c0 6.385-11.659 21.273-17.303 24.675v-250.74l8.6 8.036 8.703-8.09z" style="vector-effect: non-scaling-stroke;"/>
    </g>
    <g fill="#C8102E">
      <path d="M824.535 541.388l6.348-4.352s.423 2.1.972 4.967c-2.718 3.716-18.331 25.024-26.057 35.425-1.921 2.584-3.534 9.163-3.534 9.163s-2.814-1.331-2.814-3.736c0-2.362.308-5.171.308-5.171s-2.101 2.406-5.735 2.406c0-2.903 5.614-6.052 5.836-10.186-4.281 3.174-7.999 1.545-12.951 3.072-5.393 1.661-6.895 3.927-8.549 3.84-.974-.053-1.856-1.733-1.484-2.765.644-1.787 7.314-6.733 11.977-7.627 1.117-.214 9.903 1.912 11.673-.819 7.292-11.252 19.13-29.518 20.272-31.278.752-.18 1.444-.371 1.995-.719 0 0-.067 5.751 1.743 7.78z" style="vector-effect: non-scaling-stroke;"/>
      <path d="M783.72 576.452c.353.408.322 1.006-.053 1.33l-2.866 2.508c-.375.324-.977.255-1.33-.154-.354-.408-.324-1.006.052-1.331l2.866-2.508a.851.851 0 01.665-.204c.238.027.488.154.666.359zm4.351 3.02c.857.988.802 2.388-.103 3.175l-6.962 6.091c-.906.788-2.367.63-3.226-.357-.857-.988-.803-2.439.103-3.225l6.962-6.041a2.206 2.206 0 011.229-.513c.712-.058 1.46.254 1.997.87zm3.99 4.71c.857.988.803 2.387-.103 3.174l-7.012 6.092c-.906.787-2.316.63-3.175-.358-.858-.987-.803-2.438.104-3.224l6.961-6.041a2.07 2.07 0 011.178-.513c.711-.058 1.51.252 2.047.87zm2.403 3.737a2.37 2.37 0 011.997.819c.858.988.803 2.439-.102 3.225l-6.963 6.042c-.906.787-2.316.629-3.174-.359s-.854-2.388.051-3.175l7.014-6.091c.338-.296.749-.427 1.177-.461z" style="vector-effect: non-scaling-stroke;"/>
    </g>
  </g>
  <path fill="#AD7C59" d="M 11.812 2.755 C 11.965 2.755 12.073 2.825 12.217 2.889 C 12.255 2.906 12.29 2.919 12.321 2.93 C 12.302 2.947 12.286 2.964 12.282 2.979 C 12.282 2.979 12.347 2.991 12.376 3.045 C 12.376 3.045 12.315 3.052 12.305 3.088 C 12.339 3.091 12.373 3.134 12.374 3.176 L 12.286 3.149 C 12.286 3.149 12.307 3.247 12.307 3.354 C 12.307 3.408 12.229 3.472 12.229 3.565 C 12.229 3.854 12.302 3.966 12.354 4.055 C 12.374 4.091 12.391 4.131 12.425 4.161 C 12.275 4.082 12.164 3.982 12.164 3.89 L 12.164 3.539 L 12.125 3.539 L 12.125 3.89 C 12.125 3.957 12.141 3.988 12.141 3.988 C 12.165 4.062 12.212 4.177 12.242 4.223 C 12.104 4.148 12.034 4.055 12.034 4.021 L 12.034 3.539 L 11.995 3.539 L 11.995 4.027 L 12.003 4.061 C 11.986 4.086 11.965 4.116 11.95 4.126 C 11.935 4.116 11.914 4.086 11.897 4.061 L 11.905 4.027 L 11.905 3.539 L 11.866 3.539 L 11.866 4.021 C 11.866 4.055 11.796 4.148 11.658 4.223 C 11.688 4.177 11.735 4.062 11.758 3.988 C 11.758 3.988 11.775 3.957 11.775 3.89 L 11.775 3.539 L 11.736 3.539 L 11.736 3.89 C 11.736 3.982 11.625 4.082 11.476 4.161 C 11.51 4.131 11.526 4.09 11.546 4.055 C 11.603 3.957 11.673 3.833 11.673 3.479 C 11.673 3.346 11.653 3.255 11.619 3.192 C 11.609 3.171 11.595 3.116 11.675 3.116 C 11.716 3.116 11.81 3.189 11.81 3.189 C 11.81 3.189 11.806 3.13 11.758 3.097 C 11.751 3.092 11.737 3.074 11.737 3.058 C 11.737 3.046 11.758 3.016 11.774 3.009 C 11.785 3.004 11.612 2.974 11.612 2.895 C 11.612 2.879 11.622 2.868 11.658 2.868 C 11.705 2.868 11.782 2.924 11.851 2.924 C 11.901 2.924 11.921 2.912 11.973 2.912 C 12.036 2.912 12.168 3.032 12.213 3.027 C 12.163 2.996 12.081 2.876 11.958 2.876 C 11.915 2.876 11.876 2.885 11.836 2.885 C 11.785 2.885 11.735 2.838 11.679 2.838 C 11.642 2.838 11.601 2.84 11.595 2.831 C 11.584 2.814 11.594 2.804 11.604 2.791 C 11.622 2.765 11.675 2.757 11.727 2.755 C 11.742 2.755 11.758 2.754 11.773 2.754 C 11.787 2.755 11.801 2.755 11.812 2.755 L 11.812 2.755 Z" style="vector-effect: non-scaling-stroke;"/>
  <path fill="#C8102E" d="M 11.316 2.943 C 11.316 2.943 11.349 2.881 11.43 2.881 C 11.464 2.881 11.577 2.879 11.577 2.879 C 11.592 2.918 11.66 2.983 11.66 3.051 C 11.66 3.051 11.591 2.926 11.397 2.926 C 11.348 2.926 11.316 2.943 11.316 2.943 L 11.316 2.943 Z M 11.631 3.075 C 11.631 3.075 11.59 3.118 11.581 3.141 C 11.54 3.126 11.469 3.052 11.469 3.052 C 11.469 3.052 11.529 3.088 11.631 3.075 L 11.631 3.075 Z" style="vector-effect: non-scaling-stroke;"/>
  <path d="M 11.566 2.96 C 11.566 2.96 11.518 2.944 11.518 2.928 C 11.518 2.908 11.541 2.908 11.555 2.924 C 11.565 2.935 11.566 2.96 11.566 2.96 L 11.566 2.96 Z" style="vector-effect: non-scaling-stroke;"/>
  <ellipse cx="11.788" cy="2.986" rx="0.098" ry="0.075" style="vector-effect: non-scaling-stroke;"/>
  <circle fill="#FFD100" cx="11.788" cy="2.986" r="0.068" style="vector-effect: non-scaling-stroke;"/>
  <circle cx="11.788" cy="2.986" r="0.031" style="vector-effect: non-scaling-stroke;"/>
  <path d="M 10.685 7.893 L 10.901 8.011 L 10.849 8.251 L 10.633 8.133 L 10.685 7.893 Z" style="vector-effect: non-scaling-stroke;"/>
  <path d="M 9.679 5.583 L 9.601 5.619 L 10.48 7.544 L 10.574 7.544 L 9.679 5.583 Z M 10.715 7.854 L 10.652 7.92 L 10.692 8.007 L 10.769 7.971 L 10.715 7.854 Z" style="vector-effect: non-scaling-stroke;"/>
  <path d="M 9.952 7.101 C 9.952 7.101 10.026 7.254 10.082 7.275 C 10.053 7.267 9.959 7.302 9.959 7.302 C 9.959 7.302 10.125 7.451 10.267 7.461 C 10.386 7.469 10.445 7.409 10.445 7.409 L 10.421 7.282 C 10.421 7.282 10.347 7.194 10.23 7.153 C 10.111 7.111 9.952 7.101 9.952 7.101 L 9.952 7.101 Z M 10.51 6.827 C 10.51 6.827 10.408 6.915 10.38 7.016 C 10.352 7.118 10.398 7.233 10.398 7.233 L 10.484 7.393 C 10.484 7.393 10.603 7.33 10.654 7.235 C 10.704 7.14 10.686 7.012 10.686 7.012 C 10.686 7.012 10.592 7.048 10.58 7.063 C 10.599 6.958 10.51 6.827 10.51 6.827 L 10.51 6.827 Z M 10.181 6.786 C 10.181 6.786 10.065 6.826 9.952 6.819 C 9.845 6.812 9.755 6.722 9.755 6.722 C 9.755 6.722 9.844 6.662 9.888 6.67 C 9.84 6.652 9.77 6.531 9.77 6.531 C 9.77 6.531 9.87 6.501 9.958 6.534 C 10.046 6.567 10.124 6.664 10.124 6.664 L 10.181 6.786 L 10.181 6.786 Z M 10.221 6.218 C 10.221 6.218 10.28 6.339 10.266 6.381 C 10.284 6.353 10.352 6.309 10.352 6.309 C 10.352 6.309 10.393 6.504 10.354 6.625 C 10.314 6.745 10.194 6.791 10.194 6.791 L 10.062 6.533 C 10.062 6.533 10.042 6.438 10.083 6.362 C 10.125 6.286 10.221 6.218 10.221 6.218 L 10.221 6.218 Z M 9.465 5.9 C 9.465 5.9 9.59 5.886 9.705 5.934 C 9.802 5.974 9.831 6.046 9.831 6.046 L 9.878 6.173 C 9.878 6.173 9.742 6.225 9.634 6.185 C 9.525 6.146 9.446 6.016 9.446 6.016 C 9.446 6.016 9.522 5.988 9.55 5.999 C 9.508 5.98 9.465 5.9 9.465 5.9 L 9.465 5.9 L 9.465 5.9 Z M 9.86 5.664 C 9.86 5.664 9.915 5.735 9.917 5.816 C 9.932 5.773 10.001 5.725 10.001 5.725 C 10.001 5.725 10.071 5.897 10.056 6.018 C 10.04 6.14 9.938 6.212 9.938 6.212 L 9.811 5.971 C 9.811 5.971 9.77 5.872 9.782 5.795 C 9.794 5.718 9.86 5.664 9.86 5.664 L 9.86 5.664 Z M 9.425 5.203 C 9.425 5.203 9.402 5.334 9.441 5.41 C 9.475 5.477 9.497 5.492 9.497 5.492 C 9.431 5.448 9.332 5.445 9.332 5.445 C 9.332 5.445 9.367 5.588 9.452 5.653 C 9.537 5.718 9.668 5.703 9.668 5.703 C 9.668 5.703 9.754 5.588 9.748 5.465 C 9.742 5.341 9.644 5.209 9.644 5.209 C 9.644 5.209 9.605 5.289 9.602 5.349 C 9.577 5.287 9.425 5.203 9.425 5.203 L 9.425 5.203 Z M 10.451 7.404 L 10.455 7.451 C 10.533 7.451 10.545 7.444 10.565 7.468 C 10.578 7.485 10.61 7.499 10.642 7.485 C 10.674 7.47 10.689 7.432 10.674 7.4 C 10.659 7.368 10.63 7.361 10.601 7.366 C 10.583 7.37 10.572 7.384 10.557 7.392 C 10.529 7.406 10.451 7.404 10.451 7.404 L 10.451 7.404 Z" style="vector-effect: non-scaling-stroke;"/>
  <path d="M 10.445 7.368 L 10.483 7.396 C 10.442 7.462 10.429 7.468 10.439 7.498 C 10.446 7.518 10.442 7.553 10.412 7.572 C 10.383 7.592 10.343 7.584 10.323 7.554 C 10.304 7.525 10.314 7.496 10.334 7.475 C 10.346 7.462 10.364 7.459 10.379 7.451 C 10.406 7.434 10.445 7.368 10.445 7.368 L 10.445 7.368 Z M 10.179 6.808 L 10.183 6.855 C 10.261 6.855 10.273 6.848 10.293 6.872 C 10.306 6.889 10.338 6.903 10.37 6.889 C 10.402 6.874 10.416 6.836 10.402 6.804 C 10.387 6.772 10.357 6.765 10.329 6.77 C 10.311 6.774 10.3 6.788 10.285 6.796 C 10.256 6.81 10.179 6.808 10.179 6.808 L 10.179 6.808 Z" style="vector-effect: non-scaling-stroke;"/>
  <path d="M 10.195 6.824 L 10.229 6.858 C 10.178 6.917 10.164 6.921 10.17 6.953 C 10.173 6.973 10.163 7.007 10.131 7.021 C 10.099 7.036 10.061 7.022 10.046 6.99 C 10.032 6.958 10.046 6.931 10.069 6.913 C 10.083 6.902 10.101 6.902 10.117 6.896 C 10.147 6.884 10.195 6.824 10.195 6.824 L 10.195 6.824 Z M 9.916 6.25 L 9.919 6.297 C 9.997 6.297 10.009 6.29 10.029 6.314 C 10.043 6.331 10.074 6.345 10.106 6.331 C 10.138 6.316 10.153 6.278 10.138 6.246 C 10.123 6.214 10.094 6.207 10.065 6.212 C 10.048 6.216 10.036 6.23 10.021 6.237 C 9.993 6.252 9.916 6.25 9.916 6.25 L 9.916 6.25 Z" style="vector-effect: non-scaling-stroke;"/>
  <path d="M 9.937 6.24 L 9.971 6.273 C 9.92 6.333 9.906 6.337 9.912 6.368 C 9.916 6.389 9.906 6.422 9.874 6.437 C 9.842 6.452 9.803 6.437 9.789 6.405 C 9.774 6.373 9.788 6.346 9.811 6.328 C 9.825 6.317 9.844 6.318 9.859 6.311 C 9.889 6.3 9.937 6.24 9.937 6.24 L 9.937 6.24 Z M 9.635 5.661 L 9.638 5.708 C 9.717 5.708 9.728 5.701 9.748 5.725 C 9.762 5.742 9.793 5.756 9.825 5.742 C 9.857 5.727 9.872 5.688 9.857 5.656 C 9.843 5.624 9.813 5.618 9.784 5.623 C 9.767 5.627 9.755 5.641 9.74 5.648 C 9.712 5.663 9.635 5.661 9.635 5.661 L 9.635 5.661 Z" style="vector-effect: non-scaling-stroke;"/>
  <path d="M 9.656 5.651 L 9.69 5.684 C 9.639 5.744 9.625 5.748 9.631 5.779 C 9.635 5.8 9.625 5.833 9.593 5.848 C 9.561 5.862 9.522 5.848 9.508 5.816 C 9.493 5.784 9.507 5.757 9.53 5.739 C 9.544 5.728 9.563 5.729 9.578 5.722 C 9.608 5.711 9.656 5.651 9.656 5.651 L 9.656 5.651 Z" style="vector-effect: non-scaling-stroke;"/>
  <g fill="#FFD100" transform="matrix(0.013333, 0, 0, 0.013333, 0, 0)">
    <path d="M803.71 597.062l10.048 5.482-2.438 11.183-10.049-5.482zm-43.99-96.972c-2.106.874-5.23-8.295-7.524-13.318-2.353-5.155-7.131-13.1-5.774-13.72 1.489-.68 3.451 3.492 5.859 8.767 2.408 5.273 9.412 17.449 7.439 18.269zm-21.63-48.29c-2.105.877-4.41-5.127-6.703-10.151-2.353-5.154-4.645-8.795-3.288-9.415 1.49-.68 3.69 3.837 5.616 8.055 1.866 4.088 6.348 10.69 4.374 11.512zm50.04 109.49c-1.653.442-8.869-14.662-14.703-27.442-5.833-12.779-10.177-23.119-8.82-23.736 1.49-.681 6.213 11.391 12.049 24.172 5.835 12.781 12.713 26.673 11.475 27.006z" style="vector-effect: non-scaling-stroke;"/>
    <circle cx="796.195" cy="556.984" r="2.606" style="vector-effect: non-scaling-stroke;"/>
    <circle cx="778.27" cy="563.933" r="2.606" style="vector-effect: non-scaling-stroke;"/>
    <circle cx="775.777" cy="512.25" r="2.606" style="vector-effect: non-scaling-stroke;"/>
    <circle cx="757.844" cy="522.24" r="2.606" style="vector-effect: non-scaling-stroke;"/>
    <circle cx="756.001" cy="470.414" r="2.606" style="vector-effect: non-scaling-stroke;"/>
    <circle cx="738.502" cy="478.402" r="2.606" style="vector-effect: non-scaling-stroke;"/>
    <circle cx="734.931" cy="426.239" r="2.606" style="vector-effect: non-scaling-stroke;"/>
    <circle cx="717.435" cy="434.223" r="2.606" style="vector-effect: non-scaling-stroke;"/>
  </g>
  <path d="M 9.463 5.283 C 9.463 5.283 9.46 5.379 9.492 5.433 C 9.524 5.487 9.595 5.509 9.595 5.509 C 9.595 5.509 9.598 5.413 9.566 5.359 C 9.534 5.304 9.463 5.283 9.463 5.283 L 9.463 5.283 Z M 9.397 5.5 C 9.397 5.5 9.48 5.505 9.529 5.542 C 9.577 5.578 9.595 5.655 9.595 5.655 C 9.595 5.655 9.54 5.661 9.492 5.624 C 9.444 5.587 9.397 5.5 9.397 5.5 L 9.397 5.5 Z M 9.659 5.306 C 9.659 5.306 9.631 5.369 9.634 5.438 C 9.637 5.507 9.677 5.584 9.677 5.584 C 9.677 5.584 9.714 5.502 9.71 5.433 C 9.707 5.364 9.668 5.325 9.659 5.306 Z M 9.518 5.924 C 9.518 5.924 9.559 5.981 9.622 6.012 C 9.685 6.044 9.779 6.045 9.779 6.045 C 9.779 6.045 9.732 5.984 9.669 5.953 C 9.606 5.922 9.518 5.924 9.518 5.924 L 9.518 5.924 Z M 9.539 6.057 C 9.539 6.057 9.569 6.116 9.624 6.141 C 9.679 6.166 9.791 6.164 9.791 6.164 C 9.791 6.164 9.748 6.109 9.693 6.084 C 9.638 6.059 9.539 6.057 9.539 6.057 L 9.539 6.057 Z M 9.856 5.742 C 9.856 5.742 9.822 5.797 9.826 5.858 C 9.829 5.919 9.869 5.985 9.869 5.985 C 9.869 5.985 9.897 5.909 9.893 5.848 C 9.89 5.788 9.856 5.742 9.856 5.742 L 9.856 5.742 Z M 9.978 5.82 C 9.978 5.82 9.921 5.897 9.913 5.975 C 9.905 6.054 9.945 6.134 9.945 6.134 C 9.945 6.134 10.014 6.065 10.022 5.987 C 10.031 5.908 9.978 5.82 9.978 5.82 L 9.978 5.82 Z M 9.821 6.545 C 9.821 6.545 9.828 6.574 9.852 6.604 C 9.876 6.634 9.916 6.665 9.916 6.665 C 9.916 6.665 9.956 6.653 10.005 6.663 C 10.053 6.674 10.118 6.718 10.118 6.718 C 10.118 6.718 10.048 6.613 9.976 6.573 C 9.903 6.532 9.821 6.545 9.821 6.545 L 9.821 6.545 Z M 9.814 6.725 C 9.814 6.725 9.905 6.686 9.979 6.696 C 10.054 6.706 10.121 6.765 10.121 6.765 C 10.121 6.765 10.02 6.8 9.946 6.79 C 9.871 6.78 9.814 6.725 9.814 6.725 L 9.814 6.725 Z M 10.197 6.304 C 10.197 6.304 10.117 6.389 10.11 6.462 C 10.103 6.536 10.175 6.605 10.175 6.605 C 10.175 6.605 10.171 6.557 10.184 6.526 C 10.196 6.495 10.222 6.462 10.222 6.462 C 10.222 6.462 10.233 6.424 10.229 6.394 C 10.223 6.351 10.197 6.304 10.197 6.304 L 10.197 6.304 Z M 10.312 6.402 C 10.312 6.402 10.236 6.479 10.216 6.56 C 10.196 6.642 10.232 6.729 10.232 6.729 C 10.232 6.729 10.301 6.675 10.321 6.593 C 10.34 6.512 10.312 6.402 10.312 6.402 L 10.312 6.402 Z M 10.501 6.895 C 10.501 6.895 10.535 6.967 10.544 7.026 C 10.552 7.086 10.544 7.107 10.544 7.107 C 10.544 7.107 10.509 7.141 10.493 7.162 C 10.473 7.188 10.47 7.236 10.47 7.236 C 10.47 7.236 10.399 7.131 10.41 7.054 C 10.421 6.976 10.501 6.895 10.501 6.895 L 10.501 6.895 Z M 10.65 7.06 C 10.65 7.06 10.559 7.12 10.523 7.182 C 10.487 7.244 10.506 7.307 10.506 7.307 C 10.506 7.307 10.571 7.301 10.607 7.239 C 10.643 7.178 10.65 7.06 10.65 7.06 L 10.65 7.06 Z M 10.053 7.314 C 10.053 7.314 10.184 7.31 10.264 7.33 C 10.344 7.35 10.373 7.393 10.373 7.393 C 10.373 7.393 10.283 7.435 10.203 7.415 C 10.123 7.396 10.053 7.314 10.053 7.314 L 10.053 7.314 Z M 10.031 7.159 C 10.031 7.159 10.09 7.25 10.166 7.283 C 10.272 7.329 10.394 7.307 10.394 7.307 C 10.394 7.307 10.327 7.226 10.236 7.19 C 10.145 7.154 10.031 7.159 10.031 7.159 L 10.031 7.159 Z" fill="#007749" style="vector-effect: non-scaling-stroke;"/>
  <path d="M 14.517 5.359 L 14.534 5.395 C 14.534 5.395 14.506 5.405 14.493 5.43 C 14.481 5.454 14.502 5.489 14.502 5.489 C 14.502 5.489 14.357 5.476 14.335 5.491 C 14.315 5.504 14.344 5.604 14.33 5.688 C 14.311 5.806 14.265 5.796 14.263 5.819 C 14.261 5.841 14.281 5.875 14.281 5.875 C 14.281 5.875 14.254 5.884 14.248 5.895 C 14.239 5.913 14.255 5.947 14.243 5.969 C 14.181 6.092 14.088 6.273 14.027 6.393 C 14.019 6.41 13.996 6.417 13.984 6.439 C 13.973 6.46 13.982 6.49 13.982 6.49 C 13.982 6.49 13.942 6.493 13.927 6.52 C 13.913 6.55 13.921 6.589 13.921 6.589 C 13.921 6.589 13.896 6.593 13.883 6.617 C 13.87 6.644 13.892 6.657 13.887 6.669 C 13.804 6.83 13.707 7.021 13.648 7.137 C 13.627 7.179 13.55 7.188 13.506 7.275 C 13.463 7.359 13.525 7.421 13.525 7.421 C 13.525 7.421 13.461 7.426 13.444 7.46 C 13.427 7.493 13.441 7.545 13.487 7.568 C 13.532 7.591 13.583 7.573 13.6 7.539 C 13.617 7.506 13.583 7.451 13.583 7.451 C 13.583 7.451 13.669 7.463 13.712 7.379 C 13.756 7.292 13.719 7.226 13.74 7.184 C 13.8 7.068 13.896 6.878 13.979 6.716 C 13.985 6.705 14.009 6.715 14.022 6.688 C 14.035 6.664 14.022 6.641 14.022 6.641 C 14.022 6.641 14.06 6.625 14.075 6.595 C 14.089 6.568 14.067 6.533 14.067 6.533 C 14.067 6.533 14.097 6.523 14.108 6.502 C 14.119 6.479 14.111 6.457 14.119 6.44 C 14.18 6.32 14.273 6.139 14.336 6.016 C 14.347 5.994 14.383 5.986 14.392 5.968 C 14.398 5.957 14.389 5.93 14.389 5.93 C 14.389 5.93 14.429 5.926 14.446 5.911 C 14.463 5.897 14.428 5.865 14.512 5.78 C 14.572 5.72 14.669 5.684 14.668 5.66 C 14.667 5.633 14.572 5.524 14.572 5.524 C 14.572 5.524 14.612 5.521 14.624 5.496 C 14.637 5.472 14.628 5.443 14.628 5.443 L 14.668 5.436 L 14.668 5.249 L 14.517 5.359 Z M 13.208 7.974 C 13.202 7.987 13.202 8.002 13.208 8.015 C 13.208 8.015 13.16 8 13.144 8.008 C 13.128 8.016 13.144 8.241 13.144 8.241 C 13.144 8.241 13.334 8.121 13.332 8.104 C 13.329 8.086 13.289 8.055 13.289 8.055 C 13.304 8.053 13.316 8.043 13.322 8.032 C 13.328 8.019 13.329 7.984 13.286 7.962 C 13.27 7.954 13.255 7.951 13.244 7.952 C 13.224 7.954 13.212 7.966 13.208 7.974 Z" style="vector-effect: non-scaling-stroke;"/>
  <g fill="#FFD100" transform="matrix(0.013333, 0, 0, 0.013333, 0, 0)">
    <path d="M1091.34 402.51l6.757 3.431-.101-8.14zm-2.61 4.915c-.868 1.704-.025 3.886 1.894 4.863 1.92.977 4.148.373 5.018-1.33.868-1.704.023-3.885-1.895-4.863a4.2 4.2 0 00-2.201-.462c-1.208.083-2.273.727-2.816 1.792zm-11.62 6.195c-.711.46.256 6.545.051 11.722-.194 4.882-1.756 6.257-2.611 7.935-.789 1.549-3.634 3.379-3.634 3.379l2.354 2.355s1.532-2.386 3.942-7.118c2.843-5.579 2.751-15.688 3.585-16.227.725-.469 6.655-1.946 6.655-1.946-.001 0-5.442-.294-8.447-.255-1.003.013-1.73.048-1.895.155z" style="vector-effect: non-scaling-stroke;"/>
    <path d="M1077.73 441.725s.787-2.188 3.533-7.577c3.311-6.499 10.379-11.213 10.544-12.389.172-1.212-2.457-6.91-2.457-6.91s-6.235 1.195-7.117 2.048c-.852.823-.476 9.267-3.788 15.767-2.744 5.388-4.094 7.372-4.094 7.372z" style="vector-effect: non-scaling-stroke;"/>
    <path d="M1093.65 422.22c.052.989-8.163 6.861-11.007 12.439-2.41 4.731-3.43 7.373-3.43 7.373l3.277.512s-.226-3.367.563-4.915c.854-1.677 1.079-3.731 4.915-6.757 4.068-3.209 9.567-6.014 9.522-6.861-.041-.782-6.144-8.344-6.144-8.344s2.257 5.692 2.304 6.553zm-24.06 36.5c4.936-9.688 6.444-10.348 7.065-11.569.669-1.312.509-3.078-1.689-4.199-.824-.419-1.531-.526-2.15-.459-1.033.111-1.784.767-2.201 1.586-.622 1.222-.285 2.855-5.223 12.544l-11.212 21.961s-1.175 2.156 1.024 3.276c2.199 1.119 3.174-1.127 3.174-1.127zm-19.81 25.188c-.611 1.201.436 2.964 2.355 3.943 1.919.976 3.996.791 4.607-.41.611-1.2-.486-2.964-2.406-3.943-.959-.489-1.935-.687-2.764-.613-.83.072-1.486.424-1.792 1.023zm-4.15 6.245c-.792 1.553.443 3.783 2.765 4.968 2.322 1.183 4.84.886 5.631-.667.792-1.554-.444-3.782-2.765-4.967-.871-.442-1.733-.677-2.56-.716-1.374-.065-2.576.411-3.071 1.382zm-2.61 6.964c-.611 1.199.437 2.963 2.355 3.941 1.919.978 3.995.791 4.608-.409.611-1.2-.437-2.964-2.355-3.942-.96-.49-1.986-.688-2.816-.615-.828.073-1.485.424-1.792 1.025zm-1.69 6.655s-12.448 24.5-16.84 33.121c-1.404 2.754-7.312 4.47-9.625 9.011-2.33 4.568-.686 8.844 2.354 10.392 3.039 1.549 7.502.423 9.83-4.146 2.313-4.54.235-10.353 1.637-13.106 4.393-8.624 16.843-33.122 16.843-33.122s1.226-2.156-.973-3.276a2.372 2.372 0 00-1.433-.255c-1.212.155-1.793 1.381-1.793 1.381zm-31.49 56.874c-.933 1.83.134 4.269 2.405 5.426 2.272 1.158 4.904.601 5.837-1.228.933-1.83-.186-4.27-2.457-5.427-.852-.435-1.721-.637-2.56-.614-1.399.04-2.643.7-3.225 1.843zm-16.583 37.423c-.71.024-1.298.249-1.535.717-.477.935.508 2.413 2.201 3.276 1.693.862 3.464.782 3.942-.154.477-.937-.51-2.414-2.201-3.276-.847-.432-1.695-.588-2.407-.564zm-5.836 4.606v12.082l9.83-7.065s-1.333-2.354-4.25-3.84c-2.917-1.485-5.58-1.178-5.58-1.178z" style="vector-effect: non-scaling-stroke;"/>
  </g>
  <path fill="#FFD100" d="M 13.249 4.448 C 13.249 4.36 13.365 4.273 13.365 4.273 L 10.535 4.273 C 10.535 4.273 10.651 4.36 10.651 4.448 L 10.651 6.554 C 10.651 6.61 10.668 6.646 10.695 6.681 C 10.722 6.719 10.78 6.772 10.84 6.811 C 11.026 6.932 11.337 7.059 11.572 7.166 C 11.768 7.255 11.848 7.291 11.95 7.417 C 12.051 7.291 12.132 7.255 12.328 7.166 C 12.563 7.059 12.874 6.932 13.06 6.811 C 13.12 6.772 13.178 6.719 13.205 6.681 C 13.232 6.646 13.249 6.61 13.249 6.554 L 13.249 4.448 Z" style="vector-effect: non-scaling-stroke;"/>
  <path fill="#C8102E" d="M 10.718 5.64 L 10.718 4.448 C 10.718 4.38 10.683 4.339 10.683 4.339 L 13.216 4.339 C 13.216 4.339 13.182 4.381 13.182 4.448 L 13.182 5.64 L 11.95 6.013 L 10.718 5.64 Z" style="vector-effect: non-scaling-stroke;"/>
  <path fill="#003DA5" d="M 13.182 5.64 L 12.419 5.625 L 11.481 5.625 L 10.718 5.64 L 10.718 6.554 C 10.718 6.6 10.765 6.708 11.04 6.845 C 11.495 7.072 11.845 7.178 11.95 7.307 C 12.054 7.178 12.404 7.072 12.859 6.845 C 13.134 6.708 13.182 6.6 13.182 6.554 L 13.182 5.64 Z" style="vector-effect: non-scaling-stroke;"/>
  <path d="M 12.401 5.592 C 12.401 5.592 12.841 5.481 12.841 5.01 C 12.841 4.643 12.4 4.461 12.387 4.373 C 12.344 4.525 12.535 4.734 12.535 4.982 C 12.535 5.304 12.298 5.319 12.298 5.319 C 12.242 5.319 12.22 5.359 12.198 5.359 C 12.151 5.354 12.13 5.294 12.083 5.294 C 12.04 5.294 12.007 5.361 11.95 5.361 C 11.892 5.361 11.86 5.294 11.817 5.294 C 11.77 5.294 11.748 5.354 11.702 5.359 C 11.68 5.359 11.658 5.319 11.602 5.319 C 11.602 5.319 11.365 5.304 11.365 4.982 C 11.365 4.734 11.556 4.525 11.513 4.373 C 11.5 4.461 11.059 4.643 11.059 5.01 C 11.059 5.481 11.499 5.592 11.499 5.592 L 11.374 5.821 C 11.374 5.821 11.555 5.83 11.652 5.912 C 11.768 6.011 11.757 6.222 11.757 6.375 C 11.757 6.496 11.742 6.623 11.68 6.675 C 11.597 6.746 11.541 6.751 11.541 6.834 C 11.541 6.903 11.594 6.916 11.68 6.962 C 11.791 7.02 11.785 7.098 11.95 7.098 C 12.114 7.098 12.109 7.02 12.22 6.962 C 12.306 6.916 12.359 6.903 12.359 6.834 C 12.359 6.751 12.303 6.746 12.22 6.675 C 12.158 6.623 12.143 6.496 12.143 6.375 C 12.143 6.222 12.132 6.011 12.248 5.912 C 12.345 5.83 12.526 5.821 12.526 5.821 L 12.401 5.592 Z" style="vector-effect: non-scaling-stroke;"/>
  <path d="M 11.95 4.406 L 11.873 4.623 L 11.665 4.524 L 11.764 4.732 L 11.547 4.809 L 11.764 4.886 L 11.665 5.094 L 11.873 4.995 L 11.95 5.212 L 12.027 4.995 L 12.235 5.094 L 12.136 4.886 L 12.353 4.809 L 12.136 4.732 L 12.235 4.524 L 12.027 4.623 L 11.95 4.406 Z M 11.481 5.625 C 11.481 5.625 11.209 5.559 11.107 5.425 C 10.93 5.584 10.718 5.64 10.718 5.64 C 10.718 5.64 10.939 5.74 11.107 5.867 C 11.185 5.756 11.481 5.625 11.481 5.625 Z M 12.419 5.625 C 12.419 5.625 12.715 5.756 12.793 5.867 C 12.961 5.74 13.182 5.64 13.182 5.64 C 13.182 5.64 12.97 5.584 12.793 5.425 C 12.691 5.559 12.419 5.625 12.419 5.625 Z M 11.592 5.915 L 11.486 6.021 L 11.592 6.126 L 11.698 6.021 L 11.592 5.915 Z M 12.308 5.915 L 12.202 6.021 L 12.308 6.126 L 12.414 6.021 L 12.308 5.915 Z M 11.565 6.533 C 11.565 6.666 11.552 6.737 11.552 6.737 C 11.552 6.737 11.702 6.693 11.731 6.541 C 11.745 6.47 11.761 6.209 11.689 6.165 L 11.494 6.126 C 11.515 6.178 11.565 6.339 11.565 6.533 L 11.565 6.533 Z M 12.211 6.165 C 12.139 6.209 12.155 6.47 12.169 6.541 C 12.198 6.693 12.348 6.737 12.348 6.737 C 12.348 6.737 12.335 6.666 12.335 6.533 C 12.335 6.339 12.385 6.178 12.406 6.126 L 12.211 6.165 Z M 11.107 6.172 C 11.04 6.189 10.999 6.257 11.016 6.324 C 11.019 6.335 11.023 6.344 11.028 6.353 C 11.018 6.35 11.007 6.348 10.997 6.347 C 10.993 6.347 10.988 6.347 10.984 6.347 C 10.92 6.349 10.867 6.399 10.863 6.464 C 10.858 6.533 10.911 6.592 10.98 6.597 C 10.99 6.598 11 6.597 11.01 6.595 C 11.004 6.604 10.999 6.613 10.995 6.622 C 10.969 6.686 11 6.76 11.064 6.786 C 11.129 6.812 11.202 6.78 11.228 6.716 C 11.231 6.706 11.234 6.696 11.235 6.686 C 11.241 6.695 11.248 6.702 11.256 6.709 C 11.309 6.753 11.389 6.746 11.433 6.693 C 11.477 6.64 11.47 6.561 11.417 6.517 C 11.409 6.51 11.4 6.505 11.391 6.501 C 11.401 6.497 11.411 6.493 11.419 6.488 C 11.478 6.451 11.496 6.373 11.459 6.314 C 11.434 6.274 11.389 6.253 11.345 6.256 C 11.324 6.258 11.304 6.264 11.286 6.275 C 11.278 6.281 11.27 6.287 11.262 6.294 C 11.262 6.284 11.261 6.274 11.259 6.264 C 11.244 6.205 11.19 6.166 11.132 6.169 C 11.123 6.169 11.115 6.17 11.107 6.172 L 11.107 6.172 Z M 12.438 6.537 C 12.451 6.664 12.555 6.772 12.683 6.802 C 12.661 6.766 12.647 6.726 12.642 6.684 C 12.626 6.533 12.744 6.41 12.904 6.41 C 12.929 6.41 12.954 6.413 12.978 6.419 C 12.921 6.326 12.815 6.262 12.699 6.262 C 12.539 6.262 12.422 6.385 12.438 6.537 Z" style="vector-effect: non-scaling-stroke;"/>
  <g fill="#FFD100" transform="matrix(0.013333, 0, 0, 0.013333, 0, 0)">
    <path d="M847.592 373.684c0 18.128 9.667 28.821 22.576 28.821 2.462 0 5.155 3.328 7.475 3.328 3.782 0 6.298-4.198 8.601-4.198 2.927 0 4.9 4.607 9.982 4.607 5.083 0 7.107-4.607 10.034-4.607 2.302 0 4.818 4.198 8.6 4.198 2.321 0 5.012-3.328 7.475-3.328 12.909 0 22.577-10.693 22.577-28.821 0-14.784-12.416-32.81-11.058-35.734 0 0 24.214 17.369 24.214 37.832 0 32.963-33.429 41.109-33.429 41.109l7.525 16.944s-10.362 1.554-16.689 6.656c-8.439 6.805-8.55 25.191-8.55 37.626 0 14.648.545 20.855 5.837 24.829 5.58 4.193 9.777 5.096 9.777 9.369 0 3.723-4.345 5.246-9.983 7.73-6.413 2.827-7.052 7.731-16.33 7.731-9.279 0-9.867-4.904-16.28-7.731-5.637-2.484-9.983-4.006-9.983-7.73 0-4.273 4.197-5.176 9.777-9.369 5.292-3.974 5.836-10.181 5.836-24.829 0-12.435-.11-30.821-8.549-37.626-6.328-5.104-16.689-6.656-16.689-6.656l7.524-16.944s-33.428-8.145-33.428-41.109c0-20.463 24.215-37.832 24.215-37.832 1.358 2.924-11.057 20.95-11.057 35.734zM883.58 509.81c-6.567 0-10.75 1.386-10.75 3.379 0 1.994 4.184 3.328 10.75 3.328 1.75 0 3.737-1.019 3.737-3.328s-1.988-3.379-3.737-3.379zm25.34 0c-1.75 0-3.737 1.071-3.737 3.379-.001 2.309 1.987 3.328 3.737 3.328 6.568 0 10.75-1.333 10.75-3.328 0-1.994-4.183-3.379-10.75-3.379z" style="vector-effect: non-scaling-stroke;"/>
    <path d="M896.28 341.38l3.686 10.394 9.931-4.761-4.71 9.982 10.342 3.687-10.342 3.686 4.71 9.931-9.931-4.71-3.737 10.341-3.686-10.341-9.931 4.71 4.71-9.931-10.341-3.686 10.341-3.687-4.71-9.982 9.931 4.761 3.737-10.394zm-82.743 81.899s12.609 6.28 18.943 11.877l.357.307.204-.255c5.986-6.871 17.098-12.696 17.098-12.696s-10.676-2.945-17.405-10.648c-7.111 7.248-19.197 11.415-19.197 11.415zm165.411.016s-12.609 6.28-18.943 11.877l-.357.307-.204-.255c-5.986-6.871-17.098-12.696-17.098-12.696s10.676-2.945 17.405-10.648c7.111 7.248 19.197 11.415 19.197 11.415zM869.4 447.4l4.147 4.145-4.147 4.199-4.198-4.199 4.198-4.145zm53.7 0l4.199 4.145-4.199 4.199-4.146-4.199 4.146-4.145zm-48.067 18.119c2.897 3.998 2.405 10.462 2.405 19.455 0 9.067-6.808 12.541-6.808 12.541 0-21.794-2.247-27.034-3.43-33.635zm50.267-1.639c-1.185 6.602-3.429 11.841-3.429 33.634 0 0-6.809-3.474-6.809-12.541 0-8.993-.492-15.455 2.406-19.454l7.832-1.639z" style="vector-effect: non-scaling-stroke;"/>
    <path id="b" d="M842.832 472.128c.204.816.226 1.618.153 2.407-.06.654-.234 1.248-.46 1.842-1.133-.414-2.359-.615-3.635-.615-3.159 0-5.987 1.39-7.935 3.585a7.308 7.308 0 01-1.33-1.536c-.42-.649-.775-1.359-.973-2.15-.982-3.913 1.411-7.876 5.324-8.857.488-.124 1-.185 1.484-.204a7.29 7.29 0 017.372 5.528z" style="vector-effect: non-scaling-stroke;"/>
    <path d="M842.832 472.128c.204.816.226 1.618.153 2.407-.06.654-.234 1.248-.46 1.842-1.133-.414-2.359-.615-3.635-.615-3.159 0-5.987 1.39-7.935 3.585a7.308 7.308 0 01-1.33-1.536c-.42-.649-.775-1.359-.973-2.15-.982-3.913 1.411-7.876 5.324-8.857.488-.124 1-.185 1.484-.204a7.29 7.29 0 017.372 5.528z" transform="matrix(0.3090169943749474, 0.9510565162951535, -0.9510565162951535, 0.3090169943749474, 1042.3172927735413, -461.6907030468674)" style="vector-effect: non-scaling-stroke;"/>
    <path d="M842.832 472.128c.204.816.226 1.618.153 2.407-.06.654-.234 1.248-.46 1.842-1.133-.414-2.359-.615-3.635-.615-3.159 0-5.987 1.39-7.935 3.585a7.308 7.308 0 01-1.33-1.536c-.42-.649-.775-1.359-.973-2.15-.982-3.913 1.411-7.876 5.324-8.857.488-.124 1-.185 1.484-.204a7.29 7.29 0 017.372 5.528z" transform="matrix(-0.8090169943749475, 0.5877852522924731, -0.5877852522924731, -0.8090169943749475, 1803.5050014170672, 386.941676906133)" style="vector-effect: non-scaling-stroke;"/>
    <path d="M842.832 472.128c.204.816.226 1.618.153 2.407-.06.654-.234 1.248-.46 1.842-1.133-.414-2.359-.615-3.635-.615-3.159 0-5.987 1.39-7.935 3.585a7.308 7.308 0 01-1.33-1.536c-.42-.649-.775-1.359-.973-2.15-.982-3.913 1.411-7.876 5.324-8.857.488-.124 1-.185 1.484-.204a7.29 7.29 0 017.372 5.528z" transform="matrix(-0.8090169943749475, -0.5877852522924731, 0.5877852522924731, -0.8090169943749475, 1231.6275844038769, 1373.1160347176697)" style="vector-effect: non-scaling-stroke;"/>
    <path d="M842.832 472.128c.204.816.226 1.618.153 2.407-.06.654-.234 1.248-.46 1.842-1.133-.414-2.359-.615-3.635-.615-3.159 0-5.987 1.39-7.935 3.585a7.308 7.308 0 01-1.33-1.536c-.42-.649-.775-1.359-.973-2.15-.982-3.913 1.411-7.876 5.324-8.857.488-.124 1-.185 1.484-.204a7.29 7.29 0 017.372 5.528z" transform="matrix(0.3090169943749474, -0.9510565162951535, 0.9510565162951535, 0.3090169943749474, 117.0001946477023, 1133.9729267257992)" style="vector-effect: non-scaling-stroke;"/>
    <circle cx="838.89" cy="486.468" r="7.065" style="vector-effect: non-scaling-stroke;"/>
    <path d="M962.925 476.942c-11.729 2.268-20.17 12.628-18.942 24.727-3.738-3.096-6.473-7.266-6.962-11.877-.951-8.979 5.571-15.922 15.41-15.922 3.761 0 7.375 1.152 10.494 3.072z" style="vector-effect: non-scaling-stroke;"/>
  </g>
</svg>