<?xml version="1.0" encoding="UTF-8"?>
<svg xmlns="http://www.w3.org/2000/svg" xmlns:xlink="http://www.w3.org/1999/xlink" width="24px" height="24px" viewBox="0 0 24 12" version="1.1">
<g id="surface1">
<rect x="0" y="0" width="24" height="12" style="fill:rgb(0%,18.823529%,52.941176%);fill-opacity:1;stroke:none;"/>
<path style=" stroke:none;fill-rule:nonzero;fill:rgb(100%,100%,100%);fill-opacity:1;" d="M 0 11.808594 L 0 11.519531 L 24 1.398438 L 24 4.894531 Z M 0 11.808594 "/>
<path style=" stroke:none;fill-rule:nonzero;fill:rgb(89.803922%,44.705882%,0%);fill-opacity:1;" d="M 0 11.617188 L 0 11.425781 L 24 0.191406 L 24 2.542969 Z M 0 11.617188 "/>
<path style=" stroke:none;fill-rule:nonzero;fill:rgb(100%,100%,100%);fill-opacity:1;" d="M 4.613281 0.660156 L 4.847656 4.382812 L 4.375 4.382812 Z M 4.613281 0.660156 "/>
<path style=" stroke:none;fill-rule:nonzero;fill:rgb(100%,100%,100%);fill-opacity:1;" d="M 5.335938 1.808594 L 4.890625 4.453125 L 4.335938 4.3125 Z M 5.335938 1.808594 "/>
<path style=" stroke:none;fill-rule:nonzero;fill:rgb(100%,100%,100%);fill-opacity:1;" d="M 6.015625 2.074219 L 4.859375 4.519531 L 4.363281 4.246094 Z M 6.015625 2.074219 "/>
<path style=" stroke:none;fill-rule:nonzero;fill:rgb(100%,100%,100%);fill-opacity:1;" d="M 6.59375 2.5 L 4.816406 4.574219 L 4.410156 4.1875 Z M 6.59375 2.5 "/>
<path style=" stroke:none;fill-rule:nonzero;fill:rgb(100%,100%,100%);fill-opacity:1;" d="M 7.039062 3.050781 L 4.753906 4.617188 L 4.46875 4.144531 Z M 7.039062 3.050781 "/>
<path style=" stroke:none;fill-rule:nonzero;fill:rgb(100%,100%,100%);fill-opacity:1;" d="M 7.320312 3.691406 L 4.6875 4.644531 L 4.539062 4.117188 Z M 7.320312 3.691406 "/>
<path style=" stroke:none;fill-rule:nonzero;fill:rgb(100%,100%,100%);fill-opacity:1;" d="M 8.527344 4.382812 L 4.613281 4.605469 L 4.613281 4.15625 Z M 8.527344 4.382812 "/>
<path style=" stroke:none;fill-rule:nonzero;fill:rgb(100%,100%,100%);fill-opacity:1;" d="M 7.320312 5.070312 L 4.539062 4.644531 L 4.6875 4.117188 Z M 7.320312 5.070312 "/>
<path style=" stroke:none;fill-rule:nonzero;fill:rgb(100%,100%,100%);fill-opacity:1;" d="M 7.039062 5.714844 L 4.46875 4.617188 L 4.753906 4.144531 Z M 7.039062 5.714844 "/>
<path style=" stroke:none;fill-rule:nonzero;fill:rgb(100%,100%,100%);fill-opacity:1;" d="M 6.59375 6.265625 L 4.410156 4.574219 L 4.816406 4.1875 Z M 6.59375 6.265625 "/>
<path style=" stroke:none;fill-rule:nonzero;fill:rgb(100%,100%,100%);fill-opacity:1;" d="M 6.015625 6.6875 L 4.363281 4.519531 L 4.859375 4.246094 Z M 6.015625 6.6875 "/>
<path style=" stroke:none;fill-rule:nonzero;fill:rgb(100%,100%,100%);fill-opacity:1;" d="M 5.335938 6.953125 L 4.335938 4.453125 L 4.890625 4.3125 Z M 5.335938 6.953125 "/>
<path style=" stroke:none;fill-rule:nonzero;fill:rgb(100%,100%,100%);fill-opacity:1;" d="M 4.613281 8.101562 L 4.375 4.382812 L 4.847656 4.382812 Z M 4.613281 8.101562 "/>
<path style=" stroke:none;fill-rule:nonzero;fill:rgb(100%,100%,100%);fill-opacity:1;" d="M 3.886719 6.953125 L 4.335938 4.3125 L 4.890625 4.453125 Z M 3.886719 6.953125 "/>
<path style=" stroke:none;fill-rule:nonzero;fill:rgb(100%,100%,100%);fill-opacity:1;" d="M 3.210938 6.6875 L 4.363281 4.246094 L 4.859375 4.519531 Z M 3.210938 6.6875 "/>
<path style=" stroke:none;fill-rule:nonzero;fill:rgb(100%,100%,100%);fill-opacity:1;" d="M 2.628906 6.265625 L 4.410156 4.1875 L 4.816406 4.574219 Z M 2.628906 6.265625 "/>
<path style=" stroke:none;fill-rule:nonzero;fill:rgb(100%,100%,100%);fill-opacity:1;" d="M 2.183594 5.714844 L 4.46875 4.144531 L 4.753906 4.617188 Z M 2.183594 5.714844 "/>
<path style=" stroke:none;fill-rule:nonzero;fill:rgb(100%,100%,100%);fill-opacity:1;" d="M 1.902344 5.070312 L 4.539062 4.117188 L 4.6875 4.644531 Z M 1.902344 5.070312 "/>
<path style=" stroke:none;fill-rule:nonzero;fill:rgb(100%,100%,100%);fill-opacity:1;" d="M 0.695312 4.382812 L 4.613281 4.15625 L 4.613281 4.605469 Z M 0.695312 4.382812 "/>
<path style=" stroke:none;fill-rule:nonzero;fill:rgb(100%,100%,100%);fill-opacity:1;" d="M 1.902344 3.691406 L 4.6875 4.117188 L 4.539062 4.644531 Z M 1.902344 3.691406 "/>
<path style=" stroke:none;fill-rule:nonzero;fill:rgb(100%,100%,100%);fill-opacity:1;" d="M 2.183594 3.050781 L 4.753906 4.144531 L 4.46875 4.617188 Z M 2.183594 3.050781 "/>
<path style=" stroke:none;fill-rule:nonzero;fill:rgb(100%,100%,100%);fill-opacity:1;" d="M 2.628906 2.5 L 4.816406 4.1875 L 4.410156 4.574219 Z M 2.628906 2.5 "/>
<path style=" stroke:none;fill-rule:nonzero;fill:rgb(100%,100%,100%);fill-opacity:1;" d="M 3.210938 2.074219 L 4.859375 4.246094 L 4.363281 4.519531 Z M 3.210938 2.074219 "/>
<path style=" stroke:none;fill-rule:nonzero;fill:rgb(100%,100%,100%);fill-opacity:1;" d="M 3.886719 1.808594 L 4.890625 4.3125 L 4.335938 4.453125 Z M 3.886719 1.808594 "/>
</g>
</svg>
