<?xml version="1.0" encoding="UTF-8"?>
<svg xmlns="http://www.w3.org/2000/svg" xmlns:xlink="http://www.w3.org/1999/xlink" width="24px" height="24px" viewBox="0 0 24 12" version="1.1">
<g id="surface1">
<rect x="0" y="0" width="24" height="12" style="fill:rgb(84.705882%,12.941176%,14.901961%);fill-opacity:1;stroke:none;"/>
<path style=" stroke:none;fill-rule:nonzero;fill:rgb(97.254902%,91.372549%,18.039216%);fill-opacity:1;" d="M 0 7.199219 L 0 4.800781 L 24 7.199219 L 24 4.800781 Z M 10.800781 0 L 13.199219 0 L 12 4.714844 Z M 13.199219 12 L 10.800781 12 L 12 7.285156 Z M 0 0 L 3.601562 0 L 13.101562 6.660156 Z M 0 12 L 3.601562 12 L 13.101562 5.339844 Z M 24 0 L 20.398438 0 L 10.898438 6.660156 Z M 24 12 L 20.398438 12 L 10.898438 5.339844 Z M 24 12 "/>
<path style=" stroke:none;fill-rule:nonzero;fill:rgb(84.705882%,12.941176%,14.901961%);fill-opacity:1;" d="M 14.144531 6 C 14.144531 7.183594 13.183594 8.144531 12 8.144531 C 10.816406 8.144531 9.855469 7.183594 9.855469 6 C 9.855469 4.816406 10.816406 3.855469 12 3.855469 C 13.183594 3.855469 14.144531 4.816406 14.144531 6 Z M 14.144531 6 "/>
<path style=" stroke:none;fill-rule:nonzero;fill:rgb(97.254902%,91.372549%,18.039216%);fill-opacity:1;" d="M 13.714844 6 C 13.714844 6.945312 12.945312 7.714844 12 7.714844 C 11.054688 7.714844 10.285156 6.945312 10.285156 6 C 10.285156 5.054688 11.054688 4.285156 12 4.285156 C 12.945312 4.285156 13.714844 5.054688 13.714844 6 Z M 13.714844 6 "/>
</g>
</svg>
