<?xml version="1.0" encoding="UTF-8"?>
<svg xmlns="http://www.w3.org/2000/svg" xmlns:xlink="http://www.w3.org/1999/xlink" width="24px" height="24px" viewBox="0 0 24 12" version="1.1">
<g id="surface1">
<rect x="0" y="0" width="24" height="12" style="fill:rgb(85.490196%,12.54902%,19.607843%);fill-opacity:1;stroke:none;"/>
<path style=" stroke:none;fill-rule:nonzero;fill:rgb(0%,40%,70.196078%);fill-opacity:1;" d="M 8 0 L 16 0 L 16 12 L 8 12 Z M 8 0 "/>
<path style=" stroke:none;fill-rule:nonzero;fill:rgb(100%,85.098039%,0%);fill-opacity:1;" d="M 1.800781 5.398438 L 2.800781 5.398438 L 2.800781 10.199219 L 1.800781 10.199219 Z M 5.199219 5.398438 L 6.199219 5.398438 L 6.199219 10.199219 L 5.199219 10.199219 Z M 3 9.601562 L 4 10.199219 L 5 9.601562 Z M 3 9 L 5 9 L 5 9.398438 L 3 9.398438 Z M 3 5.398438 L 4 6 L 5 5.398438 Z M 3 6.199219 L 5 6.199219 L 5 6.601562 L 3 6.601562 Z M 4.476562 6.921875 C 4.550781 7.023438 4.589844 7.144531 4.589844 7.269531 C 4.589844 7.597656 4.324219 7.859375 4 7.859375 C 3.742188 7.859375 3.53125 8.070312 3.53125 8.332031 C 3.53125 8.589844 3.742188 8.800781 4 8.800781 C 4.550781 8.800781 5 8.351562 5 7.800781 C 5 7.433594 4.796875 7.09375 4.476562 6.921875 Z M 4 8.128906 C 4.109375 8.128906 4.199219 8.21875 4.199219 8.332031 C 4.199219 8.441406 4.109375 8.53125 4 8.53125 C 3.890625 8.53125 3.800781 8.441406 3.800781 8.332031 C 3.800781 8.21875 3.890625 8.128906 4 8.128906 Z M 4 8.128906 "/>
<path style=" stroke:none;fill-rule:nonzero;fill:rgb(100%,85.098039%,0%);fill-opacity:1;" d="M 3.523438 8.679688 C 3.449219 8.578125 3.410156 8.457031 3.410156 8.332031 C 3.410156 8.003906 3.675781 7.738281 4 7.738281 C 4.257812 7.738281 4.46875 7.53125 4.46875 7.269531 C 4.46875 7.011719 4.257812 6.800781 4 6.800781 C 3.449219 6.800781 3 7.246094 3 7.800781 C 3 8.167969 3.203125 8.503906 3.523438 8.679688 Z M 4 7.46875 C 3.890625 7.46875 3.800781 7.378906 3.800781 7.269531 C 3.800781 7.160156 3.890625 7.070312 4 7.070312 C 4.109375 7.070312 4.199219 7.160156 4.199219 7.269531 C 4.199219 7.378906 4.109375 7.46875 4 7.46875 Z M 2.902344 4.078125 C 2.902344 4.085938 2.902344 4.09375 2.898438 4.101562 C 2.898438 4.707031 3.390625 5.199219 4 5.199219 C 4.609375 5.199219 5.101562 4.707031 5.101562 4.101562 C 5.101562 4.09375 5.101562 4.085938 5.101562 4.078125 C 4.910156 4.515625 4.476562 4.800781 4 4.800781 C 3.523438 4.800781 3.09375 4.515625 2.902344 4.078125 Z M 2.902344 4.078125 "/>
<path style=" stroke:none;fill-rule:nonzero;fill:rgb(100%,85.098039%,0%);fill-opacity:1;" d="M 4.800781 3.800781 C 4.800781 4.242188 4.441406 4.601562 4 4.601562 C 3.558594 4.601562 3.199219 4.242188 3.199219 3.800781 C 3.199219 3.359375 3.558594 3 4 3 C 4.441406 3 4.800781 3.359375 4.800781 3.800781 Z M 4.800781 3.800781 "/>
<path style=" stroke:none;fill-rule:nonzero;fill:rgb(100%,85.098039%,0%);fill-opacity:1;" d="M 4.085938 1.199219 C 3.984375 1.246094 3.949219 1.328125 3.941406 1.40625 C 3.933594 1.476562 3.964844 1.550781 3.96875 1.621094 C 3.96875 1.734375 3.847656 1.773438 3.847656 1.9375 C 3.847656 1.992188 3.902344 2.054688 3.902344 2.199219 C 3.890625 2.277344 3.847656 2.292969 3.800781 2.300781 C 3.746094 2.300781 3.699219 2.253906 3.699219 2.199219 C 3.699219 2.175781 3.710938 2.148438 3.730469 2.132812 C 3.730469 2.128906 3.734375 2.125 3.738281 2.121094 C 3.761719 2.097656 3.792969 2.089844 3.792969 2.027344 C 3.792969 1.996094 3.773438 1.96875 3.753906 1.914062 C 3.734375 1.859375 3.75 1.769531 3.792969 1.71875 C 3.722656 1.746094 3.679688 1.8125 3.65625 1.871094 C 3.632812 1.945312 3.652344 1.988281 3.621094 2.050781 C 3.601562 2.089844 3.578125 2.105469 3.558594 2.140625 C 3.53125 2.175781 3.5 2.261719 3.5 2.300781 C 3.5 2.574219 3.726562 2.800781 4 2.800781 C 4.277344 2.800781 4.5 2.574219 4.5 2.300781 C 4.5 2.261719 4.472656 2.175781 4.445312 2.140625 C 4.421875 2.105469 4.398438 2.089844 4.378906 2.050781 C 4.347656 1.988281 4.367188 1.945312 4.347656 1.871094 C 4.324219 1.8125 4.28125 1.746094 4.210938 1.71875 C 4.253906 1.769531 4.265625 1.859375 4.25 1.914062 C 4.230469 1.96875 4.210938 1.996094 4.210938 2.027344 C 4.210938 2.089844 4.238281 2.097656 4.261719 2.121094 C 4.265625 2.125 4.269531 2.128906 4.273438 2.132812 C 4.289062 2.148438 4.300781 2.175781 4.300781 2.199219 C 4.300781 2.253906 4.257812 2.300781 4.199219 2.300781 C 4.144531 2.292969 4.105469 2.265625 4.101562 2.199219 C 4.101562 2.007812 4.183594 1.996094 4.183594 1.851562 C 4.183594 1.648438 4 1.554688 4 1.40625 C 4 1.355469 4.011719 1.269531 4.085938 1.199219 Z M 4.085938 1.199219 "/>
</g>
</svg>
