<?xml version="1.0" encoding="UTF-8"?>
<svg xmlns="http://www.w3.org/2000/svg" xmlns:xlink="http://www.w3.org/1999/xlink" width="24px" height="24px" viewBox="0 0 24 16" version="1.1">
<g id="surface1">
<rect x="0" y="0" width="24" height="16" style="fill:rgb(0%,47.058824%,36.862745%);fill-opacity:1;stroke:none;"/>
<path style=" stroke:none;fill-rule:nonzero;fill:rgb(98.431373%,81.960784%,8.627451%);fill-opacity:1;" d="M 12 3.015625 L 11.484375 4.605469 L 12.835938 3.625 L 11.164062 3.625 L 12.515625 4.605469 Z M 12 3.015625 "/>
<path style=" stroke:none;fill-rule:nonzero;fill:rgb(100%,100%,100%);fill-opacity:1;" d="M 12 11.054688 L 8.585938 11.054688 C 8.542969 11.011719 8.5 10.964844 8.457031 10.921875 L 12 10.921875 C 12.027344 10.929688 12.046875 10.957031 12.046875 10.984375 C 12.050781 11.015625 12.03125 11.042969 12 11.054688 Z M 12 10.007812 C 12.019531 9.96875 12.058594 9.875 12.039062 9.757812 C 12.03125 9.703125 12.015625 9.660156 12 9.632812 C 11.808594 9.8125 11.449219 10.101562 10.917969 10.265625 C 10.667969 10.339844 10.40625 10.378906 10.132812 10.378906 L 8.027344 10.378906 C 8.089844 10.46875 8.15625 10.558594 8.222656 10.644531 L 10.257812 10.644531 C 10.921875 10.644531 11.53125 10.40625 12 10.007812 Z M 8.347656 9.1875 C 8.246094 9.226562 8.136719 9.25 8.023438 9.257812 C 8.519531 9.816406 9.242188 10.171875 10.050781 10.171875 C 10.816406 10.171875 11.507812 9.851562 12 9.339844 C 12.082031 8.761719 12.144531 8.105469 12.152344 7.375 C 12.160156 6.527344 12.09375 5.769531 12 5.121094 C 11.78125 5.316406 11.367188 5.742188 11.175781 6.394531 C 11.101562 6.640625 11.0625 6.898438 11.0625 7.167969 C 11.0625 7.722656 11.230469 8.238281 11.519531 8.667969 C 11.164062 8.210938 10.953125 7.640625 10.953125 7.015625 C 10.953125 6.601562 11.046875 6.210938 11.214844 5.859375 C 11.097656 5.738281 11.011719 5.59375 10.960938 5.429688 C 10.738281 5.820312 10.613281 6.273438 10.613281 6.757812 C 10.613281 7.359375 10.808594 7.914062 11.140625 8.363281 C 10.5625 7.757812 9.746094 7.378906 8.839844 7.378906 C 8.792969 7.378906 8.746094 7.378906 8.695312 7.382812 C 8.789062 7.46875 8.863281 7.566406 8.921875 7.679688 C 9.820312 7.679688 10.632812 8.054688 11.210938 8.660156 C 10.660156 8.199219 9.949219 7.921875 9.175781 7.921875 C 8.742188 7.921875 8.328125 8.007812 7.953125 8.164062 C 8.339844 9.1875 9.328125 9.914062 10.484375 9.914062 C 10.558594 9.914062 10.632812 9.910156 10.707031 9.902344 C 10.550781 9.929688 10.390625 9.945312 10.226562 9.945312 C 9.496094 9.945312 8.832031 9.65625 8.347656 9.1875 Z M 12 12.144531 L 10.230469 12.144531 C 10.777344 12.363281 11.375 12.484375 12 12.484375 C 12.015625 12.453125 12.039062 12.394531 12.042969 12.316406 C 12.042969 12.234375 12.015625 12.175781 12 12.144531 Z M 12 11.328125 L 8.878906 11.328125 C 8.964844 11.402344 9.050781 11.472656 9.140625 11.539062 L 12 11.539062 C 12.007812 11.53125 12.042969 11.492188 12.042969 11.433594 C 12.042969 11.375 12.007812 11.335938 12 11.328125 Z M 12 11.746094 L 9.445312 11.746094 C 9.597656 11.84375 9.757812 11.933594 9.925781 12.011719 L 12 12.011719 C 12.011719 11.992188 12.039062 11.941406 12.039062 11.871094 C 12.035156 11.808594 12.011719 11.765625 12 11.746094 Z M 12 11.746094 "/>
<path style=" stroke:none;fill-rule:nonzero;fill:rgb(98.431373%,81.960784%,8.627451%);fill-opacity:1;" d="M 8.640625 5.480469 L 8.152344 6.527344 L 9.164062 5.964844 L 8.015625 5.824219 L 8.863281 6.613281 Z M 8.640625 5.480469 "/>
<path style=" stroke:none;fill-rule:nonzero;fill:rgb(98.431373%,81.960784%,8.627451%);fill-opacity:1;" d="M 9.480469 4.082031 L 9.816406 5.1875 L 10.195312 4.09375 L 9.246094 4.757812 L 10.402344 4.777344 Z M 9.480469 4.082031 "/>
<path style=" stroke:none;fill-rule:nonzero;fill:rgb(100%,100%,100%);fill-opacity:1;" d="M 12 11.054688 L 15.414062 11.054688 C 15.457031 11.011719 15.5 10.964844 15.542969 10.921875 L 12 10.921875 C 11.972656 10.929688 11.953125 10.957031 11.953125 10.984375 C 11.949219 11.015625 11.96875 11.042969 12 11.054688 Z M 12 10.007812 C 11.980469 9.96875 11.941406 9.875 11.960938 9.757812 C 11.96875 9.703125 11.984375 9.660156 12 9.632812 C 12.191406 9.8125 12.550781 10.101562 13.082031 10.265625 C 13.332031 10.339844 13.59375 10.378906 13.867188 10.378906 L 15.972656 10.378906 C 15.910156 10.46875 15.84375 10.558594 15.777344 10.644531 L 13.742188 10.644531 C 13.078125 10.644531 12.46875 10.40625 12 10.007812 Z M 15.652344 9.1875 C 15.753906 9.226562 15.863281 9.25 15.976562 9.257812 C 15.480469 9.816406 14.757812 10.171875 13.949219 10.171875 C 13.183594 10.171875 12.492188 9.851562 12 9.339844 C 11.917969 8.761719 11.855469 8.105469 11.847656 7.375 C 11.839844 6.527344 11.90625 5.769531 12 5.121094 C 12.21875 5.316406 12.632812 5.742188 12.824219 6.394531 C 12.898438 6.640625 12.9375 6.898438 12.9375 7.167969 C 12.9375 7.722656 12.769531 8.238281 12.480469 8.667969 C 12.835938 8.210938 13.046875 7.640625 13.046875 7.015625 C 13.046875 6.601562 12.953125 6.210938 12.785156 5.859375 C 12.902344 5.738281 12.988281 5.59375 13.039062 5.429688 C 13.261719 5.820312 13.386719 6.273438 13.386719 6.757812 C 13.386719 7.359375 13.191406 7.914062 12.859375 8.363281 C 13.4375 7.757812 14.253906 7.378906 15.160156 7.378906 C 15.207031 7.378906 15.253906 7.378906 15.304688 7.382812 C 15.210938 7.46875 15.136719 7.566406 15.078125 7.679688 C 14.179688 7.679688 13.367188 8.054688 12.789062 8.660156 C 13.339844 8.199219 14.050781 7.921875 14.824219 7.921875 C 15.257812 7.921875 15.671875 8.007812 16.046875 8.164062 C 15.660156 9.1875 14.671875 9.914062 13.515625 9.914062 C 13.441406 9.914062 13.367188 9.910156 13.292969 9.902344 C 13.449219 9.929688 13.609375 9.945312 13.773438 9.945312 C 14.503906 9.945312 15.167969 9.65625 15.652344 9.1875 Z M 12 12.144531 L 13.769531 12.144531 C 13.222656 12.363281 12.625 12.484375 12 12.484375 C 11.984375 12.453125 11.960938 12.394531 11.957031 12.316406 C 11.957031 12.234375 11.984375 12.175781 12 12.144531 Z M 12 11.328125 L 15.121094 11.328125 C 15.035156 11.402344 14.949219 11.472656 14.859375 11.539062 L 12 11.539062 C 11.992188 11.53125 11.957031 11.492188 11.957031 11.433594 C 11.957031 11.375 11.992188 11.335938 12 11.328125 Z M 12 11.746094 L 14.554688 11.746094 C 14.402344 11.84375 14.242188 11.933594 14.074219 12.011719 L 12 12.011719 C 11.988281 11.992188 11.960938 11.941406 11.960938 11.871094 C 11.964844 11.808594 11.988281 11.765625 12 11.746094 Z M 12 11.746094 "/>
<path style=" stroke:none;fill-rule:nonzero;fill:rgb(98.431373%,81.960784%,8.627451%);fill-opacity:1;" d="M 15.359375 5.480469 L 15.847656 6.527344 L 14.835938 5.964844 L 15.984375 5.824219 L 15.136719 6.613281 Z M 15.359375 5.480469 "/>
<path style=" stroke:none;fill-rule:nonzero;fill:rgb(98.431373%,81.960784%,8.627451%);fill-opacity:1;" d="M 14.519531 4.082031 L 14.183594 5.1875 L 13.804688 4.09375 L 14.753906 4.757812 L 13.597656 4.777344 Z M 14.519531 4.082031 "/>
</g>
</svg>
