<?xml version="1.0" encoding="utf-8"?>
<svg viewBox="0 0 24 16" width="24px" height="16px" xmlns="http://www.w3.org/2000/svg">
  <defs/>
  <path fill="#d01c1f" d="M 0 0 L 24 0 L 24 16 L 0 16 L 0 0 Z"/>
  <path fill="#00a95c" d="M 0 3.2 L 24 3.2 L 24 12.8 L 0 12.8 L 0 3.2 Z"/>
  <path fill="gold" d="M 10.392 5.952 L 11.616 5.952 L 12 4.8 L 12.384 5.952 L 13.608 5.952 L 12.6 6.688 L 13.008 7.856 L 12 7.136 L 10.992 7.856 L 11.4 6.688 L 10.392 5.952 Z M 6 5.36 C 6.76 9.176 12.235 10.881 15.855 8.429 C 16.998 7.655 17.76 6.564 18 5.36 C 18 9.856 13 12.665 9 10.418 C 7.144 9.374 6 7.446 6 5.36 Z"/>
</svg>