<?xml version="1.0" encoding="utf-8"?>
<svg viewBox="0 0 24 16" width="24px" height="16px" xmlns="http://www.w3.org/2000/svg">
  <defs/>
  <path fill="#C8102E" d="M 0 0 L 24 0 L 24 16 L 0 16 L 0 0 Z"/>
  <path fill="#fff" d="M 0 0 L 12 0 L 12 16 L 0 16 L 0 0 Z"/>
  <path fill="#C8102E" d="M 0.593 2.209 L 0.593 3.421 L 1.805 3.421 C 1.805 3.623 2.007 3.825 2.209 3.825 L 2.209 5.037 L 3.421 5.037 L 3.421 3.825 C 3.623 3.825 3.825 3.623 3.825 3.421 L 5.037 3.421 L 5.037 2.209 L 3.825 2.209 C 3.825 2.007 3.623 1.805 3.421 1.805 L 3.421 0.593 L 2.209 0.593 L 2.209 1.805 C 2.007 1.805 1.805 2.007 1.805 2.209 L 0.593 2.209 L 0.593 2.209 Z"/>
  <path fill="#96877d" d="M 0.673 2.29 L 0.673 3.34 L 1.885 3.34 C 1.885 3.542 2.088 3.744 2.29 3.744 L 2.29 4.956 L 3.34 4.956 L 3.34 3.744 C 3.542 3.744 3.744 3.542 3.744 3.34 L 4.956 3.34 L 4.956 2.29 L 3.744 2.29 C 3.744 2.088 3.542 1.885 3.34 1.885 L 3.34 0.673 L 2.29 0.673 L 2.29 1.885 C 2.088 1.885 1.885 2.088 1.885 2.29 L 0.673 2.29 Z"/>
  <path fill="#ccc" d="M 0.714 2.33 L 0.714 3.3 L 1.926 3.3 C 1.926 3.502 2.128 3.704 2.33 3.704 L 2.33 4.916 L 3.3 4.916 L 3.3 3.704 C 3.502 3.704 3.704 3.502 3.704 3.3 L 4.916 3.3 L 4.916 2.33 L 3.704 2.33 C 3.704 2.128 3.502 1.926 3.3 1.926 L 3.3 0.714 L 2.33 0.714 L 2.33 1.926 C 2.128 1.926 1.926 2.128 1.926 2.33 L 0.714 2.33 Z"/>
  <g id="a" fill="#d0d0d0" transform="matrix(0.026667, 0, 0, 0.026667, 0, 0)">
    <path fill="#96877d" d="M84.536 71.681c2.663 2.663 1.943 7.7-1.607 11.25s-8.587 4.27-11.25 1.607c-2.662-2.662-1.942-7.7 1.608-11.25s8.587-4.27 11.249-1.607z"/>
    <path d="M71.143 79.715l1.071-1.072 4.286 2.142-2.143-4.285 1.071-1.072 4.286 8.57-8.571-4.285zm6.429-6.428l1.071-1.071 6.429 6.428L84 79.715z"/>
  </g>
  <g fill="#d0d0d0" transform="matrix(0, 0.026667, -0.026667, 0, 5.629653, 0.000053)">
    <path fill="#96877d" d="M84.536 71.681c2.663 2.663 1.943 7.7-1.607 11.25s-8.587 4.27-11.25 1.607c-2.662-2.662-1.942-7.7 1.608-11.25s8.587-4.27 11.249-1.607z"/>
    <path d="M71.143 79.715l1.071-1.072 4.286 2.142-2.143-4.285 1.071-1.072 4.286 8.57-8.571-4.285zm6.429-6.428l1.071-1.071 6.429 6.428L84 79.715z"/>
  </g>
  <g fill="#d0d0d0" transform="matrix(-0.026667, 0, 0, -0.026667, 5.6296, 5.629707)">
    <path fill="#96877d" d="M84.536 71.681c2.663 2.663 1.943 7.7-1.607 11.25s-8.587 4.27-11.25 1.607c-2.662-2.662-1.942-7.7 1.608-11.25s8.587-4.27 11.249-1.607z"/>
    <path d="M71.143 79.715l1.071-1.072 4.286 2.142-2.143-4.285 1.071-1.072 4.286 8.57-8.571-4.285zm6.429-6.428l1.071-1.071 6.429 6.428L84 79.715z"/>
  </g>
  <g fill="#d0d0d0" transform="matrix(0, -0.026667, 0.026667, 0, -0.000053, 5.629653)">
    <path fill="#96877d" d="M84.536 71.681c2.663 2.663 1.943 7.7-1.607 11.25s-8.587 4.27-11.25 1.607c-2.662-2.662-1.942-7.7 1.608-11.25s8.587-4.27 11.249-1.607z"/>
    <path d="M71.143 79.715l1.071-1.072 4.286 2.142-2.143-4.285 1.071-1.072 4.286 8.57-8.571-4.285zm6.429-6.428l1.071-1.071 6.429 6.428L84 79.715z"/>
  </g>
  <g fill="none" stroke="#96877d" stroke-width=".514" transform="matrix(0.026667, 0, 0, 0.026667, 0, 0)">
    <circle cx="105.555" cy="105.557" r="31.822"/>
    <circle cx="105.555" cy="105.557" r="24.245"/>
  </g>
  <circle cx="2.492" cy="3.502" r="0.04"/>
  <circle cx="3.138" cy="3.502" r="0.04"/>
  <path d="M 2.788 3.502 L 2.788 3.544 L 2.734 3.544 C 2.68 3.544 2.68 3.586 2.734 3.586 L 2.788 3.586 L 2.788 3.628 C 2.788 3.672 2.835 3.677 2.838 3.632 L 2.842 3.586 L 2.896 3.586 C 2.95 3.586 2.95 3.544 2.896 3.544 L 2.842 3.544 L 2.842 3.502 C 2.842 3.46 2.788 3.46 2.788 3.502 L 2.788 3.502 Z M 2.025 3.024 L 2.081 3.011 L 2.075 2.985 C 2.073 2.979 2.071 2.975 2.068 2.973 C 2.065 2.971 2.059 2.97 2.051 2.971 L 2.05 2.967 L 2.098 2.956 L 2.099 2.96 C 2.093 2.961 2.09 2.963 2.087 2.965 C 2.085 2.967 2.084 2.969 2.083 2.972 C 2.082 2.975 2.082 2.978 2.084 2.983 L 2.09 3.009 L 2.134 2.998 C 2.141 2.996 2.146 2.995 2.148 2.993 C 2.15 2.992 2.151 2.99 2.151 2.988 C 2.152 2.985 2.152 2.981 2.152 2.978 L 2.15 2.973 L 2.154 2.972 L 2.169 3.032 L 2.165 3.033 L 2.164 3.028 C 2.162 3.022 2.16 3.019 2.155 3.017 C 2.153 3.016 2.147 3.016 2.139 3.018 L 2.048 3.04 C 2.04 3.042 2.036 3.043 2.034 3.045 C 2.032 3.046 2.031 3.048 2.03 3.05 C 2.029 3.053 2.029 3.057 2.03 3.06 L 2.031 3.065 L 2.027 3.066 L 2.002 2.961 L 2.033 2.952 L 2.034 2.956 C 2.028 2.959 2.023 2.962 2.021 2.966 C 2.018 2.969 2.017 2.972 2.016 2.976 C 2.016 2.98 2.016 2.985 2.018 2.993 L 2.025 3.024 L 2.025 3.024 Z M 1.99 2.773 C 1.991 2.754 1.999 2.739 2.014 2.726 C 2.029 2.713 2.047 2.707 2.069 2.708 C 2.091 2.709 2.109 2.717 2.122 2.732 C 2.136 2.747 2.142 2.764 2.141 2.784 C 2.14 2.804 2.132 2.82 2.117 2.833 C 2.102 2.845 2.083 2.851 2.061 2.85 C 2.038 2.849 2.019 2.84 2.006 2.823 C 1.994 2.809 1.988 2.791 1.99 2.773 Z M 1.997 2.776 C 1.997 2.789 2.001 2.799 2.01 2.808 C 2.021 2.818 2.039 2.824 2.062 2.825 C 2.086 2.827 2.104 2.823 2.117 2.813 C 2.127 2.806 2.133 2.795 2.134 2.783 C 2.135 2.77 2.129 2.757 2.12 2.749 C 2.109 2.739 2.093 2.734 2.07 2.733 C 2.045 2.731 2.026 2.735 2.014 2.744 C 2.004 2.751 1.998 2.762 1.997 2.776 L 1.997 2.776 Z M 2.208 2.51 L 2.194 2.547 L 2.113 2.568 C 2.112 2.572 2.11 2.576 2.109 2.58 C 2.109 2.581 2.108 2.582 2.108 2.583 L 2.147 2.598 C 2.156 2.601 2.161 2.602 2.164 2.601 C 2.168 2.6 2.171 2.596 2.173 2.591 L 2.175 2.586 L 2.179 2.587 L 2.156 2.645 L 2.153 2.644 L 2.155 2.639 C 2.157 2.633 2.157 2.628 2.154 2.625 C 2.152 2.622 2.148 2.62 2.14 2.617 L 2.052 2.583 C 2.044 2.58 2.038 2.579 2.035 2.58 C 2.031 2.582 2.028 2.585 2.026 2.59 L 2.024 2.595 L 2.021 2.594 L 2.039 2.544 C 2.045 2.53 2.05 2.52 2.055 2.514 C 2.059 2.508 2.066 2.503 2.073 2.501 C 2.08 2.498 2.088 2.498 2.096 2.501 C 2.104 2.504 2.11 2.51 2.115 2.518 C 2.119 2.525 2.12 2.535 2.118 2.548 L 2.168 2.535 C 2.179 2.532 2.187 2.528 2.192 2.525 C 2.196 2.521 2.201 2.516 2.204 2.509 L 2.208 2.51 L 2.208 2.51 Z M 2.101 2.58 C 2.102 2.578 2.103 2.577 2.104 2.575 C 2.108 2.562 2.109 2.551 2.106 2.542 C 2.103 2.534 2.097 2.527 2.089 2.524 C 2.08 2.521 2.072 2.521 2.065 2.524 C 2.058 2.528 2.052 2.534 2.049 2.542 C 2.047 2.546 2.046 2.552 2.045 2.559 L 2.101 2.58 L 2.101 2.58 Z M 2.411 2.099 L 2.439 2.135 L 2.435 2.137 C 2.426 2.13 2.417 2.125 2.409 2.124 C 2.397 2.121 2.386 2.124 2.374 2.131 C 2.359 2.141 2.351 2.155 2.351 2.173 C 2.351 2.187 2.355 2.202 2.365 2.216 C 2.372 2.228 2.381 2.237 2.392 2.244 C 2.403 2.25 2.413 2.254 2.423 2.253 C 2.433 2.253 2.442 2.251 2.45 2.246 C 2.459 2.24 2.466 2.232 2.471 2.223 L 2.448 2.187 C 2.444 2.181 2.441 2.177 2.439 2.176 C 2.437 2.175 2.434 2.174 2.432 2.175 C 2.429 2.175 2.426 2.177 2.421 2.18 L 2.418 2.176 L 2.466 2.146 L 2.468 2.149 L 2.466 2.151 C 2.461 2.154 2.459 2.157 2.459 2.162 C 2.459 2.165 2.461 2.169 2.466 2.176 L 2.49 2.213 C 2.486 2.221 2.481 2.228 2.475 2.235 C 2.469 2.241 2.462 2.246 2.454 2.252 C 2.43 2.267 2.408 2.271 2.386 2.264 C 2.369 2.259 2.356 2.248 2.346 2.234 C 2.34 2.223 2.335 2.21 2.334 2.198 C 2.333 2.183 2.335 2.168 2.342 2.154 C 2.348 2.143 2.356 2.134 2.369 2.126 C 2.373 2.123 2.377 2.121 2.381 2.119 C 2.385 2.118 2.392 2.116 2.4 2.114 C 2.403 2.114 2.405 2.113 2.408 2.112 C 2.409 2.111 2.41 2.11 2.41 2.108 C 2.41 2.107 2.409 2.104 2.407 2.101 L 2.411 2.099 L 2.411 2.099 Z M 2.647 2.115 L 2.593 2.13 L 2.589 2.154 C 2.588 2.16 2.588 2.165 2.589 2.168 C 2.589 2.17 2.591 2.171 2.593 2.172 C 2.596 2.173 2.601 2.173 2.607 2.172 L 2.609 2.176 L 2.564 2.188 L 2.563 2.184 C 2.569 2.181 2.572 2.179 2.574 2.177 C 2.576 2.172 2.578 2.165 2.58 2.153 L 2.599 2.025 L 2.602 2.024 L 2.682 2.128 C 2.689 2.136 2.694 2.141 2.698 2.143 C 2.702 2.145 2.707 2.145 2.712 2.144 L 2.713 2.148 L 2.658 2.163 L 2.657 2.159 C 2.663 2.157 2.666 2.155 2.668 2.153 C 2.669 2.151 2.67 2.149 2.669 2.146 C 2.668 2.143 2.666 2.139 2.661 2.133 L 2.647 2.115 L 2.647 2.115 Z M 2.642 2.108 L 2.603 2.058 L 2.594 2.121 L 2.642 2.108 L 2.642 2.108 Z M 2.899 2.108 L 2.902 2.108 L 2.888 2.147 L 2.776 2.143 L 2.776 2.139 L 2.782 2.139 C 2.788 2.14 2.792 2.138 2.795 2.134 C 2.797 2.132 2.797 2.126 2.798 2.118 L 2.801 2.024 C 2.802 2.015 2.801 2.01 2.799 2.007 C 2.796 2.004 2.792 2.002 2.787 2.002 L 2.781 2.002 L 2.782 1.998 L 2.847 2 L 2.847 2.004 C 2.839 2.004 2.834 2.004 2.831 2.006 C 2.828 2.007 2.826 2.009 2.824 2.011 C 2.823 2.014 2.822 2.019 2.822 2.028 L 2.818 2.119 C 2.818 2.125 2.819 2.129 2.82 2.131 C 2.82 2.133 2.822 2.134 2.823 2.135 C 2.825 2.135 2.831 2.136 2.84 2.136 L 2.851 2.137 C 2.862 2.137 2.87 2.137 2.874 2.135 C 2.879 2.134 2.883 2.131 2.887 2.127 C 2.891 2.123 2.895 2.116 2.899 2.108 L 2.899 2.108 Z M 3.092 2.159 L 3.095 2.161 L 3.071 2.195 L 2.964 2.159 L 2.966 2.156 L 2.971 2.157 C 2.977 2.159 2.981 2.159 2.985 2.156 C 2.987 2.154 2.99 2.149 2.992 2.141 L 3.022 2.052 C 3.025 2.044 3.025 2.038 3.024 2.035 C 3.023 2.031 3.019 2.029 3.014 2.027 L 3.009 2.025 L 3.01 2.021 L 3.073 2.042 L 3.071 2.046 C 3.064 2.043 3.059 2.042 3.055 2.043 C 3.052 2.043 3.05 2.044 3.047 2.046 C 3.046 2.048 3.043 2.053 3.041 2.061 L 3.012 2.148 C 3.01 2.154 3.009 2.158 3.01 2.16 C 3.01 2.162 3.011 2.163 3.012 2.164 C 3.014 2.166 3.019 2.168 3.028 2.171 L 3.038 2.174 C 3.049 2.178 3.056 2.179 3.061 2.179 C 3.066 2.179 3.071 2.177 3.076 2.175 C 3.08 2.172 3.086 2.167 3.092 2.159 L 3.092 2.159 Z M 3.248 2.242 L 3.202 2.209 L 3.181 2.222 C 3.176 2.226 3.172 2.228 3.171 2.231 C 3.17 2.233 3.169 2.235 3.17 2.237 C 3.171 2.24 3.174 2.243 3.179 2.248 L 3.177 2.251 L 3.14 2.225 L 3.142 2.221 C 3.147 2.224 3.152 2.225 3.154 2.225 C 3.159 2.224 3.166 2.221 3.176 2.215 L 3.287 2.147 L 3.29 2.149 L 3.261 2.277 C 3.259 2.287 3.258 2.294 3.259 2.299 C 3.26 2.303 3.263 2.307 3.268 2.311 L 3.266 2.314 L 3.219 2.281 L 3.221 2.277 C 3.226 2.281 3.23 2.282 3.232 2.282 C 3.235 2.282 3.237 2.281 3.238 2.279 C 3.24 2.276 3.242 2.271 3.243 2.264 L 3.248 2.242 L 3.248 2.242 Z M 3.25 2.234 L 3.264 2.172 L 3.21 2.205 L 3.25 2.234 Z M 3.423 2.266 L 3.446 2.297 L 3.412 2.433 L 3.479 2.384 C 3.486 2.378 3.49 2.374 3.491 2.371 C 3.491 2.367 3.49 2.363 3.487 2.358 L 3.484 2.354 L 3.487 2.352 L 3.517 2.393 L 3.514 2.395 L 3.511 2.391 C 3.507 2.386 3.503 2.384 3.499 2.384 C 3.496 2.384 3.491 2.386 3.485 2.391 L 3.386 2.464 L 3.384 2.461 L 3.421 2.314 L 3.349 2.368 C 3.342 2.373 3.338 2.377 3.337 2.38 C 3.336 2.384 3.338 2.388 3.341 2.393 L 3.344 2.397 L 3.341 2.399 L 3.311 2.359 L 3.314 2.356 L 3.317 2.36 C 3.321 2.365 3.325 2.368 3.329 2.367 C 3.332 2.367 3.337 2.365 3.343 2.36 L 3.424 2.3 C 3.426 2.295 3.426 2.291 3.427 2.286 C 3.427 2.284 3.426 2.28 3.424 2.276 C 3.423 2.273 3.422 2.27 3.42 2.268 L 3.423 2.266 L 3.423 2.266 Z M 3.606 2.603 L 3.574 2.616 L 3.573 2.612 C 3.578 2.609 3.582 2.607 3.584 2.605 C 3.587 2.602 3.589 2.598 3.59 2.594 C 3.59 2.589 3.59 2.584 3.588 2.579 L 3.581 2.56 L 3.476 2.597 C 3.468 2.6 3.463 2.602 3.461 2.605 C 3.459 2.608 3.459 2.613 3.461 2.618 L 3.463 2.623 L 3.459 2.624 L 3.439 2.566 L 3.443 2.565 L 3.444 2.57 C 3.446 2.575 3.449 2.579 3.454 2.58 C 3.457 2.581 3.462 2.58 3.469 2.577 L 3.574 2.54 L 3.568 2.524 C 3.566 2.517 3.564 2.513 3.562 2.511 C 3.559 2.507 3.556 2.505 3.551 2.504 C 3.547 2.503 3.541 2.503 3.535 2.505 L 3.534 2.501 L 3.566 2.491 L 3.606 2.603 L 3.606 2.603 Z M 3.491 2.861 L 3.489 2.822 L 3.554 2.77 C 3.554 2.766 3.554 2.762 3.553 2.758 L 3.553 2.754 L 3.511 2.757 C 3.502 2.757 3.497 2.758 3.494 2.76 C 3.491 2.763 3.49 2.767 3.49 2.773 L 3.491 2.779 L 3.487 2.779 L 3.483 2.717 L 3.487 2.716 L 3.488 2.722 C 3.488 2.728 3.49 2.732 3.494 2.735 C 3.497 2.736 3.502 2.737 3.51 2.736 L 3.604 2.731 C 3.613 2.731 3.619 2.729 3.621 2.727 C 3.624 2.724 3.625 2.72 3.625 2.715 L 3.625 2.709 L 3.629 2.709 L 3.631 2.762 C 3.632 2.777 3.632 2.789 3.63 2.796 C 3.628 2.804 3.624 2.81 3.618 2.815 C 3.613 2.821 3.605 2.824 3.597 2.824 C 3.589 2.825 3.58 2.822 3.573 2.817 C 3.567 2.811 3.561 2.802 3.558 2.79 L 3.518 2.823 C 3.509 2.83 3.503 2.836 3.5 2.841 C 3.497 2.846 3.495 2.853 3.495 2.861 L 3.491 2.861 L 3.491 2.861 Z M 3.56 2.754 C 3.56 2.755 3.56 2.757 3.56 2.758 L 3.56 2.76 C 3.561 2.774 3.565 2.784 3.571 2.791 C 3.577 2.798 3.585 2.801 3.594 2.8 C 3.604 2.8 3.611 2.796 3.616 2.791 C 3.622 2.785 3.624 2.777 3.623 2.768 C 3.623 2.762 3.622 2.756 3.621 2.751 L 3.56 2.754 L 3.56 2.754 Z M 3.6 3.053 L 3.587 3.102 L 3.583 3.101 L 3.584 3.098 C 3.585 3.096 3.584 3.094 3.584 3.09 C 3.583 3.086 3.582 3.082 3.579 3.079 C 3.576 3.073 3.572 3.069 3.568 3.064 L 3.523 3.016 L 3.488 3.007 C 3.479 3.005 3.474 3.004 3.471 3.006 C 3.467 3.008 3.465 3.011 3.463 3.017 L 3.462 3.022 L 3.458 3.021 L 3.474 2.961 L 3.478 2.962 L 3.476 2.967 C 3.475 2.973 3.476 2.978 3.479 2.981 C 3.48 2.983 3.485 2.985 3.493 2.987 L 3.526 2.996 L 3.595 2.973 C 3.603 2.97 3.609 2.968 3.611 2.967 C 3.613 2.966 3.616 2.963 3.62 2.958 C 3.621 2.957 3.622 2.955 3.622 2.953 L 3.626 2.954 L 3.61 3.014 L 3.606 3.013 L 3.607 3.01 C 3.608 3.007 3.608 3.003 3.607 3 C 3.607 2.997 3.604 2.995 3.602 2.994 C 3.599 2.994 3.594 2.995 3.586 2.997 L 3.533 3.015 L 3.57 3.053 C 3.575 3.059 3.579 3.063 3.582 3.063 C 3.586 3.065 3.59 3.063 3.593 3.06 C 3.594 3.058 3.596 3.055 3.596 3.052 L 3.6 3.053 L 3.6 3.053 Z"/>
  <g fill="#96877d" stroke="#000" stroke-width=".203" transform="matrix(0.026667, 0, 0, 0.026667, 0, 0)">
    <path d="M122.85 110.19c.532-.135 1.41-.026 1.41-.026s.076.365-.155.487c.257.148 1.18.103 1.18.103s-.36.275-.539.384c.333.032.743.461.743.461s-.769.128-1.102-.051c.205.41.18.769.18.769s-1.243-.308-1.691-1.128m-2.106-1.699c-.301.743-2.51-.64-2.51-.64s.973 1.543 2.433 1.716M93.181 123.66h25.877l1.998-1.589-3.33-1.793-5.125-1.742-2.05-1.127-3.791.204-3.177 1.691-4.356.513-1.025 1.178-3.228.257-5.073-.103 8.455 1.333-6.969-.36 1.794 1.538z"/>
    <path d="M107.12 116.23c-3.241-1.742-4.189 2.55-5.585 3.587 1.883.32 3.305-1.448 4.919-2.306 1.224 3.333 3.151 1.127 3.151 1.127s2.011 3.19 4.689 1.743c.73.55 1.537.05 1.537.05s.974.18 1.179-.256c.512.18 1.076-.46 1.076-.46s1.114.012 1.332-.564c1.653.294 3.843-3.382 3.843-3.382l.666-1.281.974-.205s.064-.64-.461-.615c-.013-.385-.346-.59-.82-.513.09-.23-.256-.41-.256-.41-.923.231-.974 2.563-.974 2.563s-1.614 1.23-2.203 1.537c-.026-1.333-2.255-3.139-1.794-3.997.461-.858 1.909 1.32 3.177.922 1.268-.397 1.891-2.047 1.947-3.33-.358-.872-1.23-2.306-1.23-2.306l-.82-.052-.717-1.742s-1.511.987-1.486 1.845c.026.858 1.589 1.588 1.589 1.588s-.901.564-1.742.308c-.077.87 1.024.704 1.434.717.205.628.82.974.82.974s.385.96-.615.87c-.999-.089-2.178-2.391-3.587-1.331-1.498 1.127.667 3.177.667 3.177s-1.32.691-2.101 2.46c-3.19-2.691-5.06-1.436-8.609-.718z"/>
    <path d="M102.46 111.67c1.332 1.255.403 3.342.922 3.74.551.423 1.333-.204 1.333-.204 1.396.371 3.894-.41 3.894-.41 1.1.615.665-.293 1.332-.256.59 1.511 2.562 1.23 2.562 1.23s-1.806-1.845-2.92-2.358c-.859.513-3.357.59-3.792.513-.486-.086-.18-.68-.41-1.025.918-.894.192-3.113-.308-3.946-2.036-1.356-4.468.968-2.613 2.716zm-8.861-3.75c-1.676.453-4.583-2.165-5.942-1.16s-.725 3.479.18 4.71c.886 1.205-1.294 1.64-1.883 2.356-.554.673.18 1.45.18 1.45l.617.398-.109.906.326 1.087s.3.262.399-.073c.28.281.03 1.093.725 1.196-.25-.52.18-1.957.18-1.957s1.215.091 1.523-.434c.307-.526-.29-1.667-.29-1.667h.362c-.408-.28-.544-1.123-.544-1.123s1.685-.535 1.667-1.812c-.018-1.277-2.735-2.636-1.739-3.297 1.105-.734 3.025 1.902 4.674.688 1.632-1.201.58-.036.58-.036s.746-1.678-.906-1.232zm8.651-17.949c-2.242-.935-6.822-.993-9.377-2.255-1.121.07-1.62.955-1.666 1.307-1.172-.058-1.966 1.787-1.793 2.152-2.133-.864-3.126 2.511-2.434 3.203-1.82.077-1.595 2.402-1.768 3.049-.583 1.415.13 1.892 1.281 1.383.173.615-.07.96-.59 1.076 3.158 3.614 4.943-2.223 7.713-2.203 3.458-1.012 4.816-2.716 4.816-2.716l1.358.18 2.46-5.176z"/>
    <circle cx="105.145" cy="87.384" r="3.305"/>
    <path d="M99.33 113.41c-2.05-.372-5.444-2.498-5.79-5.278 1.908-7.494 11.755-3.58 12.604-9.217-.217-3.719.45-7.4 2.512-10.511.96-1.217 2.203-1.537 2.203-1.537s.223.793-.102 1.332c1.626-.18 3.856.73 5.38.82.448.91.41 1.242.307 1.793-.102.551-.717.41-.717.41-.398.377-.876.761-1.947.564-.807.615-2.511.768-2.511.768s3.561 3.754 2.972 4.92c.743.345 1.845 1.998 1.845 1.998s2.434-1.281 3.228-2.46c1.41 0 3.715 1.474 4.868 1.64 1.41 1.14 2.818 2.306 2.818 2.306s-1.678 1.102-2.408-.359c-.884.077-2.793-2.037-5.432-1.383-.077 2.344-2.664 3.997-2.664 3.997s2.415-.338 3.74.46a139.033 139.033 0 003.382 2.717l1.794 3.074s-1.64.282-2.255-1.845c-.615 1.717-.64-1.063-3.074-2.357-.743.09-1.115.141-1.743-.358-1.755.474-3.83 1.498-6.302 1.23-1.755.55-3.037 2.01-4.817 2.818-1.78.807-2.306.41-2.306.41l-1.435.05c-.207.865-.09 2.179-.87 2.41.499.537-.36 2.83-1.23 3.227.41 1.474 1.61 1.925 2.869 2.665 0 0 1.114-.512 1.844.154s1.486 2.562 1.486 2.562-1.52.103-1.998-.103c-.479-.205-.525-.704-1.076-.563-3.472-3.088-5.302-1.86-5.637-2.562-.342-.72.82-2.6.462-3.792z"/>
    <path d="M90.99 99.655c.181-.226 1.45.254 1.45.254l2.318 1.449 4.71 3.044 1.667 2.427-3.007-.978-4.167-3.587-2.246-1.45s-.906-.933-.725-1.16zm27.86 7.715c-1.627-.41-5.637 4.458-5.637 4.458l3.024 3.28s.09-5.586 2.613-7.738z"/>
    <path d="M99.023 93.789c-.887 1.137-.967 3.429.188 4.353.108 1.391 1.291 4.197 2.22 4.46 1.016.288 5.073 1.23 6.662.974-.304 2.575 1.716 4.641 3.587 5.995-.014.232-.017.514.199.8.21.276 1.192.326 1.235.174.436.613 2.548.882 2.7.609.15-.266-3.105-2.53-3.827-3.222-.613-1.144-1.775-3.694-2.05-5.74-1.597-1.9-4.34-1.862-4.34-1.862l.087-3.723.154-4.202-1.486-.768s.3-.137.461-.308c.361.156 1.04-.57 1.128-.774.341.12.65.12.71-.064.054-.16.115-.879.24-1.25 1.12-.987-.164-3.08-1.878-3.114-1.697-.035-2.077 2.023-2.044 2.18.159.645.125.97 0 1.126-.128.16-.718.513-.718.513s-.948-.449-2.1 0-2.448 1.05-2.512 1.793c-.525.077-1.383.756-1.537 1.333-.461-.09-1.063.294-2.05 1.896-1.767.781-1.87 4.56-1.87 4.56s-.477.695-.5 1.063c-.022.369.167.705.398.64.025.244.346.462.486.385.052.244.403.38.615.346.02.167.702.125.756-.026.06-.166-.067-.996.013-1.063.074-.06.64.372.794.256.154-.115-.03-.484-.115-.627-.077-.128-.564-.27-.679-.871s.307-1.435.307-1.435 1.922-1.512 2.14-2.806c1.447.141 2.213-1.124 2.626-1.601z"/>
    <path d="M95.679 88.37c.439-1.073 2.024-.974 2.024-.974s.567-1.492 2.703-.602c.804-.621 2.92.27 2.92.27s.794-1.057 1.833-.936c1.925.224 2.245 1.989 2.126 2.293-1.053.266-2.879-.856-4.266-.538-.81.458-2.123.942-2.613 1.602-1.284.134-2.655-1.182-4.727-1.115zm4.01 1.781c.48-.295 1.659-.813 2.46-.18.839.904 2.126 1.743 2.126 1.743l1.46.615.667.41-.436 6.687c-1.352-1.383-2.619-1.626-3.587-3.254-.519-.698-.122-2.376-1.025-3.485-.903-1.108-1.864-1.857-1.665-2.536z"/>
    <path d="M103.2 92.082s.765-.145.978.036c.268.09.526.168.598.399.29.086.49.235.49.453.271.072.38.561.38.561l-.254.38s-.29-.271-.326-.56c-.183-.091-.589-.187-.688-.454-.317-.031-.521-.195-.58-.47-.295.067-.598-.345-.598-.345z"/>
    <path d="M109.68 87.717c-.436-.487-1.204-.128-1.204-.128l-2.05 3.536-.897.743-.077 2.767.743 2.587-.256 1.999s1.032-.969 1.153-1.512c.116-.519-.384-2.203-.384-2.203s-.615-1.05.128-2.998c.743-1.947 2.434-3.561 2.844-4.79z"/>
    <path d="M114.74 90.868s-3.2 4.573-8.44 6.2c-1.447.346-.922-3.382-.922-3.382l-.359.103s-.807 3.65 1.127 3.69c5.266-1.038 9.216-6.581 9.216-6.581l-.63-.028zm2.17 26.292s-.487.359-1.127 0c-.333-.769-1.23-.82-1.23-.82s-.578-1.66-1.486-1.178c-.141-.859-1.127-.41-1.127-.41s-.026-1.243-1.179-1.076c.384-1.423-1.589-1.333-1.589-1.333s-.064-1.601-2.972-1.28c6.265-2.806 11.222 4.406 11.222 4.406m2.458 2.301s1.448 1.627 2.203 1.64c.756.013.82-1.589.82-1.589s.244.692.615.513c-.038.486.461.615.461.615s-1.306 3.036-5.021.153m-10.408-.712l-.512 2.1s-.654.59-.462.718c.193.128 1.23-.205 1.23-.205s1.614-.192 2.101-.666c.333.756 1.076.82 1.076.82s.051-.32-.051-.512c.359.064.666-.052.666-.052s.205-.589-.256-.82c.051-.435.269-.82-.512-.768-.577.615-1.999 1.32-2.358 1.076-.358-.243 1.41-1.025.923-2.05"/>
  </g>
</svg>