<?xml version="1.0" encoding="UTF-8"?>
<svg xmlns="http://www.w3.org/2000/svg" xmlns:xlink="http://www.w3.org/1999/xlink" width="24px" height="24px" viewBox="0 0 24 16" version="1.1">
<g id="surface1">
<rect x="0" y="0" width="24" height="16" style="fill:rgb(82.352941%,6.27451%,20.392157%);fill-opacity:1;stroke:none;"/>
<path style=" stroke:none;fill-rule:nonzero;fill:rgb(0%,49.411765%,22.745098%);fill-opacity:1;" d="M 4 4 L 20 4 L 20 12 L 4 12 Z M 4 4 "/>
<path style=" stroke:none;fill-rule:nonzero;fill:rgb(100%,100%,100%);fill-opacity:1;" d="M 15.667969 8 C 15.667969 9.472656 14.472656 10.667969 13 10.667969 C 11.527344 10.667969 10.332031 9.472656 10.332031 8 C 10.332031 6.527344 11.527344 5.332031 13 5.332031 C 14.472656 5.332031 15.667969 6.527344 15.667969 8 Z M 15.667969 8 "/>
<path style=" stroke:none;fill-rule:nonzero;fill:rgb(0%,49.411765%,22.745098%);fill-opacity:1;" d="M 16.667969 8 C 16.667969 9.472656 15.472656 10.667969 14 10.667969 C 12.527344 10.667969 11.332031 9.472656 11.332031 8 C 11.332031 6.527344 12.527344 5.332031 14 5.332031 C 15.472656 5.332031 16.667969 6.527344 16.667969 8 Z M 16.667969 8 "/>
</g>
</svg>
