<?xml version="1.0" encoding="UTF-8"?>
<svg xmlns="http://www.w3.org/2000/svg" xmlns:xlink="http://www.w3.org/1999/xlink" width="24px" height="24px" viewBox="0 0 24 16" version="1.1">
<g id="surface1">
<rect x="0" y="0" width="24" height="16" style="fill:rgb(0%,0%,0%);fill-opacity:1;stroke:none;"/>
<path style=" stroke:none;fill-rule:nonzero;fill:rgb(80.784314%,6.666667%,14.901961%);fill-opacity:1;" d="M 15.441406 6.078125 C 15.441406 7.980469 13.898438 9.519531 12 9.519531 C 10.101562 9.519531 8.558594 7.980469 8.558594 6.078125 C 8.558594 4.179688 10.101562 2.640625 12 2.640625 C 13.898438 2.640625 15.441406 4.179688 15.441406 6.078125 Z M 15.441406 6.078125 "/>
<path style=" stroke:none;fill-rule:nonzero;fill:rgb(80.784314%,6.666667%,14.901961%);fill-opacity:1;" d="M 0 5.332031 L 24 5.332031 L 24 10.667969 L 0 10.667969 Z M 0 5.332031 "/>
<path style=" stroke:none;fill-rule:nonzero;fill:rgb(80.784314%,6.666667%,14.901961%);fill-opacity:1;" d="M 12 0.640625 C 11.882812 0.640625 11.839844 0.816406 11.839844 0.988281 C 11.839844 1.414062 11.894531 1.625 12 2.238281 C 12.109375 1.625 12.160156 1.40625 12.160156 0.988281 C 12.160156 0.8125 12.105469 0.640625 12 0.640625 "/>
<path style=" stroke:none;fill-rule:nonzero;fill:rgb(80.784314%,6.666667%,14.901961%);fill-opacity:1;" d="M 12.472656 0.660156 C 12.355469 0.652344 12.300781 0.820312 12.285156 0.992188 C 12.246094 1.417969 12.28125 1.632812 12.335938 2.253906 C 12.496094 1.652344 12.566406 1.441406 12.601562 1.019531 C 12.617188 0.84375 12.582031 0.671875 12.472656 0.660156 "/>
<path style=" stroke:none;fill-rule:nonzero;fill:rgb(80.784314%,6.666667%,14.901961%);fill-opacity:1;" d="M 12.945312 0.722656 C 12.828125 0.703125 12.757812 0.867188 12.726562 1.035156 C 12.652344 1.457031 12.667969 1.675781 12.667969 2.296875 C 12.878906 1.714844 12.96875 1.507812 13.042969 1.09375 C 13.074219 0.917969 13.050781 0.742188 12.945312 0.722656 "/>
<path style=" stroke:none;fill-rule:nonzero;fill:rgb(80.784314%,6.666667%,14.901961%);fill-opacity:1;" d="M 13.40625 0.824219 C 13.292969 0.796875 13.207031 0.953125 13.164062 1.117188 C 13.054688 1.53125 13.050781 1.75 12.992188 2.371094 C 13.257812 1.804688 13.363281 1.609375 13.472656 1.203125 C 13.519531 1.03125 13.511719 0.851562 13.40625 0.824219 "/>
<path style=" stroke:none;fill-rule:nonzero;fill:rgb(80.784314%,6.666667%,14.901961%);fill-opacity:1;" d="M 13.859375 0.96875 C 13.75 0.929688 13.648438 1.078125 13.589844 1.238281 C 13.445312 1.640625 13.421875 1.859375 13.3125 2.472656 C 13.625 1.933594 13.75 1.746094 13.890625 1.347656 C 13.953125 1.183594 13.960938 1.003906 13.859375 0.96875 "/>
<path style=" stroke:none;fill-rule:nonzero;fill:rgb(80.784314%,6.666667%,14.901961%);fill-opacity:1;" d="M 14.300781 1.148438 C 14.191406 1.101562 14.078125 1.242188 14.007812 1.394531 C 13.828125 1.78125 13.785156 2 13.621094 2.601562 C 13.980469 2.089844 14.121094 1.914062 14.296875 1.53125 C 14.371094 1.371094 14.394531 1.195312 14.300781 1.148438 "/>
<path style=" stroke:none;fill-rule:nonzero;fill:rgb(80.784314%,6.666667%,14.901961%);fill-opacity:1;" d="M 14.71875 1.367188 C 14.617188 1.308594 14.492188 1.441406 14.40625 1.589844 C 14.195312 1.957031 14.132812 2.171875 13.921875 2.753906 C 14.320312 2.277344 14.472656 2.113281 14.683594 1.75 C 14.773438 1.597656 14.8125 1.421875 14.71875 1.367188 "/>
<path style=" stroke:none;fill-rule:nonzero;fill:rgb(80.784314%,6.666667%,14.901961%);fill-opacity:1;" d="M 15.121094 1.625 C 15.023438 1.554688 14.886719 1.675781 14.789062 1.816406 C 14.546875 2.164062 14.46875 2.371094 14.203125 2.933594 C 14.644531 2.496094 14.8125 2.34375 15.050781 2 C 15.152344 1.855469 15.207031 1.683594 15.121094 1.625 "/>
<path style=" stroke:none;fill-rule:nonzero;fill:rgb(80.784314%,6.666667%,14.901961%);fill-opacity:1;" d="M 15.496094 1.914062 C 15.40625 1.835938 15.261719 1.945312 15.152344 2.074219 C 14.878906 2.402344 14.78125 2.601562 14.46875 3.136719 C 14.945312 2.738281 15.125 2.605469 15.398438 2.28125 C 15.507812 2.144531 15.578125 1.980469 15.496094 1.914062 "/>
<path style=" stroke:none;fill-rule:nonzero;fill:rgb(80.784314%,6.666667%,14.901961%);fill-opacity:1;" d="M 15.847656 2.234375 C 15.765625 2.148438 15.609375 2.246094 15.488281 2.367188 C 15.1875 2.667969 15.074219 2.855469 14.714844 3.363281 C 15.226562 3.007812 15.417969 2.890625 15.714844 2.589844 C 15.839844 2.46875 15.921875 2.308594 15.847656 2.234375 "/>
<path style=" stroke:none;fill-rule:nonzero;fill:rgb(80.784314%,6.666667%,14.901961%);fill-opacity:1;" d="M 16.167969 2.582031 C 16.09375 2.492188 15.929688 2.574219 15.800781 2.683594 C 15.472656 2.957031 15.34375 3.136719 14.941406 3.613281 C 15.480469 3.300781 15.683594 3.199219 16.003906 2.929688 C 16.140625 2.816406 16.234375 2.664062 16.167969 2.582031 "/>
<path style=" stroke:none;fill-rule:nonzero;fill:rgb(80.784314%,6.666667%,14.901961%);fill-opacity:1;" d="M 16.457031 2.960938 C 16.390625 2.863281 16.21875 2.929688 16.082031 3.027344 C 15.730469 3.273438 15.585938 3.4375 15.144531 3.878906 C 15.710938 3.613281 15.917969 3.53125 16.265625 3.289062 C 16.40625 3.1875 16.515625 3.046875 16.457031 2.960938 "/>
<path style=" stroke:none;fill-rule:nonzero;fill:rgb(80.784314%,6.666667%,14.901961%);fill-opacity:1;" d="M 16.710938 3.359375 C 16.652344 3.257812 16.480469 3.308594 16.332031 3.394531 C 15.960938 3.609375 15.804688 3.761719 15.324219 4.160156 C 15.910156 3.949219 16.125 3.882812 16.492188 3.671875 C 16.644531 3.582031 16.765625 3.453125 16.710938 3.359375 "/>
<path style=" stroke:none;fill-rule:nonzero;fill:rgb(80.784314%,6.666667%,14.901961%);fill-opacity:1;" d="M 16.929688 3.78125 C 16.878906 3.675781 16.703125 3.710938 16.546875 3.78125 C 16.160156 3.960938 15.992188 4.101562 15.480469 4.457031 C 16.082031 4.296875 16.300781 4.25 16.683594 4.074219 C 16.84375 4 16.976562 3.878906 16.929688 3.78125 "/>
<path style=" stroke:none;fill-rule:nonzero;fill:rgb(80.784314%,6.666667%,14.901961%);fill-opacity:1;" d="M 17.113281 4.21875 C 17.070312 4.109375 16.890625 4.128906 16.730469 4.1875 C 16.332031 4.332031 16.148438 4.457031 15.609375 4.765625 C 16.222656 4.660156 16.445312 4.632812 16.839844 4.488281 C 17.007812 4.429688 17.148438 4.320312 17.113281 4.21875 "/>
<path style=" stroke:none;fill-rule:nonzero;fill:rgb(80.784314%,6.666667%,14.901961%);fill-opacity:1;" d="M 17.253906 4.671875 C 17.222656 4.558594 17.042969 4.5625 16.878906 4.605469 C 16.464844 4.71875 16.273438 4.824219 15.710938 5.085938 C 16.328125 5.03125 16.554688 5.023438 16.960938 4.917969 C 17.132812 4.871094 17.28125 4.773438 17.253906 4.671875 "/>
<path style=" stroke:none;fill-rule:nonzero;fill:rgb(80.784314%,6.666667%,14.901961%);fill-opacity:1;" d="M 6.644531 5.136719 C 6.621094 5.25 6.789062 5.324219 6.957031 5.351562 C 7.375 5.425781 7.597656 5.410156 8.21875 5.414062 C 7.632812 5.199219 7.425781 5.109375 7.011719 5.039062 C 6.839844 5.007812 6.660156 5.03125 6.644531 5.136719 "/>
<path style=" stroke:none;fill-rule:nonzero;fill:rgb(80.784314%,6.666667%,14.901961%);fill-opacity:1;" d="M 6.746094 4.671875 C 6.714844 4.785156 6.875 4.871094 7.039062 4.917969 C 7.449219 5.027344 7.671875 5.03125 8.289062 5.085938 C 7.726562 4.824219 7.527344 4.714844 7.121094 4.605469 C 6.953125 4.5625 6.773438 4.570312 6.746094 4.671875 "/>
<path style=" stroke:none;fill-rule:nonzero;fill:rgb(80.784314%,6.666667%,14.901961%);fill-opacity:1;" d="M 6.886719 4.21875 C 6.847656 4.328125 7 4.429688 7.160156 4.488281 C 7.558594 4.632812 7.777344 4.65625 8.390625 4.765625 C 7.851562 4.453125 7.664062 4.332031 7.269531 4.1875 C 7.101562 4.128906 6.925781 4.121094 6.886719 4.21875 "/>
<path style=" stroke:none;fill-rule:nonzero;fill:rgb(80.784314%,6.666667%,14.901961%);fill-opacity:1;" d="M 7.070312 3.78125 C 7.019531 3.886719 7.160156 4 7.316406 4.074219 C 7.703125 4.253906 7.917969 4.292969 8.519531 4.457031 C 8.011719 4.097656 7.832031 3.960938 7.453125 3.78125 C 7.292969 3.707031 7.113281 3.683594 7.070312 3.78125 "/>
<path style=" stroke:none;fill-rule:nonzero;fill:rgb(80.784314%,6.666667%,14.901961%);fill-opacity:1;" d="M 7.289062 3.359375 C 7.230469 3.460938 7.359375 3.585938 7.507812 3.671875 C 7.878906 3.886719 8.089844 3.945312 8.675781 4.160156 C 8.199219 3.757812 8.035156 3.605469 7.667969 3.394531 C 7.515625 3.308594 7.34375 3.269531 7.289062 3.359375 "/>
<path style=" stroke:none;fill-rule:nonzero;fill:rgb(80.784314%,6.666667%,14.901961%);fill-opacity:1;" d="M 7.542969 2.960938 C 7.476562 3.054688 7.597656 3.191406 7.734375 3.289062 C 8.085938 3.535156 8.289062 3.613281 8.855469 3.878906 C 8.414062 3.4375 8.265625 3.269531 7.917969 3.027344 C 7.773438 2.925781 7.605469 2.871094 7.542969 2.960938 "/>
<path style=" stroke:none;fill-rule:nonzero;fill:rgb(80.784314%,6.666667%,14.901961%);fill-opacity:1;" d="M 7.832031 2.582031 C 7.757812 2.671875 7.863281 2.820312 7.996094 2.929688 C 8.324219 3.203125 8.519531 3.300781 9.058594 3.613281 C 8.660156 3.132812 8.523438 2.953125 8.199219 2.683594 C 8.066406 2.570312 7.902344 2.5 7.832031 2.582031 "/>
<path style=" stroke:none;fill-rule:nonzero;fill:rgb(80.784314%,6.666667%,14.901961%);fill-opacity:1;" d="M 8.152344 2.234375 C 8.070312 2.316406 8.164062 2.472656 8.285156 2.589844 C 8.585938 2.894531 8.777344 3.007812 9.285156 3.363281 C 8.929688 2.855469 8.808594 2.664062 8.511719 2.367188 C 8.386719 2.242188 8.230469 2.15625 8.152344 2.234375 "/>
<path style=" stroke:none;fill-rule:nonzero;fill:rgb(80.784314%,6.666667%,14.901961%);fill-opacity:1;" d="M 8.503906 1.914062 C 8.414062 1.988281 8.492188 2.148438 8.601562 2.28125 C 8.878906 2.609375 9.054688 2.738281 9.53125 3.136719 C 9.222656 2.597656 9.121094 2.398438 8.847656 2.074219 C 8.734375 1.941406 8.585938 1.84375 8.503906 1.914062 "/>
<path style=" stroke:none;fill-rule:nonzero;fill:rgb(80.784314%,6.666667%,14.901961%);fill-opacity:1;" d="M 8.878906 1.625 C 8.785156 1.691406 8.851562 1.859375 8.949219 2 C 9.191406 2.347656 9.359375 2.492188 9.796875 2.933594 C 9.535156 2.371094 9.453125 2.160156 9.210938 1.816406 C 9.109375 1.671875 8.96875 1.5625 8.878906 1.625 "/>
<path style=" stroke:none;fill-rule:nonzero;fill:rgb(80.784314%,6.666667%,14.901961%);fill-opacity:1;" d="M 9.28125 1.367188 C 9.179688 1.425781 9.230469 1.601562 9.316406 1.75 C 9.527344 2.117188 9.679688 2.277344 10.078125 2.753906 C 9.867188 2.167969 9.800781 1.953125 9.59375 1.589844 C 9.503906 1.4375 9.371094 1.316406 9.28125 1.367188 "/>
<path style=" stroke:none;fill-rule:nonzero;fill:rgb(80.784314%,6.666667%,14.901961%);fill-opacity:1;" d="M 9.699219 1.148438 C 9.59375 1.199219 9.628906 1.375 9.703125 1.53125 C 9.882812 1.917969 10.019531 2.089844 10.378906 2.601562 C 10.214844 1.996094 10.171875 1.777344 9.992188 1.394531 C 9.917969 1.238281 9.796875 1.105469 9.699219 1.148438 "/>
<path style=" stroke:none;fill-rule:nonzero;fill:rgb(80.784314%,6.666667%,14.901961%);fill-opacity:1;" d="M 10.140625 0.96875 C 10.027344 1.007812 10.050781 1.1875 10.109375 1.347656 C 10.253906 1.75 10.375 1.933594 10.6875 2.472656 C 10.578125 1.859375 10.550781 1.636719 10.410156 1.238281 C 10.347656 1.074219 10.238281 0.929688 10.140625 0.96875 "/>
<path style=" stroke:none;fill-rule:nonzero;fill:rgb(80.784314%,6.666667%,14.901961%);fill-opacity:1;" d="M 10.59375 0.824219 C 10.480469 0.855469 10.484375 1.035156 10.527344 1.203125 C 10.636719 1.613281 10.746094 1.804688 11.007812 2.371094 C 10.953125 1.75 10.945312 1.527344 10.835938 1.117188 C 10.789062 0.949219 10.695312 0.796875 10.59375 0.824219 "/>
<path style=" stroke:none;fill-rule:nonzero;fill:rgb(80.784314%,6.666667%,14.901961%);fill-opacity:1;" d="M 11.054688 0.722656 C 10.941406 0.742188 10.929688 0.921875 10.957031 1.09375 C 11.03125 1.511719 11.121094 1.710938 11.332031 2.296875 C 11.332031 1.675781 11.347656 1.453125 11.273438 1.035156 C 11.242188 0.863281 11.160156 0.703125 11.054688 0.722656 "/>
<path style=" stroke:none;fill-rule:nonzero;fill:rgb(80.784314%,6.666667%,14.901961%);fill-opacity:1;" d="M 11.527344 0.660156 C 11.410156 0.671875 11.382812 0.851562 11.398438 1.019531 C 11.433594 1.445312 11.503906 1.652344 11.664062 2.253906 C 11.71875 1.632812 11.753906 1.410156 11.714844 0.992188 C 11.699219 0.816406 11.632812 0.652344 11.527344 0.660156 "/>
<path style=" stroke:none;fill-rule:nonzero;fill:rgb(0%,0%,0%);fill-opacity:1;" d="M 0 4.933594 L 24 4.933594 L 24 5.332031 L 0 5.332031 Z M 0 4.933594 "/>
<path style=" stroke:none;fill-rule:nonzero;fill:rgb(20%,61.960784%,20.784314%);fill-opacity:1;" d="M 0 10.667969 L 24 10.667969 L 24 16 L 0 16 Z M 0 10.667969 "/>
</g>
</svg>
