<?xml version="1.0" encoding="UTF-8"?>
<svg xmlns="http://www.w3.org/2000/svg" xmlns:xlink="http://www.w3.org/1999/xlink" width="24px" height="24px" viewBox="0 0 24 16" version="1.1">
<g id="surface1">
<rect x="0" y="0" width="24" height="16" style="fill:rgb(0%,0%,0%);fill-opacity:1;stroke:none;"/>
<path style=" stroke:none;fill-rule:nonzero;fill:rgb(100%,100%,100%);fill-opacity:1;" d="M 0 0 L 24 0 L 24 5.5 L 0 5.5 Z M 0 0 "/>
<path style=" stroke:none;fill-rule:nonzero;fill:rgb(0%,44.313725%,40.784314%);fill-opacity:1;" d="M 0 0 L 24 0 L 24 5 L 0 5 Z M 0 0 "/>
<path style=" stroke:none;fill-rule:nonzero;fill:rgb(100%,100%,100%);fill-opacity:1;" d="M 0 10.492188 L 24 10.492188 L 24 16 L 0 16 Z M 0 10.492188 "/>
<path style=" stroke:none;fill-rule:nonzero;fill:rgb(98.823529%,88.235294%,0%);fill-opacity:1;" d="M 0 11 L 24 11 L 24 16 L 0 16 Z M 0 11 "/>
<path style=" stroke:none;fill-rule:nonzero;fill:rgb(82.352941%,6.27451%,20.392157%);fill-opacity:1;" d="M 0 0 L 0 16 L 10.5 8 Z M 0 0 "/>
<path style=" stroke:none;fill-rule:nonzero;fill:rgb(98.823529%,88.235294%,0%);fill-opacity:1;" d="M 5.449219 11 L 3.5 9.570312 L 1.550781 11 L 2.304688 8.703125 L 0.347656 7.292969 L 2.761719 7.300781 L 3.5 5 L 4.238281 7.300781 L 6.65625 7.292969 L 4.691406 8.707031 Z M 5.449219 11 "/>
<path style="fill-rule:evenodd;fill:rgb(100%,100%,100%);fill-opacity:1;stroke-width:1.25;stroke-linecap:round;stroke-linejoin:round;stroke:rgb(0%,0%,0%);stroke-opacity:1;stroke-miterlimit:4;" d="M 77.073912 167.924121 L 118.935926 167.924121 C 122.308144 171.645189 129.866563 173.273157 136.959849 167.924121 C 150.09987 160.714552 175.449646 167.924121 175.449646 167.924121 L 180.449831 162.575086 L 168.240077 122.689889 L 163.937592 117.922271 C 163.937592 117.922271 154.518639 112.340669 136.727283 114.201203 C 118.935926 116.061737 112.656624 113.619786 112.656624 113.619786 C 112.656624 113.619786 97.074652 115.48032 92.772167 117.689704 C 92.19075 118.038554 87.771982 122.689889 87.771982 122.689889 Z M 77.073912 167.924121 " transform="matrix(0.0335925,0,0,0.0335925,-0.784418,3.757445)"/>
<path style="fill:none;stroke-width:1.25;stroke-linecap:round;stroke-linejoin:round;stroke:rgb(0%,0%,0%);stroke-opacity:1;stroke-miterlimit:4;" d="M 85.562598 157.574901 C 85.562598 157.574901 125.447795 152.574716 137.076133 167.924121 C 130.564264 172.34289 124.750095 172.69174 118.587076 168.272971 C 119.633627 166.645004 133.006215 152.574716 167.077243 157.342334 " transform="matrix(0.0335925,0,0,0.0335925,-0.784418,3.757445)"/>
<path style="fill-rule:nonzero;fill:rgb(0%,0%,0%);fill-opacity:1;stroke-width:1.25;stroke-linecap:round;stroke-linejoin:round;stroke:rgb(0%,0%,0%);stroke-opacity:1;stroke-miterlimit:4;" d="M 128.35488 117.689704 L 128.00603 161.644819 M 163.937592 118.271121 L 171.379728 153.272416 M 93.121017 117.689704 L 88.934816 135.713627 " transform="matrix(0.0335925,0,0,0.0335925,-0.784418,3.757445)"/>
<path style="fill-rule:evenodd;fill:rgb(0%,0%,0%);fill-opacity:1;stroke-width:1.25;stroke-linecap:round;stroke-linejoin:round;stroke:rgb(0%,0%,0%);stroke-opacity:1;stroke-miterlimit:4;" d="M 49.979886 172.69174 L 59.747689 184.203794 C 60.910523 184.901494 61.957073 184.901494 63.003624 184.203794 L 77.539045 166.761288 L 83.702064 159.202868 C 84.632331 158.040035 84.981181 156.760918 84.864898 155.714367 L 96.609519 145.248864 C 97.539786 145.365147 98.121203 145.48143 99.05147 145.48143 C 97.888636 145.248864 97.074652 144.667447 98.004919 143.38833 L 100.563153 141.411512 L 102.656254 143.969746 C 102.656254 143.969746 99.74917 147.807098 99.40032 147.807098 C 99.167753 147.807098 96.260669 147.807098 96.260669 147.807098 L 90.09765 153.3887 L 92.772167 155.714367 L 96.842085 166.761288 L 101.725987 163.272786 L 98.586336 151.877016 L 105.563338 144.318597 L 102.888821 140.248678 L 104.633071 137.923011 C 104.633071 137.923011 128.936297 153.156133 138.238966 149.086215 C 138.471533 149.086215 138.820383 138.155578 138.820383 138.155578 C 138.820383 138.155578 113.703175 135.597344 113.121758 130.597158 C 112.540341 125.596973 118.70336 125.015557 118.70336 125.015557 L 116.028842 121.294489 L 116.610259 119.201388 L 121.029027 124.78299 L 130.913114 116.294304 L 189.287367 182.808393 C 192.427018 181.529276 193.124719 180.715292 193.357285 177.575641 C 193.241002 177.459358 136.145866 111.875535 136.145866 111.875535 L 140.564634 107.2242 C 141.378617 106.293933 141.727468 105.8288 141.727468 104.317116 L 148.471903 98.502947 C 150.448721 99.200648 151.727838 100.363481 152.774388 101.991449 L 171.263444 86.409477 C 171.728578 86.87461 173.240262 87.339744 174.170529 86.758327 L 204.636773 57.5712 L 171.496011 81.060441 L 170.333177 80.130174 C 170.333177 79.199907 171.496011 78.967341 170.333177 77.22309 C 169.05406 75.711406 167.077243 78.734774 166.844676 78.734774 C 166.495826 78.734774 161.960775 77.106807 161.030508 75.013706 L 160.681657 80.479024 L 152.192971 88.270011 L 145.797386 88.037444 L 136.494716 97.107547 L 135.331882 100.596048 L 136.727283 103.503132 C 136.727283 103.503132 131.843381 107.805617 131.843381 107.573051 C 131.843381 107.2242 130.79683 106.293933 130.79683 106.17765 L 134.983032 102.340299 L 135.564449 99.665781 L 134.169048 97.456397 C 133.703915 97.805247 128.35488 103.503132 128.00603 102.921716 C 127.540896 102.340299 112.307774 85.130359 112.307774 85.130359 L 113.121758 81.874425 L 103.237671 71.060071 C 99.632886 69.897237 93.935001 69.664671 92.772167 77.455657 C 91.8419 79.316191 84.283481 77.804507 84.283481 77.804507 L 80.213563 78.734774 L 57.189455 111.294118 L 69.980626 126.759807 L 96.260669 93.502762 L 96.958369 84.083809 L 102.539971 90.246828 C 104.400505 90.479395 106.144755 90.595678 107.772723 89.665411 L 123.354695 107.107917 L 120.680177 109.549868 C 121.610444 110.596418 122.191861 111.177835 123.122128 112.108102 C 123.936111 111.526685 124.750095 110.828985 125.680362 110.247568 C 125.912929 110.712702 126.494346 111.410402 126.726912 111.759252 C 125.447795 112.456952 124.517528 113.503503 123.238411 114.201203 C 121.14531 112.805802 119.168493 111.061552 119.284777 108.387034 L 110.563523 115.712887 L 110.214673 117.224571 L 84.283481 138.736995 L 81.957814 139.085845 L 81.376397 145.713997 L 98.237486 131.759992 L 98.237486 129.666891 L 99.981737 131.178575 L 113.121758 120.713072 C 113.121758 120.713072 114.052025 121.875905 113.703175 121.875905 C 113.470608 121.875905 102.074837 132.341409 102.074837 132.341409 L 101.725987 133.504243 L 99.74917 135.248493 L 98.586336 134.318226 L 82.771797 148.388515 L 80.44613 148.388515 L 71.724877 157.109768 C 69.515493 157.342334 67.538675 157.574901 65.561858 158.854018 Z M 49.979886 172.69174 " transform="matrix(0.0335925,0,0,0.0335925,-0.784418,3.757445)"/>
</g>
</svg>
