<?xml version="1.0" encoding="utf-8"?>
<svg viewBox="0 0 24 16" xmlns="http://www.w3.org/2000/svg">
  <defs/>
  <path fill="#003580" d="M 0 16 L 0 0 L 24 0 L 0 16 Z" style=""/>
  <path fill="#009543" d="M 24 0 L 24 16 L 0 16 L 24 0 Z" style=""/>
  <g fill="#ffce00" transform="matrix(0.266667, 0, 0, 0.266667, 4.8, 4.3576)">
    <path d="M0-10l1.55 4.2L5-8.66l-.76 4.42L8.66-5 5.8-1.55 10 0 5.8 1.55 8.66 5l-4.42-.76L5 8.66 1.55 5.8 0 10l-1.55-4.2L-5 8.66l.76-4.42-4.42.76 2.86-3.45L-10 0l4.2-1.55L-8.66-5l4.42.76L-5-8.66l3.45 2.86z"/>
    <circle r="5.5" stroke="#003580"/>
  </g>
  <path style="stroke: none; fill-rule: nonzero; fill-opacity: 1; fill: rgb(255, 255, 255);" d="M 0 16 L 0 12.784 L 19.189 0 L 24 0 L 24 3.203 L 4.817 16 L 0 16 Z M 0 16"/>
  <path style="stroke: none; fill-rule: nonzero; fill-opacity: 1; fill: rgb(210, 16, 52);" d="M 0 16 L 0 13.595 L 20.391 0 L 24 0 L 24 2.401 L 3.601 16 L 0 16 Z M 0 16"/>
</svg>