<?xml version="1.0" encoding="UTF-8"?>
<svg xmlns="http://www.w3.org/2000/svg" xmlns:xlink="http://www.w3.org/1999/xlink" width="24px" height="24px" viewBox="0 0 24 12" version="1.1">
<g id="surface1">
<rect x="0" y="0" width="24" height="12" style="fill:rgb(0%,47.45098%,20.392157%);fill-opacity:1;stroke:none;"/>
<path style=" stroke:none;fill-rule:nonzero;fill:rgb(100%,100%,100%);fill-opacity:1;" d="M 7.304688 0 L 16.695312 0 L 16.695312 12 L 7.304688 12 Z M 7.304688 0 "/>
<path style=" stroke:none;fill-rule:nonzero;fill:rgb(0%,47.45098%,20.392157%);fill-opacity:1;" d="M 12.085938 0.796875 C 12.066406 1.023438 12.042969 1.25 12.023438 1.480469 C 11.945312 1.492188 11.871094 1.503906 11.792969 1.511719 C 11.792969 1.511719 11.953125 1.605469 11.980469 1.695312 C 11.984375 1.707031 11.984375 1.71875 11.976562 1.730469 C 11.976562 1.730469 11.972656 1.734375 11.96875 1.738281 C 11.921875 1.773438 11.785156 1.757812 11.785156 1.757812 C 11.785156 1.757812 11.96875 1.910156 11.980469 1.964844 C 11.980469 1.96875 11.980469 1.96875 11.980469 1.96875 C 11.980469 1.96875 11.980469 1.972656 11.980469 1.972656 C 11.980469 1.972656 11.980469 1.976562 11.980469 1.976562 C 11.980469 1.980469 11.976562 1.980469 11.972656 1.984375 C 11.929688 2.023438 11.730469 2.035156 11.730469 2.035156 C 11.730469 2.035156 11.953125 2.195312 11.96875 2.285156 C 11.980469 2.367188 11.96875 2.414062 11.96875 2.421875 C 11.953125 2.410156 11.589844 2.105469 11.359375 2.195312 C 11.347656 2.199219 11.339844 2.207031 11.335938 2.210938 C 11.335938 2.214844 11.335938 2.21875 11.335938 2.222656 C 11.351562 2.273438 11.683594 2.324219 11.910156 2.523438 C 11.90625 2.570312 11.257812 2.363281 11.234375 2.492188 C 11.253906 2.53125 11.929688 2.628906 11.980469 2.714844 C 11.730469 2.726562 11.214844 2.660156 11.234375 2.742188 C 11.183594 2.839844 11.71875 2.785156 11.945312 2.863281 C 12.011719 2.9375 12.007812 3 11.890625 3.007812 C 11.671875 2.902344 11.1875 2.828125 11.183594 2.960938 C 11.183594 2.960938 11.1875 2.960938 11.1875 2.960938 C 11.1875 2.964844 11.1875 2.964844 11.191406 2.964844 C 11.246094 2.992188 11.699219 2.976562 11.871094 3.089844 C 11.628906 3.144531 10.804688 2.980469 10.800781 3.0625 C 10.824219 3.097656 10.953125 3.265625 11.175781 3.257812 C 11.402344 3.25 11.917969 3.347656 11.953125 3.417969 C 11.953125 3.421875 11.953125 3.421875 11.953125 3.425781 C 11.9375 3.472656 11.273438 3.277344 11.015625 3.398438 C 10.75 3.523438 11.777344 3.445312 11.945312 3.597656 C 12.113281 3.75 11.609375 3.585938 11.609375 3.585938 C 11.609375 3.585938 10.914062 3.488281 10.808594 3.535156 C 10.703125 3.585938 10.582031 3.695312 10.582031 3.695312 C 10.582031 3.695312 10.652344 3.835938 10.722656 3.808594 C 10.734375 3.804688 10.742188 3.800781 10.746094 3.804688 C 10.746094 3.804688 10.746094 3.804688 10.75 3.804688 C 10.75 3.808594 10.75 3.808594 10.75 3.808594 C 10.75 3.832031 10.703125 3.890625 10.703125 3.890625 C 10.703125 3.890625 11.679688 4.125 11.898438 4.335938 C 12.113281 4.542969 10.652344 4.007812 10.652344 4.007812 C 10.652344 4.007812 10.066406 4.222656 10.6875 4.238281 C 10.617188 4.339844 10.71875 4.402344 10.722656 4.40625 C 10.722656 4.40625 11.757812 4.621094 11.863281 4.789062 C 11.96875 4.953125 11.15625 4.628906 10.976562 4.535156 C 10.800781 4.449219 10.3125 4.582031 10.285156 4.625 C 10.285156 4.625 10.285156 4.625 10.28125 4.625 C 10.28125 4.625 10.28125 4.628906 10.28125 4.628906 C 10.28125 4.628906 10.285156 4.628906 10.285156 4.628906 C 10.285156 4.628906 10.285156 4.632812 10.285156 4.632812 C 10.316406 4.667969 10.535156 4.714844 10.542969 4.773438 C 10.542969 4.777344 10.539062 4.78125 10.539062 4.785156 C 10.511719 4.835938 10.253906 4.859375 10.242188 4.910156 C 10.242188 4.910156 10.242188 4.910156 10.242188 4.914062 C 10.242188 4.96875 11.546875 5.238281 11.898438 5.53125 C 12.246094 5.824219 10.871094 5.183594 10.871094 5.183594 C 10.871094 5.183594 10.945312 5.289062 10.871094 5.316406 C 10.792969 5.34375 10.519531 4.925781 10.074219 5.183594 C 9.992188 5.289062 10.464844 5.375 10.582031 5.382812 C 10.542969 5.488281 10.507812 5.523438 10.675781 5.628906 C 10.691406 5.640625 10.703125 5.648438 10.707031 5.648438 C 10.707031 5.652344 10.707031 5.652344 10.707031 5.652344 C 10.679688 5.648438 10.378906 5.496094 10.347656 5.488281 C 10.347656 5.503906 10.382812 5.667969 10.382812 5.667969 C 10.226562 5.542969 10.039062 5.507812 9.863281 5.636719 C 9.863281 5.644531 9.863281 5.761719 10.039062 5.835938 C 9.9375 6.039062 10.148438 5.976562 10.484375 6.164062 C 9.988281 6.035156 9.945312 6.273438 10.304688 6.328125 C 10.660156 6.386719 11.640625 6.421875 11.871094 6.71875 C 11.917969 6.78125 11.929688 6.8125 11.921875 6.824219 C 11.882812 6.859375 11.53125 6.605469 11.476562 6.59375 C 11.476562 6.597656 11.476562 6.597656 11.472656 6.597656 C 11.460938 6.628906 11.449219 6.746094 11.449219 6.746094 C 11.300781 6.660156 11.164062 6.585938 10.984375 6.546875 C 10.972656 6.574219 10.976562 6.617188 10.960938 6.644531 C 10.796875 6.527344 10.65625 6.445312 10.421875 6.433594 C 10.414062 6.472656 10.402344 6.507812 10.394531 6.546875 C 10.394531 6.546875 10.199219 6.300781 9.8125 6.546875 C 9.597656 6.699219 10.625 6.601562 10.792969 6.78125 C 10.960938 6.960938 10.828125 6.988281 10.828125 6.988281 C 10.6875 6.9375 10.546875 6.890625 10.410156 6.835938 C 10.410156 6.835938 9.914062 6.746094 9.773438 6.859375 C 9.632812 6.96875 11.8125 7.242188 11.875 7.539062 C 11.917969 7.703125 11.363281 7.371094 10.882812 7.226562 C 10.867188 7.28125 10.847656 7.332031 10.828125 7.386719 C 10.816406 7.375 10.628906 7.195312 10.421875 7.164062 C 10.421875 7.164062 10.421875 7.167969 10.421875 7.167969 C 10.421875 7.191406 10.464844 7.351562 10.464844 7.351562 C 10.464844 7.351562 9.925781 7.101562 9.652344 7.234375 C 9.382812 7.367188 10.605469 7.433594 10.714844 7.5625 C 10.730469 7.574219 10.734375 7.585938 10.734375 7.589844 C 10.734375 7.59375 10.730469 7.59375 10.730469 7.59375 C 10.703125 7.632812 10.339844 7.488281 10.304688 7.5625 C 10.261719 7.644531 9.667969 7.40625 9.675781 7.519531 C 9.679688 7.628906 9.757812 7.691406 9.757812 7.691406 C 9.757812 7.691406 10.996094 7.8125 11.039062 7.957031 C 11.078125 8.101562 10.351562 7.875 10.351562 7.875 C 10.351562 7.875 10.28125 7.976562 10.339844 8.027344 C 10.339844 8.027344 10.34375 8.03125 10.34375 8.03125 C 10.316406 8.023438 9.921875 7.765625 9.960938 7.964844 C 9.808594 7.902344 9.410156 7.714844 9.464844 7.859375 C 9.519531 8.003906 10.558594 8.207031 10.589844 8.214844 C 10.5625 8.214844 10.121094 8.253906 10.144531 8.367188 C 9.554688 8.011719 9.554688 8.222656 9.570312 8.242188 C 9.535156 8.238281 8.8125 8.058594 9.386719 8.367188 C 9.695312 8.535156 9.773438 8.597656 9.773438 8.621094 C 9.773438 8.625 9.773438 8.625 9.773438 8.625 C 9.773438 8.625 9.773438 8.625 9.773438 8.628906 C 9.769531 8.628906 9.769531 8.628906 9.769531 8.628906 C 9.769531 8.628906 9.769531 8.632812 9.769531 8.632812 C 9.757812 8.640625 9.726562 8.636719 9.71875 8.636719 C 9.71875 8.636719 9.714844 8.636719 9.714844 8.636719 L 9.71875 8.640625 C 9.726562 8.652344 9.769531 8.773438 9.769531 8.792969 C 9.769531 8.796875 9.765625 8.796875 9.765625 8.796875 C 9.738281 8.792969 9.359375 8.589844 9.226562 8.574219 C 9.09375 8.5625 8.464844 8.75 9.136719 9.039062 C 9.808594 9.332031 10.21875 8.972656 10.589844 9.011719 C 10.960938 9.054688 11.136719 9.117188 11.101562 9.234375 C 11.066406 9.355469 10.722656 8.847656 10.359375 9.285156 C 9.949219 9.203125 9.671875 9.15625 9.882812 9.457031 C 9.210938 9.207031 8.800781 9.535156 9.644531 9.667969 C 10.476562 9.691406 10.988281 9.464844 10.988281 9.464844 C 10.988281 9.464844 11.128906 9.722656 11.332031 9.542969 C 11.523438 9.371094 11.539062 9.589844 11.546875 9.609375 C 11.5625 9.609375 11.742188 9.527344 11.742188 9.527344 C 11.761719 9.527344 11.777344 9.527344 11.792969 9.527344 L 11.792969 11.195312 C 12.019531 11.199219 12.246094 11.199219 12.46875 11.203125 C 12.46875 11.203125 12.253906 9.75 12.371094 9.554688 C 12.488281 9.367188 12.597656 9.386719 12.601562 9.390625 C 12.601562 9.390625 13.042969 9.519531 13.09375 9.5 C 13.09375 9.5 13.097656 9.5 13.097656 9.5 C 13.097656 9.496094 13.097656 9.496094 13.097656 9.496094 C 13.101562 9.496094 13.101562 9.496094 13.101562 9.496094 C 13.136719 9.460938 13.101562 9.335938 13.324219 9.355469 C 13.390625 9.328125 13.367188 9.21875 13.410156 9.191406 C 13.410156 9.191406 13.414062 9.191406 13.414062 9.191406 C 13.414062 9.191406 13.417969 9.1875 13.417969 9.1875 C 13.421875 9.1875 13.425781 9.1875 13.429688 9.1875 C 13.5 9.179688 14.847656 9.5625 15.140625 9.199219 C 15.0625 9 14.796875 9.1875 14.730469 9.195312 C 14.664062 9.195312 14.398438 9.070312 14.246094 9.195312 C 14.105469 9.089844 13.46875 9.019531 13.46875 9.019531 C 13.386719 8.9375 14.988281 9.0625 15.078125 9 C 15.265625 8.8125 14.730469 8.832031 14.644531 8.894531 C 14.496094 8.804688 14.308594 8.8125 14.195312 8.875 C 14.140625 8.742188 13.621094 8.800781 13.332031 8.761719 C 13.238281 8.710938 13.253906 8.679688 13.316406 8.644531 C 13.921875 8.671875 14.519531 8.75 15.125 8.722656 C 15.289062 8.507812 14.921875 8.429688 14.695312 8.609375 C 14.558594 8.390625 14.289062 8.601562 14.105469 8.582031 C 13.925781 8.5625 14.007812 8.339844 14.238281 8.375 C 14.46875 8.410156 14.882812 8.359375 14.960938 8.253906 C 15.035156 8.152344 14.914062 8.046875 14.53125 8.144531 C 14.402344 8.019531 14.121094 8.144531 13.988281 8.1875 C 13.8125 8.089844 13.398438 8.171875 13.261719 8.207031 C 13.125 8.121094 13.980469 7.984375 13.980469 7.984375 C 14.3125 7.980469 14.496094 7.921875 14.601562 7.894531 C 15.101562 7.628906 14.59375 7.597656 14.332031 7.792969 C 14.171875 7.667969 14.015625 7.804688 13.867188 7.851562 C 13.730469 7.898438 13.476562 7.929688 13.445312 7.917969 C 13.445312 7.917969 13.441406 7.917969 13.441406 7.917969 L 13.441406 7.914062 C 13.464844 7.882812 13.839844 7.652344 13.839844 7.652344 C 13.839844 7.652344 14.332031 7.617188 14.429688 7.601562 C 14.488281 7.59375 14.695312 7.496094 14.695312 7.457031 C 14.695312 7.4375 14.609375 7.4375 14.34375 7.503906 C 14.105469 7.527344 13.964844 7.511719 13.875 7.519531 C 13.730469 7.503906 13.667969 7.488281 13.65625 7.476562 C 13.65625 7.476562 13.65625 7.472656 13.652344 7.472656 C 13.652344 7.46875 13.652344 7.46875 13.65625 7.464844 C 13.695312 7.433594 13.925781 7.414062 13.925781 7.414062 C 13.925781 7.414062 14.632812 7.351562 14.675781 7.3125 C 14.679688 7.3125 14.679688 7.3125 14.679688 7.3125 C 14.679688 7.3125 14.679688 7.308594 14.679688 7.308594 C 14.695312 7.023438 14.082031 7.15625 14.066406 7.15625 C 14.066406 6.957031 13.511719 7.15625 13.484375 7.15625 C 13.460938 7.144531 13.449219 7.128906 13.449219 7.117188 C 13.445312 7.109375 13.449219 7.105469 13.449219 7.101562 C 13.464844 7.058594 13.546875 7.027344 13.546875 7.027344 C 13.699219 6.988281 13.929688 6.976562 13.992188 6.929688 C 13.992188 6.929688 14.425781 6.925781 14.476562 6.808594 C 14.371094 6.519531 13.558594 6.863281 13.449219 6.914062 C 13.425781 6.914062 13.414062 6.910156 13.40625 6.898438 C 13.371094 6.847656 13.546875 6.675781 13.554688 6.671875 C 13.582031 6.664062 14.230469 6.628906 14.539062 6.210938 C 14.5625 5.953125 14.167969 6.359375 14.167969 6.359375 C 14.140625 6.023438 13.742188 6.378906 13.511719 6.40625 C 13.28125 6.433594 13.273438 6.300781 13.4375 6.28125 C 13.597656 6.261719 13.777344 6.273438 13.867188 6.03125 C 13.960938 5.789062 14.234375 6.046875 14.28125 5.957031 C 14.328125 5.867188 14.191406 5.792969 14.183594 5.789062 C 14.183594 5.789062 14.386719 5.578125 14.058594 5.585938 C 13.734375 5.59375 13.3125 5.546875 13.304688 5.542969 C 13.324219 5.535156 13.65625 5.414062 13.964844 5.417969 C 14.289062 5.425781 14.113281 5.191406 13.804688 5.191406 C 13.5 5.191406 13.335938 5.085938 13.335938 5.085938 C 13.511719 5.019531 13.6875 4.957031 13.863281 4.890625 C 13.851562 4.84375 13.839844 4.792969 13.828125 4.746094 C 13.828125 4.746094 14.132812 4.503906 13.703125 4.558594 C 13.269531 4.613281 13.21875 4.621094 13.21875 4.621094 C 13.21875 4.621094 12.367188 4.75 12.34375 4.753906 C 12.335938 4.75 12.25 4.726562 12.234375 4.691406 C 12.234375 4.691406 12.234375 4.691406 12.234375 4.6875 C 12.234375 4.6875 12.234375 4.6875 12.234375 4.683594 C 12.234375 4.683594 12.234375 4.679688 12.234375 4.679688 C 12.238281 4.664062 12.261719 4.644531 12.332031 4.628906 C 12.554688 4.570312 13.34375 4.410156 13.464844 4.453125 C 13.480469 4.460938 13.488281 4.457031 13.496094 4.453125 C 13.542969 4.414062 13.394531 4.15625 13.03125 4.121094 C 12.609375 4.078125 12.351562 4.222656 12.351562 4.222656 C 12.351562 4.222656 12.078125 4.125 12.332031 4.042969 C 12.582031 3.960938 12.980469 4.070312 12.980469 4.070312 C 12.980469 4.070312 13.429688 3.9375 13.058594 3.882812 C 12.6875 3.828125 12.570312 3.933594 12.402344 3.9375 C 12.332031 3.855469 12.980469 3.835938 13.023438 3.765625 C 12.953125 3.640625 12.550781 3.765625 12.316406 3.765625 C 12.21875 3.722656 12.210938 3.65625 12.324219 3.613281 C 12.5625 3.601562 12.789062 3.617188 13.03125 3.609375 C 13.023438 3.480469 13.03125 3.328125 13.023438 3.203125 C 12.71875 3.148438 12.363281 3.242188 12.191406 3.234375 C 12.234375 3.09375 12.894531 3.058594 12.964844 3.023438 C 13.117188 2.835938 12.335938 3.019531 12.316406 3.023438 C 12.179688 3 12.1875 2.914062 12.273438 2.863281 C 12.476562 2.839844 12.933594 2.890625 12.898438 2.753906 C 12.871094 2.625 12.582031 2.695312 12.464844 2.722656 C 12.34375 2.75 12.171875 2.730469 12.171875 2.730469 C 12.09375 2.628906 12.855469 2.667969 12.847656 2.589844 C 12.839844 2.5 12.367188 2.5625 12.203125 2.570312 C 12.082031 2.484375 12.785156 2.429688 12.820312 2.417969 C 12.847656 2.1875 12.332031 2.417969 12.234375 2.417969 C 12.214844 2.417969 12.203125 2.414062 12.195312 2.40625 C 12.191406 2.402344 12.191406 2.402344 12.1875 2.398438 C 12.15625 2.359375 12.183594 2.269531 12.183594 2.269531 C 12.183594 2.269531 12.367188 2.1875 12.378906 2.167969 C 12.378906 2.164062 12.378906 2.164062 12.378906 2.164062 C 12.355469 2.148438 12.230469 2.105469 12.210938 2.105469 C 12.210938 2.101562 12.210938 2.101562 12.210938 2.101562 C 12.199219 2.082031 12.210938 1.945312 12.210938 1.945312 C 12.210938 1.945312 12.355469 1.835938 12.367188 1.792969 C 12.367188 1.789062 12.367188 1.789062 12.367188 1.789062 C 12.367188 1.789062 12.367188 1.785156 12.367188 1.785156 C 12.367188 1.785156 12.363281 1.78125 12.363281 1.78125 C 12.363281 1.78125 12.359375 1.777344 12.359375 1.777344 C 12.320312 1.761719 12.171875 1.8125 12.171875 1.8125 C 12.171875 1.765625 12.171875 1.71875 12.171875 1.671875 C 12.171875 1.671875 12.304688 1.660156 12.316406 1.597656 C 12.316406 1.59375 12.316406 1.589844 12.316406 1.585938 C 12.316406 1.585938 12.316406 1.582031 12.316406 1.582031 C 12.316406 1.578125 12.3125 1.574219 12.3125 1.574219 C 12.3125 1.574219 12.3125 1.570312 12.3125 1.570312 C 12.28125 1.53125 12.15625 1.527344 12.15625 1.527344 C 12.132812 1.285156 12.109375 1.039062 12.085938 0.796875 Z M 11.960938 3.179688 L 11.960938 3.277344 C 11.960938 3.277344 11.804688 3.269531 11.777344 3.242188 C 11.777344 3.242188 11.773438 3.242188 11.773438 3.242188 C 11.773438 3.238281 11.773438 3.238281 11.773438 3.238281 C 11.773438 3.238281 11.773438 3.234375 11.773438 3.234375 C 11.773438 3.234375 11.773438 3.230469 11.773438 3.230469 C 11.773438 3.230469 11.773438 3.230469 11.773438 3.226562 C 11.773438 3.226562 11.773438 3.226562 11.777344 3.226562 C 11.777344 3.226562 11.78125 3.222656 11.78125 3.222656 C 11.832031 3.1875 11.9375 3.1875 11.960938 3.183594 C 11.960938 3.179688 11.960938 3.183594 11.960938 3.183594 C 11.960938 3.179688 11.960938 3.179688 11.960938 3.179688 Z M 12.183594 3.308594 C 12.191406 3.308594 12.496094 3.308594 12.523438 3.351562 C 12.523438 3.351562 12.523438 3.351562 12.523438 3.355469 C 12.523438 3.355469 12.523438 3.355469 12.523438 3.359375 C 12.5 3.410156 12.191406 3.4375 12.191406 3.4375 Z M 12.167969 3.496094 C 12.1875 3.5 12.3125 3.507812 12.328125 3.527344 C 12.328125 3.527344 12.328125 3.527344 12.332031 3.527344 C 12.332031 3.527344 12.332031 3.527344 12.332031 3.53125 C 12.332031 3.53125 12.332031 3.53125 12.332031 3.535156 C 12.328125 3.535156 12.328125 3.535156 12.328125 3.535156 C 12.328125 3.539062 12.328125 3.539062 12.328125 3.539062 C 12.300781 3.570312 12.183594 3.578125 12.179688 3.578125 C 12.179688 3.578125 12.179688 3.578125 12.175781 3.578125 C 12.171875 3.566406 12.167969 3.496094 12.167969 3.496094 Z M 11.230469 3.75 C 11.332031 3.742188 11.53125 3.765625 11.902344 3.871094 C 11.902344 3.878906 11.910156 3.972656 11.910156 3.988281 C 11.910156 3.988281 11.90625 3.992188 11.90625 3.992188 C 11.902344 3.988281 11.226562 3.796875 11.167969 3.800781 C 11.164062 3.800781 11.164062 3.800781 11.160156 3.800781 C 11.160156 3.800781 11.15625 3.800781 11.15625 3.800781 C 11.15625 3.796875 11.152344 3.796875 11.152344 3.796875 C 11.152344 3.796875 11.148438 3.796875 11.148438 3.796875 C 11.144531 3.792969 11.144531 3.792969 11.144531 3.789062 C 11.144531 3.789062 11.140625 3.789062 11.140625 3.789062 C 11.140625 3.789062 11.140625 3.785156 11.140625 3.785156 C 11.140625 3.785156 11.140625 3.785156 11.140625 3.78125 C 11.140625 3.78125 11.140625 3.78125 11.140625 3.777344 C 11.140625 3.777344 11.144531 3.773438 11.144531 3.773438 C 11.15625 3.761719 11.183594 3.75 11.230469 3.75 Z M 11.582031 4.035156 C 11.6875 4.03125 11.945312 4.089844 11.960938 4.085938 C 11.960938 4.109375 11.96875 4.203125 11.957031 4.222656 C 11.957031 4.222656 11.957031 4.226562 11.957031 4.226562 C 11.953125 4.226562 11.953125 4.226562 11.953125 4.226562 C 11.953125 4.226562 11.949219 4.226562 11.949219 4.226562 C 11.929688 4.222656 11.550781 4.101562 11.535156 4.054688 C 11.535156 4.050781 11.535156 4.050781 11.535156 4.050781 C 11.535156 4.046875 11.535156 4.046875 11.539062 4.042969 C 11.546875 4.039062 11.5625 4.035156 11.582031 4.035156 Z M 12.636719 4.296875 C 12.738281 4.296875 12.8125 4.304688 12.785156 4.335938 C 12.710938 4.417969 12.207031 4.488281 12.207031 4.488281 L 12.195312 4.335938 C 12.207031 4.332031 12.464844 4.300781 12.636719 4.296875 Z M 11.1875 4.777344 C 11.273438 4.773438 11.476562 4.820312 11.921875 5.007812 L 11.925781 5.117188 C 11.925781 5.117188 11.167969 4.890625 11.144531 4.851562 C 11.128906 4.835938 11.105469 4.78125 11.1875 4.777344 Z M 12.667969 4.941406 C 12.691406 4.941406 12.707031 4.945312 12.714844 4.949219 C 12.714844 4.949219 12.714844 4.953125 12.714844 4.953125 C 12.714844 4.957031 12.714844 4.960938 12.707031 4.964844 C 12.636719 5.046875 12.261719 5.125 12.261719 5.125 C 12.261719 5.125 12.261719 5.023438 12.261719 5.023438 C 12.277344 5.019531 12.554688 4.949219 12.667969 4.941406 Z M 11.011719 4.957031 C 11.125 4.949219 11.378906 5.007812 11.949219 5.277344 C 11.949219 5.28125 11.957031 5.375 11.953125 5.382812 C 11.917969 5.371094 10.925781 5.023438 10.925781 5.023438 C 10.925781 5.019531 10.910156 4.960938 11.011719 4.957031 Z M 12.902344 5.390625 C 12.933594 5.390625 12.949219 5.390625 12.957031 5.398438 C 12.957031 5.398438 12.957031 5.398438 12.957031 5.402344 C 12.957031 5.402344 12.953125 5.40625 12.949219 5.410156 C 12.859375 5.492188 12.285156 5.589844 12.265625 5.59375 C 12.265625 5.59375 12.261719 5.59375 12.261719 5.59375 C 12.261719 5.59375 12.261719 5.589844 12.261719 5.589844 C 12.261719 5.589844 12.261719 5.589844 12.261719 5.585938 C 12.257812 5.570312 12.269531 5.503906 12.269531 5.492188 C 12.269531 5.492188 12.273438 5.492188 12.273438 5.492188 C 12.308594 5.492188 12.75 5.394531 12.902344 5.390625 Z M 11.214844 5.644531 C 11.386719 5.632812 11.902344 5.871094 11.929688 5.878906 C 11.925781 5.886719 11.925781 5.972656 11.925781 5.988281 C 11.910156 5.980469 11.199219 5.6875 11.167969 5.710938 C 11.148438 5.664062 11.171875 5.644531 11.214844 5.644531 Z M 12.742188 5.703125 C 12.777344 5.703125 12.804688 5.703125 12.8125 5.710938 C 12.8125 5.710938 12.8125 5.710938 12.8125 5.714844 C 12.8125 5.714844 12.8125 5.714844 12.8125 5.71875 C 12.757812 5.765625 12.269531 5.859375 12.269531 5.859375 C 12.269531 5.859375 12.265625 5.769531 12.265625 5.761719 C 12.28125 5.757812 12.597656 5.710938 12.742188 5.703125 Z M 12.703125 6.015625 C 12.738281 6.015625 12.761719 6.015625 12.765625 6.023438 L 12.769531 6.023438 C 12.769531 6.027344 12.769531 6.027344 12.769531 6.027344 C 12.769531 6.027344 12.765625 6.027344 12.765625 6.027344 C 12.765625 6.03125 12.765625 6.03125 12.765625 6.03125 C 12.765625 6.03125 12.765625 6.03125 12.761719 6.035156 C 12.710938 6.078125 12.296875 6.164062 12.296875 6.164062 C 12.296875 6.164062 12.285156 6.066406 12.285156 6.0625 C 12.296875 6.0625 12.574219 6.019531 12.703125 6.015625 Z M 10.953125 6.042969 C 11.054688 6.035156 11.300781 6.074219 11.914062 6.296875 L 11.933594 6.417969 C 11.933594 6.417969 10.914062 6.089844 10.886719 6.078125 C 10.886719 6.078125 10.886719 6.074219 10.886719 6.074219 C 10.886719 6.070312 10.886719 6.066406 10.890625 6.0625 C 10.898438 6.054688 10.914062 6.042969 10.953125 6.042969 Z M 12.296875 6.300781 C 12.308594 6.300781 12.476562 6.308594 12.511719 6.335938 C 12.511719 6.335938 12.511719 6.339844 12.511719 6.339844 C 12.511719 6.339844 12.515625 6.339844 12.515625 6.339844 C 12.515625 6.339844 12.515625 6.34375 12.515625 6.34375 C 12.515625 6.34375 12.515625 6.347656 12.515625 6.347656 C 12.511719 6.347656 12.511719 6.347656 12.511719 6.347656 C 12.488281 6.390625 12.308594 6.40625 12.308594 6.40625 C 12.308594 6.40625 12.300781 6.324219 12.296875 6.300781 Z M 12.707031 6.53125 C 12.75 6.53125 12.777344 6.535156 12.78125 6.546875 C 12.785156 6.554688 12.78125 6.566406 12.761719 6.582031 C 12.613281 6.703125 12.296875 6.726562 12.296875 6.726562 L 12.296875 6.59375 C 12.316406 6.589844 12.578125 6.535156 12.707031 6.53125 Z M 13.113281 6.65625 C 13.164062 6.652344 13.1875 6.660156 13.195312 6.671875 C 13.195312 6.671875 13.195312 6.675781 13.195312 6.675781 C 13.195312 6.679688 13.195312 6.679688 13.195312 6.683594 C 13.195312 6.699219 13.179688 6.714844 13.164062 6.726562 C 13.117188 6.773438 12.324219 7.023438 12.324219 7.023438 C 12.324219 7.023438 12.316406 6.859375 12.320312 6.84375 C 12.785156 6.703125 13.011719 6.660156 13.113281 6.65625 Z M 12.601562 7.125 C 12.652344 7.121094 12.691406 7.125 12.703125 7.136719 C 12.703125 7.136719 12.707031 7.140625 12.707031 7.140625 C 12.707031 7.140625 12.707031 7.144531 12.707031 7.144531 C 12.707031 7.144531 12.707031 7.148438 12.707031 7.148438 C 12.707031 7.148438 12.703125 7.152344 12.703125 7.15625 C 12.636719 7.222656 12.304688 7.230469 12.304688 7.230469 L 12.304688 7.148438 C 12.367188 7.148438 12.503906 7.128906 12.601562 7.125 Z M 12.933594 7.257812 C 12.949219 7.257812 12.957031 7.261719 12.957031 7.265625 C 12.957031 7.269531 12.953125 7.277344 12.941406 7.285156 C 12.8125 7.375 12.316406 7.472656 12.316406 7.472656 C 12.316406 7.472656 12.324219 7.40625 12.324219 7.390625 C 12.339844 7.390625 12.8125 7.261719 12.933594 7.257812 Z M 13.210938 7.363281 C 13.269531 7.363281 13.3125 7.371094 13.335938 7.386719 C 13.335938 7.386719 13.339844 7.386719 13.339844 7.386719 C 13.339844 7.386719 13.339844 7.390625 13.339844 7.390625 C 13.335938 7.410156 13.300781 7.496094 13.167969 7.53125 C 13.007812 7.515625 12.316406 7.71875 12.300781 7.722656 C 12.300781 7.707031 12.308594 7.636719 12.308594 7.636719 C 12.546875 7.496094 12.980469 7.363281 13.210938 7.363281 Z M 11.441406 7.761719 C 11.445312 7.761719 11.445312 7.761719 11.445312 7.761719 C 11.746094 7.792969 11.855469 7.902344 11.886719 7.949219 C 11.828125 8.050781 11.355469 7.820312 11.40625 7.769531 C 11.414062 7.765625 11.425781 7.761719 11.441406 7.761719 Z M 13.152344 7.78125 C 13.164062 7.78125 13.175781 7.78125 13.183594 7.785156 C 13.1875 7.789062 13.191406 7.792969 13.191406 7.796875 C 13.195312 7.800781 13.195312 7.804688 13.199219 7.8125 C 13.167969 7.859375 13.003906 7.839844 12.996094 7.839844 C 13.003906 7.835938 13.097656 7.78125 13.152344 7.78125 Z M 12.515625 8.101562 C 12.535156 8.101562 12.554688 8.105469 12.566406 8.109375 C 12.566406 8.113281 12.566406 8.113281 12.570312 8.113281 C 12.570312 8.117188 12.570312 8.117188 12.570312 8.117188 C 12.570312 8.117188 12.570312 8.117188 12.570312 8.121094 C 12.574219 8.125 12.574219 8.132812 12.570312 8.140625 C 12.523438 8.230469 12.316406 8.199219 12.316406 8.199219 L 12.316406 8.136719 C 12.328125 8.136719 12.441406 8.105469 12.515625 8.101562 Z M 11.304688 8.332031 C 11.367188 8.328125 11.425781 8.371094 11.480469 8.402344 C 11.609375 8.378906 11.875 8.425781 11.875 8.425781 L 11.875 8.539062 C 11.875 8.539062 11.875 8.542969 11.875 8.542969 C 11.847656 8.546875 11.539062 8.53125 11.46875 8.488281 C 11.414062 8.488281 11.253906 8.40625 11.242188 8.363281 C 11.242188 8.363281 11.242188 8.359375 11.242188 8.359375 C 11.242188 8.359375 11.242188 8.355469 11.242188 8.355469 C 11.242188 8.355469 11.242188 8.351562 11.242188 8.351562 C 11.265625 8.339844 11.285156 8.335938 11.304688 8.332031 Z M 12.660156 8.390625 C 12.707031 8.386719 12.730469 8.402344 12.691406 8.457031 C 12.585938 8.605469 12.3125 8.542969 12.3125 8.542969 L 12.300781 8.453125 C 12.398438 8.457031 12.574219 8.394531 12.660156 8.390625 Z M 11.640625 8.691406 C 11.753906 8.6875 11.871094 8.730469 11.871094 8.730469 C 11.875 8.734375 11.929688 8.847656 11.882812 8.882812 C 11.878906 8.882812 11.878906 8.886719 11.875 8.886719 C 11.8125 8.917969 11.519531 8.863281 11.503906 8.746094 C 11.535156 8.707031 11.589844 8.695312 11.640625 8.691406 Z M 10.507812 8.75 C 10.605469 8.742188 10.71875 8.804688 10.730469 8.8125 C 10.730469 8.8125 10.734375 8.8125 10.734375 8.8125 C 10.734375 8.8125 10.730469 8.921875 10.730469 8.921875 C 10.730469 8.921875 10.53125 8.867188 10.464844 8.753906 C 10.480469 8.753906 10.492188 8.75 10.507812 8.75 Z M 12.425781 8.765625 C 12.539062 8.761719 12.671875 8.789062 12.691406 8.828125 C 12.695312 8.835938 12.695312 8.84375 12.6875 8.851562 C 12.632812 8.917969 12.316406 8.859375 12.316406 8.859375 L 12.316406 8.777344 C 12.34375 8.769531 12.382812 8.765625 12.425781 8.765625 Z M 12.425781 8.765625 "/>
</g>
</svg>
