<?xml version="1.0" encoding="UTF-8"?>
<svg xmlns="http://www.w3.org/2000/svg" xmlns:xlink="http://www.w3.org/1999/xlink" width="24px" height="24px" viewBox="0 0 24 12" version="1.1">
<g id="surface1">
<rect x="0" y="0" width="24" height="12" style="fill:rgb(0%,16.862745%,49.803922%);fill-opacity:1;stroke:none;"/>
<path style=" stroke:none;fill-rule:nonzero;fill:rgb(100%,77.647059%,11.764706%);fill-opacity:1;" d="M 0 5.5 L 24 5.5 L 24 6.5 L 0 6.5 Z M 0 5.5 "/>
<path style=" stroke:none;fill-rule:nonzero;fill:rgb(100%,100%,100%);fill-opacity:1;" d="M 6 10.5 L 5.742188 9.464844 L 5 10.230469 L 5.292969 9.207031 L 4.269531 9.5 L 5.035156 8.757812 L 4 8.5 L 5.035156 8.242188 L 4.269531 7.5 L 5.292969 7.792969 L 5 6.769531 L 5.742188 7.535156 L 6 6.5 L 6.257812 7.535156 L 7 6.769531 L 6.707031 7.792969 L 7.730469 7.5 L 6.964844 8.242188 L 8 8.5 L 6.964844 8.757812 L 7.730469 9.5 L 6.707031 9.207031 L 7 10.230469 L 6.257812 9.464844 Z M 6 10.5 "/>
</g>
</svg>
