<?xml version="1.0" encoding="utf-8"?>
<svg width="24px" height="24px" viewBox="0 0 24 12" version="1.1" xmlns="http://www.w3.org/2000/svg">
  <defs/>
  <path style="stroke: none; fill-rule: nonzero; fill: rgb(254, 221, 0); fill-opacity: 1;" d="M 0 0 L 24 0 L 24 12 L 0 12 L 0 0 Z"/>
  <path d="M 0 0 L 0 6 L 12 6 L 12 0 L 0 0 Z" fill="#012169" style=""/>
  <path d="M 1.342 0 L 6 2.329 L 10.66 0 L 12 0 L 12 0.672 L 7.342 3 L 12 5.33 L 12 6 L 10.66 6 L 6 3.671 L 1.342 6 L 0 6 L 0 5.33 L 4.658 3 L 0 0.672 L 0 0 L 1.342 0 Z" style="fill: rgb(255, 255, 255);"/>
  <path d="M 11.1 0 L 12 0 L 6.003 3.002 L 6.003 3.45 L 0.899 6 L 0 6 L 6.003 3.002 L 6.003 2.554 L 11.1 0 Z M 6.003 3.002 L 5.103 3.002 L 0 0.45 L 0 0 L 6.003 3.002 Z M 12 5.54 L 12 6 L 6.003 3.002 L 6.898 3.002 L 12 5.54 Z" style="fill: rgb(201, 16, 46);"/>
  <path d="M 7 0 L 7 2 L 12 2 L 12 4 L 7 4 L 7 6 L 5 6 L 5 4 L 0 4 L 0 2 L 5 2 L 5 0 L 7 0 Z" style="fill: rgb(255, 255, 255);"/>
  <path d="M 6.6 0 L 6.6 2.4 L 12 2.4 L 12 3.6 L 6.6 3.6 L 6.6 6 L 5.4 6 L 5.4 3.6 L 0 3.6 L 0 2.4 L 5.4 2.4 L 5.4 0 L 6.6 0 Z" style="fill: rgb(200, 16, 46);"/>
  <path style="stroke: none; fill-rule: nonzero; fill: rgb(1, 33, 105); fill-opacity: 1;" d="M 7.019531 3 C 7.019531 3.5625 6.5625 4.019531 6 4.019531 C 5.4375 4.019531 4.980469 3.5625 4.980469 3 C 4.980469 2.4375 5.4375 1.980469 6 1.980469 C 6.5625 1.980469 7.019531 2.4375 7.019531 3 Z M 7.019531 3 "/>
  <path style="stroke: none; fill-rule: nonzero; fill: rgb(254, 221, 0); fill-opacity: 1;" d="M 6 1.980469 L 6.601562 3.824219 L 5.027344 2.683594 L 6.972656 2.683594 L 5.398438 3.824219 "/>
  <path style="stroke: none; fill-rule: nonzero; fill: rgb(254, 221, 0); fill-opacity: 1;" d="M 2.5 2.457031 L 2.851562 3.542969 L 1.929688 2.871094 L 3.070312 2.871094 L 2.148438 3.542969 "/>
  <path style="stroke: none; fill-rule: nonzero; fill: rgb(254, 221, 0); fill-opacity: 1;" d="M 9.5 2.457031 L 9.851562 3.542969 L 8.929688 2.871094 L 10.070312 2.871094 L 9.148438 3.542969 "/>
  <path style="stroke: none; fill-rule: nonzero; fill: rgb(254, 221, 0); fill-opacity: 1;" d="M 6 4.457031 L 6.351562 5.542969 L 5.429688 4.871094 L 6.570312 4.871094 L 5.648438 5.542969 "/>
  <path style="stroke: none; fill-rule: nonzero; fill: rgb(254, 221, 0); fill-opacity: 1;" d="M 6 0.457031 L 6.351562 1.542969 L 5.429688 0.871094 L 6.570312 0.871094 L 5.648438 1.542969 "/>
</svg>