<?xml version="1.0" encoding="utf-8"?>
<svg width="24px" height="24px" viewBox="0 0 24 12" version="1.1" xmlns="http://www.w3.org/2000/svg">
  <defs/>
  <rect x="0" y="0" width="24" height="12" style="fill:rgb(0.392157%,12.941176%,41.176471%);fill-opacity:1;stroke:none;"/>
  <path style=" stroke:none;fill-rule:nonzero;fill:rgb(100%,100%,100%);fill-opacity:1;" d="M 18 2.105469 L 18 2.558594 L 18.90625 2.105469 Z M 18 2.105469 "/>
  <path style=" stroke:none;fill-rule:nonzero;fill:rgb(100%,100%,100%);fill-opacity:1;" d="M 18.171875 2.640625 L 17.90625 2.269531 L 18.90625 2.105469 Z M 18.171875 2.640625 "/>
  <path style=" stroke:none;fill-rule:nonzero;fill:rgb(100%,100%,100%);fill-opacity:1;" d="M 18 2.105469 L 18 2.558594 L 17.09375 2.105469 Z M 18 2.105469 "/>
  <path style=" stroke:none;fill-rule:nonzero;fill:rgb(100%,100%,100%);fill-opacity:1;" d="M 17.828125 2.640625 L 18.09375 2.269531 L 17.09375 2.105469 Z M 17.828125 2.640625 "/>
  <path style=" stroke:none;fill-rule:nonzero;fill:rgb(100%,100%,100%);fill-opacity:1;" d="M 18.28125 2.308594 L 17.847656 2.449219 L 18.5625 3.171875 Z M 18.28125 2.308594 "/>
  <path style=" stroke:none;fill-rule:nonzero;fill:rgb(100%,100%,100%);fill-opacity:1;" d="M 17.828125 2.636719 L 18.09375 2.269531 L 18.5625 3.171875 Z M 17.828125 2.636719 "/>
  <path style=" stroke:none;fill-rule:nonzero;fill:rgb(100%,100%,100%);fill-opacity:1;" d="M 17.71875 2.308594 L 18.152344 2.449219 L 18 1.445312 Z M 17.71875 2.308594 "/>
  <path style=" stroke:none;fill-rule:nonzero;fill:rgb(100%,100%,100%);fill-opacity:1;" d="M 18.28125 2.308594 L 17.847656 2.449219 L 18 1.445312 Z M 18.28125 2.308594 "/>
  <path style=" stroke:none;fill-rule:nonzero;fill:rgb(100%,100%,100%);fill-opacity:1;" d="M 17.71875 2.308594 L 18.152344 2.449219 L 17.4375 3.171875 Z M 17.71875 2.308594 "/>
  <path style=" stroke:none;fill-rule:nonzero;fill:rgb(100%,100%,100%);fill-opacity:1;" d="M 18.171875 2.636719 L 17.90625 2.269531 L 17.4375 3.171875 Z M 18.171875 2.636719 "/>
  <path style=" stroke:none;fill-rule:nonzero;fill:rgb(78.431373%,6.27451%,18.039216%);fill-opacity:1;" d="M 18 2.203125 L 18 2.503906 L 18.601562 2.203125 Z M 18 2.203125 "/>
  <path style=" stroke:none;fill-rule:nonzero;fill:rgb(78.431373%,6.27451%,18.039216%);fill-opacity:1;" d="M 18.113281 2.558594 L 17.9375 2.316406 L 18.601562 2.207031 Z M 18.113281 2.558594 "/>
  <path style=" stroke:none;fill-rule:nonzero;fill:rgb(78.431373%,6.27451%,18.039216%);fill-opacity:1;" d="M 18 2.203125 L 18 2.503906 L 17.398438 2.203125 Z M 18 2.203125 "/>
  <path style=" stroke:none;fill-rule:nonzero;fill:rgb(78.431373%,6.27451%,18.039216%);fill-opacity:1;" d="M 17.886719 2.558594 L 18.0625 2.316406 L 17.398438 2.207031 Z M 17.886719 2.558594 "/>
  <path style=" stroke:none;fill-rule:nonzero;fill:rgb(78.431373%,6.27451%,18.039216%);fill-opacity:1;" d="M 18.183594 2.339844 L 17.898438 2.433594 L 18.371094 2.910156 Z M 18.183594 2.339844 "/>
  <path style=" stroke:none;fill-rule:nonzero;fill:rgb(78.431373%,6.27451%,18.039216%);fill-opacity:1;" d="M 17.886719 2.558594 L 18.0625 2.316406 L 18.371094 2.910156 Z M 17.886719 2.558594 "/>
  <path style=" stroke:none;fill-rule:nonzero;fill:rgb(78.431373%,6.27451%,18.039216%);fill-opacity:1;" d="M 17.816406 2.339844 L 18.101562 2.433594 L 18 1.769531 Z M 17.816406 2.339844 "/>
  <path style=" stroke:none;fill-rule:nonzero;fill:rgb(78.431373%,6.27451%,18.039216%);fill-opacity:1;" d="M 18.183594 2.339844 L 17.898438 2.433594 L 18 1.769531 Z M 18.183594 2.339844 "/>
  <path style=" stroke:none;fill-rule:nonzero;fill:rgb(78.431373%,6.27451%,18.039216%);fill-opacity:1;" d="M 17.816406 2.339844 L 18.101562 2.433594 L 17.628906 2.910156 Z M 17.816406 2.339844 "/>
  <path style=" stroke:none;fill-rule:nonzero;fill:rgb(78.431373%,6.27451%,18.039216%);fill-opacity:1;" d="M 18.113281 2.558594 L 17.9375 2.316406 L 17.628906 2.910156 Z M 18.113281 2.558594 "/>
  <path style=" stroke:none;fill-rule:nonzero;fill:rgb(100%,100%,100%);fill-opacity:1;" d="M 20.375 4.203125 L 20.375 4.605469 L 21.183594 4.203125 Z M 20.375 4.203125 "/>
  <path style=" stroke:none;fill-rule:nonzero;fill:rgb(100%,100%,100%);fill-opacity:1;" d="M 20.53125 4.679688 L 20.292969 4.351562 L 21.183594 4.203125 Z M 20.53125 4.679688 "/>
  <path style=" stroke:none;fill-rule:nonzero;fill:rgb(100%,100%,100%);fill-opacity:1;" d="M 20.375 4.203125 L 20.375 4.605469 L 19.570312 4.203125 Z M 20.375 4.203125 "/>
  <path style=" stroke:none;fill-rule:nonzero;fill:rgb(100%,100%,100%);fill-opacity:1;" d="M 20.222656 4.679688 L 20.460938 4.351562 L 19.570312 4.203125 Z M 20.222656 4.679688 "/>
  <path style=" stroke:none;fill-rule:nonzero;fill:rgb(100%,100%,100%);fill-opacity:1;" d="M 20.625 4.386719 L 20.242188 4.507812 L 20.875 5.152344 Z M 20.625 4.386719 "/>
  <path style=" stroke:none;fill-rule:nonzero;fill:rgb(100%,100%,100%);fill-opacity:1;" d="M 20.222656 4.679688 L 20.460938 4.351562 L 20.875 5.152344 Z M 20.222656 4.679688 "/>
  <path style=" stroke:none;fill-rule:nonzero;fill:rgb(100%,100%,100%);fill-opacity:1;" d="M 20.125 4.386719 L 20.511719 4.507812 L 20.375 3.617188 Z M 20.125 4.386719 "/>
  <path style=" stroke:none;fill-rule:nonzero;fill:rgb(100%,100%,100%);fill-opacity:1;" d="M 20.625 4.386719 L 20.242188 4.511719 L 20.375 3.617188 Z M 20.625 4.386719 "/>
  <path style=" stroke:none;fill-rule:nonzero;fill:rgb(100%,100%,100%);fill-opacity:1;" d="M 20.125 4.386719 L 20.511719 4.507812 L 19.878906 5.152344 Z M 20.125 4.386719 "/>
  <path style=" stroke:none;fill-rule:nonzero;fill:rgb(100%,100%,100%);fill-opacity:1;" d="M 20.53125 4.679688 L 20.292969 4.351562 L 19.878906 5.152344 Z M 20.53125 4.679688 "/>
  <path style=" stroke:none;fill-rule:nonzero;fill:rgb(78.431373%,6.27451%,18.039216%);fill-opacity:1;" d="M 20.375 4.304688 L 20.375 4.554688 L 20.875 4.304688 Z M 20.375 4.304688 "/>
  <path style=" stroke:none;fill-rule:nonzero;fill:rgb(78.431373%,6.27451%,18.039216%);fill-opacity:1;" d="M 20.472656 4.597656 L 20.324219 4.394531 L 20.875 4.304688 Z M 20.472656 4.597656 "/>
  <path style=" stroke:none;fill-rule:nonzero;fill:rgb(78.431373%,6.27451%,18.039216%);fill-opacity:1;" d="M 20.375 4.304688 L 20.375 4.554688 L 19.875 4.304688 Z M 20.375 4.304688 "/>
  <path style=" stroke:none;fill-rule:nonzero;fill:rgb(78.431373%,6.27451%,18.039216%);fill-opacity:1;" d="M 20.28125 4.597656 L 20.429688 4.394531 L 19.875 4.304688 Z M 20.28125 4.597656 "/>
  <path style=" stroke:none;fill-rule:nonzero;fill:rgb(78.431373%,6.27451%,18.039216%);fill-opacity:1;" d="M 20.53125 4.414062 L 20.292969 4.492188 L 20.6875 4.890625 Z M 20.53125 4.414062 "/>
  <path style=" stroke:none;fill-rule:nonzero;fill:rgb(78.431373%,6.27451%,18.039216%);fill-opacity:1;" d="M 20.28125 4.597656 L 20.429688 4.394531 L 20.6875 4.890625 Z M 20.28125 4.597656 "/>
  <path style=" stroke:none;fill-rule:nonzero;fill:rgb(78.431373%,6.27451%,18.039216%);fill-opacity:1;" d="M 20.222656 4.414062 L 20.460938 4.492188 L 20.375 3.941406 Z M 20.222656 4.414062 "/>
  <path style=" stroke:none;fill-rule:nonzero;fill:rgb(78.431373%,6.27451%,18.039216%);fill-opacity:1;" d="M 20.53125 4.414062 L 20.292969 4.492188 L 20.375 3.941406 Z M 20.53125 4.414062 "/>
  <path style=" stroke:none;fill-rule:nonzero;fill:rgb(78.431373%,6.27451%,18.039216%);fill-opacity:1;" d="M 20.222656 4.414062 L 20.460938 4.492188 L 20.066406 4.890625 Z M 20.222656 4.414062 "/>
  <path style=" stroke:none;fill-rule:nonzero;fill:rgb(78.431373%,6.27451%,18.039216%);fill-opacity:1;" d="M 20.472656 4.597656 L 20.324219 4.394531 L 20.066406 4.890625 Z M 20.472656 4.597656 "/>
  <path style=" stroke:none;fill-rule:nonzero;fill:rgb(100%,100%,100%);fill-opacity:1;" d="M 15.226562 4.894531 L 15.226562 5.347656 L 16.136719 4.894531 Z M 15.226562 4.894531 "/>
  <path style=" stroke:none;fill-rule:nonzero;fill:rgb(100%,100%,100%);fill-opacity:1;" d="M 15.402344 5.429688 L 15.132812 5.0625 L 16.136719 4.894531 Z M 15.402344 5.429688 "/>
  <path style=" stroke:none;fill-rule:nonzero;fill:rgb(100%,100%,100%);fill-opacity:1;" d="M 15.226562 4.894531 L 15.226562 5.347656 L 14.320312 4.894531 Z M 15.226562 4.894531 "/>
  <path style=" stroke:none;fill-rule:nonzero;fill:rgb(100%,100%,100%);fill-opacity:1;" d="M 15.054688 5.429688 L 15.320312 5.0625 L 14.320312 4.894531 Z M 15.054688 5.429688 "/>
  <path style=" stroke:none;fill-rule:nonzero;fill:rgb(100%,100%,100%);fill-opacity:1;" d="M 15.507812 5.097656 L 15.074219 5.238281 L 15.789062 5.960938 Z M 15.507812 5.097656 "/>
  <path style=" stroke:none;fill-rule:nonzero;fill:rgb(100%,100%,100%);fill-opacity:1;" d="M 15.054688 5.429688 L 15.320312 5.0625 L 15.789062 5.960938 Z M 15.054688 5.429688 "/>
  <path style=" stroke:none;fill-rule:nonzero;fill:rgb(100%,100%,100%);fill-opacity:1;" d="M 14.945312 5.097656 L 15.378906 5.238281 L 15.226562 4.234375 Z M 14.945312 5.097656 "/>
  <path style=" stroke:none;fill-rule:nonzero;fill:rgb(100%,100%,100%);fill-opacity:1;" d="M 15.507812 5.097656 L 15.074219 5.238281 L 15.226562 4.234375 Z M 15.507812 5.097656 "/>
  <path style=" stroke:none;fill-rule:nonzero;fill:rgb(100%,100%,100%);fill-opacity:1;" d="M 14.945312 5.097656 L 15.378906 5.238281 L 14.664062 5.960938 Z M 14.945312 5.097656 "/>
  <path style=" stroke:none;fill-rule:nonzero;fill:rgb(100%,100%,100%);fill-opacity:1;" d="M 15.402344 5.429688 L 15.132812 5.0625 L 14.667969 5.960938 Z M 15.402344 5.429688 "/>
  <path style=" stroke:none;fill-rule:nonzero;fill:rgb(78.431373%,6.27451%,18.039216%);fill-opacity:1;" d="M 15.226562 4.996094 L 15.226562 5.292969 L 15.828125 4.996094 Z M 15.226562 4.996094 "/>
  <path style=" stroke:none;fill-rule:nonzero;fill:rgb(78.431373%,6.27451%,18.039216%);fill-opacity:1;" d="M 15.339844 5.347656 L 15.164062 5.105469 L 15.828125 4.996094 Z M 15.339844 5.347656 "/>
  <path style=" stroke:none;fill-rule:nonzero;fill:rgb(78.431373%,6.27451%,18.039216%);fill-opacity:1;" d="M 15.226562 4.996094 L 15.226562 5.292969 L 14.628906 4.996094 Z M 15.226562 4.996094 "/>
  <path style=" stroke:none;fill-rule:nonzero;fill:rgb(78.431373%,6.27451%,18.039216%);fill-opacity:1;" d="M 15.113281 5.347656 L 15.289062 5.105469 L 14.628906 4.996094 Z M 15.113281 5.347656 "/>
  <path style=" stroke:none;fill-rule:nonzero;fill:rgb(78.431373%,6.27451%,18.039216%);fill-opacity:1;" d="M 15.414062 5.128906 L 15.128906 5.222656 L 15.597656 5.699219 Z M 15.414062 5.128906 "/>
  <path style=" stroke:none;fill-rule:nonzero;fill:rgb(78.431373%,6.27451%,18.039216%);fill-opacity:1;" d="M 15.113281 5.347656 L 15.289062 5.105469 L 15.597656 5.699219 Z M 15.113281 5.347656 "/>
  <path style=" stroke:none;fill-rule:nonzero;fill:rgb(78.431373%,6.27451%,18.039216%);fill-opacity:1;" d="M 15.042969 5.128906 L 15.328125 5.222656 L 15.226562 4.558594 Z M 15.042969 5.128906 "/>
  <path style=" stroke:none;fill-rule:nonzero;fill:rgb(78.431373%,6.27451%,18.039216%);fill-opacity:1;" d="M 15.414062 5.128906 L 15.128906 5.222656 L 15.226562 4.558594 Z M 15.414062 5.128906 "/>
  <path style=" stroke:none;fill-rule:nonzero;fill:rgb(78.431373%,6.27451%,18.039216%);fill-opacity:1;" d="M 15.042969 5.128906 L 15.328125 5.222656 L 14.855469 5.699219 Z M 15.042969 5.128906 "/>
  <path style=" stroke:none;fill-rule:nonzero;fill:rgb(78.431373%,6.27451%,18.039216%);fill-opacity:1;" d="M 15.34375 5.347656 L 15.164062 5.105469 L 14.855469 5.699219 Z M 15.34375 5.347656 "/>
  <path style=" stroke:none;fill-rule:nonzero;fill:rgb(100%,100%,100%);fill-opacity:1;" d="M 18 9.273438 L 18 9.777344 L 19.007812 9.273438 Z M 18 9.273438 "/>
  <path style=" stroke:none;fill-rule:nonzero;fill:rgb(100%,100%,100%);fill-opacity:1;" d="M 18.191406 9.863281 L 17.894531 9.457031 L 19.007812 9.273438 Z M 18.191406 9.863281 "/>
  <path style=" stroke:none;fill-rule:nonzero;fill:rgb(100%,100%,100%);fill-opacity:1;" d="M 18 9.273438 L 18 9.777344 L 16.992188 9.273438 Z M 18 9.273438 "/>
  <path style=" stroke:none;fill-rule:nonzero;fill:rgb(100%,100%,100%);fill-opacity:1;" d="M 17.808594 9.863281 L 18.105469 9.457031 L 16.992188 9.273438 Z M 17.808594 9.863281 "/>
  <path style=" stroke:none;fill-rule:nonzero;fill:rgb(100%,100%,100%);fill-opacity:1;" d="M 18.3125 9.5 L 17.832031 9.65625 L 18.625 10.457031 Z M 18.3125 9.5 "/>
  <path style=" stroke:none;fill-rule:nonzero;fill:rgb(100%,100%,100%);fill-opacity:1;" d="M 17.808594 9.863281 L 18.105469 9.457031 L 18.621094 10.457031 Z M 17.808594 9.863281 "/>
  <path style=" stroke:none;fill-rule:nonzero;fill:rgb(100%,100%,100%);fill-opacity:1;" d="M 17.6875 9.5 L 18.167969 9.65625 L 18 8.539062 Z M 17.6875 9.5 "/>
  <path style=" stroke:none;fill-rule:nonzero;fill:rgb(100%,100%,100%);fill-opacity:1;" d="M 18.3125 9.5 L 17.832031 9.65625 L 18 8.539062 Z M 18.3125 9.5 "/>
  <path style=" stroke:none;fill-rule:nonzero;fill:rgb(100%,100%,100%);fill-opacity:1;" d="M 17.6875 9.5 L 18.167969 9.65625 L 17.375 10.457031 Z M 17.6875 9.5 "/>
  <path style=" stroke:none;fill-rule:nonzero;fill:rgb(100%,100%,100%);fill-opacity:1;" d="M 18.191406 9.863281 L 17.894531 9.457031 L 17.378906 10.457031 Z M 18.191406 9.863281 "/>
  <path style=" stroke:none;fill-rule:nonzero;fill:rgb(78.431373%,6.27451%,18.039216%);fill-opacity:1;" d="M 18 9.371094 L 18 9.722656 L 18.699219 9.371094 Z M 18 9.371094 "/>
  <path style=" stroke:none;fill-rule:nonzero;fill:rgb(78.431373%,6.27451%,18.039216%);fill-opacity:1;" d="M 18.132812 9.785156 L 17.929688 9.5 L 18.699219 9.371094 Z M 18.132812 9.785156 "/>
  <path style=" stroke:none;fill-rule:nonzero;fill:rgb(78.431373%,6.27451%,18.039216%);fill-opacity:1;" d="M 18 9.371094 L 18 9.722656 L 17.300781 9.371094 Z M 18 9.371094 "/>
  <path style=" stroke:none;fill-rule:nonzero;fill:rgb(78.431373%,6.27451%,18.039216%);fill-opacity:1;" d="M 17.867188 9.785156 L 18.070312 9.5 L 17.300781 9.371094 Z M 17.867188 9.785156 "/>
  <path style=" stroke:none;fill-rule:nonzero;fill:rgb(78.431373%,6.27451%,18.039216%);fill-opacity:1;" d="M 18.214844 9.53125 L 17.882812 9.636719 L 18.433594 10.195312 Z M 18.214844 9.53125 "/>
  <path style=" stroke:none;fill-rule:nonzero;fill:rgb(78.431373%,6.27451%,18.039216%);fill-opacity:1;" d="M 17.867188 9.785156 L 18.070312 9.5 L 18.433594 10.195312 Z M 17.867188 9.785156 "/>
  <path style=" stroke:none;fill-rule:nonzero;fill:rgb(78.431373%,6.27451%,18.039216%);fill-opacity:1;" d="M 17.785156 9.53125 L 18.117188 9.636719 L 18 8.863281 Z M 17.785156 9.53125 "/>
  <path style=" stroke:none;fill-rule:nonzero;fill:rgb(78.431373%,6.27451%,18.039216%);fill-opacity:1;" d="M 18.214844 9.53125 L 17.882812 9.636719 L 18 8.863281 Z M 18.214844 9.53125 "/>
  <path style=" stroke:none;fill-rule:nonzero;fill:rgb(78.431373%,6.27451%,18.039216%);fill-opacity:1;" d="M 17.785156 9.53125 L 18.117188 9.636719 L 17.566406 10.195312 Z M 17.785156 9.53125 "/>
  <path style=" stroke:none;fill-rule:nonzero;fill:rgb(78.431373%,6.27451%,18.039216%);fill-opacity:1;" d="M 18.132812 9.785156 L 17.929688 9.5 L 17.566406 10.195312 Z M 18.132812 9.785156 "/>
  <path d="M 0 0 L 0 6 L 12 6 L 12 0 L 0 0 Z" fill="#012169" style=""/>
  <path d="M 1.342 0 L 6 2.329 L 10.66 0 L 12 0 L 12 0.672 L 7.342 3 L 12 5.33 L 12 6 L 10.66 6 L 6 3.671 L 1.342 6 L 0 6 L 0 5.33 L 4.658 3 L 0 0.672 L 0 0 L 1.342 0 Z" style="fill: rgb(255, 255, 255);"/>
  <path d="M 11.1 0 L 12 0 L 6.003 3.002 L 6.003 3.45 L 0.899 6 L 0 6 L 6.003 3.002 L 6.003 2.554 L 11.1 0 Z M 6.003 3.002 L 5.103 3.002 L 0 0.45 L 0 0 L 6.003 3.002 Z M 12 5.54 L 12 6 L 6.003 3.002 L 6.898 3.002 L 12 5.54 Z" style="fill: rgb(201, 16, 46);"/>
  <path d="M 7 0 L 7 2 L 12 2 L 12 4 L 7 4 L 7 6 L 5 6 L 5 4 L 0 4 L 0 2 L 5 2 L 5 0 L 7 0 Z" style="fill: rgb(255, 255, 255);"/>
  <path d="M 6.6 0 L 6.6 2.4 L 12 2.4 L 12 3.6 L 6.6 3.6 L 6.6 6 L 5.4 6 L 5.4 3.6 L 0 3.6 L 0 2.4 L 5.4 2.4 L 5.4 0 L 6.6 0 Z" style="fill: rgb(200, 16, 46);"/>
</svg>