<?xml version="1.0" encoding="UTF-8"?>
<svg xmlns="http://www.w3.org/2000/svg" xmlns:xlink="http://www.w3.org/1999/xlink" width="24px" height="24px" viewBox="0 0 24 12" version="1.1">
<g id="surface1">
<rect x="0" y="0" width="24" height="12" style="fill:rgb(85.882353%,8.627451%,10.588235%);fill-opacity:1;stroke:none;"/>
<path style=" stroke:none;fill-rule:nonzero;fill:rgb(100%,100%,100%);fill-opacity:1;" d="M 6 0 L 24 0 L 24 4 L 6 4 Z M 6 0 "/>
<path style=" stroke:none;fill-rule:nonzero;fill:rgb(0%,50.196078%,0%);fill-opacity:1;" d="M 6 8 L 24 8 L 24 12 L 6 12 Z M 6 8 "/>
<path style="fill-rule:evenodd;fill:rgb(100%,100%,100%);fill-opacity:1;stroke-width:0.378;stroke-linecap:butt;stroke-linejoin:miter;stroke:rgb(85.882353%,8.627451%,10.588235%);stroke-opacity:1;stroke-miterlimit:4;" d="M 69.140625 102.734375 L 101.367188 102.734375 C 103.125 102.734375 104.492188 103.90625 104.492188 105.664062 L 104.492188 120.898438 C 104.492188 122.460938 103.125 123.828125 101.367188 123.828125 L 69.140625 123.828125 C 67.382812 123.828125 65.820312 122.460938 65.820312 120.898438 L 65.820312 105.664062 C 65.820312 103.90625 67.382812 102.734375 69.140625 102.734375 Z M 69.140625 102.734375 " transform="matrix(0.02,0,0,0.02,0,0)"/>
<path style="fill-rule:evenodd;fill:rgb(100%,100%,100%);fill-opacity:1;stroke-width:0.352;stroke-linecap:butt;stroke-linejoin:miter;stroke:rgb(85.882353%,8.627451%,10.588235%);stroke-opacity:1;stroke-miterlimit:4;" d="M 69.921875 103.515625 L 100.390625 103.515625 C 102.148438 103.515625 103.515625 104.6875 103.515625 106.25 L 103.515625 120.117188 C 103.515625 121.679688 102.148438 123.046875 100.390625 123.046875 L 69.921875 123.046875 C 68.164062 123.046875 66.796875 121.679688 66.796875 120.117188 L 66.796875 106.25 C 66.796875 104.6875 68.164062 103.515625 69.921875 103.515625 Z M 69.921875 103.515625 " transform="matrix(0.02,0,0,0.02,0,0)"/>
<path style="fill-rule:evenodd;fill:rgb(100%,100%,100%);fill-opacity:1;stroke-width:0.222;stroke-linecap:butt;stroke-linejoin:miter;stroke:rgb(85.882353%,8.627451%,10.588235%);stroke-opacity:1;stroke-miterlimit:4;" d="M 83.984375 108.789062 L 85.742188 108.984375 L 85.9375 109.765625 L 87.304688 110.546875 L 88.476562 109.570312 L 90.039062 110.351562 L 88.671875 111.132812 L 88.867188 112.304688 L 90.625 112.304688 L 90.625 113.867188 L 89.257812 113.671875 L 88.671875 114.648438 L 90.234375 115.820312 L 88.867188 116.796875 L 87.695312 115.820312 L 85.9375 116.210938 L 85.9375 117.578125 L 83.984375 117.578125 L 83.59375 116.40625 L 82.03125 115.625 L 81.054688 116.601562 L 79.6875 115.820312 L 80.46875 114.84375 L 79.492188 114.0625 L 77.929688 114.0625 L 77.929688 112.109375 L 79.296875 112.109375 L 80.273438 110.9375 L 79.101562 110.15625 L 80.664062 108.984375 L 81.835938 109.960938 L 83.59375 109.765625 Z M 83.984375 108.789062 " transform="matrix(0.02,0,0,0.02,0,0)"/>
<path style="fill-rule:evenodd;fill:rgb(100%,100%,100%);fill-opacity:1;stroke-width:1.333;stroke-linecap:butt;stroke-linejoin:miter;stroke:rgb(85.882353%,8.627451%,10.588235%);stroke-opacity:1;stroke-miterlimit:4;" d="M 80.125081 427.168593 C 80.125081 421.594606 74.822864 417.135417 68.460202 417.135417 C 63.157984 417.135417 57.855766 421.594606 57.855766 427.168593 C 57.855766 432.74258 63.157984 437.201769 68.460202 437.201769 C 74.822864 437.201769 80.125081 432.74258 80.125081 427.168593 Z M 80.125081 427.168593 " transform="matrix(0.0036836,0,0,0.003504,1.43532,0.76492)"/>
<path style="fill-rule:evenodd;fill:rgb(100%,100%,100%);fill-opacity:1;stroke-width:0.352;stroke-linecap:butt;stroke-linejoin:miter;stroke:rgb(85.882353%,8.627451%,10.588235%);stroke-opacity:1;stroke-miterlimit:4;" d="M 71.875 104.492188 L 68.75 107.03125 M 73.828125 104.492188 L 70.898438 107.03125 M 75.78125 104.492188 L 72.851562 107.03125 M 77.734375 104.492188 L 74.804688 107.03125 M 79.6875 104.492188 L 76.757812 107.03125 M 81.640625 104.492188 L 78.710938 107.03125 M 83.789062 104.492188 L 80.664062 107.03125 M 85.742188 104.492188 L 82.617188 107.03125 M 87.695312 104.492188 L 84.765625 107.03125 M 89.648438 104.492188 L 86.71875 107.03125 M 91.601562 104.492188 L 88.671875 107.03125 M 93.554688 104.492188 L 90.625 107.03125 M 85.742188 104.492188 L 82.617188 107.03125 M 95.507812 104.492188 L 92.578125 107.03125 M 97.65625 104.492188 L 94.53125 107.03125 M 99.609375 104.492188 L 96.679688 107.03125 M 101.5625 104.492188 L 98.632812 107.03125 M 98.632812 104.492188 L 101.5625 107.03125 M 96.679688 104.492188 L 99.609375 107.03125 M 94.53125 104.492188 L 97.65625 107.03125 M 92.578125 104.492188 L 95.507812 107.03125 M 90.625 104.492188 L 93.554688 107.03125 M 88.671875 104.492188 L 91.601562 107.03125 M 86.71875 104.492188 L 89.648438 107.03125 M 84.765625 104.492188 L 87.695312 107.03125 M 82.617188 104.492188 L 85.742188 107.03125 M 80.664062 104.492188 L 83.789062 107.03125 M 78.710938 104.492188 L 81.640625 107.03125 M 76.757812 104.492188 L 79.6875 107.03125 M 84.765625 104.492188 L 87.695312 107.03125 M 74.804688 104.492188 L 77.734375 107.03125 M 72.851562 104.492188 L 75.78125 107.03125 M 70.898438 104.492188 L 73.828125 107.03125 M 68.75 104.492188 L 71.875 107.03125 M 71.875 119.335938 L 68.75 122.070312 M 73.828125 119.335938 L 70.898438 122.070312 M 75.78125 119.335938 L 72.851562 122.070312 M 77.734375 119.335938 L 74.804688 122.070312 M 79.6875 119.335938 L 76.757812 122.070312 M 81.640625 119.335938 L 78.710938 122.070312 M 83.789062 119.335938 L 80.664062 122.070312 M 85.742188 119.335938 L 82.617188 122.070312 M 87.695312 119.335938 L 84.765625 122.070312 M 89.648438 119.335938 L 86.71875 122.070312 M 91.601562 119.335938 L 88.671875 122.070312 M 93.554688 119.335938 L 90.625 122.070312 M 85.742188 119.335938 L 82.617188 122.070312 M 95.507812 119.335938 L 92.578125 122.070312 M 97.65625 119.335938 L 94.53125 122.070312 M 99.609375 119.335938 L 96.679688 122.070312 M 101.5625 119.335938 L 98.632812 122.070312 M 98.632812 119.335938 L 101.5625 122.070312 M 96.679688 119.335938 L 99.609375 122.070312 M 94.53125 119.335938 L 97.65625 122.070312 M 92.578125 119.335938 L 95.507812 122.070312 M 90.625 119.335938 L 93.554688 122.070312 M 88.671875 119.335938 L 91.601562 122.070312 M 86.71875 119.335938 L 89.648438 122.070312 M 84.765625 119.335938 L 87.695312 122.070312 M 82.617188 119.335938 L 85.742188 122.070312 M 80.664062 119.335938 L 83.789062 122.070312 M 78.710938 119.335938 L 81.640625 122.070312 M 76.757812 119.335938 L 79.6875 122.070312 M 84.765625 119.335938 L 87.695312 122.070312 M 74.804688 119.335938 L 77.734375 122.070312 M 72.851562 119.335938 L 75.78125 122.070312 M 70.898438 119.335938 L 73.828125 122.070312 M 68.75 119.335938 L 71.875 122.070312 " transform="matrix(0.02,0,0,0.02,0,0)"/>
<path style="fill-rule:evenodd;fill:rgb(100%,100%,100%);fill-opacity:1;stroke-width:0.378;stroke-linecap:butt;stroke-linejoin:miter;stroke:rgb(85.882353%,8.627451%,10.588235%);stroke-opacity:1;stroke-miterlimit:4;" d="M 69.140625 102.734375 L 101.367188 102.734375 C 103.125 102.734375 104.492188 103.90625 104.492188 105.664062 L 104.492188 120.898438 C 104.492188 122.460938 103.125 123.828125 101.367188 123.828125 L 69.140625 123.828125 C 67.382812 123.828125 65.820312 122.460938 65.820312 120.898438 L 65.820312 105.664062 C 65.820312 103.90625 67.382812 102.734375 69.140625 102.734375 Z M 69.140625 102.734375 " transform="matrix(-0.02,0,0,0.02,6,0)"/>
<path style="fill-rule:evenodd;fill:rgb(100%,100%,100%);fill-opacity:1;stroke-width:0.352;stroke-linecap:butt;stroke-linejoin:miter;stroke:rgb(85.882353%,8.627451%,10.588235%);stroke-opacity:1;stroke-miterlimit:4;" d="M 69.921875 103.515625 L 100.390625 103.515625 C 102.148438 103.515625 103.515625 104.6875 103.515625 106.25 L 103.515625 120.117188 C 103.515625 121.679688 102.148438 123.046875 100.390625 123.046875 L 69.921875 123.046875 C 68.164062 123.046875 66.796875 121.679688 66.796875 120.117188 L 66.796875 106.25 C 66.796875 104.6875 68.164062 103.515625 69.921875 103.515625 Z M 69.921875 103.515625 " transform="matrix(-0.02,0,0,0.02,6,0)"/>
<path style="fill-rule:evenodd;fill:rgb(100%,100%,100%);fill-opacity:1;stroke-width:0.222;stroke-linecap:butt;stroke-linejoin:miter;stroke:rgb(85.882353%,8.627451%,10.588235%);stroke-opacity:1;stroke-miterlimit:4;" d="M 83.984375 108.789062 L 85.742188 108.984375 L 85.9375 109.765625 L 87.304688 110.546875 L 88.476562 109.570312 L 90.039062 110.351562 L 88.671875 111.132812 L 88.867188 112.304688 L 90.625 112.304688 L 90.625 113.867188 L 89.257812 113.671875 L 88.671875 114.648438 L 90.234375 115.820312 L 88.867188 116.796875 L 87.695312 115.820312 L 85.9375 116.210938 L 85.9375 117.578125 L 83.984375 117.578125 L 83.59375 116.40625 L 82.03125 115.625 L 81.054688 116.601562 L 79.6875 115.820312 L 80.46875 114.84375 L 79.492188 114.0625 L 77.929688 114.0625 L 77.929688 112.109375 L 79.296875 112.109375 L 80.273438 110.9375 L 79.101562 110.15625 L 80.664062 108.984375 L 81.835938 109.960938 L 83.59375 109.765625 Z M 83.984375 108.789062 " transform="matrix(-0.02,0,0,0.02,6,0)"/>
<path style="fill-rule:evenodd;fill:rgb(100%,100%,100%);fill-opacity:1;stroke-width:1.333;stroke-linecap:butt;stroke-linejoin:miter;stroke:rgb(85.882353%,8.627451%,10.588235%);stroke-opacity:1;stroke-miterlimit:4;" d="M 80.125081 427.168593 C 80.125081 421.594606 74.822864 417.135417 68.460202 417.135417 C 63.157984 417.135417 57.855766 421.594606 57.855766 427.168593 C 57.855766 432.74258 63.157984 437.201769 68.460202 437.201769 C 74.822864 437.201769 80.125081 432.74258 80.125081 427.168593 Z M 80.125081 427.168593 " transform="matrix(-0.0036836,0,0,0.003504,4.56468,0.76492)"/>
<path style="fill-rule:evenodd;fill:rgb(100%,100%,100%);fill-opacity:1;stroke-width:0.352;stroke-linecap:butt;stroke-linejoin:miter;stroke:rgb(85.882353%,8.627451%,10.588235%);stroke-opacity:1;stroke-miterlimit:4;" d="M 71.875 104.492188 L 68.75 107.03125 M 73.828125 104.492188 L 70.898438 107.03125 M 75.78125 104.492188 L 72.851562 107.03125 M 77.734375 104.492188 L 74.804688 107.03125 M 79.6875 104.492188 L 76.757812 107.03125 M 81.640625 104.492188 L 78.710938 107.03125 M 83.789062 104.492188 L 80.664062 107.03125 M 85.742188 104.492188 L 82.617188 107.03125 M 87.695312 104.492188 L 84.765625 107.03125 M 89.648438 104.492188 L 86.71875 107.03125 M 91.601562 104.492188 L 88.671875 107.03125 M 93.554688 104.492188 L 90.625 107.03125 M 85.742188 104.492188 L 82.617188 107.03125 M 95.507812 104.492188 L 92.578125 107.03125 M 97.65625 104.492188 L 94.53125 107.03125 M 99.609375 104.492188 L 96.679688 107.03125 M 101.5625 104.492188 L 98.632812 107.03125 M 98.632812 104.492188 L 101.5625 107.03125 M 96.679688 104.492188 L 99.609375 107.03125 M 94.53125 104.492188 L 97.65625 107.03125 M 92.578125 104.492188 L 95.507812 107.03125 M 90.625 104.492188 L 93.554688 107.03125 M 88.671875 104.492188 L 91.601562 107.03125 M 86.71875 104.492188 L 89.648438 107.03125 M 84.765625 104.492188 L 87.695312 107.03125 M 82.617188 104.492188 L 85.742188 107.03125 M 80.664062 104.492188 L 83.789062 107.03125 M 78.710938 104.492188 L 81.640625 107.03125 M 76.757812 104.492188 L 79.6875 107.03125 M 84.765625 104.492188 L 87.695312 107.03125 M 74.804688 104.492188 L 77.734375 107.03125 M 72.851562 104.492188 L 75.78125 107.03125 M 70.898438 104.492188 L 73.828125 107.03125 M 68.75 104.492188 L 71.875 107.03125 M 71.875 119.335938 L 68.75 122.070312 M 73.828125 119.335938 L 70.898438 122.070312 M 75.78125 119.335938 L 72.851562 122.070312 M 77.734375 119.335938 L 74.804688 122.070312 M 79.6875 119.335938 L 76.757812 122.070312 M 81.640625 119.335938 L 78.710938 122.070312 M 83.789062 119.335938 L 80.664062 122.070312 M 85.742188 119.335938 L 82.617188 122.070312 M 87.695312 119.335938 L 84.765625 122.070312 M 89.648438 119.335938 L 86.71875 122.070312 M 91.601562 119.335938 L 88.671875 122.070312 M 93.554688 119.335938 L 90.625 122.070312 M 85.742188 119.335938 L 82.617188 122.070312 M 95.507812 119.335938 L 92.578125 122.070312 M 97.65625 119.335938 L 94.53125 122.070312 M 99.609375 119.335938 L 96.679688 122.070312 M 101.5625 119.335938 L 98.632812 122.070312 M 98.632812 119.335938 L 101.5625 122.070312 M 96.679688 119.335938 L 99.609375 122.070312 M 94.53125 119.335938 L 97.65625 122.070312 M 92.578125 119.335938 L 95.507812 122.070312 M 90.625 119.335938 L 93.554688 122.070312 M 88.671875 119.335938 L 91.601562 122.070312 M 86.71875 119.335938 L 89.648438 122.070312 M 84.765625 119.335938 L 87.695312 122.070312 M 82.617188 119.335938 L 85.742188 122.070312 M 80.664062 119.335938 L 83.789062 122.070312 M 78.710938 119.335938 L 81.640625 122.070312 M 76.757812 119.335938 L 79.6875 122.070312 M 84.765625 119.335938 L 87.695312 122.070312 M 74.804688 119.335938 L 77.734375 122.070312 M 72.851562 119.335938 L 75.78125 122.070312 M 70.898438 119.335938 L 73.828125 122.070312 M 68.75 119.335938 L 71.875 122.070312 " transform="matrix(-0.02,0,0,0.02,6,0)"/>
<path style="fill-rule:evenodd;fill:rgb(100%,100%,100%);fill-opacity:1;stroke-width:0.565;stroke-linecap:butt;stroke-linejoin:miter;stroke:rgb(85.882353%,8.627451%,10.588235%);stroke-opacity:1;stroke-miterlimit:4;" d="M 126.5625 147.070312 C 78.320312 194.140625 57.8125 200.195312 67.578125 203.90625 C 77.148438 207.617188 108.203125 183.398438 140.429688 151.171875 C 172.65625 118.945312 192.382812 90.234375 182.617188 86.328125 C 173.046875 82.617188 177.734375 97.070312 126.5625 147.070312 Z M 126.5625 147.070312 " transform="matrix(0.02,0,0,0.02,0,0)"/>
<path style="fill-rule:evenodd;fill:rgb(100%,100%,100%);fill-opacity:1;stroke-width:0.33;stroke-linecap:butt;stroke-linejoin:miter;stroke:rgb(85.882353%,8.627451%,10.588235%);stroke-opacity:1;stroke-miterlimit:4;" d="M 85.9375 181.25 L 102.929688 185.742188 C 86.914062 200.78125 69.140625 207.03125 64.257812 204.296875 C 59.179688 201.5625 73.046875 195.507812 85.9375 181.25 Z M 85.9375 181.25 " transform="matrix(0.02,0,0,0.02,0,0)"/>
<path style="fill-rule:evenodd;fill:rgb(100%,100%,100%);fill-opacity:1;stroke-width:0.33;stroke-linecap:butt;stroke-linejoin:miter;stroke:rgb(85.882353%,8.627451%,10.588235%);stroke-opacity:1;stroke-miterlimit:4;" d="M 85.9375 183.007812 L 99.804688 186.523438 C 84.375 200.976562 69.140625 205.273438 65.234375 203.515625 C 61.132812 201.5625 73.4375 196.679688 85.9375 183.007812 Z M 85.9375 183.007812 " transform="matrix(0.02,0,0,0.02,0,0)"/>
<path style="fill:none;stroke-width:0.33;stroke-linecap:butt;stroke-linejoin:miter;stroke:rgb(85.882353%,8.627451%,10.588235%);stroke-opacity:1;stroke-miterlimit:4;" d="M 137.695312 145.117188 C 137.695312 145.3125 137.695312 146.289062 137.5 146.679688 C 137.5 147.265625 137.5 147.65625 137.5 148.046875 C 137.304688 148.4375 137.304688 148.828125 136.71875 149.023438 C 136.523438 149.414062 136.328125 149.609375 135.742188 149.804688 C 135.546875 150 135.15625 150.195312 134.570312 150.390625 C 134.179688 150.585938 133.59375 150.585938 133.203125 150.585938 C 132.617188 150.195312 132.421875 150 132.03125 149.804688 C 131.835938 149.414062 131.835938 148.828125 131.835938 148.632812 C 131.835938 148.828125 132.03125 149.414062 132.03125 150 C 132.03125 150.585938 131.835938 150.78125 131.445312 151.171875 M 133.203125 152.34375 C 133.398438 152.539062 133.203125 152.34375 132.617188 151.953125 C 132.226562 151.757812 131.640625 151.757812 131.054688 151.5625 L 129.296875 151.5625 C 128.710938 151.5625 128.125 151.757812 127.734375 151.757812 C 127.34375 152.148438 126.757812 152.34375 126.367188 152.539062 C 126.171875 152.734375 125.976562 153.125 125.78125 153.515625 C 125.390625 153.710938 125.195312 154.296875 124.804688 154.492188 C 124.804688 154.882812 124.414062 154.882812 124.21875 155.273438 C 124.804688 155.273438 125.195312 155.46875 125.585938 155.664062 C 126.171875 156.054688 125.195312 155.46875 125 155.273438 C 124.609375 155.273438 124.414062 155.078125 123.828125 155.078125 C 123.242188 154.882812 123.046875 155.273438 122.460938 155.273438 C 122.070312 155.46875 121.875 155.46875 121.484375 155.46875 M 126.5625 157.8125 C 126.367188 157.8125 125.195312 158.007812 124.804688 157.8125 C 124.21875 157.617188 124.023438 157.421875 123.632812 157.03125 C 123.4375 156.835938 123.632812 157.617188 123.632812 158.007812 C 123.632812 158.59375 123.4375 158.59375 123.046875 158.984375 C 122.65625 159.179688 122.265625 159.570312 121.875 159.765625 C 121.679688 159.960938 121.289062 160.15625 120.703125 160.15625 C 120.507812 160.351562 119.921875 160.546875 119.726562 160.742188 C 119.335938 160.9375 119.335938 161.328125 119.140625 161.71875 C 119.140625 162.304688 119.140625 162.5 119.53125 162.890625 C 119.726562 163.28125 120.117188 163.671875 120.3125 163.867188 C 120.507812 164.257812 120.898438 164.648438 120.117188 164.648438 C 119.726562 164.84375 119.53125 164.648438 119.140625 164.648438 M 118.75 165.429688 C 118.554688 165.429688 117.382812 165.039062 116.992188 164.84375 L 115.234375 164.84375 C 114.648438 165.039062 114.453125 165.234375 113.867188 165.429688 C 113.476562 165.625 113.28125 165.820312 112.695312 166.210938 C 112.5 166.40625 111.914062 166.992188 111.71875 167.382812 C 111.71875 167.773438 111.523438 168.164062 111.523438 168.75 C 111.523438 169.335938 111.71875 169.53125 111.71875 170.117188 C 111.914062 170.507812 112.109375 170.898438 112.5 171.289062 C 112.5 171.484375 112.695312 171.484375 112.695312 171.484375 M 112.890625 173.046875 C 112.890625 173.046875 112.695312 173.242188 112.695312 173.4375 C 112.304688 173.828125 112.109375 174.023438 111.523438 174.023438 C 110.9375 174.023438 111.132812 173.828125 110.742188 173.632812 C 110.546875 173.242188 110.351562 173.046875 110.15625 172.65625 C 109.960938 172.460938 109.765625 172.265625 109.570312 171.875 C 109.375 171.679688 109.179688 171.484375 109.179688 171.289062 C 108.984375 171.289062 108.789062 171.09375 108.59375 171.09375 C 109.179688 171.09375 109.179688 171.289062 109.570312 171.679688 C 109.765625 171.875 109.765625 172.070312 109.960938 172.460938 C 109.960938 172.851562 110.15625 173.046875 110.15625 173.4375 C 110.15625 174.023438 110.15625 174.414062 109.960938 174.804688 C 109.765625 175 109.570312 175.195312 109.375 175.390625 C 109.179688 175.585938 108.984375 175.78125 108.789062 175.976562 C 108.398438 176.171875 108.203125 176.367188 108.007812 176.5625 C 107.617188 176.757812 107.421875 176.757812 107.03125 176.953125 C 106.445312 176.757812 106.25 176.757812 106.054688 176.5625 C 105.664062 176.367188 105.273438 176.171875 105.078125 175.976562 C 104.882812 175.78125 104.6875 175.390625 104.492188 175.195312 C 103.90625 175.195312 103.710938 175.195312 103.515625 175.390625 C 103.125 175.585938 102.929688 175.78125 102.734375 175.976562 C 102.734375 176.171875 102.34375 176.367188 102.34375 176.367188 M 103.320312 176.5625 C 103.515625 176.5625 103.90625 176.953125 104.101562 177.148438 C 104.296875 177.539062 104.492188 177.734375 104.6875 178.320312 C 104.6875 178.710938 104.6875 179.296875 104.6875 179.882812 C 104.6875 180.273438 104.296875 180.664062 104.101562 181.25 C 103.90625 181.445312 103.710938 181.640625 103.125 181.835938 C 102.734375 181.835938 102.34375 182.03125 101.757812 182.03125 C 101.367188 182.03125 100.78125 182.03125 100.585938 182.03125 C 100 181.835938 99.609375 181.640625 99.21875 181.445312 C 98.828125 181.25 98.632812 181.054688 98.242188 180.859375 C 98.046875 180.46875 97.65625 180.273438 97.265625 179.882812 C 97.070312 179.492188 96.875 179.296875 96.679688 178.90625 C 96.875 179.296875 97.070312 179.882812 97.265625 180.273438 C 97.460938 180.664062 97.65625 180.859375 97.65625 181.445312 C 97.851562 181.835938 97.851562 182.421875 97.851562 182.8125 C 97.65625 183.203125 97.65625 183.984375 97.460938 184.179688 L 97.460938 184.570312 M 87.304688 186.132812 L 87.304688 186.328125 C 87.304688 185.9375 87.304688 186.132812 87.5 186.914062 C 87.695312 187.304688 88.476562 187.5 89.257812 187.304688 C 89.648438 186.914062 89.648438 186.523438 90.820312 186.328125 C 91.796875 186.523438 92.1875 186.71875 92.578125 186.914062 C 93.359375 187.304688 93.554688 187.5 94.140625 188.085938 C 94.335938 188.671875 94.335938 189.0625 93.75 189.257812 C 93.164062 189.453125 92.578125 189.648438 91.796875 189.84375 C 91.015625 189.84375 90.429688 189.648438 90.039062 190.039062 C 89.453125 190.625 89.453125 191.015625 89.453125 191.796875 C 89.257812 192.1875 89.257812 192.96875 89.257812 193.164062 C 88.671875 193.359375 88.476562 193.554688 87.5 193.554688 C 87.5 193.164062 87.109375 192.1875 87.109375 191.601562 C 86.914062 191.210938 86.914062 190.429688 86.523438 190.039062 C 86.132812 189.453125 85.742188 189.257812 85.351562 188.867188 C 85.15625 188.671875 84.765625 188.476562 84.179688 188.28125 C 84.960938 188.476562 84.960938 188.867188 85.15625 189.648438 C 84.570312 189.84375 84.375 190.039062 83.398438 190.039062 C 82.421875 190.039062 82.226562 189.84375 81.835938 189.257812 C 81.835938 190.039062 81.445312 190.429688 81.25 191.015625 C 80.859375 191.601562 80.859375 191.992188 80.46875 192.578125 C 80.664062 193.359375 80.859375 193.359375 80.859375 194.335938 C 81.25 194.921875 81.054688 195.507812 81.640625 195.898438 C 81.835938 196.09375 82.03125 196.09375 82.617188 196.289062 C 81.445312 196.289062 80.859375 196.09375 80.273438 195.703125 C 79.6875 195.507812 79.296875 195.117188 78.90625 194.726562 C 78.320312 194.335938 77.539062 193.945312 76.757812 193.945312 C 75.976562 193.945312 75.390625 193.75 75 194.140625 C 74.414062 194.53125 74.21875 195.117188 74.023438 195.703125 C 73.828125 196.484375 73.632812 197.070312 74.21875 197.65625 C 74.414062 198.242188 74.414062 198.4375 74.21875 199.21875 C 73.632812 199.609375 73.046875 199.804688 72.265625 200 C 71.679688 200 71.09375 199.804688 70.507812 199.609375 " transform="matrix(0.02,0,0,0.02,0,0)"/>
<path style="fill-rule:evenodd;fill:rgb(100%,100%,100%);fill-opacity:1;stroke-width:0.447;stroke-linecap:butt;stroke-linejoin:miter;stroke:rgb(85.882353%,8.627451%,10.588235%);stroke-opacity:1;stroke-miterlimit:4;" d="M 181.445312 104.6875 C 202.734375 67.773438 216.992188 36.523438 213.085938 34.570312 C 209.179688 32.8125 188.671875 61.328125 167.382812 98.242188 Z M 181.445312 104.6875 " transform="matrix(0.02,0,0,0.02,0,0)"/>
<path style="fill-rule:evenodd;fill:rgb(100%,100%,100%);fill-opacity:1;stroke-width:0.393;stroke-linecap:butt;stroke-linejoin:miter;stroke:rgb(85.882353%,8.627451%,10.588235%);stroke-opacity:1;stroke-miterlimit:4;" d="M 180.078125 104.101562 C 200.585938 68.359375 214.84375 38.476562 211.71875 36.914062 C 208.59375 35.546875 189.257812 63.28125 168.75 98.828125 " transform="matrix(0.02,0,0,0.02,0,0)"/>
<path style="fill-rule:evenodd;fill:rgb(100%,100%,100%);fill-opacity:1;stroke-width:0.446;stroke-linecap:butt;stroke-linejoin:miter;stroke:rgb(85.882353%,8.627451%,10.588235%);stroke-opacity:1;stroke-miterlimit:4;" d="M 176.367188 85.546875 C 174.023438 89.648438 171.289062 94.335938 168.75 98.828125 L 180.078125 104.101562 C 182.617188 99.609375 185.351562 94.921875 187.695312 90.625 Z M 176.367188 85.546875 " transform="matrix(0.02,0,0,0.02,0,0)"/>
<path style="fill-rule:evenodd;fill:rgb(100%,100%,100%);fill-opacity:1;stroke-width:0.446;stroke-linecap:butt;stroke-linejoin:miter;stroke:rgb(85.882353%,8.627451%,10.588235%);stroke-opacity:1;stroke-miterlimit:4;" d="M 177.34375 86.914062 C 175 91.015625 173.242188 94.140625 170.507812 98.632812 L 179.101562 102.539062 C 181.640625 98.046875 183.59375 94.921875 185.9375 90.820312 Z M 177.34375 86.914062 " transform="matrix(0.02,0,0,0.02,0,0)"/>
<path style="fill-rule:nonzero;fill:rgb(100%,100%,100%);fill-opacity:1;stroke-width:0.447;stroke-linecap:butt;stroke-linejoin:miter;stroke:rgb(85.882353%,8.627451%,10.588235%);stroke-opacity:1;stroke-miterlimit:4;" d="M -205.776689 6.61812 L -199.477425 6.503037 L -199.390561 16.476552 L -205.689825 16.591635 Z M -205.776689 6.61812 " transform="matrix(-0.0181664,-0.0083654,-0.010025,0.017306,0,0)"/>
<path style="fill-rule:evenodd;fill:rgb(100%,100%,100%);fill-opacity:1;stroke-width:0.446;stroke-linecap:butt;stroke-linejoin:miter;stroke:rgb(85.882353%,8.627451%,10.588235%);stroke-opacity:1;stroke-miterlimit:4;" d="M 183.59375 91.796875 L 172.851562 97.851562 M 178.515625 100.390625 L 177.929688 89.0625 M 208.984375 47.65625 L 203.320312 45.117188 " transform="matrix(0.02,0,0,0.02,0,0)"/>
<path style="fill-rule:nonzero;fill:rgb(85.882353%,8.627451%,10.588235%);fill-opacity:1;stroke-width:1.333;stroke-linecap:butt;stroke-linejoin:miter;stroke:rgb(85.882353%,8.627451%,10.588235%);stroke-opacity:1;stroke-miterlimit:4;" d="M 549.285076 91.901019 C 549.296993 93.881117 547.569821 95.865155 545.830733 95.869096 C 543.578046 95.524768 541.932144 94.014285 541.920227 92.034187 C 541.908311 90.05409 543.740585 88.535724 545.479674 88.531783 C 547.627258 88.410438 549.27316 89.920921 549.285076 91.901019 Z M 549.285076 91.901019 " transform="matrix(-0.00898,0.002264,0.0020268,0.0078774,8.88694,-1.11596)"/>
<path style="fill-rule:evenodd;fill:rgb(100%,100%,100%);fill-opacity:1;stroke-width:0.565;stroke-linecap:butt;stroke-linejoin:miter;stroke:rgb(85.882353%,8.627451%,10.588235%);stroke-opacity:1;stroke-miterlimit:4;" d="M 126.5625 147.070312 C 78.320312 194.140625 57.8125 200.195312 67.578125 203.90625 C 77.148438 207.617188 108.203125 183.398438 140.429688 151.171875 C 172.65625 118.945312 192.382812 90.234375 182.617188 86.328125 C 173.046875 82.617188 177.734375 97.070312 126.5625 147.070312 Z M 126.5625 147.070312 " transform="matrix(-0.02,0,0,0.02,6,0)"/>
<path style="fill-rule:evenodd;fill:rgb(100%,100%,100%);fill-opacity:1;stroke-width:0.33;stroke-linecap:butt;stroke-linejoin:miter;stroke:rgb(85.882353%,8.627451%,10.588235%);stroke-opacity:1;stroke-miterlimit:4;" d="M 85.9375 181.25 L 102.929688 185.742188 C 86.914062 200.78125 69.140625 207.03125 64.257812 204.296875 C 59.179688 201.5625 73.046875 195.507812 85.9375 181.25 Z M 85.9375 181.25 " transform="matrix(-0.02,0,0,0.02,6,0)"/>
<path style="fill-rule:evenodd;fill:rgb(100%,100%,100%);fill-opacity:1;stroke-width:0.33;stroke-linecap:butt;stroke-linejoin:miter;stroke:rgb(85.882353%,8.627451%,10.588235%);stroke-opacity:1;stroke-miterlimit:4;" d="M 85.9375 183.007812 L 99.804688 186.523438 C 84.375 200.976562 69.140625 205.273438 65.234375 203.515625 C 61.132812 201.5625 73.4375 196.679688 85.9375 183.007812 Z M 85.9375 183.007812 " transform="matrix(-0.02,0,0,0.02,6,0)"/>
<path style="fill:none;stroke-width:0.33;stroke-linecap:butt;stroke-linejoin:miter;stroke:rgb(85.882353%,8.627451%,10.588235%);stroke-opacity:1;stroke-miterlimit:4;" d="M 137.695312 145.117188 C 137.695312 145.3125 137.695312 146.289062 137.5 146.679688 C 137.5 147.265625 137.5 147.65625 137.5 148.046875 C 137.304688 148.4375 137.304688 148.828125 136.71875 149.023438 C 136.523438 149.414062 136.328125 149.609375 135.742188 149.804688 C 135.546875 150 135.15625 150.195312 134.570312 150.390625 C 134.179688 150.585938 133.59375 150.585938 133.203125 150.585938 C 132.617188 150.195312 132.421875 150 132.03125 149.804688 C 131.835938 149.414062 131.835938 148.828125 131.835938 148.632812 C 131.835938 148.828125 132.03125 149.414062 132.03125 150 C 132.03125 150.585938 131.835938 150.78125 131.445312 151.171875 M 133.203125 152.34375 C 133.398438 152.539062 133.203125 152.34375 132.617188 151.953125 C 132.226562 151.757812 131.640625 151.757812 131.054688 151.5625 L 129.296875 151.5625 C 128.710938 151.5625 128.125 151.757812 127.734375 151.757812 C 127.34375 152.148438 126.757812 152.34375 126.367188 152.539062 C 126.171875 152.734375 125.976562 153.125 125.78125 153.515625 C 125.390625 153.710938 125.195312 154.296875 124.804688 154.492188 C 124.804688 154.882812 124.414062 154.882812 124.21875 155.273438 C 124.804688 155.273438 125.195312 155.46875 125.585938 155.664062 C 126.171875 156.054688 125.195312 155.46875 125 155.273438 C 124.609375 155.273438 124.414062 155.078125 123.828125 155.078125 C 123.242188 154.882812 123.046875 155.273438 122.460938 155.273438 C 122.070312 155.46875 121.875 155.46875 121.484375 155.46875 M 126.5625 157.8125 C 126.367188 157.8125 125.195312 158.007812 124.804688 157.8125 C 124.21875 157.617188 124.023438 157.421875 123.632812 157.03125 C 123.4375 156.835938 123.632812 157.617188 123.632812 158.007812 C 123.632812 158.59375 123.4375 158.59375 123.046875 158.984375 C 122.65625 159.179688 122.265625 159.570312 121.875 159.765625 C 121.679688 159.960938 121.289062 160.15625 120.703125 160.15625 C 120.507812 160.351562 119.921875 160.546875 119.726562 160.742188 C 119.335938 160.9375 119.335938 161.328125 119.140625 161.71875 C 119.140625 162.304688 119.140625 162.5 119.53125 162.890625 C 119.726562 163.28125 120.117188 163.671875 120.3125 163.867188 C 120.507812 164.257812 120.898438 164.648438 120.117188 164.648438 C 119.726562 164.84375 119.53125 164.648438 119.140625 164.648438 M 118.75 165.429688 C 118.554688 165.429688 117.382812 165.039062 116.992188 164.84375 L 115.234375 164.84375 C 114.648438 165.039062 114.453125 165.234375 113.867188 165.429688 C 113.476562 165.625 113.28125 165.820312 112.695312 166.210938 C 112.5 166.40625 111.914062 166.992188 111.71875 167.382812 C 111.71875 167.773438 111.523438 168.164062 111.523438 168.75 C 111.523438 169.335938 111.71875 169.53125 111.71875 170.117188 C 111.914062 170.507812 112.109375 170.898438 112.5 171.289062 C 112.5 171.484375 112.695312 171.484375 112.695312 171.484375 M 112.890625 173.046875 C 112.890625 173.046875 112.695312 173.242188 112.695312 173.4375 C 112.304688 173.828125 112.109375 174.023438 111.523438 174.023438 C 110.9375 174.023438 111.132812 173.828125 110.742188 173.632812 C 110.546875 173.242188 110.351562 173.046875 110.15625 172.65625 C 109.960938 172.460938 109.765625 172.265625 109.570312 171.875 C 109.375 171.679688 109.179688 171.484375 109.179688 171.289062 C 108.984375 171.289062 108.789062 171.09375 108.59375 171.09375 C 109.179688 171.09375 109.179688 171.289062 109.570312 171.679688 C 109.765625 171.875 109.765625 172.070312 109.960938 172.460938 C 109.960938 172.851562 110.15625 173.046875 110.15625 173.4375 C 110.15625 174.023438 110.15625 174.414062 109.960938 174.804688 C 109.765625 175 109.570312 175.195312 109.375 175.390625 C 109.179688 175.585938 108.984375 175.78125 108.789062 175.976562 C 108.398438 176.171875 108.203125 176.367188 108.007812 176.5625 C 107.617188 176.757812 107.421875 176.757812 107.03125 176.953125 C 106.445312 176.757812 106.25 176.757812 106.054688 176.5625 C 105.664062 176.367188 105.273438 176.171875 105.078125 175.976562 C 104.882812 175.78125 104.6875 175.390625 104.492188 175.195312 C 103.90625 175.195312 103.710938 175.195312 103.515625 175.390625 C 103.125 175.585938 102.929688 175.78125 102.734375 175.976562 C 102.734375 176.171875 102.34375 176.367188 102.34375 176.367188 M 103.320312 176.5625 C 103.515625 176.5625 103.90625 176.953125 104.101562 177.148438 C 104.296875 177.539062 104.492188 177.734375 104.6875 178.320312 C 104.6875 178.710938 104.6875 179.296875 104.6875 179.882812 C 104.6875 180.273438 104.296875 180.664062 104.101562 181.25 C 103.90625 181.445312 103.710938 181.640625 103.125 181.835938 C 102.734375 181.835938 102.34375 182.03125 101.757812 182.03125 C 101.367188 182.03125 100.78125 182.03125 100.585938 182.03125 C 100 181.835938 99.609375 181.640625 99.21875 181.445312 C 98.828125 181.25 98.632812 181.054688 98.242188 180.859375 C 98.046875 180.46875 97.65625 180.273438 97.265625 179.882812 C 97.070312 179.492188 96.875 179.296875 96.679688 178.90625 C 96.875 179.296875 97.070312 179.882812 97.265625 180.273438 C 97.460938 180.664062 97.65625 180.859375 97.65625 181.445312 C 97.851562 181.835938 97.851562 182.421875 97.851562 182.8125 C 97.65625 183.203125 97.65625 183.984375 97.460938 184.179688 L 97.460938 184.570312 M 87.304688 186.132812 L 87.304688 186.328125 C 87.304688 185.9375 87.304688 186.132812 87.5 186.914062 C 87.695312 187.304688 88.476562 187.5 89.257812 187.304688 C 89.648438 186.914062 89.648438 186.523438 90.820312 186.328125 C 91.796875 186.523438 92.1875 186.71875 92.578125 186.914062 C 93.359375 187.304688 93.554688 187.5 94.140625 188.085938 C 94.335938 188.671875 94.335938 189.0625 93.75 189.257812 C 93.164062 189.453125 92.578125 189.648438 91.796875 189.84375 C 91.015625 189.84375 90.429688 189.648438 90.039062 190.039062 C 89.453125 190.625 89.453125 191.015625 89.453125 191.796875 C 89.257812 192.1875 89.257812 192.96875 89.257812 193.164062 C 88.671875 193.359375 88.476562 193.554688 87.5 193.554688 C 87.5 193.164062 87.109375 192.1875 87.109375 191.601562 C 86.914062 191.210938 86.914062 190.429688 86.523438 190.039062 C 86.132812 189.453125 85.742188 189.257812 85.351562 188.867188 C 85.15625 188.671875 84.765625 188.476562 84.179688 188.28125 C 84.960938 188.476562 84.960938 188.867188 85.15625 189.648438 C 84.570312 189.84375 84.375 190.039062 83.398438 190.039062 C 82.421875 190.039062 82.226562 189.84375 81.835938 189.257812 C 81.835938 190.039062 81.445312 190.429688 81.25 191.015625 C 80.859375 191.601562 80.859375 191.992188 80.46875 192.578125 C 80.664062 193.359375 80.859375 193.359375 80.859375 194.335938 C 81.25 194.921875 81.054688 195.507812 81.640625 195.898438 C 81.835938 196.09375 82.03125 196.09375 82.617188 196.289062 C 81.445312 196.289062 80.859375 196.09375 80.273438 195.703125 C 79.6875 195.507812 79.296875 195.117188 78.90625 194.726562 C 78.320312 194.335938 77.539062 193.945312 76.757812 193.945312 C 75.976562 193.945312 75.390625 193.75 75 194.140625 C 74.414062 194.53125 74.21875 195.117188 74.023438 195.703125 C 73.828125 196.484375 73.632812 197.070312 74.21875 197.65625 C 74.414062 198.242188 74.414062 198.4375 74.21875 199.21875 C 73.632812 199.609375 73.046875 199.804688 72.265625 200 C 71.679688 200 71.09375 199.804688 70.507812 199.609375 " transform="matrix(-0.02,0,0,0.02,6,0)"/>
<path style="fill-rule:evenodd;fill:rgb(100%,100%,100%);fill-opacity:1;stroke-width:0.447;stroke-linecap:butt;stroke-linejoin:miter;stroke:rgb(85.882353%,8.627451%,10.588235%);stroke-opacity:1;stroke-miterlimit:4;" d="M 181.445312 104.6875 C 202.734375 67.773438 216.992188 36.523438 213.085938 34.570312 C 209.179688 32.8125 188.671875 61.328125 167.382812 98.242188 Z M 181.445312 104.6875 " transform="matrix(-0.02,0,0,0.02,6,0)"/>
<path style="fill-rule:evenodd;fill:rgb(100%,100%,100%);fill-opacity:1;stroke-width:0.393;stroke-linecap:butt;stroke-linejoin:miter;stroke:rgb(85.882353%,8.627451%,10.588235%);stroke-opacity:1;stroke-miterlimit:4;" d="M 180.078125 104.101562 C 200.585938 68.359375 214.84375 38.476562 211.71875 36.914062 C 208.59375 35.546875 189.257812 63.28125 168.75 98.828125 " transform="matrix(-0.02,0,0,0.02,6,0)"/>
<path style="fill-rule:evenodd;fill:rgb(100%,100%,100%);fill-opacity:1;stroke-width:0.446;stroke-linecap:butt;stroke-linejoin:miter;stroke:rgb(85.882353%,8.627451%,10.588235%);stroke-opacity:1;stroke-miterlimit:4;" d="M 176.367188 85.546875 C 174.023438 89.648438 171.289062 94.335938 168.75 98.828125 L 180.078125 104.101562 C 182.617188 99.609375 185.351562 94.921875 187.695312 90.625 Z M 176.367188 85.546875 " transform="matrix(-0.02,0,0,0.02,6,0)"/>
<path style="fill-rule:evenodd;fill:rgb(100%,100%,100%);fill-opacity:1;stroke-width:0.446;stroke-linecap:butt;stroke-linejoin:miter;stroke:rgb(85.882353%,8.627451%,10.588235%);stroke-opacity:1;stroke-miterlimit:4;" d="M 177.34375 86.914062 C 175 91.015625 173.242188 94.140625 170.507812 98.632812 L 179.101562 102.539062 C 181.640625 98.046875 183.59375 94.921875 185.9375 90.820312 Z M 177.34375 86.914062 " transform="matrix(-0.02,0,0,0.02,6,0)"/>
<path style="fill-rule:nonzero;fill:rgb(100%,100%,100%);fill-opacity:1;stroke-width:0.447;stroke-linecap:butt;stroke-linejoin:miter;stroke:rgb(85.882353%,8.627451%,10.588235%);stroke-opacity:1;stroke-miterlimit:4;" d="M -205.776689 6.61812 L -199.477425 6.503037 L -199.390561 16.476552 L -205.689825 16.591635 Z M -205.776689 6.61812 " transform="matrix(0.0181664,-0.0083654,0.010025,0.017306,6,0)"/>
<path style="fill-rule:evenodd;fill:rgb(100%,100%,100%);fill-opacity:1;stroke-width:0.446;stroke-linecap:butt;stroke-linejoin:miter;stroke:rgb(85.882353%,8.627451%,10.588235%);stroke-opacity:1;stroke-miterlimit:4;" d="M 183.59375 91.796875 L 172.851562 97.851562 M 178.515625 100.390625 L 177.929688 89.0625 M 208.984375 47.65625 L 203.320312 45.117188 " transform="matrix(-0.02,0,0,0.02,6,0)"/>
<path style="fill-rule:nonzero;fill:rgb(85.882353%,8.627451%,10.588235%);fill-opacity:1;stroke-width:1.333;stroke-linecap:butt;stroke-linejoin:miter;stroke:rgb(85.882353%,8.627451%,10.588235%);stroke-opacity:1;stroke-miterlimit:4;" d="M 549.285076 91.901019 C 549.296993 93.881117 547.569821 95.865155 545.830733 95.869096 C 543.578046 95.524768 541.932144 94.014285 541.920227 92.034187 C 541.908311 90.05409 543.740585 88.535724 545.479674 88.531783 C 547.627258 88.410438 549.27316 89.920921 549.285076 91.901019 Z M 549.285076 91.901019 " transform="matrix(0.00898,0.002264,-0.0020268,0.0078774,-2.88694,-1.11596)"/>
<path style="fill-rule:evenodd;fill:rgb(100%,100%,100%);fill-opacity:1;stroke-width:0.407;stroke-linecap:butt;stroke-linejoin:miter;stroke:rgb(85.882353%,8.627451%,10.588235%);stroke-opacity:1;stroke-miterlimit:4;" d="M 135.351562 84.960938 C 135.351562 115.820312 135.351562 127.539062 133.203125 129.101562 C 131.054688 130.859375 70.898438 129.101562 70.898438 138.085938 C 70.898438 146.875 120.3125 155.664062 135.351562 155.664062 C 155.078125 155.664062 165.039062 146.875 165.039062 129.101562 L 165.039062 84.960938 Z M 135.351562 84.960938 " transform="matrix(0.02,0,0,0.02,0,0)"/>
<path style="fill-rule:evenodd;fill:rgb(100%,100%,100%);fill-opacity:1;stroke-width:0.352;stroke-linecap:butt;stroke-linejoin:miter;stroke:rgb(85.882353%,8.627451%,10.588235%);stroke-opacity:1;stroke-miterlimit:4;" d="M 135.351562 93.75 L 135.351562 98.242188 C 145.117188 99.609375 155.078125 99.609375 165.039062 98.242188 L 165.039062 93.75 C 155.078125 95.3125 145.117188 95.3125 135.351562 93.75 Z M 135.351562 84.960938 L 135.351562 89.453125 C 145.117188 90.820312 155.078125 90.820312 165.039062 89.453125 L 165.039062 84.960938 C 155.078125 86.523438 145.117188 86.523438 135.351562 84.960938 Z M 135.351562 84.960938 " transform="matrix(0.02,0,0,0.02,0,0)"/>
<path style="fill-rule:evenodd;fill:rgb(100%,100%,100%);fill-opacity:1;stroke-width:0.352;stroke-linecap:butt;stroke-linejoin:miter;stroke:rgb(85.882353%,8.627451%,10.588235%);stroke-opacity:1;stroke-miterlimit:4;" d="M 135.351562 89.453125 L 135.351562 93.75 C 145.117188 95.3125 155.078125 95.3125 165.039062 93.75 L 165.039062 89.453125 C 155.078125 90.820312 145.117188 90.820312 135.351562 89.453125 Z M 135.351562 98.242188 L 135.351562 102.734375 C 145.117188 104.101562 155.078125 104.101562 165.039062 102.734375 L 165.039062 98.242188 C 155.078125 99.609375 145.117188 99.609375 135.351562 98.242188 Z M 135.351562 98.242188 " transform="matrix(0.02,0,0,0.02,0,0)"/>
<path style="fill-rule:nonzero;fill:rgb(100%,100%,100%);fill-opacity:1;stroke-width:4.463;stroke-linecap:butt;stroke-linejoin:miter;stroke:rgb(85.882353%,8.627451%,10.588235%);stroke-opacity:1;stroke-miterlimit:4;" d="M 265.266494 208.218367 C 265.266494 197.331382 261.427554 186.444398 256.308966 186.444398 C 252.470026 186.444398 248.631085 197.331382 248.631085 208.218367 C 248.631085 224.548843 252.470026 235.435828 256.308966 235.435828 C 261.427554 235.435828 265.266494 224.548843 265.266494 208.218367 Z M 265.266494 208.218367 " transform="matrix(0.0030526,0,0,0.0007176,1.94806,1.68652)"/>
<path style="fill-rule:nonzero;fill:rgb(100%,100%,100%);fill-opacity:1;stroke-width:4.463;stroke-linecap:butt;stroke-linejoin:miter;stroke:rgb(85.882353%,8.627451%,10.588235%);stroke-opacity:1;stroke-miterlimit:4;" d="M 301.096606 246.733905 C 301.096606 230.403428 297.257666 219.516444 292.139078 219.516444 C 287.020491 219.516444 283.18155 230.403428 283.18155 246.733905 C 283.18155 263.064381 287.020491 273.951366 292.139078 273.951366 C 297.257666 273.951366 301.096606 263.064381 301.096606 246.733905 Z M 301.096606 246.733905 " transform="matrix(0.0030526,0,0,0.0007176,1.94806,1.6706)"/>
<path style="fill-rule:nonzero;fill:rgb(100%,100%,100%);fill-opacity:1;stroke-width:4.463;stroke-linecap:butt;stroke-linejoin:miter;stroke:rgb(85.882353%,8.627451%,10.588235%);stroke-opacity:1;stroke-miterlimit:4;" d="M 336.926718 262.024457 C 336.926718 251.137472 333.087778 234.806996 327.96919 234.806996 C 322.850603 234.806996 319.011662 251.137472 319.011662 262.024457 C 319.011662 278.354933 322.850603 289.241918 327.96919 289.241918 C 333.087778 289.241918 336.926718 278.354933 336.926718 262.024457 Z M 336.926718 262.024457 " transform="matrix(0.0030526,0,0,0.0007176,1.94806,1.66744)"/>
<path style="fill-rule:nonzero;fill:rgb(100%,100%,100%);fill-opacity:1;stroke-width:4.463;stroke-linecap:butt;stroke-linejoin:miter;stroke:rgb(85.882353%,8.627451%,10.588235%);stroke-opacity:1;stroke-miterlimit:4;" d="M 371.477183 262.024457 C 371.477183 251.137472 367.638243 234.806996 363.799302 234.806996 C 358.680715 234.806996 354.841774 251.137472 354.841774 262.024457 C 354.841774 278.354933 358.680715 289.241918 363.799302 289.241918 C 367.638243 289.241918 371.477183 278.354933 371.477183 262.024457 Z M 371.477183 262.024457 " transform="matrix(0.0030526,0,0,0.0007176,1.94806,1.66744)"/>
<path style="fill-rule:nonzero;fill:rgb(100%,100%,100%);fill-opacity:1;stroke-width:4.463;stroke-linecap:butt;stroke-linejoin:miter;stroke:rgb(85.882353%,8.627451%,10.588235%);stroke-opacity:1;stroke-miterlimit:4;" d="M 407.307295 246.733905 C 407.307295 230.403428 403.468355 219.516444 398.349767 219.516444 C 393.23118 219.516444 389.392239 230.403428 389.392239 246.733905 C 389.392239 263.064381 393.23118 273.951366 398.349767 273.951366 C 403.468355 273.951366 407.307295 263.064381 407.307295 246.733905 Z M 407.307295 246.733905 " transform="matrix(0.0030526,0,0,0.0007176,1.94806,1.6706)"/>
<path style="fill-rule:nonzero;fill:rgb(100%,100%,100%);fill-opacity:1;stroke-width:4.463;stroke-linecap:butt;stroke-linejoin:miter;stroke:rgb(85.882353%,8.627451%,10.588235%);stroke-opacity:1;stroke-miterlimit:4;" d="M 443.137407 208.218367 C 443.137407 197.331382 439.298467 186.444398 434.179879 186.444398 C 429.061292 186.444398 425.222351 197.331382 425.222351 208.218367 C 425.222351 224.548843 429.061292 235.435828 434.179879 235.435828 C 439.298467 235.435828 443.137407 224.548843 443.137407 208.218367 Z M 443.137407 208.218367 " transform="matrix(0.0030526,0,0,0.0007176,1.94806,1.68652)"/>
<path style="fill-rule:evenodd;fill:rgb(100%,100%,100%);fill-opacity:1;stroke-width:0.352;stroke-linecap:butt;stroke-linejoin:miter;stroke:rgb(85.882353%,8.627451%,10.588235%);stroke-opacity:1;stroke-miterlimit:4;" d="M 135.351562 107.03125 L 165.039062 130.859375 M 138.28125 107.03125 L 165.039062 128.320312 M 142.1875 108.007812 L 165.039062 125.585938 M 145.117188 108.007812 L 165.039062 123.046875 M 148.242188 108.007812 L 165.039062 120.3125 M 151.171875 108.007812 L 165.039062 117.578125 M 154.101562 108.007812 L 165.039062 115.039062 M 157.03125 108.007812 L 165.039062 113.28125 M 159.960938 108.007812 L 165.039062 111.523438 M 163.085938 108.007812 L 165.039062 109.765625 M 135.351562 109.765625 L 165.039062 133.59375 M 165.039062 107.03125 L 132.226562 133.59375 M 162.109375 107.03125 L 133.203125 130.078125 M 158.007812 108.007812 L 135.351562 125.585938 M 155.078125 108.007812 L 135.351562 123.046875 M 152.148438 108.007812 L 135.351562 120.3125 M 149.21875 108.007812 L 135.351562 117.578125 M 146.09375 108.007812 L 135.351562 115.039062 M 143.164062 108.007812 L 135.351562 113.28125 M 140.234375 108.007812 L 135.351562 111.523438 M 137.304688 108.007812 L 135.351562 109.765625 M 165.039062 109.765625 L 132.226562 136.132812 M 165.039062 112.304688 L 132.226562 138.867188 M 165.039062 115.039062 L 132.226562 141.601562 M 165.039062 117.578125 L 132.226562 144.140625 M 165.039062 120.3125 L 132.226562 146.875 M 165.039062 123.046875 L 132.226562 149.414062 M 165.039062 125.585938 L 132.226562 152.148438 M 165.039062 128.320312 L 132.226562 154.882812 M 165.039062 130.859375 L 134.179688 155.664062 M 165.039062 133.59375 L 137.304688 155.664062 M 164.0625 137.109375 L 142.1875 154.882812 M 163.085938 140.625 L 145.117188 154.882812 M 161.132812 145.117188 L 152.148438 152.148438 M 135.351562 112.304688 L 164.0625 135.351562 M 135.351562 115.039062 L 164.0625 138.085938 M 135.351562 117.578125 L 163.085938 139.84375 M 135.351562 120.3125 L 163.085938 142.382812 M 135.351562 123.046875 L 162.109375 144.140625 M 134.179688 124.804688 L 161.132812 145.898438 M 134.179688 127.34375 L 158.984375 146.875 M 133.203125 129.101562 L 158.007812 148.632812 M 132.226562 130.859375 L 156.054688 149.414062 M 132.226562 133.59375 L 155.078125 151.171875 M 132.226562 136.132812 L 152.148438 152.148438 M 135.351562 102.734375 L 135.351562 107.03125 C 145.117188 108.59375 155.078125 108.59375 165.039062 107.03125 L 165.039062 102.734375 C 155.078125 104.101562 145.117188 104.101562 135.351562 102.734375 Z M 132.226562 138.867188 L 150.195312 153.125 M 132.226562 141.601562 L 148.242188 153.90625 M 132.226562 144.140625 L 146.09375 154.882812 M 132.226562 146.875 L 142.1875 154.882812 M 132.226562 149.414062 L 140.234375 155.664062 M 132.226562 152.148438 L 137.304688 155.664062 " transform="matrix(0.02,0,0,0.02,0,0)"/>
<path style="fill-rule:nonzero;fill:rgb(100%,100%,100%);fill-opacity:1;stroke-width:4.463;stroke-linecap:butt;stroke-linejoin:miter;stroke:rgb(85.882353%,8.627451%,10.588235%);stroke-opacity:1;stroke-miterlimit:4;" d="M 265.266494 208.810619 C 265.266494 197.923634 261.427554 181.593158 256.308966 181.593158 C 252.470026 181.593158 248.631085 197.923634 248.631085 208.810619 C 248.631085 225.141095 252.470026 236.02808 256.308966 236.02808 C 261.427554 236.02808 265.266494 225.141095 265.266494 208.810619 Z M 265.266494 208.810619 " transform="matrix(0.0030526,0,0,0.0007176,1.94806,1.95172)"/>
<path style="fill-rule:nonzero;fill:rgb(100%,100%,100%);fill-opacity:1;stroke-width:4.463;stroke-linecap:butt;stroke-linejoin:miter;stroke:rgb(85.882353%,8.627451%,10.588235%);stroke-opacity:1;stroke-miterlimit:4;" d="M 301.096606 247.298286 C 301.096606 230.967809 297.257666 220.080825 292.139078 220.080825 C 287.020491 220.080825 283.18155 230.967809 283.18155 247.298286 C 283.18155 263.628763 287.020491 274.515747 292.139078 274.515747 C 297.257666 274.515747 301.096606 263.628763 301.096606 247.298286 Z M 301.096606 247.298286 " transform="matrix(0.0030526,0,0,0.0007176,1.94806,1.93582)"/>
<path style="fill-rule:nonzero;fill:rgb(100%,100%,100%);fill-opacity:1;stroke-width:4.463;stroke-linecap:butt;stroke-linejoin:miter;stroke:rgb(85.882353%,8.627451%,10.588235%);stroke-opacity:1;stroke-miterlimit:4;" d="M 336.926718 262.616708 C 336.926718 251.729724 333.087778 235.399247 327.96919 235.399247 C 322.850603 235.399247 319.011662 251.729724 319.011662 262.616708 C 319.011662 278.947185 322.850603 289.834169 327.96919 289.834169 C 333.087778 289.834169 336.926718 278.947185 336.926718 262.616708 Z M 336.926718 262.616708 " transform="matrix(0.0030526,0,0,0.0007176,1.94806,1.93264)"/>
<path style="fill-rule:nonzero;fill:rgb(100%,100%,100%);fill-opacity:1;stroke-width:4.463;stroke-linecap:butt;stroke-linejoin:miter;stroke:rgb(85.882353%,8.627451%,10.588235%);stroke-opacity:1;stroke-miterlimit:4;" d="M 371.477183 262.616708 C 371.477183 251.729724 367.638243 235.399247 363.799302 235.399247 C 358.680715 235.399247 354.841774 251.729724 354.841774 262.616708 C 354.841774 278.947185 358.680715 289.834169 363.799302 289.834169 C 367.638243 289.834169 371.477183 278.947185 371.477183 262.616708 Z M 371.477183 262.616708 " transform="matrix(0.0030526,0,0,0.0007176,1.94806,1.93264)"/>
<path style="fill-rule:nonzero;fill:rgb(100%,100%,100%);fill-opacity:1;stroke-width:4.463;stroke-linecap:butt;stroke-linejoin:miter;stroke:rgb(85.882353%,8.627451%,10.588235%);stroke-opacity:1;stroke-miterlimit:4;" d="M 407.307295 247.298286 C 407.307295 230.967809 403.468355 220.080825 398.349767 220.080825 C 393.23118 220.080825 389.392239 230.967809 389.392239 247.298286 C 389.392239 263.628763 393.23118 274.515747 398.349767 274.515747 C 403.468355 274.515747 407.307295 263.628763 407.307295 247.298286 Z M 407.307295 247.298286 " transform="matrix(0.0030526,0,0,0.0007176,1.94806,1.93582)"/>
<path style="fill-rule:nonzero;fill:rgb(100%,100%,100%);fill-opacity:1;stroke-width:4.463;stroke-linecap:butt;stroke-linejoin:miter;stroke:rgb(85.882353%,8.627451%,10.588235%);stroke-opacity:1;stroke-miterlimit:4;" d="M 443.137407 208.810619 C 443.137407 197.923634 439.298467 181.593158 434.179879 181.593158 C 429.061292 181.593158 425.222351 197.923634 425.222351 208.810619 C 425.222351 225.141095 429.061292 236.02808 434.179879 236.02808 C 439.298467 236.02808 443.137407 225.141095 443.137407 208.810619 Z M 443.137407 208.810619 " transform="matrix(0.0030526,0,0,0.0007176,1.94806,1.95172)"/>
<path style="fill-rule:evenodd;fill:rgb(100%,100%,100%);fill-opacity:1;stroke-width:0.352;stroke-linecap:butt;stroke-linejoin:miter;stroke:rgb(85.882353%,8.627451%,10.588235%);stroke-opacity:1;stroke-miterlimit:4;" d="M 92.578125 148.632812 L 128.320312 130.078125 M 90.625 147.65625 L 124.414062 130.078125 M 89.648438 145.898438 L 120.3125 130.078125 M 88.671875 144.140625 L 115.429688 130.078125 M 86.71875 142.382812 L 111.523438 130.078125 M 87.695312 139.84375 L 104.492188 130.859375 M 86.71875 138.085938 L 99.609375 130.859375 M 86.71875 135.351562 L 95.507812 130.859375 M 95.507812 149.414062 L 129.296875 131.835938 M 98.632812 150.390625 L 130.273438 133.59375 M 101.5625 151.171875 L 131.25 135.351562 M 104.492188 152.148438 L 129.296875 138.867188 M 108.398438 152.148438 L 130.273438 140.625 M 111.523438 153.125 L 130.273438 143.359375 M 114.453125 153.90625 L 129.296875 145.898438 M 118.359375 153.90625 L 130.273438 147.65625 M 122.460938 154.882812 L 130.273438 150.390625 M 126.367188 154.882812 L 131.25 152.148438 M 133.203125 129.101562 L 128.320312 129.101562 C 126.757812 137.890625 126.757812 146.875 128.320312 155.664062 L 133.203125 155.664062 C 131.640625 146.875 131.640625 137.890625 133.203125 129.101562 Z M 74.804688 141.601562 L 86.71875 132.617188 M 74.804688 135.351562 L 86.71875 145.898438 " transform="matrix(0.02,0,0,0.02,0,0)"/>
<path style="fill-rule:evenodd;fill:rgb(100%,100%,100%);fill-opacity:1;stroke-width:0.251;stroke-linecap:butt;stroke-linejoin:miter;stroke:rgb(85.882353%,8.627451%,10.588235%);stroke-opacity:1;stroke-miterlimit:4;" d="M 92.578125 130.859375 L 86.71875 131.835938 C 85.351562 137.5 85.351562 142.1875 86.71875 147.65625 L 92.578125 149.414062 C 91.210938 143.945312 91.210938 136.523438 92.578125 130.859375 Z M 92.578125 130.859375 " transform="matrix(0.02,0,0,0.02,0,0)"/>
<path style="fill-rule:evenodd;fill:rgb(100%,100%,100%);fill-opacity:1;stroke-width:0.431;stroke-linecap:butt;stroke-linejoin:miter;stroke:rgb(85.882353%,8.627451%,10.588235%);stroke-opacity:1;stroke-miterlimit:4;" d="M 165.039062 86.71875 L 165.039062 82.226562 C 160.546875 82.226562 157.617188 79.6875 157.617188 76.953125 L 142.773438 76.953125 C 142.773438 79.6875 139.648438 82.226562 135.351562 82.226562 L 135.351562 86.71875 Z M 165.039062 86.71875 " transform="matrix(0.02,0,0,0.02,0,0)"/>
<path style="fill-rule:nonzero;fill:rgb(100%,100%,100%);fill-opacity:1;stroke-width:0.364;stroke-linecap:butt;stroke-linejoin:miter;stroke:rgb(85.882353%,8.627451%,10.588235%);stroke-opacity:1;stroke-miterlimit:4;" d="M 143.75 71.679688 L 156.445312 71.679688 L 156.445312 76.953125 L 143.75 76.953125 Z M 144.726562 66.40625 L 155.46875 66.40625 L 155.46875 71.679688 L 144.726562 71.679688 Z M 144.726562 61.132812 L 155.46875 61.132812 L 155.46875 66.40625 L 144.726562 66.40625 Z M 144.726562 61.132812 " transform="matrix(0.02,0,0,0.02,0,0)"/>
<path style="fill-rule:nonzero;fill:rgb(100%,100%,100%);fill-opacity:1;stroke-width:0.364;stroke-linecap:butt;stroke-linejoin:miter;stroke:rgb(85.882353%,8.627451%,10.588235%);stroke-opacity:1;stroke-miterlimit:4;" d="M 145.898438 54.101562 L 154.296875 54.101562 L 154.296875 61.132812 L 145.898438 61.132812 Z M 145.898438 54.101562 " transform="matrix(0.02,0,0,0.02,0,0)"/>
<path style="fill-rule:nonzero;fill:rgb(100%,100%,100%);fill-opacity:1;stroke-width:0.38;stroke-linecap:butt;stroke-linejoin:miter;stroke:rgb(85.882353%,8.627451%,10.588235%);stroke-opacity:1;stroke-miterlimit:4;" d="M 145.507812 47.851562 L 154.6875 47.851562 L 154.6875 54.101562 L 145.507812 54.101562 Z M 145.507812 47.851562 " transform="matrix(0.02,0,0,0.02,0,0)"/>
<path style="fill-rule:nonzero;fill:rgb(100%,100%,100%);fill-opacity:1;stroke-width:1.333;stroke-linecap:butt;stroke-linejoin:miter;stroke:rgb(85.882353%,8.627451%,10.588235%);stroke-opacity:1;stroke-miterlimit:4;" d="M 279.802272 160.850451 C 279.802272 142.845691 260.889732 127.189379 237.249058 127.189379 C 213.608383 127.189379 194.695843 142.845691 194.695843 160.850451 C 194.695843 179.638026 213.608383 194.511523 237.249058 194.511523 C 260.889732 194.511523 279.802272 179.638026 279.802272 160.850451 Z M 279.802272 160.850451 " transform="matrix(0.0057832,0,0,0.00499,1.63966,0.0372)"/>
<path style="fill-rule:evenodd;fill:rgb(100%,100%,100%);fill-opacity:1;stroke-width:0.358;stroke-linecap:butt;stroke-linejoin:miter;stroke:rgb(85.882353%,8.627451%,10.588235%);stroke-opacity:1;stroke-miterlimit:4;" d="M 156.835938 41.601562 C 156.835938 43.945312 159.765625 47.851562 159.765625 47.851562 C 157.617188 49.414062 154.101562 50.390625 150.585938 50.390625 C 147.265625 50.390625 142.96875 49.804688 141.40625 47.851562 C 141.40625 47.851562 144.53125 43.945312 144.53125 41.601562 C 144.53125 39.257812 141.40625 36.328125 141.40625 36.328125 C 143.554688 34.765625 147.265625 33.59375 150.585938 33.59375 C 154.101562 33.59375 157.617188 34.765625 159.765625 36.328125 C 159.765625 36.328125 156.835938 39.257812 156.835938 41.601562 Z M 156.835938 41.601562 " transform="matrix(0.02,0,0,0.02,0,0)"/>
<path style="fill-rule:evenodd;fill:rgb(100%,100%,100%);fill-opacity:1;stroke-width:0.358;stroke-linecap:butt;stroke-linejoin:miter;stroke:rgb(85.882353%,8.627451%,10.588235%);stroke-opacity:1;stroke-miterlimit:4;" d="M 154.6875 41.601562 C 154.6875 43.945312 157.8125 48.632812 157.8125 48.632812 C 155.664062 50.195312 154.101562 50.390625 150.585938 50.390625 C 147.265625 50.390625 145.117188 50.78125 143.554688 48.632812 C 143.554688 48.632812 146.484375 43.945312 146.484375 41.601562 C 146.484375 39.257812 143.554688 35.546875 143.554688 35.546875 C 145.703125 33.984375 147.265625 33.59375 150.585938 33.59375 C 154.101562 33.59375 155.664062 33.984375 157.8125 35.546875 C 157.8125 35.546875 154.6875 39.257812 154.6875 41.601562 Z M 154.6875 41.601562 " transform="matrix(0.02,0,0,0.02,0,0)"/>
<path style="fill-rule:nonzero;fill:rgb(100%,100%,100%);fill-opacity:1;stroke-width:1.333;stroke-linecap:butt;stroke-linejoin:miter;stroke:rgb(85.882353%,8.627451%,10.588235%);stroke-opacity:1;stroke-miterlimit:4;" d="M 205.503009 166.745992 C 205.503009 172.225701 200.774874 176.922595 194.695843 176.922595 C 189.29226 176.922595 184.564125 172.225701 184.564125 166.745992 C 184.564125 160.483467 189.29226 155.786573 194.695843 155.786573 C 200.774874 155.786573 205.503009 160.483467 205.503009 166.745992 Z M 205.503009 166.745992 " transform="matrix(0.0057832,0,0,0.00499,1.63966,0.0195)"/>
<path style="fill-rule:nonzero;fill:rgb(100%,100%,100%);fill-opacity:1;stroke-width:1.333;stroke-linecap:butt;stroke-linejoin:miter;stroke:rgb(85.882353%,8.627451%,10.588235%);stroke-opacity:1;stroke-miterlimit:4;" d="M 205.573471 166.745992 C 205.573471 172.225701 200.845336 176.922595 194.766306 176.922595 C 188.687275 176.922595 183.95914 172.225701 183.95914 166.745992 C 183.95914 160.483467 188.687275 155.786573 194.766306 155.786573 C 200.845336 155.786573 205.573471 160.483467 205.573471 166.745992 Z M 205.573471 166.745992 " transform="matrix(0.0057832,0,0,0.00499,2.13144,0.0195)"/>
<path style="fill-rule:nonzero;fill:rgb(100%,100%,100%);fill-opacity:1;stroke-width:1.333;stroke-linecap:butt;stroke-linejoin:miter;stroke:rgb(85.882353%,8.627451%,10.588235%);stroke-opacity:1;stroke-miterlimit:4;" d="M 205.536511 166.745992 C 205.536511 172.225701 200.808376 176.922595 194.729345 176.922595 C 189.325763 176.922595 183.92218 172.225701 183.92218 166.745992 C 183.92218 160.483467 189.325763 155.786573 194.729345 155.786573 C 200.808376 155.786573 205.536511 160.483467 205.536511 166.745992 Z M 205.536511 166.745992 " transform="matrix(0.0057832,0,0,0.00499,1.88556,0.0195)"/>
<path style="fill-rule:nonzero;fill:rgb(100%,100%,100%);fill-opacity:1;stroke-width:1.333;stroke-linecap:butt;stroke-linejoin:miter;stroke:rgb(85.882353%,8.627451%,10.588235%);stroke-opacity:1;stroke-miterlimit:4;" d="M 205.536511 166.167335 C 205.536511 172.42986 200.808376 177.126754 194.729345 177.126754 C 189.325763 177.126754 183.92218 172.42986 183.92218 166.167335 C 183.92218 160.687625 189.325763 155.990731 194.729345 155.990731 C 200.808376 155.990731 205.536511 160.687625 205.536511 166.167335 Z M 205.536511 166.167335 " transform="matrix(0.0057832,0,0,0.00499,1.88556,-0.1573)"/>
<path style="fill-rule:nonzero;fill:rgb(100%,100%,100%);fill-opacity:1;stroke-width:1.333;stroke-linecap:butt;stroke-linejoin:miter;stroke:rgb(85.882353%,8.627451%,10.588235%);stroke-opacity:1;stroke-miterlimit:4;" d="M 205.230942 166.173848 C 205.230942 172.436373 200.665737 177.133267 194.796188 177.133267 C 188.92664 177.133267 184.361435 172.436373 184.361435 166.173848 C 184.361435 160.694138 188.92664 155.997244 194.796188 155.997244 C 200.665737 155.997244 205.230942 160.694138 205.230942 166.173848 Z M 205.230942 166.173848 " transform="matrix(0.0059896,0,0,0.00499,1.66528,0.85048)"/>
<path style="fill-rule:nonzero;fill:rgb(100%,100%,100%);fill-opacity:1;stroke-width:1.333;stroke-linecap:butt;stroke-linejoin:miter;stroke:rgb(85.882353%,8.627451%,10.588235%);stroke-opacity:1;stroke-miterlimit:4;" d="M 205.278316 166.173848 C 205.278316 172.436373 200.713111 177.133267 194.843562 177.133267 C 188.974013 177.133267 184.408809 172.436373 184.408809 166.173848 C 184.408809 160.694138 188.974013 155.997244 194.843562 155.997244 C 200.713111 155.997244 205.278316 160.694138 205.278316 166.173848 Z M 205.278316 166.173848 " transform="matrix(0.0059896,0,0,0.00499,2.00484,0.85048)"/>
<path style="fill-rule:evenodd;fill:rgb(100%,100%,100%);fill-opacity:1;stroke-width:0.364;stroke-linecap:butt;stroke-linejoin:miter;stroke:rgb(85.882353%,8.627451%,10.588235%);stroke-opacity:1;stroke-miterlimit:4;" d="M 142.773438 76.953125 L 157.617188 76.953125 L 150.195312 84.960938 Z M 142.773438 76.953125 " transform="matrix(0.02,0,0,0.02,0,0)"/>
<path style="fill-rule:nonzero;fill:rgb(100%,100%,100%);fill-opacity:1;stroke-width:1.333;stroke-linecap:butt;stroke-linejoin:miter;stroke:rgb(85.882353%,8.627451%,10.588235%);stroke-opacity:1;stroke-miterlimit:4;" d="M 205.351419 166.575858 C 205.351419 172.447093 200.949294 177.144081 195.079794 177.144081 C 189.210294 177.144081 184.319044 172.447093 184.319044 166.575858 C 184.319044 160.704623 189.210294 156.007635 195.079794 156.007635 C 200.949294 156.007635 205.351419 160.704623 205.351419 166.575858 Z M 205.351419 166.575858 " transform="matrix(0.0079862,0,0,0.0066532,1.44596,0.5558)"/>
<path style="fill-rule:nonzero;fill:rgb(100%,100%,100%);fill-opacity:1;stroke-width:0.33;stroke-linecap:butt;stroke-linejoin:miter;stroke:rgb(85.882353%,8.627451%,10.588235%);stroke-opacity:1;stroke-miterlimit:4;" d="M 134.960938 109.765625 L 155.273438 109.765625 C 156.054688 109.765625 156.640625 110.15625 156.640625 110.742188 L 156.640625 114.0625 C 156.640625 114.648438 156.054688 115.039062 155.273438 115.039062 L 134.960938 115.039062 C 134.375 115.039062 133.789062 114.648438 133.789062 114.0625 L 133.789062 110.742188 C 133.789062 110.15625 134.375 109.765625 134.960938 109.765625 Z M 134.960938 109.765625 " transform="matrix(0.02,0,0,0.02,0,0)"/>
<path style="fill-rule:evenodd;fill:rgb(100%,100%,100%);fill-opacity:1;stroke-width:0.33;stroke-linecap:butt;stroke-linejoin:miter;stroke:rgb(85.882353%,8.627451%,10.588235%);stroke-opacity:1;stroke-miterlimit:4;" d="M 163.476562 105.273438 C 160.742188 105.273438 158.59375 107.421875 158.59375 109.960938 L 158.59375 113.867188 C 158.59375 116.40625 160.742188 118.554688 163.476562 118.554688 C 166.210938 118.554688 168.554688 116.40625 168.554688 113.867188 L 168.554688 109.960938 C 168.554688 107.421875 166.210938 105.273438 163.476562 105.273438 Z M 163.476562 107.03125 C 161.914062 107.03125 160.546875 108.789062 160.546875 110.742188 L 160.546875 113.085938 C 160.546875 115.234375 161.914062 116.796875 163.476562 116.796875 C 165.234375 116.796875 166.40625 115.234375 166.40625 113.085938 L 166.40625 110.742188 C 166.40625 108.789062 165.234375 107.03125 163.476562 107.03125 Z M 137.695312 106.25 C 136.132812 106.25 134.765625 107.8125 134.765625 109.960938 L 134.765625 114.0625 C 134.765625 116.015625 136.132812 117.773438 137.695312 117.773438 C 139.453125 117.773438 140.625 116.015625 140.625 114.0625 L 140.625 109.960938 C 140.625 107.8125 139.453125 106.25 137.695312 106.25 Z M 137.695312 104.492188 C 134.960938 104.492188 132.8125 106.445312 132.8125 108.984375 L 132.8125 114.84375 C 132.8125 117.382812 134.960938 119.53125 137.695312 119.53125 C 140.429688 119.53125 142.773438 117.382812 142.773438 114.84375 L 142.773438 108.984375 C 142.773438 106.445312 140.429688 104.492188 137.695312 104.492188 Z M 137.695312 104.492188 " transform="matrix(0.02,0,0,0.02,0,0)"/>
<path style="fill-rule:evenodd;fill:rgb(100%,100%,100%);fill-opacity:1;stroke-width:0.33;stroke-linecap:butt;stroke-linejoin:miter;stroke:rgb(85.882353%,8.627451%,10.588235%);stroke-opacity:1;stroke-miterlimit:4;" d="M 129.882812 108.007812 C 128.125 108.007812 126.757812 109.570312 126.757812 111.71875 L 126.757812 112.695312 C 126.757812 114.648438 128.125 116.40625 129.882812 116.40625 C 131.445312 116.40625 132.8125 114.648438 132.8125 112.695312 L 132.8125 111.71875 C 132.8125 109.570312 131.445312 108.007812 129.882812 108.007812 Z M 129.882812 106.25 C 127.148438 106.25 124.804688 108.203125 124.804688 110.742188 L 124.804688 113.476562 C 124.804688 116.015625 127.148438 118.164062 129.882812 118.164062 C 132.617188 118.164062 134.765625 116.015625 134.765625 113.476562 L 134.765625 110.742188 C 134.765625 108.203125 132.617188 106.25 129.882812 106.25 Z M 129.882812 106.25 " transform="matrix(0.02,0,0,0.02,0,0)"/>
<path style="fill-rule:evenodd;fill:rgb(100%,100%,100%);fill-opacity:1;stroke-width:0.33;stroke-linecap:butt;stroke-linejoin:miter;stroke:rgb(85.882353%,8.627451%,10.588235%);stroke-opacity:1;stroke-miterlimit:4;" d="M 117.96875 105.46875 C 114.84375 105.46875 112.5 107.421875 112.5 109.570312 L 112.5 114.257812 C 112.5 116.601562 114.84375 118.359375 117.96875 118.359375 C 120.898438 118.359375 123.242188 116.601562 123.242188 114.257812 L 123.242188 109.570312 C 123.242188 107.421875 120.898438 105.46875 117.96875 105.46875 Z M 117.96875 103.515625 C 112.890625 103.515625 108.984375 105.859375 108.984375 108.789062 L 108.984375 115.234375 C 108.984375 117.96875 112.890625 120.3125 117.96875 120.3125 C 122.851562 120.3125 126.757812 117.96875 126.757812 115.234375 L 126.757812 108.789062 C 126.757812 105.859375 122.851562 103.515625 117.96875 103.515625 Z M 182.421875 106.445312 C 179.296875 106.445312 176.953125 108.203125 176.953125 110.546875 L 176.953125 115.039062 C 176.953125 117.382812 179.296875 119.335938 182.421875 119.335938 C 185.351562 119.335938 187.695312 117.382812 187.695312 115.039062 L 187.695312 110.546875 C 187.695312 108.203125 185.351562 106.445312 182.421875 106.445312 Z M 182.421875 104.492188 C 177.34375 104.492188 173.4375 106.640625 173.4375 109.570312 L 173.4375 116.015625 C 173.4375 118.945312 177.34375 121.289062 182.421875 121.289062 C 187.304688 121.289062 191.210938 118.945312 191.210938 116.015625 L 191.210938 109.570312 C 191.210938 106.640625 187.304688 104.492188 182.421875 104.492188 Z M 182.421875 104.492188 " transform="matrix(0.02,0,0,0.02,0,0)"/>
<path style="fill-rule:nonzero;fill:rgb(100%,100%,100%);fill-opacity:1;stroke-width:0.33;stroke-linecap:butt;stroke-linejoin:miter;stroke:rgb(85.882353%,8.627451%,10.588235%);stroke-opacity:1;stroke-miterlimit:4;" d="M 166.210938 109.765625 L 176.757812 109.765625 C 177.148438 109.765625 177.34375 110.15625 177.34375 110.742188 L 177.34375 114.0625 C 177.34375 114.648438 177.148438 115.039062 176.757812 115.039062 L 166.210938 115.039062 C 165.820312 115.039062 165.429688 114.648438 165.429688 114.0625 L 165.429688 110.742188 C 165.429688 110.15625 165.820312 109.765625 166.210938 109.765625 Z M 166.210938 109.765625 " transform="matrix(0.02,0,0,0.02,0,0)"/>
<path style="fill-rule:nonzero;fill:rgb(100%,100%,100%);fill-opacity:1;stroke-width:0.33;stroke-linecap:butt;stroke-linejoin:miter;stroke:rgb(85.882353%,8.627451%,10.588235%);stroke-opacity:1;stroke-miterlimit:4;" d="M 154.882812 108.789062 L 161.132812 108.789062 C 161.328125 108.789062 161.523438 109.375 161.523438 110.15625 L 161.523438 114.648438 C 161.523438 115.429688 161.328125 115.820312 161.132812 115.820312 L 154.882812 115.820312 C 154.6875 115.820312 154.6875 115.429688 154.6875 114.648438 L 154.6875 110.15625 C 154.6875 109.375 154.6875 108.789062 154.882812 108.789062 Z M 154.882812 108.789062 " transform="matrix(0.02,0,0,0.02,0,0)"/>
<path style="fill-rule:nonzero;fill:rgb(100%,100%,100%);fill-opacity:1;stroke-width:0.33;stroke-linecap:butt;stroke-linejoin:miter;stroke:rgb(85.882353%,8.627451%,10.588235%);stroke-opacity:1;stroke-miterlimit:4;" d="M 122.265625 108.789062 L 128.515625 108.789062 C 128.710938 108.789062 128.90625 109.375 128.90625 110.15625 L 128.90625 114.648438 C 128.90625 115.429688 128.710938 115.820312 128.515625 115.820312 L 122.265625 115.820312 C 122.070312 115.820312 121.875 115.429688 121.875 114.648438 L 121.875 110.15625 C 121.875 109.375 122.070312 108.789062 122.265625 108.789062 Z M 122.265625 108.789062 " transform="matrix(0.02,0,0,0.02,0,0)"/>
<path style="fill-rule:nonzero;fill:rgb(100%,100%,100%);fill-opacity:1;stroke-width:0.33;stroke-linecap:butt;stroke-linejoin:miter;stroke:rgb(85.882353%,8.627451%,10.588235%);stroke-opacity:1;stroke-miterlimit:4;" d="M 100.78125 108.007812 L 113.28125 108.007812 C 113.671875 108.007812 113.867188 108.59375 113.867188 109.570312 L 113.867188 115.234375 C 113.867188 116.015625 113.671875 116.796875 113.28125 116.796875 L 100.78125 116.796875 C 100.390625 116.796875 100 116.015625 100 115.234375 L 100 109.570312 C 100 108.59375 100.390625 108.007812 100.78125 108.007812 Z M 100.78125 108.007812 " transform="matrix(0.02,0,0,0.02,0,0)"/>
<path style="fill-rule:nonzero;fill:rgb(100%,100%,100%);fill-opacity:1;stroke-width:0.33;stroke-linecap:butt;stroke-linejoin:miter;stroke:rgb(85.882353%,8.627451%,10.588235%);stroke-opacity:1;stroke-miterlimit:4;" d="M 187.109375 108.789062 L 198.4375 108.789062 C 198.828125 108.789062 199.21875 109.570312 199.21875 110.351562 L 199.21875 116.210938 C 199.21875 116.992188 198.828125 117.773438 198.4375 117.773438 L 187.109375 117.773438 C 186.71875 117.773438 186.328125 116.992188 186.328125 116.210938 L 186.328125 110.351562 C 186.328125 109.570312 186.71875 108.789062 187.109375 108.789062 Z M 187.109375 108.789062 " transform="matrix(0.02,0,0,0.02,0,0)"/>
</g>
</svg>
