<?xml version="1.0" encoding="UTF-8"?>
<svg xmlns="http://www.w3.org/2000/svg" xmlns:xlink="http://www.w3.org/1999/xlink" width="24px" height="24px" viewBox="0 0 24 18" version="1.1">
<g id="surface1">
<rect x="0" y="0" width="24" height="18" style="fill:rgb(0%,0%,0%);fill-opacity:1;stroke:none;"/>
<path style=" stroke:none;fill-rule:nonzero;fill:rgb(80.784314%,6.666667%,14.901961%);fill-opacity:1;" d="M 0 0 L 24 0 L 24 18 Z M 0 0 "/>
<path style=" stroke:none;fill-rule:nonzero;fill:rgb(98.823529%,81.960784%,8.627451%);fill-opacity:1;" d="M 14.859375 5.230469 C 14.679688 5.457031 14.261719 5 13.757812 4.988281 C 13.257812 4.980469 12.902344 5.46875 12.753906 5.636719 C 12.609375 5.804688 12.136719 6.683594 12.148438 6.777344 C 12.15625 6.875 12.441406 6.515625 12.546875 6.453125 C 12.554688 6.582031 12.429688 6.726562 12.460938 6.769531 C 12.492188 6.8125 12.828125 6.515625 12.941406 6.507812 C 12.972656 6.589844 12.878906 6.675781 12.910156 6.800781 C 12.953125 6.84375 13.140625 6.589844 13.269531 6.539062 C 13.289062 6.632812 13.152344 6.8125 13.226562 6.925781 C 13.277344 6.9375 13.59375 6.570312 13.695312 6.527344 C 13.800781 6.484375 13.644531 6.875 13.695312 6.90625 C 13.792969 6.84375 14.085938 6.507812 14.179688 6.464844 C 14.273438 6.421875 14.167969 6.894531 14.210938 6.894531 C 14.324219 6.8125 14.617188 6.414062 14.648438 6.351562 C 14.679688 6.289062 14.617188 6.957031 14.941406 7.3125 C 15.265625 7.667969 15.757812 8.078125 15.8125 8.078125 C 15.875 7.960938 15.789062 7.722656 15.84375 7.730469 C 15.988281 7.890625 16.261719 8.121094 16.324219 8.121094 C 16.386719 8.121094 16.28125 7.867188 16.367188 7.867188 C 16.535156 8.023438 17.015625 8.644531 17.957031 8.925781 C 17.894531 8.746094 17.757812 8.589844 17.75 8.507812 C 17.8125 8.515625 18.03125 8.621094 18.074219 8.609375 C 18.113281 8.601562 17.613281 7.984375 17.644531 7.898438 C 17.757812 7.890625 17.8125 7.960938 17.851562 7.910156 C 17.800781 7.824219 17.359375 7.335938 17.359375 7.21875 C 17.359375 7.105469 17.496094 7.238281 17.539062 7.21875 C 17.582031 7.199219 17.371094 6.757812 17.414062 6.707031 C 17.457031 6.652344 17.914062 6.988281 18.03125 6.988281 C 18.144531 6.988281 18.0625 6.582031 18.113281 6.558594 C 18.167969 6.539062 18.554688 6.777344 18.636719 6.777344 C 18.722656 6.777344 18.710938 6.601562 18.742188 6.621094 C 18.773438 6.644531 19.683594 7.554688 19.371094 8.621094 C 19.058594 9.386719 18.429688 9.792969 17.507812 9.460938 C 17.558594 9.542969 18.050781 9.953125 18.585938 9.804688 C 19.121094 9.65625 19.769531 9.238281 19.695312 8.191406 C 19.621094 7.144531 19.277344 7 19.222656 6.84375 C 19.171875 6.683594 19.308594 6.882812 19.421875 6.925781 C 19.539062 6.96875 19.402344 6.707031 19.371094 6.589844 C 19.339844 6.476562 19.714844 6.832031 19.8125 6.863281 C 19.90625 6.894531 19.589844 6.003906 19.496094 5.941406 C 19.402344 5.878906 19.589844 5.960938 19.652344 5.984375 C 19.714844 6.003906 19.078125 5.011719 18.941406 5.011719 C 18.804688 5.011719 19.058594 4.957031 19.128906 4.957031 C 19.203125 4.957031 18.398438 4.308594 18.261719 4.308594 C 18.125 4.308594 18.554688 4.140625 18.597656 4.128906 C 18.667969 4.140625 17.664062 3.597656 16.765625 4.140625 C 16.710938 4.097656 17.1875 3.769531 17.203125 3.628906 C 17.210938 3.589844 17.046875 3.511719 17.035156 3.472656 C 17.027344 3.429688 17.289062 3.304688 17.296875 3.210938 C 17.234375 3.125 17.121094 3.15625 17.058594 3.136719 C 17.042969 3.058594 17.277344 2.863281 17.257812 2.78125 C 17.242188 2.734375 17.066406 2.71875 17.027344 2.75 C 16.984375 2.78125 17.136719 2.527344 17.109375 2.457031 C 17.089844 2.425781 17.003906 2.445312 16.921875 2.464844 C 16.867188 2.457031 17.195312 2.003906 17.128906 1.941406 C 17.066406 1.878906 16.1875 2.402344 15.863281 2.988281 C 15.539062 3.574219 15.789062 4.046875 15.75 4.246094 C 15.707031 4.445312 15.65625 4.644531 15.519531 4.644531 C 15.382812 4.644531 15.066406 4.433594 14.964844 4.328125 C 14.859375 4.226562 14.839844 4.152344 14.691406 4.109375 C 14.542969 4.066406 14.210938 4.195312 14.085938 4.203125 C 13.957031 4.214844 13.464844 4.109375 13.433594 4.140625 C 13.402344 4.171875 13.917969 4.359375 14.03125 4.421875 C 14.148438 4.488281 14.15625 4.570312 14.242188 4.621094 C 14.324219 4.675781 15.109375 4.90625 14.859375 5.230469 Z M 17.925781 6.707031 C 18.175781 6.957031 19.875 8.085938 19.875 9.46875 C 19.875 10.851562 18.636719 10.808594 18.28125 10.769531 C 18.679688 11.101562 20.1875 11.039062 20.1875 9.46875 C 20.1875 8.085938 18.242188 6.707031 17.988281 6.582031 C 17.738281 6.453125 17.675781 6.453125 17.925781 6.707031 Z M 17.925781 6.707031 "/>
<path style=" stroke:none;fill-rule:nonzero;fill:rgb(100%,100%,100%);fill-opacity:1;" d="M 6.882812 13.082031 L 7.242188 11.929688 L 7.597656 13.09375 L 6.65625 12.378906 L 7.824219 12.378906 Z M 6.882812 13.082031 "/>
<path style=" stroke:none;fill-rule:nonzero;fill:rgb(100%,100%,100%);fill-opacity:1;" d="M 6.011719 5.578125 L 5.296875 7.882812 L 7.183594 6.480469 L 4.84375 6.480469 L 6.730469 7.90625 Z M 6.011719 5.578125 "/>
<path style=" stroke:none;fill-rule:nonzero;fill:rgb(100%,100%,100%);fill-opacity:1;" d="M 3.261719 9.09375 L 2.546875 11.398438 L 4.433594 9.996094 L 2.09375 9.996094 L 3.980469 11.421875 Z M 3.261719 9.09375 "/>
<path style=" stroke:none;fill-rule:nonzero;fill:rgb(100%,100%,100%);fill-opacity:1;" d="M 8.75 8.84375 L 8.035156 11.148438 L 9.917969 9.746094 L 7.582031 9.746094 L 9.464844 11.171875 Z M 8.75 8.84375 "/>
<path style=" stroke:none;fill-rule:nonzero;fill:rgb(100%,100%,100%);fill-opacity:1;" d="M 6.011719 13.84375 L 5.296875 16.148438 L 7.183594 14.746094 L 4.84375 14.746094 L 6.730469 16.171875 Z M 6.011719 13.84375 "/>
</g>
</svg>
