<?xml version="1.0" encoding="UTF-8"?>
<svg xmlns="http://www.w3.org/2000/svg" xmlns:xlink="http://www.w3.org/1999/xlink" width="24px" height="24px" viewBox="0 0 24 12" version="1.1">
<g id="surface1">
<rect x="0" y="0" width="24" height="12" style="fill:rgb(0%,21.960784%,65.882353%);fill-opacity:1;stroke:none;"/>
<path style=" stroke:none;fill-rule:nonzero;fill:rgb(80.784314%,6.666667%,14.901961%);fill-opacity:1;" d="M 0 6 L 24 6 L 24 12 L 0 12 Z M 0 6 "/>
<path style=" stroke:none;fill-rule:nonzero;fill:rgb(100%,100%,100%);fill-opacity:1;" d="M 10.390625 6 L 0 12 L 0 0 "/>
<path style=" stroke:none;fill-rule:nonzero;fill:rgb(98.823529%,81.960784%,8.627451%);fill-opacity:1;" d="M 4.933594 6 C 4.933594 6.664062 4.394531 7.199219 3.734375 7.199219 C 3.070312 7.199219 2.535156 6.664062 2.535156 6 C 2.535156 5.335938 3.070312 4.800781 3.734375 4.800781 C 4.394531 4.800781 4.933594 5.335938 4.933594 6 Z M 4.933594 6 "/>
<path style=" stroke:none;fill-rule:nonzero;fill:rgb(98.823529%,81.960784%,8.627451%);fill-opacity:1;" d="M 1.199219 6 L 1.355469 6.15625 L 3.734375 6 L 1.355469 5.84375 Z M 1.199219 6 "/>
<path style=" stroke:none;fill-rule:nonzero;fill:rgb(98.823529%,81.960784%,8.627451%);fill-opacity:1;" d="M 1.464844 6.296875 L 1.59375 6.425781 L 3.734375 6 Z M 1.464844 6.296875 "/>
<path style=" stroke:none;fill-rule:nonzero;fill:rgb(98.823529%,81.960784%,8.627451%);fill-opacity:1;" d="M 1.464844 5.703125 L 1.59375 5.574219 L 3.734375 6 Z M 1.464844 5.703125 "/>
<path style=" stroke:none;fill-rule:nonzero;fill:rgb(98.823529%,81.960784%,8.627451%);fill-opacity:1;" d="M 1.941406 4.207031 L 1.941406 4.429688 L 3.734375 6 L 2.164062 4.207031 Z M 1.941406 4.207031 "/>
<path style=" stroke:none;fill-rule:nonzero;fill:rgb(98.823529%,81.960784%,8.627451%);fill-opacity:1;" d="M 1.917969 4.605469 L 1.917969 4.789062 L 3.734375 6 Z M 1.917969 4.605469 "/>
<path style=" stroke:none;fill-rule:nonzero;fill:rgb(98.823529%,81.960784%,8.627451%);fill-opacity:1;" d="M 2.339844 4.1875 L 2.523438 4.1875 L 3.734375 6 Z M 2.339844 4.1875 "/>
<path style=" stroke:none;fill-rule:nonzero;fill:rgb(98.823529%,81.960784%,8.627451%);fill-opacity:1;" d="M 3.734375 3.464844 L 3.578125 3.625 L 3.734375 6 L 3.890625 3.625 Z M 3.734375 3.464844 "/>
<path style=" stroke:none;fill-rule:nonzero;fill:rgb(98.823529%,81.960784%,8.627451%);fill-opacity:1;" d="M 3.4375 3.734375 L 3.308594 3.859375 L 3.734375 6 Z M 3.4375 3.734375 "/>
<path style=" stroke:none;fill-rule:nonzero;fill:rgb(98.823529%,81.960784%,8.627451%);fill-opacity:1;" d="M 4.03125 3.734375 L 4.160156 3.859375 L 3.734375 6 Z M 4.03125 3.734375 "/>
<path style=" stroke:none;fill-rule:nonzero;fill:rgb(98.823529%,81.960784%,8.627451%);fill-opacity:1;" d="M 5.523438 4.207031 L 5.300781 4.207031 L 3.734375 6 L 5.523438 4.429688 Z M 5.523438 4.207031 "/>
<path style=" stroke:none;fill-rule:nonzero;fill:rgb(98.823529%,81.960784%,8.627451%);fill-opacity:1;" d="M 5.125 4.1875 L 4.945312 4.1875 L 3.734375 6 Z M 5.125 4.1875 "/>
<path style=" stroke:none;fill-rule:nonzero;fill:rgb(98.823529%,81.960784%,8.627451%);fill-opacity:1;" d="M 5.546875 4.605469 L 5.546875 4.789062 L 3.734375 6 Z M 5.546875 4.605469 "/>
<path style=" stroke:none;fill-rule:nonzero;fill:rgb(98.823529%,81.960784%,8.627451%);fill-opacity:1;" d="M 6.265625 6 L 6.109375 5.84375 L 3.734375 6 L 6.109375 6.15625 Z M 6.265625 6 "/>
<path style=" stroke:none;fill-rule:nonzero;fill:rgb(98.823529%,81.960784%,8.627451%);fill-opacity:1;" d="M 6 5.703125 L 5.871094 5.574219 L 3.734375 6 Z M 6 5.703125 "/>
<path style=" stroke:none;fill-rule:nonzero;fill:rgb(98.823529%,81.960784%,8.627451%);fill-opacity:1;" d="M 6 6.296875 L 5.871094 6.425781 L 3.734375 6 Z M 6 6.296875 "/>
<path style=" stroke:none;fill-rule:nonzero;fill:rgb(98.823529%,81.960784%,8.627451%);fill-opacity:1;" d="M 5.523438 7.792969 L 5.523438 7.570312 L 3.734375 6 L 5.300781 7.792969 Z M 5.523438 7.792969 "/>
<path style=" stroke:none;fill-rule:nonzero;fill:rgb(98.823529%,81.960784%,8.627451%);fill-opacity:1;" d="M 5.546875 7.394531 L 5.546875 7.210938 L 3.734375 6 Z M 5.546875 7.394531 "/>
<path style=" stroke:none;fill-rule:nonzero;fill:rgb(98.823529%,81.960784%,8.627451%);fill-opacity:1;" d="M 5.125 7.8125 L 4.945312 7.8125 L 3.734375 6 Z M 5.125 7.8125 "/>
<path style=" stroke:none;fill-rule:nonzero;fill:rgb(98.823529%,81.960784%,8.627451%);fill-opacity:1;" d="M 3.734375 8.535156 L 3.890625 8.375 L 3.734375 6 L 3.578125 8.375 Z M 3.734375 8.535156 "/>
<path style=" stroke:none;fill-rule:nonzero;fill:rgb(98.823529%,81.960784%,8.627451%);fill-opacity:1;" d="M 4.03125 8.265625 L 4.160156 8.140625 L 3.734375 6 Z M 4.03125 8.265625 "/>
<path style=" stroke:none;fill-rule:nonzero;fill:rgb(98.823529%,81.960784%,8.627451%);fill-opacity:1;" d="M 3.4375 8.265625 L 3.308594 8.140625 L 3.734375 6 Z M 3.4375 8.265625 "/>
<path style=" stroke:none;fill-rule:nonzero;fill:rgb(98.823529%,81.960784%,8.627451%);fill-opacity:1;" d="M 1.941406 7.792969 L 2.164062 7.792969 L 3.734375 6 L 1.941406 7.570312 Z M 1.941406 7.792969 "/>
<path style=" stroke:none;fill-rule:nonzero;fill:rgb(98.823529%,81.960784%,8.627451%);fill-opacity:1;" d="M 2.339844 7.8125 L 2.523438 7.8125 L 3.734375 6 Z M 2.339844 7.8125 "/>
<path style=" stroke:none;fill-rule:nonzero;fill:rgb(98.823529%,81.960784%,8.627451%);fill-opacity:1;" d="M 1.917969 7.394531 L 1.917969 7.210938 L 3.734375 6 Z M 1.917969 7.394531 "/>
<path style=" stroke:none;fill-rule:nonzero;fill:rgb(98.823529%,81.960784%,8.627451%);fill-opacity:1;" d="M 9.191406 6 L 8.742188 6.15625 L 8.730469 6.632812 L 8.441406 6.253906 L 7.984375 6.390625 L 8.257812 6 Z M 9.191406 6 "/>
<path style=" stroke:none;fill-rule:nonzero;fill:rgb(98.823529%,81.960784%,8.627451%);fill-opacity:1;" d="M 9.191406 6 L 8.742188 5.84375 L 8.730469 5.367188 L 8.441406 5.746094 L 7.984375 5.609375 L 8.257812 6 Z M 9.191406 6 "/>
<path style=" stroke:none;fill-rule:nonzero;fill:rgb(98.823529%,81.960784%,8.627451%);fill-opacity:1;" d="M 0.601562 10.960938 L 0.691406 10.492188 L 0.28125 10.246094 L 0.753906 10.183594 L 0.863281 9.71875 L 1.066406 10.152344 Z M 0.601562 10.960938 "/>
<path style=" stroke:none;fill-rule:nonzero;fill:rgb(98.823529%,81.960784%,8.627451%);fill-opacity:1;" d="M 0.601562 10.960938 L 0.960938 10.648438 L 1.378906 10.878906 L 1.195312 10.4375 L 1.542969 10.113281 L 1.066406 10.152344 Z M 0.601562 10.960938 "/>
<path style=" stroke:none;fill-rule:nonzero;fill:rgb(98.823529%,81.960784%,8.627451%);fill-opacity:1;" d="M 0.601562 1.039062 L 0.960938 1.351562 L 1.378906 1.121094 L 1.195312 1.5625 L 1.542969 1.886719 L 1.066406 1.847656 Z M 0.601562 1.039062 "/>
<path style=" stroke:none;fill-rule:nonzero;fill:rgb(98.823529%,81.960784%,8.627451%);fill-opacity:1;" d="M 0.601562 1.039062 L 0.691406 1.507812 L 0.28125 1.753906 L 0.753906 1.816406 L 0.863281 2.28125 L 1.066406 1.847656 Z M 0.601562 1.039062 "/>
</g>
</svg>
