<?xml version="1.0" encoding="UTF-8"?>
<svg xmlns="http://www.w3.org/2000/svg" xmlns:xlink="http://www.w3.org/1999/xlink" width="24px" height="24px" viewBox="0 0 24 16" version="1.1">
<g id="surface1">
<rect x="0" y="0" width="24" height="16" style="fill:rgb(100%,100%,100%);fill-opacity:1;stroke:none;"/>
<path style=" stroke:none;fill-rule:nonzero;fill:rgb(0.392157%,25.490196%,10.980392%);fill-opacity:1;" d="M 6 0 L 24 0 L 24 16 L 6 16 Z M 6 0 "/>
<path style=" stroke:none;fill-rule:nonzero;fill:rgb(100%,100%,100%);fill-opacity:1;" d="M 19.800781 8 C 19.800781 10.652344 17.652344 12.800781 15 12.800781 C 12.347656 12.800781 10.199219 10.652344 10.199219 8 C 10.199219 5.347656 12.347656 3.199219 15 3.199219 C 17.652344 3.199219 19.800781 5.347656 19.800781 8 Z M 19.800781 8 "/>
<path style=" stroke:none;fill-rule:nonzero;fill:rgb(0.392157%,25.490196%,10.980392%);fill-opacity:1;" d="M 20.628906 6.910156 C 20.628906 9.339844 18.65625 11.308594 16.226562 11.308594 C 13.796875 11.308594 11.828125 9.339844 11.828125 6.910156 C 11.828125 4.480469 13.796875 2.507812 16.226562 2.507812 C 18.65625 2.507812 20.628906 4.480469 20.628906 6.910156 Z M 20.628906 6.910156 "/>
<path style=" stroke:none;fill-rule:nonzero;fill:rgb(100%,100%,100%);fill-opacity:1;" d="M 16.75 4.40625 L 18.773438 6.683594 L 15.800781 6.03125 L 18.589844 4.8125 L 17.050781 7.4375 Z M 16.75 4.40625 "/>
</g>
</svg>
