<?xml version="1.0" encoding="UTF-8"?>
<svg xmlns="http://www.w3.org/2000/svg" xmlns:xlink="http://www.w3.org/1999/xlink" width="24px" height="24px" viewBox="0 0 24 16" version="1.1">
<g id="surface1">
<rect x="0" y="0" width="24" height="16" style="fill:rgb(100%,0%,0%);fill-opacity:1;stroke:none;"/>
<path style=" stroke:none;fill-rule:nonzero;fill:rgb(0%,40%,0%);fill-opacity:1;" d="M 0 0 L 9.601562 0 L 9.601562 16 L 0 16 Z M 0 0 "/>
<path style="fill-rule:evenodd;fill:rgb(100%,100%,0%);fill-opacity:1;stroke-width:0.573;stroke-linecap:round;stroke-linejoin:round;stroke:rgb(0%,0%,0%);stroke-opacity:1;stroke-miterlimit:4;" d="M 318.261719 261.914062 C 287.988281 260.9375 149.511719 174.511719 148.535156 160.742188 L 156.152344 147.949219 C 169.921875 167.96875 311.523438 252.050781 325.488281 249.023438 L 318.261719 261.816406 " transform="matrix(0.04,0,0,0.04,0,0)"/>
<path style="fill-rule:evenodd;fill:rgb(100%,100%,0%);fill-opacity:1;stroke-width:0.573;stroke-linecap:round;stroke-linejoin:round;stroke:rgb(0%,0%,0%);stroke-opacity:1;stroke-miterlimit:4;" d="M 154.589844 146.191406 C 151.855469 153.515625 190.722656 177.539062 237.5 205.957031 C 284.277344 234.375 324.511719 251.953125 327.539062 249.511719 C 327.734375 249.121094 329.003906 246.972656 328.90625 246.972656 C 328.320312 247.753906 326.953125 248.046875 324.804688 247.460938 C 312.207031 243.847656 279.296875 228.710938 238.476562 203.90625 C 197.65625 179.199219 162.207031 156.347656 156.640625 146.679688 C 156.25 145.996094 155.957031 144.824219 156.054688 143.847656 L 155.957031 143.847656 L 154.785156 145.898438 Z M 318.945312 262.304688 C 318.457031 263.183594 317.480469 263.183594 315.625 262.988281 C 304.394531 261.816406 270.117188 245.117188 229.492188 220.800781 C 182.324219 192.578125 143.261719 166.796875 147.558594 160.058594 L 148.730469 158.007812 L 148.925781 158.105469 C 145.117188 169.53125 225.878906 215.722656 230.664062 218.652344 C 277.34375 247.558594 316.699219 264.453125 320.214844 260.058594 Z M 318.945312 262.304688 " transform="matrix(0.04,0,0,0.04,0,0)"/>
<path style="fill-rule:evenodd;fill:rgb(100%,100%,0%);fill-opacity:1;stroke-width:0.573;stroke-linecap:round;stroke-linejoin:round;stroke:rgb(0%,0%,0%);stroke-opacity:1;stroke-miterlimit:4;" d="M 240.136719 169.042969 C 270.410156 168.847656 307.714844 164.941406 329.199219 156.347656 L 324.609375 148.828125 C 311.914062 155.859375 274.316406 160.449219 239.941406 161.230469 C 199.21875 160.839844 170.410156 157.03125 156.054688 147.363281 L 151.660156 155.371094 C 178.125 166.601562 205.273438 168.945312 240.136719 169.042969 " transform="matrix(0.04,0,0,0.04,0,0)"/>
<path style="fill-rule:evenodd;fill:rgb(100%,100%,0%);fill-opacity:1;stroke-width:0.573;stroke-linecap:round;stroke-linejoin:round;stroke:rgb(0%,0%,0%);stroke-opacity:1;stroke-miterlimit:4;" d="M 330.46875 156.542969 C 329.6875 157.714844 315.722656 162.597656 295.019531 166.113281 C 281.054688 168.261719 262.792969 170.117188 240.039062 170.117188 C 218.457031 170.117188 200.78125 168.554688 187.402344 166.796875 C 165.722656 163.378906 154.589844 158.59375 150.390625 156.933594 C 150.78125 156.152344 151.074219 155.664062 151.464844 154.882812 C 163.378906 159.667969 174.609375 162.5 187.695312 164.550781 C 200.976562 166.308594 218.457031 167.871094 240.039062 167.871094 C 262.695312 167.871094 280.664062 165.917969 294.628906 163.769531 C 315.722656 160.351562 327.34375 155.957031 328.90625 154.003906 Z M 326.367188 148.925781 C 324.121094 150.78125 312.695312 154.785156 292.578125 158.007812 C 279.101562 159.960938 262.109375 161.621094 240.332031 161.71875 C 219.628906 161.71875 202.636719 160.351562 189.84375 158.398438 C 169.433594 155.761719 158.496094 150.976562 154.589844 149.511719 C 154.980469 148.925781 155.371094 148.242188 155.761719 147.558594 C 158.886719 149.121094 169.335938 153.320312 190.039062 156.25 C 202.734375 158.105469 219.726562 159.375 240.332031 159.375 C 262.011719 159.375 278.808594 157.617188 292.1875 155.664062 C 312.402344 152.929688 323.242188 147.753906 324.902344 146.484375 Z M 140.917969 205.46875 C 159.472656 215.527344 200.78125 220.507812 239.84375 220.898438 C 275.488281 220.898438 321.875 215.332031 339.160156 206.152344 L 338.671875 196.191406 C 333.300781 204.6875 283.59375 212.792969 239.453125 212.5 C 195.410156 212.109375 154.492188 205.273438 140.820312 196.484375 L 140.917969 205.46875 " transform="matrix(0.04,0,0,0.04,0,0)"/>
<path style="fill-rule:evenodd;fill:rgb(100%,100%,0%);fill-opacity:1;stroke-width:0.573;stroke-linecap:round;stroke-linejoin:round;stroke:rgb(0%,0%,0%);stroke-opacity:1;stroke-miterlimit:4;" d="M 340.136719 204.003906 L 340.136719 206.445312 C 337.5 209.570312 321.191406 214.257812 300.683594 217.578125 C 285.058594 219.921875 264.746094 221.777344 239.453125 221.777344 C 215.332031 221.777344 196.191406 220.019531 181.25 217.773438 C 157.714844 214.355469 142.675781 208.300781 139.648438 206.542969 L 139.648438 203.808594 C 148.730469 209.765625 173.339844 214.257812 181.640625 215.527344 C 196.386719 217.871094 215.429688 219.53125 239.453125 219.53125 C 264.648438 219.53125 284.863281 217.773438 300.390625 215.332031 C 315.039062 213.28125 336.035156 207.714844 340.136719 204.003906 Z M 340.136719 195.507812 L 340.136719 197.949219 C 337.5 201.074219 321.191406 205.761719 300.683594 209.082031 C 285.058594 211.425781 264.746094 213.28125 239.453125 213.28125 C 215.332031 213.28125 196.191406 211.523438 181.25 209.277344 C 157.714844 205.859375 142.675781 199.804688 139.648438 198.046875 L 139.648438 195.3125 C 148.730469 201.269531 173.339844 205.761719 181.640625 207.03125 C 196.386719 209.375 215.527344 211.035156 239.453125 211.035156 C 264.648438 211.035156 284.863281 209.277344 300.390625 206.835938 C 315.039062 204.785156 336.035156 199.21875 340.136719 195.507812 Z M 239.746094 260.15625 C 196.972656 259.863281 160.351562 248.535156 152.636719 246.582031 L 158.300781 255.46875 C 171.972656 261.230469 207.714844 269.726562 240.234375 268.847656 C 272.65625 267.871094 301.074219 265.332031 321.09375 255.566406 L 326.953125 246.484375 C 313.28125 252.832031 266.894531 260.058594 239.746094 260.15625 " transform="matrix(0.04,0,0,0.04,0,0)"/>
<path style="fill-rule:evenodd;fill:rgb(100%,100%,0%);fill-opacity:1;stroke-width:0.55;stroke-linecap:round;stroke-linejoin:round;stroke:rgb(0%,0%,0%);stroke-opacity:1;stroke-miterlimit:4;" d="M 323.339844 253.515625 C 322.460938 254.882812 321.582031 256.152344 320.703125 257.421875 C 311.230469 260.742188 296.386719 264.160156 290.136719 265.234375 C 277.246094 267.871094 257.421875 269.824219 239.84375 269.824219 C 201.953125 269.238281 170.898438 261.816406 156.347656 255.566406 L 155.175781 253.515625 L 155.371094 253.222656 L 157.324219 254.003906 C 183.300781 263.28125 212.402344 266.992188 240.039062 267.578125 C 257.617188 267.675781 275.097656 265.625 289.355469 263.085938 C 311.132812 258.691406 319.921875 255.46875 322.65625 253.90625 Z M 328.320312 245.3125 L 328.417969 245.3125 C 327.734375 246.484375 327.050781 247.558594 326.464844 248.632812 C 321.386719 250.390625 307.714844 254.394531 287.792969 257.226562 C 274.609375 258.984375 266.40625 260.742188 240.234375 261.230469 C 191.308594 259.960938 159.570312 250.390625 151.953125 248.046875 L 150.878906 245.898438 C 179.296875 253.320312 208.300781 258.496094 240.332031 258.984375 C 264.257812 258.496094 274.414062 256.738281 287.402344 254.980469 C 310.742188 251.367188 322.460938 247.558594 325.976562 246.386719 C 325.878906 246.386719 325.878906 246.289062 325.78125 246.191406 Z M 328.320312 245.3125 " transform="matrix(0.04,0,0,0.04,0,0)"/>
<path style="fill-rule:evenodd;fill:rgb(100%,100%,0%);fill-opacity:1;stroke-width:0.573;stroke-linecap:round;stroke-linejoin:round;stroke:rgb(0%,0%,0%);stroke-opacity:1;stroke-miterlimit:4;" d="M 328.808594 197.558594 C 329.003906 225.683594 314.550781 250.976562 302.929688 262.109375 C 286.523438 277.832031 264.84375 287.988281 239.355469 288.476562 C 211.035156 288.964844 184.277344 270.507812 177.148438 262.402344 C 163.085938 246.484375 151.660156 226.367188 151.269531 199.121094 C 153.027344 168.457031 165.039062 147.070312 182.519531 132.324219 C 200 117.675781 223.339844 110.546875 242.675781 111.035156 C 265.039062 111.621094 291.113281 122.65625 309.179688 144.433594 C 320.996094 158.691406 326.171875 174.121094 328.808594 197.558594 Z M 239.648438 101.269531 C 294.140625 101.269531 338.964844 145.605469 338.964844 199.902344 C 338.964844 254.296875 294.140625 298.632812 239.648438 298.632812 C 185.15625 298.632812 140.722656 254.296875 140.722656 199.902344 C 140.722656 145.605469 185.15625 101.269531 239.648438 101.269531 " transform="matrix(0.04,0,0,0.04,0,0)"/>
<path style="fill-rule:evenodd;fill:rgb(100%,100%,0%);fill-opacity:1;stroke-width:0.573;stroke-linecap:round;stroke-linejoin:round;stroke:rgb(0%,0%,0%);stroke-opacity:1;stroke-miterlimit:4;" d="M 239.941406 100.878906 C 294.433594 100.878906 338.964844 145.410156 338.964844 199.902344 C 338.964844 254.492188 294.433594 298.925781 239.941406 298.925781 C 185.351562 298.925781 140.917969 254.492188 140.917969 199.902344 C 140.917969 145.410156 185.351562 100.878906 239.941406 100.878906 Z M 143.066406 199.902344 C 143.066406 253.222656 186.816406 296.777344 239.941406 296.777344 C 292.96875 296.777344 336.71875 253.222656 336.71875 199.902344 C 336.71875 146.679688 292.96875 103.125 239.941406 103.125 C 186.816406 103.125 143.066406 146.679688 143.066406 199.902344 Z M 143.066406 199.902344 " transform="matrix(0.04,0,0,0.04,0,0)"/>
<path style="fill-rule:evenodd;fill:rgb(100%,100%,0%);fill-opacity:1;stroke-width:0.573;stroke-linecap:round;stroke-linejoin:round;stroke:rgb(0%,0%,0%);stroke-opacity:1;stroke-miterlimit:4;" d="M 239.941406 109.179688 C 289.746094 109.179688 330.664062 150 330.664062 199.804688 C 330.664062 249.707031 289.746094 290.527344 239.941406 290.527344 C 190.234375 290.527344 149.316406 249.707031 149.316406 199.804688 C 149.316406 150 190.234375 109.179688 239.941406 109.179688 Z M 151.464844 199.804688 C 151.464844 248.535156 191.40625 288.378906 239.941406 288.378906 C 288.574219 288.378906 328.515625 248.535156 328.515625 199.804688 C 328.515625 151.171875 288.574219 111.328125 239.941406 111.328125 C 191.40625 111.328125 151.464844 151.171875 151.464844 199.804688 Z M 151.464844 199.804688 " transform="matrix(0.04,0,0,0.04,0,0)"/>
<path style="fill-rule:evenodd;fill:rgb(100%,100%,0%);fill-opacity:1;stroke-width:0.573;stroke-linecap:round;stroke-linejoin:round;stroke:rgb(0%,0%,0%);stroke-opacity:1;stroke-miterlimit:4;" d="M 243.945312 100.488281 L 235.449219 100.488281 L 235.546875 299.511719 L 244.042969 299.511719 Z M 243.945312 100.488281 " transform="matrix(0.04,0,0,0.04,0,0)"/>
<path style="fill-rule:evenodd;fill:rgb(100%,100%,0%);fill-opacity:1;stroke-width:0.573;stroke-linecap:round;stroke-linejoin:round;stroke:rgb(0%,0%,0%);stroke-opacity:1;stroke-miterlimit:4;" d="M 243.164062 99.414062 L 245.3125 99.414062 L 245.3125 300.585938 L 243.164062 300.585938 Z M 234.667969 99.414062 L 236.914062 99.414062 L 236.914062 300.585938 L 234.667969 300.585938 Z M 234.667969 99.414062 " transform="matrix(0.04,0,0,0.04,0,0)"/>
<path style="fill-rule:evenodd;fill:rgb(100%,100%,0%);fill-opacity:1;stroke-width:0.573;stroke-linecap:round;stroke-linejoin:round;stroke:rgb(0%,0%,0%);stroke-opacity:1;stroke-miterlimit:4;" d="M 338.964844 203.808594 L 338.964844 196.386719 L 333.007812 190.820312 L 299.023438 181.835938 L 250 176.855469 L 191.015625 179.785156 L 149.023438 189.84375 L 140.527344 196.09375 L 140.527344 203.417969 L 162.011719 193.847656 L 212.988281 185.839844 L 262.011719 185.839844 L 298.046875 189.84375 L 323.046875 195.800781 Z M 338.964844 203.808594 " transform="matrix(0.04,0,0,0.04,0,0)"/>
<path style="fill-rule:evenodd;fill:rgb(100%,100%,0%);fill-opacity:1;stroke-width:0.573;stroke-linecap:round;stroke-linejoin:round;stroke:rgb(0%,0%,0%);stroke-opacity:1;stroke-miterlimit:4;" d="M 239.941406 184.570312 C 263.378906 184.570312 286.035156 186.816406 304.003906 190.332031 C 322.558594 194.042969 335.644531 198.632812 340.136719 203.90625 L 340.136719 206.445312 C 334.765625 200 317.1875 195.214844 303.613281 192.480469 C 285.742188 189.0625 263.183594 186.816406 239.941406 186.816406 C 215.429688 186.914062 192.578125 189.160156 175 192.675781 C 160.839844 195.410156 141.992188 200.976562 139.648438 206.445312 L 139.648438 203.808594 C 140.917969 200 154.980469 194.335938 174.609375 190.429688 C 192.382812 186.914062 215.234375 184.667969 239.941406 184.570312 Z M 239.941406 176.074219 C 263.378906 176.074219 286.035156 178.320312 304.003906 181.835938 C 322.558594 185.546875 335.644531 190.136719 340.136719 195.410156 L 340.136719 197.949219 C 334.765625 191.503906 317.1875 186.71875 303.613281 183.984375 C 285.742188 180.566406 263.183594 178.320312 239.941406 178.320312 C 215.429688 178.417969 192.675781 180.664062 175.097656 184.179688 C 161.425781 186.71875 141.894531 192.480469 139.648438 198.046875 L 139.648438 195.3125 C 140.917969 191.503906 155.273438 185.644531 174.609375 181.933594 C 192.382812 178.417969 215.234375 176.171875 239.941406 176.074219 Z M 239.453125 132.8125 C 276.367188 132.617188 308.496094 137.988281 323.144531 145.507812 L 328.515625 154.785156 C 315.722656 147.851562 281.054688 140.722656 239.550781 141.796875 C 205.664062 141.992188 169.53125 145.507812 151.367188 155.175781 L 157.714844 144.433594 C 172.65625 136.71875 207.8125 132.8125 239.453125 132.8125 " transform="matrix(0.04,0,0,0.04,0,0)"/>
<path style="fill-rule:evenodd;fill:rgb(100%,100%,0%);fill-opacity:1;stroke-width:0.573;stroke-linecap:round;stroke-linejoin:round;stroke:rgb(0%,0%,0%);stroke-opacity:1;stroke-miterlimit:4;" d="M 239.941406 140.429688 C 261.035156 140.429688 281.25 141.601562 297.460938 144.53125 C 312.5 147.265625 326.855469 151.464844 328.90625 153.710938 L 330.46875 156.542969 C 325.488281 153.320312 313.085938 149.707031 297.167969 146.679688 C 281.152344 143.652344 260.839844 142.675781 239.941406 142.675781 C 216.210938 142.578125 197.753906 143.847656 181.933594 146.679688 C 165.234375 149.804688 153.613281 154.199219 150.78125 156.347656 L 152.34375 153.417969 C 157.910156 150.585938 166.699219 147.167969 181.542969 144.433594 C 197.949219 141.503906 216.503906 140.625 239.941406 140.429688 Z M 239.941406 131.933594 C 260.058594 131.933594 279.980469 133.007812 295.410156 135.839844 C 307.617188 138.183594 319.726562 141.894531 324.121094 145.214844 L 326.464844 148.925781 C 322.460938 144.53125 307.617188 140.332031 294.433594 137.988281 C 279.101562 135.351562 260.058594 134.277344 239.941406 134.179688 C 218.847656 134.179688 199.316406 135.449219 184.179688 138.28125 C 169.726562 141.015625 160.449219 144.238281 156.542969 146.777344 L 158.59375 143.75 C 163.964844 140.820312 172.753906 138.183594 183.886719 136.035156 C 199.121094 133.300781 218.75 132.03125 239.941406 131.933594 Z M 289.160156 241.113281 C 270.898438 237.695312 252.636719 237.207031 239.941406 237.304688 C 178.515625 238.085938 158.691406 250 156.25 253.515625 L 151.660156 246.09375 C 167.285156 234.765625 200.78125 228.417969 240.234375 229.003906 C 260.742188 229.394531 278.515625 230.761719 293.359375 233.59375 L 289.160156 241.113281 " transform="matrix(0.04,0,0,0.04,0,0)"/>
<path style="fill-rule:evenodd;fill:rgb(100%,100%,0%);fill-opacity:1;stroke-width:0.55;stroke-linecap:round;stroke-linejoin:round;stroke:rgb(0%,0%,0%);stroke-opacity:1;stroke-miterlimit:4;" d="M 239.550781 236.328125 C 256.640625 236.523438 273.4375 237.207031 289.648438 240.234375 L 288.476562 242.382812 C 273.4375 239.550781 257.421875 238.476562 239.648438 238.574219 C 216.992188 238.378906 194.042969 240.527344 174.121094 246.289062 C 167.773438 248.046875 157.421875 252.050781 156.347656 255.371094 L 155.175781 253.515625 C 155.46875 251.464844 161.816406 247.363281 173.535156 244.042969 C 196.386719 237.5 217.773438 236.425781 239.550781 236.328125 Z M 240.332031 227.734375 C 258.007812 228.027344 276.367188 228.808594 294.140625 232.324219 L 292.871094 234.472656 C 276.855469 231.347656 261.523438 230.273438 240.429688 229.980469 C 217.773438 229.980469 193.652344 231.640625 171.679688 237.988281 C 164.648438 240.039062 152.34375 244.53125 151.953125 248.046875 L 150.78125 245.996094 C 151.074219 242.773438 161.621094 238.574219 171.191406 235.839844 C 193.261719 229.394531 217.480469 227.734375 240.332031 227.734375 Z M 240.332031 227.734375 " transform="matrix(0.04,0,0,0.04,0,0)"/>
<path style="fill-rule:evenodd;fill:rgb(100%,100%,0%);fill-opacity:1;stroke-width:0.573;stroke-linecap:round;stroke-linejoin:round;stroke:rgb(0%,0%,0%);stroke-opacity:1;stroke-miterlimit:4;" d="M 327.539062 247.167969 L 320.214844 258.691406 L 299.023438 239.84375 L 244.042969 202.832031 L 182.03125 168.847656 L 149.804688 157.8125 L 156.640625 145.117188 L 158.984375 143.847656 L 179.003906 148.828125 L 245.019531 182.8125 L 283.007812 206.835938 L 315.039062 229.785156 L 328.027344 244.824219 Z M 327.539062 247.167969 " transform="matrix(0.04,0,0,0.04,0,0)"/>
<path style="fill-rule:evenodd;fill:rgb(100%,100%,0%);fill-opacity:1;stroke-width:0.573;stroke-linecap:round;stroke-linejoin:round;stroke:rgb(0%,0%,0%);stroke-opacity:1;stroke-miterlimit:4;" d="M 148.632812 158.105469 C 154.296875 154.296875 195.800781 172.753906 239.160156 198.925781 C 282.519531 225.195312 323.925781 254.882812 320.117188 260.449219 L 318.945312 262.402344 L 318.359375 262.792969 C 318.457031 262.695312 319.140625 261.914062 318.261719 259.863281 C 316.40625 253.808594 287.109375 230.371094 238.378906 200.976562 C 190.917969 172.65625 151.367188 155.664062 147.363281 160.546875 Z M 329.101562 247.070312 C 332.617188 240.039062 294.140625 211.035156 246.484375 182.8125 C 197.65625 155.078125 162.5 138.867188 156.054688 143.652344 L 154.589844 146.289062 C 154.589844 146.386719 154.6875 146.09375 154.980469 145.898438 C 156.152344 144.824219 158.105469 144.921875 158.984375 144.921875 C 170.019531 145.019531 201.5625 159.570312 245.996094 185.058594 C 265.332031 196.386719 328.027344 236.523438 327.734375 247.851562 C 327.832031 248.828125 327.832031 249.023438 327.539062 249.511719 Z M 329.101562 247.070312 " transform="matrix(0.04,0,0,0.04,0,0)"/>
<path style="fill-rule:nonzero;fill:rgb(100%,100%,100%);fill-opacity:1;stroke-width:0.67;stroke-linecap:butt;stroke-linejoin:miter;stroke:rgb(0%,0%,0%);stroke-opacity:1;stroke-miterlimit:4;" d="M 180.566406 211.011844 C 180.566406 227.320437 187.304688 241.968875 198.046875 252.711062 C 208.886719 263.550906 223.535156 270.289188 239.84375 270.289188 C 256.25 270.289188 271.09375 263.648563 281.835938 252.906375 C 292.675781 242.164187 299.316406 227.418094 299.316406 211.1095 L 299.316406 131.910281 L 180.566406 131.714969 Z M 180.566406 211.011844 " transform="matrix(0.04,0,0,0.04,0,-0.00688)"/>
<path style="fill-rule:nonzero;fill:rgb(100%,0%,0%);fill-opacity:1;stroke-width:0.507;stroke-linecap:butt;stroke-linejoin:miter;stroke:rgb(0%,0%,0%);stroke-opacity:1;stroke-miterlimit:4;" d="M 182.8125 211.1095 L 182.8125 211.207156 C 182.8125 226.7345 189.257812 240.894656 199.609375 251.148562 C 209.960938 261.500125 224.21875 267.847781 239.84375 267.847781 C 255.46875 267.847781 269.726562 261.500125 280.078125 251.246219 C 290.332031 240.992312 296.679688 226.832156 296.777344 211.207156 L 296.679688 211.207156 L 296.679688 134.351687 L 182.910156 134.351687 L 182.8125 211.1095 M 273.828125 157.398562 L 273.828125 211.402469 C 273.828125 212.769656 273.730469 214.332156 273.535156 215.699344 C 272.65625 223.414187 269.042969 230.152469 263.769531 235.32825 C 257.617188 241.480594 249.121094 245.289187 239.746094 245.289187 C 230.46875 245.289187 222.167969 241.382937 215.917969 235.230594 C 209.570312 228.882937 205.957031 220.191531 205.957031 211.304812 L 205.859375 157.20325 Z M 273.828125 157.398562 " transform="matrix(0.04,0,0,0.04,0,-0.00688)"/>
<path style=" stroke:none;fill-rule:nonzero;fill:rgb(100%,100%,0%);fill-opacity:1;" d="M 7.609375 6.171875 C 7.613281 5.949219 7.769531 5.898438 7.769531 5.894531 C 7.773438 5.894531 7.941406 5.953125 7.941406 6.171875 L 7.609375 6.171875 "/>
<path style="fill-rule:nonzero;fill:rgb(100%,100%,0%);fill-opacity:1;stroke-width:0.5;stroke-linecap:butt;stroke-linejoin:miter;stroke:rgb(0%,0%,0%);stroke-opacity:1;stroke-miterlimit:4;" d="M 186.816406 147.730594 L 186.132812 154.07825 L 190.234375 154.07825 C 190.332031 148.804812 194.238281 147.925906 194.335938 147.925906 C 194.433594 147.925906 198.339844 149.097781 198.4375 154.07825 L 202.539062 154.07825 L 201.855469 147.632937 Z M 185.839844 154.07825 L 202.832031 154.07825 C 203.125 154.07825 203.417969 154.371219 203.417969 154.8595 C 203.417969 155.250125 203.125 155.64075 202.832031 155.64075 L 185.839844 155.64075 C 185.449219 155.64075 185.15625 155.250125 185.15625 154.8595 C 185.15625 154.371219 185.449219 154.07825 185.839844 154.07825 Z M 185.839844 154.07825 " transform="matrix(0.04,0,0,0.04,0,-0.00688)"/>
<path style="fill-rule:nonzero;fill:rgb(100%,100%,0%);fill-opacity:1;stroke-width:0.5;stroke-linecap:butt;stroke-linejoin:miter;stroke:rgb(0%,0%,0%);stroke-opacity:1;stroke-miterlimit:4;" d="M 191.992188 154.07825 C 191.992188 150.757937 194.238281 149.781375 194.238281 149.781375 C 194.238281 149.781375 196.582031 150.757937 196.679688 154.07825 L 191.992188 154.07825 M 186.230469 145.093875 L 202.441406 145.093875 C 202.832031 145.093875 203.125 145.386844 203.125 145.777469 C 203.125 146.168094 202.832031 146.461062 202.441406 146.461062 L 186.230469 146.461062 C 185.839844 146.461062 185.546875 146.168094 185.546875 145.777469 C 185.546875 145.386844 185.839844 145.093875 186.230469 145.093875 Z M 186.523438 146.461062 L 202.050781 146.461062 C 202.441406 146.461062 202.636719 146.754031 202.636719 147.144656 C 202.636719 147.535281 202.441406 147.925906 202.050781 147.925906 L 186.523438 147.925906 C 186.230469 147.925906 185.9375 147.535281 185.9375 147.144656 C 185.9375 146.754031 186.230469 146.461062 186.523438 146.461062 Z M 191.601562 135.914187 L 192.773438 135.914187 L 192.773438 136.793094 L 193.652344 136.793094 L 193.652344 135.816531 L 194.921875 135.914187 L 194.921875 136.793094 L 195.800781 136.793094 L 195.800781 135.816531 L 197.070312 135.816531 L 197.070312 137.867312 C 197.070312 138.160281 196.875 138.355594 196.582031 138.355594 L 192.1875 138.355594 C 191.894531 138.355594 191.601562 138.160281 191.601562 137.867312 Z M 196.191406 138.550906 L 196.484375 144.996219 L 192.1875 144.996219 L 192.480469 138.550906 L 196.191406 138.550906 " transform="matrix(0.04,0,0,0.04,0,-0.00688)"/>
<path style="fill-rule:nonzero;fill:rgb(100%,100%,0%);fill-opacity:1;stroke-width:0.5;stroke-linecap:butt;stroke-linejoin:miter;stroke:rgb(0%,0%,0%);stroke-opacity:1;stroke-miterlimit:4;" d="M 190.917969 141.57825 L 191.113281 144.996219 L 186.914062 144.996219 L 187.109375 141.57825 Z M 190.917969 141.57825 " transform="matrix(0.04,0,0,0.04,0,-0.00688)"/>
<path style="fill-rule:nonzero;fill:rgb(100%,100%,0%);fill-opacity:1;stroke-width:0.5;stroke-linecap:butt;stroke-linejoin:miter;stroke:rgb(0%,0%,0%);stroke-opacity:1;stroke-miterlimit:4;" d="M 190.9535 141.57825 L 191.051156 144.996219 L 186.949594 144.996219 L 187.04725 141.57825 Z M 190.9535 141.57825 " transform="matrix(0.04,0,0,0.04,0.42436,-0.00688)"/>
<path style="fill-rule:nonzero;fill:rgb(100%,100%,0%);fill-opacity:1;stroke-width:0.5;stroke-linecap:butt;stroke-linejoin:miter;stroke:rgb(0%,0%,0%);stroke-opacity:1;stroke-miterlimit:4;" d="M 186.328125 139.039187 L 187.5 139.039187 L 187.5 139.918094 L 188.378906 139.918094 L 188.378906 139.039187 L 189.648438 139.039187 L 189.648438 139.918094 L 190.527344 139.918094 L 190.527344 139.039187 L 191.699219 139.039187 L 191.699219 140.992312 C 191.699219 141.382937 191.503906 141.57825 191.210938 141.57825 L 186.816406 141.57825 C 186.523438 141.57825 186.328125 141.285281 186.328125 140.992312 Z M 186.328125 139.039187 " transform="matrix(0.04,0,0,0.04,0,-0.00688)"/>
<path style="fill-rule:nonzero;fill:rgb(100%,100%,0%);fill-opacity:1;stroke-width:0.5;stroke-linecap:butt;stroke-linejoin:miter;stroke:rgb(0%,0%,0%);stroke-opacity:1;stroke-miterlimit:4;" d="M 186.266 139.039187 L 187.535531 139.039187 L 187.535531 139.918094 L 188.414437 139.918094 L 188.414437 139.039187 L 189.586312 139.039187 L 189.586312 139.918094 L 190.465219 139.918094 L 190.465219 139.039187 L 191.73475 139.039187 L 191.73475 140.992312 C 191.73475 141.382937 191.441781 141.57825 191.148812 141.57825 L 186.851937 141.57825 C 186.558969 141.57825 186.266 141.285281 186.266 140.992312 Z M 186.266 139.039187 " transform="matrix(0.04,0,0,0.04,0.42436,-0.00688)"/>
<path style=" stroke:none;fill-rule:nonzero;fill:rgb(0%,0%,0%);fill-opacity:1;" d="M 7.757812 5.617188 C 7.753906 5.59375 7.792969 5.59375 7.789062 5.617188 L 7.789062 5.679688 L 7.757812 5.679688 L 7.757812 5.617188 "/>
<path style=" stroke:none;fill-rule:nonzero;fill:rgb(0%,0%,0%);fill-opacity:1;" d="M 7.542969 5.707031 C 7.542969 5.683594 7.578125 5.683594 7.574219 5.707031 L 7.574219 5.753906 L 7.542969 5.753906 L 7.542969 5.707031 "/>
<path style=" stroke:none;fill-rule:nonzero;fill:rgb(0%,0%,0%);fill-opacity:1;" d="M 7.96875 5.707031 C 7.96875 5.683594 8 5.683594 8 5.707031 L 8 5.753906 L 7.96875 5.753906 L 7.96875 5.707031 "/>
<path style=" stroke:none;fill-rule:nonzero;fill:rgb(100%,100%,0%);fill-opacity:1;" d="M 7.609375 8.023438 C 7.613281 7.800781 7.769531 7.75 7.769531 7.75 C 7.773438 7.75 7.941406 7.804688 7.941406 8.023438 L 7.609375 8.023438 "/>
<path style="fill-rule:nonzero;fill:rgb(100%,100%,0%);fill-opacity:1;stroke-width:0.5;stroke-linecap:butt;stroke-linejoin:miter;stroke:rgb(0%,0%,0%);stroke-opacity:1;stroke-miterlimit:4;" d="M 186.816406 147.699656 L 186.132812 154.047313 L 190.234375 154.047313 C 190.332031 148.773875 194.238281 147.894969 194.335938 147.894969 C 194.433594 147.894969 198.339844 149.066844 198.4375 154.047313 L 202.539062 154.047313 L 201.855469 147.602 Z M 185.839844 154.047313 L 202.832031 154.047313 C 203.125 154.047313 203.417969 154.437938 203.417969 154.828563 C 203.417969 155.316844 203.125 155.609813 202.832031 155.609813 L 185.839844 155.609813 C 185.449219 155.609813 185.15625 155.316844 185.15625 154.828563 C 185.15625 154.437938 185.449219 154.047313 185.839844 154.047313 Z M 185.839844 154.047313 " transform="matrix(0.04,0,0,0.04,0,1.84592)"/>
<path style="fill-rule:nonzero;fill:rgb(100%,100%,0%);fill-opacity:1;stroke-width:0.5;stroke-linecap:butt;stroke-linejoin:miter;stroke:rgb(0%,0%,0%);stroke-opacity:1;stroke-miterlimit:4;" d="M 191.992188 154.047313 C 191.992188 150.727 194.238281 149.750438 194.238281 149.750438 C 194.238281 149.750438 196.582031 150.727 196.679688 154.047313 L 191.992188 154.047313 M 186.230469 145.062938 L 202.441406 145.062938 C 202.832031 145.062938 203.125 145.355906 203.125 145.746531 C 203.125 146.137156 202.832031 146.430125 202.441406 146.430125 L 186.230469 146.430125 C 185.839844 146.430125 185.546875 146.137156 185.546875 145.746531 C 185.546875 145.355906 185.839844 145.062938 186.230469 145.062938 Z M 186.523438 146.430125 L 202.050781 146.430125 C 202.441406 146.430125 202.636719 146.82075 202.636719 147.211375 C 202.636719 147.602 202.441406 147.894969 202.050781 147.894969 L 186.523438 147.894969 C 186.230469 147.894969 185.9375 147.602 185.9375 147.211375 C 185.9375 146.82075 186.230469 146.430125 186.523438 146.430125 Z M 191.601562 135.88325 L 192.773438 135.88325 L 192.773438 136.762156 L 193.652344 136.762156 L 193.652344 135.88325 L 194.921875 135.88325 L 194.921875 136.762156 L 195.800781 136.762156 L 195.800781 135.88325 L 197.070312 135.88325 L 197.070312 137.836375 C 197.070312 138.227 196.875 138.422313 196.582031 138.422313 L 192.1875 138.422313 C 191.894531 138.422313 191.601562 138.129344 191.601562 137.836375 Z M 196.191406 138.617625 L 196.484375 145.062938 L 192.1875 144.965281 L 192.480469 138.519969 L 196.191406 138.617625 " transform="matrix(0.04,0,0,0.04,0,1.84592)"/>
<path style="fill-rule:nonzero;fill:rgb(100%,100%,0%);fill-opacity:1;stroke-width:0.5;stroke-linecap:butt;stroke-linejoin:miter;stroke:rgb(0%,0%,0%);stroke-opacity:1;stroke-miterlimit:4;" d="M 190.917969 141.547313 L 191.113281 145.062938 L 186.914062 145.062938 L 187.109375 141.547313 Z M 190.917969 141.547313 " transform="matrix(0.04,0,0,0.04,0,1.84592)"/>
<path style="fill-rule:nonzero;fill:rgb(100%,100%,0%);fill-opacity:1;stroke-width:0.5;stroke-linecap:butt;stroke-linejoin:miter;stroke:rgb(0%,0%,0%);stroke-opacity:1;stroke-miterlimit:4;" d="M 190.9535 141.547313 L 191.051156 145.062938 L 186.949594 145.062938 L 187.04725 141.547313 Z M 190.9535 141.547313 " transform="matrix(0.04,0,0,0.04,0.42436,1.84592)"/>
<path style="fill-rule:nonzero;fill:rgb(100%,100%,0%);fill-opacity:1;stroke-width:0.5;stroke-linecap:butt;stroke-linejoin:miter;stroke:rgb(0%,0%,0%);stroke-opacity:1;stroke-miterlimit:4;" d="M 186.328125 139.00825 L 187.5 139.00825 L 187.5 139.887156 L 188.378906 139.887156 L 188.378906 139.00825 L 189.648438 139.00825 L 189.648438 139.887156 L 190.527344 139.887156 L 190.527344 139.00825 L 191.699219 139.00825 L 191.699219 141.059031 C 191.699219 141.352 191.503906 141.547313 191.210938 141.547313 L 186.816406 141.547313 C 186.523438 141.547313 186.328125 141.352 186.328125 141.059031 Z M 186.328125 139.00825 " transform="matrix(0.04,0,0,0.04,0,1.84592)"/>
<path style="fill-rule:nonzero;fill:rgb(100%,100%,0%);fill-opacity:1;stroke-width:0.5;stroke-linecap:butt;stroke-linejoin:miter;stroke:rgb(0%,0%,0%);stroke-opacity:1;stroke-miterlimit:4;" d="M 186.266 139.00825 L 187.535531 139.00825 L 187.535531 139.887156 L 188.414437 139.887156 L 188.414437 139.00825 L 189.586312 139.00825 L 189.586312 139.887156 L 190.465219 139.887156 L 190.465219 139.00825 L 191.73475 139.00825 L 191.73475 141.059031 C 191.73475 141.352 191.441781 141.547313 191.148812 141.547313 L 186.851937 141.547313 C 186.558969 141.547313 186.266 141.352 186.266 141.059031 Z M 186.266 139.00825 " transform="matrix(0.04,0,0,0.04,0.42436,1.84592)"/>
<path style=" stroke:none;fill-rule:nonzero;fill:rgb(0%,0%,0%);fill-opacity:1;" d="M 7.757812 7.46875 C 7.753906 7.445312 7.792969 7.445312 7.789062 7.46875 L 7.789062 7.53125 L 7.757812 7.53125 L 7.757812 7.46875 "/>
<path style=" stroke:none;fill-rule:nonzero;fill:rgb(0%,0%,0%);fill-opacity:1;" d="M 7.542969 7.558594 C 7.542969 7.535156 7.578125 7.535156 7.574219 7.558594 L 7.574219 7.605469 L 7.542969 7.605469 L 7.542969 7.558594 "/>
<path style=" stroke:none;fill-rule:nonzero;fill:rgb(0%,0%,0%);fill-opacity:1;" d="M 7.96875 7.558594 C 7.96875 7.535156 8 7.535156 8 7.558594 L 8 7.605469 L 7.96875 7.605469 L 7.96875 7.558594 "/>
<path style=" stroke:none;fill-rule:nonzero;fill:rgb(100%,100%,0%);fill-opacity:1;" d="M 8.328125 9.953125 C 8.175781 9.792969 8.25 9.644531 8.25 9.644531 C 8.25 9.640625 8.410156 9.5625 8.566406 9.71875 L 8.328125 9.953125 "/>
<path style="fill-rule:nonzero;fill:rgb(100%,100%,0%);fill-opacity:1;stroke-width:0.5;stroke-linecap:butt;stroke-linejoin:miter;stroke:rgb(0%,0%,0%);stroke-opacity:1;stroke-miterlimit:4;" d="M 186.770702 147.711926 L 186.127071 153.993555 L 190.270249 154.008162 C 190.288752 148.760137 194.227936 147.876325 194.296745 147.945621 C 194.434851 147.946108 198.297922 149.064589 198.4185 154.036889 L 202.561678 154.051497 L 201.824736 147.626893 Z M 185.85086 153.992581 L 202.83789 154.05247 C 203.114101 154.053444 203.458149 154.399926 203.456688 154.814244 C 203.455228 155.228562 203.177555 155.641906 202.763237 155.640445 L 185.845017 155.649852 C 185.499995 155.579582 185.224757 155.302397 185.157408 154.818782 C 185.158869 154.404464 185.505351 154.060417 185.85086 153.992581 Z M 185.85086 153.992581 " transform="matrix(0.0281844,-0.0283838,0.0283838,0.0281844,-1.413675,10.997471)"/>
<path style="fill-rule:nonzero;fill:rgb(100%,100%,0%);fill-opacity:1;stroke-width:0.5;stroke-linecap:butt;stroke-linejoin:miter;stroke:rgb(0%,0%,0%);stroke-opacity:1;stroke-miterlimit:4;" d="M 191.99633 154.083301 C 192.077312 150.699949 194.290416 149.740998 194.290416 149.740998 C 194.290416 149.740998 196.634808 150.716017 196.623123 154.03056 L 191.99633 154.083301 M 186.22753 145.085966 L 202.45522 145.074124 C 202.800729 145.006288 203.07548 145.42158 203.074506 145.697792 C 203.073045 146.112109 202.795373 146.525453 202.450351 146.455183 L 186.222661 146.467025 C 185.808343 146.465564 185.602401 146.119569 185.603862 145.705251 C 185.536026 145.359743 185.882508 145.015695 186.22753 145.085966 Z M 186.498873 146.467999 L 202.036034 146.453722 C 202.450351 146.455183 202.656293 146.801178 202.724129 147.146687 C 202.722668 147.561004 202.376186 147.905052 202.099974 147.904078 L 186.562813 147.918355 C 186.217792 147.848084 185.942554 147.570899 185.944014 147.156581 C 185.945475 146.742263 186.222661 146.467025 186.498873 146.467999 Z M 191.576987 135.920667 L 192.819941 135.925049 L 192.817019 136.753685 L 193.645655 136.756606 L 193.717873 135.859161 L 194.960826 135.863543 L 194.888608 136.760988 L 195.85535 136.764396 L 195.789462 135.866464 L 197.101712 135.802037 L 197.094408 137.873626 C 197.093434 138.149838 196.816249 138.425076 196.540037 138.424102 L 192.120647 138.408521 C 191.844435 138.407547 191.569197 138.130362 191.570171 137.85415 Z M 196.194041 138.630044 L 196.447856 144.983891 L 192.166572 144.968797 L 192.396372 138.547601 L 196.194041 138.630044 " transform="matrix(0.0281844,-0.0283838,0.0283838,0.0281844,-1.413675,10.997471)"/>
<path style="fill-rule:nonzero;fill:rgb(100%,100%,0%);fill-opacity:1;stroke-width:0.5;stroke-linecap:butt;stroke-linejoin:miter;stroke:rgb(0%,0%,0%);stroke-opacity:1;stroke-miterlimit:4;" d="M 190.935791 141.511766 L 191.130534 145.034198 L 186.987356 145.019591 L 187.068825 141.498133 Z M 190.935791 141.511766 " transform="matrix(0.0281844,-0.0283838,0.0283838,0.0281844,-1.413675,10.997471)"/>
<path style="fill-rule:nonzero;fill:rgb(100%,100%,0%);fill-opacity:1;stroke-width:0.5;stroke-linecap:butt;stroke-linejoin:miter;stroke:rgb(0%,0%,0%);stroke-opacity:1;stroke-miterlimit:4;" d="M 190.960948 141.549258 L 191.086881 145.002393 L 186.943703 144.987786 L 187.093982 141.535624 Z M 190.960948 141.549258 " transform="matrix(0.0281844,-0.0283838,0.0283838,0.0281844,-1.114667,10.696347)"/>
<path style="fill-rule:nonzero;fill:rgb(100%,100%,0%);fill-opacity:1;stroke-width:0.5;stroke-linecap:butt;stroke-linejoin:miter;stroke:rgb(0%,0%,0%);stroke-opacity:1;stroke-miterlimit:4;" d="M 186.317763 139.078601 L 187.491907 139.013687 L 187.557795 139.911619 L 188.386431 139.91454 L 188.320542 139.016608 L 189.563496 139.02099 L 189.629384 139.918922 L 190.45802 139.921844 L 190.530237 139.024399 L 191.773191 139.028781 L 191.697078 141.031073 C 191.696104 141.307285 191.488215 141.513714 191.142706 141.581549 L 186.861422 141.566455 C 186.585211 141.565482 186.309973 141.288296 186.310946 141.012084 Z M 186.317763 139.078601 " transform="matrix(0.0281844,-0.0283838,0.0283838,0.0281844,-1.413675,10.997471)"/>
<path style="fill-rule:nonzero;fill:rgb(100%,100%,0%);fill-opacity:1;stroke-width:0.5;stroke-linecap:butt;stroke-linejoin:miter;stroke:rgb(0%,0%,0%);stroke-opacity:1;stroke-miterlimit:4;" d="M 186.27411 139.046796 L 187.517064 139.051178 L 187.514142 139.879814 L 188.342778 139.882735 L 188.345699 139.0541 L 189.588653 139.058482 L 189.585731 139.887117 L 190.483177 139.959335 L 190.486585 138.992594 L 191.729538 138.996976 L 191.722235 141.068565 C 191.721261 141.344777 191.513372 141.551205 191.23716 141.550231 L 186.81777 141.534651 C 186.541558 141.533677 186.335129 141.325787 186.336103 141.049576 Z M 186.27411 139.046796 " transform="matrix(0.0281844,-0.0283838,0.0283838,0.0281844,-1.114667,10.696347)"/>
<path style=" stroke:none;fill-rule:nonzero;fill:rgb(0%,0%,0%);fill-opacity:1;" d="M 8.042969 9.457031 C 8.023438 9.441406 8.050781 9.414062 8.066406 9.433594 L 8.109375 9.476562 L 8.085938 9.5 L 8.042969 9.457031 "/>
<path style=" stroke:none;fill-rule:nonzero;fill:rgb(0%,0%,0%);fill-opacity:1;" d="M 7.957031 9.671875 C 7.9375 9.652344 7.960938 9.628906 7.980469 9.648438 L 8.011719 9.679688 L 7.988281 9.703125 L 7.957031 9.671875 "/>
<path style=" stroke:none;fill-rule:nonzero;fill:rgb(0%,0%,0%);fill-opacity:1;" d="M 8.253906 9.367188 C 8.238281 9.351562 8.261719 9.328125 8.277344 9.34375 L 8.3125 9.378906 L 8.289062 9.402344 L 8.253906 9.367188 "/>
<path style=" stroke:none;fill-rule:nonzero;fill:rgb(100%,100%,0%);fill-opacity:1;" d="M 9.4375 6.171875 C 9.441406 5.949219 9.597656 5.898438 9.597656 5.894531 C 9.601562 5.894531 9.769531 5.953125 9.769531 6.171875 L 9.4375 6.171875 "/>
<path style="fill-rule:nonzero;fill:rgb(100%,100%,0%);fill-opacity:1;stroke-width:0.5;stroke-linecap:butt;stroke-linejoin:miter;stroke:rgb(0%,0%,0%);stroke-opacity:1;stroke-miterlimit:4;" d="M 186.805531 147.730594 L 186.121938 154.07825 L 190.2235 154.07825 C 190.321156 148.804812 194.227406 147.925906 194.325063 147.925906 C 194.422719 147.925906 198.328969 149.097781 198.426625 154.07825 L 202.625844 154.07825 L 201.844594 147.632937 Z M 185.828969 154.07825 L 202.821156 154.07825 C 203.114125 154.07825 203.407094 154.371219 203.407094 154.8595 C 203.407094 155.250125 203.114125 155.64075 202.821156 155.64075 L 185.828969 155.64075 C 185.536 155.64075 185.243031 155.250125 185.243031 154.8595 C 185.243031 154.371219 185.536 154.07825 185.828969 154.07825 Z M 185.828969 154.07825 " transform="matrix(0.04,0,0,0.04,1.82856,-0.00688)"/>
<path style="fill-rule:nonzero;fill:rgb(100%,100%,0%);fill-opacity:1;stroke-width:0.5;stroke-linecap:butt;stroke-linejoin:miter;stroke:rgb(0%,0%,0%);stroke-opacity:1;stroke-miterlimit:4;" d="M 191.981313 154.07825 C 191.981313 150.757937 194.227406 149.781375 194.325063 149.781375 C 194.325063 149.781375 196.668813 150.757937 196.668813 154.07825 L 191.981313 154.07825 M 186.219594 145.093875 L 202.430531 145.093875 C 202.821156 145.093875 203.114125 145.386844 203.114125 145.777469 C 203.114125 146.168094 202.821156 146.461062 202.430531 146.461062 L 186.219594 146.461062 C 185.828969 146.461062 185.633656 146.168094 185.633656 145.777469 C 185.633656 145.386844 185.828969 145.093875 186.219594 145.093875 Z M 186.512563 146.461062 L 202.039906 146.461062 C 202.430531 146.461062 202.7235 146.754031 202.7235 147.144656 C 202.7235 147.535281 202.430531 147.925906 202.039906 147.925906 L 186.512563 147.925906 C 186.219594 147.925906 185.926625 147.535281 185.926625 147.144656 C 185.926625 146.754031 186.219594 146.461062 186.512563 146.461062 Z M 191.590688 135.914187 L 192.762563 135.914187 L 192.762563 136.793094 L 193.739125 136.793094 L 193.739125 135.816531 L 194.911 135.914187 L 194.911 136.793094 L 195.887563 136.793094 L 195.887563 135.816531 L 197.059438 135.816531 L 197.059438 137.867312 C 197.059438 138.160281 196.864125 138.355594 196.571156 138.355594 L 192.176625 138.355594 C 191.883656 138.355594 191.590688 138.160281 191.590688 137.867312 Z M 196.180531 138.550906 L 196.4735 144.996219 L 192.176625 144.996219 L 192.469594 138.550906 L 196.180531 138.550906 " transform="matrix(0.04,0,0,0.04,1.82856,-0.00688)"/>
<path style="fill-rule:nonzero;fill:rgb(100%,100%,0%);fill-opacity:1;stroke-width:0.5;stroke-linecap:butt;stroke-linejoin:miter;stroke:rgb(0%,0%,0%);stroke-opacity:1;stroke-miterlimit:4;" d="M 190.907094 141.57825 L 191.102406 144.996219 L 186.903188 144.996219 L 187.0985 141.57825 Z M 190.907094 141.57825 " transform="matrix(0.04,0,0,0.04,1.82856,-0.00688)"/>
<path style="fill-rule:nonzero;fill:rgb(100%,100%,0%);fill-opacity:1;stroke-width:0.5;stroke-linecap:butt;stroke-linejoin:miter;stroke:rgb(0%,0%,0%);stroke-opacity:1;stroke-miterlimit:4;" d="M 190.942625 141.57825 L 191.040281 144.996219 L 186.938719 144.996219 L 187.036375 141.57825 Z M 190.942625 141.57825 " transform="matrix(0.04,0,0,0.04,2.25292,-0.00688)"/>
<path style="fill-rule:nonzero;fill:rgb(100%,100%,0%);fill-opacity:1;stroke-width:0.5;stroke-linecap:butt;stroke-linejoin:miter;stroke:rgb(0%,0%,0%);stroke-opacity:1;stroke-miterlimit:4;" d="M 186.31725 139.039187 L 187.489125 139.039187 L 187.489125 139.918094 L 188.368031 139.918094 L 188.368031 139.039187 L 189.637563 139.039187 L 189.637563 139.918094 L 190.516469 139.918094 L 190.516469 139.039187 L 191.688344 139.039187 L 191.688344 140.992312 C 191.688344 141.382937 191.493031 141.57825 191.200063 141.57825 L 186.903188 141.57825 C 186.610219 141.57825 186.31725 141.285281 186.31725 140.992312 Z M 186.31725 139.039187 " transform="matrix(0.04,0,0,0.04,1.82856,-0.00688)"/>
<path style="fill-rule:nonzero;fill:rgb(100%,100%,0%);fill-opacity:1;stroke-width:0.5;stroke-linecap:butt;stroke-linejoin:miter;stroke:rgb(0%,0%,0%);stroke-opacity:1;stroke-miterlimit:4;" d="M 186.255125 139.039187 L 187.524656 139.039187 L 187.524656 139.918094 L 188.403562 139.918094 L 188.403562 139.039187 L 189.575437 139.039187 L 189.575437 139.918094 L 190.454344 139.918094 L 190.454344 139.039187 L 191.723875 139.039187 L 191.723875 140.992312 C 191.723875 141.382937 191.430906 141.57825 191.137937 141.57825 L 186.841062 141.57825 C 186.548094 141.57825 186.255125 141.285281 186.255125 140.992312 Z M 186.255125 139.039187 " transform="matrix(0.04,0,0,0.04,2.25292,-0.00688)"/>
<path style=" stroke:none;fill-rule:nonzero;fill:rgb(0%,0%,0%);fill-opacity:1;" d="M 9.585938 5.617188 C 9.582031 5.59375 9.621094 5.59375 9.621094 5.617188 L 9.621094 5.679688 L 9.585938 5.679688 L 9.585938 5.617188 "/>
<path style=" stroke:none;fill-rule:nonzero;fill:rgb(0%,0%,0%);fill-opacity:1;" d="M 9.371094 5.707031 C 9.371094 5.683594 9.40625 5.683594 9.40625 5.707031 L 9.40625 5.753906 L 9.371094 5.753906 L 9.371094 5.707031 "/>
<path style=" stroke:none;fill-rule:nonzero;fill:rgb(0%,0%,0%);fill-opacity:1;" d="M 9.796875 5.707031 C 9.796875 5.683594 9.832031 5.683594 9.828125 5.707031 L 9.828125 5.753906 L 9.796875 5.753906 L 9.796875 5.707031 "/>
<path style=" stroke:none;fill-rule:nonzero;fill:rgb(100%,100%,0%);fill-opacity:1;" d="M 11.585938 6.171875 C 11.578125 5.949219 11.421875 5.898438 11.421875 5.894531 C 11.417969 5.894531 11.25 5.953125 11.253906 6.171875 L 11.585938 6.171875 "/>
<path style="fill-rule:nonzero;fill:rgb(100%,100%,0%);fill-opacity:1;stroke-width:0.5;stroke-linecap:butt;stroke-linejoin:miter;stroke:rgb(0%,0%,0%);stroke-opacity:1;stroke-miterlimit:4;" d="M 186.82325 147.730594 L 186.139656 154.07825 L 190.241219 154.07825 C 190.338875 148.804812 194.245125 147.925906 194.342781 147.925906 C 194.440437 147.925906 198.346687 149.097781 198.444344 154.07825 L 202.545906 154.07825 L 201.862312 147.632937 Z M 185.846687 154.07825 L 202.838875 154.07825 C 203.131844 154.07825 203.424812 154.371219 203.424812 154.8595 C 203.424812 155.250125 203.131844 155.64075 202.838875 155.64075 L 185.846687 155.64075 C 185.456062 155.64075 185.163094 155.250125 185.163094 154.8595 C 185.163094 154.371219 185.456062 154.07825 185.846687 154.07825 Z M 185.846687 154.07825 " transform="matrix(-0.04,0,0,0.04,19.19168,-0.00688)"/>
<path style="fill-rule:nonzero;fill:rgb(100%,100%,0%);fill-opacity:1;stroke-width:0.5;stroke-linecap:butt;stroke-linejoin:miter;stroke:rgb(0%,0%,0%);stroke-opacity:1;stroke-miterlimit:4;" d="M 191.999031 154.07825 C 191.999031 150.757937 194.245125 149.781375 194.245125 149.781375 C 194.245125 149.781375 196.588875 150.757937 196.686531 154.07825 L 191.999031 154.07825 M 186.237312 145.093875 L 202.44825 145.093875 C 202.838875 145.093875 203.034187 145.386844 203.034187 145.777469 C 203.034187 146.168094 202.838875 146.461062 202.44825 146.461062 L 186.237312 146.461062 C 185.846687 146.461062 185.553719 146.168094 185.553719 145.777469 C 185.553719 145.386844 185.846687 145.093875 186.237312 145.093875 Z M 186.530281 146.461062 L 202.057625 146.461062 C 202.44825 146.461062 202.643562 146.754031 202.643562 147.144656 C 202.643562 147.535281 202.44825 147.925906 202.057625 147.925906 L 186.530281 147.925906 C 186.237312 147.925906 185.944344 147.535281 185.944344 147.144656 C 185.944344 146.754031 186.237312 146.461062 186.530281 146.461062 Z M 191.608406 135.914187 L 192.780281 135.914187 L 192.780281 136.793094 L 193.659187 136.793094 L 193.659187 135.816531 L 194.928719 135.914187 L 194.928719 136.793094 L 195.807625 136.793094 L 195.807625 135.816531 L 197.077156 135.816531 L 197.077156 137.867312 C 197.077156 138.160281 196.881844 138.355594 196.588875 138.355594 L 192.096687 138.355594 C 191.803719 138.355594 191.608406 138.160281 191.608406 137.867312 Z M 196.19825 138.550906 L 196.491219 144.996219 L 192.194344 144.996219 L 192.487312 138.550906 L 196.19825 138.550906 " transform="matrix(-0.04,0,0,0.04,19.19168,-0.00688)"/>
<path style="fill-rule:nonzero;fill:rgb(100%,100%,0%);fill-opacity:1;stroke-width:0.5;stroke-linecap:butt;stroke-linejoin:miter;stroke:rgb(0%,0%,0%);stroke-opacity:1;stroke-miterlimit:4;" d="M 190.924812 141.57825 L 191.022469 144.996219 L 186.920906 144.996219 L 187.018562 141.57825 Z M 190.924812 141.57825 " transform="matrix(-0.04,0,0,0.04,19.19168,-0.00688)"/>
<path style="fill-rule:nonzero;fill:rgb(100%,100%,0%);fill-opacity:1;stroke-width:0.5;stroke-linecap:butt;stroke-linejoin:miter;stroke:rgb(0%,0%,0%);stroke-opacity:1;stroke-miterlimit:4;" d="M 190.960344 141.57825 L 191.058 144.996219 L 186.956437 144.996219 L 187.054094 141.57825 Z M 190.960344 141.57825 " transform="matrix(-0.04,0,0,0.04,18.76732,-0.00688)"/>
<path style="fill-rule:nonzero;fill:rgb(100%,100%,0%);fill-opacity:1;stroke-width:0.5;stroke-linecap:butt;stroke-linejoin:miter;stroke:rgb(0%,0%,0%);stroke-opacity:1;stroke-miterlimit:4;" d="M 186.334969 139.039187 L 187.506844 139.039187 L 187.506844 139.918094 L 188.38575 139.918094 L 188.38575 139.039187 L 189.655281 139.039187 L 189.655281 139.918094 L 190.534187 139.918094 L 190.534187 139.039187 L 191.706062 139.039187 L 191.706062 140.992312 C 191.706062 141.382937 191.51075 141.57825 191.217781 141.57825 L 186.82325 141.57825 C 186.530281 141.57825 186.334969 141.285281 186.334969 140.992312 Z M 186.334969 139.039187 " transform="matrix(-0.04,0,0,0.04,19.19168,-0.00688)"/>
<path style="fill-rule:nonzero;fill:rgb(100%,100%,0%);fill-opacity:1;stroke-width:0.5;stroke-linecap:butt;stroke-linejoin:miter;stroke:rgb(0%,0%,0%);stroke-opacity:1;stroke-miterlimit:4;" d="M 186.272844 139.039187 L 187.542375 139.039187 L 187.542375 139.918094 L 188.421281 139.918094 L 188.421281 139.039187 L 189.593156 139.039187 L 189.593156 139.918094 L 190.472062 139.918094 L 190.472062 139.039187 L 191.741594 139.039187 L 191.741594 140.992312 C 191.741594 141.382937 191.448625 141.57825 191.155656 141.57825 L 186.858781 141.57825 C 186.565812 141.57825 186.272844 141.285281 186.272844 140.992312 Z M 186.272844 139.039187 " transform="matrix(-0.04,0,0,0.04,18.76732,-0.00688)"/>
<path style=" stroke:none;fill-rule:nonzero;fill:rgb(0%,0%,0%);fill-opacity:1;" d="M 11.4375 5.617188 C 11.4375 5.59375 11.402344 5.59375 11.402344 5.617188 L 11.402344 5.679688 L 11.4375 5.679688 L 11.4375 5.617188 "/>
<path style=" stroke:none;fill-rule:nonzero;fill:rgb(0%,0%,0%);fill-opacity:1;" d="M 11.648438 5.707031 C 11.648438 5.683594 11.617188 5.683594 11.617188 5.707031 L 11.617188 5.753906 L 11.648438 5.753906 L 11.648438 5.707031 "/>
<path style=" stroke:none;fill-rule:nonzero;fill:rgb(0%,0%,0%);fill-opacity:1;" d="M 11.222656 5.707031 C 11.222656 5.683594 11.191406 5.683594 11.191406 5.707031 L 11.191406 5.753906 L 11.222656 5.753906 L 11.222656 5.707031 "/>
<path style=" stroke:none;fill-rule:nonzero;fill:rgb(100%,100%,0%);fill-opacity:1;" d="M 11.585938 8.023438 C 11.578125 7.800781 11.421875 7.75 11.421875 7.75 C 11.417969 7.75 11.25 7.804688 11.253906 8.023438 L 11.585938 8.023438 "/>
<path style="fill-rule:nonzero;fill:rgb(100%,100%,0%);fill-opacity:1;stroke-width:0.5;stroke-linecap:butt;stroke-linejoin:miter;stroke:rgb(0%,0%,0%);stroke-opacity:1;stroke-miterlimit:4;" d="M 186.82325 147.699656 L 186.139656 154.047313 L 190.241219 154.047313 C 190.338875 148.773875 194.245125 147.894969 194.342781 147.894969 C 194.440437 147.894969 198.346687 149.066844 198.444344 154.047313 L 202.545906 154.047313 L 201.862312 147.602 Z M 185.846687 154.047313 L 202.838875 154.047313 C 203.131844 154.047313 203.424812 154.437938 203.424812 154.828563 C 203.424812 155.316844 203.131844 155.609813 202.838875 155.609813 L 185.846687 155.609813 C 185.456062 155.609813 185.163094 155.316844 185.163094 154.828563 C 185.163094 154.437938 185.456062 154.047313 185.846687 154.047313 Z M 185.846687 154.047313 " transform="matrix(-0.04,0,0,0.04,19.19168,1.84592)"/>
<path style="fill-rule:nonzero;fill:rgb(100%,100%,0%);fill-opacity:1;stroke-width:0.5;stroke-linecap:butt;stroke-linejoin:miter;stroke:rgb(0%,0%,0%);stroke-opacity:1;stroke-miterlimit:4;" d="M 191.999031 154.047313 C 191.999031 150.727 194.245125 149.750438 194.245125 149.750438 C 194.245125 149.750438 196.588875 150.727 196.686531 154.047313 L 191.999031 154.047313 M 186.237312 145.062938 L 202.44825 145.062938 C 202.838875 145.062938 203.034187 145.355906 203.034187 145.746531 C 203.034187 146.137156 202.838875 146.430125 202.44825 146.430125 L 186.237312 146.430125 C 185.846687 146.430125 185.553719 146.137156 185.553719 145.746531 C 185.553719 145.355906 185.846687 145.062938 186.237312 145.062938 Z M 186.530281 146.430125 L 202.057625 146.430125 C 202.44825 146.430125 202.643562 146.82075 202.643562 147.211375 C 202.643562 147.602 202.44825 147.894969 202.057625 147.894969 L 186.530281 147.894969 C 186.237312 147.894969 185.944344 147.602 185.944344 147.211375 C 185.944344 146.82075 186.237312 146.430125 186.530281 146.430125 Z M 191.608406 135.88325 L 192.780281 135.88325 L 192.780281 136.762156 L 193.659187 136.762156 L 193.659187 135.88325 L 194.928719 135.88325 L 194.928719 136.762156 L 195.807625 136.762156 L 195.807625 135.88325 L 197.077156 135.88325 L 197.077156 137.836375 C 197.077156 138.227 196.881844 138.422313 196.588875 138.422313 L 192.096687 138.422313 C 191.803719 138.422313 191.608406 138.129344 191.608406 137.836375 Z M 196.19825 138.617625 L 196.491219 145.062938 L 192.194344 144.965281 L 192.487312 138.519969 L 196.19825 138.617625 " transform="matrix(-0.04,0,0,0.04,19.19168,1.84592)"/>
<path style="fill-rule:nonzero;fill:rgb(100%,100%,0%);fill-opacity:1;stroke-width:0.5;stroke-linecap:butt;stroke-linejoin:miter;stroke:rgb(0%,0%,0%);stroke-opacity:1;stroke-miterlimit:4;" d="M 190.924812 141.547313 L 191.022469 145.062938 L 186.920906 145.062938 L 187.018562 141.547313 Z M 190.924812 141.547313 " transform="matrix(-0.04,0,0,0.04,19.19168,1.84592)"/>
<path style="fill-rule:nonzero;fill:rgb(100%,100%,0%);fill-opacity:1;stroke-width:0.5;stroke-linecap:butt;stroke-linejoin:miter;stroke:rgb(0%,0%,0%);stroke-opacity:1;stroke-miterlimit:4;" d="M 190.960344 141.547313 L 191.058 145.062938 L 186.956437 145.062938 L 187.054094 141.547313 Z M 190.960344 141.547313 " transform="matrix(-0.04,0,0,0.04,18.76732,1.84592)"/>
<path style="fill-rule:nonzero;fill:rgb(100%,100%,0%);fill-opacity:1;stroke-width:0.5;stroke-linecap:butt;stroke-linejoin:miter;stroke:rgb(0%,0%,0%);stroke-opacity:1;stroke-miterlimit:4;" d="M 186.334969 139.00825 L 187.506844 139.00825 L 187.506844 139.887156 L 188.38575 139.887156 L 188.38575 139.00825 L 189.655281 139.00825 L 189.655281 139.887156 L 190.534187 139.887156 L 190.534187 139.00825 L 191.706062 139.00825 L 191.706062 141.059031 C 191.706062 141.352 191.51075 141.547313 191.217781 141.547313 L 186.82325 141.547313 C 186.530281 141.547313 186.334969 141.352 186.334969 141.059031 Z M 186.334969 139.00825 " transform="matrix(-0.04,0,0,0.04,19.19168,1.84592)"/>
<path style="fill-rule:nonzero;fill:rgb(100%,100%,0%);fill-opacity:1;stroke-width:0.5;stroke-linecap:butt;stroke-linejoin:miter;stroke:rgb(0%,0%,0%);stroke-opacity:1;stroke-miterlimit:4;" d="M 186.272844 139.00825 L 187.542375 139.00825 L 187.542375 139.887156 L 188.421281 139.887156 L 188.421281 139.00825 L 189.593156 139.00825 L 189.593156 139.887156 L 190.472062 139.887156 L 190.472062 139.00825 L 191.741594 139.00825 L 191.741594 141.059031 C 191.741594 141.352 191.448625 141.547313 191.155656 141.547313 L 186.858781 141.547313 C 186.565812 141.547313 186.272844 141.352 186.272844 141.059031 Z M 186.272844 139.00825 " transform="matrix(-0.04,0,0,0.04,18.76732,1.84592)"/>
<path style=" stroke:none;fill-rule:nonzero;fill:rgb(0%,0%,0%);fill-opacity:1;" d="M 11.4375 7.46875 C 11.4375 7.445312 11.402344 7.445312 11.402344 7.46875 L 11.402344 7.53125 L 11.4375 7.53125 L 11.4375 7.46875 "/>
<path style=" stroke:none;fill-rule:nonzero;fill:rgb(0%,0%,0%);fill-opacity:1;" d="M 11.648438 7.558594 C 11.648438 7.535156 11.617188 7.535156 11.617188 7.558594 L 11.617188 7.605469 L 11.648438 7.605469 L 11.648438 7.558594 "/>
<path style=" stroke:none;fill-rule:nonzero;fill:rgb(0%,0%,0%);fill-opacity:1;" d="M 11.222656 7.558594 C 11.222656 7.535156 11.191406 7.535156 11.191406 7.558594 L 11.191406 7.605469 L 11.222656 7.605469 L 11.222656 7.558594 "/>
<path style=" stroke:none;fill-rule:nonzero;fill:rgb(100%,100%,0%);fill-opacity:1;" d="M 10.863281 9.953125 C 11.015625 9.792969 10.941406 9.644531 10.941406 9.644531 C 10.941406 9.640625 10.78125 9.5625 10.625 9.71875 L 10.863281 9.953125 "/>
<path style="fill-rule:nonzero;fill:rgb(100%,100%,0%);fill-opacity:1;stroke-width:0.5;stroke-linecap:butt;stroke-linejoin:miter;stroke:rgb(0%,0%,0%);stroke-opacity:1;stroke-miterlimit:4;" d="M 186.775524 147.716782 L 186.131894 153.998411 L 190.275072 154.013018 C 190.293574 148.764993 194.232758 147.881181 194.301568 147.950477 C 194.439673 147.950964 198.302744 149.069445 198.423322 154.041746 L 202.5665 154.056353 L 201.829558 147.631749 Z M 185.855682 153.997437 L 202.842712 154.057327 C 203.118924 154.0583 203.462971 154.404783 203.46151 154.8191 C 203.46005 155.233418 203.182377 155.646762 202.768059 155.645301 L 185.849839 155.654709 C 185.504818 155.584438 185.229579 155.307253 185.162231 154.823639 C 185.163691 154.409321 185.510173 154.065273 185.855682 153.997437 Z M 185.855682 153.997437 " transform="matrix(-0.0281844,-0.0283838,-0.0283838,0.0281844,20.605355,10.997471)"/>
<path style="fill-rule:nonzero;fill:rgb(100%,100%,0%);fill-opacity:1;stroke-width:0.5;stroke-linecap:butt;stroke-linejoin:miter;stroke:rgb(0%,0%,0%);stroke-opacity:1;stroke-miterlimit:4;" d="M 192.001152 154.088158 C 192.082135 150.704806 194.295238 149.745855 194.295238 149.745855 C 194.295238 149.745855 196.63963 150.720874 196.627945 154.035416 L 192.001152 154.088158 M 186.232352 145.090822 L 202.460043 145.07898 C 202.805551 145.011144 203.080302 145.426436 203.079328 145.702648 C 203.077868 146.116966 202.731386 146.461013 202.455174 146.460039 L 186.227483 146.471881 C 185.813165 146.470421 185.607223 146.124425 185.608684 145.710108 C 185.540848 145.364599 185.88733 145.020552 186.232352 145.090822 Z M 186.503695 146.472855 L 202.040856 146.458579 C 202.455174 146.460039 202.661115 146.806035 202.728951 147.151543 C 202.72749 147.565861 202.381008 147.909908 202.104796 147.908935 L 186.567635 147.923211 C 186.222614 147.852941 185.947376 147.575755 185.948836 147.161437 C 185.950297 146.747119 186.227483 146.471881 186.503695 146.472855 Z M 191.581809 135.925523 L 192.755953 135.860609 L 192.821841 136.758541 L 193.650477 136.761462 L 193.722695 135.864017 L 194.965648 135.868399 L 194.89343 136.765844 L 195.860172 136.769253 L 195.794284 135.871321 L 197.106534 135.806893 L 197.09923 137.878482 C 197.098256 138.154694 196.821071 138.429932 196.544859 138.428958 L 192.125469 138.413378 C 191.849257 138.412404 191.574019 138.135218 191.574993 137.859006 Z M 196.130054 138.565604 L 196.452678 144.988747 L 192.171394 144.973653 L 192.401194 138.552457 L 196.130054 138.565604 " transform="matrix(-0.0281844,-0.0283838,-0.0283838,0.0281844,20.605355,10.997471)"/>
<path style="fill-rule:nonzero;fill:rgb(100%,100%,0%);fill-opacity:1;stroke-width:0.5;stroke-linecap:butt;stroke-linejoin:miter;stroke:rgb(0%,0%,0%);stroke-opacity:1;stroke-miterlimit:4;" d="M 190.940613 141.516622 L 191.135356 145.039054 L 186.992178 145.024447 L 187.073647 141.502989 Z M 190.940613 141.516622 " transform="matrix(-0.0281844,-0.0283838,-0.0283838,0.0281844,20.605355,10.997471)"/>
<path style="fill-rule:nonzero;fill:rgb(100%,100%,0%);fill-opacity:1;stroke-width:0.5;stroke-linecap:butt;stroke-linejoin:miter;stroke:rgb(0%,0%,0%);stroke-opacity:1;stroke-miterlimit:4;" d="M 190.96577 141.554114 L 191.091703 145.007249 L 186.948525 144.992642 L 187.098804 141.540481 Z M 190.96577 141.554114 " transform="matrix(-0.0281844,-0.0283838,-0.0283838,0.0281844,20.306347,10.696347)"/>
<path style="fill-rule:nonzero;fill:rgb(100%,100%,0%);fill-opacity:1;stroke-width:0.5;stroke-linecap:butt;stroke-linejoin:miter;stroke:rgb(0%,0%,0%);stroke-opacity:1;stroke-miterlimit:4;" d="M 186.322585 139.083457 L 187.496729 139.018543 L 187.562617 139.916475 L 188.391253 139.919396 L 188.325365 139.021464 L 189.568318 139.025846 L 189.634206 139.923779 L 190.462842 139.9267 L 190.53506 139.029255 L 191.709203 138.964341 L 191.7019 141.03593 C 191.700926 141.312141 191.493037 141.51857 191.147529 141.586406 L 186.866245 141.571312 C 186.590033 141.570338 186.314795 141.293152 186.315768 141.01694 Z M 186.322585 139.083457 " transform="matrix(-0.0281844,-0.0283838,-0.0283838,0.0281844,20.605355,10.997471)"/>
<path style="fill-rule:nonzero;fill:rgb(100%,100%,0%);fill-opacity:1;stroke-width:0.5;stroke-linecap:butt;stroke-linejoin:miter;stroke:rgb(0%,0%,0%);stroke-opacity:1;stroke-miterlimit:4;" d="M 186.278933 139.051652 L 187.521886 139.056035 L 187.518965 139.88467 L 188.3476 139.887592 L 188.350522 139.058956 L 189.593475 139.063338 L 189.590554 139.891974 L 190.487999 139.964192 L 190.491407 138.99745 L 191.73436 139.001832 L 191.727057 141.073421 C 191.726083 141.349633 191.518194 141.556062 191.241982 141.555088 L 186.822592 141.539507 C 186.54638 141.538533 186.339952 141.330644 186.340925 141.054432 Z M 186.278933 139.051652 " transform="matrix(-0.0281844,-0.0283838,-0.0283838,0.0281844,20.306347,10.696347)"/>
<path style=" stroke:none;fill-rule:nonzero;fill:rgb(0%,0%,0%);fill-opacity:1;" d="M 11.148438 9.457031 C 11.167969 9.441406 11.144531 9.414062 11.125 9.433594 L 11.082031 9.476562 L 11.105469 9.5 L 11.148438 9.457031 "/>
<path style=" stroke:none;fill-rule:nonzero;fill:rgb(0%,0%,0%);fill-opacity:1;" d="M 11.234375 9.671875 C 11.253906 9.652344 11.230469 9.628906 11.214844 9.648438 L 11.179688 9.679688 L 11.203125 9.703125 L 11.234375 9.671875 "/>
<path style=" stroke:none;fill-rule:nonzero;fill:rgb(0%,0%,0%);fill-opacity:1;" d="M 10.9375 9.367188 C 10.953125 9.351562 10.929688 9.328125 10.914062 9.34375 L 10.878906 9.378906 L 10.902344 9.402344 L 10.9375 9.367188 "/>
<path style=" stroke:none;fill-rule:nonzero;fill:rgb(0%,20%,60%);fill-opacity:1;" d="M 9.304688 8.089844 C 9.304688 8.179688 9.339844 8.257812 9.394531 8.316406 C 9.449219 8.375 9.523438 8.414062 9.605469 8.414062 C 9.6875 8.414062 9.765625 8.375 9.816406 8.316406 C 9.871094 8.257812 9.90625 8.179688 9.90625 8.089844 L 9.90625 7.660156 L 9.304688 7.660156 L 9.304688 8.089844 "/>
<path style=" stroke:none;fill-rule:nonzero;fill:rgb(100%,100%,100%);fill-opacity:1;" d="M 9.503906 7.824219 C 9.503906 7.855469 9.476562 7.882812 9.441406 7.882812 C 9.410156 7.882812 9.382812 7.855469 9.382812 7.824219 C 9.382812 7.789062 9.410156 7.761719 9.441406 7.761719 C 9.476562 7.761719 9.503906 7.789062 9.503906 7.824219 Z M 9.503906 7.824219 "/>
<path style=" stroke:none;fill-rule:nonzero;fill:rgb(100%,100%,100%);fill-opacity:1;" d="M 9.835938 7.824219 C 9.835938 7.855469 9.808594 7.882812 9.777344 7.882812 C 9.742188 7.882812 9.714844 7.855469 9.714844 7.824219 C 9.714844 7.789062 9.742188 7.761719 9.777344 7.761719 C 9.808594 7.761719 9.835938 7.789062 9.835938 7.824219 Z M 9.835938 7.824219 "/>
<path style=" stroke:none;fill-rule:nonzero;fill:rgb(100%,100%,100%);fill-opacity:1;" d="M 9.667969 7.984375 C 9.667969 8.015625 9.640625 8.042969 9.609375 8.042969 C 9.578125 8.042969 9.550781 8.015625 9.550781 7.984375 C 9.550781 7.949219 9.578125 7.921875 9.609375 7.921875 C 9.640625 7.921875 9.667969 7.949219 9.667969 7.984375 Z M 9.667969 7.984375 "/>
<path style=" stroke:none;fill-rule:nonzero;fill:rgb(100%,100%,100%);fill-opacity:1;" d="M 9.503906 8.148438 C 9.503906 8.183594 9.476562 8.210938 9.441406 8.210938 C 9.410156 8.210938 9.382812 8.183594 9.382812 8.148438 C 9.382812 8.117188 9.410156 8.089844 9.441406 8.089844 C 9.476562 8.089844 9.503906 8.117188 9.503906 8.148438 Z M 9.503906 8.148438 "/>
<path style=" stroke:none;fill-rule:nonzero;fill:rgb(100%,100%,100%);fill-opacity:1;" d="M 9.835938 8.148438 C 9.835938 8.183594 9.808594 8.207031 9.773438 8.207031 C 9.742188 8.207031 9.714844 8.183594 9.714844 8.148438 C 9.714844 8.117188 9.742188 8.089844 9.773438 8.089844 C 9.808594 8.089844 9.835938 8.117188 9.835938 8.148438 Z M 9.835938 8.148438 "/>
<path style=" stroke:none;fill-rule:nonzero;fill:rgb(0%,20%,60%);fill-opacity:1;" d="M 9.304688 7.046875 L 9.304688 7.050781 C 9.304688 7.136719 9.339844 7.21875 9.394531 7.277344 C 9.449219 7.335938 9.523438 7.371094 9.605469 7.371094 C 9.6875 7.371094 9.765625 7.335938 9.816406 7.277344 C 9.871094 7.21875 9.90625 7.136719 9.90625 7.050781 L 9.90625 6.617188 L 9.304688 6.617188 L 9.304688 7.046875 "/>
<path style=" stroke:none;fill-rule:nonzero;fill:rgb(100%,100%,100%);fill-opacity:1;" d="M 9.503906 6.78125 C 9.503906 6.816406 9.476562 6.839844 9.441406 6.839844 C 9.410156 6.839844 9.382812 6.816406 9.382812 6.78125 C 9.382812 6.75 9.410156 6.722656 9.441406 6.722656 C 9.476562 6.722656 9.503906 6.75 9.503906 6.78125 Z M 9.503906 6.78125 "/>
<path style=" stroke:none;fill-rule:nonzero;fill:rgb(100%,100%,100%);fill-opacity:1;" d="M 9.835938 6.78125 C 9.835938 6.816406 9.808594 6.839844 9.777344 6.839844 C 9.742188 6.839844 9.714844 6.816406 9.714844 6.78125 C 9.714844 6.75 9.742188 6.722656 9.777344 6.722656 C 9.808594 6.722656 9.835938 6.75 9.835938 6.78125 Z M 9.835938 6.78125 "/>
<path style=" stroke:none;fill-rule:nonzero;fill:rgb(100%,100%,100%);fill-opacity:1;" d="M 9.667969 6.941406 C 9.667969 6.976562 9.640625 7 9.609375 7 C 9.578125 7 9.550781 6.976562 9.550781 6.941406 C 9.550781 6.910156 9.578125 6.882812 9.609375 6.882812 C 9.640625 6.882812 9.667969 6.910156 9.667969 6.941406 Z M 9.667969 6.941406 "/>
<path style=" stroke:none;fill-rule:nonzero;fill:rgb(100%,100%,100%);fill-opacity:1;" d="M 9.503906 7.109375 C 9.503906 7.140625 9.476562 7.167969 9.441406 7.167969 C 9.410156 7.167969 9.382812 7.140625 9.382812 7.109375 C 9.382812 7.078125 9.410156 7.050781 9.441406 7.050781 C 9.476562 7.050781 9.503906 7.078125 9.503906 7.109375 Z M 9.503906 7.109375 "/>
<path style=" stroke:none;fill-rule:nonzero;fill:rgb(100%,100%,100%);fill-opacity:1;" d="M 9.835938 7.109375 C 9.835938 7.140625 9.808594 7.167969 9.773438 7.167969 C 9.742188 7.167969 9.714844 7.140625 9.714844 7.109375 C 9.714844 7.074219 9.742188 7.050781 9.773438 7.050781 C 9.808594 7.050781 9.835938 7.074219 9.835938 7.109375 Z M 9.835938 7.109375 "/>
<path style=" stroke:none;fill-rule:nonzero;fill:rgb(0%,20%,60%);fill-opacity:1;" d="M 8.472656 8.089844 C 8.472656 8.179688 8.507812 8.257812 8.5625 8.316406 C 8.617188 8.375 8.691406 8.414062 8.773438 8.414062 C 8.855469 8.414062 8.933594 8.375 8.984375 8.316406 C 9.039062 8.257812 9.074219 8.179688 9.074219 8.089844 L 9.074219 7.660156 L 8.472656 7.660156 L 8.472656 8.089844 "/>
<path style=" stroke:none;fill-rule:nonzero;fill:rgb(100%,100%,100%);fill-opacity:1;" d="M 8.671875 7.824219 C 8.671875 7.855469 8.644531 7.882812 8.609375 7.882812 C 8.578125 7.882812 8.550781 7.855469 8.550781 7.824219 C 8.550781 7.789062 8.578125 7.761719 8.609375 7.761719 C 8.644531 7.761719 8.671875 7.789062 8.671875 7.824219 Z M 8.671875 7.824219 "/>
<path style=" stroke:none;fill-rule:nonzero;fill:rgb(100%,100%,100%);fill-opacity:1;" d="M 9.003906 7.824219 C 9.003906 7.855469 8.976562 7.882812 8.945312 7.882812 C 8.910156 7.882812 8.882812 7.855469 8.882812 7.824219 C 8.882812 7.789062 8.910156 7.761719 8.945312 7.761719 C 8.976562 7.761719 9.003906 7.789062 9.003906 7.824219 Z M 9.003906 7.824219 "/>
<path style=" stroke:none;fill-rule:nonzero;fill:rgb(100%,100%,100%);fill-opacity:1;" d="M 8.835938 7.984375 C 8.835938 8.015625 8.808594 8.042969 8.777344 8.042969 C 8.746094 8.042969 8.71875 8.015625 8.71875 7.984375 C 8.71875 7.949219 8.746094 7.921875 8.777344 7.921875 C 8.808594 7.921875 8.835938 7.949219 8.835938 7.984375 Z M 8.835938 7.984375 "/>
<path style=" stroke:none;fill-rule:nonzero;fill:rgb(100%,100%,100%);fill-opacity:1;" d="M 8.671875 8.148438 C 8.671875 8.183594 8.644531 8.210938 8.609375 8.210938 C 8.578125 8.210938 8.550781 8.183594 8.550781 8.148438 C 8.550781 8.117188 8.578125 8.089844 8.609375 8.089844 C 8.644531 8.089844 8.671875 8.117188 8.671875 8.148438 Z M 8.671875 8.148438 "/>
<path style=" stroke:none;fill-rule:nonzero;fill:rgb(100%,100%,100%);fill-opacity:1;" d="M 9.003906 8.148438 C 9.003906 8.183594 8.976562 8.207031 8.945312 8.207031 C 8.910156 8.207031 8.882812 8.183594 8.882812 8.148438 C 8.882812 8.117188 8.910156 8.089844 8.945312 8.089844 C 8.976562 8.089844 9.003906 8.117188 9.003906 8.148438 Z M 9.003906 8.148438 "/>
<path style=" stroke:none;fill-rule:nonzero;fill:rgb(0%,20%,60%);fill-opacity:1;" d="M 10.136719 8.089844 C 10.136719 8.179688 10.167969 8.257812 10.222656 8.316406 C 10.277344 8.375 10.355469 8.414062 10.4375 8.414062 C 10.519531 8.414062 10.59375 8.375 10.648438 8.316406 C 10.703125 8.257812 10.734375 8.179688 10.734375 8.089844 L 10.734375 7.660156 L 10.136719 7.660156 L 10.136719 8.089844 "/>
<path style=" stroke:none;fill-rule:nonzero;fill:rgb(100%,100%,100%);fill-opacity:1;" d="M 10.332031 7.824219 C 10.332031 7.855469 10.304688 7.882812 10.273438 7.882812 C 10.238281 7.882812 10.214844 7.855469 10.214844 7.824219 C 10.214844 7.789062 10.238281 7.761719 10.273438 7.761719 C 10.304688 7.761719 10.332031 7.789062 10.332031 7.824219 Z M 10.332031 7.824219 "/>
<path style=" stroke:none;fill-rule:nonzero;fill:rgb(100%,100%,100%);fill-opacity:1;" d="M 10.664062 7.824219 C 10.664062 7.855469 10.636719 7.882812 10.605469 7.882812 C 10.574219 7.882812 10.546875 7.855469 10.546875 7.824219 C 10.546875 7.789062 10.574219 7.761719 10.605469 7.761719 C 10.636719 7.761719 10.664062 7.789062 10.664062 7.824219 Z M 10.664062 7.824219 "/>
<path style=" stroke:none;fill-rule:nonzero;fill:rgb(100%,100%,100%);fill-opacity:1;" d="M 10.5 7.984375 C 10.5 8.015625 10.472656 8.042969 10.4375 8.042969 C 10.40625 8.042969 10.378906 8.015625 10.378906 7.984375 C 10.378906 7.949219 10.40625 7.921875 10.4375 7.921875 C 10.472656 7.921875 10.5 7.949219 10.5 7.984375 Z M 10.5 7.984375 "/>
<path style=" stroke:none;fill-rule:nonzero;fill:rgb(100%,100%,100%);fill-opacity:1;" d="M 10.332031 8.148438 C 10.332031 8.183594 10.304688 8.210938 10.273438 8.210938 C 10.238281 8.210938 10.214844 8.183594 10.214844 8.148438 C 10.214844 8.117188 10.238281 8.089844 10.273438 8.089844 C 10.304688 8.089844 10.332031 8.117188 10.332031 8.148438 Z M 10.332031 8.148438 "/>
<path style=" stroke:none;fill-rule:nonzero;fill:rgb(100%,100%,100%);fill-opacity:1;" d="M 10.664062 8.148438 C 10.664062 8.183594 10.636719 8.207031 10.605469 8.207031 C 10.574219 8.207031 10.546875 8.183594 10.546875 8.148438 C 10.546875 8.117188 10.574219 8.089844 10.605469 8.089844 C 10.636719 8.089844 10.664062 8.117188 10.664062 8.148438 Z M 10.664062 8.148438 "/>
<path style=" stroke:none;fill-rule:nonzero;fill:rgb(0%,20%,60%);fill-opacity:1;" d="M 9.304688 9.121094 C 9.304688 9.210938 9.339844 9.289062 9.394531 9.347656 C 9.449219 9.40625 9.523438 9.445312 9.605469 9.445312 C 9.6875 9.445312 9.765625 9.40625 9.816406 9.347656 C 9.871094 9.289062 9.90625 9.210938 9.90625 9.121094 L 9.90625 8.691406 L 9.304688 8.691406 L 9.304688 9.121094 "/>
<path style=" stroke:none;fill-rule:nonzero;fill:rgb(100%,100%,100%);fill-opacity:1;" d="M 9.503906 8.855469 C 9.503906 8.886719 9.476562 8.914062 9.441406 8.914062 C 9.410156 8.914062 9.382812 8.886719 9.382812 8.855469 C 9.382812 8.820312 9.410156 8.792969 9.441406 8.792969 C 9.476562 8.792969 9.503906 8.820312 9.503906 8.855469 Z M 9.503906 8.855469 "/>
<path style=" stroke:none;fill-rule:nonzero;fill:rgb(100%,100%,100%);fill-opacity:1;" d="M 9.835938 8.855469 C 9.835938 8.886719 9.808594 8.914062 9.777344 8.914062 C 9.742188 8.914062 9.714844 8.886719 9.714844 8.855469 C 9.714844 8.820312 9.742188 8.792969 9.777344 8.792969 C 9.808594 8.792969 9.835938 8.820312 9.835938 8.855469 Z M 9.835938 8.855469 "/>
<path style=" stroke:none;fill-rule:nonzero;fill:rgb(100%,100%,100%);fill-opacity:1;" d="M 9.667969 9.015625 C 9.667969 9.046875 9.640625 9.074219 9.609375 9.074219 C 9.578125 9.074219 9.550781 9.046875 9.550781 9.015625 C 9.550781 8.980469 9.578125 8.953125 9.609375 8.953125 C 9.640625 8.953125 9.667969 8.980469 9.667969 9.015625 Z M 9.667969 9.015625 "/>
<path style=" stroke:none;fill-rule:nonzero;fill:rgb(100%,100%,100%);fill-opacity:1;" d="M 9.503906 9.179688 C 9.503906 9.214844 9.476562 9.242188 9.441406 9.242188 C 9.410156 9.242188 9.382812 9.214844 9.382812 9.179688 C 9.382812 9.148438 9.410156 9.121094 9.441406 9.121094 C 9.476562 9.121094 9.503906 9.148438 9.503906 9.179688 Z M 9.503906 9.179688 "/>
<path style=" stroke:none;fill-rule:nonzero;fill:rgb(100%,100%,100%);fill-opacity:1;" d="M 9.835938 9.179688 C 9.835938 9.214844 9.808594 9.238281 9.773438 9.238281 C 9.742188 9.238281 9.714844 9.214844 9.714844 9.179688 C 9.714844 9.148438 9.742188 9.121094 9.773438 9.121094 C 9.808594 9.121094 9.835938 9.148438 9.835938 9.179688 Z M 9.835938 9.179688 "/>
</g>
</svg>
