<?xml version="1.0" encoding="UTF-8"?>
<svg xmlns="http://www.w3.org/2000/svg" xmlns:xlink="http://www.w3.org/1999/xlink" width="24px" height="24px" viewBox="0 0 24 13" version="1.1">
<g id="surface1">
<rect x="0" y="0" width="24" height="13" style="fill:rgb(0%,21.960784%,65.882353%);fill-opacity:1;stroke:none;"/>
<path style=" stroke:none;fill-rule:nonzero;fill:rgb(100%,100%,100%);fill-opacity:1;" d="M 0 0 L 24 0 L 24 8.667969 L 0 8.667969 Z M 0 0 "/>
<path style=" stroke:none;fill-rule:nonzero;fill:rgb(83.529412%,16.862745%,11.764706%);fill-opacity:1;" d="M 0 0 L 24 0 L 24 4.332031 L 0 4.332031 Z M 0 0 "/>
<path style="fill-rule:nonzero;fill:rgb(100%,100%,100%);fill-opacity:1;stroke-width:3.687;stroke-linecap:butt;stroke-linejoin:miter;stroke:rgb(0%,0%,0%);stroke-opacity:1;stroke-miterlimit:10;" d="M 683.59375 330 C 683.59375 376.207933 646.289062 413.689904 600 413.689904 C 553.90625 413.689904 516.40625 376.207933 516.40625 330 C 516.40625 283.792067 553.710938 246.310096 600 246.310096 C 646.289062 246.310096 683.59375 283.792067 683.59375 330 Z M 683.59375 330 " transform="matrix(0.02,0,0,0.019697,0,0)"/>
<path style="fill-rule:nonzero;fill:rgb(0%,60.784314%,22.745098%);fill-opacity:1;stroke-width:0.985;stroke-linecap:butt;stroke-linejoin:miter;stroke:rgb(0%,0%,0%);stroke-opacity:1;stroke-miterlimit:4;" d="M 640.429688 317.109375 C 638.476562 316.911058 638.476562 319.092548 638.476562 319.092548 C 638.476562 319.092548 638.476562 318.497596 638.476562 319.290865 C 638.28125 320.084135 638.671875 321.86899 640.234375 321.86899 C 641.796875 322.067308 642.382812 320.282452 642.382812 319.290865 C 642.382812 319.092548 642.1875 317.109375 640.429688 317.109375 " transform="matrix(0.02,0,0,0.019697,0,0)"/>
<path style=" stroke:none;fill-rule:nonzero;fill:rgb(0%,0%,0%);fill-opacity:1;" d="M 10.949219 7.160156 L 10.9375 7.136719 C 10.933594 7.132812 10.929688 7.125 10.925781 7.121094 C 10.921875 7.121094 10.917969 7.117188 10.914062 7.117188 C 10.910156 7.117188 10.90625 7.117188 10.902344 7.121094 C 10.894531 7.121094 10.890625 7.128906 10.890625 7.132812 C 10.890625 7.140625 10.894531 7.148438 10.898438 7.15625 L 10.914062 7.179688 Z M 11.09375 7.152344 L 10.910156 7.257812 L 10.855469 7.164062 C 10.847656 7.152344 10.839844 7.140625 10.835938 7.125 C 10.832031 7.113281 10.832031 7.101562 10.839844 7.09375 C 10.84375 7.082031 10.851562 7.074219 10.863281 7.066406 C 10.871094 7.0625 10.882812 7.058594 10.894531 7.058594 C 10.902344 7.058594 10.914062 7.058594 10.921875 7.066406 C 10.929688 7.070312 10.933594 7.074219 10.941406 7.078125 C 10.9375 7.074219 10.9375 7.066406 10.9375 7.0625 C 10.9375 7.058594 10.941406 7.050781 10.941406 7.046875 C 10.945312 7.042969 10.945312 7.039062 10.949219 7.03125 L 10.984375 6.976562 L 11.023438 7.039062 L 10.984375 7.101562 C 10.980469 7.105469 10.980469 7.113281 10.976562 7.117188 C 10.976562 7.125 10.980469 7.128906 10.980469 7.132812 L 10.984375 7.140625 L 11.058594 7.097656 Z M 10.773438 7.003906 L 10.714844 6.839844 L 10.757812 6.828125 L 10.792969 6.929688 L 10.824219 6.917969 L 10.792969 6.824219 L 10.835938 6.8125 L 10.867188 6.90625 L 10.90625 6.894531 L 10.871094 6.789062 L 10.914062 6.773438 L 10.972656 6.9375 Z M 10.777344 6.671875 L 10.773438 6.65625 C 10.773438 6.648438 10.773438 6.640625 10.765625 6.632812 C 10.761719 6.628906 10.753906 6.625 10.746094 6.625 C 10.742188 6.628906 10.734375 6.628906 10.730469 6.632812 C 10.726562 6.640625 10.726562 6.652344 10.726562 6.660156 L 10.730469 6.679688 Z M 10.695312 6.746094 L 10.683594 6.640625 C 10.679688 6.621094 10.683594 6.601562 10.691406 6.585938 C 10.703125 6.574219 10.722656 6.566406 10.738281 6.5625 C 10.757812 6.5625 10.777344 6.566406 10.789062 6.578125 C 10.804688 6.59375 10.816406 6.613281 10.816406 6.632812 L 10.820312 6.667969 L 10.898438 6.660156 L 10.90625 6.722656 Z M 10.6875 6.339844 L 10.695312 6.277344 L 10.820312 6.289062 C 10.832031 6.292969 10.84375 6.292969 10.855469 6.300781 C 10.863281 6.304688 10.875 6.3125 10.882812 6.320312 C 10.886719 6.328125 10.894531 6.335938 10.894531 6.347656 C 10.898438 6.363281 10.902344 6.378906 10.898438 6.394531 C 10.898438 6.40625 10.894531 6.414062 10.890625 6.425781 C 10.890625 6.4375 10.886719 6.445312 10.878906 6.453125 C 10.875 6.464844 10.867188 6.46875 10.859375 6.476562 C 10.851562 6.480469 10.84375 6.484375 10.835938 6.484375 C 10.824219 6.488281 10.808594 6.488281 10.796875 6.488281 L 10.671875 6.476562 L 10.679688 6.410156 L 10.808594 6.425781 C 10.816406 6.425781 10.828125 6.425781 10.835938 6.417969 C 10.84375 6.414062 10.847656 6.402344 10.847656 6.394531 C 10.851562 6.382812 10.847656 6.375 10.84375 6.367188 C 10.835938 6.359375 10.824219 6.355469 10.816406 6.355469 Z M 10.898438 6.164062 L 10.910156 6.132812 C 10.914062 6.125 10.914062 6.117188 10.910156 6.109375 C 10.910156 6.105469 10.90625 6.101562 10.898438 6.097656 C 10.894531 6.097656 10.886719 6.097656 10.882812 6.101562 C 10.875 6.105469 10.871094 6.113281 10.867188 6.121094 L 10.859375 6.152344 Z M 10.820312 6.136719 L 10.828125 6.113281 C 10.832031 6.105469 10.832031 6.097656 10.832031 6.089844 C 10.828125 6.085938 10.824219 6.082031 10.820312 6.082031 C 10.8125 6.078125 10.808594 6.078125 10.804688 6.082031 C 10.796875 6.085938 10.792969 6.089844 10.792969 6.097656 L 10.78125 6.125 Z M 10.71875 6.171875 L 10.761719 6.058594 C 10.765625 6.042969 10.777344 6.027344 10.789062 6.019531 C 10.804688 6.011719 10.816406 6.011719 10.832031 6.015625 C 10.84375 6.019531 10.851562 6.027344 10.855469 6.039062 C 10.851562 6.046875 10.855469 6.058594 10.863281 6.0625 C 10.867188 6.070312 10.878906 6.070312 10.886719 6.0625 C 10.894531 6.058594 10.894531 6.046875 10.890625 6.039062 C 10.902344 6.035156 10.917969 6.035156 10.925781 6.039062 C 10.9375 6.042969 10.945312 6.050781 10.953125 6.058594 C 10.957031 6.066406 10.964844 6.074219 10.964844 6.082031 C 10.964844 6.089844 10.964844 6.101562 10.964844 6.109375 C 10.960938 6.121094 10.957031 6.132812 10.957031 6.136719 L 10.917969 6.242188 Z M 10.828125 5.90625 L 10.863281 5.851562 L 11 5.933594 L 11.050781 5.847656 L 11.09375 5.871094 L 11.007812 6.015625 Z M 10.96875 5.699219 L 11.007812 5.652344 L 11.171875 5.785156 L 11.128906 5.835938 Z M 11.261719 5.589844 L 11.316406 5.566406 C 11.324219 5.578125 11.328125 5.59375 11.328125 5.609375 C 11.328125 5.621094 11.324219 5.632812 11.320312 5.644531 C 11.3125 5.660156 11.300781 5.671875 11.289062 5.679688 C 11.273438 5.695312 11.257812 5.703125 11.238281 5.710938 C 11.222656 5.714844 11.203125 5.710938 11.1875 5.707031 C 11.164062 5.699219 11.148438 5.683594 11.132812 5.667969 C 11.113281 5.644531 11.101562 5.617188 11.105469 5.589844 C 11.113281 5.539062 11.152344 5.5 11.203125 5.492188 C 11.226562 5.488281 11.246094 5.496094 11.261719 5.507812 L 11.226562 5.550781 C 11.222656 5.550781 11.21875 5.546875 11.210938 5.546875 C 11.207031 5.542969 11.199219 5.542969 11.195312 5.546875 C 11.1875 5.546875 11.183594 5.550781 11.179688 5.554688 C 11.167969 5.5625 11.164062 5.574219 11.164062 5.589844 C 11.167969 5.601562 11.175781 5.617188 11.183594 5.625 C 11.191406 5.640625 11.207031 5.648438 11.222656 5.65625 C 11.246094 5.660156 11.265625 5.644531 11.269531 5.621094 C 11.269531 5.609375 11.265625 5.597656 11.261719 5.589844 M 11.476562 5.464844 L 11.417969 5.40625 L 11.433594 5.484375 Z M 11.507812 5.496094 L 11.441406 5.53125 L 11.449219 5.566406 L 11.390625 5.597656 L 11.363281 5.375 L 11.425781 5.34375 L 11.59375 5.492188 L 11.53125 5.523438 Z M 11.765625 5.28125 L 11.78125 5.394531 L 11.796875 5.390625 C 11.808594 5.390625 11.816406 5.386719 11.824219 5.382812 C 11.832031 5.378906 11.835938 5.371094 11.835938 5.363281 C 11.839844 5.351562 11.839844 5.339844 11.835938 5.328125 C 11.835938 5.3125 11.828125 5.296875 11.820312 5.285156 C 11.808594 5.277344 11.792969 5.273438 11.78125 5.277344 Z M 11.695312 5.242188 L 11.789062 5.230469 C 11.804688 5.226562 11.820312 5.226562 11.835938 5.230469 C 11.847656 5.234375 11.859375 5.238281 11.867188 5.25 C 11.878906 5.257812 11.886719 5.265625 11.890625 5.277344 C 11.894531 5.292969 11.898438 5.304688 11.902344 5.320312 C 11.90625 5.335938 11.90625 5.351562 11.902344 5.371094 C 11.898438 5.382812 11.890625 5.394531 11.882812 5.402344 C 11.875 5.414062 11.867188 5.421875 11.855469 5.425781 C 11.84375 5.429688 11.832031 5.433594 11.820312 5.4375 L 11.722656 5.449219 Z M 11.980469 5.203125 L 12.15625 5.214844 L 12.152344 5.261719 L 12.042969 5.25 L 12.039062 5.285156 L 12.140625 5.292969 L 12.136719 5.335938 L 12.039062 5.328125 L 12.035156 5.367188 L 12.148438 5.375 L 12.144531 5.421875 L 11.964844 5.410156 Z M 12.25 5.226562 L 12.3125 5.246094 L 12.269531 5.394531 L 12.367188 5.421875 L 12.355469 5.472656 L 12.191406 5.425781 Z M 12.605469 5.457031 L 12.621094 5.464844 C 12.628906 5.472656 12.636719 5.476562 12.644531 5.476562 C 12.652344 5.476562 12.660156 5.472656 12.660156 5.464844 C 12.664062 5.460938 12.667969 5.453125 12.664062 5.449219 C 12.664062 5.441406 12.65625 5.433594 12.648438 5.429688 L 12.632812 5.417969 Z M 12.601562 5.347656 L 12.691406 5.40625 C 12.710938 5.417969 12.722656 5.433594 12.726562 5.449219 C 12.730469 5.46875 12.726562 5.484375 12.714844 5.5 C 12.707031 5.515625 12.691406 5.527344 12.671875 5.53125 C 12.652344 5.53125 12.628906 5.527344 12.613281 5.511719 L 12.582031 5.492188 L 12.539062 5.558594 L 12.484375 5.523438 Z M 12.832031 5.664062 L 12.867188 5.597656 L 12.796875 5.632812 Z M 12.808594 5.707031 L 12.757812 5.65625 L 12.722656 5.671875 L 12.675781 5.628906 L 12.773438 5.582031 L 12.882812 5.535156 L 12.933594 5.582031 L 12.839844 5.785156 L 12.792969 5.738281 Z M 13.003906 5.796875 L 13.019531 5.820312 C 13.023438 5.824219 13.027344 5.828125 13.03125 5.832031 C 13.035156 5.835938 13.039062 5.839844 13.042969 5.839844 C 13.046875 5.839844 13.050781 5.839844 13.054688 5.835938 C 13.0625 5.832031 13.066406 5.828125 13.066406 5.820312 C 13.066406 5.8125 13.0625 5.804688 13.058594 5.800781 L 13.042969 5.773438 Z M 12.863281 5.808594 L 13.042969 5.699219 L 13.101562 5.789062 C 13.109375 5.800781 13.117188 5.816406 13.121094 5.828125 C 13.125 5.839844 13.125 5.851562 13.121094 5.859375 C 13.113281 5.871094 13.105469 5.882812 13.097656 5.886719 C 13.085938 5.894531 13.078125 5.898438 13.066406 5.898438 C 13.054688 5.898438 13.046875 5.894531 13.039062 5.890625 C 13.03125 5.886719 13.023438 5.882812 13.019531 5.875 C 13.019531 5.882812 13.019531 5.886719 13.019531 5.894531 C 13.019531 5.898438 13.019531 5.90625 13.015625 5.910156 C 13.015625 5.914062 13.011719 5.917969 13.011719 5.925781 L 12.976562 5.984375 L 12.9375 5.921875 L 12.972656 5.859375 C 12.976562 5.851562 12.976562 5.847656 12.980469 5.839844 C 12.980469 5.832031 12.976562 5.828125 12.976562 5.824219 L 12.972656 5.820312 L 12.898438 5.863281 Z M 13.113281 6.089844 L 13.175781 6.042969 L 13.097656 6.046875 Z M 13.074219 6.117188 L 13.050781 6.050781 L 13.015625 6.050781 L 12.992188 5.988281 L 13.21875 5.992188 L 13.242188 6.058594 L 13.070312 6.203125 L 13.046875 6.140625 Z M 13.175781 6.339844 L 13.21875 6.335938 L 13.234375 6.433594 L 13.144531 6.445312 C 13.128906 6.429688 13.121094 6.414062 13.109375 6.398438 C 13.101562 6.382812 13.097656 6.363281 13.097656 6.347656 C 13.09375 6.324219 13.09375 6.304688 13.101562 6.285156 C 13.109375 6.269531 13.121094 6.253906 13.136719 6.242188 C 13.152344 6.234375 13.171875 6.226562 13.191406 6.222656 C 13.210938 6.222656 13.234375 6.222656 13.253906 6.230469 C 13.269531 6.238281 13.285156 6.25 13.296875 6.265625 C 13.304688 6.285156 13.3125 6.304688 13.3125 6.324219 C 13.316406 6.339844 13.316406 6.355469 13.3125 6.375 C 13.3125 6.386719 13.304688 6.394531 13.296875 6.40625 C 13.289062 6.414062 13.277344 6.421875 13.265625 6.425781 L 13.246094 6.367188 C 13.253906 6.363281 13.261719 6.355469 13.265625 6.351562 C 13.269531 6.34375 13.269531 6.335938 13.269531 6.328125 C 13.265625 6.3125 13.257812 6.300781 13.25 6.296875 C 13.234375 6.289062 13.214844 6.285156 13.199219 6.289062 C 13.183594 6.289062 13.167969 6.296875 13.152344 6.308594 C 13.144531 6.316406 13.140625 6.332031 13.144531 6.34375 C 13.144531 6.351562 13.144531 6.359375 13.148438 6.363281 C 13.152344 6.371094 13.15625 6.378906 13.164062 6.386719 L 13.183594 6.382812 Z M 13.3125 6.652344 L 13.304688 6.714844 L 13.179688 6.703125 C 13.167969 6.699219 13.15625 6.699219 13.144531 6.691406 C 13.132812 6.6875 13.125 6.679688 13.117188 6.671875 C 13.109375 6.664062 13.105469 6.652344 13.101562 6.644531 C 13.097656 6.628906 13.097656 6.613281 13.101562 6.597656 C 13.101562 6.589844 13.105469 6.578125 13.105469 6.566406 C 13.109375 6.554688 13.113281 6.546875 13.117188 6.535156 C 13.125 6.527344 13.132812 6.523438 13.140625 6.515625 C 13.148438 6.511719 13.15625 6.507812 13.164062 6.507812 C 13.175781 6.503906 13.1875 6.503906 13.199219 6.503906 L 13.328125 6.519531 L 13.320312 6.582031 L 13.191406 6.566406 C 13.179688 6.566406 13.171875 6.566406 13.164062 6.574219 C 13.15625 6.578125 13.152344 6.589844 13.148438 6.597656 C 13.148438 6.609375 13.152344 6.617188 13.15625 6.625 C 13.164062 6.632812 13.171875 6.636719 13.183594 6.636719 Z M 13.117188 6.890625 L 13.195312 6.890625 L 13.132812 6.847656 Z M 13.070312 6.886719 L 13.09375 6.816406 L 13.0625 6.796875 L 13.085938 6.734375 L 13.257812 6.878906 L 13.234375 6.945312 L 13.011719 6.949219 L 13.03125 6.886719 Z M 13.183594 7.078125 L 13.148438 7.140625 L 13.066406 7.140625 L 13.105469 7.210938 L 13.070312 7.273438 L 13.003906 7.140625 L 12.929688 7.097656 L 12.960938 7.042969 L 13.039062 7.085938 Z M 13.183594 7.078125 "/>
<path style="fill:none;stroke-width:1.475;stroke-linecap:butt;stroke-linejoin:miter;stroke:rgb(0%,0%,0%);stroke-opacity:1;stroke-miterlimit:10;" d="M 669.921875 330 C 669.921875 368.671875 638.671875 400.00601 600 400.00601 C 561.328125 400.00601 529.882812 368.671875 529.882812 330 C 529.882812 291.328125 561.328125 259.99399 600 259.99399 C 638.671875 259.99399 669.921875 291.328125 669.921875 330 Z M 669.921875 330 " transform="matrix(0.02,0,0,0.019697,0,0)"/>
<path style="fill:none;stroke-width:1.475;stroke-linecap:butt;stroke-linejoin:miter;stroke:rgb(0%,0%,0%);stroke-opacity:1;stroke-miterlimit:10;" d="M 652.148438 329.801683 C 652.148438 358.557692 628.710938 381.959135 600 381.959135 C 571.289062 381.959135 547.851562 358.557692 547.851562 329.801683 C 547.851562 301.045673 571.289062 277.644231 600 277.644231 C 628.710938 277.644231 652.148438 301.045673 652.148438 329.801683 Z M 652.148438 329.801683 " transform="matrix(0.02,0,0,0.019697,0,0)"/>
<path style="fill-rule:nonzero;fill:rgb(99.607843%,87.45098%,0%);fill-opacity:1;stroke-width:0.602;stroke-linecap:butt;stroke-linejoin:miter;stroke:rgb(0%,0%,0%);stroke-opacity:1;stroke-miterlimit:4;" d="M 600 310.961538 L 604.296875 323.455529 L 617.578125 323.852163 L 607.03125 331.784856 L 610.9375 344.477163 L 600 336.941106 L 589.0625 344.477163 L 592.96875 331.784856 L 582.421875 323.852163 L 595.507812 323.455529 Z M 600 310.961538 " transform="matrix(0.02,0,0,0.019697,0,0)"/>
<path style="fill-rule:nonzero;fill:rgb(0%,60.784314%,22.745098%);fill-opacity:1;stroke-width:0.754;stroke-linecap:butt;stroke-linejoin:miter;stroke:rgb(0%,0%,0%);stroke-opacity:1;stroke-miterlimit:4;" d="M 624.023438 365.697115 C 623.242188 366.09375 622.265625 366.292067 621.289062 366.292067 C 620.898438 366.490385 618.945312 366.490385 618.164062 366.490385 C 617.773438 366.490385 616.992188 366.688702 616.601562 366.688702 C 612.695312 366.292067 622.65625 366.292067 624.023438 365.697115 M 614.0625 362.722356 C 614.257812 362.325721 615.429688 359.549279 616.015625 358.75601 C 616.40625 357.96274 617.382812 355.78125 618.164062 354.987981 C 618.359375 354.591346 619.726562 353.203125 619.921875 353.798077 C 617.773438 355.582933 616.015625 358.954327 615.234375 361.135817 C 614.84375 361.730769 614.453125 362.325721 614.0625 362.920673 C 613.867188 363.317308 613.867188 363.91226 613.476562 363.91226 C 613.085938 363.91226 613.476562 364.110577 613.476562 364.110577 C 613.476562 364.110577 613.671875 363.317308 614.0625 362.722356 Z M 628.515625 364.903846 C 627.539062 364.705529 626.5625 364.507212 625.585938 364.308894 C 624.21875 363.91226 622.65625 363.713942 621.289062 363.713942 C 619.921875 363.713942 618.359375 364.110577 617.1875 364.705529 C 616.210938 364.903846 615.234375 365.102163 614.257812 365.102163 C 614.257812 365.102163 613.476562 365.300481 613.867188 365.102163 C 614.257812 364.903846 615.625 363.713942 615.625 363.713942 L 616.601562 362.524038 C 616.796875 362.524038 621.289062 356.376202 620.898438 354.789663 C 621.484375 353.59976 622.460938 351.616587 622.070312 351.219952 C 620.507812 351.418269 619.140625 352.013221 617.773438 353.004808 C 616.992188 353.798077 616.40625 354.987981 616.015625 356.177885 C 615.820312 356.971154 614.453125 357.764423 614.453125 357.764423 C 613.476562 358.557692 612.695312 360.9375 612.304688 362.920673 C 611.914062 364.903846 607.03125 366.09375 607.03125 366.09375 C 607.03125 366.09375 605.664062 366.490385 606.835938 366.887019 C 607.03125 366.887019 607.617188 367.878606 608.007812 367.878606 C 608.59375 367.878606 611.71875 366.688702 612.109375 366.688702 C 613.085938 366.887019 614.0625 367.283654 615.234375 367.481971 C 616.015625 368.076923 616.992188 368.076923 617.96875 367.878606 C 618.945312 367.680288 619.921875 367.680288 620.898438 367.878606 C 621.679688 368.076923 622.460938 368.076923 623.242188 367.878606 C 624.023438 367.481971 624.804688 367.085337 625.390625 366.688702 C 625.390625 366.688702 627.148438 366.09375 628.125 365.498798 C 629.101562 365.102163 628.515625 364.903846 628.515625 364.903846 " transform="matrix(0.02,0,0,0.019697,0,0)"/>
<path style="fill-rule:nonzero;fill:rgb(0%,60.784314%,22.745098%);fill-opacity:1;stroke-width:0.602;stroke-linecap:butt;stroke-linejoin:miter;stroke:rgb(0%,0%,0%);stroke-opacity:1;stroke-miterlimit:4;" d="M 615.234375 370.655048 C 615.234375 370.655048 608.59375 367.283654 608.203125 367.085337 C 608.007812 367.085337 605.273438 365.498798 603.90625 365.102163 C 603.125 364.903846 602.148438 364.903846 601.367188 364.903846 C 600.390625 364.903846 599.414062 365.102163 598.4375 365.498798 L 600 366.09375 C 600 366.09375 601.5625 366.887019 602.34375 367.283654 C 603.515625 367.878606 603.515625 368.473558 603.515625 368.473558 L 609.570312 371.25 L 610.742188 372.043269 C 610.742188 372.043269 611.914062 370.456731 615.234375 370.655048 " transform="matrix(0.02,0,0,0.019697,0,0)"/>
<path style="fill-rule:nonzero;fill:rgb(0%,60.784314%,22.745098%);fill-opacity:1;stroke-width:0.794;stroke-linecap:butt;stroke-linejoin:miter;stroke:rgb(0%,0%,0%);stroke-opacity:1;stroke-miterlimit:4;" d="M 622.070312 356.971154 C 624.023438 354.987981 625.195312 352.409856 626.757812 350.823317 C 627.148438 351.021635 627.148438 351.418269 626.757812 352.013221 C 626.367188 352.608173 625.976562 352.80649 625.78125 353.203125 C 625.195312 353.59976 624.609375 354.393029 624.21875 354.987981 C 623.828125 355.78125 623.242188 356.376202 622.65625 356.772837 C 621.679688 357.169471 622.070312 358.161058 621.875 358.557692 C 621.875 358.954327 620.507812 359.945913 619.726562 361.135817 C 619.726562 362.325721 619.53125 361.929087 618.75 362.325721 C 619.921875 360.540865 621.09375 358.75601 622.070312 356.971154 M 617.382812 362.722356 C 617.1875 363.11899 613.085938 365.498798 614.257812 365.102163 C 615.625 364.705529 619.335938 363.317308 620.507812 362.920673 C 621.875 362.325721 622.65625 361.135817 623.632812 360.144231 C 624.609375 359.152644 627.734375 356.177885 628.320312 354.987981 C 628.90625 353.798077 629.296875 352.013221 627.148438 348.44351 C 626.953125 348.840144 626.5625 349.435096 626.171875 349.831731 C 625.390625 350.228365 624.804688 350.823317 624.21875 351.219952 L 622.851562 352.608173 C 622.851562 352.608173 617.96875 361.532452 617.382812 362.722356 " transform="matrix(0.02,0,0,0.019697,0,0)"/>
<path style="fill-rule:nonzero;fill:rgb(0%,60.784314%,22.745098%);fill-opacity:1;stroke-width:0.754;stroke-linecap:butt;stroke-linejoin:miter;stroke:rgb(0%,0%,0%);stroke-opacity:1;stroke-miterlimit:4;" d="M 634.179688 359.747596 C 634.179688 359.747596 631.445312 359.549279 631.25 359.549279 C 631.054688 359.549279 629.492188 359.350962 627.34375 359.350962 C 626.171875 359.152644 624.804688 359.549279 624.023438 360.540865 C 623.4375 361.135817 621.679688 362.722356 621.679688 362.722356 L 622.65625 362.722356 C 623.828125 361.730769 625.390625 361.334135 626.953125 361.532452 C 628.320312 361.532452 629.492188 361.334135 630.664062 360.9375 C 632.8125 360.144231 632.617188 360.739183 632.421875 360.9375 C 631.445312 361.334135 630.273438 361.532452 629.296875 361.532452 C 627.734375 361.532452 626.367188 361.929087 625.585938 361.929087 C 625 361.929087 620.3125 363.11899 620.3125 363.11899 C 620.3125 363.11899 625.390625 363.515625 625.976562 363.713942 C 626.5625 363.91226 627.34375 363.713942 628.125 363.515625 C 629.101562 362.920673 630.46875 362.524038 631.640625 362.127404 C 632.226562 362.127404 632.8125 361.730769 633.398438 361.532452 C 633.789062 361.135817 634.179688 360.739183 634.375 360.342548 C 634.765625 359.549279 634.179688 359.747596 634.179688 359.747596 M 636.523438 345.865385 C 636.914062 344.675481 637.695312 343.485577 638.476562 342.49399 C 639.0625 342.097356 639.648438 341.899038 640.429688 341.700721 C 640.625 341.502404 641.992188 341.502404 640.234375 342.097356 C 639.257812 342.295673 638.476562 342.692308 638.085938 343.485577 C 637.5 345.072115 636.71875 346.658654 635.742188 347.848558 C 635.15625 348.44351 634.570312 349.236779 634.179688 349.831731 L 633.398438 350.228365 C 634.960938 349.236779 635.742188 347.253606 636.523438 345.865385 Z M 644.726562 344.873798 C 644.335938 345.072115 643.945312 345.270433 643.359375 345.46875 C 641.210938 346.063702 640.429688 347.451923 639.453125 348.641827 C 639.0625 349.236779 638.28125 349.633413 635.9375 350.625 C 634.765625 351.219952 633.398438 352.013221 632.226562 352.80649 C 632.226562 352.80649 631.640625 353.004808 631.835938 353.401442 C 631.835938 353.401442 632.421875 353.401442 632.421875 353.401442 C 632.421875 353.401442 636.71875 352.80649 638.476562 351.616587 C 639.648438 351.021635 640.625 350.030048 641.40625 348.840144 C 641.796875 348.046875 642.382812 346.658654 642.382812 347.451923 C 642.382812 349.831731 638.867188 352.211538 637.109375 352.80649 C 635.9375 353.203125 634.765625 353.59976 633.59375 353.59976 C 632.226562 353.996394 631.25 353.798077 631.445312 353.59976 C 631.640625 353.004808 631.640625 353.004808 632.03125 352.409856 C 632.8125 351.616587 634.570312 351.418269 635.742188 350.823317 C 637.109375 350.228365 638.28125 349.236779 639.453125 348.245192 C 639.84375 347.848558 640.234375 347.055288 640.625 346.460337 C 641.015625 344.477163 641.210938 343.485577 641.601562 342.890625 C 643.359375 340.510817 643.75 339.915865 643.75 338.924279 C 643.75 338.725962 642.773438 339.320913 642.382812 339.717548 C 641.40625 340.3125 640.234375 340.709135 639.0625 340.709135 C 636.914062 341.304087 637.109375 342.692308 636.71875 343.28726 C 636.328125 343.882212 635.9375 344.278846 635.351562 344.675481 C 634.765625 345.270433 634.179688 346.262019 633.789062 347.055288 C 633.398438 347.65024 633.007812 348.046875 632.617188 348.046875 C 632.226562 348.046875 633.398438 343.683894 633.59375 342.890625 C 633.789062 342.097356 633.984375 341.304087 633.984375 340.3125 C 633.984375 339.915865 633.984375 338.725962 633.203125 338.725962 C 632.421875 338.527644 632.421875 337.33774 632.421875 337.33774 C 630.46875 339.122596 631.445312 341.899038 631.640625 343.683894 C 631.835938 345.270433 631.640625 346.856971 631.25 348.44351 C 633.203125 349.236779 631.640625 351.418269 631.25 352.013221 C 630.46875 352.80649 629.492188 353.004808 628.90625 353.59976 C 628.320312 354.194712 624.609375 359.549279 624.609375 359.549279 L 629.296875 358.161058 C 629.296875 358.161058 629.6875 358.359375 629.101562 357.764423 C 628.320312 357.169471 629.296875 355.186298 629.882812 354.789663 C 630.664062 354.194712 631.835938 354.194712 632.617188 354.591346 C 634.375 354.591346 635.9375 354.393029 637.5 353.798077 C 639.84375 353.004808 640.625 351.418269 641.796875 350.426683 C 642.578125 349.236779 643.359375 348.046875 644.140625 346.658654 C 644.53125 346.063702 645.117188 344.675481 644.726562 344.873798 " transform="matrix(0.02,0,0,0.019697,0,0)"/>
<path style="fill-rule:nonzero;fill:rgb(0%,60.784314%,22.745098%);fill-opacity:1;stroke-width:0.84;stroke-linecap:butt;stroke-linejoin:miter;stroke:rgb(0%,0%,0%);stroke-opacity:1;stroke-miterlimit:4;" d="M 631.445312 357.566106 C 631.640625 357.367788 631.835938 357.367788 632.421875 356.574519 C 632.8125 356.376202 632.8125 355.78125 632.617188 355.384615 C 632.421875 354.987981 632.03125 354.789663 631.445312 354.789663 C 631.054688 354.789663 630.46875 354.789663 629.492188 355.979567 C 628.515625 357.367788 629.882812 357.764423 630.46875 357.764423 C 630.859375 357.764423 631.054688 357.764423 631.445312 357.566106 " transform="matrix(0.02,0,0,0.019697,0,0)"/>
<path style="fill-rule:nonzero;fill:rgb(0%,60.784314%,22.745098%);fill-opacity:1;stroke-width:0.858;stroke-linecap:butt;stroke-linejoin:miter;stroke:rgb(0%,0%,0%);stroke-opacity:1;stroke-miterlimit:4;" d="M 628.90625 349.435096 C 628.320312 350.426683 627.929688 351.616587 628.515625 352.013221 C 628.710938 352.211538 629.101562 352.409856 629.296875 352.409856 C 630.273438 352.211538 630.859375 351.814904 631.25 351.021635 C 631.835938 350.228365 632.421875 349.236779 631.25 348.641827 C 630.859375 348.44351 630.273438 348.245192 629.882812 348.44351 C 629.492188 348.641827 629.101562 348.840144 628.90625 349.435096 " transform="matrix(0.02,0,0,0.019697,0,0)"/>
<path style="fill-rule:nonzero;fill:rgb(0%,60.784314%,22.745098%);fill-opacity:1;stroke-width:0.754;stroke-linecap:butt;stroke-linejoin:miter;stroke:rgb(0%,0%,0%);stroke-opacity:1;stroke-miterlimit:4;" d="M 632.421875 336.544471 C 632.421875 336.544471 632.617188 336.346154 632.226562 335.949519 C 631.640625 335.354567 631.25 334.759615 630.664062 334.164663 C 629.6875 334.759615 629.101562 335.751202 628.90625 336.941106 C 629.101562 337.932692 629.101562 338.924279 628.90625 340.114183 C 628.90625 340.907452 628.515625 341.899038 628.125 342.692308 C 627.929688 343.882212 627.929688 345.072115 628.515625 346.262019 C 628.515625 346.658654 629.101562 348.44351 629.101562 348.44351 C 629.296875 348.245192 629.492188 348.046875 629.6875 348.046875 C 630.078125 348.046875 630.46875 347.848558 630.664062 348.046875 C 631.054688 347.253606 631.25 346.460337 631.445312 345.667067 C 631.445312 344.675481 631.25 343.683894 631.054688 342.692308 C 630.859375 341.304087 630.664062 339.915865 631.054688 338.725962 C 631.25 337.734375 631.835938 337.139423 632.421875 336.544471 " transform="matrix(0.02,0,0,0.019697,0,0)"/>
<path style="fill-rule:nonzero;fill:rgb(0%,60.784314%,22.745098%);fill-opacity:1;stroke-width:0.828;stroke-linecap:butt;stroke-linejoin:miter;stroke:rgb(0%,0%,0%);stroke-opacity:1;stroke-miterlimit:4;" d="M 634.375 338.725962 C 634.960938 338.725962 635.351562 338.329327 635.546875 337.932692 C 635.742188 337.33774 635.9375 336.742788 635.9375 336.346154 C 635.742188 335.751202 635.15625 335.354567 634.765625 335.15625 C 634.179688 335.15625 633.59375 335.354567 633.203125 335.751202 C 631.835938 338.725962 634.375 338.725962 634.375 338.725962 " transform="matrix(0.02,0,0,0.019697,0,0)"/>
<path style="fill-rule:nonzero;fill:rgb(0%,60.784314%,22.745098%);fill-opacity:1;stroke-width:0.984;stroke-linecap:butt;stroke-linejoin:miter;stroke:rgb(0%,0%,0%);stroke-opacity:1;stroke-miterlimit:4;" d="M 638.28125 334.759615 C 636.523438 334.759615 635.742188 337.932692 635.742188 337.932692 C 635.546875 338.329327 635.15625 338.924279 634.570312 339.122596 C 633.59375 339.717548 634.179688 340.709135 634.179688 342.097356 C 633.984375 343.683894 633.59375 345.072115 633.203125 346.460337 L 632.8125 347.253606 C 632.8125 347.253606 632.8125 348.046875 633.398438 346.856971 C 634.375 344.675481 635.546875 345.270433 635.9375 342.890625 C 636.328125 341.304087 639.0625 340.709135 639.0625 340.709135 L 638.28125 340.510817 C 635.351562 339.122596 638.476562 335.751202 639.0625 335.15625 C 639.453125 334.561298 640.039062 334.561298 638.28125 334.759615 " transform="matrix(0.02,0,0,0.019697,0,0)"/>
<path style="fill-rule:nonzero;fill:rgb(0%,60.784314%,22.745098%);fill-opacity:1;stroke-width:0.838;stroke-linecap:butt;stroke-linejoin:miter;stroke:rgb(0%,0%,0%);stroke-opacity:1;stroke-miterlimit:4;" d="M 637.890625 338.329327 C 637.109375 340.114183 639.257812 340.114183 639.84375 339.717548 C 640.039062 339.519231 640.234375 339.320913 640.429688 339.122596 C 641.40625 337.932692 640.625 336.941106 640.039062 336.742788 C 639.648438 336.742788 638.671875 336.544471 637.890625 338.329327 " transform="matrix(0.02,0,0,0.019697,0,0)"/>
<path style="fill-rule:nonzero;fill:rgb(0%,60.784314%,22.745098%);fill-opacity:1;stroke-width:0.754;stroke-linecap:butt;stroke-linejoin:miter;stroke:rgb(0%,0%,0%);stroke-opacity:1;stroke-miterlimit:4;" d="M 633.59375 331.784856 C 634.179688 332.97476 635.742188 335.949519 636.132812 335.751202 C 636.523438 335.751202 636.328125 334.957933 636.328125 334.957933 C 636.132812 334.362981 636.132812 333.768029 635.9375 333.173077 C 635.742188 332.18149 635.742188 330.991587 635.15625 330.198317 C 634.765625 329.405048 633.59375 328.413462 633.007812 327.02524 C 632.8125 325.835337 632.8125 324.447115 633.007812 323.058894 C 633.007812 322.66226 633.203125 322.860577 633.007812 322.66226 C 632.226562 322.067308 631.445312 321.670673 630.664062 321.274038 C 630.664062 322.067308 630.664062 322.66226 630.664062 323.455529 C 630.664062 323.852163 630.46875 324.248798 630.46875 324.84375 C 630.46875 325.438702 630.859375 326.231971 631.640625 327.81851 C 632.617188 329.801683 633.007812 330.991587 633.59375 331.784856 M 645.898438 317.50601 C 645.703125 317.902644 645.507812 318.299279 645.117188 318.695913 C 644.921875 318.894231 641.601562 321.86899 641.40625 321.86899 C 641.210938 322.067308 639.453125 322.66226 637.890625 326.826923 C 636.914062 329.603365 636.523438 332.379808 636.914062 335.15625 L 637.695312 335.15625 L 637.890625 334.759615 C 637.890625 334.759615 638.085938 333.173077 638.28125 332.18149 C 638.476562 331.189904 639.84375 329.603365 640.625 328.611779 C 641.015625 327.620192 641.601562 326.826923 641.992188 325.835337 C 642.578125 324.248798 643.359375 322.66226 644.140625 321.274038 C 644.140625 322.66226 638.476562 331.983173 637.890625 335.15625 L 639.453125 334.759615 C 641.210938 333.173077 642.578125 331.388221 643.945312 329.405048 C 644.921875 327.620192 645.507812 325.835337 645.703125 323.852163 C 646.09375 322.66226 645.898438 317.50601 645.898438 317.50601 " transform="matrix(0.02,0,0,0.019697,0,0)"/>
<path style="fill-rule:nonzero;fill:rgb(0%,60.784314%,22.745098%);fill-opacity:1;stroke-width:0.754;stroke-linecap:butt;stroke-linejoin:miter;stroke:rgb(0%,0%,0%);stroke-opacity:1;stroke-miterlimit:4;" d="M 634.570312 318.497596 C 634.179688 318.100962 633.59375 317.704327 633.007812 317.307692 C 633.203125 318.299279 633.203125 319.092548 633.203125 319.885817 C 633.203125 320.877404 633.398438 322.463942 633.203125 323.257212 C 633.203125 324.248798 632.8125 325.637019 633.398438 327.02524 C 633.984375 328.016827 634.570312 329.008413 635.15625 330 C 635.742188 331.586538 636.132812 333.371394 636.523438 335.15625 C 636.328125 332.578125 636.328125 330 636.523438 327.620192 C 636.71875 325.637019 636.71875 323.852163 636.328125 322.067308 C 636.132812 320.679087 635.546875 319.489183 634.570312 318.497596 M 638.476562 312.746394 C 639.0625 311.754808 639.453125 310.564904 639.648438 309.573317 C 639.648438 308.780048 639.84375 307.788462 639.84375 306.995192 C 639.648438 306.40024 639.453125 305.606971 639.84375 305.606971 C 640.039062 305.408654 639.84375 305.805288 639.84375 306.598558 C 640.039062 306.796875 639.84375 307.590144 639.648438 308.581731 C 639.648438 309.375 639.648438 310.168269 639.257812 310.961538 C 639.0625 311.754808 639.257812 312.944712 639.0625 313.143029 C 638.867188 313.341346 638.476562 314.53125 638.476562 314.53125 C 638.28125 315.126202 638.085938 315.522837 638.085938 316.117788 C 638.085938 316.911058 638.28125 317.902644 638.28125 317.902644 C 638.476562 317.50601 638.867188 317.109375 639.453125 317.109375 C 639.453125 317.109375 639.648438 315.721154 639.648438 315.324519 C 639.84375 313.936298 640.039062 312.548077 640.429688 311.159856 C 641.015625 309.176683 641.015625 307.19351 640.429688 305.210337 C 640.429688 304.21875 640.234375 303.227163 640.234375 302.433894 C 640.234375 302.433894 639.453125 303.028846 638.867188 305.408654 C 638.867188 306.201923 639.0625 308.185096 638.867188 310.366587 C 638.671875 312.34976 638.28125 314.53125 637.695312 316.514423 " transform="matrix(0.02,0,0,0.019697,0,0)"/>
<path style="fill:none;stroke-width:0.754;stroke-linecap:butt;stroke-linejoin:miter;stroke:rgb(0%,0%,0%);stroke-opacity:1;stroke-miterlimit:4;" d="M 638.476562 312.746394 L 638.476562 312.746394 " transform="matrix(0.02,0,0,0.019697,0,0)"/>
<path style="fill-rule:nonzero;fill:rgb(0%,60.784314%,22.745098%);fill-opacity:1;stroke-width:0.754;stroke-linecap:butt;stroke-linejoin:miter;stroke:rgb(0%,0%,0%);stroke-opacity:1;stroke-miterlimit:4;" d="M 635.351562 300.252404 C 635.742188 300.252404 635.742188 300.847356 635.742188 301.24399 C 635.546875 301.640625 635.546875 302.03726 635.546875 302.433894 C 635.742188 303.028846 635.742188 303.623798 635.9375 304.020433 C 636.132812 304.615385 636.328125 305.210337 636.328125 305.805288 C 636.132812 306.598558 635.546875 307.391827 635.742188 308.581731 C 635.9375 309.176683 636.132812 309.771635 636.523438 310.366587 C 636.523438 310.961538 636.71875 311.55649 636.523438 312.34976 C 636.71875 312.746394 636.71875 313.143029 637.109375 313.539663 C 637.109375 313.539663 636.523438 314.332933 636.328125 313.341346 C 636.328125 312.34976 636.132812 311.55649 635.9375 310.763221 C 635.351562 309.573317 635.351562 307.986779 635.742188 306.796875 C 635.9375 306.40024 635.9375 305.805288 635.9375 305.408654 C 635.9375 304.813702 635.546875 303.822115 635.546875 303.227163 C 635.546875 302.830529 635.546875 301.838942 635.546875 301.442308 M 633.203125 306.796875 C 633.398438 307.788462 633.789062 308.780048 634.375 309.573317 C 634.765625 310.366587 635.15625 311.159856 635.351562 311.953125 C 635.351562 312.151442 635.546875 312.548077 635.546875 312.944712 C 635.546875 313.143029 635.546875 314.134615 635.546875 314.134615 L 635.546875 314.53125 C 635.546875 314.53125 633.398438 313.143029 632.226562 312.548077 C 631.25 311.754808 630.078125 310.763221 629.492188 310.168269 C 628.710938 309.573317 626.5625 307.19351 626.5625 305.210337 L 625.78125 304.417067 C 625.390625 306.995192 626.367188 309.573317 628.320312 311.358173 C 629.492188 312.34976 630.859375 313.143029 632.421875 313.936298 C 634.570312 314.927885 634.375 315.721154 635.15625 317.704327 C 635.9375 318.894231 636.328125 320.084135 636.71875 321.274038 C 636.914062 321.86899 636.523438 330.198317 636.523438 330.198317 L 636.71875 330.991587 C 636.71875 330.991587 638.671875 323.257212 639.648438 322.463942 C 639.648438 322.463942 637.695312 322.067308 637.890625 319.092548 L 637.5 317.109375 C 637.304688 315.919471 637.5 314.53125 637.890625 313.341346 C 638.28125 311.754808 638.476562 309.969952 638.476562 308.383413 C 638.28125 306.995192 638.085938 306.40024 637.890625 305.210337 C 637.695312 303.227163 637.304688 301.442308 636.71875 299.657452 C 636.523438 299.0625 636.328125 298.269231 636.132812 297.674279 C 635.9375 297.475962 635.742188 296.484375 635.546875 296.484375 C 635.351562 296.484375 634.960938 297.674279 634.960938 297.674279 C 634.960938 297.674279 634.570312 299.0625 634.570312 299.459135 C 633.984375 300.847356 633.59375 302.433894 633.398438 303.822115 C 633.398438 304.417067 633.398438 305.606971 633.203125 305.805288 C 633.203125 306.003606 633.203125 306.40024 633.203125 306.796875 " transform="matrix(0.02,0,0,0.019697,0,0)"/>
<path style="fill-rule:nonzero;fill:rgb(0%,60.784314%,22.745098%);fill-opacity:1;stroke-width:0.754;stroke-linecap:butt;stroke-linejoin:miter;stroke:rgb(0%,0%,0%);stroke-opacity:1;stroke-miterlimit:4;" d="M 634.960938 317.307692 C 634.765625 316.911058 634.570312 316.514423 634.179688 316.117788 C 633.59375 315.324519 632.617188 314.729567 630.078125 313.341346 C 627.539062 312.151442 626.757812 309.969952 625.390625 309.176683 C 624.804688 308.780048 624.21875 308.581731 623.632812 308.383413 C 623.632812 308.383413 624.804688 310.168269 625.195312 310.564904 C 625.585938 311.55649 626.171875 312.548077 626.953125 313.143029 C 628.125 314.134615 629.6875 314.927885 631.25 315.324519 C 632.617188 315.721154 633.789062 316.514423 634.960938 317.307692 M 626.757812 305.012019 C 627.148438 306.598558 627.929688 307.986779 628.90625 309.176683 C 631.054688 311.953125 635.15625 313.936298 635.15625 313.936298 C 634.765625 312.34976 634.375 310.763221 633.59375 309.375 C 631.640625 306.40024 626.757812 304.813702 626.757812 304.813702 C 626.757812 304.813702 626.5625 304.813702 626.757812 305.012019 M 632.617188 306.201923 C 633.789062 303.822115 630.46875 301.442308 629.492188 299.855769 C 629.882812 299.459135 630.273438 300.252404 630.664062 300.649038 C 631.25 301.442308 632.8125 303.623798 632.8125 303.623798 L 633.203125 301.24399 L 629.296875 297.674279 C 629.296875 298.269231 627.929688 298.665865 627.929688 298.665865 C 627.34375 302.03726 632.617188 306.201923 632.617188 306.201923 " transform="matrix(0.02,0,0,0.019697,0,0)"/>
<path style="fill-rule:nonzero;fill:rgb(0%,60.784314%,22.745098%);fill-opacity:1;stroke-width:0.754;stroke-linecap:butt;stroke-linejoin:miter;stroke:rgb(0%,0%,0%);stroke-opacity:1;stroke-miterlimit:4;" d="M 625.78125 300.649038 C 625.390625 300.847356 625 301.045673 624.414062 301.045673 L 625 302.433894 L 625.390625 302.830529 C 625.390625 302.830529 626.5625 304.615385 627.34375 304.813702 C 629.6875 305.408654 632.03125 306.598558 633.59375 308.383413 C 633.59375 308.383413 629.6875 304.020433 628.320312 300.649038 L 627.734375 298.665865 L 626.367188 298.864183 C 626.367188 298.864183 626.757812 300.252404 625.78125 300.649038 " transform="matrix(0.02,0,0,0.019697,0,0)"/>
<path style="fill-rule:nonzero;fill:rgb(0%,60.784314%,22.745098%);fill-opacity:1;stroke-width:0.754;stroke-linecap:butt;stroke-linejoin:miter;stroke:rgb(0%,0%,0%);stroke-opacity:1;stroke-miterlimit:4;" d="M 611.328125 297.872596 C 611.914062 298.467548 612.695312 298.864183 613.28125 299.459135 C 615.039062 300.450721 616.796875 301.24399 618.554688 301.640625 C 618.945312 301.838942 621.289062 302.03726 621.289062 302.03726 C 621.289062 301.442308 621.875 301.045673 622.460938 301.045673 L 619.140625 300.649038 C 616.796875 300.450721 614.453125 299.260817 612.890625 297.475962 C 615.039062 298.864183 618.164062 300.847356 620.507812 300.649038 C 630.664062 299.657452 617.578125 299.459135 616.40625 298.665865 C 615.625 298.070913 614.84375 297.475962 614.0625 296.682692 L 611.132812 296.682692 C 611.132812 296.682692 609.765625 296.484375 611.328125 297.872596 " transform="matrix(0.02,0,0,0.019697,0,0)"/>
<path style="fill-rule:nonzero;fill:rgb(0%,60.784314%,22.745098%);fill-opacity:1;stroke-width:0.754;stroke-linecap:butt;stroke-linejoin:miter;stroke:rgb(0%,0%,0%);stroke-opacity:1;stroke-miterlimit:4;" d="M 623.046875 303.623798 C 623.828125 303.425481 624.21875 303.425481 624.414062 302.632212 C 624.414062 302.235577 624.414062 301.838942 624.21875 301.640625 C 624.023438 301.24399 623.632812 301.045673 623.242188 301.045673 C 622.460938 300.847356 621.679688 301.24399 621.289062 301.838942 C 620.898438 302.830529 622.460938 303.425481 622.460938 303.425481 C 622.65625 303.623798 622.851562 303.623798 623.046875 303.623798 M 624.21875 297.872596 C 623.4375 297.872596 623.046875 298.467548 623.242188 299.855769 C 623.4375 301.24399 625.585938 300.649038 625.585938 300.649038 L 625.976562 300.450721 C 625.976562 300.450721 626.367188 300.252404 626.171875 299.0625 C 625.976562 298.070913 625.195312 297.872596 624.21875 297.872596 M 627.734375 298.665865 C 627.539062 298.665865 627.734375 298.665865 627.734375 298.665865 " transform="matrix(0.02,0,0,0.019697,0,0)"/>
<path style="fill-rule:nonzero;fill:rgb(0%,60.784314%,22.745098%);fill-opacity:1;stroke-width:0.754;stroke-linecap:butt;stroke-linejoin:miter;stroke:rgb(0%,0%,0%);stroke-opacity:1;stroke-miterlimit:4;" d="M 627.539062 298.665865 C 627.734375 298.665865 627.929688 298.665865 627.929688 298.665865 C 628.320312 298.467548 628.90625 297.475962 628.90625 297.475962 C 629.101562 296.682692 628.710938 295.889423 627.929688 295.691106 C 626.367188 295.294471 626.171875 296.88101 626.171875 296.88101 C 625.78125 298.665865 627.34375 298.665865 627.539062 298.665865 M 620.117188 292.121394 C 620.3125 292.716346 620.703125 293.311298 621.09375 293.707933 C 621.875 294.302885 622.460938 295.096154 622.851562 295.691106 C 623.242188 296.286058 624.609375 298.665865 624.609375 298.665865 C 624.804688 298.665865 624.804688 298.665865 625 298.467548 C 625.195312 298.070913 624.023438 295.096154 624.023438 294.897837 C 623.4375 294.104567 622.851562 293.311298 622.265625 292.518029 C 621.679688 292.121394 621.289062 291.526442 620.898438 290.93149 C 622.851562 293.509615 624.609375 296.08774 625.976562 298.864183 C 625.976562 298.864183 625.976562 296.682692 625.78125 295.691106 C 625.78125 293.90625 625.195312 292.319712 624.414062 290.93149 C 623.828125 290.138221 622.851562 289.344952 621.875 288.948317 C 620.898438 288.551683 619.921875 288.155048 618.75 287.956731 C 617.773438 287.560096 618.554688 288.551683 618.945312 289.344952 C 619.53125 290.138221 619.726562 291.129808 620.117188 292.121394 " transform="matrix(0.02,0,0,0.019697,0,0)"/>
<path style="fill-rule:nonzero;fill:rgb(0%,60.784314%,22.745098%);fill-opacity:1;stroke-width:0.754;stroke-linecap:butt;stroke-linejoin:miter;stroke:rgb(0%,0%,0%);stroke-opacity:1;stroke-miterlimit:4;" d="M 615.820312 297.277644 C 616.796875 298.467548 618.164062 299.0625 619.726562 299.260817 C 622.070312 299.657452 622.265625 299.459135 622.265625 299.459135 C 622.265625 299.459135 623.4375 298.864183 622.851562 298.467548 C 619.53125 296.88101 616.210938 295.096154 614.648438 293.112981 C 614.648438 293.112981 614.84375 292.716346 616.015625 293.90625 C 616.601562 294.501202 616.992188 294.897837 617.578125 295.294471 C 618.554688 296.08774 619.53125 296.682692 620.703125 297.079327 C 621.289062 297.475962 622.070312 297.674279 622.851562 297.872596 C 622.851562 297.872596 623.242188 297.475962 623.4375 297.277644 C 623.632812 297.277644 623.242188 296.484375 621.875 295.294471 C 621.09375 294.699519 620.3125 293.90625 619.726562 293.112981 C 619.726562 293.112981 617.96875 292.716346 616.210938 292.319712 C 614.84375 292.121394 612.304688 290.138221 612.304688 290.733173 C 612.5 291.923077 612.695312 293.112981 613.28125 294.104567 C 614.0625 295.294471 614.84375 296.286058 615.820312 297.277644 " transform="matrix(0.02,0,0,0.019697,0,0)"/>
<path style="fill-rule:nonzero;fill:rgb(0%,60.784314%,22.745098%);fill-opacity:1;stroke-width:0.602;stroke-linecap:butt;stroke-linejoin:miter;stroke:rgb(0%,0%,0%);stroke-opacity:1;stroke-miterlimit:4;" d="M 596.679688 366.887019 C 595.507812 367.283654 588.085938 370.060096 588.085938 370.060096 L 585.9375 370.853365 C 587.695312 370.456731 589.453125 370.853365 591.015625 371.646635 L 599.414062 367.878606 C 599.414062 367.878606 599.414062 367.680288 599.21875 367.481971 C 598.4375 367.085337 597.460938 366.887019 596.679688 366.887019 " transform="matrix(0.02,0,0,0.019697,0,0)"/>
<path style="fill-rule:nonzero;fill:rgb(0%,60.784314%,22.745098%);fill-opacity:1;stroke-width:0.644;stroke-linecap:butt;stroke-linejoin:miter;stroke:rgb(0%,0%,0%);stroke-opacity:1;stroke-miterlimit:4;" d="M 585.546875 371.25 C 585.546875 371.25 585.546875 371.448317 585.546875 371.448317 C 586.132812 371.646635 585.9375 371.844952 587.890625 372.043269 C 589.84375 372.241587 591.015625 371.844952 591.40625 371.448317 C 591.796875 371.051683 586.523438 370.258413 585.546875 371.25 " transform="matrix(0.02,0,0,0.019697,0,0)"/>
<path style="fill-rule:nonzero;fill:rgb(0%,60.784314%,22.745098%);fill-opacity:1;stroke-width:0.836;stroke-linecap:butt;stroke-linejoin:miter;stroke:rgb(0%,0%,0%);stroke-opacity:1;stroke-miterlimit:4;" d="M 573.4375 343.882212 L 573.242188 341.502404 C 573.242188 341.502404 572.65625 335.15625 572.070312 333.966346 C 571.875 333.569712 571.875 332.97476 571.484375 332.97476 C 570.507812 332.97476 570.507812 334.957933 570.507812 336.941106 C 568.945312 346.262019 576.5625 353.59976 576.5625 353.59976 Z M 573.4375 343.882212 " transform="matrix(0.02,0,0,0.019697,0,0)"/>
<path style="fill-rule:nonzero;fill:rgb(0%,60.784314%,22.745098%);fill-opacity:1;stroke-width:0.77;stroke-linecap:butt;stroke-linejoin:miter;stroke:rgb(0%,0%,0%);stroke-opacity:1;stroke-miterlimit:4;" d="M 610.9375 372.043269 C 610.9375 372.043269 610.15625 371.844952 610.742188 371.25 C 611.328125 370.853365 612.109375 370.456731 612.890625 370.456731 C 613.476562 370.456731 614.0625 370.456731 614.648438 370.655048 C 615.234375 370.853365 616.015625 371.25 615.820312 371.646635 C 615.234375 372.241587 614.453125 372.638221 613.671875 372.439904 C 612.890625 372.439904 612.304688 372.439904 611.71875 372.439904 C 611.328125 372.241587 610.9375 372.043269 610.9375 372.043269 " transform="matrix(0.02,0,0,0.019697,0,0)"/>
<path style="fill-rule:nonzero;fill:rgb(0%,60.784314%,22.745098%);fill-opacity:1;stroke-width:0.602;stroke-linecap:butt;stroke-linejoin:miter;stroke:rgb(0%,0%,0%);stroke-opacity:1;stroke-miterlimit:4;" d="M 602.734375 367.481971 C 602.734375 367.481971 600.195312 366.292067 597.65625 365.102163 C 594.53125 363.515625 590.625 361.334135 587.890625 357.367788 C 585.9375 354.194712 583.398438 351.616587 580.859375 349.038462 C 580.078125 348.641827 579.882812 348.44351 579.6875 348.840144 C 579.492188 349.038462 579.492188 349.435096 579.6875 349.633413 C 580.46875 350.823317 582.226562 353.004808 582.8125 354.194712 C 583.789062 356.177885 586.132812 358.359375 586.132812 359.747596 C 586.132812 359.945913 585.351562 359.549279 585.351562 359.549279 C 582.03125 358.161058 579.296875 355.186298 578.125 351.616587 C 576.757812 347.055288 577.34375 345.865385 576.953125 343.485577 C 576.367188 339.519231 576.171875 339.122596 574.21875 334.759615 C 574.21875 334.561298 573.046875 332.776442 572.851562 333.173077 C 572.851562 333.966346 572.851562 334.759615 573.046875 335.751202 L 573.242188 337.932692 C 573.242188 337.932692 573.046875 343.088942 573.046875 343.485577 C 573.046875 343.683894 571.875 347.055288 577.34375 352.409856 C 577.34375 352.409856 577.34375 353.203125 576.757812 352.409856 C 576.171875 351.814904 572.265625 348.840144 571.09375 343.882212 C 569.726562 338.924279 569.53125 333.966346 570.507812 331.784856 C 571.289062 330 573.046875 325.438702 572.265625 321.472356 C 572.265625 320.877404 572.070312 319.6875 571.875 320.084135 C 571.679688 320.282452 571.289062 322.265625 570.898438 322.860577 C 570.507812 323.852163 569.921875 324.84375 569.726562 325.438702 C 569.335938 326.628606 567.382812 328.413462 567.773438 331.586538 C 567.96875 333.371394 568.359375 335.354567 568.945312 337.139423 C 569.140625 337.536058 569.335938 338.725962 569.140625 338.924279 C 568.945312 339.122596 568.164062 337.536058 568.164062 337.536058 C 568.164062 337.536058 564.648438 330.594952 566.796875 325.042067 C 568.945312 319.489183 574.414062 314.332933 574.414062 314.332933 C 574.414062 314.332933 578.90625 310.564904 579.882812 309.771635 C 580.078125 309.375 580.078125 309.176683 579.882812 309.176683 C 573.828125 310.564904 568.945312 315.324519 567.382812 321.472356 C 567.382812 321.472356 567.1875 321.86899 566.992188 321.670673 C 566.601562 321.670673 566.992188 321.075721 566.992188 321.075721 C 566.992188 321.075721 568.75 313.936298 574.023438 310.564904 C 579.882812 306.995192 579.101562 307.590144 581.054688 306.40024 C 582.617188 305.408654 583.789062 304.020433 584.765625 302.433894 C 584.960938 302.03726 585.15625 301.442308 585.351562 300.847356 C 585.15625 300.450721 584.960938 300.847356 584.765625 301.24399 C 583.789062 302.632212 582.421875 303.822115 580.859375 304.615385 C 578.320312 305.408654 576.367188 304.21875 573.828125 306.995192 C 572.265625 308.978365 570.703125 311.159856 569.53125 313.341346 C 569.53125 313.341346 568.75 314.332933 568.75 314.332933 C 568.359375 314.332933 568.75 313.341346 568.75 313.341346 C 568.75 313.341346 572.070312 306.40024 574.804688 305.012019 C 576.953125 303.822115 579.101562 302.433894 581.25 301.045673 C 583.398438 299.0625 585.351562 297.079327 587.304688 294.897837 C 587.5 294.699519 589.257812 292.914663 589.648438 292.319712 C 589.84375 292.121394 590.429688 291.526442 590.234375 291.526442 C 590.039062 291.328125 588.476562 292.121394 588.476562 292.121394 C 582.8125 293.90625 577.734375 297.674279 574.414062 302.632212 C 574.023438 303.227163 573.632812 303.623798 573.242188 304.21875 C 572.851562 304.615385 572.460938 305.210337 572.265625 305.805288 C 572.070312 305.408654 575.390625 301.24399 575.390625 301.24399 L 575.976562 298.467548 C 576.5625 295.889423 577.734375 293.509615 579.101562 291.328125 C 579.296875 291.129808 580.664062 289.939904 580.859375 289.543269 C 581.25 289.146635 580.078125 289.939904 580.273438 289.741587 C 580.273438 289.741587 572.070312 295.691106 572.070312 303.028846 C 572.070312 304.21875 571.289062 305.408654 570.117188 307.19351 C 568.945312 308.780048 568.164062 310.961538 567.773438 312.944712 C 567.578125 314.134615 567.382812 315.324519 567.1875 316.514423 C 566.796875 318.299279 567.1875 317.704327 566.796875 317.50601 C 566.40625 317.50601 566.601562 316.514423 566.601562 316.514423 C 566.992188 314.134615 567.382812 311.754808 567.96875 309.375 C 568.554688 307.788462 568.945312 306.598558 568.945312 306.598558 C 568.945312 306.598558 568.554688 302.632212 569.53125 300.252404 C 570.507812 298.467548 571.484375 296.88101 572.65625 295.096154 C 573.242188 293.707933 573.632812 292.319712 573.828125 290.93149 C 573.828125 290.534856 573.632812 290.93149 573.242188 291.72476 C 572.460938 293.707933 571.679688 294.302885 570.3125 296.08774 C 570.3125 296.08774 566.40625 298.864183 565.039062 306.995192 C 565.039062 306.995192 565.039062 309.969952 564.648438 314.729567 C 564.257812 317.50601 564.453125 320.480769 564.84375 323.455529 C 565.234375 324.645433 565.625 324.645433 565.429688 324.645433 C 565.234375 324.84375 565.429688 324.645433 565.039062 323.852163 C 564.453125 322.265625 564.0625 320.480769 564.0625 318.695913 C 564.0625 314.53125 564.453125 311.159856 564.453125 311.159856 C 564.453125 311.159856 564.84375 304.21875 561.914062 301.24399 C 561.914062 301.045673 562.5 302.632212 562.695312 304.21875 C 562.890625 306.003606 562.695312 307.986779 562.304688 309.771635 C 562.109375 310.763221 560.15625 315.324519 560.9375 319.489183 C 560.9375 319.489183 562.5 326.628606 564.453125 330.198317 C 564.453125 330.198317 565.820312 331.586538 564.648438 330.198317 C 563.476562 328.810096 561.328125 323.257212 561.132812 322.860577 C 560.15625 320.877404 558.984375 319.092548 557.617188 317.50601 C 556.640625 316.71274 555.664062 315.919471 554.6875 315.324519 C 554.6875 315.324519 553.515625 314.53125 554.296875 315.721154 C 555.078125 316.71274 556.054688 318.299279 556.445312 319.092548 C 557.421875 320.679087 558.398438 322.265625 558.984375 323.852163 C 559.765625 325.637019 561.523438 330.396635 561.523438 330.396635 L 562.695312 333.371394 C 563.671875 333.966346 564.648438 334.759615 565.429688 335.552885 C 567.1875 337.536058 568.554688 339.717548 569.335938 342.097356 C 569.921875 343.28726 570.507812 344.278846 571.289062 345.270433 C 571.289062 345.270433 571.09375 345.865385 569.921875 343.882212 C 568.75 341.899038 567.773438 338.13101 565.039062 335.354567 C 562.890625 332.97476 557.421875 330.793269 557.421875 330.793269 C 557.421875 330.793269 560.9375 336.941106 561.914062 338.13101 C 563.28125 339.915865 565.429688 342.295673 566.015625 342.890625 C 566.601562 343.683894 569.921875 347.65024 570.507812 348.44351 C 570.898438 349.038462 571.484375 349.633413 572.070312 350.228365 C 573.046875 351.219952 575.585938 353.004808 575.78125 353.203125 C 575.78125 353.401442 575.976562 353.203125 575.78125 353.004808 C 574.609375 352.409856 573.242188 351.219952 571.679688 350.426683 C 570.3125 349.435096 564.84375 347.055288 561.132812 342.097356 C 560.351562 340.510817 559.960938 339.915865 559.570312 340.114183 C 559.179688 340.3125 562.109375 350.030048 568.164062 353.004808 C 568.164062 353.004808 574.804688 355.979567 576.171875 356.971154 C 577.34375 357.566106 578.320312 358.161058 579.492188 358.75601 C 579.882812 359.152644 579.101562 359.152644 578.90625 359.152644 C 575.390625 358.75601 570.3125 358.359375 567.1875 356.574519 C 567.1875 356.574519 566.015625 355.582933 566.992188 356.971154 C 568.554688 358.954327 570.507812 360.739183 572.65625 361.929087 C 575.78125 363.11899 579.101562 363.91226 582.226562 364.110577 C 583.984375 364.308894 589.84375 364.308894 591.015625 364.705529 C 592.1875 365.102163 594.140625 366.292067 595.117188 366.688702 C 596.09375 366.887019 599.21875 368.076923 599.21875 368.076923 C 599.609375 368.27524 600 368.473558 600.585938 368.671875 C 600.976562 368.870192 603.320312 368.870192 603.515625 368.473558 C 603.515625 368.076923 602.734375 367.481971 602.734375 367.481971 " transform="matrix(0.02,0,0,0.019697,0,0)"/>
<path style="fill-rule:nonzero;fill:rgb(0%,60.784314%,22.745098%);fill-opacity:1;stroke-width:0.754;stroke-linecap:butt;stroke-linejoin:miter;stroke:rgb(0%,0%,0%);stroke-opacity:1;stroke-miterlimit:4;" d="M 641.40625 317.109375 C 642.1875 317.307692 642.382812 319.290865 642.382812 319.290865 C 642.382812 319.290865 642.382812 318.100962 642.382812 317.704327 C 642.382812 317.109375 641.992188 314.927885 641.992188 314.927885 L 641.40625 315.324519 C 641.015625 315.721154 640.625 316.316106 640.429688 316.911058 C 640.625 316.911058 641.015625 316.911058 641.40625 317.109375 " transform="matrix(0.02,0,0,0.019697,0,0)"/>
</g>
</svg>
