<?xml version="1.0" encoding="UTF-8"?>
<svg xmlns="http://www.w3.org/2000/svg" xmlns:xlink="http://www.w3.org/1999/xlink" width="24px" height="24px" viewBox="0 0 24 16" version="1.1">
<g id="surface1">
<rect x="0" y="0" width="24" height="16" style="fill:rgb(12.54902%,37.647059%,23.921569%);fill-opacity:1;stroke:none;"/>
<path style=" stroke:none;fill-rule:nonzero;fill:rgb(98.039216%,82.352941%,0.392157%);fill-opacity:1;" d="M 0 0 L 24 0 L 24 12 L 0 12 Z M 0 0 "/>
<path style=" stroke:none;fill-rule:nonzero;fill:rgb(0%,63.137255%,87.058824%);fill-opacity:1;" d="M 0 0 L 24 0 L 24 8 L 0 8 Z M 0 0 "/>
<path style=" stroke:none;fill-rule:nonzero;fill:rgb(89.803922%,74.509804%,0.392157%);fill-opacity:1;" d="M 22.28125 4.179688 L 20.492188 4.285156 L 22.191406 4.847656 L 20.4375 4.484375 L 21.933594 5.46875 L 20.335938 4.667969 L 21.523438 6.003906 L 20.1875 4.816406 L 20.988281 6.414062 L 20.007812 4.917969 L 20.367188 6.671875 L 19.804688 4.972656 L 19.699219 6.761719 L 19.679688 4.15625 Z M 22.28125 4.179688 "/>
<path style=" stroke:none;fill-rule:nonzero;fill:rgb(89.803922%,74.509804%,0.392157%);fill-opacity:1;" d="M 22.28125 4.179688 L 20.492188 4.074219 L 22.191406 3.511719 L 20.4375 3.875 L 21.933594 2.890625 L 20.335938 3.691406 L 21.523438 2.355469 L 20.1875 3.546875 L 20.988281 1.945312 L 20.007812 3.441406 L 20.367188 1.6875 L 19.804688 3.386719 L 19.699219 1.601562 L 19.679688 4.203125 Z M 22.28125 4.179688 "/>
<path style=" stroke:none;fill-rule:nonzero;fill:rgb(89.803922%,74.509804%,0.392157%);fill-opacity:1;" d="M 17.121094 4.179688 L 18.90625 4.285156 L 17.207031 4.847656 L 18.960938 4.484375 L 17.464844 5.46875 L 19.066406 4.667969 L 17.875 6.003906 L 19.214844 4.816406 L 18.410156 6.414062 L 19.394531 4.917969 L 19.03125 6.671875 L 19.59375 4.972656 L 19.699219 6.761719 L 19.722656 4.15625 Z M 17.121094 4.179688 "/>
<path style=" stroke:none;fill-rule:nonzero;fill:rgb(89.803922%,74.509804%,0.392157%);fill-opacity:1;" d="M 17.121094 4.179688 L 18.90625 4.074219 L 17.207031 3.511719 L 18.960938 3.875 L 17.464844 2.890625 L 19.066406 3.691406 L 17.875 2.355469 L 19.214844 3.546875 L 18.410156 1.945312 L 19.394531 3.441406 L 19.03125 1.6875 L 19.59375 3.386719 L 19.699219 1.601562 L 19.722656 4.203125 Z M 17.121094 4.179688 "/>
<path style="fill-rule:nonzero;fill:rgb(89.803922%,74.509804%,0.392157%);fill-opacity:1;stroke-width:3.4;stroke-linecap:butt;stroke-linejoin:miter;stroke:rgb(0%,63.137255%,87.058824%);stroke-opacity:1;stroke-miterlimit:4;" d="M 34.242188 -0.0140625 C 34.242188 18.970313 18.949219 34.263281 -0.0351562 34.263281 C -19.019531 34.263281 -34.3125 18.970313 -34.3125 -0.0140625 C -34.3125 -18.998437 -19.019531 -34.291406 -0.0351562 -34.291406 C 18.949219 -34.291406 34.242188 -18.998437 34.242188 -0.0140625 Z M 34.242188 -0.0140625 " transform="matrix(0.0222222,0,0,0.0222222,19.7,4.18)"/>
</g>
</svg>
