<?xml version="1.0" encoding="UTF-8"?>
<svg xmlns="http://www.w3.org/2000/svg" xmlns:xlink="http://www.w3.org/1999/xlink" width="24px" height="24px" viewBox="0 0 24 16" version="1.1">
<g id="surface1">
<rect x="0" y="0" width="24" height="16" style="fill:rgb(0%,42.352941%,20.784314%);fill-opacity:1;stroke:none;"/>
<path style=" stroke:none;fill-rule:nonzero;fill:rgb(100%,100%,100%);fill-opacity:1;" d="M 16.984375 4.28125 C 17.121094 4.183594 17.246094 4.078125 17.398438 4 C 17.355469 4.171875 17.226562 4.304688 17.09375 4.417969 C 17.023438 4.46875 17.054688 4.566406 17.046875 4.640625 C 17.007812 4.632812 16.972656 4.621094 16.9375 4.609375 C 16.972656 5.050781 17.019531 5.488281 17.042969 5.929688 C 17.046875 5.980469 17.050781 6.03125 17.09375 6.066406 C 17.296875 6.246094 17.507812 6.425781 17.65625 6.660156 C 17.714844 6.75 17.742188 6.851562 17.773438 6.957031 C 17.808594 6.785156 17.8125 6.609375 17.789062 6.433594 C 17.714844 5.765625 17.648438 5.09375 17.589844 4.421875 C 17.582031 4.335938 17.570312 4.253906 17.582031 4.171875 C 17.589844 4.089844 17.660156 4.03125 17.742188 4.035156 C 17.785156 4.074219 17.816406 4.125 17.835938 4.179688 C 17.898438 4.316406 17.953125 4.46875 17.9375 4.621094 C 17.902344 4.609375 17.863281 4.597656 17.824219 4.582031 C 17.878906 5.035156 17.933594 5.492188 17.96875 5.949219 C 17.984375 6.257812 18.03125 6.570312 17.964844 6.875 C 17.910156 7.15625 17.773438 7.441406 17.523438 7.605469 C 17.316406 7.738281 17.078125 7.816406 16.835938 7.867188 C 16.738281 7.890625 16.636719 7.890625 16.539062 7.867188 C 16.640625 7.8125 16.753906 7.773438 16.863281 7.726562 C 17.019531 7.660156 17.171875 7.582031 17.316406 7.488281 C 17.449219 7.402344 17.585938 7.3125 17.683594 7.183594 C 17.5625 6.855469 17.359375 6.546875 17.066406 6.34375 C 17.078125 6.667969 17.09375 6.996094 17.042969 7.316406 C 17.035156 7.390625 17 7.460938 16.945312 7.511719 C 16.914062 7.378906 16.910156 7.238281 16.894531 7.097656 C 16.867188 6.800781 16.84375 6.5 16.820312 6.199219 C 16.820312 6.136719 16.78125 6.089844 16.734375 6.054688 C 16.550781 5.902344 16.382812 5.730469 16.207031 5.570312 C 16.210938 5.757812 16.238281 5.9375 16.253906 6.121094 C 16.273438 6.367188 16.277344 6.613281 16.300781 6.859375 C 16.316406 7.035156 16.320312 7.214844 16.253906 7.382812 C 16.191406 7.535156 16.046875 7.667969 15.871094 7.679688 C 15.78125 7.6875 15.6875 7.683594 15.597656 7.667969 C 15.503906 7.652344 15.429688 7.578125 15.382812 7.496094 C 15.332031 7.394531 15.304688 7.285156 15.261719 7.179688 C 15.179688 7.199219 15.097656 7.214844 15.039062 7.277344 C 14.914062 7.394531 14.878906 7.574219 14.820312 7.726562 C 14.785156 7.820312 14.746094 7.917969 14.65625 7.96875 C 14.5625 8.023438 14.449219 8 14.359375 7.953125 C 14.222656 7.878906 14.140625 7.738281 14.101562 7.59375 C 14.058594 7.480469 14.117188 7.351562 14.046875 7.246094 C 13.996094 7.148438 14.027344 7.035156 14.050781 6.933594 C 14.101562 6.753906 14.214844 6.601562 14.347656 6.472656 L 13.820312 6.015625 C 13.835938 6.4375 13.867188 6.859375 13.8125 7.28125 C 13.804688 7.367188 13.769531 7.445312 13.710938 7.507812 C 13.691406 7.425781 13.679688 7.347656 13.671875 7.261719 C 13.628906 6.800781 13.59375 6.335938 13.5625 5.871094 C 13.558594 5.816406 13.550781 5.757812 13.507812 5.722656 C 13.324219 5.550781 13.15625 5.371094 12.996094 5.179688 C 12.902344 5.0625 12.804688 4.941406 12.757812 4.800781 C 12.738281 4.742188 12.722656 4.660156 12.777344 4.617188 C 12.839844 4.625 12.902344 4.648438 12.957031 4.679688 C 13.0625 4.742188 13.15625 4.816406 13.238281 4.90625 C 13.273438 4.945312 13.296875 4.992188 13.308594 5.042969 C 13.257812 5.042969 13.207031 5.039062 13.15625 5.039062 C 13.257812 5.191406 13.382812 5.328125 13.527344 5.445312 C 13.511719 5.050781 13.46875 4.65625 13.453125 4.261719 C 13.453125 4.207031 13.453125 4.148438 13.488281 4.105469 C 13.523438 4.066406 13.574219 4.050781 13.621094 4.035156 C 13.707031 4.160156 13.769531 4.304688 13.804688 4.453125 C 13.820312 4.511719 13.820312 4.574219 13.816406 4.632812 C 13.777344 4.625 13.742188 4.613281 13.707031 4.601562 C 13.734375 4.921875 13.765625 5.238281 13.789062 5.558594 C 13.789062 5.605469 13.796875 5.648438 13.804688 5.695312 C 13.828125 5.722656 13.851562 5.75 13.878906 5.769531 C 14.097656 5.957031 14.316406 6.140625 14.539062 6.320312 C 14.671875 6.207031 14.800781 6.089844 14.933594 5.976562 C 14.964844 5.953125 14.992188 5.925781 15.019531 5.898438 C 15.046875 5.871094 15.035156 5.832031 15.035156 5.800781 C 14.992188 5.414062 14.960938 5.03125 14.925781 4.644531 C 14.917969 4.503906 14.898438 4.367188 14.898438 4.230469 C 14.894531 4.144531 14.957031 4.0625 15.042969 4.0625 C 15.078125 4.058594 15.09375 4.097656 15.113281 4.121094 C 15.175781 4.230469 15.222656 4.351562 15.25 4.472656 C 15.261719 4.53125 15.261719 4.59375 15.246094 4.65625 C 15.210938 4.640625 15.175781 4.621094 15.140625 4.609375 C 15.1875 4.96875 15.222656 5.332031 15.257812 5.691406 C 15.355469 5.621094 15.441406 5.539062 15.53125 5.460938 C 15.628906 5.378906 15.734375 5.296875 15.828125 5.203125 C 15.714844 5.082031 15.59375 4.964844 15.476562 4.84375 C 15.402344 4.769531 15.3125 4.695312 15.28125 4.585938 C 15.257812 4.511719 15.273438 4.429688 15.289062 4.355469 C 15.429688 4.378906 15.546875 4.460938 15.660156 4.542969 C 15.734375 4.601562 15.804688 4.667969 15.871094 4.738281 C 15.867188 4.585938 15.847656 4.429688 15.835938 4.277344 C 15.835938 4.21875 15.828125 4.15625 15.871094 4.109375 C 15.902344 4.070312 15.957031 4.054688 16 4.035156 C 16.085938 4.15625 16.148438 4.289062 16.183594 4.433594 C 16.199219 4.496094 16.203125 4.5625 16.195312 4.628906 C 16.160156 4.621094 16.121094 4.609375 16.082031 4.601562 C 16.09375 4.71875 16.109375 4.832031 16.121094 4.953125 C 16.269531 4.84375 16.402344 4.71875 16.546875 4.609375 C 16.59375 4.5625 16.683594 4.527344 16.683594 4.445312 C 16.6875 4.359375 16.667969 4.265625 16.683594 4.179688 C 16.695312 4.101562 16.761719 4.042969 16.84375 4.046875 C 16.917969 4.117188 16.945312 4.203125 16.984375 4.28125 Z M 16.230469 5.132812 C 16.207031 5.15625 16.160156 5.179688 16.164062 5.226562 C 16.179688 5.261719 16.21875 5.292969 16.25 5.324219 C 16.429688 5.488281 16.597656 5.65625 16.785156 5.804688 C 16.78125 5.628906 16.761719 5.460938 16.753906 5.285156 C 16.738281 5.105469 16.730469 4.921875 16.710938 4.742188 C 16.546875 4.859375 16.394531 5 16.230469 5.132812 Z M 15.777344 4.8125 C 15.816406 4.855469 15.855469 4.898438 15.894531 4.941406 C 15.894531 4.898438 15.890625 4.855469 15.890625 4.8125 Z M 15.34375 5.882812 C 15.3125 5.910156 15.277344 5.9375 15.28125 5.984375 C 15.277344 6.207031 15.300781 6.433594 15.246094 6.652344 C 15.234375 6.707031 15.191406 6.746094 15.152344 6.78125 C 15.101562 6.566406 15.101562 6.347656 15.0625 6.128906 C 14.929688 6.234375 14.804688 6.351562 14.679688 6.464844 C 14.75 6.542969 14.824219 6.628906 14.847656 6.738281 C 14.890625 6.890625 14.839844 7.058594 14.71875 7.160156 C 14.566406 7.289062 14.363281 7.308594 14.171875 7.332031 C 14.203125 7.453125 14.226562 7.585938 14.300781 7.691406 C 14.347656 7.75 14.421875 7.808594 14.5 7.785156 C 14.585938 7.761719 14.640625 7.679688 14.671875 7.605469 C 14.730469 7.449219 14.804688 7.296875 14.894531 7.15625 C 14.96875 7.039062 15.089844 6.941406 15.230469 6.9375 C 15.277344 6.941406 15.339844 6.925781 15.367188 6.976562 C 15.425781 7.078125 15.449219 7.203125 15.527344 7.300781 C 15.65625 7.46875 15.929688 7.472656 16.085938 7.332031 C 16.136719 7.285156 16.136719 7.207031 16.132812 7.144531 C 16.0625 6.558594 16.007812 5.96875 15.945312 5.382812 C 15.738281 5.546875 15.546875 5.714844 15.34375 5.882812 Z M 14.253906 6.882812 C 14.222656 6.929688 14.199219 6.980469 14.1875 7.039062 C 14.324219 7.050781 14.464844 7.023438 14.585938 6.953125 C 14.625 6.929688 14.667969 6.890625 14.660156 6.839844 C 14.648438 6.742188 14.566406 6.671875 14.492188 6.613281 C 14.40625 6.695312 14.324219 6.785156 14.253906 6.882812 Z M 8.453125 4.03125 C 8.492188 4.007812 8.523438 4.050781 8.550781 4.078125 C 8.625 4.167969 8.703125 4.257812 8.746094 4.371094 C 8.710938 4.375 8.671875 4.382812 8.632812 4.386719 C 8.640625 4.5625 8.789062 4.683594 8.832031 4.851562 C 8.863281 4.957031 8.867188 5.0625 8.847656 5.167969 C 8.816406 5.316406 8.699219 5.429688 8.554688 5.457031 C 8.382812 5.488281 8.191406 5.445312 8.066406 5.320312 C 7.980469 5.238281 7.949219 5.121094 7.914062 5.015625 C 7.875 5.15625 7.816406 5.296875 7.710938 5.40625 C 7.652344 5.472656 7.578125 5.523438 7.5 5.5625 C 7.519531 5.957031 7.5625 6.351562 7.527344 6.742188 C 7.515625 6.851562 7.507812 6.984375 7.40625 7.058594 C 7.371094 6.902344 7.363281 6.742188 7.34375 6.578125 C 7.3125 6.253906 7.285156 5.925781 7.253906 5.601562 C 7.15625 5.578125 7.050781 5.558594 6.976562 5.488281 C 6.855469 5.375 6.8125 5.203125 6.824219 5.042969 C 6.828125 4.917969 6.867188 4.800781 6.894531 4.679688 C 6.847656 4.726562 6.8125 4.78125 6.789062 4.84375 C 6.722656 5.039062 6.679688 5.246094 6.589844 5.433594 C 6.558594 5.507812 6.492188 5.566406 6.414062 5.585938 C 6.3125 5.605469 6.195312 5.601562 6.121094 5.523438 C 6.035156 5.441406 6.015625 5.320312 6.003906 5.207031 C 6 5.09375 5.988281 4.96875 6.042969 4.863281 C 6.074219 4.800781 6.136719 4.765625 6.195312 4.730469 C 6.15625 4.792969 6.113281 4.855469 6.105469 4.925781 C 6.089844 5.023438 6.109375 5.128906 6.128906 5.226562 C 6.140625 5.285156 6.152344 5.347656 6.199219 5.390625 C 6.273438 5.453125 6.386719 5.449219 6.457031 5.382812 C 6.492188 5.339844 6.519531 5.292969 6.53125 5.238281 C 6.59375 5.050781 6.644531 4.859375 6.722656 4.675781 C 6.789062 4.523438 6.910156 4.375 7.082031 4.339844 C 7.0625 4.550781 6.96875 4.742188 6.960938 4.953125 C 6.960938 5.046875 6.96875 5.152344 7.03125 5.226562 C 7.078125 5.285156 7.152344 5.308594 7.226562 5.328125 C 7.207031 5.042969 7.179688 4.757812 7.160156 4.46875 C 7.152344 4.363281 7.136719 4.253906 7.152344 4.148438 C 7.167969 4.078125 7.25 4.050781 7.3125 4.027344 C 7.429688 4.199219 7.515625 4.40625 7.511719 4.617188 C 7.472656 4.609375 7.433594 4.597656 7.394531 4.589844 C 7.417969 4.835938 7.445312 5.082031 7.472656 5.324219 C 7.574219 5.292969 7.664062 5.230469 7.726562 5.140625 C 7.847656 4.964844 7.863281 4.742188 7.804688 4.539062 C 7.78125 4.457031 7.742188 4.375 7.722656 4.289062 C 7.703125 4.207031 7.761719 4.121094 7.835938 4.09375 C 7.871094 4.078125 7.886719 4.121094 7.902344 4.144531 C 7.949219 4.242188 7.964844 4.355469 7.984375 4.464844 C 8.011719 4.609375 7.984375 4.757812 8.039062 4.894531 C 8.078125 5.015625 8.160156 5.117188 8.269531 5.183594 C 8.359375 5.230469 8.464844 5.246094 8.566406 5.226562 C 8.617188 5.21875 8.65625 5.179688 8.667969 5.128906 C 8.691406 5.035156 8.660156 4.9375 8.617188 4.851562 C 8.527344 4.65625 8.410156 4.472656 8.367188 4.261719 C 8.351562 4.183594 8.375 4.078125 8.453125 4.03125 Z M 8.453125 4.03125 "/>
<path style=" stroke:none;fill-rule:nonzero;fill:rgb(100%,100%,100%);fill-opacity:1;" d="M 12.695312 4.257812 C 12.753906 4.160156 12.84375 4.082031 12.949219 4.03125 C 12.921875 4.101562 12.882812 4.167969 12.839844 4.230469 C 12.808594 4.277344 12.808594 4.339844 12.804688 4.390625 C 12.875 4.386719 12.945312 4.375 13.015625 4.359375 C 12.996094 4.414062 12.980469 4.472656 12.925781 4.507812 C 12.867188 4.550781 12.78125 4.574219 12.71875 4.527344 C 12.65625 4.453125 12.644531 4.34375 12.695312 4.257812 Z M 8.863281 4.128906 C 8.894531 4.082031 8.953125 4.066406 9 4.042969 C 9.09375 4.171875 9.160156 4.3125 9.191406 4.46875 C 9.203125 4.523438 9.207031 4.585938 9.195312 4.644531 C 9.160156 4.632812 9.125 4.621094 9.089844 4.609375 C 9.128906 4.894531 9.179688 5.175781 9.214844 5.460938 C 9.378906 5.378906 9.527344 5.285156 9.699219 5.214844 C 9.75 5.191406 9.808594 5.175781 9.867188 5.171875 C 9.84375 5.21875 9.820312 5.265625 9.769531 5.285156 C 9.589844 5.378906 9.410156 5.457031 9.230469 5.558594 C 9.246094 5.699219 9.261719 5.84375 9.28125 5.984375 C 9.363281 5.878906 9.433594 5.75 9.570312 5.71875 C 9.578125 5.796875 9.554688 5.886719 9.609375 5.949219 C 9.695312 6.015625 9.8125 5.972656 9.894531 5.914062 C 9.886719 5.800781 9.917969 5.691406 9.941406 5.582031 C 9.972656 5.597656 10.015625 5.605469 10.027344 5.644531 C 10.066406 5.746094 10.058594 5.863281 10.027344 5.964844 C 10 6.082031 9.90625 6.171875 9.800781 6.222656 C 9.734375 6.257812 9.65625 6.273438 9.585938 6.246094 C 9.511719 6.214844 9.464844 6.144531 9.414062 6.082031 C 9.371094 6.1875 9.300781 6.285156 9.296875 6.40625 C 9.28125 6.660156 9.191406 6.898438 9.035156 7.097656 C 8.773438 7.441406 8.371094 7.648438 7.964844 7.769531 C 7.726562 7.832031 7.484375 7.894531 7.238281 7.878906 C 7.101562 7.882812 6.96875 7.84375 6.855469 7.777344 C 6.804688 7.746094 6.761719 7.703125 6.710938 7.671875 C 6.652344 7.660156 6.585938 7.679688 6.519531 7.679688 C 6.367188 7.683594 6.210938 7.691406 6.0625 7.664062 C 6.246094 7.601562 6.433594 7.554688 6.617188 7.488281 C 6.566406 7.152344 6.632812 6.8125 6.800781 6.523438 C 6.847656 6.449219 6.90625 6.378906 6.96875 6.320312 C 6.917969 6.425781 6.851562 6.53125 6.824219 6.648438 C 6.757812 6.894531 6.761719 7.15625 6.835938 7.398438 C 6.960938 7.359375 7.085938 7.300781 7.207031 7.25 C 7.488281 7.125 7.761719 6.992188 8.019531 6.824219 C 8.113281 6.753906 8.214844 6.683594 8.277344 6.582031 C 8.308594 6.53125 8.304688 6.472656 8.304688 6.417969 C 8.171875 6.445312 8.039062 6.507812 7.902344 6.503906 C 7.816406 6.496094 7.722656 6.480469 7.660156 6.410156 C 7.597656 6.34375 7.59375 6.246094 7.609375 6.164062 C 7.625 6.046875 7.679688 5.941406 7.765625 5.867188 C 7.867188 5.78125 8.019531 5.785156 8.136719 5.835938 C 8.25 5.890625 8.316406 6 8.371094 6.105469 C 8.542969 6.042969 8.660156 5.890625 8.832031 5.816406 C 8.835938 5.902344 8.828125 6.007812 8.894531 6.078125 C 8.9375 6.128906 9.003906 6.125 9.058594 6.128906 C 9.050781 5.988281 9.027344 5.851562 9.011719 5.710938 C 8.953125 5.25 8.894531 4.789062 8.84375 4.324219 C 8.839844 4.253906 8.832031 4.183594 8.863281 4.128906 Z M 7.808594 6.136719 C 7.792969 6.167969 7.832031 6.1875 7.855469 6.199219 C 7.949219 6.234375 8.050781 6.210938 8.144531 6.195312 C 8.097656 6.140625 8.035156 6.082031 7.957031 6.078125 C 7.902344 6.078125 7.832031 6.078125 7.808594 6.136719 Z M 8.480469 6.328125 C 8.488281 6.421875 8.492188 6.515625 8.460938 6.601562 C 8.410156 6.753906 8.296875 6.875 8.179688 6.972656 C 7.953125 7.15625 7.6875 7.277344 7.433594 7.414062 C 7.316406 7.480469 7.195312 7.535156 7.070312 7.585938 C 7.226562 7.597656 7.386719 7.574219 7.539062 7.5625 C 7.777344 7.546875 8.007812 7.476562 8.226562 7.390625 C 8.453125 7.296875 8.675781 7.175781 8.855469 7 C 8.96875 6.894531 9.046875 6.761719 9.085938 6.613281 C 9.101562 6.539062 9.109375 6.460938 9.109375 6.386719 C 9.015625 6.382812 8.917969 6.386719 8.832031 6.339844 C 8.765625 6.300781 8.730469 6.226562 8.6875 6.164062 C 8.625 6.222656 8.554688 6.277344 8.480469 6.328125 Z M 10.992188 4.121094 C 11.027344 4.082031 11.089844 4.089844 11.128906 4.113281 C 11.21875 4.175781 11.269531 4.277344 11.265625 4.386719 C 11.257812 4.433594 11.246094 4.480469 11.222656 4.527344 C 11.210938 4.457031 11.214844 4.386719 11.183594 4.324219 C 11.136719 4.261719 11.050781 4.25 10.996094 4.195312 C 10.972656 4.179688 10.964844 4.136719 10.992188 4.121094 Z M 10.992188 4.121094 "/>
<path style=" stroke:none;fill-rule:nonzero;fill:rgb(100%,100%,100%);fill-opacity:1;" d="M 12.257812 4.15625 C 12.265625 4.113281 12.304688 4.070312 12.347656 4.09375 C 12.46875 4.152344 12.554688 4.265625 12.609375 4.386719 C 12.566406 4.386719 12.523438 4.382812 12.484375 4.378906 C 12.503906 4.460938 12.53125 4.542969 12.5625 4.621094 C 12.609375 4.730469 12.671875 4.835938 12.691406 4.960938 C 12.714844 5.097656 12.6875 5.25 12.59375 5.351562 C 12.414062 5.550781 12.054688 5.515625 11.902344 5.300781 C 11.84375 5.226562 11.8125 5.136719 11.78125 5.046875 C 11.730469 5.238281 11.625 5.429688 11.449219 5.527344 C 11.265625 5.632812 11.039062 5.625 10.863281 5.507812 C 10.757812 5.441406 10.691406 5.324219 10.6875 5.199219 C 10.675781 5.015625 10.746094 4.847656 10.769531 4.667969 C 10.722656 4.710938 10.6875 4.765625 10.667969 4.824219 C 10.59375 5.023438 10.5625 5.234375 10.457031 5.417969 C 10.410156 5.507812 10.324219 5.585938 10.222656 5.59375 C 10.117188 5.601562 10.007812 5.5625 9.949219 5.476562 C 9.894531 5.390625 9.882812 5.292969 9.882812 5.195312 C 9.886719 5.046875 9.921875 4.902344 9.988281 4.769531 C 9.988281 4.953125 9.933594 5.15625 10.027344 5.332031 C 10.074219 5.429688 10.195312 5.484375 10.292969 5.429688 C 10.378906 5.378906 10.417969 5.277344 10.449219 5.1875 C 10.515625 4.992188 10.582031 4.796875 10.679688 4.613281 C 10.71875 4.539062 10.761719 4.464844 10.828125 4.410156 C 10.863281 4.382812 10.914062 4.382812 10.957031 4.375 C 10.964844 4.539062 10.871094 4.679688 10.839844 4.839844 C 10.8125 4.976562 10.800781 5.144531 10.898438 5.257812 C 11.011719 5.378906 11.195312 5.40625 11.351562 5.367188 C 11.5625 5.296875 11.71875 5.085938 11.726562 4.859375 C 11.734375 4.730469 11.742188 4.585938 11.667969 4.46875 C 11.636719 4.40625 11.578125 4.339844 11.605469 4.265625 C 11.621094 4.191406 11.671875 4.128906 11.742188 4.09375 C 11.789062 4.164062 11.824219 4.25 11.835938 4.335938 C 11.859375 4.539062 11.863281 4.746094 11.933594 4.941406 C 11.976562 5.050781 12.042969 5.167969 12.15625 5.21875 C 12.261719 5.269531 12.390625 5.28125 12.492188 5.226562 C 12.558594 5.195312 12.574219 5.117188 12.558594 5.050781 C 12.515625 4.839844 12.371094 4.671875 12.300781 4.46875 C 12.265625 4.367188 12.238281 4.261719 12.257812 4.15625 Z M 14.335938 4.113281 C 14.398438 4.082031 14.492188 4.105469 14.523438 4.171875 C 14.53125 4.203125 14.515625 4.238281 14.488281 4.253906 C 14.445312 4.242188 14.402344 4.222656 14.363281 4.203125 C 14.308594 4.300781 14.28125 4.414062 14.25 4.527344 C 14.234375 4.472656 14.207031 4.417969 14.175781 4.371094 C 14.132812 4.3125 14.066406 4.28125 14.015625 4.230469 C 14 4.183594 14.054688 4.128906 14.101562 4.144531 C 14.171875 4.164062 14.210938 4.226562 14.25 4.28125 C 14.269531 4.21875 14.277344 4.148438 14.335938 4.113281 Z M 6.027344 4.359375 C 6.078125 4.246094 6.179688 4.164062 6.292969 4.113281 C 6.265625 4.183594 6.21875 4.246094 6.179688 4.3125 C 6.148438 4.359375 6.152344 4.421875 6.148438 4.472656 C 6.222656 4.464844 6.292969 4.453125 6.363281 4.429688 C 6.339844 4.484375 6.320312 4.546875 6.265625 4.585938 C 6.210938 4.625 6.128906 4.648438 6.070312 4.609375 C 6 4.550781 5.988281 4.441406 6.027344 4.359375 Z M 6.027344 4.359375 "/>
<path style=" stroke:none;fill-rule:nonzero;fill:rgb(100%,100%,100%);fill-opacity:1;" d="M 9.976562 4.207031 C 9.996094 4.113281 10.140625 4.113281 10.1875 4.1875 C 10.21875 4.242188 10.234375 4.296875 10.265625 4.347656 C 10.292969 4.402344 10.324219 4.457031 10.308594 4.519531 C 10.277344 4.617188 10.207031 4.691406 10.199219 4.796875 C 10.234375 4.78125 10.265625 4.765625 10.300781 4.746094 C 10.292969 4.800781 10.300781 4.871094 10.246094 4.898438 C 10.175781 4.929688 10.09375 4.867188 10.101562 4.792969 C 10.109375 4.660156 10.238281 4.558594 10.199219 4.417969 C 10.070312 4.589844 9.890625 4.746094 9.671875 4.777344 C 9.765625 4.703125 9.875 4.648438 9.960938 4.5625 C 10.011719 4.507812 10.058594 4.445312 10.089844 4.375 C 10.042969 4.328125 9.964844 4.285156 9.976562 4.207031 Z M 10.066406 4.199219 C 10.085938 4.230469 10.113281 4.257812 10.144531 4.277344 C 10.132812 4.238281 10.105469 4.210938 10.066406 4.199219 Z M 9.289062 4.269531 C 9.335938 4.257812 9.394531 4.242188 9.429688 4.28125 C 9.542969 4.386719 9.589844 4.546875 9.554688 4.695312 C 9.53125 4.640625 9.511719 4.582031 9.484375 4.527344 C 9.4375 4.429688 9.335938 4.371094 9.289062 4.269531 Z M 8.296875 4.332031 C 8.34375 4.378906 8.363281 4.445312 8.355469 4.511719 C 8.28125 4.523438 8.207031 4.542969 8.132812 4.5625 C 8.113281 4.566406 8.089844 4.5625 8.074219 4.550781 C 8.058594 4.539062 8.042969 4.523438 8.039062 4.503906 C 8.042969 4.457031 8.046875 4.414062 8.0625 4.375 C 8.078125 4.417969 8.09375 4.460938 8.109375 4.507812 C 8.125 4.5 8.148438 4.492188 8.167969 4.484375 L 8.167969 4.363281 L 8.210938 4.363281 C 8.214844 4.398438 8.222656 4.4375 8.226562 4.472656 C 8.253906 4.46875 8.273438 4.46875 8.300781 4.464844 C 8.296875 4.421875 8.296875 4.375 8.296875 4.332031 Z M 14.570312 4.429688 C 14.628906 4.414062 14.691406 4.40625 14.753906 4.40625 C 14.726562 4.441406 14.6875 4.472656 14.644531 4.492188 C 14.433594 4.574219 14.214844 4.636719 14.011719 4.746094 C 14.027344 4.785156 14.046875 4.820312 14.066406 4.859375 C 14.015625 4.847656 13.957031 4.847656 13.921875 4.808594 C 13.902344 4.792969 13.894531 4.769531 13.894531 4.746094 C 13.894531 4.722656 13.90625 4.699219 13.921875 4.683594 C 13.957031 4.660156 13.996094 4.640625 14.035156 4.625 C 14.210938 4.5625 14.386719 4.488281 14.570312 4.429688 Z M 11.339844 4.582031 C 11.367188 4.5625 11.390625 4.546875 11.417969 4.53125 C 11.414062 4.609375 11.445312 4.679688 11.476562 4.753906 C 11.511719 4.824219 11.484375 4.921875 11.402344 4.941406 C 11.328125 4.964844 11.265625 4.917969 11.214844 4.878906 C 11.175781 4.914062 11.132812 4.960938 11.074219 4.953125 C 10.964844 4.945312 10.914062 4.820312 10.933594 4.726562 C 10.945312 4.664062 10.992188 4.625 11.035156 4.585938 C 11.03125 4.652344 11.003906 4.71875 11.019531 4.78125 C 11.03125 4.824219 11.085938 4.824219 11.121094 4.839844 C 11.136719 4.769531 11.136719 4.695312 11.15625 4.621094 C 11.164062 4.585938 11.210938 4.582031 11.234375 4.5625 C 11.238281 4.625 11.238281 4.6875 11.253906 4.746094 C 11.269531 4.789062 11.324219 4.804688 11.359375 4.824219 C 11.378906 4.742188 11.34375 4.660156 11.34375 4.582031 Z M 8.136719 4.691406 C 8.183594 4.691406 8.238281 4.683594 8.273438 4.722656 C 8.382812 4.828125 8.429688 4.984375 8.390625 5.132812 C 8.355469 5.035156 8.324219 4.929688 8.242188 4.855469 C 8.195312 4.8125 8.144531 4.761719 8.136719 4.691406 Z M 14.527344 5.0625 C 14.550781 5.039062 14.578125 5.015625 14.605469 5 C 14.609375 5.070312 14.628906 5.140625 14.660156 5.203125 C 14.691406 5.269531 14.691406 5.371094 14.617188 5.402344 C 14.542969 5.433594 14.46875 5.394531 14.410156 5.355469 C 14.367188 5.390625 14.308594 5.433594 14.246094 5.417969 C 14.148438 5.394531 14.109375 5.285156 14.125 5.195312 C 14.128906 5.132812 14.1875 5.089844 14.230469 5.046875 C 14.21875 5.117188 14.191406 5.183594 14.210938 5.25 C 14.226562 5.296875 14.277344 5.285156 14.316406 5.296875 C 14.328125 5.21875 14.320312 5.140625 14.351562 5.070312 C 14.375 5.050781 14.402344 5.039062 14.429688 5.027344 C 14.433594 5.097656 14.421875 5.167969 14.453125 5.230469 C 14.476562 5.269531 14.523438 5.273438 14.558594 5.285156 C 14.558594 5.210938 14.535156 5.136719 14.527344 5.0625 Z M 17.09375 5.167969 C 17.085938 5.148438 17.089844 5.121094 17.105469 5.105469 C 17.117188 5.085938 17.140625 5.074219 17.164062 5.074219 C 17.242188 5.074219 17.300781 5.140625 17.335938 5.203125 C 17.402344 5.328125 17.433594 5.480469 17.378906 5.617188 C 17.351562 5.496094 17.355469 5.34375 17.242188 5.261719 C 17.195312 5.234375 17.136719 5.214844 17.09375 5.167969 Z M 12.832031 5.433594 C 12.867188 5.398438 12.917969 5.382812 12.96875 5.394531 C 13.03125 5.453125 13.019531 5.558594 12.96875 5.621094 C 12.878906 5.738281 12.730469 5.796875 12.585938 5.796875 C 12.675781 5.742188 12.777344 5.710938 12.859375 5.644531 C 12.894531 5.617188 12.890625 5.570312 12.894531 5.527344 C 12.851562 5.535156 12.808594 5.542969 12.769531 5.546875 C 12.785156 5.507812 12.804688 5.46875 12.832031 5.433594 Z M 14.90625 5.523438 C 14.933594 5.519531 14.96875 5.5 14.988281 5.53125 C 14.96875 5.601562 14.894531 5.628906 14.835938 5.660156 C 14.613281 5.761719 14.394531 5.878906 14.175781 5.988281 C 14.167969 5.96875 14.15625 5.949219 14.144531 5.929688 C 14.269531 5.839844 14.40625 5.773438 14.539062 5.699219 C 14.660156 5.636719 14.777344 5.570312 14.90625 5.523438 Z M 10.722656 5.699219 C 10.726562 5.652344 10.757812 5.621094 10.78125 5.589844 C 10.953125 5.773438 11.097656 5.988281 11.175781 6.234375 C 11.25 6.464844 11.265625 6.707031 11.3125 6.945312 C 11.339844 7.066406 11.359375 7.195312 11.441406 7.289062 C 11.492188 7.359375 11.570312 7.398438 11.644531 7.441406 C 11.660156 7.363281 11.679688 7.28125 11.75 7.238281 C 11.964844 7.09375 12.214844 7.003906 12.460938 6.925781 C 12.261719 6.921875 12.058594 6.925781 11.859375 6.921875 C 11.695312 6.921875 11.53125 6.933594 11.371094 6.90625 C 11.375 6.84375 11.375 6.777344 11.414062 6.722656 C 11.488281 6.601562 11.617188 6.53125 11.738281 6.464844 C 11.925781 6.367188 12.121094 6.285156 12.324219 6.226562 C 12.269531 6.171875 12.191406 6.109375 12.210938 6.019531 C 12.25 5.914062 12.34375 5.808594 12.460938 5.808594 C 12.589844 5.808594 12.714844 5.863281 12.828125 5.925781 C 12.894531 5.972656 12.980469 6.019531 13.003906 6.101562 C 12.996094 6.160156 12.972656 6.214844 12.933594 6.257812 C 12.863281 6.347656 12.738281 6.339844 12.632812 6.351562 C 12.625 6.421875 12.617188 6.507812 12.546875 6.542969 C 12.523438 6.484375 12.503906 6.429688 12.476562 6.375 C 12.222656 6.421875 11.992188 6.554688 11.792969 6.714844 C 12.359375 6.71875 12.925781 6.703125 13.496094 6.707031 C 13.53125 6.707031 13.570312 6.710938 13.605469 6.71875 C 13.582031 6.867188 13.429688 6.941406 13.296875 6.972656 C 13.027344 7.03125 12.757812 7.085938 12.492188 7.136719 C 12.289062 7.179688 12.085938 7.226562 11.902344 7.316406 C 11.835938 7.351562 11.777344 7.402344 11.734375 7.464844 C 11.867188 7.511719 12.003906 7.550781 12.144531 7.574219 C 12.191406 7.585938 12.253906 7.59375 12.269531 7.648438 C 12.285156 7.722656 12.289062 7.824219 12.21875 7.871094 C 12.128906 7.894531 12.035156 7.871094 11.945312 7.855469 C 11.699219 7.820312 11.460938 7.691406 11.320312 7.476562 C 11.210938 7.324219 11.179688 7.132812 11.152344 6.953125 C 11.085938 7.054688 11.007812 7.148438 10.917969 7.234375 C 10.675781 7.460938 10.386719 7.625 10.085938 7.757812 C 9.980469 7.804688 9.847656 7.820312 9.742188 7.753906 C 9.667969 7.710938 9.640625 7.621094 9.609375 7.542969 C 9.328125 7.6875 9.039062 7.824219 8.730469 7.882812 C 8.539062 7.921875 8.34375 7.941406 8.148438 7.941406 C 8.25 7.890625 8.355469 7.855469 8.457031 7.8125 C 8.796875 7.671875 9.128906 7.511719 9.457031 7.34375 C 9.496094 7.320312 9.546875 7.300781 9.574219 7.261719 C 9.605469 7.175781 9.609375 7.085938 9.65625 7.003906 C 9.707031 6.90625 9.78125 6.824219 9.875 6.765625 C 9.816406 6.898438 9.753906 7.027344 9.734375 7.167969 C 9.9375 7.050781 10.121094 6.910156 10.289062 6.75 C 10.332031 6.703125 10.394531 6.644531 10.367188 6.574219 C 10.339844 6.472656 10.285156 6.386719 10.25 6.289062 C 10.191406 6.148438 10.125 6 10.140625 5.84375 C 10.144531 5.796875 10.179688 5.757812 10.207031 5.71875 C 10.339844 5.804688 10.425781 5.949219 10.503906 6.089844 C 10.476562 6.09375 10.445312 6.101562 10.417969 6.105469 C 10.472656 6.25 10.558594 6.378906 10.582031 6.53125 C 10.605469 6.652344 10.570312 6.777344 10.488281 6.867188 C 10.277344 7.09375 10.019531 7.265625 9.777344 7.449219 C 9.820312 7.472656 9.867188 7.503906 9.917969 7.5 C 10.019531 7.5 10.117188 7.464844 10.210938 7.425781 C 10.550781 7.277344 10.828125 7.027344 11.117188 6.792969 C 11.046875 6.519531 10.917969 6.257812 10.785156 6.007812 C 10.734375 5.914062 10.710938 5.804688 10.722656 5.699219 Z M 12.359375 6.0625 C 12.394531 6.109375 12.441406 6.148438 12.496094 6.167969 C 12.582031 6.1875 12.660156 6.136719 12.722656 6.082031 C 12.644531 6.023438 12.554688 5.976562 12.457031 5.976562 C 12.410156 5.976562 12.359375 6.015625 12.359375 6.0625 Z M 6.472656 5.699219 C 6.472656 5.660156 6.503906 5.628906 6.542969 5.628906 C 6.648438 5.617188 6.722656 5.699219 6.785156 5.769531 C 6.820312 5.804688 6.847656 5.851562 6.828125 5.902344 C 6.8125 5.957031 6.75 5.953125 6.707031 5.964844 C 6.613281 5.972656 6.578125 6.070312 6.503906 6.113281 C 6.363281 6.210938 6.1875 6.289062 6.011719 6.265625 C 6.054688 6.203125 6.125 6.175781 6.191406 6.15625 C 6.320312 6.113281 6.421875 6.023438 6.515625 5.929688 C 6.488281 5.855469 6.457031 5.777344 6.472656 5.699219 Z M 6.53125 5.710938 C 6.535156 5.761719 6.550781 5.8125 6.578125 5.855469 C 6.59375 5.816406 6.613281 5.773438 6.628906 5.730469 C 6.597656 5.722656 6.5625 5.714844 6.53125 5.710938 Z M 6.667969 5.902344 C 6.703125 5.898438 6.738281 5.890625 6.769531 5.890625 C 6.765625 5.84375 6.753906 5.800781 6.738281 5.757812 C 6.695312 5.792969 6.6875 5.851562 6.667969 5.902344 Z M 6.667969 5.902344 "/>
<path style=" stroke:none;fill-rule:nonzero;fill:rgb(100%,100%,100%);fill-opacity:1;" d="M 11.714844 5.722656 C 11.738281 5.699219 11.761719 5.683594 11.789062 5.667969 C 11.789062 5.773438 11.863281 5.851562 11.871094 5.949219 C 11.882812 6.054688 11.75 6.105469 11.667969 6.058594 C 11.644531 6.042969 11.621094 6.019531 11.601562 6.003906 C 11.558594 6.042969 11.511719 6.097656 11.445312 6.082031 C 11.347656 6.066406 11.296875 5.949219 11.3125 5.855469 C 11.324219 5.792969 11.375 5.75 11.421875 5.710938 C 11.414062 5.773438 11.390625 5.832031 11.398438 5.898438 C 11.402344 5.945312 11.457031 5.960938 11.492188 5.980469 C 11.515625 5.90625 11.527344 5.832031 11.535156 5.757812 C 11.542969 5.714844 11.59375 5.710938 11.621094 5.6875 C 11.621094 5.75 11.621094 5.816406 11.636719 5.875 C 11.65625 5.914062 11.699219 5.9375 11.734375 5.960938 C 11.769531 5.878906 11.71875 5.800781 11.714844 5.722656 Z M 6.785156 6.097656 C 6.839844 6.074219 6.894531 6.042969 6.953125 6.039062 C 7.007812 6.035156 7.035156 6.121094 6.992188 6.15625 C 6.929688 6.207031 6.851562 6.226562 6.777344 6.257812 C 6.605469 6.339844 6.429688 6.421875 6.261719 6.511719 C 6.222656 6.535156 6.175781 6.53125 6.136719 6.523438 C 6.160156 6.472656 6.199219 6.429688 6.246094 6.398438 C 6.425781 6.289062 6.605469 6.1875 6.785156 6.097656 Z M 13.28125 6.1875 C 13.292969 6.128906 13.363281 6.121094 13.410156 6.101562 C 13.421875 6.1875 13.433594 6.277344 13.484375 6.347656 C 13.457031 6.351562 13.429688 6.351562 13.40625 6.355469 C 13.367188 6.410156 13.328125 6.472656 13.265625 6.503906 C 13.164062 6.554688 13.050781 6.554688 12.9375 6.546875 C 13.054688 6.515625 13.199219 6.507812 13.277344 6.398438 C 13.332031 6.339844 13.273438 6.257812 13.28125 6.1875 Z M 15.613281 6.273438 C 15.628906 6.226562 15.683594 6.226562 15.722656 6.234375 C 15.8125 6.246094 15.871094 6.320312 15.929688 6.382812 C 15.972656 6.421875 15.976562 6.488281 15.945312 6.535156 C 15.886719 6.578125 15.796875 6.554688 15.75 6.613281 C 15.601562 6.78125 15.371094 6.890625 15.144531 6.867188 C 15.1875 6.804688 15.257812 6.777344 15.328125 6.757812 C 15.457031 6.71875 15.554688 6.625 15.648438 6.53125 C 15.621094 6.449219 15.585938 6.363281 15.613281 6.273438 Z M 15.671875 6.308594 C 15.679688 6.363281 15.691406 6.414062 15.707031 6.464844 C 15.730469 6.425781 15.75 6.382812 15.765625 6.339844 C 15.734375 6.328125 15.699219 6.316406 15.671875 6.308594 Z M 15.851562 6.375 C 15.832031 6.414062 15.820312 6.457031 15.808594 6.503906 C 15.839844 6.5 15.875 6.496094 15.910156 6.492188 C 15.902344 6.449219 15.890625 6.410156 15.875 6.371094 C 15.871094 6.371094 15.855469 6.375 15.851562 6.375 Z M 9.769531 6.363281 C 9.828125 6.308594 9.933594 6.339844 9.96875 6.40625 C 9.988281 6.445312 9.949219 6.472656 9.933594 6.503906 C 9.902344 6.480469 9.871094 6.464844 9.835938 6.453125 C 9.808594 6.445312 9.796875 6.480469 9.789062 6.5 C 9.75 6.589844 9.734375 6.683594 9.703125 6.773438 C 9.6875 6.71875 9.664062 6.664062 9.632812 6.613281 C 9.597656 6.558594 9.535156 6.53125 9.488281 6.484375 C 9.445312 6.449219 9.492188 6.375 9.542969 6.382812 C 9.613281 6.390625 9.65625 6.457031 9.703125 6.503906 C 9.722656 6.457031 9.734375 6.402344 9.769531 6.363281 Z M 6.058594 6.875 C 6.117188 6.777344 6.207031 6.699219 6.3125 6.648438 C 6.285156 6.722656 6.246094 6.789062 6.203125 6.851562 C 6.171875 6.898438 6.171875 6.957031 6.167969 7.007812 C 6.242188 7.003906 6.3125 6.996094 6.382812 6.980469 C 6.363281 7.035156 6.339844 7.097656 6.289062 7.128906 C 6.230469 7.167969 6.148438 7.195312 6.085938 7.144531 C 6.019531 7.070312 6.007812 6.964844 6.058594 6.875 Z M 10.988281 7.328125 C 11.039062 7.320312 11.101562 7.296875 11.148438 7.335938 C 11.171875 7.351562 11.1875 7.375 11.191406 7.402344 C 11.195312 7.433594 11.183594 7.460938 11.164062 7.480469 C 11.101562 7.515625 11.015625 7.496094 10.960938 7.546875 C 10.972656 7.621094 11.03125 7.683594 11.042969 7.757812 C 11.046875 7.804688 11.007812 7.84375 10.988281 7.878906 C 10.972656 7.808594 10.957031 7.726562 10.917969 7.664062 C 10.894531 7.617188 10.855469 7.570312 10.871094 7.511719 C 10.882812 7.453125 10.945312 7.421875 10.992188 7.394531 C 10.988281 7.371094 10.988281 7.351562 10.988281 7.328125 Z M 13.355469 7.417969 C 13.378906 7.359375 13.4375 7.328125 13.492188 7.296875 C 13.46875 7.347656 13.433594 7.394531 13.425781 7.453125 C 13.453125 7.496094 13.492188 7.527344 13.511719 7.574219 C 13.519531 7.652344 13.40625 7.664062 13.367188 7.617188 C 13.320312 7.5625 13.328125 7.480469 13.355469 7.417969 Z M 12.785156 7.335938 C 12.871094 7.304688 12.964844 7.335938 13.039062 7.378906 C 12.984375 7.492188 12.855469 7.523438 12.757812 7.59375 C 12.761719 7.609375 12.765625 7.625 12.765625 7.640625 C 12.832031 7.644531 12.90625 7.652344 12.964844 7.617188 C 13.039062 7.574219 13.121094 7.539062 13.207031 7.519531 C 13.140625 7.578125 13.074219 7.636719 13.007812 7.691406 C 12.925781 7.757812 12.816406 7.757812 12.71875 7.730469 C 12.671875 7.714844 12.613281 7.675781 12.628906 7.617188 C 12.652344 7.542969 12.726562 7.503906 12.785156 7.460938 C 12.742188 7.457031 12.703125 7.453125 12.660156 7.453125 C 12.695312 7.40625 12.726562 7.347656 12.785156 7.335938 Z M 15.023438 7.542969 C 15.011719 7.523438 15.007812 7.503906 15.015625 7.480469 C 15.023438 7.460938 15.042969 7.445312 15.0625 7.441406 C 15.148438 7.429688 15.21875 7.496094 15.253906 7.5625 C 15.308594 7.660156 15.308594 7.773438 15.261719 7.871094 C 15.246094 7.804688 15.246094 7.734375 15.210938 7.671875 C 15.164062 7.609375 15.078125 7.597656 15.023438 7.542969 Z M 16.421875 7.585938 C 16.535156 7.546875 16.652344 7.492188 16.773438 7.503906 C 16.75 7.550781 16.707031 7.585938 16.660156 7.609375 C 16.46875 7.679688 16.273438 7.742188 16.085938 7.820312 C 16.027344 7.847656 15.964844 7.871094 15.898438 7.882812 C 15.894531 7.867188 15.882812 7.847656 15.878906 7.832031 C 16.050781 7.730469 16.238281 7.660156 16.421875 7.585938 Z M 16.050781 11.359375 L 15.097656 11.359375 L 15.097656 11.269531 C 15.140625 11.234375 15.199219 11.183594 15.199219 11.152344 C 15.199219 11.101562 15.078125 11 15.050781 11 C 15.019531 11 14.90625 11.105469 14.90625 11.152344 C 14.90625 11.1875 14.957031 11.230469 15 11.269531 L 15.003906 11.269531 L 15.003906 11.363281 L 7.5 11.363281 C 7.765625 11.628906 8.164062 11.625 8.957031 11.632812 C 9.667969 11.644531 9.664062 11.644531 15 11.632812 L 15 11.730469 C 14.957031 11.765625 14.90625 11.816406 14.90625 11.847656 C 14.90625 11.898438 15.019531 12 15.050781 12 C 15.074219 12 15.144531 11.941406 15.179688 11.890625 L 15.507812 11.890625 C 15.53125 11.929688 15.578125 11.949219 15.636719 11.949219 C 15.6875 11.953125 15.734375 11.929688 15.765625 11.890625 L 16.160156 11.890625 C 16.199219 11.933594 16.257812 11.953125 16.316406 11.949219 C 16.464844 11.945312 16.5 11.867188 16.5 11.601562 C 16.496094 11.378906 16.347656 11.355469 16.046875 11.359375 Z M 16.117188 11.808594 L 15.765625 11.808594 C 15.734375 11.769531 15.6875 11.746094 15.636719 11.746094 C 15.585938 11.746094 15.539062 11.769531 15.507812 11.808594 L 15.1875 11.808594 C 15.164062 11.777344 15.132812 11.75 15.101562 11.726562 L 15.101562 11.632812 L 16.121094 11.632812 C 16.101562 11.6875 16.097656 11.75 16.117188 11.808594 Z M 16.117188 11.808594 "/>
</g>
</svg>
