<?xml version="1.0" encoding="UTF-8"?>
<svg xmlns="http://www.w3.org/2000/svg" xmlns:xlink="http://www.w3.org/1999/xlink" width="24px" height="24px" viewBox="0 0 24 12" version="1.1">
<g id="surface1">
<path style=" stroke:none;fill-rule:nonzero;fill:rgb(0%,31.764706%,72.941176%);fill-opacity:1;" d="M 0 12 L 0 0 L 24 0 Z M 0 12 "/>
<path style=" stroke:none;fill-rule:nonzero;fill:rgb(12.941176%,35.686275%,20%);fill-opacity:1;" d="M 0 12 L 24 12 L 24 0 Z M 0 12 "/>
<path style="fill-rule:nonzero;fill:rgb(0%,0%,0%);fill-opacity:1;stroke-width:36;stroke-linecap:butt;stroke-linejoin:miter;stroke:rgb(98.823529%,81.960784%,8.627451%);stroke-opacity:1;stroke-miterlimit:4;" d="M 0 400 L 800 0 " transform="matrix(0.03,0,0,0.03,0,0)"/>
<path style=" stroke:none;fill-rule:nonzero;fill:rgb(100%,100%,100%);fill-opacity:1;" d="M 4.199219 2.398438 L 3.828125 3.542969 L 4.398438 3.726562 Z M 4.199219 2.398438 "/>
<path style=" stroke:none;fill-rule:nonzero;fill:rgb(100%,100%,100%);fill-opacity:1;" d="M 4.199219 2.398438 L 4.570312 3.542969 L 4 3.726562 Z M 4.199219 2.398438 "/>
<path style=" stroke:none;fill-rule:nonzero;fill:rgb(100%,100%,100%);fill-opacity:1;" d="M 5.339844 3.230469 L 4.140625 3.230469 L 4.140625 3.828125 Z M 5.339844 3.230469 "/>
<path style=" stroke:none;fill-rule:nonzero;fill:rgb(100%,100%,100%);fill-opacity:1;" d="M 5.339844 3.230469 L 4.371094 3.933594 L 4.019531 3.449219 Z M 5.339844 3.230469 "/>
<path style=" stroke:none;fill-rule:nonzero;fill:rgb(100%,100%,100%);fill-opacity:1;" d="M 3.058594 3.230469 L 4.03125 3.933594 L 4.382812 3.449219 Z M 3.058594 3.230469 "/>
<path style=" stroke:none;fill-rule:nonzero;fill:rgb(100%,100%,100%);fill-opacity:1;" d="M 3.058594 3.230469 L 4.257812 3.230469 L 4.257812 3.828125 Z M 3.058594 3.230469 "/>
<path style=" stroke:none;fill-rule:nonzero;fill:rgb(100%,100%,100%);fill-opacity:1;" d="M 4.90625 4.570312 L 4.535156 3.429688 L 3.964844 3.613281 Z M 4.90625 4.570312 "/>
<path style=" stroke:none;fill-rule:nonzero;fill:rgb(100%,100%,100%);fill-opacity:1;" d="M 4.90625 4.570312 L 3.933594 3.867188 L 4.289062 3.378906 Z M 4.90625 4.570312 "/>
<path style=" stroke:none;fill-rule:nonzero;fill:rgb(100%,100%,100%);fill-opacity:1;" d="M 3.496094 4.570312 L 4.464844 3.867188 L 4.113281 3.378906 Z M 3.496094 4.570312 "/>
<path style=" stroke:none;fill-rule:nonzero;fill:rgb(100%,100%,100%);fill-opacity:1;" d="M 3.496094 4.570312 L 3.867188 3.429688 L 4.4375 3.613281 Z M 3.496094 4.570312 "/>
<path style=" stroke:none;fill-rule:nonzero;fill:rgb(100%,100%,100%);fill-opacity:1;" d="M 1.832031 0.371094 L 1.460938 1.511719 L 2.03125 1.695312 Z M 1.832031 0.371094 "/>
<path style=" stroke:none;fill-rule:nonzero;fill:rgb(100%,100%,100%);fill-opacity:1;" d="M 1.832031 0.371094 L 2.203125 1.511719 L 1.632812 1.695312 Z M 1.832031 0.371094 "/>
<path style=" stroke:none;fill-rule:nonzero;fill:rgb(100%,100%,100%);fill-opacity:1;" d="M 2.972656 1.199219 L 1.773438 1.199219 L 1.773438 1.796875 Z M 2.972656 1.199219 "/>
<path style=" stroke:none;fill-rule:nonzero;fill:rgb(100%,100%,100%);fill-opacity:1;" d="M 2.972656 1.199219 L 2 1.902344 L 1.648438 1.417969 Z M 2.972656 1.199219 "/>
<path style=" stroke:none;fill-rule:nonzero;fill:rgb(100%,100%,100%);fill-opacity:1;" d="M 0.691406 1.199219 L 1.660156 1.902344 L 2.011719 1.417969 Z M 0.691406 1.199219 "/>
<path style=" stroke:none;fill-rule:nonzero;fill:rgb(100%,100%,100%);fill-opacity:1;" d="M 0.691406 1.199219 L 1.890625 1.199219 L 1.890625 1.796875 Z M 0.691406 1.199219 "/>
<path style=" stroke:none;fill-rule:nonzero;fill:rgb(100%,100%,100%);fill-opacity:1;" d="M 2.535156 2.539062 L 2.164062 1.398438 L 1.59375 1.585938 Z M 2.535156 2.539062 "/>
<path style=" stroke:none;fill-rule:nonzero;fill:rgb(100%,100%,100%);fill-opacity:1;" d="M 2.535156 2.539062 L 1.566406 1.835938 L 1.917969 1.351562 Z M 2.535156 2.539062 "/>
<path style=" stroke:none;fill-rule:nonzero;fill:rgb(100%,100%,100%);fill-opacity:1;" d="M 1.125 2.539062 L 2.097656 1.835938 L 1.742188 1.351562 Z M 1.125 2.539062 "/>
<path style=" stroke:none;fill-rule:nonzero;fill:rgb(100%,100%,100%);fill-opacity:1;" d="M 1.125 2.539062 L 1.496094 1.398438 L 2.066406 1.585938 Z M 1.125 2.539062 "/>
<path style=" stroke:none;fill-rule:nonzero;fill:rgb(100%,100%,100%);fill-opacity:1;" d="M 6.570312 4.429688 L 6.199219 5.570312 L 6.769531 5.757812 Z M 6.570312 4.429688 "/>
<path style=" stroke:none;fill-rule:nonzero;fill:rgb(100%,100%,100%);fill-opacity:1;" d="M 6.570312 4.429688 L 6.941406 5.570312 L 6.367188 5.757812 Z M 6.570312 4.429688 "/>
<path style=" stroke:none;fill-rule:nonzero;fill:rgb(100%,100%,100%);fill-opacity:1;" d="M 7.710938 5.257812 L 6.511719 5.257812 L 6.511719 5.859375 Z M 7.710938 5.257812 "/>
<path style=" stroke:none;fill-rule:nonzero;fill:rgb(100%,100%,100%);fill-opacity:1;" d="M 7.710938 5.257812 L 6.738281 5.964844 L 6.386719 5.480469 Z M 7.710938 5.257812 "/>
<path style=" stroke:none;fill-rule:nonzero;fill:rgb(100%,100%,100%);fill-opacity:1;" d="M 5.425781 5.257812 L 6.398438 5.964844 L 6.75 5.480469 Z M 5.425781 5.257812 "/>
<path style=" stroke:none;fill-rule:nonzero;fill:rgb(100%,100%,100%);fill-opacity:1;" d="M 5.425781 5.257812 L 6.628906 5.257812 L 6.628906 5.859375 Z M 5.425781 5.257812 "/>
<path style=" stroke:none;fill-rule:nonzero;fill:rgb(100%,100%,100%);fill-opacity:1;" d="M 7.273438 6.601562 L 6.902344 5.460938 L 6.332031 5.644531 Z M 7.273438 6.601562 "/>
<path style=" stroke:none;fill-rule:nonzero;fill:rgb(100%,100%,100%);fill-opacity:1;" d="M 7.273438 6.601562 L 6.304688 5.894531 L 6.65625 5.410156 Z M 7.273438 6.601562 "/>
<path style=" stroke:none;fill-rule:nonzero;fill:rgb(100%,100%,100%);fill-opacity:1;" d="M 5.863281 6.601562 L 6.835938 5.894531 L 6.480469 5.410156 Z M 5.863281 6.601562 "/>
<path style=" stroke:none;fill-rule:nonzero;fill:rgb(100%,100%,100%);fill-opacity:1;" d="M 5.863281 6.601562 L 6.234375 5.460938 L 6.804688 5.644531 Z M 5.863281 6.601562 "/>
<path style=" stroke:none;fill-rule:nonzero;fill:rgb(100%,100%,100%);fill-opacity:1;" d="M 6.570312 0.371094 L 6.941406 1.511719 L 6.367188 1.695312 Z M 6.570312 0.371094 "/>
<path style=" stroke:none;fill-rule:nonzero;fill:rgb(100%,100%,100%);fill-opacity:1;" d="M 6.570312 0.371094 L 6.199219 1.511719 L 6.769531 1.695312 Z M 6.570312 0.371094 "/>
<path style=" stroke:none;fill-rule:nonzero;fill:rgb(100%,100%,100%);fill-opacity:1;" d="M 5.425781 1.199219 L 6.628906 1.199219 L 6.628906 1.796875 Z M 5.425781 1.199219 "/>
<path style=" stroke:none;fill-rule:nonzero;fill:rgb(100%,100%,100%);fill-opacity:1;" d="M 5.425781 1.199219 L 6.398438 1.902344 L 6.75 1.417969 Z M 5.425781 1.199219 "/>
<path style=" stroke:none;fill-rule:nonzero;fill:rgb(100%,100%,100%);fill-opacity:1;" d="M 7.710938 1.199219 L 6.738281 1.902344 L 6.386719 1.417969 Z M 7.710938 1.199219 "/>
<path style=" stroke:none;fill-rule:nonzero;fill:rgb(100%,100%,100%);fill-opacity:1;" d="M 7.710938 1.199219 L 6.511719 1.199219 L 6.511719 1.796875 Z M 7.710938 1.199219 "/>
<path style=" stroke:none;fill-rule:nonzero;fill:rgb(100%,100%,100%);fill-opacity:1;" d="M 5.863281 2.539062 L 6.234375 1.398438 L 6.804688 1.585938 Z M 5.863281 2.539062 "/>
<path style=" stroke:none;fill-rule:nonzero;fill:rgb(100%,100%,100%);fill-opacity:1;" d="M 5.863281 2.539062 L 6.835938 1.835938 L 6.480469 1.351562 Z M 5.863281 2.539062 "/>
<path style=" stroke:none;fill-rule:nonzero;fill:rgb(100%,100%,100%);fill-opacity:1;" d="M 7.273438 2.539062 L 6.304688 1.835938 L 6.65625 1.351562 Z M 7.273438 2.539062 "/>
<path style=" stroke:none;fill-rule:nonzero;fill:rgb(100%,100%,100%);fill-opacity:1;" d="M 7.273438 2.539062 L 6.902344 1.398438 L 6.332031 1.585938 Z M 7.273438 2.539062 "/>
<path style=" stroke:none;fill-rule:nonzero;fill:rgb(100%,100%,100%);fill-opacity:1;" d="M 1.832031 4.429688 L 2.203125 5.570312 L 1.632812 5.757812 Z M 1.832031 4.429688 "/>
<path style=" stroke:none;fill-rule:nonzero;fill:rgb(100%,100%,100%);fill-opacity:1;" d="M 1.832031 4.429688 L 1.460938 5.570312 L 2.03125 5.757812 Z M 1.832031 4.429688 "/>
<path style=" stroke:none;fill-rule:nonzero;fill:rgb(100%,100%,100%);fill-opacity:1;" d="M 0.691406 5.257812 L 1.890625 5.257812 L 1.890625 5.859375 Z M 0.691406 5.257812 "/>
<path style=" stroke:none;fill-rule:nonzero;fill:rgb(100%,100%,100%);fill-opacity:1;" d="M 0.691406 5.257812 L 1.660156 5.964844 L 2.011719 5.480469 Z M 0.691406 5.257812 "/>
<path style=" stroke:none;fill-rule:nonzero;fill:rgb(100%,100%,100%);fill-opacity:1;" d="M 2.972656 5.257812 L 2 5.964844 L 1.648438 5.480469 Z M 2.972656 5.257812 "/>
<path style=" stroke:none;fill-rule:nonzero;fill:rgb(100%,100%,100%);fill-opacity:1;" d="M 2.972656 5.257812 L 1.773438 5.257812 L 1.773438 5.859375 Z M 2.972656 5.257812 "/>
<path style=" stroke:none;fill-rule:nonzero;fill:rgb(100%,100%,100%);fill-opacity:1;" d="M 1.125 6.601562 L 1.496094 5.460938 L 2.066406 5.644531 Z M 1.125 6.601562 "/>
<path style=" stroke:none;fill-rule:nonzero;fill:rgb(100%,100%,100%);fill-opacity:1;" d="M 1.125 6.601562 L 2.097656 5.894531 L 1.742188 5.410156 Z M 1.125 6.601562 "/>
<path style=" stroke:none;fill-rule:nonzero;fill:rgb(100%,100%,100%);fill-opacity:1;" d="M 2.535156 6.601562 L 1.566406 5.894531 L 1.917969 5.410156 Z M 2.535156 6.601562 "/>
<path style=" stroke:none;fill-rule:nonzero;fill:rgb(100%,100%,100%);fill-opacity:1;" d="M 2.535156 6.601562 L 2.164062 5.460938 L 1.59375 5.644531 Z M 2.535156 6.601562 "/>
</g>
</svg>
