<?xml version="1.0" encoding="UTF-8"?>
<svg xmlns="http://www.w3.org/2000/svg" xmlns:xlink="http://www.w3.org/1999/xlink" width="24px" height="24px" viewBox="0 0 24 16" version="1.1">
<g id="surface1">
<path style=" stroke:none;fill-rule:nonzero;fill:rgb(92.941176%,16.078431%,22.352941%);fill-opacity:1;" d="M 0 0 L 24 0 L 24 8 L 0 8 Z M 0 0 "/>
<path style=" stroke:none;fill-rule:nonzero;fill:rgb(100%,100%,100%);fill-opacity:1;" d="M 0 8 L 24 8 L 24 16 L 0 16 Z M 0 8 "/>
<path style=" stroke:none;fill-rule:nonzero;fill:rgb(100%,100%,100%);fill-opacity:1;" d="M 8.230469 4 C 8.230469 5.660156 6.882812 7.007812 5.222656 7.007812 C 3.5625 7.007812 2.214844 5.660156 2.214844 4 C 2.214844 2.339844 3.5625 0.992188 5.222656 0.992188 C 6.882812 0.992188 8.230469 2.339844 8.230469 4 Z M 8.230469 4 "/>
<path style=" stroke:none;fill-rule:nonzero;fill:rgb(92.941176%,16.078431%,22.352941%);fill-opacity:1;" d="M 9.175781 4 C 9.175781 5.570312 7.902344 6.84375 6.332031 6.84375 C 4.765625 6.84375 3.492188 5.570312 3.492188 4 C 3.492188 2.429688 4.765625 1.15625 6.332031 1.15625 C 7.902344 1.15625 9.175781 2.429688 9.175781 4 Z M 9.175781 4 "/>
<path style=" stroke:none;fill-rule:nonzero;fill:rgb(100%,100%,100%);fill-opacity:1;" d="M 5.59375 4.074219 L 5.1875 3.757812 L 4.777344 4.074219 L 4.9375 3.566406 L 4.527344 3.253906 L 5.03125 3.257812 L 5.1875 2.75 L 5.34375 3.257812 L 5.847656 3.253906 L 5.4375 3.566406 Z M 5.59375 4.074219 "/>
<path style=" stroke:none;fill-rule:nonzero;fill:rgb(100%,100%,100%);fill-opacity:1;" d="M 8.800781 4.074219 L 8.394531 3.757812 L 7.984375 4.074219 L 8.140625 3.566406 L 7.730469 3.253906 L 8.238281 3.257812 L 8.394531 2.75 L 8.546875 3.257812 L 9.054688 3.253906 L 8.644531 3.566406 Z M 8.800781 4.074219 "/>
<path style=" stroke:none;fill-rule:nonzero;fill:rgb(100%,100%,100%);fill-opacity:1;" d="M 7.199219 2.882812 L 6.792969 2.570312 L 6.382812 2.882812 L 6.539062 2.378906 L 6.128906 2.066406 L 6.636719 2.066406 L 6.792969 1.558594 L 6.945312 2.066406 L 7.453125 2.066406 L 7.042969 2.378906 Z M 7.199219 2.882812 "/>
<path style=" stroke:none;fill-rule:nonzero;fill:rgb(100%,100%,100%);fill-opacity:1;" d="M 6.195312 5.976562 L 5.785156 5.664062 L 5.378906 5.976562 L 5.535156 5.472656 L 5.125 5.160156 L 5.632812 5.160156 L 5.785156 4.65625 L 5.941406 5.160156 L 6.449219 5.160156 L 6.039062 5.472656 Z M 6.195312 5.976562 "/>
<path style=" stroke:none;fill-rule:nonzero;fill:rgb(100%,100%,100%);fill-opacity:1;" d="M 8.203125 5.976562 L 7.792969 5.664062 L 7.386719 5.976562 L 7.542969 5.472656 L 7.132812 5.160156 L 7.636719 5.160156 L 7.792969 4.65625 L 7.949219 5.160156 L 8.453125 5.160156 L 8.042969 5.472656 Z M 8.203125 5.976562 "/>
</g>
</svg>
