<?xml version="1.0" encoding="UTF-8"?>
<svg xmlns="http://www.w3.org/2000/svg" xmlns:xlink="http://www.w3.org/1999/xlink" width="24px" height="24px" viewBox="0 0 24 12" version="1.1">
<g id="surface1">
<rect x="0" y="0" width="24" height="12" style="fill:rgb(100%,0%,0%);fill-opacity:1;stroke:none;"/>
<path style=" stroke:none;fill-rule:nonzero;fill:rgb(0%,36.078431%,89.803922%);fill-opacity:1;" d="M 0 0 L 24 0 L 24 8 L 0 8 Z M 0 0 "/>
<path style=" stroke:none;fill-rule:nonzero;fill:rgb(100%,100%,100%);fill-opacity:1;" d="M 0 0 L 24 0 L 24 4 L 0 4 Z M 0 0 "/>
<path style=" stroke:none;fill-rule:evenodd;fill:rgb(0%,36.078431%,89.803922%);fill-opacity:1;" d="M 6 2.105469 C 5.972656 2.105469 5.945312 2.105469 5.921875 2.105469 C 5.402344 2.117188 4.914062 2.253906 4.566406 2.417969 C 4.527344 2.433594 4.492188 2.449219 4.453125 2.464844 L 4.574219 4.335938 C 4.65625 5.3125 5.292969 5.878906 6 6.105469 C 6.707031 5.878906 7.34375 5.3125 7.429688 4.335938 L 7.546875 2.472656 C 7.511719 2.453125 7.472656 2.433594 7.4375 2.417969 C 7.070312 2.246094 6.550781 2.105469 6.003906 2.105469 Z M 6 2.105469 "/>
<path style=" stroke:none;fill-rule:evenodd;fill:rgb(100%,100%,100%);fill-opacity:1;" d="M 6 3.398438 L 5.652344 4.078125 L 5.425781 3.785156 L 4.835938 4.566406 C 4.847656 4.613281 4.859375 4.660156 4.875 4.707031 C 4.9375 4.816406 5.066406 4.945312 5.226562 4.945312 C 5.355469 4.945312 5.484375 4.84375 5.613281 4.84375 C 5.742188 4.84375 5.871094 4.945312 6 4.945312 C 6.128906 4.945312 6.257812 4.84375 6.386719 4.84375 C 6.515625 4.84375 6.644531 4.945312 6.773438 4.945312 C 6.933594 4.945312 7.0625 4.820312 7.128906 4.710938 C 7.140625 4.664062 7.15625 4.613281 7.164062 4.566406 L 6.578125 3.785156 L 6.351562 4.078125 Z M 5.613281 4.945312 C 5.484375 4.945312 5.355469 5.046875 5.226562 5.046875 C 5.125 5.046875 5.039062 5.011719 4.96875 4.960938 C 4.992188 5.011719 5.019531 5.058594 5.046875 5.109375 C 5.101562 5.140625 5.160156 5.164062 5.226562 5.164062 C 5.355469 5.164062 5.484375 5.058594 5.613281 5.058594 C 5.742188 5.058594 5.871094 5.164062 6 5.164062 C 6.128906 5.164062 6.257812 5.058594 6.386719 5.058594 C 6.515625 5.058594 6.644531 5.164062 6.773438 5.164062 C 6.839844 5.164062 6.898438 5.140625 6.953125 5.109375 C 6.980469 5.0625 7.007812 5.011719 7.03125 4.960938 C 6.960938 5.011719 6.875 5.046875 6.773438 5.046875 C 6.644531 5.046875 6.515625 4.945312 6.386719 4.945312 C 6.257812 4.945312 6.128906 5.046875 6 5.046875 C 5.871094 5.046875 5.742188 4.945312 5.613281 4.945312 Z M 5.613281 5.164062 C 5.484375 5.164062 5.355469 5.265625 5.226562 5.265625 C 5.199219 5.265625 5.171875 5.261719 5.148438 5.257812 C 5.371094 5.554688 5.675781 5.753906 6 5.871094 C 6.328125 5.753906 6.628906 5.554688 6.851562 5.257812 C 6.828125 5.261719 6.800781 5.265625 6.773438 5.265625 C 6.644531 5.265625 6.515625 5.164062 6.386719 5.164062 C 6.257812 5.164062 6.128906 5.265625 6 5.265625 C 5.871094 5.265625 5.742188 5.164062 5.613281 5.164062 Z M 5.613281 5.164062 "/>
<path style=" stroke:none;fill-rule:evenodd;fill:rgb(100%,89.803922%,0%);fill-opacity:1;" d="M 5.421875 2.355469 L 5.710938 2.355469 L 5.566406 2.609375 "/>
<path style=" stroke:none;fill-rule:evenodd;fill:rgb(100%,89.803922%,0%);fill-opacity:1;" d="M 5.421875 2.523438 L 5.710938 2.523438 L 5.566406 2.269531 "/>
<path style=" stroke:none;fill-rule:evenodd;fill:rgb(100%,89.803922%,0%);fill-opacity:1;" d="M 6.289062 2.355469 L 6.582031 2.355469 L 6.4375 2.609375 "/>
<path style=" stroke:none;fill-rule:evenodd;fill:rgb(100%,89.803922%,0%);fill-opacity:1;" d="M 6.289062 2.523438 L 6.582031 2.523438 L 6.4375 2.269531 "/>
<path style=" stroke:none;fill-rule:evenodd;fill:rgb(100%,89.803922%,0%);fill-opacity:1;" d="M 5.855469 2.9375 L 6.148438 2.9375 L 6 3.191406 "/>
<path style=" stroke:none;fill-rule:evenodd;fill:rgb(100%,89.803922%,0%);fill-opacity:1;" d="M 5.855469 3.105469 L 6.148438 3.105469 L 6 2.851562 "/>
<path style=" stroke:none;fill-rule:evenodd;fill:rgb(100%,0%,0%);fill-opacity:1;" d="M 6 2.105469 Z M 4.5625 2.417969 C 4.527344 2.433594 4.492188 2.449219 4.453125 2.464844 L 4.574219 4.335938 C 4.65625 5.3125 5.292969 5.878906 6 6.105469 C 6.707031 5.878906 7.34375 5.3125 7.429688 4.335938 L 7.546875 2.46875 C 7.507812 2.453125 7.472656 2.433594 7.4375 2.417969 L 7.324219 4.273438 C 7.289062 5.066406 6.757812 5.753906 6 5.992188 C 5.242188 5.753906 4.710938 5.066406 4.675781 4.273438 Z M 4.5625 2.417969 "/>
</g>
</svg>
