<?xml version="1.0" encoding="UTF-8"?>
<svg xmlns="http://www.w3.org/2000/svg" xmlns:xlink="http://www.w3.org/1999/xlink" width="24px" height="24px" viewBox="0 0 24 16" version="1.1">
<g id="surface1">
<rect x="0" y="0" width="24" height="16" style="fill:rgb(93.333333%,10.980392%,14.509804%);fill-opacity:1;stroke:none;"/>
<path style=" stroke:none;fill-rule:nonzero;fill:rgb(4.313725%,30.588235%,63.529412%);fill-opacity:1;" d="M 0 0 L 24 0 L 24 10.667969 L 0 10.667969 Z M 0 0 "/>
<path style=" stroke:none;fill-rule:nonzero;fill:rgb(100%,100%,100%);fill-opacity:1;" d="M 0 0 L 24 0 L 24 5.332031 L 0 5.332031 Z M 0 0 "/>
<path style=" stroke:none;fill-rule:nonzero;fill:rgb(100%,100%,100%);fill-opacity:1;" d="M 10.492188 3.761719 L 3.902344 3.761719 L 3.878906 3.976562 C 3.875 4.023438 3.761719 5.148438 3.761719 7.621094 C 3.761719 8.78125 4.152344 9.804688 4.925781 10.667969 C 5.46875 11.269531 6.179688 11.777344 7.09375 12.214844 L 7.199219 12.265625 L 7.300781 12.214844 C 8.21875 11.777344 8.925781 11.269531 9.46875 10.667969 C 10.242188 9.804688 10.636719 8.78125 10.636719 7.621094 C 10.636719 5.148438 10.519531 4.023438 10.515625 3.976562 Z M 10.492188 3.761719 "/>
<path style=" stroke:none;fill-rule:nonzero;fill:rgb(93.333333%,10.980392%,14.509804%);fill-opacity:1;" d="M 7.199219 12 C 5.882812 11.367188 4 10.109375 4 7.621094 C 4 5.132812 4.117188 4 4.117188 4 L 10.277344 4 C 10.277344 4 10.394531 5.132812 10.394531 7.621094 C 10.394531 10.109375 8.511719 11.367188 7.199219 12 Z M 7.199219 12 "/>
<path style=" stroke:none;fill-rule:nonzero;fill:rgb(100%,100%,100%);fill-opacity:1;" d="M 7.480469 6.96875 C 7.835938 6.972656 8.53125 6.988281 9.148438 6.78125 C 9.148438 6.78125 9.132812 7 9.132812 7.257812 C 9.132812 7.519531 9.148438 7.738281 9.148438 7.738281 C 8.582031 7.550781 7.882812 7.546875 7.480469 7.550781 L 7.480469 8.925781 L 6.917969 8.925781 L 6.917969 7.550781 C 6.515625 7.546875 5.8125 7.550781 5.246094 7.738281 C 5.246094 7.738281 5.261719 7.519531 5.261719 7.257812 C 5.261719 7 5.246094 6.78125 5.246094 6.78125 C 5.867188 6.988281 6.5625 6.972656 6.917969 6.96875 L 6.917969 6.105469 C 6.59375 6.101562 6.125 6.117188 5.59375 6.292969 C 5.59375 6.292969 5.613281 6.074219 5.613281 5.816406 C 5.613281 5.554688 5.59375 5.335938 5.59375 5.335938 C 6.125 5.511719 6.589844 5.527344 6.914062 5.523438 C 6.898438 4.976562 6.738281 4.289062 6.738281 4.289062 C 6.738281 4.289062 7.066406 4.316406 7.199219 4.316406 C 7.328125 4.316406 7.65625 4.289062 7.65625 4.289062 C 7.65625 4.289062 7.496094 4.976562 7.480469 5.523438 C 7.804688 5.527344 8.273438 5.511719 8.800781 5.335938 C 8.800781 5.335938 8.785156 5.554688 8.785156 5.816406 C 8.785156 6.074219 8.800781 6.292969 8.800781 6.292969 C 8.273438 6.117188 7.804688 6.101562 7.480469 6.105469 Z M 7.480469 6.96875 "/>
<path style=" stroke:none;fill-rule:nonzero;fill:rgb(4.313725%,30.588235%,63.529412%);fill-opacity:1;" d="M 7.199219 8.777344 C 6.535156 8.777344 6.179688 9.695312 6.179688 9.695312 C 6.035156 9.421875 5.75 9.253906 5.441406 9.257812 C 5.078125 9.257812 4.804688 9.585938 4.636719 9.886719 C 5.300781 10.945312 6.363281 11.597656 7.199219 12 C 8.03125 11.597656 9.09375 10.945312 9.761719 9.886719 C 9.589844 9.585938 9.320312 9.257812 8.953125 9.257812 C 8.644531 9.253906 8.359375 9.421875 8.214844 9.695312 C 8.214844 9.695312 7.859375 8.777344 7.199219 8.777344 Z M 7.199219 8.777344 "/>
</g>
</svg>
