<?xml version="1.0" encoding="UTF-8"?>
<svg xmlns="http://www.w3.org/2000/svg" xmlns:xlink="http://www.w3.org/1999/xlink" width="24px" height="24px" viewBox="0 0 24 16" version="1.1">
<g id="surface1">
<rect x="0" y="0" width="24" height="16" style="fill:rgb(25.490196%,53.72549%,86.666667%);fill-opacity:1;stroke:none;"/>
<path style=" stroke:none;fill-rule:nonzero;fill:rgb(100%,100%,100%);fill-opacity:1;" d="M 12 4.148438 L 10.808594 7.8125 L 12.640625 8.40625 Z M 12 4.148438 "/>
<path style=" stroke:none;fill-rule:nonzero;fill:rgb(100%,100%,100%);fill-opacity:1;" d="M 12 4.148438 L 13.191406 7.8125 L 11.359375 8.40625 Z M 12 4.148438 "/>
<path style=" stroke:none;fill-rule:nonzero;fill:rgb(100%,100%,100%);fill-opacity:1;" d="M 15.664062 6.808594 L 11.8125 6.808594 L 11.8125 8.734375 Z M 15.664062 6.808594 "/>
<path style=" stroke:none;fill-rule:nonzero;fill:rgb(100%,100%,100%);fill-opacity:1;" d="M 15.664062 6.808594 L 12.546875 9.074219 L 11.414062 7.515625 Z M 15.664062 6.808594 "/>
<path style=" stroke:none;fill-rule:nonzero;fill:rgb(100%,100%,100%);fill-opacity:1;" d="M 8.335938 6.808594 L 11.453125 9.074219 L 12.585938 7.515625 Z M 8.335938 6.808594 "/>
<path style=" stroke:none;fill-rule:nonzero;fill:rgb(100%,100%,100%);fill-opacity:1;" d="M 8.335938 6.808594 L 12.1875 6.808594 L 12.1875 8.734375 Z M 8.335938 6.808594 "/>
<path style=" stroke:none;fill-rule:nonzero;fill:rgb(100%,100%,100%);fill-opacity:1;" d="M 14.265625 11.117188 L 13.074219 7.453125 L 11.242188 8.046875 Z M 14.265625 11.117188 "/>
<path style=" stroke:none;fill-rule:nonzero;fill:rgb(100%,100%,100%);fill-opacity:1;" d="M 14.265625 11.117188 L 11.148438 8.851562 L 12.28125 7.292969 Z M 14.265625 11.117188 "/>
<path style=" stroke:none;fill-rule:nonzero;fill:rgb(100%,100%,100%);fill-opacity:1;" d="M 9.734375 11.117188 L 12.851562 8.851562 L 11.71875 7.292969 Z M 9.734375 11.117188 "/>
<path style=" stroke:none;fill-rule:nonzero;fill:rgb(100%,100%,100%);fill-opacity:1;" d="M 9.734375 11.117188 L 10.925781 7.453125 L 12.757812 8.046875 Z M 9.734375 11.117188 "/>
</g>
</svg>
