<?xml version="1.0" encoding="utf-8"?>
<svg viewBox="0 0 24 16" width="24px" height="16px" xmlns="http://www.w3.org/2000/svg">
  <defs/>
  <path d="M 0 0 L 24 0 L 24 16 L 0 16 L 0 0 Z" style="fill: rgb(255, 255, 255);"/>
  <path d="M 0 0 L 10.632 8 L 24 8 L 24 0 L 0 0 Z" fill="#dc171d" style=""/>
  <path d="M 0 16 L 10.631 8 L 24 8 L 24 16 L 0 16 Z" fill="#012a87" style=""/>
  <path d="M 5.363 6.055 L 5.366 5.931 C 5.366 5.931 5.3 5.825 5.377 5.711 C 5.377 5.711 5.213 5.624 5.251 5.488 C 5.251 5.488 5.103 5.45 5.114 5.287 C 5.114 5.287 4.953 5.276 4.937 5.14 C 4.937 5.14 4.777 5.166 4.706 5.034 C 4.706 5.034 4.55 5.064 4.506 4.955 C 4.506 4.955 4.354 5.007 4.264 4.878 C 4.264 4.878 4.104 4.943 4.037 4.822 C 3.971 4.943 3.81 4.878 3.81 4.878 C 3.721 5.007 3.569 4.953 3.569 4.953 C 3.526 5.063 3.37 5.032 3.37 5.032 C 3.3 5.165 3.14 5.139 3.14 5.139 C 3.125 5.274 2.965 5.286 2.965 5.286 C 2.977 5.449 2.829 5.486 2.829 5.486 C 2.868 5.622 2.705 5.709 2.705 5.709 C 2.784 5.823 2.718 5.928 2.718 5.928 L 2.714 6.042 L 5.363 6.055 L 5.363 6.055 L 5.363 6.055 Z" fill="#f9d90f" stroke-width=".271" stroke="#000" style="vector-effect: non-scaling-stroke;"/>
  <path d="M 5.301 5.9 C 4.885 5.858 4.406 5.76 4.036 5.968 C 3.788 5.822 3.443 5.831 3.149 5.859 C 2.989 5.888 2.801 5.888 2.634 5.915 L 2.608 5.919 C 2.306 5.939 2.031 5.849 1.768 5.732 C 1.852 6.206 1.944 6.692 1.99 7.188 C 2.089 7.923 1.642 8.54 1.825 9.266 C 1.935 9.614 2.318 9.817 2.669 9.857 C 3.008 9.877 3.36 9.933 3.674 10.001 C 3.734 10.013 3.804 10.041 3.846 10.059 C 3.932 10.095 3.996 10.148 4.051 10.205 C 4.241 10.008 4.519 9.953 4.793 9.924 C 5.288 9.866 5.897 9.897 6.2 9.45 L 6.2 9.424 C 6.364 9.177 6.343 8.799 6.271 8.518 C 6.266 8.42 6.24 8.334 6.226 8.241 C 5.924 7.443 6.183 6.546 6.313 5.742 C 6.154 5.829 5.977 5.87 5.8 5.913 C 5.659 5.932 5.502 5.924 5.36 5.916 L 5.301 5.9 M 5.922 8.189" fill="#dc171d" style=""/>
  <path d="M 5.922 8.189 C 5.92 8.241 5.949 8.283 5.959 8.331 C 6.017 8.68 6.073 9.142 5.714 9.358 C 5.317 9.61 4.796 9.502 4.336 9.636 C 4.245 9.661 4.118 9.746 4.054 9.806 C 4.012 9.778 3.97 9.736 3.917 9.712 C 3.539 9.511 3.047 9.578 2.621 9.47 C 2.406 9.402 2.183 9.235 2.128 9.015 C 1.989 8.44 2.323 7.949 2.284 7.378 C 2.258 6.942 2.185 6.524 2.084 6.115 C 2.418 6.27 2.804 6.296 3.179 6.222 C 3.457 6.183 3.78 6.182 4.041 6.299 C 4.184 6.238 4.352 6.21 4.507 6.193 C 4.801 6.222 5.117 6.275 5.419 6.273 C 5.621 6.262 5.805 6.204 5.981 6.126 C 5.877 6.802 5.676 7.509 5.922 8.189" fill="#62afe1" style=""/>
  <g style="" transform="matrix(0.035556, 0, 0, 0.035556, 0, 0)">
    <path d="M 75 257.458 L 151.8 257.458 M 113.4 179.6 L 127.383 189.505 L 124.531 189.468 L 124.5 198.56 L 151.8 216.16 L 149.638 216.197 L 149.7 234.214 L 152.993 234.214 L 152.994 238.311 L 151.796 238.348 L 151.797 257.459 L 158.091 257.486 L 158.091 263.126 L 68.709 263.126 L 68.709 257.486 L 75.003 257.459 L 75.004 238.348 L 73.806 238.311 L 73.807 234.214 L 77.1 234.214 L 77.162 216.197 L 75 216.16 L 102.3 198.56 L 102.269 189.468 L 99.417 189.505 L 113.4 179.6 Z" style="stroke: rgb(0, 0, 0); fill: rgb(255, 255, 255);"/>
    <path d="M 75 238.4 L 79.134 238.367 L 79.1 257.5" style="stroke: rgb(0, 0, 0); fill: none;"/>
    <path d="M 147.715 257.454 L 151.849 257.487 L 151.815 238.354" style="stroke: rgb(0, 0, 0); fill: none; transform-box: fill-box; transform-origin: 50% 50%;" transform="matrix(-1, 0, 0, -1, 0.000001, 0.000001)"/>
    <path d="M 105.323 191.219 L 121.578 191.219 L 121.578 198.844 L 105.323 198.844 L 105.323 191.219 Z M 109.464 192.724 L 117.408 192.724 L 117.408 197.04 L 109.464 197.04 L 109.464 192.724 Z" style="stroke: rgb(0, 0, 0); fill: none;"/>
    <path d="M 104.80000305175781 188.6999969482422 L 113.37699890136719 182.59800720214844 L 122.33499908447266 188.6580047607422 Z" style="fill: none; stroke: rgb(0, 0, 0);"/>
    <path d="M 103.811 201.697 L 123.257 201.602 L 139.931 214.079 L 87.535 214.079 L 103.811 201.697 Z" style="fill: none; stroke: rgb(0, 0, 0);"/>
    <path d="M 84.871 220.618 L 89.891 220.618 L 89.891 228.458 L 84.871 228.458 L 84.871 220.618 Z M 82.076 217.952 L 92.686 217.952 L 92.686 231.123 L 82.076 231.123 L 82.076 217.952 Z" style="fill: none; stroke: rgb(0, 0, 0);"/>
    <path d="M 104 227 L 104.025 220.618 L 109.045 220.618 L 109 227 M 101.23 227.007 L 101.23 217.952 L 111.84 217.952 L 111.84 227.007" style="fill: none; stroke: rgb(0, 0, 0);"/>
    <path d="M 118.782 227 L 118.807 220.618 L 123.827 220.618 L 123.782 227 M 116.012 227.007 L 116.012 217.952 L 126.622 217.952 L 126.622 227.007" style="fill: none; stroke: rgb(0, 0, 0);"/>
    <path d="M 136.58 220.618 L 141.6 220.618 L 141.6 228.458 L 136.58 228.458 L 136.58 220.618 Z M 133.785 217.952 L 144.395 217.952 L 144.395 231.123 L 133.785 231.123 L 133.785 217.952 Z" style="fill: none; stroke: rgb(0, 0, 0);"/>
    <path d="M 84.871 242.045 L 89.891 242.045 L 89.891 249.885 L 84.871 249.885 L 84.871 242.045 Z M 82.076 239.379 L 92.686 239.379 L 92.686 252.55 L 82.076 252.55 L 82.076 239.379 Z" style="fill: none; stroke: rgb(0, 0, 0);"/>
    <path d="M 136.58 242.045 L 141.6 242.045 L 141.6 249.885 L 136.58 249.885 L 136.58 242.045 Z M 133.785 239.379 L 144.395 239.379 L 144.395 252.55 L 133.785 252.55 L 133.785 239.379 Z" style="fill: none; stroke: rgb(0, 0, 0);"/>
    <path style="fill: none; stroke-linejoin: round; stroke-linecap: round; stroke-width: 0.9px; stroke: rgb(0, 0, 0);" d="M 100.1 234.864 L 102.318 234.878 L 101.702 233.466 C 102.318 232.461 102.4 230.582 101.667 229.451 L 102.318 227.961 L 100.1 228.012 L 100.733 229.451 C 100 230.582 100.082 232.461 100.698 233.466 L 100.1 234.864 Z"/>
    <path style="fill: none; stroke-linejoin: round; stroke-linecap: round; stroke-width: 0.9px; stroke: rgb(0, 0, 0);" d="M 105.154 234.864 L 107.372 234.878 L 106.756 233.466 C 107.372 232.461 107.454 230.582 106.721 229.451 L 107.372 227.961 L 105.154 228.012 L 105.787 229.451 C 105.054 230.582 105.136 232.461 105.752 233.466 L 105.154 234.864 Z"/>
    <path style="fill: none; stroke-linejoin: round; stroke-linecap: round; stroke-width: 0.9px; stroke: rgb(0, 0, 0);" d="M 110.208 234.864 L 112.426 234.878 L 111.81 233.466 C 112.426 232.461 112.508 230.582 111.775 229.451 L 112.426 227.961 L 110.208 228.012 L 110.841 229.451 C 110.108 230.582 110.19 232.461 110.806 233.466 L 110.208 234.864 Z"/>
    <path style="fill: none; stroke-linejoin: round; stroke-linecap: round; stroke-width: 0.9px; stroke: rgb(0, 0, 0);" d="M 115.263 234.864 L 117.481 234.878 L 116.865 233.466 C 117.481 232.461 117.563 230.582 116.83 229.451 L 117.481 227.961 L 115.263 228.012 L 115.896 229.451 C 115.163 230.582 115.245 232.461 115.861 233.466 L 115.263 234.864 Z"/>
    <path style="fill: none; stroke-linejoin: round; stroke-linecap: round; stroke-width: 0.9px; stroke: rgb(0, 0, 0);" d="M 120.317 234.864 L 122.535 234.878 L 121.919 233.466 C 122.535 232.461 122.617 230.582 121.884 229.451 L 122.535 227.961 L 120.317 228.012 L 120.95 229.451 C 120.217 230.582 120.299 232.461 120.915 233.466 L 120.317 234.864 Z"/>
    <path style="fill: none; stroke-linejoin: round; stroke-linecap: round; stroke-width: 0.9px; stroke: rgb(0, 0, 0);" d="M 125.371 234.864 L 127.589 234.878 L 126.973 233.466 C 127.589 232.461 127.671 230.582 126.938 229.451 L 127.589 227.961 L 125.371 228.012 L 126.004 229.451 C 125.271 230.582 125.353 232.461 125.969 233.466 L 125.371 234.864 Z"/>
    <path d="M 98.723 235.821 L 129.3 235.8 M 102.431 257.619 L 102.3 235.8 M 125.544 257.778 L 125.5 235.8 M 98.653 227.056 L 129.325 227.056 L 129.325 257.499 L 98.653 257.499 L 98.653 227.056 Z" style="fill: none; stroke: rgb(0, 0, 0);"/>
  </g>
  <path d="M 5.333 6.331 C 5.424 6.329 5.448 6.708 5.448 6.895 C 5.527 6.917 5.701 7.027 5.778 7.126 L 4.895 7.124 C 4.971 7.027 5.143 6.917 5.221 6.895 C 5.221 6.707 5.24 6.329 5.333 6.331" fill="#fff" style=""/>
  <path d="M 4.056 10.542 C 4.463 10.543 4.963 10.46 5.198 10.339 L 5.713 10.294 L 5.723 10.922 C 5.287 11.162 4.28 11.214 4.058 11.212 C 3.836 11.214 2.817 11.161 2.379 10.92 L 2.385 10.291 L 2.9 10.338 C 3.135 10.458 3.651 10.542 4.057 10.542 L 4.056 10.542" fill="#f9d90f" style=""/>
  <path d="M 4.056 10.542 C 4.463 10.543 4.963 10.46 5.198 10.339 L 5.713 10.293 L 5.723 10.922 C 5.287 11.162 4.28 11.214 4.058 11.212 C 3.836 11.214 2.817 11.161 2.379 10.92 L 2.385 10.291 L 2.901 10.338 C 3.135 10.458 3.651 10.542 4.057 10.542 L 4.056 10.542" fill="none" stroke-width=".271" stroke="#000" style="vector-effect: non-scaling-stroke;"/>
  <path d="M 1.054 7.863 L 1.507 8.007 L 1.37 8.741 L 0.941 8.808 C 0.941 8.808 0.868 8.422 1.054 7.862" fill="#f9d90f" style=""/>
  <path d="M 1.054 7.863 L 1.507 8.007 L 1.37 8.741 L 0.941 8.808 C 0.941 8.808 0.868 8.422 1.054 7.862 L 1.054 7.863 L 1.054 7.863 Z" fill="none" stroke-width=".271" stroke="#000" style="vector-effect: non-scaling-stroke;"/>
  <path d="M 1.37 8.733 L 0.941 8.808 L 1.212 8.422 L 1.37 8.733" fill="#7e7e7e" style=""/>
  <path d="M 1.37 8.733 L 0.941 8.808 L 1.212 8.422 L 1.37 8.733" fill="#f9b60f" stroke-width=".271" stroke="#000" style="vector-effect: non-scaling-stroke;"/>
  <path d="M 0.782 8.392 L 1.219 8.423 C 1.229 8.794 1.274 10.207 2.962 10.284 L 2.91 10.798 C 0.855 10.82 0.699 9.064 0.782 8.392" fill="#f9d90f" style=""/>
  <path d="M 0.782 8.392 L 1.219 8.423 C 1.229 8.794 1.274 10.207 2.962 10.284 L 2.91 10.798 C 0.855 10.82 0.699 9.064 0.782 8.392 Z M 2.387 10.904 L 2.902 10.791 M 2.387 10.904 L 2.902 10.791 M 2.387 10.904 L 2.902 10.791 M 2.387 10.904 L 2.902 10.791 M 2.387 10.904 L 2.902 10.791" fill="none" stroke-width=".271" stroke="#000" style="vector-effect: non-scaling-stroke;"/>
  <path d="M 7.023 7.868 L 6.571 8.011 L 6.714 8.744 L 7.145 8.813 C 7.145 8.813 7.214 8.427 7.023 7.867" fill="#ff0" style=""/>
  <path d="M 7.023 7.868 L 6.571 8.011 L 6.714 8.744 L 7.145 8.813 C 7.145 8.813 7.214 8.427 7.023 7.867 L 7.023 7.868 L 7.023 7.868 Z" fill="#f9d90f" stroke-width=".271" stroke="#000" style="vector-effect: non-scaling-stroke;"/>
  <path d="M 6.714 8.737 L 7.145 8.814 L 6.869 8.427 L 6.714 8.737" fill="#7e7e7e" style=""/>
  <path d="M 6.714 8.736 L 7.145 8.814 L 6.869 8.427 L 6.714 8.736" fill="#f9b60f" stroke-width=".271" stroke="#000" style="vector-effect: non-scaling-stroke;"/>
  <path d="M 7.299 8.398 L 6.861 8.427 C 6.855 8.797 6.823 10.212 5.134 10.287 L 5.192 10.801 C 7.246 10.824 7.388 9.07 7.299 8.397" fill="#f9d90f" style=""/>
  <path d="M 7.299 8.397 L 6.861 8.427 C 6.855 8.797 6.823 10.212 5.134 10.287 L 5.192 10.801 C 7.246 10.824 7.388 9.07 7.299 8.397 L 7.299 8.397 L 7.299 8.397 Z M 5.716 10.907 L 5.199 10.793" fill="none" stroke-width=".271" stroke="#000" style="vector-effect: non-scaling-stroke;"/>
  <path d="M 3.783 10.852 C 3.771 10.859 3.756 10.861 3.737 10.86 L 3.656 10.856 L 3.663 10.754 L 3.744 10.759 C 3.76 10.76 3.772 10.763 3.78 10.768 C 3.797 10.776 3.804 10.792 3.802 10.814 C 3.801 10.832 3.795 10.844 3.783 10.852 M 3.646 11.012 L 3.654 10.888 L 3.749 10.894 C 3.78 10.897 3.802 10.889 3.818 10.873 C 3.834 10.858 3.842 10.838 3.843 10.815 C 3.845 10.789 3.839 10.767 3.823 10.751 C 3.808 10.736 3.787 10.728 3.76 10.725 L 3.624 10.717 L 3.605 11.009 L 3.645 11.011 M 3.941 10.768 L 4.041 10.769 M 3.941 10.768 L 4.041 10.769 M 3.941 10.768 L 4.041 10.769 M 3.941 10.768 L 4.041 10.769 M 3.941 10.768 L 4.041 10.769 C 4.055 10.77 4.067 10.772 4.075 10.776 C 4.09 10.783 4.097 10.797 4.097 10.818 C 4.097 10.838 4.092 10.851 4.08 10.859 C 4.07 10.866 4.054 10.869 4.036 10.869 L 3.94 10.868 L 3.941 10.768 M 3.94 11.026 L 3.94 10.902 L 4.034 10.903 C 4.05 10.903 4.063 10.904 4.071 10.908 C 4.085 10.915 4.092 10.928 4.092 10.946 L 4.095 10.995 C 4.095 11.007 4.096 11.014 4.096 11.019 C 4.097 11.023 4.098 11.026 4.1 11.029 L 4.15 11.029 L 4.149 11.023 C 4.143 11.02 4.139 11.014 4.137 11.005 C 4.135 10.999 4.134 10.991 4.134 10.98 L 4.133 10.941 C 4.132 10.923 4.129 10.911 4.123 10.904 C 4.116 10.895 4.107 10.889 4.096 10.886 C 4.11 10.878 4.121 10.87 4.128 10.859 C 4.135 10.848 4.139 10.833 4.139 10.815 C 4.139 10.782 4.125 10.759 4.097 10.746 C 4.082 10.739 4.063 10.736 4.041 10.736 L 3.9 10.734 L 3.899 11.027 L 3.94 11.027 M 4.251 10.965 C 4.233 10.943 4.223 10.916 4.221 10.884 C 4.219 10.843 4.227 10.812 4.246 10.791 C 4.264 10.769 4.289 10.758 4.32 10.756 C 4.352 10.754 4.378 10.764 4.398 10.784 C 4.417 10.804 4.429 10.831 4.431 10.865 C 4.432 10.898 4.426 10.927 4.411 10.953 C 4.396 10.979 4.372 10.993 4.335 10.994 C 4.297 10.996 4.269 10.987 4.251 10.965 M 4.203 10.781 C 4.184 10.81 4.176 10.843 4.178 10.884 C 4.181 10.928 4.195 10.964 4.22 10.991 C 4.249 11.018 4.286 11.032 4.332 11.029 C 4.382 11.027 4.419 11.008 4.444 10.974 C 4.465 10.943 4.475 10.907 4.473 10.862 C 4.47 10.822 4.458 10.79 4.437 10.765 C 4.409 10.733 4.369 10.718 4.315 10.721 C 4.264 10.724 4.227 10.743 4.203 10.781 M 5.58 10.359 C 5.608 10.354 5.633 10.356 5.655 10.363 C 5.688 10.374 5.71 10.398 5.723 10.435 L 5.683 10.44 C 5.674 10.42 5.662 10.407 5.645 10.399 C 5.629 10.392 5.608 10.39 5.585 10.394 C 5.558 10.397 5.535 10.412 5.52 10.434 C 5.504 10.457 5.5 10.488 5.506 10.529 C 5.512 10.562 5.524 10.59 5.544 10.609 C 5.563 10.628 5.59 10.634 5.626 10.629 C 5.652 10.625 5.674 10.614 5.689 10.596 C 5.704 10.579 5.709 10.552 5.704 10.518 L 5.61 10.533 L 5.605 10.5 L 5.736 10.48 L 5.761 10.635 L 5.735 10.639 L 5.719 10.604 C 5.708 10.62 5.698 10.632 5.688 10.639 C 5.672 10.652 5.65 10.66 5.623 10.664 C 5.587 10.669 5.555 10.663 5.526 10.644 C 5.494 10.621 5.473 10.585 5.465 10.536 C 5.457 10.488 5.464 10.447 5.487 10.414 C 5.508 10.383 5.539 10.365 5.58 10.359 M 5.876 10.336 L 5.97 10.302 C 5.983 10.298 5.994 10.296 6.003 10.297 C 6.02 10.299 6.033 10.309 6.04 10.329 C 6.047 10.347 6.047 10.362 6.039 10.373 C 6.031 10.384 6.019 10.392 6 10.399 L 5.912 10.43 L 5.876 10.336 M 5.97 10.579 L 5.924 10.461 L 6.011 10.43 C 6.027 10.425 6.039 10.422 6.047 10.423 C 6.063 10.425 6.075 10.434 6.082 10.452 L 6.102 10.497 C 6.107 10.508 6.11 10.514 6.113 10.517 C 6.114 10.521 6.117 10.524 6.119 10.526 L 6.167 10.509 L 6.164 10.503 C 6.157 10.503 6.15 10.499 6.145 10.491 C 6.142 10.486 6.138 10.478 6.133 10.469 L 6.118 10.432 C 6.111 10.416 6.103 10.406 6.095 10.4 C 6.085 10.395 6.075 10.392 6.064 10.392 C 6.074 10.381 6.08 10.37 6.083 10.357 C 6.086 10.343 6.085 10.328 6.078 10.312 C 6.066 10.281 6.044 10.264 6.013 10.262 C 5.997 10.26 5.978 10.264 5.957 10.271 L 5.825 10.318 L 5.931 10.594 L 5.97 10.58 M 6.313 10.434 L 6.145 10.19 L 6.329 10.072 L 6.349 10.102 L 6.199 10.198 L 6.25 10.273 L 6.389 10.183 L 6.408 10.212 L 6.269 10.301 L 6.326 10.383 L 6.479 10.285 L 6.499 10.314 L 6.312 10.433 M 6.459 10.002 L 6.507 9.949 C 6.529 9.926 6.553 9.915 6.579 9.918 C 6.604 9.92 6.63 9.934 6.658 9.958 C 6.666 9.964 6.673 9.972 6.68 9.98 C 6.692 9.996 6.699 10.01 6.704 10.024 C 6.708 10.042 6.707 10.058 6.701 10.073 C 6.697 10.081 6.69 10.089 6.681 10.1 L 6.632 10.153 L 6.459 10.002 M 6.712 10.117 C 6.747 10.079 6.754 10.039 6.734 9.993 C 6.721 9.967 6.703 9.943 6.68 9.924 C 6.65 9.897 6.618 9.883 6.584 9.88 C 6.546 9.877 6.515 9.891 6.487 9.921 L 6.405 10.009 L 6.631 10.205 L 6.712 10.117 M 6.887 9.889 L 6.628 9.737 L 6.649 9.703 L 6.909 9.855 L 6.887 9.89 M 6.989 9.712 L 6.709 9.6 L 6.791 9.403 L 6.825 9.416 L 6.758 9.579 L 6.842 9.612 L 6.905 9.462 L 6.938 9.475 L 6.875 9.625 L 6.97 9.663 L 7.039 9.499 L 7.073 9.512 L 6.989 9.712 M 7.118 9.368 L 6.823 9.303 L 6.833 9.257 L 7.105 9.165 L 6.866 9.113 L 6.874 9.077 L 7.169 9.14 L 7.16 9.185 L 6.887 9.279 L 7.126 9.33 L 7.118 9.368 M 7.094 8.994 L 7.098 8.957 C 7.115 8.957 7.129 8.955 7.14 8.949 C 7.162 8.937 7.174 8.915 7.177 8.883 C 7.179 8.867 7.178 8.854 7.174 8.841 C 7.168 8.817 7.154 8.803 7.132 8.801 C 7.116 8.8 7.104 8.803 7.096 8.812 C 7.088 8.823 7.08 8.837 7.074 8.858 L 7.06 8.897 C 7.052 8.922 7.044 8.94 7.035 8.95 C 7.021 8.968 7.001 8.974 6.976 8.972 C 6.949 8.97 6.928 8.959 6.912 8.938 C 6.896 8.92 6.89 8.893 6.894 8.86 C 6.896 8.829 6.906 8.804 6.924 8.783 C 6.941 8.765 6.966 8.756 6.999 8.759 L 6.996 8.796 C 6.98 8.796 6.967 8.799 6.958 8.806 C 6.941 8.815 6.932 8.835 6.929 8.864 C 6.926 8.888 6.93 8.904 6.939 8.916 C 6.948 8.926 6.959 8.933 6.973 8.934 C 6.987 8.935 6.999 8.931 7.007 8.92 C 7.012 8.912 7.019 8.896 7.028 8.869 L 7.041 8.828 C 7.048 8.809 7.056 8.795 7.065 8.785 C 7.081 8.768 7.103 8.761 7.13 8.763 C 7.162 8.766 7.186 8.78 7.198 8.804 C 7.209 8.829 7.214 8.857 7.211 8.889 C 7.207 8.924 7.196 8.952 7.174 8.971 C 7.153 8.99 7.126 8.997 7.094 8.994 M 0.982 8.976 L 0.989 9.013 C 0.973 9.016 0.96 9.022 0.95 9.031 C 0.933 9.047 0.927 9.071 0.933 9.104 C 0.936 9.118 0.941 9.132 0.947 9.143 C 0.96 9.165 0.977 9.174 0.999 9.17 C 1.014 9.168 1.025 9.162 1.03 9.15 C 1.035 9.139 1.038 9.122 1.039 9.1 L 1.041 9.059 C 1.043 9.033 1.045 9.013 1.051 9.002 C 1.06 8.982 1.077 8.97 1.102 8.966 C 1.127 8.961 1.153 8.967 1.173 8.982 C 1.193 8.996 1.207 9.021 1.212 9.054 C 1.218 9.084 1.215 9.11 1.203 9.135 C 1.192 9.158 1.17 9.173 1.137 9.179 L 1.13 9.142 C 1.146 9.136 1.157 9.131 1.165 9.123 C 1.178 9.108 1.182 9.087 1.177 9.058 C 1.173 9.035 1.165 9.019 1.153 9.012 C 1.141 9.003 1.129 8.999 1.116 9.001 C 1.101 9.004 1.091 9.012 1.087 9.025 C 1.084 9.033 1.082 9.052 1.08 9.079 L 1.078 9.122 C 1.077 9.142 1.074 9.159 1.067 9.17 C 1.056 9.191 1.038 9.204 1.012 9.208 C 0.978 9.214 0.953 9.206 0.934 9.185 C 0.916 9.164 0.904 9.139 0.898 9.107 C 0.892 9.07 0.896 9.042 0.911 9.018 C 0.926 8.995 0.95 8.981 0.982 8.976 M 0.964 9.363 L 1.252 9.276 L 1.319 9.479 L 1.284 9.49 L 1.229 9.323 L 1.142 9.349 L 1.192 9.504 L 1.159 9.514 L 1.108 9.36 L 1.011 9.389 L 1.067 9.559 L 1.032 9.569 L 0.964 9.363 M 1.092 9.714 L 1.357 9.574 L 1.385 9.623 L 1.203 9.816 L 1.469 9.77 L 1.497 9.82 L 1.232 9.959 L 1.213 9.927 L 1.369 9.845 C 1.375 9.841 1.384 9.837 1.396 9.83 C 1.409 9.824 1.423 9.816 1.437 9.809 L 1.172 9.854 L 1.152 9.82 L 1.333 9.628 L 1.325 9.632 C 1.319 9.635 1.309 9.64 1.296 9.648 C 1.286 9.654 1.277 9.659 1.267 9.664 L 1.111 9.747 L 1.092 9.714 M 1.586 10.105 C 1.572 10.102 1.559 10.094 1.546 10.081 L 1.49 10.023 L 1.566 9.954 L 1.622 10.012 C 1.633 10.022 1.64 10.033 1.644 10.042 C 1.649 10.059 1.644 10.075 1.628 10.089 C 1.614 10.103 1.599 10.108 1.586 10.105 M 1.373 10.132 L 1.465 10.047 L 1.531 10.113 C 1.552 10.135 1.574 10.145 1.596 10.144 C 1.619 10.143 1.64 10.134 1.657 10.118 C 1.676 10.101 1.686 10.08 1.686 10.058 C 1.685 10.037 1.676 10.017 1.658 9.998 L 1.563 9.902 L 1.344 10.103 L 1.372 10.132 M 1.637 10.367 L 1.796 10.118 L 1.984 10.232 L 1.965 10.262 L 1.81 10.169 L 1.762 10.245 L 1.904 10.331 L 1.886 10.36 L 1.744 10.274 L 1.69 10.358 L 1.846 10.452 L 1.827 10.482 L 1.637 10.367 M 2.108 10.319 L 2.203 10.349 C 2.217 10.353 2.227 10.359 2.233 10.365 C 2.245 10.376 2.249 10.393 2.241 10.413 C 2.236 10.43 2.227 10.442 2.213 10.446 C 2.2 10.448 2.185 10.448 2.166 10.443 L 2.076 10.414 L 2.108 10.319 M 2.025 10.564 L 2.065 10.445 L 2.154 10.474 C 2.17 10.478 2.182 10.484 2.187 10.49 C 2.198 10.499 2.201 10.514 2.196 10.532 L 2.183 10.58 C 2.18 10.591 2.178 10.599 2.177 10.602 C 2.177 10.606 2.177 10.61 2.177 10.612 L 2.224 10.628 L 2.227 10.621 C 2.222 10.617 2.219 10.61 2.219 10.601 C 2.221 10.595 2.222 10.587 2.225 10.577 L 2.237 10.539 C 2.241 10.522 2.243 10.51 2.239 10.501 C 2.235 10.491 2.228 10.482 2.219 10.475 C 2.234 10.472 2.247 10.468 2.258 10.46 C 2.27 10.449 2.278 10.436 2.282 10.421 C 2.293 10.389 2.287 10.363 2.264 10.343 C 2.252 10.332 2.235 10.323 2.213 10.315 L 2.08 10.274 L 1.986 10.552 L 2.025 10.564 M 2.43 5.505" fill="#012a87" style=""/>
  <path d="M 2.43 5.505 C 2.465 5.422 2.784 5.195 3.832 5.295 C 3.832 5.295 4.009 5.403 4.113 5.389 C 4.172 5.381 4.078 5.392 4 5.328 C 3.922 5.264 3.905 5.132 4.085 5.135 C 4.265 5.14 4.936 5.178 4.949 5.238 C 4.961 5.299 4.594 5.325 4.457 5.321 C 4.32 5.318 4.336 5.387 4.473 5.382 C 4.899 5.366 5.365 5.216 5.856 5.564 C 5.915 5.606 5.708 5.613 5.548 5.545 C 5.548 5.545 5.114 5.568 4.927 5.537 C 4.927 5.537 4.783 5.654 4.595 5.642 C 4.619 5.703 4.526 5.93 3.935 5.76 C 3.838 5.789 3.483 5.849 3.521 5.743 C 3.428 5.743 3.264 5.773 3.239 5.72 C 3.216 5.668 3.528 5.589 3.583 5.532 C 3.583 5.532 2.922 5.538 2.797 5.493 C 2.797 5.493 2.407 5.58 2.43 5.504" fill="#bc715f" style=""/>
  <path d="M 2.642 6.43 C 2.656 6.411 2.662 6.376 2.692 6.377 C 2.757 6.394 2.802 6.514 2.882 6.437 C 2.911 6.43 2.922 6.469 2.945 6.474 C 2.96 6.54 3.014 6.46 3.054 6.465 C 3.139 6.427 3.245 6.418 3.346 6.437 C 3.349 6.502 3.298 6.574 3.233 6.611 C 3.235 6.676 3.294 6.718 3.293 6.785 C 3.283 6.809 3.291 6.848 3.254 6.856 C 3.207 6.848 3.16 6.843 3.121 6.816 C 3.116 6.811 3.112 6.802 3.102 6.805 C 3.097 6.827 3.132 6.849 3.145 6.871 C 3.122 6.912 3.082 6.875 3.049 6.875 C 3.039 6.899 3.049 6.928 3.025 6.943 C 2.983 6.942 2.974 6.896 2.948 6.874 C 2.922 6.902 2.967 6.919 2.973 6.942 C 2.957 7.028 2.959 7.112 2.873 7.168 L 2.816 7.196 C 2.8 7.153 2.81 7.088 2.8 7.043 C 2.765 7.098 2.739 7.147 2.689 7.193 C 2.631 7.174 2.596 7.105 2.584 7.048 C 2.559 6.982 2.573 6.902 2.626 6.854 C 2.608 6.819 2.547 6.827 2.538 6.777 C 2.446 6.718 2.395 6.882 2.336 6.797 C 2.317 6.717 2.34 6.618 2.397 6.558 C 2.385 6.525 2.342 6.534 2.317 6.515 C 2.259 6.466 2.175 6.414 2.18 6.326 C 2.338 6.266 2.527 6.31 2.642 6.43" fill="#008830" style=""/>
  <path d="M 2.724 6.421 C 2.72 6.493 2.773 6.44 2.812 6.484 C 2.781 6.472 2.759 6.537 2.729 6.5 L 2.711 6.518 C 2.721 6.543 2.743 6.546 2.721 6.573 C 2.688 6.586 2.681 6.545 2.666 6.529 C 2.663 6.521 2.671 6.508 2.659 6.503 C 2.641 6.519 2.621 6.524 2.596 6.522 C 2.589 6.508 2.575 6.49 2.589 6.479 C 2.614 6.445 2.653 6.491 2.672 6.467 C 2.675 6.446 2.656 6.421 2.68 6.406 C 2.697 6.409 2.718 6.4 2.724 6.421 M 2.92 6.48 C 2.922 6.494 2.913 6.514 2.931 6.524 C 2.955 6.511 2.98 6.52 2.994 6.544 C 2.993 6.557 2.997 6.573 2.981 6.579 L 2.944 6.572 C 2.946 6.565 2.935 6.561 2.93 6.554 C 2.914 6.549 2.904 6.562 2.892 6.57 C 2.901 6.584 2.922 6.592 2.917 6.609 C 2.895 6.631 2.885 6.591 2.861 6.601 C 2.844 6.595 2.866 6.561 2.841 6.55 C 2.81 6.55 2.83 6.6 2.791 6.581 C 2.777 6.565 2.764 6.544 2.779 6.526 C 2.795 6.515 2.823 6.518 2.837 6.532 C 2.861 6.506 2.863 6.404 2.92 6.48 M 2.676 6.585 C 2.692 6.608 2.673 6.639 2.693 6.665 C 2.725 6.605 2.756 6.678 2.793 6.672 C 2.805 6.686 2.797 6.706 2.8 6.722 C 2.753 6.734 2.696 6.749 2.655 6.712 L 2.643 6.725 C 2.668 6.748 2.691 6.774 2.672 6.812 C 2.636 6.82 2.582 6.821 2.564 6.785 C 2.555 6.755 2.586 6.733 2.554 6.709 C 2.53 6.738 2.531 6.777 2.483 6.751 C 2.453 6.734 2.444 6.7 2.459 6.671 C 2.49 6.621 2.545 6.673 2.579 6.648 C 2.584 6.606 2.568 6.569 2.607 6.545 C 2.641 6.539 2.656 6.564 2.676 6.585" fill="#f9d90f" style=""/>
  <path d="M 2.809 6.611 C 2.793 6.684 2.739 6.608 2.713 6.604 C 2.747 6.544 2.769 6.624 2.809 6.611 M 2.979 6.69 C 2.941 6.701 2.947 6.653 2.928 6.635 L 2.943 6.621 C 2.957 6.638 2.967 6.668 2.979 6.69" fill="#fff" style=""/>
  <path d="M 2.928 6.676 C 2.938 6.701 2.903 6.721 2.933 6.739 C 2.943 6.731 2.955 6.72 2.96 6.715 C 2.986 6.723 3.016 6.727 3.034 6.753 C 3.053 6.806 2.999 6.805 2.969 6.82 L 2.938 6.819 C 2.946 6.804 2.925 6.797 2.92 6.787 C 2.906 6.784 2.895 6.788 2.887 6.8 C 2.894 6.834 2.935 6.86 2.893 6.89 C 2.857 6.888 2.801 6.902 2.804 6.852 C 2.79 6.824 2.841 6.78 2.787 6.779 C 2.769 6.817 2.75 6.853 2.704 6.817 L 2.71 6.763 C 2.754 6.764 2.806 6.772 2.826 6.723 C 2.838 6.687 2.803 6.654 2.834 6.626 C 2.879 6.616 2.905 6.646 2.928 6.675" fill="#f9d90f" style=""/>
  <path d="M 2.895 6.757 C 2.907 6.784 2.876 6.785 2.862 6.799 C 2.842 6.8 2.829 6.793 2.817 6.779 C 2.808 6.747 2.832 6.744 2.851 6.731 C 2.873 6.722 2.882 6.747 2.895 6.757" style=""/>
  <path d="M 2.869 6.774 C 2.864 6.781 2.857 6.779 2.85 6.78 L 2.843 6.748 C 2.858 6.749 2.877 6.754 2.869 6.774" fill="#fff" style=""/>
</svg>