<?xml version="1.0" encoding="UTF-8"?>
<svg xmlns="http://www.w3.org/2000/svg" xmlns:xlink="http://www.w3.org/1999/xlink" width="24px" height="24px" viewBox="0 0 24 12" version="1.1">
<defs>
<clipPath id="clip1">
  <path d="M 0 0 L 13 0 L 13 7 L 0 7 Z M 0 0 "/>
</clipPath>
<clipPath id="clip2">
  <path d="M 0 0 L 0 3 L 13 3 L 13 6 L 12 6 Z M 12 0 L 6 0 L 6 7 L 0 7 L 0 6 Z M 12 0 "/>
</clipPath>
</defs>
<g id="surface1">
<path style=" stroke:none;fill-rule:nonzero;fill:rgb(0.392157%,12.941176%,41.176471%);fill-opacity:1;" d="M 0 0 L 12 0 C 13.410156 2.820312 12.664062 6.246094 10.207031 8.222656 C 7.75 10.203125 4.25 10.203125 1.792969 8.222656 C -0.664062 6.246094 -1.410156 2.820312 0 0 Z M 0 0 "/>
<path style="fill:none;stroke-width:480;stroke-linecap:butt;stroke-linejoin:miter;stroke:rgb(100%,100%,100%);stroke-opacity:1;stroke-miterlimit:4;" d="M 0 0 L 4800 2400 M 0 2400 L 4800 0 " transform="matrix(0.0025,0,0,0.0025,0,0)"/>
<g clip-path="url(#clip1)" clip-rule="nonzero">
<g clip-path="url(#clip2)" clip-rule="nonzero">
<path style="fill:none;stroke-width:4;stroke-linecap:butt;stroke-linejoin:miter;stroke:rgb(80.784314%,6.666667%,14.901961%);stroke-opacity:1;stroke-miterlimit:4;" d="M 0 0 L 60 30 M 0 30 L 60 0 " transform="matrix(0.2,0,0,0.2,0,0)"/>
</g>
</g>
<path style="fill:none;stroke-width:800;stroke-linecap:butt;stroke-linejoin:miter;stroke:rgb(100%,100%,100%);stroke-opacity:1;stroke-miterlimit:4;" d="M 2400 -400 L 2400 2800 M -400 1200 L 5200 1200 " transform="matrix(0.0025,0,0,0.0025,0,0)"/>
<path style="fill:none;stroke-width:480;stroke-linecap:butt;stroke-linejoin:miter;stroke:rgb(80.784314%,6.666667%,14.901961%);stroke-opacity:1;stroke-miterlimit:4;" d="M 2400 0 L 2400 2800 M 0 1200 L 5200 1200 " transform="matrix(0.0025,0,0,0.0025,0,0)"/>
<path style=" stroke:none;fill-rule:nonzero;fill:rgb(0.392157%,12.941176%,41.176471%);fill-opacity:1;" d="M 0 6 L 12 6 L 12 0 L 24 0 L 24 12 L 0 12 "/>
<path style="fill-rule:nonzero;fill:rgb(98.823529%,81.960784%,8.627451%);fill-opacity:1;stroke-width:64;stroke-linecap:butt;stroke-linejoin:miter;stroke:rgb(0%,0%,0%);stroke-opacity:1;stroke-miterlimit:4;" d="M 840.625 -1000 L 840.625 -279.6875 C 840.625 200 600 717.1875 0 996.875 C -600 717.1875 -840.625 200 -840.625 -279.6875 L -840.625 -1000 Z M 840.625 -1000 " transform="matrix(0.0025,0,0,0.0025,18,6)"/>
<path style="fill:none;stroke-width:56;stroke-linecap:butt;stroke-linejoin:miter;stroke:rgb(100%,100%,100%);stroke-opacity:1;stroke-miterlimit:4;" d="M 840.625 -1000 L 840.625 -279.6875 C 840.625 200 600 717.1875 0 996.875 C -600 717.1875 -840.625 200 -840.625 -279.6875 L -840.625 -1000 Z M 840.625 -1000 " transform="matrix(0.0025,0,0,0.0025,18,6)"/>
<path style="fill-rule:nonzero;fill:rgb(98.823529%,67.843137%,33.72549%);fill-opacity:1;stroke-width:2.2;stroke-linecap:round;stroke-linejoin:round;stroke:rgb(0%,0%,0%);stroke-opacity:1;stroke-miterlimit:4;" d="M -303.125 -206.25 C -325 -170.3125 -362.5 -162.5 -390.625 -173.4375 C -420.3125 -185.9375 -448.4375 -256.25 -478.125 -293.75 C -506.25 -331.25 -515.625 -315.625 -534.375 -337.5 C -554.6875 -357.8125 -584.375 -373.4375 -631.25 -395.3125 C -656.25 -407.8125 -684.375 -418.75 -701.5625 -465.625 C -695.3125 -484.375 -676.5625 -500 -660.9375 -506.25 C -645.3125 -510.9375 -634.375 -532.8125 -631.25 -551.5625 C -629.6875 -570.3125 -614.0625 -590.625 -592.1875 -604.6875 C -601.5625 -603.125 -623.4375 -606.25 -632.8125 -614.0625 C -642.1875 -621.875 -656.25 -620.3125 -665.625 -612.5 C -675 -606.25 -685.9375 -604.6875 -701.5625 -606.25 C -695.3125 -612.5 -684.375 -623.4375 -684.375 -632.8125 C -682.8125 -643.75 -670.3125 -648.4375 -648.4375 -648.4375 C -626.5625 -648.4375 -610.9375 -673.4375 -593.75 -673.4375 C -606.25 -673.4375 -603.125 -695.3125 -595.3125 -696.875 C -628.125 -703.125 -623.4375 -729.6875 -610.9375 -729.6875 C -612.5 -732.8125 -615.625 -737.5 -631.25 -742.1875 C -645.3125 -746.875 -637.5 -759.375 -626.5625 -768.75 C -637.5 -787.5 -628.125 -803.125 -612.5 -815.625 C -634.375 -817.1875 -609.375 -848.4375 -604.6875 -865.625 C -598.4375 -881.25 -595.3125 -882.8125 -587.5 -873.4375 C -579.6875 -864.0625 -562.5 -843.75 -540.625 -837.5 C -520.3125 -831.25 -509.375 -820.3125 -504.6875 -803.125 C -501.5625 -784.375 -493.75 -776.5625 -470.3125 -768.75 C -448.4375 -760.9375 -417.1875 -742.1875 -420.3125 -698.4375 C -403.125 -698.4375 -390.625 -693.75 -379.6875 -684.375 " transform="matrix(0.0025,0,0,0.0025,18,6)"/>
<path style="fill-rule:nonzero;fill:rgb(100%,63.137255%,63.137255%);fill-opacity:1;stroke-width:2.2;stroke-linecap:round;stroke-linejoin:round;stroke:rgb(0%,0%,0%);stroke-opacity:1;stroke-miterlimit:4;" d="M -248.4375 -748.4375 C -248.4375 -725 -237.5 -709.375 -223.4375 -698.4375 C -207.8125 -685.9375 -195.3125 -676.5625 -198.4375 -660.9375 C -201.5625 -645.3125 -195.3125 -634.375 -181.25 -625 C -168.75 -615.625 -157.8125 -603.125 -162.5 -582.8125 C -165.625 -562.5 -162.5 -551.5625 -154.6875 -535.9375 C -146.875 -520.3125 -132.8125 -509.375 -139.0625 -484.375 C -145.3125 -460.9375 -142.1875 -429.6875 -134.375 -412.5 C -126.5625 -398.4375 -134.375 -385.9375 -148.4375 -359.375 C -162.5 -332.8125 -170.3125 -323.4375 -198.4375 -312.5 C -229.6875 -304.6875 -231.25 -285.9375 -231.25 -254.6875 C -231.25 -223.4375 -251.5625 -206.25 -290.625 -212.5 C -331.25 -179.6875 -356.25 -218.75 -365.625 -268.75 C -376.5625 -317.1875 -378.125 -370.3125 -437.5 -412.5 C -495.3125 -456.25 -471.875 -531.25 -423.4375 -560.9375 C -373.4375 -590.625 -379.6875 -676.5625 -385.9375 -729.6875 C -390.625 -781.25 -356.25 -812.5 -329.6875 -840.625 C -293.75 -826.5625 -248.4375 -771.875 -248.4375 -748.4375 Z M -248.4375 -748.4375 " transform="matrix(0.0025,0,0,0.0025,18,6)"/>
<path style="fill-rule:nonzero;fill:rgb(94.509804%,69.803922%,86.27451%);fill-opacity:1;stroke-width:2.2;stroke-linecap:round;stroke-linejoin:round;stroke:rgb(0%,0%,0%);stroke-opacity:1;stroke-miterlimit:4;" d="M -332.8125 -407.8125 C -343.75 -434.375 -356.25 -459.375 -326.5625 -515.625 C -296.875 -573.4375 -315.625 -615.625 -325 -645.3125 C -334.375 -673.4375 -335.9375 -698.4375 -325 -710.9375 C -312.5 -721.875 -307.8125 -729.6875 -306.25 -748.4375 C -306.25 -765.625 -290.625 -759.375 -289.0625 -751.5625 C -287.5 -742.1875 -284.375 -726.5625 -301.5625 -700 C -317.1875 -671.875 -256.25 -604.6875 -284.375 -531.25 C -303.125 -479.6875 -278.125 -415.625 -268.75 -370.3125 C -257.8125 -325 -251.5625 -217.1875 -318.75 -201.5625 C -273.4375 -223.4375 -315.625 -365.625 -332.8125 -407.8125 Z M -332.8125 -407.8125 " transform="matrix(0.0025,0,0,0.0025,18,6)"/>
<path style="fill:none;stroke-width:2.2;stroke-linecap:round;stroke-linejoin:round;stroke:rgb(0%,0%,0%);stroke-opacity:1;stroke-miterlimit:4;" d="M -629.6875 -415.625 C -618.75 -414.0625 -612.5 -420.3125 -609.375 -426.5625 C -606.25 -434.375 -604.6875 -437.5 -595.3125 -439.0625 C -584.375 -439.0625 -568.75 -442.1875 -565.625 -450 C -562.5 -457.8125 -550 -451.5625 -539.0625 -470.3125 C -529.6875 -492.1875 -521.875 -515.625 -495.3125 -525 M -420.3125 -698.4375 C -431.25 -698.4375 -459.375 -698.4375 -471.875 -671.875 M -554.6875 -823.4375 C -531.25 -815.625 -540.625 -800 -529.6875 -790.625 C -506.25 -773.4375 -526.5625 -756.25 -509.375 -751.5625 C -490.625 -745.3125 -492.1875 -743.75 -495.3125 -723.4375 C -501.5625 -700 -479.6875 -698.4375 -487.5 -684.375 M -592.1875 -604.6875 C -578.125 -618.75 -543.75 -628.125 -534.375 -642.1875 M -593.75 -673.4375 C -571.875 -675 -543.75 -667.1875 -540.625 -675 M -595.3125 -696.875 C -585.9375 -696.875 -565.625 -704.6875 -560.9375 -718.75 M -610.9375 -729.6875 C -598.4375 -729.6875 -584.375 -729.6875 -568.75 -740.625 M -626.5625 -768.75 C -618.75 -775 -601.5625 -767.1875 -587.5 -776.5625 M -612.5 -815.625 C -604.6875 -815.625 -590.625 -818.75 -590.625 -809.375 " transform="matrix(0.0025,0,0,0.0025,18,6)"/>
<path style="fill-rule:nonzero;fill:rgb(61.960784%,32.941176%,3.921569%);fill-opacity:1;stroke-width:2.2;stroke-linecap:round;stroke-linejoin:round;stroke:rgb(0%,0%,0%);stroke-opacity:1;stroke-miterlimit:4;" d="M -54.6875 -232.8125 C -54.6875 -232.8125 -125 -292.1875 -182.8125 -331.25 C -240.625 -371.875 -310.9375 -420.3125 -310.9375 -431.25 C -300 -439.0625 -240.625 -401.5625 -159.375 -351.5625 C -78.125 -301.5625 -31.25 -253.125 -31.25 -253.125 Z M -59.375 -193.75 C -59.375 -193.75 -128.125 -234.375 -195.3125 -262.5 C -265.625 -292.1875 -370.3125 -292.1875 -381.25 -301.5625 C -381.25 -312.5 -259.375 -318.75 -171.875 -282.8125 C -82.8125 -242.1875 -37.5 -212.5 -37.5 -212.5 Z M -60.9375 -125 C -60.9375 -125 -134.375 -159.375 -206.25 -175 C -276.5625 -190.625 -376.5625 -184.375 -389.0625 -193.75 C -389.0625 -204.6875 -265.625 -223.4375 -171.875 -193.75 C -78.125 -165.625 -37.5 -145.3125 -37.5 -145.3125 Z M -65.625 -56.25 C -65.625 -56.25 -120.3125 -93.75 -195.3125 -101.5625 C -265.625 -109.375 -357.8125 -56.25 -370.3125 -65.625 C -370.3125 -76.5625 -289.0625 -134.375 -187.5 -125 C -89.0625 -115.625 -42.1875 -76.5625 -42.1875 -76.5625 Z M -42.1875 -273.4375 C -42.1875 -273.4375 -112.5 -339.0625 -112.5 -382.8125 C -112.5 -421.875 -70.3125 -481.25 -51.5625 -481.25 C -60.9375 -462.5 -93.75 -421.875 -93.75 -382.8125 C -93.75 -343.75 -18.75 -293.75 -18.75 -293.75 Z M -42.1875 -273.4375 " transform="matrix(0.0025,0,0,0.0025,19,5)"/>
<path style="fill-rule:nonzero;fill:rgb(61.960784%,32.941176%,3.921569%);fill-opacity:1;stroke-width:2.2;stroke-linecap:round;stroke-linejoin:round;stroke:rgb(0%,0%,0%);stroke-opacity:1;stroke-miterlimit:4;" d="M -42.1875 -273.4375 C -42.1875 -273.4375 -28.125 -339.0625 -28.125 -382.8125 C -28.125 -442.1875 -70.3125 -495.3125 -65.625 -510.9375 C -51.5625 -495.3125 -9.375 -451.5625 -9.375 -382.8125 C -9.375 -323.4375 -18.75 -293.75 -18.75 -293.75 Z M -42.1875 -273.4375 " transform="matrix(0.0025,0,0,0.0025,19,5)"/>
<path style="fill-rule:nonzero;fill:rgb(61.960784%,32.941176%,3.921569%);fill-opacity:1;stroke-width:12;stroke-linecap:round;stroke-linejoin:round;stroke:rgb(98.823529%,81.960784%,8.627451%);stroke-opacity:1;stroke-miterlimit:4;" d="M -25 -295.3125 C -25 -314.0625 -31.25 -331.25 -43.75 -343.75 C -59.375 -362.5 -84.375 -368.75 -109.375 -365.625 C -139.0625 -359.375 -162.5 -342.1875 -178.125 -314.0625 C -198.4375 -276.5625 -200 -237.5 -201.5625 -198.4375 C -201.5625 -62.5 -195.3125 -7.8125 -192.1875 125 C -190.625 164.0625 -184.375 243.75 -201.5625 306.25 C -209.375 334.375 -217.1875 359.375 -229.6875 384.375 C -220.3125 351.5625 -217.1875 334.375 -212.5 309.375 C -201.5625 245.3125 -204.6875 184.375 -206.25 123.4375 C -210.9375 1.5625 -218.75 -62.5 -221.875 -210.9375 C -223.4375 -256.25 -218.75 -290.625 -198.4375 -326.5625 C -176.5625 -362.5 -137.5 -390.625 -95.3125 -390.625 C -76.5625 -390.625 -62.5 -387.5 -46.875 -378.125 C -17.1875 -362.5 -3.125 -329.6875 -3.125 -295.3125 Z M -25 -295.3125 " transform="matrix(0.0025,0,0,0.0025,19,5)"/>
<path style=" stroke:none;fill-rule:nonzero;fill:rgb(61.960784%,32.941176%,3.921569%);fill-opacity:1;" d="M 18.9375 4.261719 C 18.9375 4.214844 18.921875 4.171875 18.890625 4.140625 C 18.851562 4.09375 18.789062 4.078125 18.726562 4.085938 C 18.652344 4.101562 18.59375 4.144531 18.554688 4.214844 C 18.503906 4.308594 18.5 4.40625 18.496094 4.503906 C 18.496094 4.84375 18.511719 4.980469 18.519531 5.3125 C 18.523438 5.410156 18.539062 5.609375 18.496094 5.765625 C 18.476562 5.835938 18.457031 5.898438 18.425781 5.960938 C 18.449219 5.878906 18.457031 5.835938 18.46875 5.773438 C 18.496094 5.613281 18.488281 5.460938 18.484375 5.308594 C 18.472656 5.003906 18.453125 4.84375 18.445312 4.472656 C 18.441406 4.359375 18.453125 4.273438 18.503906 4.183594 C 18.558594 4.09375 18.65625 4.023438 18.761719 4.023438 C 18.808594 4.023438 18.84375 4.03125 18.882812 4.054688 C 18.957031 4.09375 18.992188 4.175781 18.992188 4.261719 Z M 18.9375 4.261719 "/>
<path style="fill-rule:nonzero;fill:rgb(61.960784%,32.941176%,3.921569%);fill-opacity:1;stroke-width:2.2;stroke-linecap:round;stroke-linejoin:round;stroke:rgb(0%,0%,0%);stroke-opacity:1;stroke-miterlimit:4;" d="M -18.75 187.5 C -18.75 187.5 -46.875 237.5 -68.75 273.4375 C -89.0625 309.375 -106.25 317.1875 -121.875 306.25 C -137.5 295.3125 -123.4375 265.625 -112.5 251.5625 C -100 237.5 -32.8125 173.4375 -32.8125 173.4375 Z M -18.75 187.5 " transform="matrix(0.0025,0,0,0.0025,19,5)"/>
<path style="fill-rule:nonzero;fill:rgb(61.960784%,32.941176%,3.921569%);fill-opacity:1;stroke-width:2.2;stroke-linecap:round;stroke-linejoin:round;stroke:rgb(0%,0%,0%);stroke-opacity:1;stroke-miterlimit:4;" d="M -12.5 190.625 C -12.5 190.625 -23.4375 248.4375 -31.25 289.0625 C -40.625 329.6875 -54.6875 343.75 -70.3125 339.0625 C -89.0625 334.375 -85.9375 301.5625 -79.6875 284.375 C -71.875 268.75 -29.6875 181.25 -29.6875 181.25 Z M -12.5 190.625 " transform="matrix(0.0025,0,0,0.0025,19,5)"/>
<path style="fill-rule:nonzero;fill:rgb(61.960784%,32.941176%,3.921569%);fill-opacity:1;stroke-width:2.2;stroke-linecap:round;stroke-linejoin:round;stroke:rgb(0%,0%,0%);stroke-opacity:1;stroke-miterlimit:4;" d="M 0 193.75 L 0 293.75 C 0 334.375 -9.375 351.5625 -29.6875 351.5625 C -46.875 350 -51.5625 318.75 -46.875 298.4375 C -43.75 281.25 -18.75 187.5 -18.75 187.5 Z M 0 193.75 " transform="matrix(0.0025,0,0,0.0025,19,5)"/>
<path style="fill-rule:nonzero;fill:rgb(61.960784%,32.941176%,3.921569%);fill-opacity:1;stroke-width:2.2;stroke-linecap:round;stroke-linejoin:round;stroke:rgb(0%,0%,0%);stroke-opacity:1;stroke-miterlimit:4;" d="M -54.6875 -232.8125 C -54.6875 -232.8125 -125 -292.1875 -182.8125 -331.25 C -240.625 -371.875 -310.9375 -420.3125 -310.9375 -431.25 C -300 -439.0625 -240.625 -401.5625 -159.375 -351.5625 C -78.125 -301.5625 -31.25 -253.125 -31.25 -253.125 Z M -59.375 -193.75 C -59.375 -193.75 -128.125 -234.375 -195.3125 -262.5 C -265.625 -292.1875 -370.3125 -292.1875 -381.25 -301.5625 C -381.25 -312.5 -259.375 -318.75 -171.875 -282.8125 C -82.8125 -242.1875 -37.5 -212.5 -37.5 -212.5 Z M -60.9375 -125 C -60.9375 -125 -134.375 -159.375 -206.25 -175 C -276.5625 -190.625 -376.5625 -184.375 -389.0625 -193.75 C -389.0625 -204.6875 -265.625 -223.4375 -171.875 -193.75 C -78.125 -165.625 -37.5 -145.3125 -37.5 -145.3125 Z M -65.625 -56.25 C -65.625 -56.25 -120.3125 -93.75 -195.3125 -101.5625 C -265.625 -109.375 -357.8125 -56.25 -370.3125 -65.625 C -370.3125 -76.5625 -289.0625 -134.375 -187.5 -125 C -89.0625 -115.625 -42.1875 -76.5625 -42.1875 -76.5625 Z M -42.1875 -273.4375 C -42.1875 -273.4375 -112.5 -339.0625 -112.5 -382.8125 C -112.5 -421.875 -70.3125 -481.25 -51.5625 -481.25 C -60.9375 -462.5 -93.75 -421.875 -93.75 -382.8125 C -93.75 -343.75 -18.75 -293.75 -18.75 -293.75 Z M -42.1875 -273.4375 " transform="matrix(-0.0025,0,0,0.0025,19,5)"/>
<path style="fill-rule:nonzero;fill:rgb(61.960784%,32.941176%,3.921569%);fill-opacity:1;stroke-width:2.2;stroke-linecap:round;stroke-linejoin:round;stroke:rgb(0%,0%,0%);stroke-opacity:1;stroke-miterlimit:4;" d="M -42.1875 -273.4375 C -42.1875 -273.4375 -28.125 -339.0625 -28.125 -382.8125 C -28.125 -442.1875 -70.3125 -495.3125 -65.625 -510.9375 C -51.5625 -495.3125 -9.375 -451.5625 -9.375 -382.8125 C -9.375 -323.4375 -18.75 -293.75 -18.75 -293.75 Z M -42.1875 -273.4375 " transform="matrix(-0.0025,0,0,0.0025,19,5)"/>
<path style="fill-rule:nonzero;fill:rgb(61.960784%,32.941176%,3.921569%);fill-opacity:1;stroke-width:12;stroke-linecap:round;stroke-linejoin:round;stroke:rgb(98.823529%,81.960784%,8.627451%);stroke-opacity:1;stroke-miterlimit:4;" d="M -25 -295.3125 C -25 -314.0625 -31.25 -331.25 -43.75 -343.75 C -59.375 -362.5 -84.375 -368.75 -109.375 -365.625 C -139.0625 -359.375 -162.5 -342.1875 -178.125 -314.0625 C -198.4375 -276.5625 -200 -237.5 -201.5625 -198.4375 C -201.5625 -62.5 -195.3125 -7.8125 -192.1875 125 C -190.625 164.0625 -184.375 243.75 -201.5625 306.25 C -209.375 334.375 -217.1875 359.375 -229.6875 384.375 C -220.3125 351.5625 -217.1875 334.375 -212.5 309.375 C -201.5625 245.3125 -204.6875 184.375 -206.25 123.4375 C -210.9375 1.5625 -218.75 -62.5 -221.875 -210.9375 C -223.4375 -256.25 -218.75 -290.625 -198.4375 -326.5625 C -176.5625 -362.5 -137.5 -390.625 -95.3125 -390.625 C -76.5625 -390.625 -62.5 -387.5 -46.875 -378.125 C -17.1875 -362.5 -3.125 -329.6875 -3.125 -295.3125 Z M -25 -295.3125 " transform="matrix(-0.0025,0,0,0.0025,19,5)"/>
<path style=" stroke:none;fill-rule:nonzero;fill:rgb(61.960784%,32.941176%,3.921569%);fill-opacity:1;" d="M 19.0625 4.261719 C 19.0625 4.214844 19.078125 4.171875 19.109375 4.140625 C 19.148438 4.09375 19.210938 4.078125 19.273438 4.085938 C 19.347656 4.101562 19.40625 4.144531 19.445312 4.214844 C 19.496094 4.308594 19.5 4.40625 19.503906 4.503906 C 19.503906 4.84375 19.488281 4.980469 19.480469 5.3125 C 19.476562 5.410156 19.460938 5.609375 19.503906 5.765625 C 19.523438 5.835938 19.542969 5.898438 19.574219 5.960938 C 19.550781 5.878906 19.542969 5.835938 19.53125 5.773438 C 19.503906 5.613281 19.511719 5.460938 19.515625 5.308594 C 19.527344 5.003906 19.546875 4.84375 19.554688 4.472656 C 19.558594 4.359375 19.546875 4.273438 19.496094 4.183594 C 19.441406 4.09375 19.34375 4.023438 19.238281 4.023438 C 19.191406 4.023438 19.15625 4.03125 19.117188 4.054688 C 19.042969 4.09375 19.007812 4.175781 19.007812 4.261719 Z M 19.0625 4.261719 "/>
<path style="fill-rule:nonzero;fill:rgb(61.960784%,32.941176%,3.921569%);fill-opacity:1;stroke-width:2.2;stroke-linecap:round;stroke-linejoin:round;stroke:rgb(0%,0%,0%);stroke-opacity:1;stroke-miterlimit:4;" d="M -18.75 187.5 C -18.75 187.5 -46.875 237.5 -68.75 273.4375 C -89.0625 309.375 -106.25 317.1875 -121.875 306.25 C -137.5 295.3125 -123.4375 265.625 -112.5 251.5625 C -100 237.5 -32.8125 173.4375 -32.8125 173.4375 Z M -18.75 187.5 " transform="matrix(-0.0025,0,0,0.0025,19,5)"/>
<path style="fill-rule:nonzero;fill:rgb(61.960784%,32.941176%,3.921569%);fill-opacity:1;stroke-width:2.2;stroke-linecap:round;stroke-linejoin:round;stroke:rgb(0%,0%,0%);stroke-opacity:1;stroke-miterlimit:4;" d="M -12.5 190.625 C -12.5 190.625 -23.4375 248.4375 -31.25 289.0625 C -40.625 329.6875 -54.6875 343.75 -70.3125 339.0625 C -89.0625 334.375 -85.9375 301.5625 -79.6875 284.375 C -71.875 268.75 -29.6875 181.25 -29.6875 181.25 Z M -12.5 190.625 " transform="matrix(-0.0025,0,0,0.0025,19,5)"/>
<path style="fill-rule:nonzero;fill:rgb(61.960784%,32.941176%,3.921569%);fill-opacity:1;stroke-width:2.2;stroke-linecap:round;stroke-linejoin:round;stroke:rgb(0%,0%,0%);stroke-opacity:1;stroke-miterlimit:4;" d="M 0 193.75 L 0 293.75 C 0 334.375 -9.375 351.5625 -29.6875 351.5625 C -46.875 350 -51.5625 318.75 -46.875 298.4375 C -43.75 281.25 -18.75 187.5 -18.75 187.5 Z M 0 193.75 " transform="matrix(-0.0025,0,0,0.0025,19,5)"/>
<path style="fill-rule:nonzero;fill:rgb(61.960784%,32.941176%,3.921569%);fill-opacity:1;stroke-width:2.2;stroke-linecap:round;stroke-linejoin:round;stroke:rgb(0%,0%,0%);stroke-opacity:1;stroke-miterlimit:4;" d="M 0 192.1875 C -53.125 190.625 -57.8125 171.875 -57.8125 171.875 C -57.8125 171.875 -65.625 148.4375 -65.625 132.8125 C -67.1875 131.25 -81.25 101.5625 -76.5625 87.5 C -81.25 76.5625 -93.75 46.875 -82.8125 42.1875 C -87.5 28.125 -95.3125 12.5 -96.875 -3.125 C -101.5625 -14.0625 -110.9375 -37.5 -103.125 -45.3125 C -103.125 -45.3125 -121.875 -85.9375 -112.5 -95.3125 C -112.5 -95.3125 -121.875 -134.375 -112.5 -145.3125 C -112.5 -145.3125 -112.5 -184.375 -103.125 -195.3125 C -103.125 -195.3125 -103.125 -234.375 -93.75 -243.75 C -93.75 -242.1875 -65.625 -298.4375 0 -298.4375 L -1.5625 -214.0625 L 0 -214.0625 Z M 0 192.1875 " transform="matrix(0.0025,0,0,0.0025,19,5)"/>
<path style="fill:none;stroke-width:2.2;stroke-linecap:round;stroke-linejoin:round;stroke:rgb(0%,0%,0%);stroke-opacity:1;stroke-miterlimit:4;" d="M 0 -26.5625 C -84.375 -26.5625 -103.125 -45.3125 -103.125 -45.3125 M 0 -76.5625 C -84.375 -76.5625 -112.5 -95.3125 -112.5 -95.3125 M 0 -125 C -84.375 -126.5625 -112.5 -145.3125 -112.5 -145.3125 M 0 -175 C -84.375 -176.5625 -103.125 -195.3125 -103.125 -195.3125 M -1.5625 -214.0625 C 0 -214.0625 -65.625 -214.0625 -75 -223.4375 L -93.75 -243.75 M 0 151.5625 C -25 151.5625 -53.125 148.4375 -65.625 132.8125 M 0 112.5 C -46.875 112.5 -75 93.75 -75 93.75 C -75 93.75 -76.5625 90.625 -76.5625 87.5 M 0 62.5 C -62.5 62.5 -79.6875 48.4375 -82.8125 42.1875 M 0 23.4375 C -84.375 23.4375 -93.75 3.125 -93.75 3.125 L -96.875 -3.125 " transform="matrix(0.0025,0,0,0.0025,19,5)"/>
<path style="fill-rule:nonzero;fill:rgb(61.960784%,32.941176%,3.921569%);fill-opacity:1;stroke-width:2.2;stroke-linecap:round;stroke-linejoin:round;stroke:rgb(0%,0%,0%);stroke-opacity:1;stroke-miterlimit:4;" d="M 0 192.1875 C -53.125 190.625 -57.8125 171.875 -57.8125 171.875 C -57.8125 171.875 -65.625 148.4375 -65.625 132.8125 C -67.1875 131.25 -81.25 101.5625 -76.5625 87.5 C -81.25 76.5625 -93.75 46.875 -82.8125 42.1875 C -87.5 28.125 -95.3125 12.5 -96.875 -3.125 C -101.5625 -14.0625 -110.9375 -37.5 -103.125 -45.3125 C -103.125 -45.3125 -121.875 -85.9375 -112.5 -95.3125 C -112.5 -95.3125 -121.875 -134.375 -112.5 -145.3125 C -112.5 -145.3125 -112.5 -184.375 -103.125 -195.3125 C -103.125 -195.3125 -103.125 -234.375 -93.75 -243.75 C -93.75 -242.1875 -65.625 -298.4375 0 -298.4375 L -1.5625 -214.0625 L 0 -214.0625 Z M 0 192.1875 " transform="matrix(-0.0025,0,0,0.0025,19,5)"/>
<path style="fill:none;stroke-width:2.2;stroke-linecap:round;stroke-linejoin:round;stroke:rgb(0%,0%,0%);stroke-opacity:1;stroke-miterlimit:4;" d="M 0 -26.5625 C -84.375 -26.5625 -103.125 -45.3125 -103.125 -45.3125 M 0 -76.5625 C -84.375 -76.5625 -112.5 -95.3125 -112.5 -95.3125 M 0 -125 C -84.375 -126.5625 -112.5 -145.3125 -112.5 -145.3125 M 0 -175 C -84.375 -176.5625 -103.125 -195.3125 -103.125 -195.3125 M -1.5625 -214.0625 C 0 -214.0625 -65.625 -214.0625 -75 -223.4375 L -93.75 -243.75 M 0 151.5625 C -25 151.5625 -53.125 148.4375 -65.625 132.8125 M 0 112.5 C -46.875 112.5 -75 93.75 -75 93.75 C -75 93.75 -76.5625 90.625 -76.5625 87.5 M 0 62.5 C -62.5 62.5 -79.6875 48.4375 -82.8125 42.1875 M 0 23.4375 C -84.375 23.4375 -93.75 3.125 -93.75 3.125 L -96.875 -3.125 " transform="matrix(-0.0025,0,0,0.0025,19,5)"/>
<path style="fill-rule:nonzero;fill:rgb(0%,61.960784%,28.627451%);fill-opacity:1;stroke-width:2.2;stroke-linecap:round;stroke-linejoin:round;stroke:rgb(0%,0%,0%);stroke-opacity:1;stroke-miterlimit:4;" d="M 0 712.5 C -43.75 751.5625 -126.5625 726.5625 -151.5625 707.8125 C -179.6875 717.1875 -251.5625 689.0625 -270.3125 657.8125 C -321.875 665.625 -340.625 590.625 -331.25 571.875 C -317.1875 543.75 -342.1875 526.5625 -323.4375 506.25 C -298.4375 482.8125 -337.5 459.375 -314.0625 443.75 C -290.625 426.5625 -320.3125 398.4375 -295.3125 381.25 C -270.3125 362.5 -309.375 335.9375 -282.8125 323.4375 C -256.25 309.375 -285.9375 276.5625 -264.0625 262.5 C -242.1875 250 -276.5625 217.1875 -246.875 201.5625 C -218.75 187.5 -243.75 160.9375 -220.3125 150 C -195.3125 137.5 -218.75 109.375 -195.3125 101.5625 C -170.3125 90.625 -189.0625 60.9375 -167.1875 53.125 C -148.4375 45.3125 -159.375 28.125 -148.4375 12.5 L 0 12.5 " transform="matrix(0.0025,0,0,0.0025,18,6)"/>
<path style="fill:none;stroke-width:2.2;stroke-linecap:round;stroke-linejoin:round;stroke:rgb(0%,0%,0%);stroke-opacity:1;stroke-miterlimit:4;" d="M -98.4375 18.75 C -118.75 37.5 -95.3125 53.125 -115.625 76.5625 C -135.9375 101.5625 -117.1875 115.625 -134.375 137.5 C -151.5625 159.375 -126.5625 170.3125 -145.3125 195.3125 C -164.0625 218.75 -140.625 234.375 -162.5 254.6875 C -181.25 275 -157.8125 293.75 -179.6875 315.625 C -198.4375 337.5 -175 353.125 -195.3125 373.4375 C -215.625 393.75 -192.1875 415.625 -212.5 435.9375 C -231.25 456.25 -207.8125 482.8125 -231.25 506.25 C -253.125 531.25 -226.5625 550 -245.3125 568.75 C -264.0625 587.5 -246.875 606.25 -259.375 618.75 C -273.4375 631.25 -275 650 -270.3125 657.8125 M -59.375 25 C -78.125 50 -50 60.9375 -67.1875 81.25 C -84.375 101.5625 -59.375 109.375 -73.4375 132.8125 C -85.9375 156.25 -62.5 162.5 -79.6875 187.5 C -96.875 210.9375 -70.3125 229.6875 -89.0625 254.6875 C -107.8125 278.125 -79.6875 290.625 -96.875 315.625 C -112.5 340.625 -89.0625 353.125 -104.6875 370.3125 C -118.75 390.625 -93.75 407.8125 -112.5 431.25 C -129.6875 453.125 -104.6875 470.3125 -118.75 490.625 C -134.375 510.9375 -112.5 532.8125 -126.5625 550 C -139.0625 565.625 -117.1875 590.625 -135.9375 612.5 C -154.6875 634.375 -131.25 650 -143.75 665.625 C -154.6875 679.6875 -162.5 701.5625 -151.5625 707.8125 " transform="matrix(0.0025,0,0,0.0025,18,6)"/>
<path style="fill-rule:nonzero;fill:rgb(0%,61.960784%,28.627451%);fill-opacity:1;stroke-width:2.2;stroke-linecap:round;stroke-linejoin:round;stroke:rgb(0%,0%,0%);stroke-opacity:1;stroke-miterlimit:4;" d="M 0 712.5 C -43.75 751.5625 -126.5625 726.5625 -151.5625 707.8125 C -179.6875 717.1875 -251.5625 689.0625 -270.3125 657.8125 C -321.875 665.625 -340.625 590.625 -331.25 571.875 C -317.1875 543.75 -342.1875 526.5625 -323.4375 506.25 C -298.4375 482.8125 -337.5 459.375 -314.0625 443.75 C -290.625 426.5625 -320.3125 398.4375 -295.3125 381.25 C -270.3125 362.5 -309.375 335.9375 -282.8125 323.4375 C -256.25 309.375 -285.9375 276.5625 -264.0625 262.5 C -242.1875 250 -276.5625 217.1875 -246.875 201.5625 C -218.75 187.5 -243.75 160.9375 -220.3125 150 C -195.3125 137.5 -218.75 109.375 -195.3125 101.5625 C -170.3125 90.625 -189.0625 60.9375 -167.1875 53.125 C -148.4375 45.3125 -159.375 28.125 -148.4375 12.5 L 0 12.5 " transform="matrix(-0.0025,0,0,0.0025,18,6)"/>
<path style="fill:none;stroke-width:2.2;stroke-linecap:round;stroke-linejoin:round;stroke:rgb(0%,0%,0%);stroke-opacity:1;stroke-miterlimit:4;" d="M -98.4375 18.75 C -118.75 37.5 -95.3125 53.125 -115.625 76.5625 C -135.9375 101.5625 -117.1875 115.625 -134.375 137.5 C -151.5625 159.375 -126.5625 170.3125 -145.3125 195.3125 C -164.0625 218.75 -140.625 234.375 -162.5 254.6875 C -181.25 275 -157.8125 293.75 -179.6875 315.625 C -198.4375 337.5 -175 353.125 -195.3125 373.4375 C -215.625 393.75 -192.1875 415.625 -212.5 435.9375 C -231.25 456.25 -207.8125 482.8125 -231.25 506.25 C -253.125 531.25 -226.5625 550 -245.3125 568.75 C -264.0625 587.5 -246.875 606.25 -259.375 618.75 C -273.4375 631.25 -275 650 -270.3125 657.8125 M -59.375 25 C -78.125 50 -50 60.9375 -67.1875 81.25 C -84.375 101.5625 -59.375 109.375 -73.4375 132.8125 C -85.9375 156.25 -62.5 162.5 -79.6875 187.5 C -96.875 210.9375 -70.3125 229.6875 -89.0625 254.6875 C -107.8125 278.125 -79.6875 290.625 -96.875 315.625 C -112.5 340.625 -89.0625 353.125 -104.6875 370.3125 C -118.75 390.625 -93.75 407.8125 -112.5 431.25 C -129.6875 453.125 -104.6875 470.3125 -118.75 490.625 C -134.375 510.9375 -112.5 532.8125 -126.5625 550 C -139.0625 565.625 -117.1875 590.625 -135.9375 612.5 C -154.6875 634.375 -131.25 650 -143.75 665.625 C -154.6875 679.6875 -162.5 701.5625 -151.5625 707.8125 " transform="matrix(-0.0025,0,0,0.0025,18,6)"/>
<path style="fill:none;stroke-width:2.2;stroke-linecap:round;stroke-linejoin:round;stroke:rgb(0%,61.960784%,28.627451%);stroke-opacity:1;stroke-miterlimit:4;" d="M 0 712.5 L 0 12.5 " transform="matrix(0.0025,0,0,0.0025,18,6)"/>
<path style="fill:none;stroke-width:2.2;stroke-linecap:round;stroke-linejoin:round;stroke:rgb(0%,0%,0%);stroke-opacity:1;stroke-miterlimit:4;" d="M 0 48.4375 C -9.375 87.5 12.5 120.3125 0 154.6875 C -12.5 185.9375 9.375 198.4375 1.5625 225 C -6.25 251.5625 10.9375 270.3125 0 298.4375 C -10.9375 326.5625 15.625 348.4375 0 384.375 C -15.625 420.3125 9.375 429.6875 0 467.1875 C -10.9375 509.375 18.75 531.25 0 560.9375 C -18.75 590.625 17.1875 598.4375 1.5625 631.25 C -12.5 665.625 10.9375 678.125 0 712.5 " transform="matrix(0.0025,0,0,0.0025,18,6)"/>
<path style="fill-rule:nonzero;fill:rgb(98.823529%,81.960784%,8.627451%);fill-opacity:1;stroke-width:2.2;stroke-linecap:round;stroke-linejoin:round;stroke:rgb(0%,0%,0%);stroke-opacity:1;stroke-miterlimit:4;" d="M 15.625 173.4375 C 9.375 184.375 29.6875 210.9375 18.75 231.25 C 6.25 250 25 279.6875 12.5 304.6875 C 1.5625 328.125 31.25 357.8125 20.3125 385.9375 C 6.25 414.0625 26.5625 448.4375 20.3125 475 C 15.625 501.5625 32.8125 551.5625 20.3125 568.75 C 6.25 587.5 32.8125 593.75 18.75 639.0625 C 3.125 684.375 -6.25 645.3125 1.5625 631.25 C 20.3125 601.5625 -18.75 590.625 0 560.9375 C 18.75 531.25 -10.9375 509.375 0 467.1875 C 9.375 429.6875 -15.625 420.3125 0 384.375 C 15.625 348.4375 -10.9375 326.5625 0 298.4375 C 10.9375 270.3125 -6.25 251.5625 1.5625 225 C 9.375 198.4375 -12.5 185.9375 0 154.6875 C 9.375 121.875 20.3125 162.5 15.625 173.4375 Z M -68.75 206.25 C -76.5625 218.75 -56.25 240.625 -73.4375 264.0625 C -85.9375 279.6875 -65.625 298.4375 -82.8125 321.875 C -93.75 337.5 -71.875 357.8125 -87.5 381.25 C -96.875 393.75 -79.6875 418.75 -92.1875 437.5 C -104.6875 457.8125 -85.9375 473.4375 -106.25 500 C -118.75 514.0625 -98.4375 548.4375 -110.9375 559.375 C -123.4375 570.3125 -112.5 614.0625 -120.3125 620.3125 C -129.6875 626.5625 -120.3125 657.8125 -143.75 665.625 C -131.25 650 -154.6875 634.375 -135.9375 612.5 C -117.1875 590.625 -139.0625 565.625 -126.5625 550 C -112.5 532.8125 -134.375 510.9375 -118.75 490.625 C -104.6875 470.3125 -129.6875 453.125 -112.5 431.25 C -93.75 407.8125 -118.75 390.625 -104.6875 370.3125 C -89.0625 353.125 -112.5 340.625 -96.875 315.625 C -79.6875 290.625 -107.8125 278.125 -89.0625 254.6875 C -70.3125 229.6875 -96.875 210.9375 -79.6875 187.5 C -62.5 162.5 -85.9375 156.25 -73.4375 132.8125 C -48.4375 142.1875 -60.9375 193.75 -68.75 206.25 Z M -118.75 140.625 C -129.6875 156.25 -115.625 176.5625 -129.6875 195.3125 C -145.3125 217.1875 -129.6875 243.75 -145.3125 259.375 C -159.375 276.5625 -140.625 307.8125 -159.375 320.3125 C -179.6875 334.375 -167.1875 373.4375 -181.25 385.9375 C -196.875 398.4375 -181.25 435.9375 -198.4375 454.6875 C -215.625 473.4375 -207.8125 512.5 -218.75 521.875 C -226.5625 531.25 -204.6875 550 -220.3125 562.5 C -237.5 576.5625 -237.5 601.5625 -259.375 618.75 C -246.875 606.25 -264.0625 587.5 -245.3125 568.75 C -226.5625 550 -253.125 531.25 -231.25 506.25 C -207.8125 482.8125 -231.25 456.25 -212.5 435.9375 C -192.1875 415.625 -215.625 393.75 -195.3125 373.4375 C -175 353.125 -198.4375 337.5 -179.6875 315.625 C -157.8125 293.75 -181.25 275 -162.5 254.6875 C -140.625 234.375 -164.0625 218.75 -145.3125 195.3125 C -126.5625 170.3125 -151.5625 159.375 -134.375 137.5 C -126.5625 126.5625 -126.5625 118.75 -126.5625 109.375 C -114.0625 79.6875 -114.0625 132.8125 -118.75 140.625 Z M -118.75 140.625 " transform="matrix(0.0025,0,0,0.0025,18,6)"/>
<path style="fill-rule:nonzero;fill:rgb(80.784314%,6.666667%,14.901961%);fill-opacity:1;stroke-width:2.2;stroke-linecap:round;stroke-linejoin:round;stroke:rgb(0%,0%,0%);stroke-opacity:1;stroke-miterlimit:4;" d="M -139.0625 34.375 C -139.0625 -175 -109.375 -248.4375 0 -248.4375 C 109.375 -248.4375 139.0625 -175 139.0625 34.375 Z M -139.0625 34.375 " transform="matrix(0.0025,0,0,0.0025,18,6)"/>
<path style="fill-rule:nonzero;fill:rgb(0%,0%,0%);fill-opacity:1;stroke-width:2.2;stroke-linecap:round;stroke-linejoin:round;stroke:rgb(0%,0%,0%);stroke-opacity:1;stroke-miterlimit:4;" d="M -139.0625 34.375 C -139.0625 -175 -109.375 -248.4375 0 -248.4375 C -50 -248.4375 -81.25 -209.375 -89.0625 -182.8125 C -98.4375 -156.25 -93.75 -159.375 -81.25 -168.75 C -70.3125 -179.6875 -76.5625 -156.25 -85.9375 -145.3125 C -95.3125 -132.8125 -104.6875 -98.4375 -90.625 -109.375 C -78.125 -120.3125 -68.75 -107.8125 -81.25 -87.5 C -95.3125 -68.75 -107.8125 -23.4375 -93.75 -39.0625 C -79.6875 -54.6875 -76.5625 -29.6875 -85.9375 -15.625 C -93.75 -3.125 -93.75 9.375 -85.9375 3.125 C -78.125 -3.125 -79.6875 23.4375 -85.9375 34.375 Z M 51.5625 31.25 C 51.5625 0 53.125 -73.4375 35.9375 -96.875 C 23.4375 -115.625 23.4375 -135.9375 37.5 -114.0625 C 51.5625 -92.1875 59.375 -103.125 48.4375 -125 C 37.5 -153.125 20.3125 -184.375 25 -190.625 C 29.6875 -196.875 32.8125 -193.75 43.75 -179.6875 C 53.125 -164.0625 54.6875 -185.9375 43.75 -201.5625 C 32.8125 -215.625 34.375 -218.75 56.25 -207.8125 C 98.4375 -190.625 118.75 -142.1875 118.75 23.4375 Z M 51.5625 31.25 " transform="matrix(0.0025,0,0,0.0025,18,6)"/>
<path style="fill-rule:nonzero;fill:rgb(80.784314%,6.666667%,14.901961%);fill-opacity:1;stroke-width:2.2;stroke-linecap:round;stroke-linejoin:round;stroke:rgb(0%,0%,0%);stroke-opacity:1;stroke-miterlimit:4;" d="M 0 65.625 C -43.75 65.625 -92.1875 57.8125 -123.4375 45.3125 C -162.5 29.6875 -164.0625 17.1875 -151.5625 1.5625 C -140.625 -10.9375 -120.3125 -4.6875 -101.5625 4.6875 C -81.25 12.5 -28.125 18.75 0 18.75 C 28.125 18.75 81.25 12.5 101.5625 4.6875 C 120.3125 -4.6875 140.625 -10.9375 151.5625 1.5625 C 164.0625 17.1875 162.5 29.6875 123.4375 45.3125 C 92.1875 57.8125 43.75 65.625 0 65.625 Z M 0 65.625 " transform="matrix(0.0025,0,0,0.0025,18,6)"/>
</g>
</svg>
