<?xml version="1.0" encoding="UTF-8"?>
<svg xmlns="http://www.w3.org/2000/svg" xmlns:xlink="http://www.w3.org/1999/xlink" width="24px" height="24px" viewBox="0 0 24 14" version="1.1">
<g id="surface1">
<rect x="0" y="0" width="24" height="14" style="fill:rgb(0%,41.568627%,30.588235%);fill-opacity:1;stroke:none;"/>
<path style=" stroke:none;fill-rule:nonzero;fill:rgb(100%,80.784314%,0%);fill-opacity:1;" d="M 0 2.800781 L 24 2.800781 L 24 5.601562 L 0 5.601562 Z M 0 8.398438 L 24 8.398438 L 24 11.199219 L 0 11.199219 Z M 0 8.398438 "/>
<path style=" stroke:none;fill-rule:nonzero;fill:rgb(82.352941%,6.27451%,20.392157%);fill-opacity:1;" d="M 0 0 L 8.898438 0 L 8.898438 8.398438 L 0 8.398438 Z M 0 0 "/>
<path style=" stroke:none;fill-rule:nonzero;fill:rgb(100%,100%,100%);fill-opacity:1;" d="M 4.449219 1.539062 L 3.578125 4.070312 L 4.988281 4.503906 "/>
<path style=" stroke:none;fill-rule:nonzero;fill:rgb(100%,100%,100%);fill-opacity:1;" d="M 4.449219 1.539062 L 5.320312 4.070312 L 3.910156 4.503906 "/>
<path style=" stroke:none;fill-rule:nonzero;fill:rgb(100%,100%,100%);fill-opacity:1;" d="M 7.128906 3.378906 L 4.3125 3.378906 L 4.3125 4.777344 "/>
<path style=" stroke:none;fill-rule:nonzero;fill:rgb(100%,100%,100%);fill-opacity:1;" d="M 7.128906 3.378906 L 4.851562 4.941406 L 3.976562 3.808594 "/>
<path style=" stroke:none;fill-rule:nonzero;fill:rgb(100%,100%,100%);fill-opacity:1;" d="M 6.105469 6.351562 L 5.234375 3.820312 L 3.824219 4.253906 "/>
<path style=" stroke:none;fill-rule:nonzero;fill:rgb(100%,100%,100%);fill-opacity:1;" d="M 6.105469 6.351562 L 3.828125 4.789062 L 4.699219 3.65625 "/>
<path style=" stroke:none;fill-rule:nonzero;fill:rgb(100%,100%,100%);fill-opacity:1;" d="M 2.792969 6.351562 L 5.074219 4.789062 L 4.203125 3.65625 "/>
<path style=" stroke:none;fill-rule:nonzero;fill:rgb(100%,100%,100%);fill-opacity:1;" d="M 2.792969 6.351562 L 3.664062 3.820312 L 5.074219 4.253906 "/>
<path style=" stroke:none;fill-rule:nonzero;fill:rgb(100%,100%,100%);fill-opacity:1;" d="M 1.769531 3.378906 L 4.050781 4.941406 L 4.921875 3.808594 "/>
<path style=" stroke:none;fill-rule:nonzero;fill:rgb(100%,100%,100%);fill-opacity:1;" d="M 1.769531 3.378906 L 4.585938 3.378906 L 4.585938 4.777344 "/>
</g>
</svg>
