<?xml version="1.0" encoding="utf-8"?>
<svg viewBox="0 0 24 12" width="24px" height="12px" xmlns="http://www.w3.org/2000/svg">
  <defs/>
  <path fill="#060" d="M 0 0 L 24 0 L 24 12 L 0 12 L 0 0 Z"/>
  <path fill="#fff" d="M 0 0 L 24 0 L 24 8.572 L 0 8.572 L 0 0 Z"/>
  <path fill="#c00" d="M 0 0 L 24 0 L 24 3.429 L 0 3.429 L 0 0 Z"/>
  <path d="M 11.52 5.841 C 11.603 5.698 11.809 5.699 11.891 5.842 C 11.909 5.872 11.918 5.907 11.92 5.942 L 11.92 6.799 L 12.081 6.799 L 12.081 5.942 C 12.086 5.777 12.267 5.679 12.408 5.766 C 12.438 5.785 12.462 5.81 12.48 5.841 C 12.603 5.471 12.279 5.107 11.898 5.186 C 11.602 5.247 11.425 5.553 11.52 5.841" style="fill: rgb(248, 195, 2);"/>
  <path d="M 11.635 5.617 C 11.779 5.587 11.926 5.653 12 5.781 C 12.074 5.653 12.221 5.587 12.365 5.617 C 12.327 5.336 11.998 5.202 11.774 5.376 C 11.698 5.435 11.648 5.521 11.635 5.617" fill="#fff"/>
  <path d="M 12.081 6.457 C 12.126 6.956 12.694 7.22 13.104 6.931 C 13.129 6.913 13.153 6.894 13.175 6.873 C 13.338 7.282 13.842 7.43 14.199 7.173 C 14.137 7.797 13.201 7.67 13.131 7.063 C 12.837 7.579 12.19 7.431 12.001 6.799 L 12.081 6.457 Z M 11.999 6.799 C 11.81 7.431 11.163 7.579 10.869 7.063 C 10.8 7.67 9.864 7.797 9.801 7.173 C 10.159 7.43 10.662 7.282 10.825 6.873 C 10.847 6.894 10.871 6.913 10.896 6.931 C 11.306 7.22 11.875 6.956 11.92 6.457 L 11.999 6.799 Z" style="fill: rgb(248, 195, 2);"/>
  <path id="b" d="M 11.294 7.565 C 11.164 7.847 10.903 7.896 10.675 7.668 C 10.675 7.668 10.766 7.603 10.865 7.585 C 10.846 7.507 10.884 7.399 10.937 7.34 C 10.993 7.378 11.071 7.455 11.091 7.543 C 11.228 7.526 11.294 7.565 11.294 7.565 L 11.294 7.565 Z" style="fill: rgb(248, 195, 2);"/>
  <path d="M 12.316 7.533 C 12.141 7.79 11.876 7.796 11.688 7.534 C 11.688 7.534 11.789 7.485 11.889 7.483 C 11.883 7.403 11.938 7.302 12 7.253 C 12.049 7.3 12.114 7.388 12.119 7.479 C 12.257 7.483 12.316 7.533 12.316 7.533 L 12.316 7.533 Z" style="fill: rgb(248, 195, 2); transform-origin: 12.009px 7.493px;"/>
  <path d="M 13.329 7.668 C 13.115 7.893 12.852 7.855 12.709 7.566 C 12.709 7.566 12.817 7.535 12.916 7.549 C 12.924 7.469 12.994 7.378 13.064 7.34 C 13.104 7.394 13.153 7.492 13.144 7.582 C 13.28 7.609 13.329 7.668 13.329 7.668 L 13.329 7.668 Z" style="fill: rgb(248, 195, 2); transform-origin: 13.033px 7.579px;"/>
  <path d="M 10.298 8.063 C 10.298 8.063 11.022 7.817 11.999 7.817 C 12.976 7.817 13.702 8.063 13.702 8.063 L 13.624 8.326 C 13.624 8.326 12.913 8.089 11.999 8.089 C 11.126 8.089 10.377 8.326 10.377 8.326 L 10.298 8.063 Z" style="fill: rgb(248, 195, 2);"/>
  <path id="c" d="M 12 3.674 L 12.259 4.471 L 11.581 3.978 L 12.419 3.978 L 11.741 4.471 L 12 3.674 Z" style="fill: rgb(248, 195, 2);"/>
  <path d="M 10.8 3.996 L 11.059 4.792 L 10.381 4.3 L 11.219 4.3 L 10.541 4.792 L 10.8 3.996 Z" style="fill: rgb(248, 195, 2);"/>
  <path d="M 9.922 4.874 L 10.18 5.671 L 9.503 5.178 L 10.34 5.178 L 9.663 5.671 L 9.922 4.874 Z" style="fill: rgb(248, 195, 2);"/>
  <path d="M 9.6 6.074 L 9.859 6.871 L 9.181 6.378 L 10.019 6.378 L 9.341 6.871 L 9.6 6.074 Z" style="fill: rgb(248, 195, 2);"/>
  <path d="M 13.2 3.996 L 12.941 4.792 L 13.619 4.3 L 12.781 4.3 L 13.459 4.792 L 13.2 3.996 Z" style="fill: rgb(248, 195, 2); transform-origin: 13.2px 4.394px;"/>
  <path d="M 14.079 4.874 L 13.82 5.671 L 14.497 5.178 L 13.66 5.178 L 14.337 5.671 L 14.079 4.874 Z" style="fill: rgb(248, 195, 2); transform-origin: 14.079px 5.272px;"/>
  <path d="M 14.4 6.074 L 14.141 6.871 L 14.819 6.378 L 13.981 6.378 L 14.659 6.871 L 14.4 6.074 Z" style="fill: rgb(248, 195, 2); transform-origin: 14.4px 6.472px;"/>
</svg>