<?xml version="1.0" encoding="UTF-8"?>
<svg xmlns="http://www.w3.org/2000/svg" xmlns:xlink="http://www.w3.org/1999/xlink" width="24px" height="24px" viewBox="0 0 24 12" version="1.1">
<g id="surface1">
<rect x="0" y="0" width="24" height="12" style="fill:rgb(0.392157%,12.941176%,41.176471%);fill-opacity:1;stroke:none;"/>
<path style=" stroke:none;fill-rule:nonzero;fill:rgb(100%,81.960784%,0%);fill-opacity:1;" d="M 4.390625 10.363281 C 4.152344 10.363281 6.640625 9.039062 8.722656 7.34375 C 11.449219 5.121094 17.328125 1.5625 19.054688 0.984375 C 19.234375 0.921875 18.683594 1.292969 18.613281 1.410156 C 16.769531 3.59375 18.242188 7.714844 20.546875 9.785156 C 21.238281 10.316406 21.203125 10.34375 22.488281 10.394531 L 22.488281 10.515625 Z M 4.242188 10.605469 C 4.242188 10.605469 4.066406 10.730469 4.066406 10.824219 C 4.066406 10.925781 4.261719 11.0625 4.261719 11.0625 L 22.113281 11.261719 L 22.441406 11.042969 L 21.980469 10.757812 Z M 4.242188 10.605469 "/>
<path style=" stroke:none;fill-rule:nonzero;fill:rgb(100%,100%,100%);fill-opacity:1;" d="M 5.171875 1.304688 L 4.574219 1.304688 L 4.574219 1.605469 Z M 5.171875 1.304688 "/>
<path style=" stroke:none;fill-rule:nonzero;fill:rgb(100%,100%,100%);fill-opacity:1;" d="M 5.171875 1.304688 L 4.6875 1.660156 L 4.511719 1.417969 Z M 5.171875 1.304688 "/>
<path style=" stroke:none;fill-rule:nonzero;fill:rgb(100%,100%,100%);fill-opacity:1;" d="M 4.945312 2.011719 L 4.757812 1.441406 L 4.472656 1.535156 Z M 4.945312 2.011719 "/>
<path style=" stroke:none;fill-rule:nonzero;fill:rgb(100%,100%,100%);fill-opacity:1;" d="M 4.945312 2.011719 L 4.457031 1.660156 L 4.632812 1.414062 Z M 4.945312 2.011719 "/>
<path style=" stroke:none;fill-rule:nonzero;fill:rgb(100%,100%,100%);fill-opacity:1;" d="M 4.203125 2.011719 L 4.6875 1.660156 L 4.511719 1.417969 Z M 4.203125 2.011719 "/>
<path style=" stroke:none;fill-rule:nonzero;fill:rgb(100%,100%,100%);fill-opacity:1;" d="M 4.203125 2.011719 L 4.386719 1.441406 L 4.671875 1.535156 Z M 4.203125 2.011719 "/>
<path style=" stroke:none;fill-rule:nonzero;fill:rgb(100%,100%,100%);fill-opacity:1;" d="M 3.972656 1.304688 L 4.457031 1.660156 L 4.632812 1.417969 Z M 3.972656 1.304688 "/>
<path style=" stroke:none;fill-rule:nonzero;fill:rgb(100%,100%,100%);fill-opacity:1;" d="M 3.972656 1.304688 L 4.574219 1.304688 L 4.574219 1.605469 Z M 3.972656 1.304688 "/>
<path style=" stroke:none;fill-rule:nonzero;fill:rgb(100%,100%,100%);fill-opacity:1;" d="M 4.574219 0.871094 L 4.386719 1.441406 L 4.671875 1.535156 Z M 4.574219 0.871094 "/>
<path style=" stroke:none;fill-rule:nonzero;fill:rgb(100%,100%,100%);fill-opacity:1;" d="M 4.574219 0.871094 L 4.757812 1.441406 L 4.472656 1.535156 Z M 4.574219 0.871094 "/>
<path style=" stroke:none;fill-rule:nonzero;fill:rgb(100%,100%,100%);fill-opacity:1;" d="M 7.449219 3.40625 L 6.949219 3.40625 L 6.949219 3.65625 Z M 7.449219 3.40625 "/>
<path style=" stroke:none;fill-rule:nonzero;fill:rgb(100%,100%,100%);fill-opacity:1;" d="M 7.449219 3.40625 L 7.042969 3.699219 L 6.898438 3.496094 Z M 7.449219 3.40625 "/>
<path style=" stroke:none;fill-rule:nonzero;fill:rgb(100%,100%,100%);fill-opacity:1;" d="M 7.257812 3.992188 L 7.105469 3.515625 L 6.867188 3.59375 Z M 7.257812 3.992188 "/>
<path style=" stroke:none;fill-rule:nonzero;fill:rgb(100%,100%,100%);fill-opacity:1;" d="M 7.257812 3.992188 L 6.855469 3.699219 L 7 3.496094 Z M 7.257812 3.992188 "/>
<path style=" stroke:none;fill-rule:nonzero;fill:rgb(100%,100%,100%);fill-opacity:1;" d="M 6.640625 3.992188 L 7.042969 3.699219 L 6.898438 3.496094 Z M 6.640625 3.992188 "/>
<path style=" stroke:none;fill-rule:nonzero;fill:rgb(100%,100%,100%);fill-opacity:1;" d="M 6.640625 3.992188 L 6.796875 3.515625 L 7.03125 3.59375 Z M 6.640625 3.992188 "/>
<path style=" stroke:none;fill-rule:nonzero;fill:rgb(100%,100%,100%);fill-opacity:1;" d="M 6.449219 3.40625 L 6.855469 3.699219 L 7 3.496094 Z M 6.449219 3.40625 "/>
<path style=" stroke:none;fill-rule:nonzero;fill:rgb(100%,100%,100%);fill-opacity:1;" d="M 6.449219 3.40625 L 6.949219 3.40625 L 6.949219 3.65625 Z M 6.449219 3.40625 "/>
<path style=" stroke:none;fill-rule:nonzero;fill:rgb(100%,100%,100%);fill-opacity:1;" d="M 6.949219 3.042969 L 6.792969 3.515625 L 7.03125 3.59375 Z M 6.949219 3.042969 "/>
<path style=" stroke:none;fill-rule:nonzero;fill:rgb(100%,100%,100%);fill-opacity:1;" d="M 6.949219 3.042969 L 7.105469 3.515625 L 6.867188 3.59375 Z M 6.949219 3.042969 "/>
<path style=" stroke:none;fill-rule:nonzero;fill:rgb(100%,100%,100%);fill-opacity:1;" d="M 2.398438 4.097656 L 1.800781 4.097656 L 1.800781 4.394531 Z M 2.398438 4.097656 "/>
<path style=" stroke:none;fill-rule:nonzero;fill:rgb(100%,100%,100%);fill-opacity:1;" d="M 2.398438 4.097656 L 1.914062 4.449219 L 1.738281 4.207031 Z M 2.398438 4.097656 "/>
<path style=" stroke:none;fill-rule:nonzero;fill:rgb(100%,100%,100%);fill-opacity:1;" d="M 2.171875 4.800781 L 1.984375 4.230469 L 1.699219 4.324219 Z M 2.171875 4.800781 "/>
<path style=" stroke:none;fill-rule:nonzero;fill:rgb(100%,100%,100%);fill-opacity:1;" d="M 2.171875 4.800781 L 1.683594 4.449219 L 1.863281 4.207031 Z M 2.171875 4.800781 "/>
<path style=" stroke:none;fill-rule:nonzero;fill:rgb(100%,100%,100%);fill-opacity:1;" d="M 1.429688 4.800781 L 1.914062 4.449219 L 1.738281 4.207031 Z M 1.429688 4.800781 "/>
<path style=" stroke:none;fill-rule:nonzero;fill:rgb(100%,100%,100%);fill-opacity:1;" d="M 1.429688 4.800781 L 1.613281 4.230469 L 1.898438 4.324219 Z M 1.429688 4.800781 "/>
<path style=" stroke:none;fill-rule:nonzero;fill:rgb(100%,100%,100%);fill-opacity:1;" d="M 1.199219 4.097656 L 1.683594 4.449219 L 1.863281 4.207031 Z M 1.199219 4.097656 "/>
<path style=" stroke:none;fill-rule:nonzero;fill:rgb(100%,100%,100%);fill-opacity:1;" d="M 1.199219 4.097656 L 1.800781 4.097656 L 1.800781 4.394531 Z M 1.199219 4.097656 "/>
<path style=" stroke:none;fill-rule:nonzero;fill:rgb(100%,100%,100%);fill-opacity:1;" d="M 1.800781 3.660156 L 1.613281 4.230469 L 1.898438 4.324219 Z M 1.800781 3.660156 "/>
<path style=" stroke:none;fill-rule:nonzero;fill:rgb(100%,100%,100%);fill-opacity:1;" d="M 1.800781 3.660156 L 1.984375 4.230469 L 1.699219 4.324219 Z M 1.800781 3.660156 "/>
<path style=" stroke:none;fill-rule:nonzero;fill:rgb(100%,100%,100%);fill-opacity:1;" d="M 5.273438 8.472656 L 4.574219 8.472656 L 4.574219 8.824219 Z M 5.273438 8.472656 "/>
<path style=" stroke:none;fill-rule:nonzero;fill:rgb(100%,100%,100%);fill-opacity:1;" d="M 5.273438 8.472656 L 4.707031 8.886719 L 4.5 8.601562 Z M 5.273438 8.472656 "/>
<path style=" stroke:none;fill-rule:nonzero;fill:rgb(100%,100%,100%);fill-opacity:1;" d="M 5.003906 9.296875 L 4.789062 8.628906 L 4.457031 8.738281 Z M 5.003906 9.296875 "/>
<path style=" stroke:none;fill-rule:nonzero;fill:rgb(100%,100%,100%);fill-opacity:1;" d="M 5.003906 9.296875 L 4.4375 8.886719 L 4.644531 8.601562 Z M 5.003906 9.296875 "/>
<path style=" stroke:none;fill-rule:nonzero;fill:rgb(100%,100%,100%);fill-opacity:1;" d="M 4.140625 9.296875 L 4.707031 8.886719 L 4.5 8.601562 Z M 4.140625 9.296875 "/>
<path style=" stroke:none;fill-rule:nonzero;fill:rgb(100%,100%,100%);fill-opacity:1;" d="M 4.140625 9.296875 L 4.355469 8.628906 L 4.6875 8.738281 Z M 4.140625 9.296875 "/>
<path style=" stroke:none;fill-rule:nonzero;fill:rgb(100%,100%,100%);fill-opacity:1;" d="M 3.871094 8.472656 L 4.4375 8.886719 L 4.644531 8.601562 Z M 3.871094 8.472656 "/>
<path style=" stroke:none;fill-rule:nonzero;fill:rgb(100%,100%,100%);fill-opacity:1;" d="M 3.871094 8.472656 L 4.574219 8.472656 L 4.574219 8.824219 Z M 3.871094 8.472656 "/>
<path style=" stroke:none;fill-rule:nonzero;fill:rgb(100%,100%,100%);fill-opacity:1;" d="M 4.574219 7.964844 L 4.355469 8.628906 L 4.6875 8.738281 Z M 4.574219 7.964844 "/>
<path style=" stroke:none;fill-rule:nonzero;fill:rgb(100%,100%,100%);fill-opacity:1;" d="M 4.574219 7.964844 L 4.789062 8.632812 L 4.457031 8.738281 Z M 4.574219 7.964844 "/>
</g>
</svg>
