<?xml version="1.0" encoding="utf-8"?>
<svg viewBox="0 0 24 16" width="24px" height="16px" xmlns="http://www.w3.org/2000/svg">
  <defs/>
  <path fill="#00843d" d="M 0 0 L 24 0 L 24 16 L 0 16 L 0 0 Z"/>
  <g fill="#fff" transform="matrix(0.026667, 0, 0, 0.026667, 0, 0)">
    <path d="M446.821 66.543c26.6 11.42 45.236 37.85 45.236 68.627 0 41.225-33.43 74.655-74.654 74.655-18.455 0-35.345-6.704-48.377-17.805a74.443 74.443 0 0026.15 5.951c41.185 1.798 76.042-30.142 77.84-71.327 1.044-23.91-9.287-45.687-26.195-60.101z"/>
    <path d="M375.616 121.42l8.458-26.033-22.145 16.09h27.373l-22.145-16.09z" id="a"/>
    <path d="M375.616 121.42l8.458-26.033-22.145 16.09h27.373l-22.145-16.09z" transform="matrix(1, 0, 0, 1, 0, -38.400001525878906)"/>
    <path d="M375.616 121.42l8.458-26.033-22.145 16.09h27.373l-22.145-16.09z" transform="matrix(1, 0, 0, 1, 37.9370002746582, -18.722000122070312)"/>
    <path d="M375.616 121.42l8.458-26.033-22.145 16.09h27.373l-22.145-16.09z" transform="matrix(1, 0, 0, 1, -37.93600082397461, 18.722000122070312)"/>
    <path d="M375.616 121.42l8.458-26.033-22.145 16.09h27.373l-22.145-16.09z" transform="matrix(1, 0, 0, 1, 0, 38.400001525878906)"/>
  </g>
  <path fill="#d22730" d="M 2.88 0 L 7.2 0 L 7.2 16 L 2.88 16 L 2.88 0 Z"/>
  <g transform="matrix(0.026667, 0, 0, 0.026667, 0, 0)">
    <g transform="matrix(-1, 0, 0, 1, 194.646988, -47.574001)" style="">
      <path d="M 47.028 47.786 L 52.643 47.786 L 62.601 56.896 L 66.573 53.188 L 62.918 53.188 L 63.607 49.004 L 69.963 49.004 L 82.515 60.763 L 82.515 65.265 L 76.953 65.265 L 76.953 61.505 L 74.093 64.099 L 80.608 70.138 L 77.536 73.051 L 86.646 81.525 L 86.646 87.405 L 71.233 73.051 L 74.305 70.138 L 67.843 64.099 L 73.405 58.909 L 69.697 55.519 L 62.6 62.087 L 47.028 47.786 Z M 76.16 47.786 L 86.647 47.786 L 86.647 58.856 L 83.045 55.201 L 83.045 50.911 L 79.232 50.911 L 76.16 47.786 Z M 57.092 47.574 L 60.906 47.574 L 60.376 50.646 L 57.092 47.574 Z" style="transform-origin: 66.838px 67.49px;"/>
      <path d="M 47.718 47.786 L 52.007 47.786 L 62.601 57.479 L 67.685 52.765 L 63.448 52.765 L 64.032 49.428 L 69.752 49.428 L 82.095 60.921 L 82.095 64.841 L 77.38 64.841 L 77.38 60.445 L 73.461 64.099 L 79.976 70.137 L 76.904 73.05 L 86.649 82.108 L 86.649 86.768 L 71.872 73.05 L 74.944 70.137 L 68.482 64.099 L 74.044 58.909 L 69.7 54.883 L 62.603 61.503 L 47.718 47.786 Z M 76.742 47.786 L 86.647 47.786 L 86.647 58.221 L 83.469 55.042 L 83.469 50.434 L 79.391 50.434 L 76.742 47.786 Z M 57.728 47.574 L 60.428 47.574 L 60.058 49.746 L 57.728 47.574 Z" fill="#ffc72c" style="transform-origin: 67.184px 67.171px;"/>
    </g>
    <g transform="matrix(-1, 0, 0, 1, 194.646988, 61.258999)" style="">
      <path d="M 62.601 56.896 L 66.573 53.188 L 62.918 53.188 L 63.607 49.004 L 69.963 49.004 L 82.515 60.763 L 82.515 65.265 L 76.953 65.265 L 76.953 61.505 L 74.093 64.099 L 80.608 70.138 L 77.536 73.051 L 86.646 81.525 L 86.646 87.405 L 71.233 73.051 L 74.305 70.138 L 67.843 64.099 L 73.405 58.909 L 69.697 55.519 L 62.6 62.087 L 46.9 47.591 L 62.6 33.061 L 69.697 39.629 L 73.405 36.239 L 67.843 31.049 L 74.305 25.01 L 71.233 22.097 L 86.646 7.743 L 86.646 13.623 L 77.536 22.097 L 80.608 25.01 L 74.093 31.049 L 76.953 33.643 L 76.953 29.883 L 82.515 29.883 L 82.515 34.385 L 69.963 46.144 L 63.607 46.144 L 62.918 41.96 L 66.573 41.96 L 62.601 38.252 L 52.396 47.569 M 86.647 58.856 L 83.045 55.201 L 83.045 50.911 L 79.232 50.911 L 75.986 47.585 L 79.232 44.237 L 83.045 44.237 L 83.045 39.947 L 86.647 36.292 L 86.647 58.856 Z M 57.092 47.574 L 60.906 47.574 L 60.376 50.646 L 57.092 47.574 Z M 57.092 47.574 L 60.906 47.574 L 60.376 44.502 L 57.092 47.574 Z" style=""/>
      <path d="M 86.647 36.927 L 83.469 40.106 L 83.469 44.714 L 79.391 44.714 L 76.553 47.582 L 79.391 50.434 L 83.469 50.434 L 83.469 55.042 L 86.647 58.221 Z M 51.824 47.573 L 62.601 37.669 L 67.685 42.383 L 63.448 42.383 L 64.032 45.72 L 69.752 45.72 L 82.095 34.227 L 82.095 30.307 L 77.38 30.307 L 77.38 34.703 L 73.461 31.049 L 79.976 25.011 L 76.904 22.098 L 86.649 13.04 L 86.649 8.38 L 71.872 22.098 L 74.944 25.011 L 68.482 31.049 L 74.044 36.239 L 69.7 40.265 L 62.603 33.645 L 47.718 47.574 L 62.603 61.503 L 69.7 54.883 L 74.044 58.909 L 68.482 64.099 L 74.944 70.137 L 71.872 73.05 L 86.649 86.768 L 86.649 82.108 L 76.904 73.05 L 79.976 70.137 L 73.461 64.099 L 77.38 60.445 L 77.38 64.841 L 82.095 64.841 L 82.095 60.921 L 69.752 49.428 L 64.032 49.428 L 63.448 52.765 L 67.685 52.765 L 62.601 57.479 Z M 57.728 47.574 L 60.428 47.574 L 60.058 45.402 L 57.728 47.574 Z M 57.728 47.574 L 60.428 47.574 L 60.058 49.746 L 57.728 47.574 Z" fill="#ffc72c" style=""/>
    </g>
    <g transform="matrix(-1, 0, 0, 1, 194.646988, 174.643005)" style="">
      <path d="M 62.601 56.896 L 66.573 53.188 L 62.918 53.188 L 63.607 49.004 L 69.963 49.004 L 82.515 60.763 L 82.515 65.265 L 76.953 65.265 L 76.953 61.505 L 74.093 64.099 L 80.608 70.138 L 77.536 73.051 L 86.646 81.525 L 86.646 87.405 L 71.233 73.051 L 74.305 70.138 L 67.843 64.099 L 73.405 58.909 L 69.697 55.519 L 62.6 62.087 L 46.9 47.591 L 62.6 33.061 L 69.697 39.629 L 73.405 36.239 L 67.843 31.049 L 74.305 25.01 L 71.233 22.097 L 86.646 7.743 L 86.646 13.623 L 77.536 22.097 L 80.608 25.01 L 74.093 31.049 L 76.953 33.643 L 76.953 29.883 L 82.515 29.883 L 82.515 34.385 L 69.963 46.144 L 63.607 46.144 L 62.918 41.96 L 66.573 41.96 L 62.601 38.252 L 52.396 47.569 M 86.647 58.856 L 83.045 55.201 L 83.045 50.911 L 79.232 50.911 L 75.986 47.585 L 79.232 44.237 L 83.045 44.237 L 83.045 39.947 L 86.647 36.292 L 86.647 58.856 Z M 57.092 47.574 L 60.906 47.574 L 60.376 50.646 L 57.092 47.574 Z M 57.092 47.574 L 60.906 47.574 L 60.376 44.502 L 57.092 47.574 Z" style=""/>
      <path d="M 86.647 36.927 L 83.469 40.106 L 83.469 44.714 L 79.391 44.714 L 76.553 47.582 L 79.391 50.434 L 83.469 50.434 L 83.469 55.042 L 86.647 58.221 Z M 51.824 47.573 L 62.601 37.669 L 67.685 42.383 L 63.448 42.383 L 64.032 45.72 L 69.752 45.72 L 82.095 34.227 L 82.095 30.307 L 77.38 30.307 L 77.38 34.703 L 73.461 31.049 L 79.976 25.011 L 76.904 22.098 L 86.649 13.04 L 86.649 8.38 L 71.872 22.098 L 74.944 25.011 L 68.482 31.049 L 74.044 36.239 L 69.7 40.265 L 62.603 33.645 L 47.718 47.574 L 62.603 61.503 L 69.7 54.883 L 74.044 58.909 L 68.482 64.099 L 74.944 70.137 L 71.872 73.05 L 86.649 86.768 L 86.649 82.108 L 76.904 73.05 L 79.976 70.137 L 73.461 64.099 L 77.38 60.445 L 77.38 64.841 L 82.095 64.841 L 82.095 60.921 L 69.752 49.428 L 64.032 49.428 L 63.448 52.765 L 67.685 52.765 L 62.601 57.479 Z M 57.728 47.574 L 60.428 47.574 L 60.058 45.402 L 57.728 47.574 Z M 57.728 47.574 L 60.428 47.574 L 60.058 49.746 L 57.728 47.574 Z" fill="#ffc72c" style=""/>
    </g>
    <g transform="matrix(-1, 0, 0, 1, 194.383987, 287.015991)" style="">
      <path d="M 62.601 56.896 L 66.573 53.188 L 62.918 53.188 L 63.607 49.004 L 69.963 49.004 L 82.515 60.763 L 82.515 65.265 L 76.953 65.265 L 76.953 61.505 L 74.093 64.099 L 80.608 70.138 L 77.536 73.051 L 86.646 81.525 L 86.646 87.405 L 71.233 73.051 L 74.305 70.138 L 67.843 64.099 L 73.405 58.909 L 69.697 55.519 L 62.6 62.087 L 46.9 47.591 L 62.6 33.061 L 69.697 39.629 L 73.405 36.239 L 67.843 31.049 L 74.305 25.01 L 71.233 22.097 L 86.646 7.743 L 86.646 13.623 L 77.536 22.097 L 80.608 25.01 L 74.093 31.049 L 76.953 33.643 L 76.953 29.883 L 82.515 29.883 L 82.515 34.385 L 69.963 46.144 L 63.607 46.144 L 62.918 41.96 L 66.573 41.96 L 62.601 38.252 L 52.396 47.569 M 86.647 58.856 L 83.045 55.201 L 83.045 50.911 L 79.232 50.911 L 75.986 47.585 L 79.232 44.237 L 83.045 44.237 L 83.045 39.947 L 86.647 36.292 L 86.647 58.856 Z M 57.092 47.574 L 60.906 47.574 L 60.376 50.646 L 57.092 47.574 Z M 57.092 47.574 L 60.906 47.574 L 60.376 44.502 L 57.092 47.574 Z" style=""/>
      <path d="M 86.647 36.927 L 83.469 40.106 L 83.469 44.714 L 79.391 44.714 L 76.553 47.582 L 79.391 50.434 L 83.469 50.434 L 83.469 55.042 L 86.647 58.221 Z M 51.824 47.573 L 62.601 37.669 L 67.685 42.383 L 63.448 42.383 L 64.032 45.72 L 69.752 45.72 L 82.095 34.227 L 82.095 30.307 L 77.38 30.307 L 77.38 34.703 L 73.461 31.049 L 79.976 25.011 L 76.904 22.098 L 86.649 13.04 L 86.649 8.38 L 71.872 22.098 L 74.944 25.011 L 68.482 31.049 L 74.044 36.239 L 69.7 40.265 L 62.603 33.645 L 47.718 47.574 L 62.603 61.503 L 69.7 54.883 L 74.044 58.909 L 68.482 64.099 L 74.944 70.137 L 71.872 73.05 L 86.649 86.768 L 86.649 82.108 L 76.904 73.05 L 79.976 70.137 L 73.461 64.099 L 77.38 60.445 L 77.38 64.841 L 82.095 64.841 L 82.095 60.921 L 69.752 49.428 L 64.032 49.428 L 63.448 52.765 L 67.685 52.765 L 62.601 57.479 Z M 57.728 47.574 L 60.428 47.574 L 60.058 45.402 L 57.728 47.574 Z M 57.728 47.574 L 60.428 47.574 L 60.058 49.746 L 57.728 47.574 Z" fill="#ffc72c" style=""/>
    </g>
    <g transform="matrix(-1, 0, 0, 1, 194.383987, 400.235962)" style="">
      <path d="M 62.601 56.896 L 66.573 53.188 L 62.918 53.188 L 63.607 49.004 L 69.963 49.004 L 82.515 60.763 L 82.515 65.265 L 76.953 65.265 L 76.953 61.505 L 74.093 64.099 L 80.608 70.138 L 77.536 73.051 L 86.646 81.525 L 86.646 87.405 L 71.233 73.051 L 74.305 70.138 L 67.843 64.099 L 73.405 58.909 L 69.697 55.519 L 62.6 62.087 L 46.9 47.591 L 62.6 33.061 L 69.697 39.629 L 73.405 36.239 L 67.843 31.049 L 74.305 25.01 L 71.233 22.097 L 86.646 7.743 L 86.646 13.623 L 77.536 22.097 L 80.608 25.01 L 74.093 31.049 L 76.953 33.643 L 76.953 29.883 L 82.515 29.883 L 82.515 34.385 L 69.963 46.144 L 63.607 46.144 L 62.918 41.96 L 66.573 41.96 L 62.601 38.252 L 52.396 47.569 M 86.647 58.856 L 83.045 55.201 L 83.045 50.911 L 79.232 50.911 L 75.986 47.585 L 79.232 44.237 L 83.045 44.237 L 83.045 39.947 L 86.647 36.292 L 86.647 58.856 Z M 57.092 47.574 L 60.906 47.574 L 60.376 50.646 L 57.092 47.574 Z M 57.092 47.574 L 60.906 47.574 L 60.376 44.502 L 57.092 47.574 Z" style=""/>
      <path d="M 86.647 36.927 L 83.469 40.106 L 83.469 44.714 L 79.391 44.714 L 76.553 47.582 L 79.391 50.434 L 83.469 50.434 L 83.469 55.042 L 86.647 58.221 Z M 51.824 47.573 L 62.601 37.669 L 67.685 42.383 L 63.448 42.383 L 64.032 45.72 L 69.752 45.72 L 82.095 34.227 L 82.095 30.307 L 77.38 30.307 L 77.38 34.703 L 73.461 31.049 L 79.976 25.011 L 76.904 22.098 L 86.649 13.04 L 86.649 8.38 L 71.872 22.098 L 74.944 25.011 L 68.482 31.049 L 74.044 36.239 L 69.7 40.265 L 62.603 33.645 L 47.718 47.574 L 62.603 61.503 L 69.7 54.883 L 74.044 58.909 L 68.482 64.099 L 74.944 70.137 L 71.872 73.05 L 86.649 86.768 L 86.649 82.108 L 76.904 73.05 L 79.976 70.137 L 73.461 64.099 L 77.38 60.445 L 77.38 64.841 L 82.095 64.841 L 82.095 60.921 L 69.752 49.428 L 64.032 49.428 L 63.448 52.765 L 67.685 52.765 L 62.601 57.479 Z M 57.728 47.574 L 60.428 47.574 L 60.058 45.402 L 57.728 47.574 Z M 57.728 47.574 L 60.428 47.574 L 60.058 49.746 L 57.728 47.574 Z" fill="#ffc72c" style=""/>
    </g>
  </g>
  <g transform="matrix(-0.026667, 0, 0, 0.026667, 10.07288, 0)" style="">
    <g transform="matrix(-1, 0, 0, 1, 194.646988, -47.574001)" style="">
      <path d="M 47.028 47.786 L 52.643 47.786 L 62.601 56.896 L 66.573 53.188 L 62.918 53.188 L 63.607 49.004 L 69.963 49.004 L 82.515 60.763 L 82.515 65.265 L 76.953 65.265 L 76.953 61.505 L 74.093 64.099 L 80.608 70.138 L 77.536 73.051 L 86.646 81.525 L 86.646 87.405 L 71.233 73.051 L 74.305 70.138 L 67.843 64.099 L 73.405 58.909 L 69.697 55.519 L 62.6 62.087 L 47.028 47.786 Z M 76.16 47.786 L 86.647 47.786 L 86.647 58.856 L 83.045 55.201 L 83.045 50.911 L 79.232 50.911 L 76.16 47.786 Z M 57.092 47.574 L 60.906 47.574 L 60.376 50.646 L 57.092 47.574 Z" style="transform-origin: 66.838px 67.49px;"/>
      <path d="M 47.718 47.786 L 52.007 47.786 L 62.601 57.479 L 67.685 52.765 L 63.448 52.765 L 64.032 49.428 L 69.752 49.428 L 82.095 60.921 L 82.095 64.841 L 77.38 64.841 L 77.38 60.445 L 73.461 64.099 L 79.976 70.137 L 76.904 73.05 L 86.649 82.108 L 86.649 86.768 L 71.872 73.05 L 74.944 70.137 L 68.482 64.099 L 74.044 58.909 L 69.7 54.883 L 62.603 61.503 L 47.718 47.786 Z M 76.742 47.786 L 86.647 47.786 L 86.647 58.221 L 83.469 55.042 L 83.469 50.434 L 79.391 50.434 L 76.742 47.786 Z M 57.728 47.574 L 60.428 47.574 L 60.058 49.746 L 57.728 47.574 Z" fill="#ffc72c" style="transform-origin: 67.184px 67.171px;"/>
    </g>
    <g transform="matrix(-1, 0, 0, 1, 194.646988, 61.258999)" style="">
      <path d="M 62.601 56.896 L 66.573 53.188 L 62.918 53.188 L 63.607 49.004 L 69.963 49.004 L 82.515 60.763 L 82.515 65.265 L 76.953 65.265 L 76.953 61.505 L 74.093 64.099 L 80.608 70.138 L 77.536 73.051 L 86.646 81.525 L 86.646 87.405 L 71.233 73.051 L 74.305 70.138 L 67.843 64.099 L 73.405 58.909 L 69.697 55.519 L 62.6 62.087 L 46.9 47.591 L 62.6 33.061 L 69.697 39.629 L 73.405 36.239 L 67.843 31.049 L 74.305 25.01 L 71.233 22.097 L 86.646 7.743 L 86.646 13.623 L 77.536 22.097 L 80.608 25.01 L 74.093 31.049 L 76.953 33.643 L 76.953 29.883 L 82.515 29.883 L 82.515 34.385 L 69.963 46.144 L 63.607 46.144 L 62.918 41.96 L 66.573 41.96 L 62.601 38.252 L 52.396 47.569 M 86.647 58.856 L 83.045 55.201 L 83.045 50.911 L 79.232 50.911 L 75.986 47.585 L 79.232 44.237 L 83.045 44.237 L 83.045 39.947 L 86.647 36.292 L 86.647 58.856 Z M 57.092 47.574 L 60.906 47.574 L 60.376 50.646 L 57.092 47.574 Z M 57.092 47.574 L 60.906 47.574 L 60.376 44.502 L 57.092 47.574 Z" style=""/>
      <path d="M 86.647 36.927 L 83.469 40.106 L 83.469 44.714 L 79.391 44.714 L 76.553 47.582 L 79.391 50.434 L 83.469 50.434 L 83.469 55.042 L 86.647 58.221 Z M 51.824 47.573 L 62.601 37.669 L 67.685 42.383 L 63.448 42.383 L 64.032 45.72 L 69.752 45.72 L 82.095 34.227 L 82.095 30.307 L 77.38 30.307 L 77.38 34.703 L 73.461 31.049 L 79.976 25.011 L 76.904 22.098 L 86.649 13.04 L 86.649 8.38 L 71.872 22.098 L 74.944 25.011 L 68.482 31.049 L 74.044 36.239 L 69.7 40.265 L 62.603 33.645 L 47.718 47.574 L 62.603 61.503 L 69.7 54.883 L 74.044 58.909 L 68.482 64.099 L 74.944 70.137 L 71.872 73.05 L 86.649 86.768 L 86.649 82.108 L 76.904 73.05 L 79.976 70.137 L 73.461 64.099 L 77.38 60.445 L 77.38 64.841 L 82.095 64.841 L 82.095 60.921 L 69.752 49.428 L 64.032 49.428 L 63.448 52.765 L 67.685 52.765 L 62.601 57.479 Z M 57.728 47.574 L 60.428 47.574 L 60.058 45.402 L 57.728 47.574 Z M 57.728 47.574 L 60.428 47.574 L 60.058 49.746 L 57.728 47.574 Z" fill="#ffc72c" style=""/>
    </g>
    <g transform="matrix(-1, 0, 0, 1, 194.646988, 174.643005)" style="">
      <path d="M 62.601 56.896 L 66.573 53.188 L 62.918 53.188 L 63.607 49.004 L 69.963 49.004 L 82.515 60.763 L 82.515 65.265 L 76.953 65.265 L 76.953 61.505 L 74.093 64.099 L 80.608 70.138 L 77.536 73.051 L 86.646 81.525 L 86.646 87.405 L 71.233 73.051 L 74.305 70.138 L 67.843 64.099 L 73.405 58.909 L 69.697 55.519 L 62.6 62.087 L 46.9 47.591 L 62.6 33.061 L 69.697 39.629 L 73.405 36.239 L 67.843 31.049 L 74.305 25.01 L 71.233 22.097 L 86.646 7.743 L 86.646 13.623 L 77.536 22.097 L 80.608 25.01 L 74.093 31.049 L 76.953 33.643 L 76.953 29.883 L 82.515 29.883 L 82.515 34.385 L 69.963 46.144 L 63.607 46.144 L 62.918 41.96 L 66.573 41.96 L 62.601 38.252 L 52.396 47.569 M 86.647 58.856 L 83.045 55.201 L 83.045 50.911 L 79.232 50.911 L 75.986 47.585 L 79.232 44.237 L 83.045 44.237 L 83.045 39.947 L 86.647 36.292 L 86.647 58.856 Z M 57.092 47.574 L 60.906 47.574 L 60.376 50.646 L 57.092 47.574 Z M 57.092 47.574 L 60.906 47.574 L 60.376 44.502 L 57.092 47.574 Z" style=""/>
      <path d="M 86.647 36.927 L 83.469 40.106 L 83.469 44.714 L 79.391 44.714 L 76.553 47.582 L 79.391 50.434 L 83.469 50.434 L 83.469 55.042 L 86.647 58.221 Z M 51.824 47.573 L 62.601 37.669 L 67.685 42.383 L 63.448 42.383 L 64.032 45.72 L 69.752 45.72 L 82.095 34.227 L 82.095 30.307 L 77.38 30.307 L 77.38 34.703 L 73.461 31.049 L 79.976 25.011 L 76.904 22.098 L 86.649 13.04 L 86.649 8.38 L 71.872 22.098 L 74.944 25.011 L 68.482 31.049 L 74.044 36.239 L 69.7 40.265 L 62.603 33.645 L 47.718 47.574 L 62.603 61.503 L 69.7 54.883 L 74.044 58.909 L 68.482 64.099 L 74.944 70.137 L 71.872 73.05 L 86.649 86.768 L 86.649 82.108 L 76.904 73.05 L 79.976 70.137 L 73.461 64.099 L 77.38 60.445 L 77.38 64.841 L 82.095 64.841 L 82.095 60.921 L 69.752 49.428 L 64.032 49.428 L 63.448 52.765 L 67.685 52.765 L 62.601 57.479 Z M 57.728 47.574 L 60.428 47.574 L 60.058 45.402 L 57.728 47.574 Z M 57.728 47.574 L 60.428 47.574 L 60.058 49.746 L 57.728 47.574 Z" fill="#ffc72c" style=""/>
    </g>
    <g transform="matrix(-1, 0, 0, 1, 194.383987, 287.015991)" style="">
      <path d="M 62.601 56.896 L 66.573 53.188 L 62.918 53.188 L 63.607 49.004 L 69.963 49.004 L 82.515 60.763 L 82.515 65.265 L 76.953 65.265 L 76.953 61.505 L 74.093 64.099 L 80.608 70.138 L 77.536 73.051 L 86.646 81.525 L 86.646 87.405 L 71.233 73.051 L 74.305 70.138 L 67.843 64.099 L 73.405 58.909 L 69.697 55.519 L 62.6 62.087 L 46.9 47.591 L 62.6 33.061 L 69.697 39.629 L 73.405 36.239 L 67.843 31.049 L 74.305 25.01 L 71.233 22.097 L 86.646 7.743 L 86.646 13.623 L 77.536 22.097 L 80.608 25.01 L 74.093 31.049 L 76.953 33.643 L 76.953 29.883 L 82.515 29.883 L 82.515 34.385 L 69.963 46.144 L 63.607 46.144 L 62.918 41.96 L 66.573 41.96 L 62.601 38.252 L 52.396 47.569 M 86.647 58.856 L 83.045 55.201 L 83.045 50.911 L 79.232 50.911 L 75.986 47.585 L 79.232 44.237 L 83.045 44.237 L 83.045 39.947 L 86.647 36.292 L 86.647 58.856 Z M 57.092 47.574 L 60.906 47.574 L 60.376 50.646 L 57.092 47.574 Z M 57.092 47.574 L 60.906 47.574 L 60.376 44.502 L 57.092 47.574 Z" style=""/>
      <path d="M 86.647 36.927 L 83.469 40.106 L 83.469 44.714 L 79.391 44.714 L 76.553 47.582 L 79.391 50.434 L 83.469 50.434 L 83.469 55.042 L 86.647 58.221 Z M 51.824 47.573 L 62.601 37.669 L 67.685 42.383 L 63.448 42.383 L 64.032 45.72 L 69.752 45.72 L 82.095 34.227 L 82.095 30.307 L 77.38 30.307 L 77.38 34.703 L 73.461 31.049 L 79.976 25.011 L 76.904 22.098 L 86.649 13.04 L 86.649 8.38 L 71.872 22.098 L 74.944 25.011 L 68.482 31.049 L 74.044 36.239 L 69.7 40.265 L 62.603 33.645 L 47.718 47.574 L 62.603 61.503 L 69.7 54.883 L 74.044 58.909 L 68.482 64.099 L 74.944 70.137 L 71.872 73.05 L 86.649 86.768 L 86.649 82.108 L 76.904 73.05 L 79.976 70.137 L 73.461 64.099 L 77.38 60.445 L 77.38 64.841 L 82.095 64.841 L 82.095 60.921 L 69.752 49.428 L 64.032 49.428 L 63.448 52.765 L 67.685 52.765 L 62.601 57.479 Z M 57.728 47.574 L 60.428 47.574 L 60.058 45.402 L 57.728 47.574 Z M 57.728 47.574 L 60.428 47.574 L 60.058 49.746 L 57.728 47.574 Z" fill="#ffc72c" style=""/>
    </g>
    <g transform="matrix(-1, 0, 0, 1, 194.383987, 400.235962)" style="">
      <path d="M 62.601 56.896 L 66.573 53.188 L 62.918 53.188 L 63.607 49.004 L 69.963 49.004 L 82.515 60.763 L 82.515 65.265 L 76.953 65.265 L 76.953 61.505 L 74.093 64.099 L 80.608 70.138 L 77.536 73.051 L 86.646 81.525 L 86.646 87.405 L 71.233 73.051 L 74.305 70.138 L 67.843 64.099 L 73.405 58.909 L 69.697 55.519 L 62.6 62.087 L 46.9 47.591 L 62.6 33.061 L 69.697 39.629 L 73.405 36.239 L 67.843 31.049 L 74.305 25.01 L 71.233 22.097 L 86.646 7.743 L 86.646 13.623 L 77.536 22.097 L 80.608 25.01 L 74.093 31.049 L 76.953 33.643 L 76.953 29.883 L 82.515 29.883 L 82.515 34.385 L 69.963 46.144 L 63.607 46.144 L 62.918 41.96 L 66.573 41.96 L 62.601 38.252 L 52.396 47.569 M 86.647 58.856 L 83.045 55.201 L 83.045 50.911 L 79.232 50.911 L 75.986 47.585 L 79.232 44.237 L 83.045 44.237 L 83.045 39.947 L 86.647 36.292 L 86.647 58.856 Z M 57.092 47.574 L 60.906 47.574 L 60.376 50.646 L 57.092 47.574 Z M 57.092 47.574 L 60.906 47.574 L 60.376 44.502 L 57.092 47.574 Z" style=""/>
      <path d="M 86.647 36.927 L 83.469 40.106 L 83.469 44.714 L 79.391 44.714 L 76.553 47.582 L 79.391 50.434 L 83.469 50.434 L 83.469 55.042 L 86.647 58.221 Z M 51.824 47.573 L 62.601 37.669 L 67.685 42.383 L 63.448 42.383 L 64.032 45.72 L 69.752 45.72 L 82.095 34.227 L 82.095 30.307 L 77.38 30.307 L 77.38 34.703 L 73.461 31.049 L 79.976 25.011 L 76.904 22.098 L 86.649 13.04 L 86.649 8.38 L 71.872 22.098 L 74.944 25.011 L 68.482 31.049 L 74.044 36.239 L 69.7 40.265 L 62.603 33.645 L 47.718 47.574 L 62.603 61.503 L 69.7 54.883 L 74.044 58.909 L 68.482 64.099 L 74.944 70.137 L 71.872 73.05 L 86.649 86.768 L 86.649 82.108 L 76.904 73.05 L 79.976 70.137 L 73.461 64.099 L 77.38 60.445 L 77.38 64.841 L 82.095 64.841 L 82.095 60.921 L 69.752 49.428 L 64.032 49.428 L 63.448 52.765 L 67.685 52.765 L 62.601 57.479 Z M 57.728 47.574 L 60.428 47.574 L 60.058 45.402 L 57.728 47.574 Z M 57.728 47.574 L 60.428 47.574 L 60.058 49.746 L 57.728 47.574 Z" fill="#ffc72c" style=""/>
    </g>
  </g>
  <path d="M 3.23 14.155 C 3.252 14.246 3.324 14.315 3.341 14.409 C 3.376 14.311 3.407 14.228 3.384 14.121 C 3.367 14.044 3.302 13.989 3.295 13.91 C 3.224 13.974 3.209 14.063 3.23 14.155 L 3.23 14.155 Z M 3.213 14.536 C 3.272 14.618 3.355 14.681 3.447 14.723 C 3.429 14.651 3.463 14.597 3.501 14.54 C 3.546 14.471 3.568 14.404 3.531 14.325 C 3.514 14.366 3.491 14.4 3.464 14.435 C 3.424 14.49 3.397 14.539 3.391 14.609 C 3.344 14.575 3.324 14.523 3.299 14.473 C 3.261 14.402 3.2 14.343 3.13 14.304 C 3.149 14.384 3.163 14.468 3.213 14.536 L 3.213 14.536 Z M 3.548 14.78 C 3.535 14.826 3.524 14.871 3.527 14.919 C 3.487 14.876 3.435 14.844 3.388 14.81 C 3.324 14.758 3.25 14.722 3.198 14.656 C 3.205 14.753 3.247 14.832 3.325 14.89 C 3.408 14.953 3.508 14.986 3.59 15.051 C 3.578 14.963 3.61 14.893 3.638 14.812 C 3.661 14.735 3.638 14.657 3.586 14.598 C 3.587 14.663 3.566 14.719 3.548 14.78 L 3.548 14.78 Z M 3.734 15.077 C 3.751 15.144 3.799 15.198 3.832 15.258 C 3.744 15.23 3.666 15.183 3.587 15.138 C 3.492 15.086 3.389 15.053 3.303 14.985 C 3.346 15.143 3.452 15.235 3.607 15.282 C 3.712 15.314 3.802 15.298 3.93 15.349 C 3.915 15.263 3.889 15.169 3.848 15.09 C 3.816 15.034 3.781 14.978 3.761 14.915 C 3.733 14.967 3.719 15.019 3.734 15.077 Z M 4.058 15.319 C 4.088 15.371 4.129 15.415 4.178 15.449 C 4.053 15.457 3.952 15.378 3.831 15.374 C 3.755 15.372 3.684 15.396 3.607 15.389 C 3.698 15.45 3.794 15.504 3.904 15.518 C 4.049 15.537 4.181 15.5 4.34 15.515 C 4.266 15.462 4.229 15.392 4.183 15.317 C 4.122 15.222 4.065 15.155 3.948 15.14 C 3.995 15.193 4.023 15.259 4.058 15.319 L 4.058 15.319 Z M 4.501 15.526 C 4.281 15.564 4.071 15.612 3.846 15.614 C 4.097 15.702 4.334 15.718 4.584 15.627 C 4.719 15.578 4.822 15.552 4.924 15.56 C 5.073 15.57 5.253 15.629 5.454 15.84 L 5.532 15.777 C 5.245 15.521 4.87 15.464 4.501 15.526 L 4.501 15.526 Z" fill="#ffc72c"/>
  <path d="M 3.42 1.876 L 3.074 1.663 L 3.074 1.153 L 3.42 0.941 L 3.42 0.671 L 3.748 0.474 L 4.009 0.474 L 4.506 0.194 L 5.574 0.194 L 6.071 0.474 L 6.332 0.474 L 6.659 0.671 L 6.659 0.941 L 7.006 1.153 L 7.006 1.663 L 6.659 1.876 L 6.659 2.146 L 6.332 2.343 L 6.071 2.343 L 5.574 2.622 L 4.506 2.622 L 4.009 2.343 L 3.748 2.343 L 3.42 2.146 L 3.42 1.876 Z" fill="#383739"/>
  <path d="M 4.508 0.206 L 4.011 0.486 L 3.751 0.486 L 3.432 0.678 L 3.432 0.948 L 3.086 1.16 L 3.086 1.657 L 3.432 1.869 L 3.432 2.14 L 3.75 2.332 L 4.011 2.332 L 4.508 2.612 L 5.571 2.612 L 6.068 2.332 L 6.329 2.332 L 6.648 2.14 L 6.648 1.869 L 6.994 1.657 L 6.994 1.16 L 6.648 0.948 L 6.648 0.678 L 6.329 0.486 L 6.068 0.486 L 5.571 0.206 L 4.508 0.206 L 4.508 0.206 Z M 4.538 0.309 L 5.542 0.309 L 6.04 0.589 L 6.299 0.589 L 6.541 0.734 L 6.541 1.004 L 6.888 1.216 L 6.888 1.6 L 6.541 1.812 L 6.541 2.082 L 6.299 2.227 L 6.04 2.227 L 5.542 2.507 L 4.538 2.507 L 4.041 2.227 L 3.781 2.227 L 3.538 2.082 L 3.538 1.812 L 3.192 1.6 L 3.192 1.216 L 3.538 1.004 L 3.538 0.734 L 3.781 0.589 L 4.041 0.589 L 4.538 0.309 Z" fill="#00843d"/>
  <path d="M 5.034 1.414 L 5.034 0.32 L 4.541 0.32 L 4.043 0.6 L 3.784 0.6 L 3.55 0.741 L 3.55 1.011 L 3.204 1.223 L 3.204 1.403 L 5.046 1.403 L 5.046 2.496 L 5.539 2.496 L 6.036 2.216 L 6.296 2.216 L 6.53 2.075 L 6.53 1.806 L 6.876 1.594 L 6.876 1.414 L 5.034 1.414 Z" fill="#ffc72c"/>
  <path d="M 3.203 1.414 L 3.203 1.594 L 3.55 1.806 L 3.55 2.075 L 3.784 2.216 L 4.043 2.216 L 4.541 2.496 L 5.034 2.496 L 5.034 1.403 L 6.876 1.403 L 6.876 1.223 L 6.53 1.011 L 6.53 0.741 L 6.296 0.6 L 6.036 0.6 L 5.539 0.32 L 5.046 0.32 L 5.046 1.414 L 3.203 1.414 Z" fill="#fff"/>
  <g id="e" fill="#383739" style="" transform="matrix(0.026667, 0, 0, 0.026667, 0, 0)">
    <g id="d">
      <path d="M148.448 26.28l-3.196-2.978-3.166 1.952 3.201 2.985-4.11 2.546h8.969l7.73 7.29 2.472-2.61-7.515-7.09v-4.811z"/>
      <path d="M163.573 24.972l-3.196-2.978-3.166 1.952 3.201 2.984-4.11 2.547h8.969l7.73 7.29 2.472-2.61-7.515-7.09v-4.812zm-16.234 9.864l-3.196-2.979-3.165 1.953 3.2 2.984-4.11 2.547h8.97l7.728 7.29 2.473-2.611-7.515-7.089v-4.812z"/>
      <path d="M188.997 11.589h-8.093l-4.235 4.081h-8.255l-6.1 3.166 1.422 3.467 5.44-2.858h2.383l8.341 9.647 9.097-5.54z"/>
      <path d="M145.199 23.838l2.872 2.676-2.406 1.49-2.876-2.68zm7.205.495v4.227l7.338 6.921-1.884 1.99-7.542-7.114h-7.635l9.723-6.024zm7.92-1.803l2.872 2.676-2.406 1.49-2.876-2.68zm7.205.494v4.227l7.338 6.922-1.884 1.99-7.542-7.114h-7.635l9.723-6.025z" fill="#d22730"/>
      <path d="M144.091 32.393l2.871 2.677-2.406 1.49-2.875-2.68zm7.205.495v4.227l7.337 6.922-1.883 1.99-7.542-7.114h-7.636l9.724-6.025zm37.487-20.871h-7.706l-4.235 4.08h-8.324l-5.66 2.938 1.095 2.67 5.117-2.688h2.685l8.232 9.521 8.796-5.356z" fill="#d22730"/>
    </g>
    <g transform="matrix(1, 0, 0, -1, 0, 105.62300109863281)">
      <path d="M148.448 26.28l-3.196-2.978-3.166 1.952 3.201 2.985-4.11 2.546h8.969l7.73 7.29 2.472-2.61-7.515-7.09v-4.811z"/>
      <path d="M163.573 24.972l-3.196-2.978-3.166 1.952 3.201 2.984-4.11 2.547h8.969l7.73 7.29 2.472-2.61-7.515-7.09v-4.812zm-16.234 9.864l-3.196-2.979-3.165 1.953 3.2 2.984-4.11 2.547h8.97l7.728 7.29 2.473-2.611-7.515-7.089v-4.812z"/>
      <path d="M188.997 11.589h-8.093l-4.235 4.081h-8.255l-6.1 3.166 1.422 3.467 5.44-2.858h2.383l8.341 9.647 9.097-5.54z"/>
      <path d="M145.199 23.838l2.872 2.676-2.406 1.49-2.876-2.68zm7.205.495v4.227l7.338 6.921-1.884 1.99-7.542-7.114h-7.635l9.723-6.024zm7.92-1.803l2.872 2.676-2.406 1.49-2.876-2.68zm7.205.494v4.227l7.338 6.922-1.884 1.99-7.542-7.114h-7.635l9.723-6.025z" fill="#d22730"/>
      <path d="M144.091 32.393l2.871 2.677-2.406 1.49-2.875-2.68zm7.205.495v4.227l7.337 6.922-1.883 1.99-7.542-7.114h-7.636l9.724-6.025zm37.487-20.871h-7.706l-4.235 4.08h-8.324l-5.66 2.938 1.095 2.67 5.117-2.688h2.685l8.232 9.521 8.796-5.356z" fill="#d22730"/>
    </g>
    <path d="M143.054 39.71l-3.859-1.441-.092.064-4.982 3.457v.93l-7.98 10.091 7.98 10.092v.93l5.074 3.52 3.859-1.441-2.355-1.56v-2.967l.936-1.12h4.181V45.358h-4.181l-.936-1.12V41.27z"/>
    <path d="M134.549 42.014l4.706-3.266 2.862 1.07-1.846 1.223v3.352l1.164 1.392h3.952v14.053h-3.952l-1.164 1.392v3.352l1.846 1.223-2.862 1.07-4.706-3.266v-.855l-7.862-9.943 7.863-9.943z" fill="#d22730"/>
  </g>
  <g fill="#383739" transform="matrix(-0.026667, 0, 0, 0.026667, 10.07984, 0)" style="">
    <g>
      <path d="M148.448 26.28l-3.196-2.978-3.166 1.952 3.201 2.985-4.11 2.546h8.969l7.73 7.29 2.472-2.61-7.515-7.09v-4.811z"/>
      <path d="M163.573 24.972l-3.196-2.978-3.166 1.952 3.201 2.984-4.11 2.547h8.969l7.73 7.29 2.472-2.61-7.515-7.09v-4.812zm-16.234 9.864l-3.196-2.979-3.165 1.953 3.2 2.984-4.11 2.547h8.97l7.728 7.29 2.473-2.611-7.515-7.089v-4.812z"/>
      <path d="M188.997 11.589h-8.093l-4.235 4.081h-8.255l-6.1 3.166 1.422 3.467 5.44-2.858h2.383l8.341 9.647 9.097-5.54z"/>
      <path d="M145.199 23.838l2.872 2.676-2.406 1.49-2.876-2.68zm7.205.495v4.227l7.338 6.921-1.884 1.99-7.542-7.114h-7.635l9.723-6.024zm7.92-1.803l2.872 2.676-2.406 1.49-2.876-2.68zm7.205.494v4.227l7.338 6.922-1.884 1.99-7.542-7.114h-7.635l9.723-6.025z" fill="#d22730"/>
      <path d="M144.091 32.393l2.871 2.677-2.406 1.49-2.875-2.68zm7.205.495v4.227l7.337 6.922-1.883 1.99-7.542-7.114h-7.636l9.724-6.025zm37.487-20.871h-7.706l-4.235 4.08h-8.324l-5.66 2.938 1.095 2.67 5.117-2.688h2.685l8.232 9.521 8.796-5.356z" fill="#d22730"/>
    </g>
    <g transform="matrix(1, 0, 0, -1, 0, 105.62300109863281)">
      <path d="M148.448 26.28l-3.196-2.978-3.166 1.952 3.201 2.985-4.11 2.546h8.969l7.73 7.29 2.472-2.61-7.515-7.09v-4.811z"/>
      <path d="M163.573 24.972l-3.196-2.978-3.166 1.952 3.201 2.984-4.11 2.547h8.969l7.73 7.29 2.472-2.61-7.515-7.09v-4.812zm-16.234 9.864l-3.196-2.979-3.165 1.953 3.2 2.984-4.11 2.547h8.97l7.728 7.29 2.473-2.611-7.515-7.089v-4.812z"/>
      <path d="M188.997 11.589h-8.093l-4.235 4.081h-8.255l-6.1 3.166 1.422 3.467 5.44-2.858h2.383l8.341 9.647 9.097-5.54z"/>
      <path d="M145.199 23.838l2.872 2.676-2.406 1.49-2.876-2.68zm7.205.495v4.227l7.338 6.921-1.884 1.99-7.542-7.114h-7.635l9.723-6.024zm7.92-1.803l2.872 2.676-2.406 1.49-2.876-2.68zm7.205.494v4.227l7.338 6.922-1.884 1.99-7.542-7.114h-7.635l9.723-6.025z" fill="#d22730"/>
      <path d="M144.091 32.393l2.871 2.677-2.406 1.49-2.875-2.68zm7.205.495v4.227l7.337 6.922-1.883 1.99-7.542-7.114h-7.636l9.724-6.025zm37.487-20.871h-7.706l-4.235 4.08h-8.324l-5.66 2.938 1.095 2.67 5.117-2.688h2.685l8.232 9.521 8.796-5.356z" fill="#d22730"/>
    </g>
    <path d="M143.054 39.71l-3.859-1.441-.092.064-4.982 3.457v.93l-7.98 10.091 7.98 10.092v.93l5.074 3.52 3.859-1.441-2.355-1.56v-2.967l.936-1.12h4.181V45.358h-4.181l-.936-1.12V41.27z"/>
    <path d="M134.549 42.014l4.706-3.266 2.862 1.07-1.846 1.223v3.352l1.164 1.392h3.952v14.053h-3.952l-1.164 1.392v3.352l1.846 1.223-2.862 1.07-4.706-3.266v-.855l-7.862-9.943 7.863-9.943z" fill="#d22730"/>
  </g>
  <path d="M 3.632 1.634 L 3.574 1.584 L 3.574 1.56 L 3.45 1.408 L 3.574 1.257 L 3.574 1.233 L 3.632 1.182 L 3.736 1.267 L 3.676 1.267 L 3.765 1.357 L 3.968 1.357 L 4.127 1.232 L 4.127 0.903 L 4.526 0.903 L 4.989 0.619 L 4.989 0.544 L 4.918 0.497 L 4.896 0.497 L 4.819 0.549 L 4.807 0.587 L 4.747 0.505 L 4.864 0.406 L 4.883 0.406 L 5.015 0.309 L 5.065 0.309 L 5.197 0.406 L 5.216 0.406 L 5.333 0.505 L 5.273 0.587 L 5.261 0.549 L 5.184 0.497 L 5.161 0.497 L 5.091 0.544 L 5.091 0.619 L 5.554 0.903 L 5.953 0.903 L 5.953 1.232 L 6.112 1.357 L 6.315 1.357 L 6.404 1.267 L 6.344 1.267 L 6.448 1.182 L 6.506 1.233 L 6.506 1.257 L 6.63 1.408 L 6.506 1.56 L 6.506 1.584 L 6.448 1.634 L 6.344 1.55 L 6.404 1.55 L 6.315 1.46 L 6.112 1.46 L 5.953 1.585 L 5.953 1.914 L 5.554 1.914 L 5.091 2.198 L 5.091 2.272 L 5.161 2.32 L 5.184 2.32 L 5.261 2.268 L 5.273 2.229 L 5.333 2.312 L 5.216 2.41 L 5.197 2.41 L 5.065 2.508 L 5.015 2.508 L 4.883 2.41 L 4.864 2.41 L 4.747 2.312 L 4.807 2.229 L 4.819 2.268 L 4.896 2.32 L 4.918 2.32 L 4.989 2.272 L 4.989 2.198 L 4.526 1.914 L 4.127 1.914 L 4.127 1.585 L 3.968 1.46 L 3.765 1.46 L 3.676 1.55 L 3.736 1.55 L 3.632 1.634 Z" fill="#383739"/>
  <path d="M 5.046 2.329 L 5.096 2.367 L 5.046 2.406 L 5.046 2.329 L 5.046 2.329 Z M 4.884 2.399 L 4.886 2.399 L 5.019 2.496 L 5.034 2.496 L 5.034 2.42 L 4.965 2.367 L 5.034 2.314 L 5.034 2.172 L 4.538 1.868 L 4.172 1.868 L 4.172 1.562 L 3.983 1.414 L 3.697 1.414 L 3.626 1.495 L 3.554 1.414 L 3.469 1.414 L 3.586 1.556 L 3.586 1.579 L 3.632 1.619 L 3.706 1.561 L 3.662 1.562 L 3.662 1.547 L 3.759 1.449 L 3.972 1.449 L 4.139 1.579 L 4.139 1.902 L 4.529 1.902 L 5.001 2.191 L 5.001 2.279 L 4.922 2.331 L 4.892 2.331 L 4.809 2.275 L 4.803 2.255 L 4.762 2.31 L 4.868 2.399 L 4.884 2.399 L 4.884 2.399 Z M 3.626 1.339 L 3.682 1.403 L 3.569 1.403 L 3.626 1.339 Z M 5.034 0.411 L 4.984 0.449 L 5.034 0.488 L 5.034 0.411 Z M 6.398 1.414 L 6.454 1.478 L 6.511 1.414 L 6.398 1.414 Z M 5.193 0.418 L 5.061 0.32 L 5.046 0.32 L 5.046 0.396 L 5.115 0.449 L 5.046 0.502 L 5.046 0.645 L 5.541 0.949 L 5.908 0.949 L 5.908 1.255 L 6.097 1.403 L 6.382 1.403 L 6.454 1.322 L 6.526 1.403 L 6.611 1.403 L 6.494 1.261 L 6.494 1.238 L 6.448 1.198 L 6.374 1.255 L 6.418 1.255 L 6.418 1.269 L 6.321 1.368 L 6.108 1.368 L 5.941 1.237 L 5.941 0.914 L 5.551 0.914 L 5.079 0.625 L 5.079 0.538 L 5.158 0.485 L 5.187 0.485 L 5.271 0.541 L 5.277 0.562 L 5.318 0.507 L 5.212 0.418 L 5.193 0.418 L 5.193 0.418 Z" fill="#ffc72c"/>
  <path d="M 5.034 2.406 L 4.984 2.367 L 5.034 2.329 L 5.034 2.406 Z M 3.682 1.414 L 3.626 1.478 L 3.569 1.414 L 3.682 1.414 Z M 5.195 2.399 L 5.193 2.399 L 5.061 2.496 L 5.046 2.496 L 5.046 2.42 L 5.115 2.367 L 5.046 2.314 L 5.046 2.172 L 5.541 1.868 L 5.908 1.868 L 5.908 1.562 L 6.097 1.414 L 6.382 1.414 L 6.454 1.495 L 6.526 1.414 L 6.611 1.414 L 6.494 1.556 L 6.494 1.579 L 6.448 1.619 L 6.374 1.561 L 6.418 1.562 L 6.418 1.547 L 6.321 1.449 L 6.108 1.449 L 5.941 1.579 L 5.941 1.902 L 5.551 1.902 L 5.079 2.191 L 5.079 2.279 L 5.158 2.331 L 5.187 2.331 L 5.271 2.275 L 5.277 2.255 L 5.318 2.31 L 5.212 2.399 L 5.195 2.399 L 5.195 2.399 Z M 6.454 1.339 L 6.398 1.403 L 6.511 1.403 L 6.454 1.339 Z M 4.886 0.418 L 5.019 0.32 L 5.034 0.32 L 5.034 0.396 L 4.965 0.449 L 5.034 0.502 L 5.034 0.645 L 4.539 0.949 L 4.172 0.949 L 4.172 1.255 L 3.983 1.403 L 3.697 1.403 L 3.626 1.322 L 3.554 1.403 L 3.469 1.403 L 3.586 1.261 L 3.586 1.238 L 3.632 1.198 L 3.706 1.255 L 3.662 1.255 L 3.662 1.269 L 3.759 1.368 L 3.972 1.368 L 4.139 1.237 L 4.139 0.914 L 4.529 0.914 L 5.001 0.625 L 5.001 0.538 L 4.922 0.486 L 4.893 0.486 L 4.809 0.541 L 4.803 0.562 L 4.762 0.507 L 4.868 0.418 L 4.886 0.418 L 4.886 0.418 Z M 5.046 0.488 L 5.096 0.449 L 5.046 0.411 L 5.046 0.488 Z" fill="#fff"/>
  <path d="M 5.034 1.414 L 5.034 0.658 L 4.542 0.96 L 4.183 0.96 L 4.183 1.26 L 4.001 1.403 L 5.046 1.403 L 5.046 2.158 L 5.538 1.856 L 5.896 1.856 L 5.896 1.556 L 6.078 1.414 L 5.034 1.414 Z" fill="#00843d"/>
  <path d="M 4.001 1.414 L 4.183 1.556 L 4.183 1.856 L 4.542 1.856 L 5.034 2.158 L 5.034 1.403 L 6.078 1.403 L 5.896 1.26 L 5.896 0.96 L 5.538 0.96 L 5.046 0.658 L 5.046 1.414 L 4.001 1.414 Z" fill="#d22730"/>
  <path d="M 4.51 1.042 L 4.425 0.962 L 4.34 1.014 L 4.426 1.094 L 4.316 1.162 L 4.555 1.162 L 4.761 1.356 L 4.827 1.287 L 4.627 1.098 L 4.627 0.969 L 4.51 1.042 Z M 5.57 1.775 L 5.655 1.854 L 5.74 1.802 L 5.654 1.723 L 5.764 1.655 L 5.525 1.655 L 5.319 1.46 L 5.253 1.53 L 5.453 1.719 L 5.453 1.847 L 5.57 1.775 Z M 4.51 1.775 L 4.425 1.854 L 4.34 1.802 L 4.426 1.723 L 4.316 1.655 L 4.555 1.655 L 4.761 1.46 L 4.827 1.53 L 4.627 1.719 L 4.627 1.847 L 4.51 1.775 Z M 5.57 1.042 L 5.655 0.962 L 5.74 1.014 L 5.654 1.094 L 5.764 1.162 L 5.525 1.162 L 5.319 1.356 L 5.253 1.287 L 5.453 1.098 L 5.453 0.969 L 5.57 1.042 Z" fill="#383739"/>
  <path d="M 5.657 1.84 L 5.58 1.769 L 5.644 1.729 L 5.721 1.8 L 5.657 1.84 Z M 5.464 1.827 L 5.464 1.714 L 5.269 1.53 L 5.319 1.477 L 5.52 1.666 L 5.724 1.666 L 5.464 1.827 Z M 4.423 0.977 L 4.5 1.048 L 4.436 1.088 L 4.359 1.016 L 4.423 0.977 Z M 4.615 0.99 L 4.615 1.102 L 4.811 1.287 L 4.761 1.34 L 4.56 1.15 L 4.356 1.15 L 4.615 0.99 Z" fill="#d22730"/>
  <path d="M 5.657 0.977 L 5.58 1.048 L 5.644 1.088 L 5.721 1.016 L 5.657 0.977 Z M 5.464 0.99 L 5.464 1.102 L 5.269 1.287 L 5.319 1.34 L 5.52 1.15 L 5.724 1.15 L 5.464 0.99 Z M 4.423 1.84 L 4.5 1.769 L 4.436 1.729 L 4.359 1.8 L 4.423 1.84 Z M 4.615 1.827 L 4.615 1.714 L 4.811 1.53 L 4.761 1.477 L 4.56 1.666 L 4.356 1.666 L 4.615 1.827 L 4.615 1.827 Z" fill="#00843d"/>
  <path d="M 5.569 1.408 L 5.04 1.761 L 4.51 1.408 L 5.04 1.055 L 5.569 1.408 Z" fill="#383739"/>
  <path d="M 5.034 1.073 L 4.54 1.403 L 5.54 1.403 L 5.046 1.073 L 5.046 1.744 L 5.54 1.414 L 4.539 1.414 L 5.034 1.744 L 5.034 1.073 Z" fill="#fff"/>
  <path d="M 5.182 1.53 L 5.182 1.627 L 4.898 1.627 L 4.898 1.53 L 4.715 1.53 L 4.715 1.287 L 4.898 1.287 L 4.898 1.19 L 5.182 1.19 L 5.182 1.287 L 5.365 1.287 L 5.365 1.53 L 5.182 1.53 Z" fill="#383739"/>
  <path d="M 4.91 1.201 L 4.91 1.298 L 4.726 1.298 L 4.726 1.403 L 5.034 1.403 L 5.034 1.201 L 4.91 1.201 Z M 5.046 1.403 L 5.353 1.403 L 5.353 1.298 L 5.17 1.298 L 5.17 1.201 L 5.046 1.201 L 5.046 1.403 L 5.046 1.403 Z M 4.726 1.414 L 4.726 1.518 L 4.91 1.518 L 4.91 1.615 L 5.034 1.615 L 5.034 1.414 L 4.726 1.414 L 4.726 1.414 Z M 5.046 1.615 L 5.17 1.615 L 5.17 1.518 L 5.353 1.518 L 5.353 1.414 L 5.046 1.414 L 5.046 1.615 L 5.046 1.615 Z" fill="#d22730"/>
  <path d="M 5.943 5.43 L 5.943 5.274 L 6.37 5.274 L 6.37 5.119 L 6.796 5.119 L 6.796 3.714 L 6.37 3.714 L 6.37 3.558 L 5.943 3.558 L 5.943 3.403 L 5.517 3.403 L 5.517 3.247 L 4.563 3.247 L 4.563 3.403 L 4.136 3.403 L 4.136 3.558 L 3.71 3.558 L 3.71 3.714 L 3.284 3.714 L 3.284 5.119 L 3.71 5.119 L 3.71 5.274 L 4.136 5.274 L 4.136 5.43 L 4.563 5.43 L 4.563 5.585 L 5.517 5.585 L 5.517 5.43 L 5.943 5.43 Z" fill="#383739"/>
  <path d="M 4.575 3.258 L 4.575 3.414 L 4.148 3.414 L 4.148 3.569 L 3.722 3.569 L 3.722 3.725 L 3.295 3.725 L 3.295 5.107 L 3.722 5.107 L 3.722 5.263 L 4.148 5.263 L 4.148 5.418 L 4.575 5.418 L 4.575 5.573 L 5.506 5.573 L 5.506 5.418 L 5.932 5.418 L 5.932 5.263 L 6.359 5.263 L 6.359 5.107 L 6.785 5.107 L 6.785 3.725 L 6.359 3.725 L 6.359 3.569 L 5.932 3.569 L 5.932 3.414 L 5.506 3.414 L 5.506 3.258 L 4.575 3.258 Z M 4.688 3.371 L 5.393 3.371 L 5.393 3.527 L 5.819 3.527 L 5.819 3.682 L 6.246 3.682 L 6.246 3.838 L 6.672 3.838 L 6.672 4.994 L 6.246 4.994 L 6.246 5.15 L 5.819 5.15 L 5.819 5.305 L 5.393 5.305 L 5.393 5.46 L 4.688 5.46 L 4.688 5.305 L 4.261 5.305 L 4.261 5.15 L 3.835 5.15 L 3.835 4.994 L 3.408 4.994 L 3.408 3.838 L 3.835 3.838 L 3.835 3.682 L 4.261 3.682 L 4.261 3.527 L 4.688 3.527 L 4.688 3.371 Z" fill="#ffc72c"/>
  <path d="M 4.272 5.294 L 4.272 5.138 L 3.846 5.138 L 3.846 4.983 L 3.42 4.983 L 3.42 3.85 L 3.846 3.85 L 3.846 3.694 L 4.272 3.694 L 4.272 3.539 L 4.699 3.539 L 4.699 3.383 L 5.381 3.383 L 5.381 3.539 L 5.808 3.539 L 5.808 3.694 L 6.234 3.694 L 6.234 3.85 L 6.66 3.85 L 6.66 4.983 L 6.234 4.983 L 6.234 5.138 L 5.808 5.138 L 5.808 5.294 L 5.381 5.294 L 5.381 5.449 L 4.699 5.449 L 4.699 5.294 L 4.272 5.294 Z" fill="#d22730"/>
  <path d="M 4.371 3.654 L 4.261 3.57 L 4.261 3.731 L 4.155 3.798 L 4.155 3.697 L 4.053 3.788 L 3.952 3.697 L 3.952 3.798 L 3.834 3.723 L 3.834 3.872 L 3.74 3.94 L 3.739 3.849 L 3.627 3.931 L 3.514 3.849 L 3.514 3.94 L 3.408 3.864 L 3.408 4.314 L 3.284 4.314 L 3.284 4.519 L 3.408 4.519 L 3.408 4.969 L 3.514 4.892 L 3.514 4.983 L 3.627 4.902 L 3.739 4.983 L 3.74 4.892 L 3.834 4.961 L 3.834 5.109 L 3.952 5.035 L 3.952 5.135 L 4.053 5.044 L 4.155 5.135 L 4.155 5.035 L 4.261 5.102 L 4.261 5.262 L 4.371 5.179 L 4.371 5.291 L 4.48 5.194 L 4.588 5.291 L 4.588 5.179 L 4.687 5.254 L 4.687 5.425 L 4.835 5.29 L 4.835 5.448 L 5.04 5.317 L 5.245 5.448 L 5.245 5.29 L 5.393 5.425 L 5.393 5.254 L 5.492 5.179 L 5.492 5.291 L 5.6 5.194 L 5.708 5.291 L 5.709 5.179 L 5.819 5.262 L 5.819 5.102 L 5.925 5.035 L 5.925 5.135 L 6.027 5.044 L 6.128 5.135 L 6.128 5.035 L 6.245 5.109 L 6.245 4.961 L 6.34 4.892 L 6.34 4.983 L 6.453 4.902 L 6.565 4.983 L 6.566 4.892 L 6.672 4.969 L 6.672 4.519 L 6.796 4.519 L 6.796 4.314 L 6.672 4.314 L 6.672 3.864 L 6.566 3.94 L 6.565 3.849 L 6.453 3.931 L 6.34 3.849 L 6.34 3.94 L 6.245 3.872 L 6.245 3.723 L 6.128 3.798 L 6.128 3.697 L 6.027 3.788 L 5.925 3.697 L 5.925 3.798 L 5.819 3.73 L 5.819 3.57 L 5.709 3.654 L 5.708 3.542 L 5.6 3.639 L 5.492 3.542 L 5.492 3.654 L 5.393 3.579 L 5.393 3.408 L 5.245 3.543 L 5.245 3.384 L 5.04 3.516 L 4.835 3.384 L 4.835 3.543 L 4.687 3.408 L 4.687 3.579 L 4.588 3.654 L 4.588 3.542 L 4.48 3.639 L 4.371 3.542 L 4.371 3.654 Z" fill="#383739"/>
  <path d="M 3.526 3.963 L 3.526 3.872 L 3.627 3.945 L 3.63 3.942 L 3.728 3.872 L 3.728 3.963 L 3.834 3.886 L 3.834 4.946 L 3.728 4.87 L 3.728 4.961 L 3.627 4.888 L 3.526 4.961 L 3.526 4.87 L 3.42 4.946 L 3.42 4.507 L 3.295 4.507 L 3.295 4.325 L 3.42 4.325 L 3.42 3.886 L 3.526 3.963 Z M 4.383 3.567 L 4.48 3.654 L 4.577 3.567 L 4.577 3.677 L 4.687 3.593 L 4.687 5.239 L 4.577 5.156 L 4.577 5.265 L 4.48 5.179 L 4.383 5.265 L 4.383 5.156 L 4.272 5.239 L 4.272 3.593 L 4.383 3.677 L 4.383 3.567 Z M 5.697 3.567 L 5.6 3.654 L 5.503 3.567 L 5.503 3.677 L 5.393 3.593 L 5.393 5.239 L 5.503 5.156 L 5.503 5.265 L 5.6 5.179 L 5.697 5.265 L 5.697 5.156 L 5.808 5.239 L 5.808 3.593 L 5.697 3.677 L 5.697 3.567 Z M 6.554 3.963 L 6.554 3.872 L 6.453 3.945 L 6.449 3.942 L 6.352 3.872 L 6.351 3.963 L 6.245 3.886 L 6.245 4.946 L 6.351 4.87 L 6.352 4.961 L 6.453 4.888 L 6.554 4.961 L 6.554 4.87 L 6.66 4.946 L 6.66 4.507 L 6.785 4.507 L 6.785 4.325 L 6.66 4.325 L 6.66 3.886 L 6.554 3.963 Z" fill="#00843d"/>
  <path d="M 3.963 3.723 L 4.053 3.804 L 4.143 3.723 L 4.144 3.819 L 4.261 3.744 L 4.261 5.088 L 4.144 5.014 L 4.143 5.109 L 4.053 5.029 L 3.963 5.109 L 3.963 5.014 L 3.846 5.088 L 3.846 3.744 L 3.963 3.819 L 3.963 3.723 Z M 4.847 3.569 L 4.699 3.434 L 4.699 5.399 L 4.847 5.264 L 4.847 5.427 L 5.04 5.303 L 5.233 5.427 L 5.233 5.264 L 5.381 5.399 L 5.381 3.434 L 5.233 3.569 L 5.233 3.405 L 5.04 3.529 L 4.847 3.405 L 4.847 3.569 Z M 6.117 3.723 L 6.027 3.804 L 5.936 3.723 L 5.936 3.819 L 5.819 3.744 L 5.819 5.088 L 5.936 5.014 L 5.936 5.109 L 6.027 5.029 L 6.117 5.109 L 6.117 5.014 L 6.234 5.088 L 6.234 3.744 L 6.117 3.819 L 6.117 3.723 Z" fill="#ffc72c"/>
  <g id="g" fill="#383739" transform="matrix(0.026667, 0, 0, 0.026667, 0, 0)">
    <g id="f">
      <path d="M134.288 158.366c.485.49 1.066.737 1.724.737.659 0 1.239-.247 1.725-.737 1.518-1.53 1.57-4.297 1.554-6.289l-2.072 2.19-1.207-2.083s-.985 1.702-1.207 2.083l-2.072-2.19c-.015 1.992.036 4.759 1.555 6.289zm16.678-4.286l-1.28-1.278v-2.546l-2.937 2.722L152 158.23l5.252-5.252-2.938-2.722v2.546l-1.279 1.278v-4.511l2.265-1.945-3.3-2.834-3.3 2.834 2.266 1.945zm15.987-5.06l-1.279-1.279v-2.546l-2.937 2.723 5.251 5.251 5.251-5.251-2.937-2.723v2.546l-1.28 1.279v-4.512l2.266-1.945-3.3-2.833-3.3 2.833 2.265 1.945z"/>
      <path d="M136.013 153.039l1.123 1.94 1.709-1.806c-.06 2.25-.553 4.026-1.412 4.89-.402.406-.88.612-1.42.612-.54 0-1.018-.206-1.42-.611-.859-.865-1.353-2.642-1.412-4.89l1.708 1.805 1.124-1.94zm32.582-8.727v5.743l2.136-2.135v-1.743l1.891 1.754-4.633 4.633-4.634-4.633 1.891-1.754v1.743l2.136 2.135v-5.743l-2.035-1.748 2.642-2.268 2.642 2.268z" fill="#fff"/>
      <path d="M152.607 149.372v5.743l2.136-2.136v-1.742l1.891 1.753-4.634 4.634-4.633-4.634 1.891-1.753v1.742l2.136 2.136v-5.743l-2.035-1.748 2.641-2.268 2.643 2.268z" fill="#d22730"/>
    </g>
    <g transform="matrix(-1, 0, 0, 1, 377.9960021972656, 0)">
      <path d="M134.288 158.366c.485.49 1.066.737 1.724.737.659 0 1.239-.247 1.725-.737 1.518-1.53 1.57-4.297 1.554-6.289l-2.072 2.19-1.207-2.083s-.985 1.702-1.207 2.083l-2.072-2.19c-.015 1.992.036 4.759 1.555 6.289zm16.678-4.286l-1.28-1.278v-2.546l-2.937 2.722L152 158.23l5.252-5.252-2.938-2.722v2.546l-1.279 1.278v-4.511l2.265-1.945-3.3-2.834-3.3 2.834 2.266 1.945zm15.987-5.06l-1.279-1.279v-2.546l-2.937 2.723 5.251 5.251 5.251-5.251-2.937-2.723v2.546l-1.28 1.279v-4.512l2.266-1.945-3.3-2.833-3.3 2.833 2.265 1.945z"/>
      <path d="M136.013 153.039l1.123 1.94 1.709-1.806c-.06 2.25-.553 4.026-1.412 4.89-.402.406-.88.612-1.42.612-.54 0-1.018-.206-1.42-.611-.859-.865-1.353-2.642-1.412-4.89l1.708 1.805 1.124-1.94zm32.582-8.727v5.743l2.136-2.135v-1.743l1.891 1.754-4.633 4.633-4.634-4.633 1.891-1.754v1.743l2.136 2.135v-5.743l-2.035-1.748 2.642-2.268 2.642 2.268z" fill="#fff"/>
      <path d="M152.607 149.372v5.743l2.136-2.136v-1.742l1.891 1.753-4.634 4.634-4.633-4.634 1.891-1.753v1.742l2.136 2.136v-5.743l-2.035-1.748 2.641-2.268 2.643 2.268z" fill="#d22730"/>
    </g>
    <path d="M195.282 150.937l-1.72-2.377 4.411-4.072-4.113-3.38v2.394l-1.72 1.472v-4.342l3.885-2.864-7.029-5.18-7.029 5.18 3.887 2.864v4.342l-1.72-1.472v-2.394l-4.114 3.38 4.412 4.072-1.72 2.377z"/>
    <path d="M183.552 150.509l1.45-2.006-4.328-3.996 3.032-2.491v1.684l2.577 2.206v-5.49l-3.592-2.647 6.307-4.649 6.306 4.649-3.591 2.647v5.49l2.577-2.206v-1.684l3.032 2.491-4.329 3.996 1.451 2.006z" fill="#d22730"/>
    <path d="M185.785 137.769l3.212 2.367 3.212-2.367-3.212-2.368-.127.095z"/>
    <path d="M188.997 135.934l2.49 1.835-2.49 1.835-2.49-1.835 2.49-1.835z" fill="#00843d"/>
  </g>
  <g fill="#383739" transform="matrix(0.026667, 0, 0, -0.026667, 0, 8.832427)">
    <g>
      <path d="M134.288 158.366c.485.49 1.066.737 1.724.737.659 0 1.239-.247 1.725-.737 1.518-1.53 1.57-4.297 1.554-6.289l-2.072 2.19-1.207-2.083s-.985 1.702-1.207 2.083l-2.072-2.19c-.015 1.992.036 4.759 1.555 6.289zm16.678-4.286l-1.28-1.278v-2.546l-2.937 2.722L152 158.23l5.252-5.252-2.938-2.722v2.546l-1.279 1.278v-4.511l2.265-1.945-3.3-2.834-3.3 2.834 2.266 1.945zm15.987-5.06l-1.279-1.279v-2.546l-2.937 2.723 5.251 5.251 5.251-5.251-2.937-2.723v2.546l-1.28 1.279v-4.512l2.266-1.945-3.3-2.833-3.3 2.833 2.265 1.945z"/>
      <path d="M136.013 153.039l1.123 1.94 1.709-1.806c-.06 2.25-.553 4.026-1.412 4.89-.402.406-.88.612-1.42.612-.54 0-1.018-.206-1.42-.611-.859-.865-1.353-2.642-1.412-4.89l1.708 1.805 1.124-1.94zm32.582-8.727v5.743l2.136-2.135v-1.743l1.891 1.754-4.633 4.633-4.634-4.633 1.891-1.754v1.743l2.136 2.135v-5.743l-2.035-1.748 2.642-2.268 2.642 2.268z" fill="#fff"/>
      <path d="M152.607 149.372v5.743l2.136-2.136v-1.742l1.891 1.753-4.634 4.634-4.633-4.634 1.891-1.753v1.742l2.136 2.136v-5.743l-2.035-1.748 2.641-2.268 2.643 2.268z" fill="#d22730"/>
    </g>
    <g transform="matrix(-1, 0, 0, 1, 377.9960021972656, 0)">
      <path d="M134.288 158.366c.485.49 1.066.737 1.724.737.659 0 1.239-.247 1.725-.737 1.518-1.53 1.57-4.297 1.554-6.289l-2.072 2.19-1.207-2.083s-.985 1.702-1.207 2.083l-2.072-2.19c-.015 1.992.036 4.759 1.555 6.289zm16.678-4.286l-1.28-1.278v-2.546l-2.937 2.722L152 158.23l5.252-5.252-2.938-2.722v2.546l-1.279 1.278v-4.511l2.265-1.945-3.3-2.834-3.3 2.834 2.266 1.945zm15.987-5.06l-1.279-1.279v-2.546l-2.937 2.723 5.251 5.251 5.251-5.251-2.937-2.723v2.546l-1.28 1.279v-4.512l2.266-1.945-3.3-2.833-3.3 2.833 2.265 1.945z"/>
      <path d="M136.013 153.039l1.123 1.94 1.709-1.806c-.06 2.25-.553 4.026-1.412 4.89-.402.406-.88.612-1.42.612-.54 0-1.018-.206-1.42-.611-.859-.865-1.353-2.642-1.412-4.89l1.708 1.805 1.124-1.94zm32.582-8.727v5.743l2.136-2.135v-1.743l1.891 1.754-4.633 4.633-4.634-4.633 1.891-1.754v1.743l2.136 2.135v-5.743l-2.035-1.748 2.642-2.268 2.642 2.268z" fill="#fff"/>
      <path d="M152.607 149.372v5.743l2.136-2.136v-1.742l1.891 1.753-4.634 4.634-4.633-4.634 1.891-1.753v1.742l2.136 2.136v-5.743l-2.035-1.748 2.641-2.268 2.643 2.268z" fill="#d22730"/>
    </g>
    <path d="M195.282 150.937l-1.72-2.377 4.411-4.072-4.113-3.38v2.394l-1.72 1.472v-4.342l3.885-2.864-7.029-5.18-7.029 5.18 3.887 2.864v4.342l-1.72-1.472v-2.394l-4.114 3.38 4.412 4.072-1.72 2.377z"/>
    <path d="M183.552 150.509l1.45-2.006-4.328-3.996 3.032-2.491v1.684l2.577 2.206v-5.49l-3.592-2.647 6.307-4.649 6.306 4.649-3.591 2.647v5.49l2.577-2.206v-1.684l3.032 2.491-4.329 3.996 1.451 2.006z" fill="#d22730"/>
    <path d="M185.785 137.769l3.212 2.367 3.212-2.367-3.212-2.368-.127.095z"/>
    <path d="M188.997 135.934l2.49 1.835-2.49 1.835-2.49-1.835 2.49-1.835z" fill="#00843d"/>
  </g>
  <path d="M 6.557 4.351 L 6.37 4.351 L 6.37 4.276 L 5.796 4.276 L 5.397 4.014 L 4.683 4.014 L 4.284 4.276 L 3.71 4.276 L 3.71 4.351 L 3.522 4.351 L 3.522 4.482 L 3.71 4.482 L 3.71 4.557 L 4.284 4.557 L 4.683 4.819 L 5.397 4.819 L 5.796 4.557 L 6.37 4.557 L 6.37 4.482 L 6.557 4.482 L 6.557 4.351 Z" fill="#383739"/>
  <path d="M 4.686 4.025 L 4.287 4.287 L 3.722 4.287 L 3.722 4.362 L 3.534 4.362 L 3.534 4.47 L 3.722 4.47 L 3.722 4.545 L 4.287 4.545 L 4.686 4.808 L 5.394 4.808 L 5.792 4.545 L 6.359 4.545 L 6.359 4.47 L 6.547 4.47 L 6.547 4.362 L 6.359 4.362 L 6.359 4.287 L 5.792 4.287 L 5.394 4.025 L 4.686 4.025 Z M 4.695 4.064 L 5.384 4.064 L 5.75 4.304 L 5.75 4.34 L 6.158 4.34 L 6.158 4.493 L 5.75 4.493 L 5.75 4.53 L 5.384 4.768 L 4.695 4.768 L 4.331 4.53 L 4.331 4.493 L 3.921 4.493 L 3.921 4.34 L 4.331 4.34 L 4.331 4.304 L 4.695 4.064 Z" fill="#d22730"/>
  <path d="M 5.381 4.075 L 5.738 4.31 L 5.738 4.351 L 6.147 4.351 L 6.147 4.481 L 5.738 4.481 L 5.738 4.523 L 5.381 4.757 L 4.699 4.757 L 4.342 4.523 L 4.342 4.481 L 3.933 4.481 L 3.933 4.351 L 4.342 4.351 L 4.342 4.31 L 4.699 4.075 L 5.381 4.075 Z" fill="#d22730"/>
  <g fill="#383739" transform="matrix(0.026667, 0, 0, 0.026667, 0, 0)">
    <path d="M169.551 170.598l5.793 4.349 3.81-2.862-2.215-1.663-1.595 1.198-1.362-1.022 21.815-16.379h-4.43zm12.645 6.4h4.43l21.816-16.378-5.792-4.348-3.811 2.86 2.215 1.663 1.596-1.198 1.362 1.023zm9.171 0h4.43l-21.815-16.378 1.362-1.023 1.595 1.198 2.216-1.662-3.811-2.861-5.793 4.348zm12.645-6.4l-1.362 1.022-1.596-1.198-2.215 1.663 3.811 2.862 5.792-4.349-21.816-16.379h-4.43zm-38.848-4.989l3.893 2.586 3.894-2.586-3.894-2.586z"/>
    <path d="M185.104 165.609l3.893 2.586 3.894-2.586-3.894-2.586zm27.728 0l-3.893 2.586-3.894-2.586 3.894-2.586z"/>
    <path d="M207.729 170.598l-5.078 3.813-3.098-2.326 1.502-1.127 1.596 1.198 2.075-1.558-21.245-15.95h3.003zm-13.216 5.972h-3.003l-21.244-15.95 5.079-3.813 3.096 2.326-1.501 1.126-1.595-1.198-2.076 1.559zm-8.029 0h-3.003l21.245-15.95-2.075-1.559-1.596 1.198-1.502-1.126 3.098-2.326 5.078 3.813zm5.026-21.922h3.003l-21.244 15.95 2.076 1.558 1.595-1.198 1.501 1.127-3.096 2.326-5.08-3.813z" fill="#ffc72c"/>
    <path d="M169.057 163.538l3.119 2.071-3.119 2.071-3.119-2.07zm19.941 0l3.119 2.071-3.119 2.071-3.118-2.07zm19.941 0l-3.119 2.071 3.119 2.071 3.118-2.07z" fill="#00843d"/>
  </g>
  <g fill="#383739" transform="matrix(0.026667, 0, 0, 0.026667, 0, 0)">
    <path d="M120.514 274.151l-1.528 2.16 2.739 2.095-2.74 2.094 1.528 2.16 3.182.37 3.081-2.38 7.682 4.88v-4.053l-4.835-3.071 4.835-3.071v-4.053l-7.682 4.88-3.08-2.38z"/>
    <path d="M120.514 260.073l-1.528 2.161 2.739 2.094-2.74 2.094 1.528 2.161 3.182.37 3.081-2.381 7.682 4.88v-4.053l-4.835-3.07 4.835-3.072v-4.053l-7.682 4.88-3.08-2.38zm0 36.666l-1.528-2.16 2.739-2.095-2.74-2.094 1.528-2.16 3.182-.37 3.081 2.38 7.682-4.88v4.053l-4.835 3.071 4.835 3.071v4.053l-7.682-4.88-3.08 2.38zm136.968-22.588l1.528 2.16-2.739 2.095 2.739 2.094-1.528 2.16-3.181.37-3.081-2.38-7.683 4.88v-4.053l4.836-3.071-4.836-3.071v-4.053l7.683 4.88 3.08-2.38z"/>
    <path d="M257.482 260.073l1.528 2.161-2.739 2.094 2.739 2.094-1.528 2.161-3.181.37-3.081-2.381-7.683 4.88v-4.053l4.836-3.07-4.836-3.072v-4.053l7.683 4.88 3.08-2.38zm0 36.666l1.528-2.16-2.739-2.095 2.739-2.094-1.528-2.16-3.181-.37-3.081 2.38-7.683-4.88v4.053l4.836 3.071-4.836 3.071v4.053l7.683-4.88 3.08 2.38zm-30.755-61.009v5.856h4.26v2.588h4.184v-4.713h-3.732v-3.731zm12.556 9.235v5.855h4.255v2.589h4.189v-4.713h-3.732v-3.731zm-88.014-9.235v5.856h-4.26v2.588h-4.184v-4.713h3.732v-3.731zm75.458 85.353v-5.856h4.26v-2.588h4.184v4.712h-3.732v3.732zm-75.458 0v-5.856h-4.26v-2.588h-4.184v4.712h3.732v3.732zm88.014-9.235v-5.855h4.255v-2.589h4.189v4.712h-3.732v3.732zm-100.569-66.883v5.855h-4.256v2.589h-4.188v-4.713h3.732v-3.731zm0 66.883v-5.855h-4.256v-2.589h-4.188v4.712h3.732v3.732zm66.039-76.254l-3.25-3.156-3.194 2.959 2.783 2.701-3.592 3.488h5.334l1.919-1.863 1.92 1.863h5.333l-3.593-3.488 2.783-2.701-3.193-2.959c-1.085 1.05-2.167 2.104-3.25 3.156zm-15.755 0l-3.25-3.156-3.193 2.959 2.783 2.701-3.593 3.488h5.334l1.919-1.863 1.92 1.863h5.333l-3.592-3.488 2.782-2.701-3.192-2.959c-1.085 1.05-2.167 2.104-3.251 3.156zm-15.754 0l3.25-3.156 3.194 2.959-2.783 2.701 3.592 3.488h-5.334l-1.919-1.863-1.92 1.863h-5.333l3.593-3.488-2.783-2.701 3.193-2.959c1.085 1.05 2.167 2.104 3.25 3.156zm31.509 85.625l-3.25 3.155-3.194-2.958 2.783-2.701-3.592-3.488h5.334l1.919 1.863 1.92-1.863h5.333l-3.593 3.488 2.783 2.7-3.193 2.96c-1.085-1.051-2.167-2.104-3.25-3.156zm-15.755 0l-3.25 3.155-3.193-2.958 2.783-2.701-3.593-3.488h5.334l1.919 1.863 1.92-1.863h5.333l-3.592 3.488 2.782 2.7-3.192 2.96c-1.085-1.051-2.167-2.104-3.251-3.156zm-15.754 0l3.25 3.155 3.194-2.958-2.783-2.701 3.592-3.488h-5.334l-1.919 1.863-1.92-1.863h-5.333l3.593 3.488-2.783 2.7 3.193 2.96c1.085-1.051 2.167-2.104 3.25-3.156z"/>
  </g>
  <path d="M 3.574 7.512 L 3.574 7.593 L 3.38 7.47 L 3.295 7.536 L 3.22 7.527 L 3.189 7.482 L 3.265 7.424 L 3.189 7.366 L 3.22 7.321 L 3.295 7.313 L 3.38 7.378 L 3.574 7.255 L 3.574 7.336 L 3.435 7.424 L 3.574 7.512 Z M 3.574 7.137 L 3.574 7.218 L 3.38 7.095 L 3.295 7.16 L 3.22 7.151 L 3.189 7.107 L 3.265 7.049 L 3.189 6.991 L 3.22 6.946 L 3.295 6.937 L 3.38 7.003 L 3.574 6.88 L 3.574 6.961 L 3.435 7.049 L 3.574 7.137 Z M 3.574 7.711 L 3.574 7.63 L 3.38 7.754 L 3.295 7.688 L 3.22 7.697 L 3.189 7.741 L 3.265 7.8 L 3.189 7.858 L 3.22 7.902 L 3.295 7.911 L 3.38 7.845 L 3.574 7.969 L 3.574 7.888 L 3.435 7.8 L 3.574 7.711 Z M 6.506 7.512 L 6.506 7.593 L 6.7 7.47 L 6.785 7.536 L 6.86 7.527 L 6.891 7.482 L 6.815 7.424 L 6.891 7.366 L 6.86 7.321 L 6.785 7.313 L 6.7 7.378 L 6.506 7.255 L 6.506 7.336 L 6.645 7.424 L 6.506 7.512 Z M 6.506 7.137 L 6.506 7.218 L 6.7 7.095 L 6.785 7.16 L 6.86 7.151 L 6.891 7.107 L 6.815 7.049 L 6.891 6.991 L 6.86 6.946 L 6.785 6.937 L 6.7 7.003 L 6.506 6.88 L 6.506 6.961 L 6.645 7.049 L 6.506 7.137 Z M 6.506 7.711 L 6.506 7.63 L 6.7 7.754 L 6.785 7.688 L 6.86 7.697 L 6.891 7.741 L 6.815 7.8 L 6.891 7.858 L 6.86 7.902 L 6.785 7.911 L 6.7 7.845 L 6.506 7.969 L 6.506 7.888 L 6.645 7.8 L 6.506 7.711 Z M 6.16 6.298 L 6.16 6.397 L 6.26 6.397 L 6.26 6.5 L 6.171 6.5 L 6.171 6.431 L 6.057 6.431 L 6.057 6.298 L 6.16 6.298 Z M 6.495 6.544 L 6.495 6.643 L 6.595 6.643 L 6.595 6.746 L 6.506 6.746 L 6.506 6.677 L 6.392 6.677 L 6.392 6.544 L 6.495 6.544 Z M 3.92 6.298 L 3.92 6.397 L 3.82 6.397 L 3.82 6.5 L 3.909 6.5 L 3.909 6.431 L 4.022 6.431 L 4.022 6.298 L 3.92 6.298 Z M 6.16 8.551 L 6.16 8.451 L 6.26 8.451 L 6.26 8.348 L 6.171 8.348 L 6.171 8.417 L 6.057 8.417 L 6.057 8.551 L 6.16 8.551 Z M 3.92 8.551 L 3.92 8.451 L 3.82 8.451 L 3.82 8.348 L 3.909 8.348 L 3.909 8.417 L 4.022 8.417 L 4.022 8.551 L 3.92 8.551 Z M 6.495 8.305 L 6.495 8.205 L 6.595 8.205 L 6.595 8.102 L 6.506 8.102 L 6.506 8.171 L 6.392 8.171 L 6.392 8.305 L 6.495 8.305 Z M 3.585 6.544 L 3.585 6.643 L 3.485 6.643 L 3.485 6.746 L 3.574 6.746 L 3.574 6.677 L 3.688 6.677 L 3.688 6.544 L 3.585 6.544 Z M 3.585 8.305 L 3.585 8.205 L 3.485 8.205 L 3.485 8.102 L 3.574 8.102 L 3.574 8.171 L 3.688 8.171 L 3.688 8.305 L 3.585 8.305 Z M 5.373 6.214 L 5.46 6.298 L 5.547 6.214 L 5.615 6.277 L 5.541 6.349 L 5.625 6.431 L 5.516 6.431 L 5.46 6.377 L 5.404 6.431 L 5.295 6.431 L 5.379 6.349 L 5.305 6.277 L 5.373 6.214 Z M 4.953 6.214 L 5.04 6.298 L 5.127 6.214 L 5.195 6.277 L 5.121 6.349 L 5.205 6.431 L 5.096 6.431 L 5.04 6.377 L 4.984 6.431 L 4.875 6.431 L 4.959 6.349 L 4.885 6.277 L 4.953 6.214 Z M 4.707 6.214 L 4.62 6.298 L 4.533 6.214 L 4.465 6.277 L 4.539 6.349 L 4.455 6.431 L 4.564 6.431 L 4.62 6.377 L 4.676 6.431 L 4.785 6.431 L 4.701 6.349 L 4.775 6.277 L 4.707 6.214 Z M 5.373 8.634 L 5.46 8.55 L 5.547 8.634 L 5.615 8.571 L 5.541 8.499 L 5.625 8.417 L 5.516 8.417 L 5.46 8.472 L 5.404 8.417 L 5.295 8.417 L 5.379 8.499 L 5.305 8.571 L 5.373 8.634 Z M 4.953 8.634 L 5.04 8.55 L 5.127 8.634 L 5.195 8.571 L 5.121 8.499 L 5.205 8.417 L 5.096 8.417 L 5.04 8.472 L 4.984 8.417 L 4.875 8.417 L 4.959 8.499 L 4.885 8.571 L 4.953 8.634 Z M 4.707 8.634 L 4.62 8.55 L 4.533 8.634 L 4.465 8.571 L 4.539 8.499 L 4.455 8.417 L 4.564 8.417 L 4.62 8.472 L 4.676 8.417 L 4.785 8.417 L 4.701 8.499 L 4.775 8.571 L 4.707 8.634 Z" fill="#00843d"/>
  <path d="M 3.909 8.171 L 3.909 8.417 L 6.171 8.417 L 6.171 8.171 L 6.506 8.171 L 6.506 6.677 L 6.171 6.677 L 6.171 6.431 L 3.909 6.431 L 3.909 6.677 L 3.574 6.677 L 3.574 8.171 L 3.909 8.171 Z" fill="#383739"/>
  <path d="M 3.921 6.442 L 3.921 6.688 L 3.586 6.688 L 3.586 8.16 L 3.921 8.16 L 3.921 8.405 L 6.16 8.405 L 6.16 8.16 L 6.494 8.16 L 6.494 6.688 L 6.16 6.688 L 6.16 6.442 L 3.921 6.442 Z M 4.065 6.537 L 6.016 6.537 L 6.016 6.774 L 6.096 6.833 L 6.4 6.833 L 6.4 8.016 L 6.095 8.016 L 6.016 8.073 L 6.016 8.312 L 4.065 8.312 L 4.065 8.075 L 3.984 8.016 L 3.679 8.016 L 3.679 6.833 L 3.983 6.833 L 4.065 6.774 L 4.065 6.537 L 4.065 6.537 Z" fill="#ffc72c"/>
  <path d="M 4.076 6.548 L 4.076 6.766 L 4.37 6.548 L 4.076 6.548 Z M 5.709 6.548 L 6.003 6.766 L 6.003 6.548 L 5.709 6.548 Z M 3.692 6.845 L 3.692 7.048 L 3.969 6.845 L 3.692 6.845 L 3.692 6.845 Z M 6.11 6.845 L 6.388 7.049 L 6.388 6.845 L 6.11 6.845 Z M 6.388 7.798 L 6.11 8.004 L 6.388 8.004 L 6.388 7.798 Z M 3.692 7.799 L 3.692 8.004 L 3.969 8.004 L 3.692 7.799 Z M 4.076 8.083 L 4.076 8.299 L 4.369 8.299 L 4.076 8.083 Z M 6.003 8.083 L 5.71 8.299 L 6.003 8.299 L 6.003 8.083 Z" fill="#d22730"/>
  <path d="M 5.69 6.548 L 6.388 7.064 L 6.388 7.784 L 5.69 8.3 L 4.39 8.3 L 3.691 7.784 L 3.691 7.064 L 4.39 6.548 L 5.69 6.548 Z" fill="#00843d"/>
  <path d="M 3.858 7.867 L 3.778 7.774 L 3.853 7.687 L 3.777 7.599 L 3.853 7.512 L 3.777 7.424 L 3.853 7.337 L 3.777 7.249 L 3.853 7.162 L 3.777 7.074 L 3.858 6.981 L 6.222 6.981 L 6.302 7.074 L 6.227 7.162 L 6.302 7.249 L 6.227 7.337 L 6.302 7.424 L 6.227 7.512 L 6.302 7.599 L 6.227 7.687 L 6.302 7.774 L 6.222 7.867 L 3.858 7.867 Z M 5.483 6.661 L 5.39 6.581 L 5.302 6.656 L 5.215 6.581 L 5.127 6.656 L 5.04 6.581 L 4.952 6.656 L 4.865 6.581 L 4.778 6.656 L 4.69 6.581 L 4.597 6.661 L 4.597 8.187 L 4.69 8.268 L 4.778 8.192 L 4.865 8.268 L 4.952 8.192 L 5.04 8.268 L 5.127 8.192 L 5.215 8.268 L 5.302 8.192 L 5.39 8.268 L 5.483 8.187 L 5.483 6.661 Z" fill="#383739"/>
  <g fill="#ffc72c" transform="matrix(0.026667, 0, 0, 0.026667, 0, 0)">
    <path d="M198.623 249.981l-3.065-2.642-3.066 2.642v56.85l3.066 2.641 3.065-2.641zm-13.12 0l-3.066-2.642-3.065 2.642v56.85l3.065 2.641 3.066-2.641z"/>
    <path d="M144.863 294.593l-2.641-3.066 2.641-3.066h88.269l2.641 3.066-2.641 3.066zm88.269-19.253l2.642 3.066-2.642 3.065h-88.268l-2.642-3.065 2.642-3.066zm0-6.988l2.641-3.066-2.641-3.065h-88.269l-2.641 3.065 2.641 3.066z"/>
  </g>
  <g fill="#d22730" transform="matrix(0.026667, 0, 0, 0.026667, 0, 0)">
    <path d="M205.184 249.981l-3.065-2.642-3.066 2.642v56.85l3.066 2.641 3.064-2.64zm-26.241 0l-3.066-2.642-3.066 2.642v56.85l3.066 2.641 3.066-2.641z"/>
    <path d="M144.864 288.032l-2.642-3.066 2.642-3.066h88.268l2.642 3.066-2.642 3.066zm0-13.12l-2.642-3.066 2.642-3.066h88.268l2.642 3.066-2.642 3.066z"/>
    <path d="M192.064 306.831l-3.066 2.641-3.066-2.641v-56.85l3.066-2.642 3.066 2.642z"/>
  </g>
  <path d="M 5.83 6.696 L 4.244 6.696 L 4.244 6.822 L 4.041 6.822 L 4.041 8.027 L 4.244 8.027 L 4.244 8.153 L 5.836 8.153 L 5.836 8.027 L 6.039 8.027 L 6.039 6.822 L 5.836 6.822 L 5.836 6.696 L 5.83 6.696 Z" fill="#383739"/>
  <path d="M 4.256 6.708 L 4.256 6.833 L 4.052 6.833 L 4.052 8.016 L 4.256 8.016 L 4.256 8.141 L 4.422 8.141 L 4.09 7.863 L 4.09 6.986 L 4.422 6.708 L 4.256 6.708 L 4.256 6.708 Z M 5.658 6.708 L 5.989 6.986 L 5.989 7.863 L 5.658 8.141 L 5.825 8.141 L 5.825 8.016 L 6.027 8.016 L 6.027 6.833 L 5.825 6.833 L 5.825 6.708 L 5.658 6.708 L 5.658 6.708 Z" fill="#d22730"/>
  <g fill="#00843d" transform="matrix(0.026667, 0, 0, 0.026667, 0, 0)">
    <path d="M166.525 251.535l-12.712 10.646v32.468c.15.127 12.594 10.547 12.712 10.646h44.968l12.659-10.646v-32.468l-12.659-10.646zm.636 1.8h43.644l11.546 9.694v30.773l-11.546 9.64H167.16l-11.494-9.64v-30.773z"/>
    <path d="M178.72 294.289l1.954.844.359 2.282-2.46 2.164 3.573 3.454h-3.437l-2.458-2.366-2.458 2.366h-3.438l3.573-3.454-2.46-2.164.36-2.282 1.953-.844 2.47 1.975.134-.107zm12.748 0l1.953.844.36 2.282-2.46 2.164 3.573 3.454h-3.437l-2.459-2.366-2.457 2.366h-3.438l3.573-3.454-2.46-2.164.36-2.282 1.953-.844 2.47 1.975.133-.107zm7.809 0l-1.953.844-.36 2.282 2.46 2.164-3.573 3.454h3.437l2.459-2.366 2.457 2.366h3.438l-3.573-3.454 2.46-2.164-.36-2.282-1.953-.844-2.47 1.975-.134-.107zm-20.557-31.766l1.954-.844.359-2.281-2.46-2.164 3.573-3.454h-3.437l-2.458 2.365-2.458-2.365h-3.438l3.573 3.454-2.46 2.163.36 2.282 1.953.844 2.47-1.974.134.107zm12.748 0l1.953-.844.36-2.281-2.46-2.164 3.573-3.454h-3.437l-2.459 2.365-2.457-2.365h-3.438l3.573 3.454-2.46 2.163.36 2.282 1.953.844 2.47-1.974.133.107zm7.809 0l-1.953-.844-.36-2.281 2.46-2.164-3.573-3.454h3.437l2.459 2.365 2.457-2.365h3.438l-3.573 3.454 2.46 2.163-.36 2.282-1.953.844-2.47-1.974-.134.107zm22.624 3.644l-1.95 1.615 1.95 1.614v2.676l-2.999-2.471-2.152 1.95-2.308-.29-.813-1.5 1.986-1.98-1.986-1.98.813-1.5c.192-.023 2.135-.268 2.308-.29l2.152 1.95 2.999-2.47zm0 10.625l-1.95 1.615 1.95 1.613v2.677l-2.999-2.471-2.152 1.95c-.173-.022-2.116-.267-2.308-.29l-.813-1.5 1.986-1.98-1.986-1.98.813-1.5c.192-.023 2.135-.268 2.308-.29l2.152 1.95 2.999-2.47zm0 13.854l-1.95-1.615 1.95-1.614v-2.676l-2.999 2.471-2.152-1.95-2.308.29-.813 1.5 1.986 1.98-1.986 1.98.813 1.5c.192.023 2.135.268 2.308.29l2.152-1.95 2.999 2.47zm-65.804-24.479l1.95 1.615-1.95 1.614v2.676l2.999-2.471 2.152 1.95 2.308-.29.813-1.5-1.986-1.98 1.986-1.98-.813-1.5c-.192-.023-2.136-.268-2.308-.29l-2.152 1.95-2.999-2.47zm0 10.625l1.95 1.615-1.95 1.613v2.677l2.999-2.471 2.152 1.95c.172-.022 2.116-.267 2.308-.29l.813-1.5-1.986-1.98 1.986-1.98-.813-1.5c-.192-.023-2.136-.268-2.308-.29l-2.152 1.95-2.999-2.47zm0 13.854l1.95-1.615-1.95-1.614v-2.676l2.999 2.471 2.152-1.95 2.308.29.813 1.5-1.986 1.98 1.986 1.98-.813 1.5c-.192.023-2.136.268-2.308.29l-2.152-1.95-2.999 2.47z"/>
  </g>
  <path d="M 4.462 6.767 C 4.459 6.77 4.179 7.004 4.167 7.014 C 4.192 7.035 4.216 7.057 4.242 7.078 C 4.248 7.072 4.297 7.028 4.297 7.028 L 4.369 7.038 L 4.397 7.09 L 4.346 7.141 C 4.353 7.148 4.397 7.192 4.397 7.192 L 4.369 7.244 L 4.297 7.253 C 4.297 7.253 4.248 7.211 4.242 7.205 L 4.162 7.271 L 4.162 7.294 C 4.189 7.316 4.215 7.338 4.242 7.36 C 4.248 7.354 4.297 7.312 4.297 7.312 L 4.369 7.321 L 4.397 7.373 L 4.346 7.424 C 4.353 7.431 4.397 7.475 4.397 7.475 L 4.369 7.528 L 4.297 7.537 C 4.297 7.537 4.248 7.493 4.242 7.487 L 4.162 7.554 L 4.162 7.578 L 4.242 7.644 C 4.248 7.638 4.297 7.595 4.297 7.595 L 4.369 7.605 L 4.397 7.657 L 4.346 7.708 L 4.397 7.758 L 4.369 7.811 L 4.297 7.821 C 4.297 7.821 4.248 7.777 4.242 7.771 C 4.216 7.792 4.192 7.813 4.167 7.833 L 4.462 8.081 L 4.527 8.081 L 4.621 7.989 L 4.561 7.935 L 4.572 7.862 L 4.636 7.835 L 4.701 7.886 L 4.764 7.835 L 4.828 7.862 L 4.84 7.935 L 4.778 7.989 L 4.87 8.076 L 4.962 7.989 L 4.9 7.935 L 4.911 7.862 L 4.976 7.835 L 5.04 7.886 L 5.105 7.835 L 5.168 7.862 L 5.179 7.935 L 5.119 7.989 L 5.209 8.078 L 5.301 7.989 L 5.24 7.935 L 5.251 7.862 L 5.316 7.835 L 5.38 7.886 L 5.443 7.835 L 5.508 7.862 L 5.52 7.935 L 5.459 7.989 L 5.554 8.081 L 5.617 8.081 L 5.912 7.833 C 5.887 7.813 5.863 7.792 5.838 7.771 C 5.831 7.777 5.784 7.821 5.784 7.821 L 5.712 7.811 L 5.682 7.758 L 5.733 7.708 L 5.682 7.657 L 5.712 7.605 L 5.784 7.595 C 5.784 7.595 5.831 7.638 5.838 7.644 L 5.917 7.578 L 5.917 7.554 L 5.838 7.487 C 5.831 7.493 5.784 7.537 5.784 7.537 L 5.712 7.528 L 5.682 7.475 L 5.733 7.424 L 5.682 7.373 L 5.712 7.321 L 5.784 7.312 C 5.784 7.312 5.831 7.354 5.838 7.36 C 5.864 7.338 5.89 7.317 5.917 7.295 L 5.917 7.27 L 5.838 7.205 C 5.831 7.211 5.784 7.253 5.784 7.253 L 5.712 7.244 L 5.682 7.192 L 5.733 7.141 L 5.682 7.09 L 5.712 7.038 L 5.784 7.028 C 5.784 7.028 5.831 7.072 5.838 7.078 C 5.863 7.057 5.889 7.036 5.914 7.016 L 5.617 6.767 L 5.554 6.767 L 5.459 6.859 L 5.52 6.912 L 5.508 6.986 L 5.443 7.014 L 5.38 6.963 L 5.316 7.014 L 5.251 6.986 L 5.24 6.912 L 5.301 6.859 L 5.21 6.771 L 5.119 6.859 L 5.179 6.912 L 5.168 6.986 L 5.105 7.014 L 5.04 6.963 L 4.976 7.014 L 4.911 6.986 L 4.9 6.912 L 4.962 6.859 L 4.87 6.771 L 4.778 6.859 L 4.84 6.912 L 4.828 6.986 L 4.764 7.014 L 4.701 6.963 L 4.636 7.014 L 4.572 6.986 L 4.561 6.912 L 4.621 6.859 L 4.525 6.767 L 4.462 6.767 Z M 4.162 7.395 L 4.162 7.453 L 4.196 7.424 L 4.162 7.395 Z" fill="#d22730"/>
  <path d="M 4.701 8.034 L 4.651 8.08 L 4.749 8.08 L 4.701 8.034 Z M 5.04 8.034 L 4.992 8.08 L 5.089 8.08 L 5.04 8.034 Z M 5.38 8.034 L 5.331 8.08 L 5.429 8.08 L 5.38 8.034 Z M 4.65 6.767 L 4.701 6.815 L 4.75 6.767 L 4.65 6.767 Z M 4.99 6.767 L 5.04 6.815 L 5.09 6.767 L 4.99 6.767 Z M 5.331 6.767 L 5.38 6.815 L 5.429 6.767 L 5.331 6.767 Z M 5.917 7.113 L 5.883 7.141 L 5.917 7.168 L 5.917 7.113 Z M 5.917 7.395 L 5.883 7.424 L 5.917 7.452 L 5.917 7.395 Z M 5.917 7.679 L 5.883 7.708 L 5.917 7.736 L 5.917 7.679 Z M 4.162 7.112 L 4.162 7.169 L 4.196 7.141 L 4.162 7.112 Z M 4.162 7.395 L 4.162 7.453 L 4.196 7.424 L 4.162 7.395 Z M 4.162 7.678 L 4.162 7.736 L 4.196 7.708 L 4.162 7.678 Z" fill="#fff"/>
  <g fill="#383739" transform="matrix(0.026667, 0, 0, 0.026667, 0, 0)">
    <path d="M199.901 274.857v-3.791h-3.837v-4.157h-14.132v4.157h-3.837v3.791h-5.299v7.098h5.3v3.79h3.836v4.158h14.132v-4.157h3.837v-3.791h5.299v-7.098z"/>
    <path d="M188.783 267.338v4.285l-6.074 3.453v3.116h-9.485v-2.906h5.299v-3.791h3.837v-4.157zm.429 22.137v-4.285l6.074-3.453v-3.116h9.485v2.906h-5.299v3.791h-3.837v4.157z" fill="#ffc72c"/>
    <path d="M195.286 278.192v-3.116l-6.074-3.453v-4.285h6.423v4.157h3.837v3.79h5.299v2.907zm-22.061.429h9.484v3.116l6.075 3.453v4.285h-6.423v-4.157h-3.837v-3.791h-5.299z" fill="#fff"/>
    <path d="M183.138 278.621v2.888l5.645 3.21v-6.098z" fill="#d22730"/>
    <path d="M188.783 272.094l-5.645 3.21v2.888h5.645z" fill="#00843d"/>
    <path d="M194.858 278.192v-2.888l-5.645-3.21v6.098z" fill="#d22730"/>
    <path d="M189.212 284.719l5.645-3.21v-2.888h-5.645z" fill="#00843d"/>
  </g>
  <path d="M 3.671 9.433 L 3.671 9.745 L 3.373 9.745 L 3.373 10.029 L 3.071 10.029 L 3.071 10.836 L 3.373 10.836 L 3.373 11.119 L 3.671 11.119 L 3.671 11.431 L 4.753 11.431 L 4.944 11.546 L 4.852 11.601 L 4.466 11.601 L 4.433 11.563 L 4.783 11.563 L 4.684 11.464 L 4.184 11.464 L 4.41 11.7 L 4.88 11.7 L 5.04 11.604 L 5.2 11.7 L 5.67 11.7 L 5.896 11.464 L 5.396 11.464 L 5.297 11.563 L 5.647 11.563 L 5.614 11.601 L 5.228 11.601 L 5.136 11.546 L 5.327 11.431 L 6.409 11.431 L 6.409 11.119 L 6.707 11.119 L 6.707 10.836 L 7.009 10.836 L 7.009 10.029 L 6.707 10.029 L 6.707 9.745 L 6.409 9.745 L 6.409 9.433 L 5.327 9.433 L 5.136 9.318 L 5.228 9.263 L 5.614 9.263 L 5.647 9.301 L 5.297 9.301 L 5.396 9.4 L 5.896 9.4 L 5.67 9.164 L 5.2 9.164 L 5.04 9.261 L 4.88 9.164 L 4.41 9.164 L 4.184 9.4 L 4.684 9.4 L 4.783 9.301 L 4.433 9.301 L 4.466 9.263 L 4.852 9.263 L 4.944 9.318 L 4.753 9.433 L 3.671 9.433 Z" fill="#d22730"/>
  <path d="M 5.323 11.419 L 6.398 11.419 L 6.398 11.107 L 6.695 11.107 L 6.695 10.823 L 6.997 10.823 L 6.997 10.04 L 6.695 10.04 L 6.695 9.757 L 6.398 9.757 L 6.398 9.445 L 5.323 9.445 L 4.877 9.175 L 4.415 9.175 L 4.21 9.388 L 4.679 9.388 L 4.756 9.312 L 4.407 9.312 L 4.46 9.251 L 4.856 9.251 L 5.362 9.556 L 6.285 9.556 L 6.285 9.869 L 6.583 9.869 L 6.583 10.153 L 6.886 10.153 L 6.886 10.712 L 6.583 10.712 L 6.583 10.996 L 6.285 10.996 L 6.285 11.308 L 5.362 11.308 L 4.856 11.612 L 4.46 11.612 L 4.407 11.552 L 4.756 11.552 L 4.679 11.476 L 4.21 11.476 L 4.415 11.689 L 4.877 11.689 L 5.323 11.419 Z M 4.718 11.308 L 3.794 11.308 L 3.794 10.996 L 3.497 10.996 L 3.497 10.712 L 3.195 10.712 L 3.195 10.153 L 3.497 10.153 L 3.497 9.869 L 3.794 9.869 L 3.794 9.556 L 4.718 9.556 L 5.225 9.251 L 5.619 9.251 L 5.672 9.312 L 5.325 9.312 L 5.401 9.388 L 5.87 9.388 L 5.665 9.175 L 5.203 9.175 L 4.757 9.445 L 3.682 9.445 L 3.682 9.757 L 3.384 9.757 L 3.384 10.04 L 3.082 10.04 L 3.082 10.823 L 3.384 10.823 L 3.384 11.107 L 3.682 11.107 L 3.682 11.419 L 4.757 11.419 L 5.203 11.689 L 5.665 11.689 L 5.87 11.476 L 5.401 11.476 L 5.325 11.552 L 5.672 11.552 L 5.619 11.612 L 5.225 11.612 L 4.718 11.308 Z" fill="#ffc72c"/>
  <path d="M 5.04 9.376 L 4.72 9.568 L 3.805 9.568 L 3.805 9.88 L 3.508 9.88 L 3.508 10.164 L 3.206 10.164 L 3.206 10.701 L 3.508 10.701 L 3.508 10.985 L 3.805 10.985 L 3.805 11.297 L 4.72 11.297 L 5.04 11.487 L 5.359 11.297 L 6.274 11.297 L 6.274 10.985 L 6.572 10.985 L 6.572 10.701 L 6.874 10.701 L 6.874 10.164 L 6.572 10.164 L 6.572 9.88 L 6.274 9.88 L 6.274 9.568 L 5.359 9.568 L 5.04 9.376 Z M 5.04 9.455 L 5.34 9.636 L 6.208 9.636 L 6.208 9.948 L 6.506 9.948 L 6.506 10.23 L 6.807 10.23 L 6.807 10.633 L 6.506 10.633 L 6.506 10.917 L 6.208 10.917 L 6.208 11.229 L 5.34 11.229 L 5.04 11.41 L 4.74 11.229 L 3.873 11.229 L 3.873 10.917 L 3.575 10.917 L 3.575 10.633 L 3.273 10.633 L 3.273 10.23 L 3.575 10.23 L 3.575 9.948 L 3.873 9.948 L 3.873 9.636 L 4.74 9.636 L 5.04 9.455 Z" fill="none"/>
  <path d="M 6.196 10.905 L 6.196 11.218 L 5.337 11.218 L 5.04 11.396 L 4.743 11.218 L 3.884 11.218 L 3.884 10.905 L 3.586 10.905 L 3.586 10.622 L 3.285 10.622 L 3.285 10.242 L 3.586 10.242 L 3.586 9.959 L 3.884 9.959 L 3.884 9.646 L 4.743 9.646 L 5.04 9.468 L 5.337 9.646 L 6.196 9.646 L 6.196 9.959 L 6.494 9.959 L 6.494 10.242 L 6.795 10.242 L 6.795 10.622 L 6.494 10.622 L 6.494 10.905 L 6.196 10.905 Z" fill="#00843d"/>
  <g fill="#383739" transform="matrix(0.026667, 0, 0, 0.026667, 0, 0)">
    <path d="M149.869 404.849v11.34h17.7l-17.7-11.74zm0-27.291v-11.34h17.7l-17.7 11.739zm78.258 27.291v11.34h-17.7l17.7-11.74zm0-27.291v-11.34h-17.7l17.7 11.739z"/>
    <path d="M150.298 405.248l15.85 10.513h-15.85zm0-28.089c.616-.41 14.77-9.797 15.85-10.513h-15.85zm77.4 28.089l-15.85 10.513h15.85zm0-28.089l-15.85-10.513h15.85z" fill="#d22730"/>
  </g>
  <g id="h" fill="#383739" transform="matrix(0.026667, 0, 0, 0.026667, 0, 0)">
    <path d="M172.445 388.094v-5.791h-1.975l-9.477-5.925-.113.071-9.362 5.854h-1.976v5.791h-4.455v6.22h4.455v5.79h1.976l9.475 5.925 9.477-5.925h1.975v-5.79h6.782v-6.22z"/>
    <path d="M160.994 376.884l8.668 5.42h-17.335zm8.667 23.22l-8.667 5.42-8.666-5.42zm-2.099-11.581v5.363h-10.809v-5.363z" fill="#d22730"/>
    <path d="M172.017 394.313v5.363h-10.809v-5.363zm-11.237 0v5.363h-10.809v-5.363zm18.019-5.79v5.363H167.99v-5.363zm-22.474 0v5.363h-10.809v-5.363zm15.692-5.791v5.362h-10.809v-5.362zm-11.237 0v5.362h-10.809v-5.362z" fill="#ffc72c"/>
    <path d="M153.349 389.714v2.98h-4.855v-2.98zm4.455-5.791v2.98h-4.855v-2.98zm11.236 0v2.98h-4.855v-2.98zm-4.455 5.791v2.98h-4.855v-2.98zm11.237 0v2.98h-4.855v-2.98zm-6.782 5.791v2.98h-4.855v-2.98zm-11.236 0v2.98h-4.855v-2.98z"/>
    <path d="M152.891 390.171h-3.94v2.065h3.94zm4.455-5.791h-3.94v2.065h3.94zm11.237 0h-3.94v2.065h3.94zm-4.455 5.791h-3.94v2.065h3.94zm11.237 0h-3.94v2.065h3.94zm-6.782 5.791h-3.94v2.065h3.94zm-11.237 0h-3.94v2.065h3.94z" fill="#fff"/>
  </g>
  <g fill="#383739" transform="matrix(-0.026667, 0, 0, 0.026667, 10.079866, 0)">
    <path d="M172.445 388.094v-5.791h-1.975l-9.477-5.925-.113.071-9.362 5.854h-1.976v5.791h-4.455v6.22h4.455v5.79h1.976l9.475 5.925 9.477-5.925h1.975v-5.79h6.782v-6.22z"/>
    <path d="M160.994 376.884l8.668 5.42h-17.335zm8.667 23.22l-8.667 5.42-8.666-5.42zm-2.099-11.581v5.363h-10.809v-5.363z" fill="#d22730"/>
    <path d="M172.017 394.313v5.363h-10.809v-5.363zm-11.237 0v5.363h-10.809v-5.363zm18.019-5.79v5.363H167.99v-5.363zm-22.474 0v5.363h-10.809v-5.363zm15.692-5.791v5.362h-10.809v-5.362zm-11.237 0v5.362h-10.809v-5.362z" fill="#ffc72c"/>
    <path d="M153.349 389.714v2.98h-4.855v-2.98zm4.455-5.791v2.98h-4.855v-2.98zm11.236 0v2.98h-4.855v-2.98zm-4.455 5.791v2.98h-4.855v-2.98zm11.237 0v2.98h-4.855v-2.98zm-6.782 5.791v2.98h-4.855v-2.98zm-11.236 0v2.98h-4.855v-2.98z"/>
    <path d="M152.891 390.171h-3.94v2.065h3.94zm4.455-5.791h-3.94v2.065h3.94zm11.237 0h-3.94v2.065h3.94zm-4.455 5.791h-3.94v2.065h3.94zm11.237 0h-3.94v2.065h3.94zm-6.782 5.791h-3.94v2.065h3.94zm-11.237 0h-3.94v2.065h3.94z" fill="#fff"/>
  </g>
  <g id="i" fill="#383739" transform="matrix(0.026667, 0, 0, 0.026667, 0, 0)">
    <path d="M200.449 378.42v5.79h-1.975l-9.477 5.926-.113-.071-9.362-5.854h-1.976v-5.791h-5.618v-6.22h5.618v-5.79h1.976l9.475-5.926 9.477 5.926h1.975v5.79h5.618v6.22z"/>
    <path d="M188.998 389.63l8.668-5.42H180.33zm8.667-23.22l-8.667-5.42-8.666 5.42z" fill="#ffc72c"/>
    <path d="M200.021 372.2v-5.362h-10.809v5.362zm-11.237 0v-5.362h-10.809v5.362zm16.855 5.791v-5.363H194.83v5.363zm-11.237 0v-5.363h-10.809v5.363zm-11.237 0v-5.363h-10.808v5.363zm16.856 5.791v-5.363h-10.809v5.363zm-11.237 0v-5.363h-10.809v5.363z" fill="#d22730"/>
    <path d="M185.807 368.029v2.98h-4.855v-2.98zm11.237 0v2.98h-4.855v-2.98zm-16.856 5.791v2.98h-4.855v-2.98zm11.238 0v2.98h-4.855v-2.98zm11.237 0v2.98h-4.855v-2.98zm-16.856 5.791v2.98h-4.855v-2.98zm11.237 0v2.98h-4.855v-2.98z"/>
    <path d="M185.35 368.486h-3.94v2.065h3.94zm11.237 0h-3.94v2.065h3.94zm-16.856 5.791h-3.94v2.065h3.94zm11.238 0h-3.94v2.065h3.94zm11.236 0h-3.94v2.065h3.94zm-16.855 5.791h-3.94v2.065h3.94zm11.237 0h-3.94v2.065h3.94z" fill="#fff"/>
  </g>
  <g fill="#383739" transform="matrix(0.026667, 0, 0, 0.026667, 0, 0.84768)">
    <path d="M200.449 378.42v5.79h-1.975l-9.477 5.926-.113-.071-9.362-5.854h-1.976v-5.791h-5.618v-6.22h5.618v-5.79h1.976l9.475-5.926 9.477 5.926h1.975v5.79h5.618v6.22z"/>
    <path d="M188.998 389.63l8.668-5.42H180.33zm8.667-23.22l-8.667-5.42-8.666 5.42z" fill="#ffc72c"/>
    <path d="M200.021 372.2v-5.362h-10.809v5.362zm-11.237 0v-5.362h-10.809v5.362zm16.855 5.791v-5.363H194.83v5.363zm-11.237 0v-5.363h-10.809v5.363zm-11.237 0v-5.363h-10.808v5.363zm16.856 5.791v-5.363h-10.809v5.363zm-11.237 0v-5.363h-10.809v5.363z" fill="#d22730"/>
    <path d="M185.807 368.029v2.98h-4.855v-2.98zm11.237 0v2.98h-4.855v-2.98zm-16.856 5.791v2.98h-4.855v-2.98zm11.238 0v2.98h-4.855v-2.98zm11.237 0v2.98h-4.855v-2.98zm-16.856 5.791v2.98h-4.855v-2.98zm11.237 0v2.98h-4.855v-2.98z"/>
    <path d="M185.35 368.486h-3.94v2.065h3.94zm11.237 0h-3.94v2.065h3.94zm-16.856 5.791h-3.94v2.065h3.94zm11.238 0h-3.94v2.065h3.94zm11.236 0h-3.94v2.065h3.94zm-16.855 5.791h-3.94v2.065h3.94zm11.237 0h-3.94v2.065h3.94z" fill="#fff"/>
  </g>
  <path d="M 3.405 12.783 L 4.526 12.179 L 5.554 12.179 L 6.675 12.783 L 6.675 13.777 L 5.554 14.381 L 4.526 14.381 L 3.405 13.777 L 3.405 12.783 Z" fill="#383739"/>
  <path d="M 4.53 12.191 L 3.417 12.79 L 3.417 13.77 L 4.53 14.369 L 5.551 14.369 L 6.664 13.77 L 6.664 12.79 L 5.551 12.191 L 4.53 12.191 Z M 4.549 12.271 L 5.531 12.271 L 6.585 12.838 L 6.585 13.723 L 5.531 14.29 L 4.549 14.29 L 3.495 13.723 L 3.495 12.838 L 4.549 12.271 Z" fill="#00843d"/>
  <path d="M 5.046 13.274 L 5.046 14.278 L 5.528 14.278 L 6.573 13.716 L 6.573 13.286 L 5.034 13.286 L 5.034 12.282 L 4.552 12.282 L 3.507 12.844 L 3.507 13.274 L 5.046 13.274 Z" fill="#ffc72c"/>
  <path d="M 5.034 13.274 L 5.034 14.278 L 4.552 14.278 L 3.507 13.716 L 3.507 13.286 L 5.046 13.286 L 5.046 12.282 L 5.528 12.282 L 6.573 12.844 L 6.573 13.274 L 5.034 13.274 Z" fill="#fff"/>
  <path d="M 5.134 14.222 L 5.134 13.932 L 5.04 13.991 L 4.946 13.932 L 4.946 14.222 L 4.654 14.222 L 4.851 14.077 L 4.851 13.871 L 4.551 13.681 L 4.341 13.681 L 4.341 12.879 L 4.551 12.879 L 4.851 12.689 L 4.851 12.483 L 4.654 12.338 L 4.946 12.338 L 4.946 12.628 L 5.04 12.569 L 5.134 12.628 L 5.134 12.338 L 5.425 12.338 L 5.229 12.483 L 5.229 12.689 L 5.529 12.879 L 5.739 12.879 L 5.739 13.681 L 5.529 13.681 L 5.229 13.871 L 5.229 14.077 L 5.425 14.222 L 5.134 14.222 Z" fill="#383739"/>
  <path d="M 5.145 12.35 L 5.145 12.65 L 5.045 12.586 L 5.045 12.671 L 5.504 12.963 L 5.655 12.963 L 5.655 13.274 L 5.727 13.274 L 5.727 12.89 L 5.525 12.89 L 5.218 12.695 L 5.218 12.477 L 5.391 12.35 L 5.145 12.35 L 5.145 12.35 Z M 4.353 13.285 L 4.353 13.669 L 4.554 13.669 L 4.863 13.866 L 4.863 14.083 L 4.689 14.21 L 4.935 14.21 L 4.935 13.911 L 5.034 13.975 L 5.034 13.887 L 4.575 13.597 L 4.425 13.597 L 4.425 13.285 L 4.353 13.285 L 4.353 13.285 Z" fill="#ffc72c"/>
  <path d="M 4.689 12.35 L 4.863 12.477 L 4.863 12.695 L 4.554 12.89 L 4.353 12.89 L 4.353 13.274 L 4.425 13.274 L 4.425 12.963 L 4.575 12.963 L 5.034 12.672 L 5.034 12.586 L 4.935 12.65 L 4.935 12.35 L 4.689 12.35 L 4.689 12.35 Z M 5.655 13.285 L 5.655 13.597 L 5.504 13.597 L 5.045 13.887 L 5.045 13.975 L 5.145 13.911 L 5.145 14.21 L 5.391 14.21 L 5.218 14.083 L 5.218 13.866 L 5.525 13.67 L 5.727 13.67 L 5.727 13.285 L 5.655 13.285 L 5.655 13.285 Z" fill="#fff"/>
  <path d="M 4.436 13.586 L 4.578 13.586 L 5.04 13.878 L 5.501 13.586 L 5.644 13.586 L 5.644 12.974 L 5.501 12.974 L 5.04 12.682 L 4.578 12.974 L 4.436 12.974 L 4.436 13.586 Z" fill="#d22730"/>
  <path d="M 5.359 13.425 L 5.458 13.425 L 5.458 13.379 L 5.384 13.379 L 5.384 13.294 L 5.542 13.294 L 5.542 13.51 L 5.39 13.51 L 5.39 13.657 L 5.078 13.657 L 5.078 13.446 L 5.215 13.446 L 5.215 13.53 L 5.162 13.53 L 5.162 13.573 L 5.306 13.573 L 5.306 13.492 L 4.72 13.135 L 4.622 13.135 L 4.622 13.181 L 4.696 13.181 L 4.696 13.266 L 4.538 13.266 L 4.538 13.05 L 4.689 13.05 L 4.689 12.903 L 5.002 12.903 L 5.002 13.114 L 4.865 13.114 L 4.865 13.03 L 4.918 13.03 L 4.918 12.987 L 4.774 12.987 L 4.774 13.068 L 5.359 13.425 Z M 5.306 13.068 L 5.306 12.987 L 5.162 12.987 L 5.162 13.03 L 5.215 13.03 L 5.215 13.114 L 5.078 13.114 L 5.078 12.903 L 5.39 12.903 L 5.39 13.05 L 5.542 13.05 L 5.542 13.266 L 5.384 13.266 L 5.384 13.181 L 5.458 13.181 L 5.458 13.135 L 5.359 13.135 L 4.774 13.492 L 4.774 13.573 L 4.918 13.573 L 4.918 13.53 L 4.865 13.53 L 4.865 13.446 L 5.002 13.446 L 5.002 13.657 L 4.689 13.657 L 4.689 13.51 L 4.538 13.51 L 4.538 13.294 L 4.696 13.294 L 4.696 13.379 L 4.622 13.379 L 4.622 13.425 L 4.72 13.425 L 5.306 13.068 Z" fill="#383739"/>
  <path d="M 5.317 13.485 L 5.317 13.584 L 5.151 13.584 L 5.151 13.519 L 5.204 13.519 L 5.204 13.457 L 5.089 13.457 L 5.089 13.646 L 5.379 13.646 L 5.379 13.499 L 5.531 13.499 L 5.531 13.305 L 5.395 13.305 L 5.395 13.367 L 5.469 13.367 L 5.469 13.437 L 5.356 13.437 L 4.762 13.075 L 4.762 12.976 L 4.929 12.976 L 4.929 13.041 L 4.876 13.041 L 4.876 13.103 L 4.991 13.103 L 4.991 12.914 L 4.701 12.914 L 4.701 13.061 L 4.549 13.061 L 4.549 13.255 L 4.685 13.255 L 4.685 13.193 L 4.61 13.193 L 4.61 13.123 L 4.724 13.123 L 5.317 13.485 Z M 5.356 13.123 L 5.469 13.123 L 5.469 13.193 L 5.395 13.193 L 5.395 13.255 L 5.531 13.255 L 5.531 13.061 L 5.379 13.061 L 5.379 12.914 L 5.089 12.914 L 5.089 13.103 L 5.204 13.103 L 5.204 13.041 L 5.151 13.041 L 5.151 12.976 L 5.317 12.976 L 5.317 13.075 L 4.724 13.437 L 4.61 13.437 L 4.61 13.367 L 4.685 13.367 L 4.685 13.305 L 4.549 13.305 L 4.549 13.499 L 4.701 13.499 L 4.701 13.646 L 4.991 13.646 L 4.991 13.457 L 4.876 13.457 L 4.876 13.519 L 4.929 13.519 L 4.929 13.584 L 4.762 13.584 L 4.762 13.485 L 5.356 13.123 Z" fill="#fff"/>
  <path d="M 6.348 13.33 L 6.348 13.644 L 6.214 13.644 L 6.214 13.533 L 6.08 13.533 L 6.08 13.644 L 5.946 13.644 L 5.946 13.33 L 6.08 13.33 L 6.08 13.441 L 6.214 13.441 L 6.214 13.33 L 6.348 13.33 Z M 5.87 13.747 L 5.87 14.06 L 5.737 14.06 L 5.737 13.95 L 5.602 13.95 L 5.602 14.06 L 5.469 14.06 L 5.469 13.747 L 5.602 13.747 L 5.602 13.857 L 5.737 13.857 L 5.737 13.747 L 5.87 13.747 Z M 6.348 13.23 L 6.348 12.916 L 6.214 12.916 L 6.214 13.027 L 6.08 13.027 L 6.08 12.916 L 5.946 12.916 L 5.946 13.23 L 6.08 13.23 L 6.08 13.119 L 6.214 13.119 L 6.214 13.23 L 6.348 13.23 Z M 3.732 13.33 L 3.732 13.644 L 3.866 13.644 L 3.866 13.533 L 4 13.533 L 4 13.644 L 4.134 13.644 L 4.134 13.33 L 4 13.33 L 4 13.441 L 3.866 13.441 L 3.866 13.33 L 3.732 13.33 Z M 3.732 13.23 L 3.732 12.916 L 3.866 12.916 L 3.866 13.027 L 4 13.027 L 4 12.916 L 4.134 12.916 L 4.134 13.23 L 4 13.23 L 4 13.119 L 3.866 13.119 L 3.866 13.23 L 3.732 13.23 Z M 5.87 12.813 L 5.87 12.5 L 5.737 12.5 L 5.737 12.61 L 5.602 12.61 L 5.602 12.5 L 5.469 12.5 L 5.469 12.813 L 5.602 12.813 L 5.602 12.703 L 5.737 12.703 L 5.737 12.813 L 5.87 12.813 Z M 4.21 13.747 L 4.21 14.06 L 4.343 14.06 L 4.343 13.95 L 4.478 13.95 L 4.478 14.06 L 4.611 14.06 L 4.611 13.747 L 4.478 13.747 L 4.478 13.857 L 4.343 13.857 L 4.343 13.747 L 4.21 13.747 Z M 4.21 12.813 L 4.21 12.5 L 4.343 12.5 L 4.343 12.61 L 4.478 12.61 L 4.478 12.5 L 4.611 12.5 L 4.611 12.813 L 4.478 12.813 L 4.478 12.703 L 4.343 12.703 L 4.343 12.813 L 4.21 12.813 Z M 5.95 12.593 L 5.95 12.832 L 6.392 12.832 L 5.95 12.593 Z M 4.13 13.966 L 4.13 13.728 L 3.687 13.728 L 4.13 13.966 Z M 4.13 12.593 L 4.13 12.832 L 3.687 12.832 L 4.13 12.593 Z M 5.95 13.966 L 5.95 13.728 L 6.392 13.728 L 5.95 13.966 Z" fill="#383739"/>
  <path d="M 6.226 13.522 L 6.226 13.632 L 6.336 13.632 L 6.336 13.342 L 6.226 13.342 L 6.226 13.452 L 6.068 13.452 L 6.068 13.342 L 5.958 13.342 L 5.958 13.632 L 6.068 13.632 L 6.068 13.522 L 6.226 13.522 Z M 5.748 13.938 L 5.748 14.049 L 5.859 14.049 L 5.859 13.758 L 5.748 13.758 L 5.748 13.869 L 5.591 13.869 L 5.591 13.758 L 5.48 13.758 L 5.48 14.049 L 5.591 14.049 L 5.591 13.938 L 5.748 13.938 Z M 6.226 13.038 L 6.226 12.927 L 6.336 12.927 L 6.336 13.218 L 6.226 13.218 L 6.226 13.107 L 6.068 13.107 L 6.068 13.218 L 5.958 13.218 L 5.958 12.927 L 6.068 12.927 L 6.068 13.038 L 6.226 13.038 Z M 3.854 13.522 L 3.854 13.632 L 3.744 13.632 L 3.744 13.342 L 3.854 13.342 L 3.854 13.452 L 4.012 13.452 L 4.012 13.342 L 4.122 13.342 L 4.122 13.632 L 4.012 13.632 L 4.012 13.522 L 3.854 13.522 Z M 3.854 13.038 L 3.854 12.927 L 3.744 12.927 L 3.744 13.218 L 3.854 13.218 L 3.854 13.107 L 4.012 13.107 L 4.012 13.218 L 4.122 13.218 L 4.122 12.927 L 4.012 12.927 L 4.012 13.038 L 3.854 13.038 Z M 5.748 12.622 L 5.748 12.511 L 5.859 12.511 L 5.859 12.802 L 5.748 12.802 L 5.748 12.691 L 5.591 12.691 L 5.591 12.802 L 5.48 12.802 L 5.48 12.511 L 5.591 12.511 L 5.591 12.622 L 5.748 12.622 Z M 4.332 13.938 L 4.332 14.049 L 4.221 14.049 L 4.221 13.758 L 4.332 13.758 L 4.332 13.869 L 4.489 13.869 L 4.489 13.758 L 4.6 13.758 L 4.6 14.049 L 4.489 14.049 L 4.489 13.938 L 4.332 13.938 Z M 4.332 12.622 L 4.332 12.511 L 4.221 12.511 L 4.221 12.802 L 4.332 12.802 L 4.332 12.691 L 4.489 12.691 L 4.489 12.802 L 4.6 12.802 L 4.6 12.511 L 4.489 12.511 L 4.489 12.622 L 4.332 12.622 Z" fill="#d22730"/>
  <path d="M 5.962 12.613 L 5.962 12.821 L 6.347 12.821 L 5.962 12.613 Z M 3.733 13.74 L 4.119 13.948 L 4.119 13.74 L 3.733 13.74 Z" fill="#ffc72c"/>
  <path d="M 4.119 12.613 L 3.733 12.821 L 4.119 12.821 L 4.119 12.613 Z M 5.962 13.74 L 5.962 13.948 L 6.347 13.74 L 5.962 13.74 Z" fill="#fff"/>
  <path d="M 6.851 14.155 C 6.829 14.246 6.757 14.315 6.74 14.409 C 6.705 14.311 6.674 14.228 6.697 14.121 C 6.714 14.044 6.779 13.989 6.786 13.91 C 6.857 13.974 6.872 14.063 6.851 14.155 Z M 6.868 14.536 C 6.809 14.618 6.725 14.681 6.634 14.723 C 6.652 14.651 6.618 14.597 6.58 14.54 C 6.535 14.471 6.513 14.404 6.55 14.325 C 6.567 14.366 6.59 14.4 6.617 14.435 C 6.657 14.49 6.684 14.539 6.69 14.609 C 6.737 14.575 6.757 14.523 6.782 14.473 C 6.82 14.402 6.881 14.343 6.951 14.304 C 6.932 14.384 6.918 14.468 6.868 14.536 L 6.868 14.536 Z M 6.533 14.78 C 6.546 14.826 6.557 14.871 6.554 14.919 C 6.594 14.876 6.646 14.844 6.693 14.81 C 6.757 14.758 6.831 14.722 6.883 14.656 C 6.876 14.753 6.834 14.832 6.756 14.89 C 6.673 14.953 6.573 14.986 6.491 15.051 C 6.503 14.963 6.471 14.893 6.443 14.812 C 6.42 14.735 6.443 14.657 6.495 14.598 C 6.494 14.663 6.515 14.719 6.533 14.78 Z M 6.347 15.077 C 6.33 15.144 6.282 15.198 6.249 15.258 C 6.337 15.23 6.415 15.183 6.494 15.138 C 6.589 15.086 6.692 15.053 6.778 14.985 C 6.735 15.143 6.629 15.235 6.474 15.282 C 6.369 15.314 6.279 15.298 6.151 15.349 C 6.166 15.263 6.192 15.169 6.233 15.09 C 6.265 15.034 6.3 14.978 6.32 14.915 C 6.348 14.967 6.362 15.019 6.347 15.077 Z M 6.023 15.319 C 5.993 15.371 5.952 15.415 5.903 15.449 C 6.028 15.457 6.129 15.378 6.25 15.374 C 6.325 15.372 6.397 15.396 6.474 15.389 C 6.383 15.45 6.287 15.504 6.177 15.518 C 6.032 15.537 5.9 15.5 5.741 15.515 C 5.815 15.462 5.852 15.392 5.898 15.317 C 5.959 15.222 6.016 15.155 6.133 15.14 C 6.086 15.193 6.058 15.259 6.023 15.319 L 6.023 15.319 Z M 5.58 15.526 C 5.8 15.564 6.01 15.612 6.235 15.614 C 5.984 15.702 5.747 15.718 5.497 15.627 C 5.362 15.578 5.259 15.552 5.157 15.56 C 5.008 15.57 4.828 15.629 4.627 15.84 L 4.549 15.777 C 4.836 15.521 5.211 15.464 5.58 15.526 L 5.58 15.526 Z" fill="#ffc72c"/>
</svg>