<?xml version="1.0" encoding="UTF-8"?>
<svg xmlns="http://www.w3.org/2000/svg" xmlns:xlink="http://www.w3.org/1999/xlink" width="24px" height="24px" viewBox="0 0 24 16" version="1.1">
<g id="surface1">
<rect x="0" y="0" width="24" height="16" style="fill:rgb(90.588235%,0%,7.45098%);fill-opacity:1;stroke:none;"/>
<path style=" stroke:none;fill-rule:nonzero;fill:rgb(100%,100%,100%);fill-opacity:1;" d="M 16 8 C 16 10.210938 14.210938 12 12 12 C 9.789062 12 8 10.210938 8 8 C 8 5.789062 9.789062 4 12 4 C 14.210938 4 16 5.789062 16 8 Z M 16 8 "/>
<path style=" stroke:none;fill-rule:nonzero;fill:rgb(90.588235%,0%,7.45098%);fill-opacity:1;" d="M 15 8 C 15 9.65625 13.65625 11 12 11 C 10.34375 11 9 9.65625 9 8 C 9 6.34375 10.34375 5 12 5 C 13.65625 5 15 6.34375 15 8 Z M 15 8 "/>
<path style=" stroke:none;fill-rule:nonzero;fill:rgb(100%,100%,100%);fill-opacity:1;" d="M 15.199219 8 C 15.199219 9.324219 14.125 10.398438 12.800781 10.398438 C 11.472656 10.398438 10.398438 9.324219 10.398438 8 C 10.398438 6.675781 11.472656 5.601562 12.800781 5.601562 C 14.125 5.601562 15.199219 6.675781 15.199219 8 Z M 15.199219 8 "/>
<path style=" stroke:none;fill-rule:nonzero;fill:rgb(90.588235%,0%,7.45098%);fill-opacity:1;" d="M 11 8 L 14.257812 6.941406 L 12.242188 9.710938 L 12.242188 6.289062 L 14.257812 9.058594 Z M 11 8 "/>
</g>
</svg>
