<?xml version="1.0" encoding="UTF-8"?>
<svg xmlns="http://www.w3.org/2000/svg" xmlns:xlink="http://www.w3.org/1999/xlink" width="24px" height="24px" viewBox="0 0 24 12" version="1.1">
<defs>
<clipPath id="clip1">
  <path d="M 0 0 L 13 0 L 13 7 L 0 7 Z M 0 0 "/>
</clipPath>
<clipPath id="clip2">
  <path d="M 0 0 L 12 0 L 12 6 L 0 6 Z M 0 0 "/>
</clipPath>
<clipPath id="clip3">
  <path d="M 0 0 L 0 3 L 13 3 L 13 6 L 12 6 Z M 0 6 L 0 7 L 6 7 L 6 0 L 12 0 Z M 0 6 "/>
</clipPath>
<clipPath id="clip4">
  <path d="M 0 0 L 13 0 L 13 7 L 0 7 Z M 0 0 "/>
</clipPath>
<clipPath id="clip5">
  <path d="M 0 0 L 0 3 L 13 3 L 13 6 L 12 6 Z M 0 6 L 0 7 L 6 7 L 6 0 L 12 0 Z M 0 6 "/>
</clipPath>
</defs>
<g id="surface1">
<rect x="0" y="0" width="24" height="12" style="fill:rgb(0.392157%,12.941176%,41.176471%);fill-opacity:1;stroke:none;"/>
<path style=" stroke:none;fill-rule:nonzero;fill:rgb(0%,0%,0%);fill-opacity:1;" d="M 0 0 L 12 6 M 12 0 L 0 6 "/>
<g clip-path="url(#clip1)" clip-rule="nonzero">
<path style="fill:none;stroke-width:60;stroke-linecap:butt;stroke-linejoin:miter;stroke:rgb(100%,100%,100%);stroke-opacity:1;stroke-miterlimit:4;" d="M 0 0 L 600 300 M 600 0 L 0 300 " transform="matrix(0.02,0,0,0.02,0,0)"/>
</g>
<g clip-path="url(#clip2)" clip-rule="nonzero">
<g clip-path="url(#clip3)" clip-rule="nonzero">
<path style=" stroke:none;fill-rule:nonzero;fill:rgb(0%,0%,0%);fill-opacity:1;" d="M 0 0 L 12 6 M 12 0 L 0 6 "/>
</g>
</g>
<g clip-path="url(#clip4)" clip-rule="nonzero">
<g clip-path="url(#clip5)" clip-rule="nonzero">
<path style="fill:none;stroke-width:40;stroke-linecap:butt;stroke-linejoin:miter;stroke:rgb(78.431373%,6.27451%,18.039216%);stroke-opacity:1;stroke-miterlimit:4;" d="M 0 0 L 600 300 M 600 0 L 0 300 " transform="matrix(0.02,0,0,0.02,0,0)"/>
</g>
</g>
<path style="fill-rule:nonzero;fill:rgb(0%,0%,0%);fill-opacity:1;stroke-width:100;stroke-linecap:butt;stroke-linejoin:miter;stroke:rgb(100%,100%,100%);stroke-opacity:1;stroke-miterlimit:4;" d="M 0 150 L 650 150 M 300 0 L 300 350 " transform="matrix(0.02,0,0,0.02,0,0)"/>
<path style="fill-rule:nonzero;fill:rgb(0%,0%,0%);fill-opacity:1;stroke-width:60;stroke-linecap:butt;stroke-linejoin:miter;stroke:rgb(78.431373%,6.27451%,18.039216%);stroke-opacity:1;stroke-miterlimit:4;" d="M 0 150 L 650 150 M 300 0 L 300 350 " transform="matrix(0.02,0,0,0.02,0,0)"/>
<path style=" stroke:none;fill-rule:nonzero;fill:rgb(0%,61.176471%,87.058824%);fill-opacity:1;" d="M 0 6 L 12 6 L 12 0 L 24 0 L 24 12 L 0 12 Z M 0 6 "/>
<path style=" stroke:none;fill-rule:nonzero;fill:rgb(99.607843%,86.666667%,0%);fill-opacity:1;" d="M 12.90625 9.816406 L 13.496094 11.628906 L 11.953125 10.511719 L 13.859375 10.511719 L 12.316406 11.628906 Z M 16.347656 9.28125 L 15.761719 11.09375 L 15.171875 9.28125 L 16.714844 10.398438 L 14.808594 10.398438 Z M 16.347656 6.839844 L 15.761719 8.652344 L 15.171875 6.839844 L 16.714844 7.960938 L 14.808594 7.960938 Z M 18.871094 8.664062 L 18.28125 10.476562 L 17.691406 8.664062 L 19.234375 9.78125 L 17.328125 9.785156 Z M 18.871094 3.355469 L 18.28125 5.167969 L 17.691406 3.355469 L 19.234375 4.476562 L 17.328125 4.476562 Z M 19.929688 6.800781 L 20.515625 8.609375 L 18.976562 7.492188 L 20.882812 7.492188 L 19.339844 8.609375 Z M 20.988281 2.632812 L 20.398438 4.441406 L 19.808594 2.632812 L 21.351562 3.75 L 19.445312 3.75 Z M 22.058594 5.429688 L 22.644531 7.242188 L 21.105469 6.121094 L 23.007812 6.121094 L 21.46875 7.242188 Z M 22.058594 0.75 L 22.644531 2.558594 L 21.105469 1.441406 L 23.007812 1.441406 L 21.46875 2.558594 Z M 22.058594 0.75 "/>
</g>
</svg>
