<?xml version="1.0" encoding="UTF-8"?>
<svg xmlns="http://www.w3.org/2000/svg" xmlns:xlink="http://www.w3.org/1999/xlink" width="24px" height="24px" viewBox="0 0 24 16" version="1.1">
<g id="surface1">
<rect x="0" y="0" width="24" height="16" style="fill:rgb(99.607843%,0%,0%);fill-opacity:1;stroke:none;"/>
<path style=" stroke:none;fill-rule:evenodd;fill:rgb(0%,0%,58.431373%);fill-opacity:1;" d="M 0 0 L 12 0 L 12 8 L 0 8 Z M 0 0 "/>
<path style=" stroke:none;fill-rule:nonzero;fill:rgb(100%,100%,100%);fill-opacity:1;" d="M 6 1 L 4.5 6.597656 L 8.597656 2.5 L 3 4 L 8.597656 5.5 L 4.5 1.402344 L 6 7 L 7.5 1.402344 L 3.402344 5.5 L 9 4 L 3.402344 2.5 L 7.5 6.597656 L 6 1 "/>
<path style="fill-rule:nonzero;fill:rgb(100%,100%,100%);fill-opacity:1;stroke-width:7.5;stroke-linecap:butt;stroke-linejoin:miter;stroke:rgb(0%,0%,58.431373%);stroke-opacity:1;stroke-miterlimit:4;" d="M 285.058594 150 C 285.058594 183.105469 258.105469 210.058594 225 210.058594 C 191.894531 210.058594 164.941406 183.105469 164.941406 150 C 164.941406 116.894531 191.894531 89.941406 225 89.941406 C 258.105469 89.941406 285.058594 116.894531 285.058594 150 Z M 285.058594 150 " transform="matrix(0.0266667,0,0,0.0266667,0,0)"/>
</g>
</svg>
