<?xml version="1.0" encoding="UTF-8"?>
<svg xmlns="http://www.w3.org/2000/svg" xmlns:xlink="http://www.w3.org/1999/xlink" width="24px" height="24px" viewBox="0 0 24 16" version="1.1">
<g id="surface1">
<rect x="0" y="0" width="24" height="16" style="fill:rgb(0%,0%,0%);fill-opacity:1;stroke:none;"/>
<path style=" stroke:none;fill-rule:nonzero;fill:rgb(98.823529%,86.27451%,1.568627%);fill-opacity:1;" d="M 0 2.667969 L 24 2.667969 L 24 5.332031 L 0 5.332031 Z M 0 2.667969 "/>
<path style=" stroke:none;fill-rule:nonzero;fill:rgb(85.098039%,0%,0%);fill-opacity:1;" d="M 0 5.332031 L 24 5.332031 L 24 8 L 0 8 Z M 0 5.332031 "/>
<path style=" stroke:none;fill-rule:nonzero;fill:rgb(98.823529%,86.27451%,1.568627%);fill-opacity:1;" d="M 0 10.667969 L 24 10.667969 L 24 13.332031 L 0 13.332031 Z M 0 10.667969 "/>
<path style=" stroke:none;fill-rule:nonzero;fill:rgb(85.098039%,0%,0%);fill-opacity:1;" d="M 0 13.332031 L 24 13.332031 L 24 16 L 0 16 Z M 0 13.332031 "/>
<path style=" stroke:none;fill-rule:nonzero;fill:rgb(100%,100%,100%);fill-opacity:1;" d="M 14.492188 8 C 14.492188 9.378906 13.378906 10.492188 12 10.492188 C 10.621094 10.492188 9.507812 9.378906 9.507812 8 C 9.507812 6.621094 10.621094 5.507812 12 5.507812 C 13.378906 5.507812 14.492188 6.621094 14.492188 8 Z M 14.492188 8 "/>
<path style="fill-rule:nonzero;fill:rgb(85.098039%,0%,0%);fill-opacity:1;stroke-width:1;stroke-linecap:butt;stroke-linejoin:miter;stroke:rgb(0%,0%,0%);stroke-opacity:1;stroke-miterlimit:4;" d="M 433.447266 228.369141 L 427.441406 217.236328 C 429.785156 214.892578 433.740234 213.134766 440.039062 213.134766 C 440.039062 213.427734 439.306641 225.292969 439.306641 225.292969 Z M 433.447266 228.369141 " transform="matrix(0.0266667,0,0,0.0266667,0,0)"/>
<path style="fill-rule:nonzero;fill:rgb(98.823529%,86.27451%,1.568627%);fill-opacity:1;stroke-width:1;stroke-linecap:butt;stroke-linejoin:miter;stroke:rgb(0%,0%,0%);stroke-opacity:1;stroke-miterlimit:4;" d="M 439.306641 225.439453 L 440.185547 213.134766 C 440.185547 213.134766 452.783203 212.255859 459.521484 220.458984 C 459.667969 220.458984 452.929688 230.126953 452.929688 230.126953 Z M 439.306641 225.439453 " transform="matrix(0.0266667,0,0,0.0266667,0,0)"/>
<path style="fill-rule:nonzero;fill:rgb(85.098039%,0%,0%);fill-opacity:1;stroke-width:1;stroke-linecap:butt;stroke-linejoin:miter;stroke:rgb(0%,0%,0%);stroke-opacity:1;stroke-miterlimit:4;" d="M 453.076172 229.980469 L 459.228516 220.458984 C 463.476562 224.707031 465.087891 227.929688 465.820312 232.470703 C 465.820312 232.617188 456.005859 234.960938 456.005859 234.814453 C 456.005859 234.814453 453.222656 230.126953 453.076172 229.980469 Z M 453.076172 229.980469 " transform="matrix(0.0266667,0,0,0.0266667,0,0)"/>
<path style="fill-rule:nonzero;fill:rgb(0%,0%,0%);fill-opacity:1;stroke-width:1;stroke-linecap:butt;stroke-linejoin:miter;stroke:rgb(0%,0%,0%);stroke-opacity:1;stroke-miterlimit:4;" d="M 436.669922 388.037109 C 436.669922 388.037109 448.242188 374.707031 470.800781 377.636719 C 467.285156 372.070312 456.445312 372.802734 456.445312 372.802734 C 456.445312 372.802734 452.929688 346.875 455.712891 345.556641 C 458.349609 344.384766 469.628906 345.703125 469.628906 345.703125 C 471.09375 345.703125 473.583984 341.748047 471.533203 339.111328 C 469.628906 336.621094 463.623047 326.806641 466.113281 324.902344 C 468.457031 322.998047 481.787109 325.927734 481.787109 325.927734 L 444.287109 277.880859 C 444.287109 277.880859 440.478516 259.716797 448.095703 251.074219 C 457.324219 243.457031 456.445312 235.107422 456.005859 235.253906 C 454.833984 226.757812 442.089844 220.751953 433.447266 228.515625 C 428.320312 234.667969 431.689453 239.355469 431.689453 239.355469 C 431.689453 239.355469 418.359375 243.017578 417.773438 245.361328 C 417.1875 247.705078 432.861328 244.921875 432.861328 244.921875 L 431.396484 255.615234 C 431.396484 255.615234 400.927734 283.300781 424.21875 307.177734 C 424.511719 307.177734 424.951172 306.152344 424.951172 306.152344 C 424.951172 306.152344 433.154297 316.259766 441.796875 318.457031 C 449.853516 326.806641 449.121094 325.488281 449.121094 325.488281 C 449.121094 325.488281 450.732422 338.671875 449.267578 341.162109 C 447.216797 340.576172 426.5625 339.84375 423.486328 341.015625 C 420.703125 341.748047 410.15625 341.308594 412.792969 358.59375 C 414.84375 353.90625 416.601562 349.804688 416.601562 349.804688 C 416.601562 349.804688 416.308594 356.103516 418.798828 358.300781 C 418.359375 351.708984 421.289062 347.167969 421.289062 347.167969 C 421.289062 347.167969 421.875 354.492188 423.339844 355.517578 C 424.951172 356.542969 424.951172 343.798828 433.886719 344.824219 C 442.675781 345.996094 449.121094 345.556641 449.121094 345.556641 C 449.121094 345.556641 452.050781 370.605469 451.025391 372.949219 C 444.726562 371.484375 429.492188 373.535156 428.466797 377.490234 C 437.402344 376.904297 441.650391 377.929688 441.650391 377.929688 C 441.650391 377.929688 434.326172 384.375 436.669922 388.037109 Z M 436.669922 388.037109 " transform="matrix(0.0266667,0,0,0.0266667,0,0)"/>
<path style="fill-rule:nonzero;fill:rgb(61.176471%,65.098039%,61.176471%);fill-opacity:1;stroke-width:1;stroke-linecap:butt;stroke-linejoin:miter;stroke:rgb(61.176471%,65.098039%,61.176471%);stroke-opacity:1;stroke-miterlimit:4;" d="M 440.185547 251.660156 C 440.185547 251.660156 418.066406 276.123047 427.587891 294.726562 C 428.173828 292.089844 427.880859 290.478516 428.173828 290.625 C 427.734375 290.332031 430.957031 292.822266 430.664062 292.382812 C 430.810547 291.064453 429.638672 288.134766 429.638672 288.134766 L 432.714844 288.867188 L 430.957031 285.644531 L 435.205078 286.083984 C 435.205078 286.083984 433.740234 282.128906 434.179688 282.128906 C 434.765625 282.128906 437.695312 282.421875 437.695312 282.421875 C 431.396484 270.996094 437.402344 261.621094 440.185547 251.660156 Z M 447.949219 230.712891 C 447.949219 230.712891 449.121094 239.0625 444.433594 241.552734 C 443.701172 242.138672 440.917969 243.017578 441.357422 244.775391 C 441.796875 247.119141 443.115234 246.679688 444.873047 246.240234 C 449.707031 245.361328 455.273438 235.253906 447.949219 230.712891 Z M 447.949219 230.712891 " transform="matrix(0.0266667,0,0,0.0266667,0,0)"/>
<path style=" stroke:none;fill-rule:nonzero;fill:rgb(100%,100%,100%);fill-opacity:1;" d="M 11.726562 6.347656 C 11.726562 6.375 11.707031 6.394531 11.679688 6.394531 C 11.652344 6.394531 11.632812 6.375 11.632812 6.347656 C 11.632812 6.320312 11.652344 6.296875 11.679688 6.296875 C 11.707031 6.296875 11.726562 6.320312 11.726562 6.347656 Z M 11.726562 6.347656 "/>
<path style="fill-rule:nonzero;fill:rgb(85.098039%,0%,0%);fill-opacity:1;stroke-width:1;stroke-linecap:butt;stroke-linejoin:miter;stroke:rgb(0%,0%,0%);stroke-opacity:1;stroke-miterlimit:4;" d="M 432.568359 244.921875 C 431.396484 245.947266 425.244141 252.392578 431.25 254.736328 C 437.548828 252.978516 435.791016 251.806641 437.255859 250.341797 C 437.255859 247.558594 434.179688 246.826172 432.568359 244.921875 Z M 432.568359 244.921875 " transform="matrix(0.0266667,0,0,0.0266667,0,0)"/>
<path style="fill-rule:nonzero;fill:rgb(61.176471%,65.098039%,61.176471%);fill-opacity:1;stroke-width:1;stroke-linecap:butt;stroke-linejoin:miter;stroke:rgb(61.176471%,65.098039%,61.176471%);stroke-opacity:1;stroke-miterlimit:4;" d="M 445.898438 305.273438 C 445.605469 306.738281 444.287109 311.865234 446.191406 315.673828 C 451.464844 313.476562 453.955078 314.208984 455.712891 315.234375 C 451.464844 311.865234 449.707031 310.253906 445.898438 305.273438 Z M 445.898438 305.273438 " transform="matrix(0.0266667,0,0,0.0266667,0,0)"/>
<path style="fill-rule:nonzero;fill:rgb(100%,100%,100%);fill-opacity:1;stroke-width:1;stroke-linecap:butt;stroke-linejoin:miter;stroke:rgb(100%,100%,100%);stroke-opacity:1;stroke-miterlimit:4;" d="M 455.126953 329.443359 L 455.419922 341.308594 C 455.419922 341.308594 459.521484 342.1875 461.425781 341.308594 C 463.476562 340.576172 461.425781 333.105469 455.126953 329.443359 Z M 455.126953 329.443359 " transform="matrix(0.0266667,0,0,0.0266667,0,0)"/>
<path style="fill-rule:nonzero;fill:rgb(61.176471%,65.098039%,61.176471%);fill-opacity:1;stroke-width:1;stroke-linecap:butt;stroke-linejoin:miter;stroke:rgb(0%,0%,0%);stroke-opacity:1;stroke-miterlimit:4;" d="M 485.15625 330.908203 C 485.15625 330.908203 477.539062 312.451172 458.056641 307.763672 C 438.427734 303.076172 440.917969 282.275391 442.529297 280.957031 C 443.408203 279.199219 443.994141 276.416016 449.707031 279.052734 C 455.273438 281.689453 481.347656 294.726562 485.009766 295.458984 C 488.671875 296.044922 485.595703 331.347656 485.15625 330.908203 Z M 485.15625 330.908203 " transform="matrix(0.0266667,0,0,0.0266667,0,0)"/>
<path style="fill-rule:nonzero;fill:rgb(85.098039%,0%,0%);fill-opacity:1;stroke-width:1;stroke-linecap:butt;stroke-linejoin:miter;stroke:rgb(0%,0%,0%);stroke-opacity:1;stroke-miterlimit:4;" d="M 466.552734 307.617188 C 466.259766 307.910156 492.773438 323.291016 484.863281 336.621094 C 492.333984 331.640625 489.84375 322.851562 489.84375 322.851562 C 489.84375 322.851562 496.142578 338.964844 481.054688 346.728516 C 482.666016 348.193359 483.691406 347.900391 483.691406 347.900391 L 481.201172 350.390625 C 481.201172 350.390625 480.029297 352.294922 490.136719 347.460938 C 487.353516 349.658203 487.207031 351.269531 487.207031 351.269531 C 487.207031 351.269531 487.939453 353.320312 494.53125 347.607422 C 489.111328 353.320312 487.939453 356.396484 487.939453 356.25 C 502.294922 354.931641 533.642578 308.349609 478.125 294.433594 C 481.054688 297.509766 480.615234 297.070312 480.615234 297.070312 Z M 466.552734 307.617188 " transform="matrix(0.0266667,0,0,0.0266667,0,0)"/>
<path style="fill-rule:nonzero;fill:rgb(100%,100%,100%);fill-opacity:1;stroke-width:1;stroke-linecap:butt;stroke-linejoin:miter;stroke:rgb(0%,0%,0%);stroke-opacity:1;stroke-miterlimit:4;" d="M 467.724609 303.076172 C 471.386719 305.566406 472.705078 306.445312 473.144531 307.763672 C 469.775391 307.03125 466.845703 307.177734 466.845703 307.177734 C 466.845703 307.177734 459.667969 300.439453 458.349609 299.853516 C 457.470703 299.853516 451.904297 296.337891 451.904297 296.337891 C 449.121094 295.019531 446.630859 285.351562 456.884766 288.134766 C 467.285156 293.115234 468.896484 293.554688 468.896484 293.554688 C 472.998047 294.873047 477.246094 296.191406 481.347656 297.509766 L 488.671875 305.566406 C 488.671875 305.566406 475.78125 299.267578 474.169922 299.121094 C 477.685547 302.050781 479.736328 306.005859 479.736328 306.005859 C 475.634766 304.833984 472.119141 303.662109 467.724609 303.076172 Z M 467.724609 303.076172 " transform="matrix(0.0266667,0,0,0.0266667,0,0)"/>
<path style="fill-rule:nonzero;fill:rgb(0%,0%,0%);fill-opacity:1;stroke-width:1;stroke-linecap:butt;stroke-linejoin:miter;stroke:rgb(100%,100%,100%);stroke-opacity:1;stroke-miterlimit:4;" d="M 417.626953 245.947266 C 417.626953 245.947266 430.078125 243.017578 431.542969 243.457031 " transform="matrix(0.0266667,0,0,0.0266667,0,0)"/>
</g>
</svg>
