<?xml version="1.0" encoding="UTF-8"?>
<svg xmlns="http://www.w3.org/2000/svg" xmlns:xlink="http://www.w3.org/1999/xlink" width="24px" height="24px" viewBox="0 0 24 12" version="1.1">
<g id="surface1">
<rect x="0" y="0" width="24" height="12" style="fill:rgb(69.803922%,13.333333%,20.392157%);fill-opacity:1;stroke:none;"/>
<path style="fill-rule:nonzero;fill:rgb(0%,0%,0%);fill-opacity:1;stroke-width:300;stroke-linecap:butt;stroke-linejoin:miter;stroke:rgb(100%,100%,100%);stroke-opacity:1;stroke-miterlimit:4;" d="M 0 449.414062 L 7410 449.414062 M 7410 1049.902344 L 0 1049.902344 M 0 1650.390625 L 7410 1650.390625 M 7410 2249.609375 L 0 2249.609375 M 0 2850.097656 L 7410 2850.097656 M 7410 3450.585938 L 0 3450.585938 " transform="matrix(0.00323887,0,0,0.00307692,0,0)"/>
<path style=" stroke:none;fill-rule:nonzero;fill:rgb(23.529412%,23.137255%,43.137255%);fill-opacity:1;" d="M 0 0 L 9.601562 0 L 9.601562 6.460938 L 0 6.460938 Z M 0 0 "/>
<path style=" stroke:none;fill-rule:nonzero;fill:rgb(100%,100%,100%);fill-opacity:1;" d="M 0.800781 0.277344 L 1.027344 0.945312 L 0.429688 0.53125 L 1.167969 0.53125 L 0.570312 0.945312 Z M 0.800781 0.277344 "/>
<path style=" stroke:none;fill-rule:nonzero;fill:rgb(100%,100%,100%);fill-opacity:1;" d="M 0.800781 1.570312 L 1.027344 2.238281 L 0.429688 1.824219 L 1.167969 1.824219 L 0.570312 2.238281 Z M 0.800781 1.570312 "/>
<path style=" stroke:none;fill-rule:nonzero;fill:rgb(100%,100%,100%);fill-opacity:1;" d="M 0.800781 2.863281 L 1.027344 3.53125 L 0.429688 3.117188 L 1.167969 3.117188 L 0.570312 3.53125 Z M 0.800781 2.863281 "/>
<path style=" stroke:none;fill-rule:nonzero;fill:rgb(100%,100%,100%);fill-opacity:1;" d="M 0.800781 4.152344 L 1.027344 4.820312 L 0.429688 4.410156 L 1.167969 4.410156 L 0.570312 4.820312 Z M 0.800781 4.152344 "/>
<path style=" stroke:none;fill-rule:nonzero;fill:rgb(100%,100%,100%);fill-opacity:1;" d="M 0.800781 5.445312 L 1.027344 6.113281 L 0.429688 5.703125 L 1.167969 5.703125 L 0.570312 6.113281 Z M 0.800781 5.445312 "/>
<path style=" stroke:none;fill-rule:nonzero;fill:rgb(100%,100%,100%);fill-opacity:1;" d="M 1.601562 0.921875 L 1.828125 1.589844 L 1.230469 1.179688 L 1.96875 1.179688 L 1.371094 1.589844 Z M 1.601562 0.921875 "/>
<path style=" stroke:none;fill-rule:nonzero;fill:rgb(100%,100%,100%);fill-opacity:1;" d="M 1.601562 2.214844 L 1.828125 2.882812 L 1.230469 2.46875 L 1.96875 2.46875 L 1.371094 2.882812 Z M 1.601562 2.214844 "/>
<path style=" stroke:none;fill-rule:nonzero;fill:rgb(100%,100%,100%);fill-opacity:1;" d="M 1.601562 3.507812 L 1.828125 4.175781 L 1.230469 3.761719 L 1.96875 3.761719 L 1.371094 4.175781 Z M 1.601562 3.507812 "/>
<path style=" stroke:none;fill-rule:nonzero;fill:rgb(100%,100%,100%);fill-opacity:1;" d="M 1.601562 4.800781 L 1.828125 5.46875 L 1.230469 5.054688 L 1.96875 5.054688 L 1.371094 5.46875 Z M 1.601562 4.800781 "/>
<path style=" stroke:none;fill-rule:nonzero;fill:rgb(100%,100%,100%);fill-opacity:1;" d="M 2.398438 0.277344 L 2.628906 0.945312 L 2.03125 0.53125 L 2.769531 0.53125 L 2.171875 0.945312 Z M 2.398438 0.277344 "/>
<path style=" stroke:none;fill-rule:nonzero;fill:rgb(100%,100%,100%);fill-opacity:1;" d="M 2.398438 1.570312 L 2.628906 2.238281 L 2.03125 1.824219 L 2.769531 1.824219 L 2.171875 2.238281 Z M 2.398438 1.570312 "/>
<path style=" stroke:none;fill-rule:nonzero;fill:rgb(100%,100%,100%);fill-opacity:1;" d="M 2.398438 2.863281 L 2.628906 3.53125 L 2.03125 3.117188 L 2.769531 3.117188 L 2.171875 3.53125 Z M 2.398438 2.863281 "/>
<path style=" stroke:none;fill-rule:nonzero;fill:rgb(100%,100%,100%);fill-opacity:1;" d="M 2.398438 4.152344 L 2.628906 4.820312 L 2.03125 4.410156 L 2.769531 4.410156 L 2.171875 4.820312 Z M 2.398438 4.152344 "/>
<path style=" stroke:none;fill-rule:nonzero;fill:rgb(100%,100%,100%);fill-opacity:1;" d="M 2.398438 5.445312 L 2.628906 6.113281 L 2.03125 5.703125 L 2.769531 5.703125 L 2.171875 6.113281 Z M 2.398438 5.445312 "/>
<path style=" stroke:none;fill-rule:nonzero;fill:rgb(100%,100%,100%);fill-opacity:1;" d="M 3.199219 0.921875 L 3.429688 1.589844 L 2.832031 1.179688 L 3.570312 1.179688 L 2.972656 1.589844 Z M 3.199219 0.921875 "/>
<path style=" stroke:none;fill-rule:nonzero;fill:rgb(100%,100%,100%);fill-opacity:1;" d="M 3.199219 2.214844 L 3.429688 2.882812 L 2.832031 2.46875 L 3.570312 2.46875 L 2.972656 2.882812 Z M 3.199219 2.214844 "/>
<path style=" stroke:none;fill-rule:nonzero;fill:rgb(100%,100%,100%);fill-opacity:1;" d="M 3.199219 3.507812 L 3.429688 4.175781 L 2.832031 3.761719 L 3.570312 3.761719 L 2.972656 4.175781 Z M 3.199219 3.507812 "/>
<path style=" stroke:none;fill-rule:nonzero;fill:rgb(100%,100%,100%);fill-opacity:1;" d="M 3.199219 4.800781 L 3.429688 5.46875 L 2.832031 5.054688 L 3.570312 5.054688 L 2.972656 5.46875 Z M 3.199219 4.800781 "/>
<path style=" stroke:none;fill-rule:nonzero;fill:rgb(100%,100%,100%);fill-opacity:1;" d="M 4 0.277344 L 4.226562 0.945312 L 3.628906 0.53125 L 4.371094 0.53125 L 3.773438 0.945312 Z M 4 0.277344 "/>
<path style=" stroke:none;fill-rule:nonzero;fill:rgb(100%,100%,100%);fill-opacity:1;" d="M 4 1.570312 L 4.226562 2.238281 L 3.628906 1.824219 L 4.371094 1.824219 L 3.773438 2.238281 Z M 4 1.570312 "/>
<path style=" stroke:none;fill-rule:nonzero;fill:rgb(100%,100%,100%);fill-opacity:1;" d="M 4 2.863281 L 4.226562 3.53125 L 3.628906 3.117188 L 4.371094 3.117188 L 3.773438 3.53125 Z M 4 2.863281 "/>
<path style=" stroke:none;fill-rule:nonzero;fill:rgb(100%,100%,100%);fill-opacity:1;" d="M 4 4.152344 L 4.226562 4.820312 L 3.628906 4.410156 L 4.371094 4.410156 L 3.773438 4.820312 Z M 4 4.152344 "/>
<path style=" stroke:none;fill-rule:nonzero;fill:rgb(100%,100%,100%);fill-opacity:1;" d="M 4 5.445312 L 4.226562 6.113281 L 3.628906 5.703125 L 4.371094 5.703125 L 3.773438 6.113281 Z M 4 5.445312 "/>
<path style=" stroke:none;fill-rule:nonzero;fill:rgb(100%,100%,100%);fill-opacity:1;" d="M 4.800781 0.921875 L 5.027344 1.589844 L 4.429688 1.179688 L 5.167969 1.179688 L 4.570312 1.589844 Z M 4.800781 0.921875 "/>
<path style=" stroke:none;fill-rule:nonzero;fill:rgb(100%,100%,100%);fill-opacity:1;" d="M 4.800781 2.214844 L 5.027344 2.882812 L 4.429688 2.46875 L 5.167969 2.46875 L 4.570312 2.882812 Z M 4.800781 2.214844 "/>
<path style=" stroke:none;fill-rule:nonzero;fill:rgb(100%,100%,100%);fill-opacity:1;" d="M 4.800781 3.507812 L 5.027344 4.175781 L 4.429688 3.761719 L 5.167969 3.761719 L 4.570312 4.175781 Z M 4.800781 3.507812 "/>
<path style=" stroke:none;fill-rule:nonzero;fill:rgb(100%,100%,100%);fill-opacity:1;" d="M 4.800781 4.800781 L 5.027344 5.46875 L 4.429688 5.054688 L 5.167969 5.054688 L 4.570312 5.46875 Z M 4.800781 4.800781 "/>
<path style=" stroke:none;fill-rule:nonzero;fill:rgb(100%,100%,100%);fill-opacity:1;" d="M 5.601562 0.277344 L 5.828125 0.945312 L 5.230469 0.53125 L 5.96875 0.53125 L 5.371094 0.945312 Z M 5.601562 0.277344 "/>
<path style=" stroke:none;fill-rule:nonzero;fill:rgb(100%,100%,100%);fill-opacity:1;" d="M 5.601562 1.570312 L 5.828125 2.238281 L 5.230469 1.824219 L 5.96875 1.824219 L 5.371094 2.238281 Z M 5.601562 1.570312 "/>
<path style=" stroke:none;fill-rule:nonzero;fill:rgb(100%,100%,100%);fill-opacity:1;" d="M 5.601562 2.863281 L 5.828125 3.53125 L 5.230469 3.117188 L 5.96875 3.117188 L 5.371094 3.53125 Z M 5.601562 2.863281 "/>
<path style=" stroke:none;fill-rule:nonzero;fill:rgb(100%,100%,100%);fill-opacity:1;" d="M 5.601562 4.152344 L 5.828125 4.820312 L 5.230469 4.410156 L 5.96875 4.410156 L 5.371094 4.820312 Z M 5.601562 4.152344 "/>
<path style=" stroke:none;fill-rule:nonzero;fill:rgb(100%,100%,100%);fill-opacity:1;" d="M 5.601562 5.445312 L 5.828125 6.113281 L 5.230469 5.703125 L 5.96875 5.703125 L 5.371094 6.113281 Z M 5.601562 5.445312 "/>
<path style=" stroke:none;fill-rule:nonzero;fill:rgb(100%,100%,100%);fill-opacity:1;" d="M 6.398438 0.921875 L 6.628906 1.589844 L 6.03125 1.179688 L 6.769531 1.179688 L 6.171875 1.589844 Z M 6.398438 0.921875 "/>
<path style=" stroke:none;fill-rule:nonzero;fill:rgb(100%,100%,100%);fill-opacity:1;" d="M 6.398438 2.214844 L 6.628906 2.882812 L 6.03125 2.46875 L 6.769531 2.46875 L 6.171875 2.882812 Z M 6.398438 2.214844 "/>
<path style=" stroke:none;fill-rule:nonzero;fill:rgb(100%,100%,100%);fill-opacity:1;" d="M 6.398438 3.507812 L 6.628906 4.175781 L 6.03125 3.761719 L 6.769531 3.761719 L 6.171875 4.175781 Z M 6.398438 3.507812 "/>
<path style=" stroke:none;fill-rule:nonzero;fill:rgb(100%,100%,100%);fill-opacity:1;" d="M 6.398438 4.800781 L 6.628906 5.46875 L 6.03125 5.054688 L 6.769531 5.054688 L 6.171875 5.46875 Z M 6.398438 4.800781 "/>
<path style=" stroke:none;fill-rule:nonzero;fill:rgb(100%,100%,100%);fill-opacity:1;" d="M 7.199219 0.277344 L 7.429688 0.945312 L 6.832031 0.53125 L 7.570312 0.53125 L 6.972656 0.945312 Z M 7.199219 0.277344 "/>
<path style=" stroke:none;fill-rule:nonzero;fill:rgb(100%,100%,100%);fill-opacity:1;" d="M 7.199219 1.570312 L 7.429688 2.238281 L 6.832031 1.824219 L 7.570312 1.824219 L 6.972656 2.238281 Z M 7.199219 1.570312 "/>
<path style=" stroke:none;fill-rule:nonzero;fill:rgb(100%,100%,100%);fill-opacity:1;" d="M 7.199219 2.863281 L 7.429688 3.53125 L 6.832031 3.117188 L 7.570312 3.117188 L 6.972656 3.53125 Z M 7.199219 2.863281 "/>
<path style=" stroke:none;fill-rule:nonzero;fill:rgb(100%,100%,100%);fill-opacity:1;" d="M 7.199219 4.152344 L 7.429688 4.820312 L 6.832031 4.410156 L 7.570312 4.410156 L 6.972656 4.820312 Z M 7.199219 4.152344 "/>
<path style=" stroke:none;fill-rule:nonzero;fill:rgb(100%,100%,100%);fill-opacity:1;" d="M 7.199219 5.445312 L 7.429688 6.113281 L 6.832031 5.703125 L 7.570312 5.703125 L 6.972656 6.113281 Z M 7.199219 5.445312 "/>
<path style=" stroke:none;fill-rule:nonzero;fill:rgb(100%,100%,100%);fill-opacity:1;" d="M 8 0.921875 L 8.226562 1.589844 L 7.628906 1.179688 L 8.371094 1.179688 L 7.773438 1.589844 Z M 8 0.921875 "/>
<path style=" stroke:none;fill-rule:nonzero;fill:rgb(100%,100%,100%);fill-opacity:1;" d="M 8 2.214844 L 8.226562 2.882812 L 7.628906 2.46875 L 8.371094 2.46875 L 7.773438 2.882812 Z M 8 2.214844 "/>
<path style=" stroke:none;fill-rule:nonzero;fill:rgb(100%,100%,100%);fill-opacity:1;" d="M 8 3.507812 L 8.226562 4.175781 L 7.628906 3.761719 L 8.371094 3.761719 L 7.773438 4.175781 Z M 8 3.507812 "/>
<path style=" stroke:none;fill-rule:nonzero;fill:rgb(100%,100%,100%);fill-opacity:1;" d="M 8 4.800781 L 8.226562 5.46875 L 7.628906 5.054688 L 8.371094 5.054688 L 7.773438 5.46875 Z M 8 4.800781 "/>
<path style=" stroke:none;fill-rule:nonzero;fill:rgb(100%,100%,100%);fill-opacity:1;" d="M 8.800781 0.277344 L 9.027344 0.945312 L 8.429688 0.53125 L 9.167969 0.53125 L 8.570312 0.945312 Z M 8.800781 0.277344 "/>
<path style=" stroke:none;fill-rule:nonzero;fill:rgb(100%,100%,100%);fill-opacity:1;" d="M 8.800781 1.570312 L 9.027344 2.238281 L 8.429688 1.824219 L 9.167969 1.824219 L 8.570312 2.238281 Z M 8.800781 1.570312 "/>
<path style=" stroke:none;fill-rule:nonzero;fill:rgb(100%,100%,100%);fill-opacity:1;" d="M 8.800781 2.863281 L 9.027344 3.53125 L 8.429688 3.117188 L 9.167969 3.117188 L 8.570312 3.53125 Z M 8.800781 2.863281 "/>
<path style=" stroke:none;fill-rule:nonzero;fill:rgb(100%,100%,100%);fill-opacity:1;" d="M 8.800781 4.152344 L 9.027344 4.820312 L 8.429688 4.410156 L 9.167969 4.410156 L 8.570312 4.820312 Z M 8.800781 4.152344 "/>
<path style=" stroke:none;fill-rule:nonzero;fill:rgb(100%,100%,100%);fill-opacity:1;" d="M 8.800781 5.445312 L 9.027344 6.113281 L 8.429688 5.703125 L 9.167969 5.703125 L 8.570312 6.113281 Z M 8.800781 5.445312 "/>
</g>
</svg>
