<?xml version="1.0" encoding="UTF-8"?>
<svg xmlns="http://www.w3.org/2000/svg" xmlns:xlink="http://www.w3.org/1999/xlink" width="24px" height="24px" viewBox="0 0 24 16" version="1.1">
<g id="surface1">
<rect x="0" y="0" width="24" height="16" style="fill:rgb(100%,100%,100%);fill-opacity:1;stroke:none;"/>
<path style=" stroke:none;fill-rule:nonzero;fill:rgb(0%,21.960784%,65.882353%);fill-opacity:1;" d="M 8.890625 1.777344 L 24 1.777344 L 24 3.554688 L 8.890625 3.554688 Z M 8.890625 5.332031 L 24 5.332031 L 24 7.109375 L 8.890625 7.109375 Z M 0 8.890625 L 24 8.890625 L 24 10.667969 L 0 10.667969 Z M 0 12.445312 L 24 12.445312 L 24 14.222656 L 0 14.222656 Z M 0 12.445312 "/>
<path style="fill-rule:nonzero;fill:rgb(98.823529%,81.960784%,8.627451%);fill-opacity:1;stroke-width:0.611;stroke-linecap:square;stroke-linejoin:miter;stroke:rgb(48.235294%,24.705882%,0%);stroke-opacity:1;stroke-miterlimit:20;" d="M -19.115834 157.87669 L -16.023001 162.475244 C -28.638502 171.590961 -20.947116 176.962722 -29.859357 179.892774 C -24.324815 174.480317 -30.59187 173.625719 -25.911926 162.353158 " transform="matrix(0.0959881,0,0,0.0959881,6.077079,-9.841778)"/>
<path style="fill-rule:nonzero;fill:rgb(98.823529%,81.960784%,8.627451%);fill-opacity:1;stroke-width:0.611;stroke-linecap:square;stroke-linejoin:miter;stroke:rgb(48.235294%,24.705882%,0%);stroke-opacity:1;stroke-miterlimit:20;" d="M -24.894547 153.766479 L -25.952621 159.13824 C -41.335393 156.696531 -39.707587 165.934333 -48.050095 161.702036 C -40.318014 161.783426 -43.980579 156.696531 -32.708019 152.016587 " transform="matrix(0.0959881,0,0,0.0959881,6.077079,-9.841778)"/>
<path style="fill-rule:nonzero;fill:rgb(48.235294%,24.705882%,0%);fill-opacity:1;stroke-width:0.278;stroke-linecap:square;stroke-linejoin:miter;stroke:rgb(48.235294%,24.705882%,0%);stroke-opacity:1;stroke-miterlimit:20;" d="M -24.894547 153.766479 L -27.295562 153.318832 L -27.295562 153.400222 C -33.725398 154.987334 -37.225182 157.673215 -39.992453 159.707973 C -41.376089 160.725352 -42.556248 161.57995 -43.817798 162.068292 C -44.672397 162.353158 -45.608386 162.475244 -46.503679 162.393854 C -39.829672 164.754173 -40.277319 156.859311 -25.952621 159.178936 Z M -24.894547 153.766479 " transform="matrix(0.0959881,0,0,0.0959881,6.077079,-9.841778)"/>
<path style="fill:none;stroke-width:0.611;stroke-linecap:butt;stroke-linejoin:miter;stroke:rgb(48.235294%,24.705882%,0%);stroke-opacity:1;stroke-miterlimit:20;" d="M -27.376952 153.115356 C -40.358709 156.289579 -41.62026 163.980965 -48.050095 161.702036 " transform="matrix(0.0959881,0,0,0.0959881,6.077079,-9.841778)"/>
<path style="fill-rule:nonzero;fill:rgb(98.823529%,81.960784%,8.627451%);fill-opacity:1;stroke-width:0.611;stroke-linecap:butt;stroke-linejoin:miter;stroke:rgb(48.235294%,24.705882%,0%);stroke-opacity:1;stroke-miterlimit:20;" d="M -16.999685 148.842364 L -21.313373 144.528677 L -40.765661 172.60834 L -12.685998 153.156051 L -16.999685 148.842364 L -40.765661 172.60834 " transform="matrix(0.0959881,0,0,0.0959881,6.077079,-9.841778)"/>
<path style="fill-rule:nonzero;fill:rgb(98.823529%,81.960784%,8.627451%);fill-opacity:1;stroke-width:0.611;stroke-linecap:square;stroke-linejoin:miter;stroke:rgb(48.235294%,24.705882%,0%);stroke-opacity:1;stroke-miterlimit:20;" d="M -26.074707 146.726215 L -30.632565 149.819048 C -39.748282 137.203547 -45.160739 144.894933 -48.050095 135.982692 C -42.637639 141.517234 -41.742345 135.250179 -30.469785 139.930123 " transform="matrix(0.0959881,0,0,0.0959881,6.077079,-9.841778)"/>
<path style="fill-rule:nonzero;fill:rgb(48.235294%,24.705882%,0%);fill-opacity:1;stroke-width:0.278;stroke-linecap:square;stroke-linejoin:miter;stroke:rgb(48.235294%,24.705882%,0%);stroke-opacity:1;stroke-miterlimit:20;" d="M -26.074707 146.726215 L -27.458342 144.732152 L -27.499038 144.813543 C -33.196361 141.354454 -37.550743 140.784721 -40.969137 140.255684 C -42.637639 140.011513 -44.102665 139.808037 -45.323519 139.238305 C -46.137423 138.831354 -46.869936 138.261621 -47.439668 137.569803 C -44.387531 143.958944 -39.137855 138.058145 -30.632565 149.819048 Z M -26.074707 146.726215 " transform="matrix(0.0959881,0,0,0.0959881,6.077079,-9.841778)"/>
<path style="fill:none;stroke-width:0.611;stroke-linecap:butt;stroke-linejoin:miter;stroke:rgb(48.235294%,24.705882%,0%);stroke-opacity:1;stroke-miterlimit:20;" d="M -27.376952 144.528677 C -38.812293 137.610499 -45.120044 142.168357 -48.050095 135.982692 " transform="matrix(0.0959881,0,0,0.0959881,6.077079,-9.841778)"/>
<path style="fill-rule:nonzero;fill:rgb(98.823529%,81.960784%,8.627451%);fill-opacity:1;stroke-width:0.611;stroke-linecap:butt;stroke-linejoin:miter;stroke:rgb(48.235294%,24.705882%,0%);stroke-opacity:1;stroke-miterlimit:20;" d="M -16.999685 148.842364 L -16.999685 142.738089 L -50.613891 148.842364 L -16.999685 154.946639 L -16.999685 148.842364 L -50.613891 148.842364 " transform="matrix(0.0959881,0,0,0.0959881,6.077079,-9.841778)"/>
<path style=" stroke:none;fill-rule:nonzero;fill:rgb(48.235294%,24.705882%,0%);fill-opacity:1;" d="M 4.445312 4.445312 L 4.445312 5.03125 L 4.445312 4.445312 L 1.21875 4.445312 L 4.445312 5.03125 "/>
<path style="fill-rule:nonzero;fill:rgb(98.823529%,81.960784%,8.627451%);fill-opacity:1;stroke-width:0.611;stroke-linecap:square;stroke-linejoin:miter;stroke:rgb(48.235294%,24.705882%,0%);stroke-opacity:1;stroke-miterlimit:20;" d="M -21.9238 140.947502 L -27.336257 139.889428 C -24.853852 124.506656 -34.132349 126.134462 -29.859357 117.791954 C -29.981443 125.524035 -24.609681 122.471898 -19.929737 133.785153 " transform="matrix(0.0959881,0,0,0.0959881,6.077079,-9.841778)"/>
<path style="fill-rule:nonzero;fill:rgb(48.235294%,24.705882%,0%);fill-opacity:1;stroke-width:0.278;stroke-linecap:square;stroke-linejoin:miter;stroke:rgb(48.235294%,24.705882%,0%);stroke-opacity:1;stroke-miterlimit:20;" d="M -21.9238 140.947502 L -21.476153 138.546487 L -21.598239 138.546487 C -23.18535 132.116651 -25.871231 128.616867 -27.865294 125.849596 C -28.882673 124.465961 -29.777967 123.285801 -30.225614 122.024251 C -30.551175 121.169652 -30.67326 120.233664 -30.551175 119.33837 C -32.911494 126.012377 -25.057328 125.56473 -27.336257 139.889428 Z M -21.9238 140.947502 " transform="matrix(0.0959881,0,0,0.0959881,6.077079,-9.841778)"/>
<path style="fill:none;stroke-width:0.611;stroke-linecap:butt;stroke-linejoin:miter;stroke:rgb(48.235294%,24.705882%,0%);stroke-opacity:1;stroke-miterlimit:20;" d="M -21.313373 138.465097 C -24.487595 125.48334 -32.178981 124.22179 -29.859357 117.791954 " transform="matrix(0.0959881,0,0,0.0959881,6.077079,-9.841778)"/>
<path style="fill-rule:nonzero;fill:rgb(98.823529%,81.960784%,8.627451%);fill-opacity:1;stroke-width:0.611;stroke-linecap:butt;stroke-linejoin:miter;stroke:rgb(48.235294%,24.705882%,0%);stroke-opacity:1;stroke-miterlimit:20;" d="M -16.999685 148.842364 L -12.685998 144.528677 L -40.765661 125.076388 L -21.313373 153.156051 L -16.999685 148.842364 L -40.765661 125.076388 " transform="matrix(0.0959881,0,0,0.0959881,6.077079,-9.841778)"/>
<path style=" stroke:none;fill-rule:nonzero;fill:rgb(48.235294%,24.705882%,0%);fill-opacity:1;" d="M 4.445312 4.445312 L 4.03125 4.859375 L 4.445312 4.445312 L 2.164062 2.164062 L 4.03125 4.859375 "/>
<path style="fill-rule:nonzero;fill:rgb(98.823529%,81.960784%,8.627451%);fill-opacity:1;stroke-width:0.611;stroke-linecap:square;stroke-linejoin:miter;stroke:rgb(48.235294%,24.705882%,0%);stroke-opacity:1;stroke-miterlimit:20;" d="M -14.924232 139.767342 L -17.976369 135.209484 C -5.360868 126.093767 -13.052254 120.68131 -4.140013 117.791954 C -9.715251 123.204411 -3.448196 124.099704 -8.128139 135.372265 " transform="matrix(0.0959881,0,0,0.0959881,6.077079,-9.841778)"/>
<path style="fill-rule:nonzero;fill:rgb(48.235294%,24.705882%,0%);fill-opacity:1;stroke-width:0.278;stroke-linecap:square;stroke-linejoin:miter;stroke:rgb(48.235294%,24.705882%,0%);stroke-opacity:1;stroke-miterlimit:20;" d="M -14.924232 139.767342 L -12.889474 138.383707 L -12.970864 138.343012 C -9.55247 132.645689 -8.942043 128.291306 -8.453701 124.913607 C -8.20953 123.204411 -7.965359 121.739385 -7.395626 120.51853 C -7.02937 119.704626 -6.459638 118.972113 -5.727125 118.402381 C -12.116266 121.454518 -6.256162 126.704195 -17.976369 135.209484 Z M -14.924232 139.767342 " transform="matrix(0.0959881,0,0,0.0959881,6.077079,-9.841778)"/>
<path style="fill:none;stroke-width:0.611;stroke-linecap:butt;stroke-linejoin:miter;stroke:rgb(48.235294%,24.705882%,0%);stroke-opacity:1;stroke-miterlimit:20;" d="M -12.726693 138.465097 C -5.76782 127.029756 -10.325678 120.722005 -4.140013 117.791954 " transform="matrix(0.0959881,0,0,0.0959881,6.077079,-9.841778)"/>
<path style="fill-rule:nonzero;fill:rgb(98.823529%,81.960784%,8.627451%);fill-opacity:1;stroke-width:0.611;stroke-linecap:butt;stroke-linejoin:miter;stroke:rgb(48.235294%,24.705882%,0%);stroke-opacity:1;stroke-miterlimit:20;" d="M -16.999685 148.842364 L -10.895411 148.842364 L -16.999685 115.228158 L -23.10396 148.842364 L -16.999685 148.842364 L -16.999685 115.228158 " transform="matrix(0.0959881,0,0,0.0959881,6.077079,-9.841778)"/>
<path style=" stroke:none;fill-rule:nonzero;fill:rgb(48.235294%,24.705882%,0%);fill-opacity:1;" d="M 4.445312 4.445312 L 3.859375 4.445312 L 4.445312 4.445312 L 4.445312 1.21875 L 3.859375 4.445312 "/>
<path style="fill-rule:nonzero;fill:rgb(98.823529%,81.960784%,8.627451%);fill-opacity:1;stroke-width:0.611;stroke-linecap:square;stroke-linejoin:miter;stroke:rgb(48.235294%,24.705882%,0%);stroke-opacity:1;stroke-miterlimit:20;" d="M -9.104823 143.918249 L -8.046749 138.505792 C 7.295328 140.988197 5.667521 131.7097 14.050725 135.982692 C 6.277949 135.860607 9.737038 140.988197 -1.535523 145.668141 " transform="matrix(0.0959881,0,0,0.0959881,6.077079,-9.841778)"/>
<path style="fill-rule:nonzero;fill:rgb(48.235294%,24.705882%,0%);fill-opacity:1;stroke-width:0.278;stroke-linecap:square;stroke-linejoin:miter;stroke:rgb(48.235294%,24.705882%,0%);stroke-opacity:1;stroke-miterlimit:20;" d="M -9.104823 143.918249 L -6.703809 144.365896 L -6.744504 144.24381 C -0.273973 142.656699 3.225811 140.011513 5.952387 137.976755 C 7.336023 136.959376 8.516183 136.064082 9.818428 135.616436 C 10.673026 135.290874 11.56832 135.168789 12.463614 135.290874 C 5.830302 132.930555 6.277949 140.784721 -8.046749 138.505792 Z M -9.104823 143.918249 " transform="matrix(0.0959881,0,0,0.0959881,6.077079,-9.841778)"/>
<path style="fill:none;stroke-width:0.611;stroke-linecap:butt;stroke-linejoin:miter;stroke:rgb(48.235294%,24.705882%,0%);stroke-opacity:1;stroke-miterlimit:20;" d="M -6.663114 144.528677 C 6.359339 141.354454 7.580194 133.663068 14.050725 135.982692 " transform="matrix(0.0959881,0,0,0.0959881,6.077079,-9.841778)"/>
<path style="fill-rule:nonzero;fill:rgb(98.823529%,81.960784%,8.627451%);fill-opacity:1;stroke-width:0.611;stroke-linecap:butt;stroke-linejoin:miter;stroke:rgb(48.235294%,24.705882%,0%);stroke-opacity:1;stroke-miterlimit:20;" d="M -16.999685 148.842364 L -12.685998 153.156051 L 6.766291 125.076388 L -21.313373 144.528677 L -16.999685 148.842364 L 6.766291 125.076388 " transform="matrix(0.0959881,0,0,0.0959881,6.077079,-9.841778)"/>
<path style=" stroke:none;fill-rule:nonzero;fill:rgb(48.235294%,24.705882%,0%);fill-opacity:1;" d="M 4.445312 4.445312 L 4.03125 4.03125 L 4.445312 4.445312 L 6.726562 2.164062 L 4.03125 4.03125 "/>
<path style="fill-rule:nonzero;fill:rgb(98.823529%,81.960784%,8.627451%);fill-opacity:1;stroke-width:0.611;stroke-linecap:square;stroke-linejoin:miter;stroke:rgb(48.235294%,24.705882%,0%);stroke-opacity:1;stroke-miterlimit:20;" d="M -7.965359 150.917817 L -3.366805 147.86568 C 5.748912 160.481181 11.120673 152.789795 14.050725 161.702036 C 8.638268 156.126798 7.620889 162.353158 -3.692367 157.673215 " transform="matrix(0.0959881,0,0,0.0959881,6.077079,-9.841778)"/>
<path style="fill-rule:nonzero;fill:rgb(48.235294%,24.705882%,0%);fill-opacity:1;stroke-width:0.278;stroke-linecap:square;stroke-linejoin:miter;stroke:rgb(48.235294%,24.705882%,0%);stroke-opacity:1;stroke-miterlimit:20;" d="M -7.965359 150.917817 L -6.541028 152.952575 L -6.500333 152.871185 C -0.80301 156.289579 3.551373 156.900006 6.929071 157.388348 C 8.638268 157.632519 10.062599 157.87669 11.324149 158.446423 C 12.138052 158.812679 12.870565 159.382411 13.440298 160.114924 C 10.38816 153.725784 5.138484 159.585887 -3.366805 147.86568 Z M -7.965359 150.917817 " transform="matrix(0.0959881,0,0,0.0959881,6.077079,-9.841778)"/>
<path style="fill:none;stroke-width:0.611;stroke-linecap:butt;stroke-linejoin:miter;stroke:rgb(48.235294%,24.705882%,0%);stroke-opacity:1;stroke-miterlimit:20;" d="M -6.663114 153.115356 C 4.812923 160.074229 11.079978 155.516371 14.050725 161.702036 " transform="matrix(0.0959881,0,0,0.0959881,6.077079,-9.841778)"/>
<path style="fill-rule:nonzero;fill:rgb(98.823529%,81.960784%,8.627451%);fill-opacity:1;stroke-width:0.611;stroke-linecap:butt;stroke-linejoin:miter;stroke:rgb(48.235294%,24.705882%,0%);stroke-opacity:1;stroke-miterlimit:20;" d="M -16.999685 148.842364 L -16.999685 154.946639 L 16.61452 148.842364 L -16.999685 142.738089 L -16.999685 148.842364 L 16.61452 148.842364 " transform="matrix(0.0959881,0,0,0.0959881,6.077079,-9.841778)"/>
<path style=" stroke:none;fill-rule:nonzero;fill:rgb(48.235294%,24.705882%,0%);fill-opacity:1;" d="M 4.445312 4.445312 L 4.445312 3.859375 L 4.445312 4.445312 L 7.671875 4.445312 L 4.445312 3.859375 "/>
<path style="fill-rule:nonzero;fill:rgb(98.823529%,81.960784%,8.627451%);fill-opacity:1;stroke-width:0.611;stroke-linecap:square;stroke-linejoin:miter;stroke:rgb(48.235294%,24.705882%,0%);stroke-opacity:1;stroke-miterlimit:20;" d="M -12.07557 156.737226 L -6.703809 157.7953 C -9.145519 173.137377 0.0922837 171.50957 -4.140013 179.892774 C -4.058623 172.119998 -9.145519 175.741867 -13.825462 164.428612 " transform="matrix(0.0959881,0,0,0.0959881,6.077079,-9.841778)"/>
<path style="fill-rule:nonzero;fill:rgb(48.235294%,24.705882%,0%);fill-opacity:1;stroke-width:0.278;stroke-linecap:square;stroke-linejoin:miter;stroke:rgb(48.235294%,24.705882%,0%);stroke-opacity:1;stroke-miterlimit:20;" d="M -12.07557 156.737226 L -12.523217 159.13824 L -12.441827 159.097545 C -10.854715 165.568076 -8.168835 169.06786 -6.134076 171.794436 C -5.116697 173.178072 -4.262099 174.358232 -3.773757 175.660477 C -3.488891 176.515076 -3.366805 177.410369 -3.448196 178.305663 C -1.087876 171.672351 -8.982738 172.119998 -6.663114 157.7953 Z M -12.07557 156.737226 " transform="matrix(0.0959881,0,0,0.0959881,6.077079,-9.841778)"/>
<path style="fill:none;stroke-width:0.611;stroke-linecap:butt;stroke-linejoin:miter;stroke:rgb(48.235294%,24.705882%,0%);stroke-opacity:1;stroke-miterlimit:20;" d="M -12.726693 159.178936 C -9.55247 172.201388 -1.861084 173.422243 -4.140013 179.892774 " transform="matrix(0.0959881,0,0,0.0959881,6.077079,-9.841778)"/>
<path style="fill-rule:nonzero;fill:rgb(98.823529%,81.960784%,8.627451%);fill-opacity:1;stroke-width:0.611;stroke-linecap:butt;stroke-linejoin:miter;stroke:rgb(48.235294%,24.705882%,0%);stroke-opacity:1;stroke-miterlimit:20;" d="M -16.999685 148.842364 L -21.313373 153.156051 L 6.766291 172.60834 L -12.685998 144.528677 L -16.999685 148.842364 L 6.766291 172.60834 " transform="matrix(0.0959881,0,0,0.0959881,6.077079,-9.841778)"/>
<path style=" stroke:none;fill-rule:nonzero;fill:rgb(48.235294%,24.705882%,0%);fill-opacity:1;" d="M 4.445312 4.445312 L 4.859375 4.03125 L 4.445312 4.445312 L 6.726562 6.726562 L 4.859375 4.03125 "/>
<path style="fill-rule:nonzero;fill:rgb(48.235294%,24.705882%,0%);fill-opacity:1;stroke-width:0.278;stroke-linecap:square;stroke-linejoin:miter;stroke:rgb(48.235294%,24.705882%,0%);stroke-opacity:1;stroke-miterlimit:20;" d="M -19.115834 157.87669 L -21.109897 159.301021 L -21.028506 159.341716 C -24.487595 165.039039 -25.057328 169.393422 -25.586365 172.77112 C -25.830536 174.480317 -26.034012 175.904648 -26.644439 177.166198 C -27.010696 177.980101 -27.580428 178.712614 -28.272246 179.282347 C -21.883105 176.230209 -27.783904 170.980533 -16.023001 162.475244 Z M -19.115834 157.87669 " transform="matrix(0.0959881,0,0,0.0959881,6.077079,-9.841778)"/>
<path style="fill:none;stroke-width:0.611;stroke-linecap:butt;stroke-linejoin:miter;stroke:rgb(48.235294%,24.705882%,0%);stroke-opacity:1;stroke-miterlimit:20;" d="M -21.313373 159.178936 C -28.231551 170.654972 -23.673692 176.922027 -29.859357 179.892774 " transform="matrix(0.0959881,0,0,0.0959881,6.077079,-9.841778)"/>
<path style="fill-rule:nonzero;fill:rgb(98.823529%,81.960784%,8.627451%);fill-opacity:1;stroke-width:0.611;stroke-linecap:butt;stroke-linejoin:miter;stroke:rgb(48.235294%,24.705882%,0%);stroke-opacity:1;stroke-miterlimit:20;" d="M -16.999685 148.842364 L -23.10396 148.842364 L -16.999685 182.45657 L -10.895411 148.842364 L -16.999685 148.842364 L -16.999685 182.45657 " transform="matrix(0.0959881,0,0,0.0959881,6.077079,-9.841778)"/>
<path style=" stroke:none;fill-rule:nonzero;fill:rgb(48.235294%,24.705882%,0%);fill-opacity:1;" d="M 4.445312 4.445312 L 5.03125 4.445312 L 4.445312 4.445312 L 4.445312 7.671875 L 5.03125 4.445312 "/>
<path style=" stroke:none;fill-rule:nonzero;fill:rgb(48.235294%,24.705882%,0%);fill-opacity:1;" d="M 4.445312 4.445312 L 4.859375 4.859375 L 4.445312 4.445312 L 2.164062 6.726562 L 4.859375 4.859375 "/>
<path style="fill-rule:nonzero;fill:rgb(98.823529%,81.960784%,8.627451%);fill-opacity:1;stroke-width:0.611;stroke-linecap:butt;stroke-linejoin:miter;stroke:rgb(48.235294%,24.705882%,0%);stroke-opacity:1;stroke-miterlimit:20;" d="M -5.808515 148.842364 C -5.808515 155.028029 -10.81402 160.033534 -16.999685 160.033534 C -23.18535 160.033534 -28.231551 155.028029 -28.231551 148.842364 C -28.231551 142.656699 -23.18535 137.610499 -16.999685 137.610499 C -10.81402 137.610499 -5.808515 142.656699 -5.808515 148.842364 Z M -5.808515 148.842364 " transform="matrix(0.0959881,0,0,0.0959881,6.077079,-9.841778)"/>
<path style=" stroke:none;fill-rule:nonzero;fill:rgb(48.235294%,24.705882%,0%);fill-opacity:1;" d="M 5.238281 4.015625 C 5.167969 4.09375 5.128906 3.957031 4.882812 3.957031 C 4.640625 3.957031 4.601562 4.101562 4.5625 4.074219 C 4.523438 4.042969 4.765625 3.867188 4.84375 3.859375 C 4.921875 3.847656 5.148438 3.925781 5.238281 4.015625 M 4.953125 4.101562 C 5.019531 4.160156 4.960938 4.289062 4.894531 4.289062 C 4.824219 4.289062 4.699219 4.171875 4.757812 4.09375 "/>
<path style=" stroke:none;fill-rule:nonzero;fill:rgb(48.235294%,24.705882%,0%);fill-opacity:1;" d="M 4.628906 4.191406 C 4.640625 4.074219 4.738281 4.054688 4.894531 4.054688 C 5.050781 4.054688 5.117188 4.171875 5.179688 4.199219 C 5.109375 4.199219 5.050781 4.101562 4.894531 4.101562 C 4.738281 4.101562 4.738281 4.101562 4.628906 4.199219 M 4.660156 4.21875 C 4.699219 4.160156 4.746094 4.277344 4.855469 4.277344 C 4.960938 4.277344 5.019531 4.25 5.089844 4.199219 C 5.15625 4.152344 4.992188 4.316406 4.882812 4.316406 C 4.777344 4.316406 4.628906 4.257812 4.660156 4.21875 M 3.898438 4.09375 C 3.847656 4.113281 3.769531 4.210938 3.898438 4.277344 C 3.800781 4.210938 3.878906 4.113281 3.898438 4.09375 Z M 3.898438 4.09375 "/>
<path style=" stroke:none;fill-rule:nonzero;fill:rgb(48.235294%,24.705882%,0%);fill-opacity:1;" d="M 4.992188 4.09375 C 5.011719 4.113281 5.089844 4.210938 4.992188 4.277344 C 5.117188 4.210938 5.039062 4.113281 4.992188 4.09375 Z M 4.289062 4.511719 C 4.199219 4.53125 4.230469 4.660156 4.152344 4.667969 C 4.074219 4.679688 4.035156 4.765625 4.042969 4.757812 C 4.09375 4.71875 4.199219 4.6875 4.277344 4.6875 C 4.355469 4.6875 4.375 4.738281 4.445312 4.738281 C 4.511719 4.738281 4.53125 4.6875 4.609375 4.6875 C 4.6875 4.6875 4.796875 4.71875 4.84375 4.757812 C 4.855469 4.765625 4.816406 4.679688 4.738281 4.667969 C 4.660156 4.660156 4.6875 4.53125 4.601562 4.511719 C 4.601562 4.550781 4.628906 4.542969 4.640625 4.601562 C 4.640625 4.648438 4.550781 4.648438 4.53125 4.601562 C 4.550781 4.679688 4.492188 4.679688 4.445312 4.679688 C 4.394531 4.679688 4.335938 4.679688 4.355469 4.601562 C 4.335938 4.648438 4.25 4.648438 4.25 4.601562 C 4.257812 4.542969 4.289062 4.550781 4.289062 4.511719 Z M 3.984375 4.84375 C 3.90625 4.902344 3.886719 4.933594 3.878906 5 C 3.902344 4.960938 3.914062 4.945312 3.929688 4.917969 L 3.917969 4.914062 C 3.921875 4.914062 3.925781 4.914062 3.933594 4.917969 C 3.945312 4.898438 3.953125 4.886719 3.984375 4.84375 Z M 3.984375 4.84375 "/>
<path style=" stroke:none;fill-rule:nonzero;fill:rgb(48.235294%,24.705882%,0%);fill-opacity:1;" d="M 3.933594 4.917969 L 3.929688 4.917969 C 3.945312 4.921875 3.957031 4.921875 3.96875 4.921875 C 3.957031 4.917969 3.945312 4.917969 3.933594 4.917969 Z M 3.96875 4.921875 C 4.03125 4.933594 4.078125 4.945312 4.121094 4.960938 C 4.175781 4.957031 4.253906 4.941406 4.445312 4.941406 C 4.636719 4.941406 4.710938 4.957031 4.765625 4.960938 C 4.808594 4.945312 4.859375 4.933594 4.917969 4.921875 C 4.8125 4.921875 4.667969 4.84375 4.601562 4.84375 C 4.523438 4.84375 4.503906 4.863281 4.445312 4.863281 C 4.386719 4.863281 4.367188 4.84375 4.289062 4.84375 C 4.222656 4.84375 4.078125 4.921875 3.96875 4.921875 Z M 4.917969 4.921875 C 4.933594 4.921875 4.945312 4.921875 4.957031 4.917969 C 4.941406 4.917969 4.929688 4.921875 4.917969 4.921875 Z M 4.917969 4.921875 "/>
<path style=" stroke:none;fill-rule:nonzero;fill:rgb(48.235294%,24.705882%,0%);fill-opacity:1;" d="M 4.957031 4.917969 C 4.960938 4.914062 4.964844 4.914062 4.972656 4.914062 C 4.96875 4.914062 4.964844 4.917969 4.957031 4.917969 C 4.976562 4.945312 4.988281 4.960938 5.011719 5 C 5 4.933594 4.980469 4.902344 4.902344 4.84375 C 4.933594 4.886719 4.945312 4.898438 4.957031 4.917969 Z M 4.957031 4.917969 "/>
<path style=" stroke:none;fill-rule:nonzero;fill:rgb(48.235294%,24.705882%,0%);fill-opacity:1;" d="M 4.957031 4.917969 C 4.855469 4.957031 4.820312 4.964844 4.765625 4.960938 C 4.671875 4.992188 4.597656 5.019531 4.445312 5.019531 C 4.292969 5.019531 4.214844 4.992188 4.121094 4.960938 C 4.070312 4.964844 4.03125 4.957031 3.929688 4.917969 C 4.238281 5.050781 4.203125 5.097656 4.445312 5.097656 C 4.683594 5.097656 4.652344 5.050781 4.957031 4.917969 Z M 3.929688 4.917969 C 3.925781 4.917969 3.921875 4.914062 3.917969 4.914062 C 3.921875 4.914062 3.925781 4.917969 3.929688 4.917969 Z M 4.957031 4.917969 C 4.964844 4.917969 4.96875 4.914062 4.972656 4.914062 C 4.96875 4.914062 4.960938 4.917969 4.957031 4.917969 Z M 3.652344 4.015625 C 3.722656 4.09375 3.761719 3.957031 4.003906 3.957031 C 4.25 3.957031 4.289062 4.101562 4.328125 4.074219 C 4.367188 4.042969 4.121094 3.867188 4.042969 3.859375 C 3.964844 3.847656 3.742188 3.925781 3.652344 4.015625 M 3.9375 4.101562 C 3.867188 4.160156 3.925781 4.289062 3.996094 4.289062 C 4.0625 4.289062 4.191406 4.171875 4.132812 4.09375 "/>
<path style=" stroke:none;fill-rule:nonzero;fill:rgb(48.235294%,24.705882%,0%);fill-opacity:1;" d="M 4.257812 4.191406 C 4.25 4.074219 4.152344 4.054688 3.996094 4.054688 C 3.839844 4.054688 3.769531 4.171875 3.710938 4.199219 C 3.78125 4.199219 3.839844 4.101562 3.996094 4.101562 C 4.152344 4.101562 4.152344 4.101562 4.257812 4.199219 M 4.230469 4.21875 C 4.191406 4.160156 4.140625 4.277344 4.035156 4.277344 C 3.925781 4.277344 3.867188 4.25 3.800781 4.199219 C 3.730469 4.152344 3.898438 4.316406 4.003906 4.316406 C 4.113281 4.316406 4.257812 4.257812 4.230469 4.21875 M 4.445312 5.1875 C 4.394531 5.1875 4.269531 5.21875 4.445312 5.21875 C 4.621094 5.21875 4.492188 5.1875 4.445312 5.1875 "/>
</g>
</svg>
