<?xml version="1.0" encoding="UTF-8"?>
<svg xmlns="http://www.w3.org/2000/svg" xmlns:xlink="http://www.w3.org/1999/xlink" width="24px" height="24px" viewBox="0 0 24 12" version="1.1">
<g id="surface1">
<rect x="0" y="0" width="24" height="12" style="fill:rgb(11.764706%,70.980392%,22.745098%);fill-opacity:1;stroke:none;"/>
<path style=" stroke:none;fill-rule:nonzero;fill:rgb(0%,60%,70.980392%);fill-opacity:1;" d="M 0 0 L 24 0 L 24 6 L 0 6 Z M 0 0 "/>
<path style=" stroke:none;fill-rule:nonzero;fill:rgb(80.784314%,6.666667%,14.901961%);fill-opacity:1;" d="M 0 3.839844 L 24 3.839844 L 24 8.160156 L 0 8.160156 Z M 0 3.839844 "/>
<path style=" stroke:none;fill-rule:nonzero;fill:rgb(100%,100%,100%);fill-opacity:1;" d="M 0 4.078125 L 24 4.078125 L 24 7.921875 L 0 7.921875 Z M 0 4.078125 "/>
<path style=" stroke:none;fill-rule:nonzero;fill:rgb(100%,100%,100%);fill-opacity:1;" d="M 4.800781 1.921875 C 4.800781 2.714844 4.15625 3.359375 3.359375 3.359375 C 2.566406 3.359375 1.921875 2.714844 1.921875 1.921875 C 1.921875 1.125 2.566406 0.480469 3.359375 0.480469 C 4.15625 0.480469 4.800781 1.125 4.800781 1.921875 Z M 4.800781 1.921875 "/>
<path style=" stroke:none;fill-rule:nonzero;fill:rgb(0%,60%,70.980392%);fill-opacity:1;" d="M 5.28125 1.921875 C 5.28125 2.714844 4.636719 3.359375 3.839844 3.359375 C 3.042969 3.359375 2.398438 2.714844 2.398438 1.921875 C 2.398438 1.125 3.042969 0.480469 3.839844 0.480469 C 4.636719 0.480469 5.28125 1.125 5.28125 1.921875 Z M 5.28125 1.921875 "/>
<path style=" stroke:none;fill-rule:nonzero;fill:rgb(100%,100%,100%);fill-opacity:1;" d="M 6.527344 2.785156 L 6.4375 3.058594 L 6.574219 3.101562 "/>
<path style=" stroke:none;fill-rule:nonzero;fill:rgb(100%,100%,100%);fill-opacity:1;" d="M 6.527344 2.785156 L 6.617188 3.058594 L 6.480469 3.101562 "/>
<path style=" stroke:none;fill-rule:nonzero;fill:rgb(100%,100%,100%);fill-opacity:1;" d="M 6.800781 2.984375 L 6.515625 2.984375 L 6.515625 3.128906 "/>
<path style=" stroke:none;fill-rule:nonzero;fill:rgb(100%,100%,100%);fill-opacity:1;" d="M 6.800781 2.984375 L 6.570312 3.152344 L 6.484375 3.035156 "/>
<path style=" stroke:none;fill-rule:nonzero;fill:rgb(100%,100%,100%);fill-opacity:1;" d="M 6.253906 2.984375 L 6.488281 3.152344 L 6.570312 3.035156 "/>
<path style=" stroke:none;fill-rule:nonzero;fill:rgb(100%,100%,100%);fill-opacity:1;" d="M 6.253906 2.984375 L 6.542969 2.984375 L 6.542969 3.128906 "/>
<path style=" stroke:none;fill-rule:nonzero;fill:rgb(100%,100%,100%);fill-opacity:1;" d="M 6.699219 3.304688 L 6.609375 3.03125 L 6.472656 3.074219 "/>
<path style=" stroke:none;fill-rule:nonzero;fill:rgb(100%,100%,100%);fill-opacity:1;" d="M 6.699219 3.304688 L 6.464844 3.136719 L 6.550781 3.019531 "/>
<path style=" stroke:none;fill-rule:nonzero;fill:rgb(100%,100%,100%);fill-opacity:1;" d="M 6.359375 3.304688 L 6.589844 3.136719 L 6.507812 3.019531 "/>
<path style=" stroke:none;fill-rule:nonzero;fill:rgb(100%,100%,100%);fill-opacity:1;" d="M 6.359375 3.304688 L 6.449219 3.03125 L 6.585938 3.074219 "/>
<path style=" stroke:none;fill-rule:nonzero;fill:rgb(100%,100%,100%);fill-opacity:1;" d="M 6.527344 1.632812 L 6.4375 1.90625 L 6.574219 1.949219 "/>
<path style=" stroke:none;fill-rule:nonzero;fill:rgb(100%,100%,100%);fill-opacity:1;" d="M 6.527344 1.632812 L 6.617188 1.90625 L 6.480469 1.949219 "/>
<path style=" stroke:none;fill-rule:nonzero;fill:rgb(100%,100%,100%);fill-opacity:1;" d="M 6.800781 1.832031 L 6.515625 1.832031 L 6.515625 1.976562 "/>
<path style=" stroke:none;fill-rule:nonzero;fill:rgb(100%,100%,100%);fill-opacity:1;" d="M 6.800781 1.832031 L 6.570312 2 L 6.484375 1.882812 "/>
<path style=" stroke:none;fill-rule:nonzero;fill:rgb(100%,100%,100%);fill-opacity:1;" d="M 6.253906 1.832031 L 6.488281 2 L 6.570312 1.882812 "/>
<path style=" stroke:none;fill-rule:nonzero;fill:rgb(100%,100%,100%);fill-opacity:1;" d="M 6.253906 1.832031 L 6.542969 1.832031 L 6.542969 1.976562 "/>
<path style=" stroke:none;fill-rule:nonzero;fill:rgb(100%,100%,100%);fill-opacity:1;" d="M 6.699219 2.152344 L 6.609375 1.878906 L 6.472656 1.921875 "/>
<path style=" stroke:none;fill-rule:nonzero;fill:rgb(100%,100%,100%);fill-opacity:1;" d="M 6.699219 2.152344 L 6.464844 1.984375 L 6.550781 1.867188 "/>
<path style=" stroke:none;fill-rule:nonzero;fill:rgb(100%,100%,100%);fill-opacity:1;" d="M 6.359375 2.152344 L 6.589844 1.984375 L 6.507812 1.867188 "/>
<path style=" stroke:none;fill-rule:nonzero;fill:rgb(100%,100%,100%);fill-opacity:1;" d="M 6.359375 2.152344 L 6.449219 1.878906 L 6.585938 1.921875 "/>
<path style=" stroke:none;fill-rule:nonzero;fill:rgb(100%,100%,100%);fill-opacity:1;" d="M 6.527344 0.480469 L 6.4375 0.753906 L 6.574219 0.796875 "/>
<path style=" stroke:none;fill-rule:nonzero;fill:rgb(100%,100%,100%);fill-opacity:1;" d="M 6.527344 0.480469 L 6.617188 0.753906 L 6.480469 0.796875 "/>
<path style=" stroke:none;fill-rule:nonzero;fill:rgb(100%,100%,100%);fill-opacity:1;" d="M 6.800781 0.679688 L 6.515625 0.679688 L 6.515625 0.824219 "/>
<path style=" stroke:none;fill-rule:nonzero;fill:rgb(100%,100%,100%);fill-opacity:1;" d="M 6.800781 0.679688 L 6.570312 0.847656 L 6.484375 0.730469 "/>
<path style=" stroke:none;fill-rule:nonzero;fill:rgb(100%,100%,100%);fill-opacity:1;" d="M 6.253906 0.679688 L 6.488281 0.847656 L 6.570312 0.730469 "/>
<path style=" stroke:none;fill-rule:nonzero;fill:rgb(100%,100%,100%);fill-opacity:1;" d="M 6.253906 0.679688 L 6.542969 0.679688 L 6.542969 0.824219 "/>
<path style=" stroke:none;fill-rule:nonzero;fill:rgb(100%,100%,100%);fill-opacity:1;" d="M 6.699219 1 L 6.609375 0.726562 L 6.472656 0.773438 "/>
<path style=" stroke:none;fill-rule:nonzero;fill:rgb(100%,100%,100%);fill-opacity:1;" d="M 6.699219 1 L 6.464844 0.832031 L 6.550781 0.714844 "/>
<path style=" stroke:none;fill-rule:nonzero;fill:rgb(100%,100%,100%);fill-opacity:1;" d="M 6.359375 1 L 6.589844 0.832031 L 6.507812 0.714844 "/>
<path style=" stroke:none;fill-rule:nonzero;fill:rgb(100%,100%,100%);fill-opacity:1;" d="M 6.359375 1 L 6.449219 0.726562 L 6.585938 0.773438 "/>
<path style=" stroke:none;fill-rule:nonzero;fill:rgb(100%,100%,100%);fill-opacity:1;" d="M 7.679688 2.785156 L 7.589844 3.058594 L 7.726562 3.101562 "/>
<path style=" stroke:none;fill-rule:nonzero;fill:rgb(100%,100%,100%);fill-opacity:1;" d="M 7.679688 2.785156 L 7.769531 3.058594 L 7.632812 3.101562 "/>
<path style=" stroke:none;fill-rule:nonzero;fill:rgb(100%,100%,100%);fill-opacity:1;" d="M 7.953125 2.984375 L 7.664062 2.984375 L 7.664062 3.128906 "/>
<path style=" stroke:none;fill-rule:nonzero;fill:rgb(100%,100%,100%);fill-opacity:1;" d="M 7.953125 2.984375 L 7.722656 3.152344 L 7.636719 3.035156 "/>
<path style=" stroke:none;fill-rule:nonzero;fill:rgb(100%,100%,100%);fill-opacity:1;" d="M 7.40625 2.984375 L 7.640625 3.152344 L 7.722656 3.035156 "/>
<path style=" stroke:none;fill-rule:nonzero;fill:rgb(100%,100%,100%);fill-opacity:1;" d="M 7.40625 2.984375 L 7.695312 2.984375 L 7.695312 3.128906 "/>
<path style=" stroke:none;fill-rule:nonzero;fill:rgb(100%,100%,100%);fill-opacity:1;" d="M 7.847656 3.304688 L 7.761719 3.03125 L 7.625 3.074219 "/>
<path style=" stroke:none;fill-rule:nonzero;fill:rgb(100%,100%,100%);fill-opacity:1;" d="M 7.847656 3.304688 L 7.617188 3.136719 L 7.699219 3.019531 "/>
<path style=" stroke:none;fill-rule:nonzero;fill:rgb(100%,100%,100%);fill-opacity:1;" d="M 7.511719 3.304688 L 7.742188 3.136719 L 7.660156 3.019531 "/>
<path style=" stroke:none;fill-rule:nonzero;fill:rgb(100%,100%,100%);fill-opacity:1;" d="M 7.511719 3.304688 L 7.601562 3.03125 L 7.738281 3.074219 "/>
<path style=" stroke:none;fill-rule:nonzero;fill:rgb(100%,100%,100%);fill-opacity:1;" d="M 7.679688 1.632812 L 7.589844 1.90625 L 7.726562 1.949219 "/>
<path style=" stroke:none;fill-rule:nonzero;fill:rgb(100%,100%,100%);fill-opacity:1;" d="M 7.679688 1.632812 L 7.769531 1.90625 L 7.632812 1.949219 "/>
<path style=" stroke:none;fill-rule:nonzero;fill:rgb(100%,100%,100%);fill-opacity:1;" d="M 7.953125 1.832031 L 7.664062 1.832031 L 7.664062 1.976562 "/>
<path style=" stroke:none;fill-rule:nonzero;fill:rgb(100%,100%,100%);fill-opacity:1;" d="M 7.953125 1.832031 L 7.722656 2 L 7.636719 1.882812 "/>
<path style=" stroke:none;fill-rule:nonzero;fill:rgb(100%,100%,100%);fill-opacity:1;" d="M 7.40625 1.832031 L 7.640625 2 L 7.722656 1.882812 "/>
<path style=" stroke:none;fill-rule:nonzero;fill:rgb(100%,100%,100%);fill-opacity:1;" d="M 7.40625 1.832031 L 7.695312 1.832031 L 7.695312 1.976562 "/>
<path style=" stroke:none;fill-rule:nonzero;fill:rgb(100%,100%,100%);fill-opacity:1;" d="M 7.847656 2.152344 L 7.761719 1.878906 L 7.625 1.921875 "/>
<path style=" stroke:none;fill-rule:nonzero;fill:rgb(100%,100%,100%);fill-opacity:1;" d="M 7.847656 2.152344 L 7.617188 1.984375 L 7.699219 1.867188 "/>
<path style=" stroke:none;fill-rule:nonzero;fill:rgb(100%,100%,100%);fill-opacity:1;" d="M 7.511719 2.152344 L 7.742188 1.984375 L 7.660156 1.867188 "/>
<path style=" stroke:none;fill-rule:nonzero;fill:rgb(100%,100%,100%);fill-opacity:1;" d="M 7.511719 2.152344 L 7.601562 1.878906 L 7.738281 1.921875 "/>
<path style=" stroke:none;fill-rule:nonzero;fill:rgb(100%,100%,100%);fill-opacity:1;" d="M 7.679688 0.480469 L 7.589844 0.753906 L 7.726562 0.796875 "/>
<path style=" stroke:none;fill-rule:nonzero;fill:rgb(100%,100%,100%);fill-opacity:1;" d="M 7.679688 0.480469 L 7.769531 0.753906 L 7.632812 0.796875 "/>
<path style=" stroke:none;fill-rule:nonzero;fill:rgb(100%,100%,100%);fill-opacity:1;" d="M 7.953125 0.679688 L 7.664062 0.679688 L 7.664062 0.824219 "/>
<path style=" stroke:none;fill-rule:nonzero;fill:rgb(100%,100%,100%);fill-opacity:1;" d="M 7.953125 0.679688 L 7.722656 0.847656 L 7.636719 0.730469 "/>
<path style=" stroke:none;fill-rule:nonzero;fill:rgb(100%,100%,100%);fill-opacity:1;" d="M 7.40625 0.679688 L 7.640625 0.847656 L 7.722656 0.730469 "/>
<path style=" stroke:none;fill-rule:nonzero;fill:rgb(100%,100%,100%);fill-opacity:1;" d="M 7.40625 0.679688 L 7.695312 0.679688 L 7.695312 0.824219 "/>
<path style=" stroke:none;fill-rule:nonzero;fill:rgb(100%,100%,100%);fill-opacity:1;" d="M 7.847656 1 L 7.761719 0.726562 L 7.625 0.773438 "/>
<path style=" stroke:none;fill-rule:nonzero;fill:rgb(100%,100%,100%);fill-opacity:1;" d="M 7.847656 1 L 7.617188 0.832031 L 7.699219 0.714844 "/>
<path style=" stroke:none;fill-rule:nonzero;fill:rgb(100%,100%,100%);fill-opacity:1;" d="M 7.511719 1 L 7.742188 0.832031 L 7.660156 0.714844 "/>
<path style=" stroke:none;fill-rule:nonzero;fill:rgb(100%,100%,100%);fill-opacity:1;" d="M 7.511719 1 L 7.601562 0.726562 L 7.738281 0.773438 "/>
<path style=" stroke:none;fill-rule:nonzero;fill:rgb(100%,100%,100%);fill-opacity:1;" d="M 8.832031 2.785156 L 8.742188 3.058594 L 8.878906 3.101562 "/>
<path style=" stroke:none;fill-rule:nonzero;fill:rgb(100%,100%,100%);fill-opacity:1;" d="M 8.832031 2.785156 L 8.921875 3.058594 L 8.785156 3.101562 "/>
<path style=" stroke:none;fill-rule:nonzero;fill:rgb(100%,100%,100%);fill-opacity:1;" d="M 9.105469 2.984375 L 8.816406 2.984375 L 8.816406 3.128906 "/>
<path style=" stroke:none;fill-rule:nonzero;fill:rgb(100%,100%,100%);fill-opacity:1;" d="M 9.105469 2.984375 L 8.871094 3.152344 L 8.789062 3.035156 "/>
<path style=" stroke:none;fill-rule:nonzero;fill:rgb(100%,100%,100%);fill-opacity:1;" d="M 8.558594 2.984375 L 8.792969 3.152344 L 8.875 3.035156 "/>
<path style=" stroke:none;fill-rule:nonzero;fill:rgb(100%,100%,100%);fill-opacity:1;" d="M 8.558594 2.984375 L 8.847656 2.984375 L 8.847656 3.128906 "/>
<path style=" stroke:none;fill-rule:nonzero;fill:rgb(100%,100%,100%);fill-opacity:1;" d="M 9 3.304688 L 8.914062 3.03125 L 8.773438 3.074219 "/>
<path style=" stroke:none;fill-rule:nonzero;fill:rgb(100%,100%,100%);fill-opacity:1;" d="M 9 3.304688 L 8.769531 3.136719 L 8.851562 3.019531 "/>
<path style=" stroke:none;fill-rule:nonzero;fill:rgb(100%,100%,100%);fill-opacity:1;" d="M 8.664062 3.304688 L 8.894531 3.136719 L 8.8125 3.019531 "/>
<path style=" stroke:none;fill-rule:nonzero;fill:rgb(100%,100%,100%);fill-opacity:1;" d="M 8.664062 3.304688 L 8.75 3.03125 L 8.886719 3.074219 "/>
<path style=" stroke:none;fill-rule:nonzero;fill:rgb(100%,100%,100%);fill-opacity:1;" d="M 8.832031 1.632812 L 8.742188 1.90625 L 8.878906 1.949219 "/>
<path style=" stroke:none;fill-rule:nonzero;fill:rgb(100%,100%,100%);fill-opacity:1;" d="M 8.832031 1.632812 L 8.921875 1.90625 L 8.785156 1.949219 "/>
<path style=" stroke:none;fill-rule:nonzero;fill:rgb(100%,100%,100%);fill-opacity:1;" d="M 9.105469 1.832031 L 8.816406 1.832031 L 8.816406 1.976562 "/>
<path style=" stroke:none;fill-rule:nonzero;fill:rgb(100%,100%,100%);fill-opacity:1;" d="M 9.105469 1.832031 L 8.871094 2 L 8.789062 1.882812 "/>
<path style=" stroke:none;fill-rule:nonzero;fill:rgb(100%,100%,100%);fill-opacity:1;" d="M 8.558594 1.832031 L 8.792969 2 L 8.875 1.882812 "/>
<path style=" stroke:none;fill-rule:nonzero;fill:rgb(100%,100%,100%);fill-opacity:1;" d="M 8.558594 1.832031 L 8.847656 1.832031 L 8.847656 1.976562 "/>
<path style=" stroke:none;fill-rule:nonzero;fill:rgb(100%,100%,100%);fill-opacity:1;" d="M 9 2.152344 L 8.914062 1.878906 L 8.773438 1.921875 "/>
<path style=" stroke:none;fill-rule:nonzero;fill:rgb(100%,100%,100%);fill-opacity:1;" d="M 9 2.152344 L 8.769531 1.984375 L 8.851562 1.867188 "/>
<path style=" stroke:none;fill-rule:nonzero;fill:rgb(100%,100%,100%);fill-opacity:1;" d="M 8.664062 2.152344 L 8.894531 1.984375 L 8.8125 1.867188 "/>
<path style=" stroke:none;fill-rule:nonzero;fill:rgb(100%,100%,100%);fill-opacity:1;" d="M 8.664062 2.152344 L 8.75 1.878906 L 8.886719 1.921875 "/>
<path style=" stroke:none;fill-rule:nonzero;fill:rgb(100%,100%,100%);fill-opacity:1;" d="M 8.832031 0.480469 L 8.742188 0.753906 L 8.878906 0.796875 "/>
<path style=" stroke:none;fill-rule:nonzero;fill:rgb(100%,100%,100%);fill-opacity:1;" d="M 8.832031 0.480469 L 8.921875 0.753906 L 8.785156 0.796875 "/>
<path style=" stroke:none;fill-rule:nonzero;fill:rgb(100%,100%,100%);fill-opacity:1;" d="M 9.105469 0.679688 L 8.816406 0.679688 L 8.816406 0.824219 "/>
<path style=" stroke:none;fill-rule:nonzero;fill:rgb(100%,100%,100%);fill-opacity:1;" d="M 9.105469 0.679688 L 8.871094 0.847656 L 8.789062 0.730469 "/>
<path style=" stroke:none;fill-rule:nonzero;fill:rgb(100%,100%,100%);fill-opacity:1;" d="M 8.558594 0.679688 L 8.792969 0.847656 L 8.875 0.730469 "/>
<path style=" stroke:none;fill-rule:nonzero;fill:rgb(100%,100%,100%);fill-opacity:1;" d="M 8.558594 0.679688 L 8.847656 0.679688 L 8.847656 0.824219 "/>
<path style=" stroke:none;fill-rule:nonzero;fill:rgb(100%,100%,100%);fill-opacity:1;" d="M 9 1 L 8.914062 0.726562 L 8.773438 0.773438 "/>
<path style=" stroke:none;fill-rule:nonzero;fill:rgb(100%,100%,100%);fill-opacity:1;" d="M 9 1 L 8.769531 0.832031 L 8.851562 0.714844 "/>
<path style=" stroke:none;fill-rule:nonzero;fill:rgb(100%,100%,100%);fill-opacity:1;" d="M 8.664062 1 L 8.894531 0.832031 L 8.8125 0.714844 "/>
<path style=" stroke:none;fill-rule:nonzero;fill:rgb(100%,100%,100%);fill-opacity:1;" d="M 8.664062 1 L 8.75 0.726562 L 8.886719 0.773438 "/>
<path style=" stroke:none;fill-rule:nonzero;fill:rgb(100%,100%,100%);fill-opacity:1;" d="M 4.222656 2.785156 L 4.136719 3.058594 L 4.273438 3.101562 "/>
<path style=" stroke:none;fill-rule:nonzero;fill:rgb(100%,100%,100%);fill-opacity:1;" d="M 4.222656 2.785156 L 4.3125 3.058594 L 4.175781 3.101562 "/>
<path style=" stroke:none;fill-rule:nonzero;fill:rgb(100%,100%,100%);fill-opacity:1;" d="M 4.496094 2.984375 L 4.210938 2.984375 L 4.210938 3.128906 "/>
<path style=" stroke:none;fill-rule:nonzero;fill:rgb(100%,100%,100%);fill-opacity:1;" d="M 4.496094 2.984375 L 4.265625 3.152344 L 4.179688 3.035156 "/>
<path style=" stroke:none;fill-rule:nonzero;fill:rgb(100%,100%,100%);fill-opacity:1;" d="M 3.949219 2.984375 L 4.183594 3.152344 L 4.269531 3.035156 "/>
<path style=" stroke:none;fill-rule:nonzero;fill:rgb(100%,100%,100%);fill-opacity:1;" d="M 3.949219 2.984375 L 4.238281 2.984375 L 4.238281 3.128906 "/>
<path style=" stroke:none;fill-rule:nonzero;fill:rgb(100%,100%,100%);fill-opacity:1;" d="M 4.394531 3.304688 L 4.304688 3.03125 L 4.167969 3.074219 "/>
<path style=" stroke:none;fill-rule:nonzero;fill:rgb(100%,100%,100%);fill-opacity:1;" d="M 4.394531 3.304688 L 4.160156 3.136719 L 4.246094 3.019531 "/>
<path style=" stroke:none;fill-rule:nonzero;fill:rgb(100%,100%,100%);fill-opacity:1;" d="M 4.054688 3.304688 L 4.289062 3.136719 L 4.203125 3.019531 "/>
<path style=" stroke:none;fill-rule:nonzero;fill:rgb(100%,100%,100%);fill-opacity:1;" d="M 4.054688 3.304688 L 4.144531 3.03125 L 4.28125 3.074219 "/>
<path style=" stroke:none;fill-rule:nonzero;fill:rgb(100%,100%,100%);fill-opacity:1;" d="M 5.375 2.785156 L 5.285156 3.058594 L 5.425781 3.101562 "/>
<path style=" stroke:none;fill-rule:nonzero;fill:rgb(100%,100%,100%);fill-opacity:1;" d="M 5.375 2.785156 L 5.464844 3.058594 L 5.328125 3.101562 "/>
<path style=" stroke:none;fill-rule:nonzero;fill:rgb(100%,100%,100%);fill-opacity:1;" d="M 5.648438 2.984375 L 5.363281 2.984375 L 5.363281 3.128906 "/>
<path style=" stroke:none;fill-rule:nonzero;fill:rgb(100%,100%,100%);fill-opacity:1;" d="M 5.648438 2.984375 L 5.417969 3.152344 L 5.332031 3.035156 "/>
<path style=" stroke:none;fill-rule:nonzero;fill:rgb(100%,100%,100%);fill-opacity:1;" d="M 5.101562 2.984375 L 5.335938 3.152344 L 5.417969 3.035156 "/>
<path style=" stroke:none;fill-rule:nonzero;fill:rgb(100%,100%,100%);fill-opacity:1;" d="M 5.101562 2.984375 L 5.390625 2.984375 L 5.390625 3.128906 "/>
<path style=" stroke:none;fill-rule:nonzero;fill:rgb(100%,100%,100%);fill-opacity:1;" d="M 5.546875 3.304688 L 5.457031 3.03125 L 5.320312 3.074219 "/>
<path style=" stroke:none;fill-rule:nonzero;fill:rgb(100%,100%,100%);fill-opacity:1;" d="M 5.546875 3.304688 L 5.3125 3.136719 L 5.398438 3.019531 "/>
<path style=" stroke:none;fill-rule:nonzero;fill:rgb(100%,100%,100%);fill-opacity:1;" d="M 5.207031 3.304688 L 5.441406 3.136719 L 5.355469 3.019531 "/>
<path style=" stroke:none;fill-rule:nonzero;fill:rgb(100%,100%,100%);fill-opacity:1;" d="M 5.207031 3.304688 L 5.296875 3.03125 L 5.433594 3.074219 "/>
<path style=" stroke:none;fill-rule:nonzero;fill:rgb(100%,100%,100%);fill-opacity:1;" d="M 5.375 1.632812 L 5.285156 1.90625 L 5.425781 1.949219 "/>
<path style=" stroke:none;fill-rule:nonzero;fill:rgb(100%,100%,100%);fill-opacity:1;" d="M 5.375 1.632812 L 5.464844 1.90625 L 5.328125 1.949219 "/>
<path style=" stroke:none;fill-rule:nonzero;fill:rgb(100%,100%,100%);fill-opacity:1;" d="M 5.648438 1.832031 L 5.363281 1.832031 L 5.363281 1.976562 "/>
<path style=" stroke:none;fill-rule:nonzero;fill:rgb(100%,100%,100%);fill-opacity:1;" d="M 5.648438 1.832031 L 5.417969 2 L 5.332031 1.882812 "/>
<path style=" stroke:none;fill-rule:nonzero;fill:rgb(100%,100%,100%);fill-opacity:1;" d="M 5.101562 1.832031 L 5.335938 2 L 5.417969 1.882812 "/>
<path style=" stroke:none;fill-rule:nonzero;fill:rgb(100%,100%,100%);fill-opacity:1;" d="M 5.101562 1.832031 L 5.390625 1.832031 L 5.390625 1.976562 "/>
<path style=" stroke:none;fill-rule:nonzero;fill:rgb(100%,100%,100%);fill-opacity:1;" d="M 5.546875 2.152344 L 5.457031 1.878906 L 5.320312 1.921875 "/>
<path style=" stroke:none;fill-rule:nonzero;fill:rgb(100%,100%,100%);fill-opacity:1;" d="M 5.546875 2.152344 L 5.3125 1.984375 L 5.398438 1.867188 "/>
<path style=" stroke:none;fill-rule:nonzero;fill:rgb(100%,100%,100%);fill-opacity:1;" d="M 5.207031 2.152344 L 5.441406 1.984375 L 5.355469 1.867188 "/>
<path style=" stroke:none;fill-rule:nonzero;fill:rgb(100%,100%,100%);fill-opacity:1;" d="M 5.207031 2.152344 L 5.296875 1.878906 L 5.433594 1.921875 "/>
</g>
</svg>
