<?xml version="1.0" encoding="utf-8"?>
<svg viewBox="0 0 24 24" width="24px" height="24px" xmlns="http://www.w3.org/2000/svg">
  <defs/>
  <path fill="#fff" d="M 0 0 L 24 0 L 24 24 L 0 24 L 0 0 Z"/>
  <path fill="#ffe000" d="M 0 0 L 12 0 L 12 24 L 0 24 L 0 0 Z"/>
  <g stroke="#000" stroke-width="3.205" stroke-linejoin="round" transform="matrix(0.0096, 0, 0, 0.0096, 0, 0)">
    <g fill="#ce9d09" stroke-linecap="round">
      <g id="a">
        <path fill="#fff" d="M1781.07 990.292l16.106 3.841 25.663 4.17 11.76 1.292-2.076 49.916s-2.808 33.178-7.688 48.961c-3.618 11.701-15.781 33.18-15.781 33.18l-7.688 11.736-45.32-39.25s7.725-10.948 10.52-16.996c3.508-7.589 7.689-23.874 7.689-23.874l4.45-25.897 2.428-32.776zm-56.991 151.477l41.273 36.013s-8.345 7.428-13.353 9.711c-9.824 4.48-20.767 7.517-31.562 7.284-7.728-.167-15.32-2.973-22.35-6.186-15.722-7.184-33.032-14.73-43.168-28.732-3.587-4.954-5.003-11.57-4.89-17.685.128-6.933 6.281-19.832 6.281-19.832s2.391 8.636 5.133 12.023c4.513 5.572 11.118 9.302 17.597 12.375 4.848 2.299 10.144 4.022 15.5 4.336 6.951.407 14.163-.674 20.637-3.237 3.339-1.323 8.902-6.07 8.902-6.07z"/>
        <path fill="#fff" d="M1658.65 877.67s3.294 6.6 4.297 10.128c1.715 6.033 2.908 12.326 2.861 18.598-.047 6.287-1.468 12.539-3.147 18.598-2.516 9.08-6.32 17.783-10.3 26.323-2.525 5.416-6.055 10.324-8.584 15.737-4.08 8.729-6.994 17.956-10.587 26.896-2.999 7.46-6.864 14.61-9.156 22.318-3.044 10.238-4.562 20.891-6.009 31.474-1.244 9.103-2.228 18.28-2.289 27.468-.07 10.899.257 21.91 2.29 32.618 2.013 10.61 4.976 21.204 9.728 30.901 3.83 7.817 8.931 15.104 14.878 21.46 4.916 5.253 10.706 9.756 16.882 13.448 5.61 3.354 11.95 5.31 18.025 7.725 8.392 3.336 25.433 9.335 25.433 9.335s-23.527-11.592-31.727-21.352c-6.784-8.074-10.521-18.62-12.876-28.899-2.727-11.905-2.383-24.473-1.144-36.624 1.332-13.072 5.179-25.817 9.156-38.34 4.196-13.218 10.095-25.836 15.45-38.627 3.86-9.22 8.276-18.201 12.018-27.468 4.417-10.942 8.764-21.935 12.303-33.19 2.158-6.866 4.85-13.722 5.43-20.895.631-7.792-.383-15.742-2.17-23.353-2.503-10.663-5.598-21.65-11.836-30.652-3.754-5.419-8.898-10.153-14.77-13.151-5.732-2.927-12.543-5.401-18.857-4.154-2.11.417-5.299 3.678-5.299 3.678z"/>
        <path fill="#fff" d="M1711.59 945.594s4.454-17.99 5.208-27.187c.646-7.867.225-15.822-.607-23.672-.924-8.734-1.468-17.793-4.855-25.897-3.514-8.406-9.025-16.13-15.579-22.457-6.46-6.237-14.294-11.306-22.66-14.568-8.801-3.431-18.491-4.278-27.92-4.855-8.088-.495-16.24.191-24.279 1.214-4.644.59-9.323 1.33-13.757 2.832-4.115 1.393-11.735 5.665-11.735 5.665l29.943 48.962s9.373-5.518 14.567-6.88c5.494-1.439 11.326-1.545 16.995-1.213 5.757.337 11.726.894 16.995 3.237 6.707 2.983 12.49 7.984 17.547 13.304 6.102 6.42 11.549 13.787 14.96 21.961 3.166 7.59 3.581 16.072 4.72 24.217.248 1.769.457 5.337.457 5.337z"/>
        <path d="M1717.05 906.676s-5.334-16.56-10.37-23.474c-5.85-8.031-13.365-15.391-22.255-19.828-9.428-4.704-30.994-6.216-30.994-6.216l11.414 21.128-19.966-.487-10.427-17.435-19.232 8.706-9.568-15.645 20.431-9.473-9.414-15.185 20.423-1.943 8.892 14.7s15.874.048 23.588 1.668c5.238 1.1 10.385 2.91 15.12 5.405 4.532 2.388 8.698 5.521 12.447 9.012 4.508 4.2 8.732 8.865 11.874 14.164 3.054 5.15 6.542 16.727 6.542 16.727z"/>
        <path d="M1581.65 845.092l31.9 46.592m-17.97-54.736l-15.032 8.789-14.307 10.872 30.902 47.21 13.734-10.586 14.12-8.183zm58.21 198.922l17.883-36.91 19.139 7.613 7.755-19.059-19.026-8.869 9.872-21.316-14.02-6.295-10.587 20.458-19.194-8.024-8.428 19.963 18.609 7.803-17.168 36.625zm143.13-11.04l18.209-.405v21.042l17.533.831-2.982 21.358-16.358-1.03s-2.698 12.575-5.121 18.496c-2.513 6.14-9.662 17.4-9.662 17.4l-19.423-4.856s7.026-11.049 9.711-16.995c2.405-5.326 5.665-16.59 5.665-16.59l-19.939-2.517 3.47-20.192 18.088 1.262z"/>
      </g>
      <g transform="matrix(-1, 0, 0, 1, 3717.75, 0)">
        <path fill="#fff" d="M1781.07 990.292l16.106 3.841 25.663 4.17 11.76 1.292-2.076 49.916s-2.808 33.178-7.688 48.961c-3.618 11.701-15.781 33.18-15.781 33.18l-7.688 11.736-45.32-39.25s7.725-10.948 10.52-16.996c3.508-7.589 7.689-23.874 7.689-23.874l4.45-25.897 2.428-32.776zm-56.991 151.477l41.273 36.013s-8.345 7.428-13.353 9.711c-9.824 4.48-20.767 7.517-31.562 7.284-7.728-.167-15.32-2.973-22.35-6.186-15.722-7.184-33.032-14.73-43.168-28.732-3.587-4.954-5.003-11.57-4.89-17.685.128-6.933 6.281-19.832 6.281-19.832s2.391 8.636 5.133 12.023c4.513 5.572 11.118 9.302 17.597 12.375 4.848 2.299 10.144 4.022 15.5 4.336 6.951.407 14.163-.674 20.637-3.237 3.339-1.323 8.902-6.07 8.902-6.07z"/>
        <path fill="#fff" d="M1658.65 877.67s3.294 6.6 4.297 10.128c1.715 6.033 2.908 12.326 2.861 18.598-.047 6.287-1.468 12.539-3.147 18.598-2.516 9.08-6.32 17.783-10.3 26.323-2.525 5.416-6.055 10.324-8.584 15.737-4.08 8.729-6.994 17.956-10.587 26.896-2.999 7.46-6.864 14.61-9.156 22.318-3.044 10.238-4.562 20.891-6.009 31.474-1.244 9.103-2.228 18.28-2.289 27.468-.07 10.899.257 21.91 2.29 32.618 2.013 10.61 4.976 21.204 9.728 30.901 3.83 7.817 8.931 15.104 14.878 21.46 4.916 5.253 10.706 9.756 16.882 13.448 5.61 3.354 11.95 5.31 18.025 7.725 8.392 3.336 25.433 9.335 25.433 9.335s-23.527-11.592-31.727-21.352c-6.784-8.074-10.521-18.62-12.876-28.899-2.727-11.905-2.383-24.473-1.144-36.624 1.332-13.072 5.179-25.817 9.156-38.34 4.196-13.218 10.095-25.836 15.45-38.627 3.86-9.22 8.276-18.201 12.018-27.468 4.417-10.942 8.764-21.935 12.303-33.19 2.158-6.866 4.85-13.722 5.43-20.895.631-7.792-.383-15.742-2.17-23.353-2.503-10.663-5.598-21.65-11.836-30.652-3.754-5.419-8.898-10.153-14.77-13.151-5.732-2.927-12.543-5.401-18.857-4.154-2.11.417-5.299 3.678-5.299 3.678z"/>
        <path fill="#fff" d="M1711.59 945.594s4.454-17.99 5.208-27.187c.646-7.867.225-15.822-.607-23.672-.924-8.734-1.468-17.793-4.855-25.897-3.514-8.406-9.025-16.13-15.579-22.457-6.46-6.237-14.294-11.306-22.66-14.568-8.801-3.431-18.491-4.278-27.92-4.855-8.088-.495-16.24.191-24.279 1.214-4.644.59-9.323 1.33-13.757 2.832-4.115 1.393-11.735 5.665-11.735 5.665l29.943 48.962s9.373-5.518 14.567-6.88c5.494-1.439 11.326-1.545 16.995-1.213 5.757.337 11.726.894 16.995 3.237 6.707 2.983 12.49 7.984 17.547 13.304 6.102 6.42 11.549 13.787 14.96 21.961 3.166 7.59 3.581 16.072 4.72 24.217.248 1.769.457 5.337.457 5.337z"/>
        <path d="M1717.05 906.676s-5.334-16.56-10.37-23.474c-5.85-8.031-13.365-15.391-22.255-19.828-9.428-4.704-30.994-6.216-30.994-6.216l11.414 21.128-19.966-.487-10.427-17.435-19.232 8.706-9.568-15.645 20.431-9.473-9.414-15.185 20.423-1.943 8.892 14.7s15.874.048 23.588 1.668c5.238 1.1 10.385 2.91 15.12 5.405 4.532 2.388 8.698 5.521 12.447 9.012 4.508 4.2 8.732 8.865 11.874 14.164 3.054 5.15 6.542 16.727 6.542 16.727z"/>
        <path d="M1581.65 845.092l31.9 46.592m-17.97-54.736l-15.032 8.789-14.307 10.872 30.902 47.21 13.734-10.586 14.12-8.183zm58.21 198.922l17.883-36.91 19.139 7.613 7.755-19.059-19.026-8.869 9.872-21.316-14.02-6.295-10.587 20.458-19.194-8.024-8.428 19.963 18.609 7.803-17.168 36.625zm143.13-11.04l18.209-.405v21.042l17.533.831-2.982 21.358-16.358-1.03s-2.698 12.575-5.121 18.496c-2.513 6.14-9.662 17.4-9.662 17.4l-19.423-4.856s7.026-11.049 9.711-16.995c2.405-5.326 5.665-16.59 5.665-16.59l-19.939-2.517 3.47-20.192 18.088 1.262z"/>
      </g>
      <path fill="#fff" d="M1756.66 735.602l-27.42 29.446 16.881 50.93 9.666 35.795-27.723 25.826 50.729 71.05-17.366 19.818c-1.817 2.329-2.455 5.662-2.144 8.6.286 2.693 1.582 5.464 3.577 7.296 4.56 4.187 11.328 5.133 17.31 6.724 21.066 5.602 42.928 8.102 64.665 9.728 4.668.35 14.042 0 14.042 0s9.358.35 14.043 0c21.737-1.626 43.6-4.126 64.664-9.728 5.983-1.59 12.751-2.537 17.31-6.724 1.996-1.832 3.292-4.603 3.578-7.296.311-2.938-.327-6.271-2.145-8.6l-16.301-35.876 51.819-55.52-19.776-17.835-.436-43.258 16.882-50.93-25.412-25.724-22.943-61.258s-4.801-17.08-8.87-24.893c-2.433-4.67-5.832-8.791-9.156-12.876-3.983-4.894-8.002-9.87-12.876-13.877-4.416-3.63-9.536-6.346-14.592-9.013-5.433-2.866-10.892-5.956-16.845-7.472-6.14-1.563-18.944-1.54-18.944-1.54s-12.787-.027-18.943 1.54c-5.953 1.515-11.412 4.606-16.845 7.472-5.056 2.667-10.176 5.382-14.592 9.013-4.875 4.007-8.893 8.983-12.876 13.877-3.324 4.085-6.723 8.205-9.156 12.876-4.07 7.812-8.87 24.893-8.87 24.893z"/>
      <path d="M1963.27 933.128s-3.177-2.845-4.96-4a64.476 64.476 0 00-11.937-6.07c-5.607-2.147-11.553-3.288-17.4-4.653-6.697-1.563-13.414-3.14-20.232-4.046-7.973-1.06-16.033-1.538-24.076-1.619-8.607-.086-25.793 1.214-25.793 1.214s-17.17-1.3-25.794-1.214c-8.043.082-16.102.558-24.076 1.619-6.817.907-13.534 2.483-20.232 4.046-5.846 1.365-11.793 2.506-17.4 4.654a64.476 64.476 0 00-11.936 6.07c-1.783 1.154-4.96 3.999-4.96 3.999m218.71-42.693s-5.183-5.268-8.602-5.918c-2.21-.42-4.741.214-6.575 1.517-2.372 1.685-3.956 4.56-4.654 7.385-.624 2.528-.353 5.368.607 7.79.813 2.05 2.1 4.337 4.148 5.158 4.8 1.926 15.384-2.024 15.384-2.024zm5.156-3.592c5.801.17 7.914 3.108 9.454 6.475m-243.23-2.882l-.307 13.907s10.583 3.95 15.383 2.024c2.048-.821 3.335-3.108 4.148-5.159.96-2.42 1.232-5.261.607-7.79-.698-2.824-2.282-5.699-4.654-7.384-1.833-1.303-4.368-1.95-6.575-1.517-3.445.676-8.602 5.919-8.602 5.919zm-5.156-3.593c-5.801.17-7.914 3.108-9.454 6.475m198.167 1.346l-8.447-.946m-130.044.946l8.447-.946m75.992.814c-2.865-.422-7.6-4.21-7.6-4.21m-22.786 4.21c2.865-.422 7.6-4.21 7.6-4.21m140.936-19.346s-4.215 3.347-7.285 3.858l-1.211.644s-1.947 5.728-3.662 8.174c-1.719 2.451-6.465 6.25-6.465 6.25s-4.787-4.144-7.744-4.951c-1.94-.53-4.163-.544-6.025.215-1.976.804-3.548 2.535-4.737 4.306-1.403 2.093-2.706 4.583-2.588 7.1.141 3.014 3.877 8.184 3.877 8.184l-2.578 4.511-3.662 2.373c-6.314-1.913-12.63-3.935-18.945-7.539-1.732-1.888-3.358-4.302-4.522-9.033 0 0 4.544-2.693 5.596-4.951 1.182-2.538 1.668-6.006.215-8.399-1.616-2.66-5.276-4.042-8.389-4.091-2.28-.037-4.689 1.14-6.25 2.802-1.679 1.788-2.975 4.465-2.578 6.885.404 2.466 4.736 5.81 4.736 5.81s-1.8 4.559-3.838 5.43c-6.011 2.572-9.978 4.04-15.244 4.854-5.21.804-11.072 1.465-16.298-.02-3.376-.958-6.845-2.73-8.965-5.527-.631-.833-.86-3.008-.86-3.008s6.467-1.679 9.043-3.662c2.56-1.97 5.283-4.568 5.81-7.754.532-3.2-1.17-6.59-3.017-9.258-1.83-2.644-4.582-4.738-7.53-6.025-1.329-.58-4.306-.645-4.306-.645s-.63.571-.937.86c-1.244 1.598-2.954 2.862-4.766 3.808-.032.019-.076.051-.107.069-.044.024-.129.044-.176.068-.38.19-.75.41-1.133.567-.2.081-.51.093-.742.156-1.27.429-2.47.781-2.47.781s3.863 1.196 4.95 2.735c.672.95.963 2.109 1.084 3.31.149.713.235 1.434.206 2.129-.047 1.11-.323 2.233-.704 3.33-.348 1.278-.839 2.507-1.67 3.496-.45.537-1.003.985-1.591 1.387-.028.023-.05.056-.078.078-.03.023-.086.036-.118.059a12.406 12.406 0 01-3.378 1.494c-1.372.382-4.186.08-4.288.068.104 0 5.51-.01 7.666-1.562.067-.043.13-.092.196-.137 1.51-1.205 2.6-2.976 3.261-4.883.21-.766.415-1.543.489-2.314a16.43 16.43 0 00.01-3.145c-.33-1.584-1.061-3.123-2.217-4.15-2.417-2.148-9.324-2.409-9.414-2.412-.107.004-6.99.267-9.404 2.412-1.156 1.027-1.887 2.566-2.217 4.15a16.272 16.272 0 00.01 3.145c.073.77.279 1.548.488 2.314.662 1.907 1.752 3.678 3.262 4.883.065.045.128.094.195.137 2.156 1.553 7.562 1.562 7.666 1.562-.101.011-2.916.314-4.287-.068a12.406 12.406 0 01-3.379-1.494c-.031-.023-.087-.036-.117-.059-.03-.022-.05-.055-.078-.078-.588-.402-1.14-.85-1.592-1.387-.83-.989-1.321-2.218-1.67-3.496-.38-1.097-.656-2.22-.703-3.33-.029-.695.057-1.416.205-2.129.121-1.201.422-2.36 1.094-3.31 1.088-1.539 4.941-2.735 4.941-2.735s-1.2-.352-2.47-.781c-.23-.063-.535-.076-.733-.156-.389-.159-.768-.384-1.152-.576-.042-.022-.117-.037-.156-.06-.026-.014-.062-.043-.088-.058-1.822-.947-3.546-2.213-4.795-3.818-.309-.289-.938-.86-.938-.86s-2.967.064-4.297.645c-2.947 1.287-5.709 3.38-7.539 6.026-1.847 2.668-3.548 6.056-3.017 9.257.528 3.186 3.261 5.785 5.82 7.754 2.576 1.983 9.033 3.662 9.033 3.662s-.228 2.176-.86 3.008c-2.12 2.797-5.588 4.569-8.964 5.527-5.227 1.485-11.089.824-16.299.02-5.266-.813-9.233-2.281-15.244-4.854-2.038-.871-3.838-5.43-3.838-5.43s4.332-3.344 4.736-5.81c.397-2.42-.899-5.097-2.578-6.885-1.561-1.662-3.96-2.839-6.24-2.802-3.113.05-6.782 1.431-8.398 4.092-1.454 2.392-.968 5.86.214 8.398 1.053 2.258 5.596 4.951 5.596 4.951-1.163 4.731-2.79 7.146-4.521 9.033-6.315 3.604-12.631 5.626-18.946 7.54l-3.652-2.374-2.588-4.511s3.736-5.17 3.877-8.184c.118-2.517-1.184-5.007-2.588-7.1-1.188-1.771-2.76-3.502-4.736-4.306-1.862-.759-4.086-.744-6.026-.215-2.957.807-7.744 4.951-7.744 4.951s-4.746-3.798-6.465-6.25c-1.714-2.446-3.652-8.174-3.652-8.174l-1.21-.644c-3.071-.505-7.296-3.858-7.296-3.858l-4.443.938s-4.102 2.195-4.15 4.15c-.068 2.7 3.725 3.919 5.439 6.006a75.74 75.74 0 014.14 5.586c1.226 1.808 2.843 3.475 3.438 5.576.65 2.294-.974 4.972 0 7.149 1.228 2.743 3.773 5.415 6.719 6.015 2.615.533 7.588-2.578 7.588-2.578l-.147 19.883 10.303 9.307 9.727 20.312-3.858 5.147 1.143 10c7.48-9.585 20.501-13.792 32.187-17.149 15.732-4.52 44.57-4.841 58.008-4.717 4.48.042 7.256.137 7.256.137s44.295-1.442 65.254 4.58c11.685 3.358 24.706 7.564 32.187 17.149l1.143-10-3.858-5.147 9.727-20.312 10.303-9.307-.147-19.883s4.973 3.111 7.588 2.578c2.946-.6 5.491-3.272 6.719-6.015.974-2.177-.65-4.855 0-7.149.595-2.101 2.212-3.768 3.437-5.576a75.867 75.867 0 014.15-5.586c1.715-2.087 5.497-3.306 5.43-6.006-.049-1.955-4.15-4.15-4.15-4.15l-4.443-.938zm-148.33-2.607c1.049.982 3.103 2.847 4.795 3.818.08.042.163.077.244.117.505.265 1.202.502 1.885.733 2.913.792 7.935.267 8.047.254h.03c.111.012 5.133.536 8.047-.254.676-.229 1.37-.461 1.875-.723.094-.047.19-.088.283-.137 1.692-.976 3.72-2.83 4.766-3.808.522-.671.965-1.392 1.298-2.158 1.156-2.661 1.102-6.112-.205-8.702-1.537-3.046-5.175-4.496-8.086-6.279-2.506-1.535-7.912-3.725-7.998-3.76-.1.04-5.475 2.227-7.978 3.76-2.91 1.783-6.558 3.233-8.096 6.28-1.307 2.59-1.36 6.04-.205 8.7a10.03 10.03 0 001.299 2.159z"/>
      <path d="M1980.77 829.789s-10.886-5.061-16.59-6.879c-10.413-3.319-21.236-5.216-31.967-7.283-12.467-2.403-25.26-3.052-37.622-5.944-3.892-.91-7.53-2.769-11.445-3.576-5.4-1.114-11.061-2.874-16.452-1.717-2.968.637-7.82 4.578-7.82 4.578s-4.867-3.94-7.82-4.578c-5.389-1.165-11.051.603-16.451 1.717-3.915.807-7.554 2.666-11.445 3.576-12.363 2.892-25.156 3.541-37.622 5.944-10.732 2.067-21.555 3.964-31.967 7.283-5.704 1.818-16.59 6.879-16.59 6.879m197.456-45.121s5.35-2.824 7.286-5.059c1.283-1.482 2.506-3.297 2.636-5.254.151-2.277-.62-4.853-2.226-6.474-1.561-1.577-4.061-2.219-6.28-2.227-1.855-.006-3.842.613-5.254 1.817-1.63 1.39-2.78 3.537-3.037 5.664-.218 1.814.51 3.698 1.368 5.312 1.3 2.447 5.507 6.22 5.507 6.22zm-151.123 0s4.208-3.774 5.508-6.22c.858-1.615 1.586-3.499 1.367-5.313-.256-2.127-1.407-4.274-3.037-5.664-1.412-1.204-3.398-1.823-5.254-1.817-2.218.008-4.708.65-6.27 2.227-1.605 1.621-2.377 4.197-2.226 6.474.13 1.957 1.344 3.772 2.627 5.254 1.935 2.235 7.285 5.059 7.285 5.059zm-41.074 18.008l-11.933 15.576s-.084 4.109.81 5.87c1.231 2.423 5.86 5.663 5.86 5.663l.85 21.387-11.31 19.6-.986.205 7.295 3.857c.342.056.68.112.986.088 4.378-.342 7.07-5.258 10.88-7.442 4.848-2.779 10.01-4.988 15.165-7.148 7.125-2.986 14.36-5.733 21.739-8.018 9.303-2.88 18.69-5.76 28.33-7.148a141.79 141.79 0 0122.1-1.445c2.462.033 4.92.127 7.372.293 6.57.444 19.37 3.404 19.473 3.427.086-.02 12.91-2.982 19.482-3.427 9.809-.664 19.742-.25 29.473 1.152 9.64 1.389 19.027 4.269 28.33 7.148 7.38 2.285 14.614 5.032 21.738 8.018 5.155 2.16 10.317 4.37 15.166 7.148 3.81 2.184 6.501 7.1 10.88 7.442.308.024.65-.03.995-.088l7.286-3.857-.987-.206-11.308-19.6.85-21.386s4.637-3.24 5.868-5.664c.895-1.76.801-5.87.801-5.87l-11.933-15.575s-6.016 6.007-9.913 7.285c-2.05.672-4.413.64-6.474 0-2.501-.777-4.435-2.811-6.475-4.453-4.609-3.71-9.225-7.541-12.949-12.139-2.133-2.633-5.264-8.701-5.264-8.701s-12.907 10.142-20.634 12.139c-7.577 1.958-15.96 1.605-23.467-.606-1.884-.555-5.03-3.066-5.03-3.066-8.826-5.622-17.651-8.698-26.425-7.852-8.774-.846-17.6 2.23-26.426 7.852 0 0-3.155 2.511-5.04 3.066-7.506 2.211-15.89 2.564-23.466.606-7.727-1.998-20.635-12.14-20.635-12.14s-3.13 6.069-5.263 8.702c-3.724 4.598-8.34 8.43-12.95 12.139-2.04 1.642-3.973 3.676-6.474 4.453-2.061.64-4.424.672-6.475 0-3.896-1.278-9.912-7.285-9.912-7.285z"/>
      <path d="M1985.89 796.364s.448-5.703-.162-8.455c-.558-2.52-1.694-4.94-3.136-7.081-1.513-2.247-5.647-5.842-5.647-5.842m-1.434 27.69s3.394.123 4.853-.605c2.603-1.3 6.074-6.27 6.074-6.27s6.662 4.608 10.313 4.043c1.8-.278 3.294-1.885 4.248-3.437 1.01-1.646 1.651-3.782 1.22-5.664-.343-1.5-1.657-2.65-2.831-3.643-2.282-1.929-6.396-1.662-7.891-4.248-1.182-2.044-.457-4.81.195-7.08 1.36-4.736 4.751-8.648 7.49-12.744 1.74-2.601 5.294-4.383 5.665-7.49.2-1.68-2.022-4.659-2.022-4.659s-5.222-.118-7.686.616c-4.077 1.213-8.307 2.995-11.2 6.113-2.406 2.592-3.121 6.365-4.386 9.668-.96 2.51-2.421 7.685-2.421 7.685s-6.042-.013-8.702 1.211c-3.515 1.618-7.11 4.158-8.7 7.686-1.248 2.767-1.074 6.272 0 9.111 1.08 2.86 3.492 5.236 6.073 6.875 2.847 1.808 9.708 2.832 9.708 2.832zm-234.71-27.69s-4.135 3.595-5.648 5.842c-1.442 2.141-2.577 4.56-3.136 7.081-.61 2.752-.162 8.455-.162 8.455m-16.936-45.485s-2.222 2.98-2.021 4.659c.37 3.107 3.924 4.889 5.664 7.49 2.739 4.096 6.13 8.008 7.49 12.744.652 2.27 1.377 5.036.195 7.08-1.495 2.586-5.61 2.32-7.89 4.248-1.175.993-2.49 2.144-2.832 3.643-.431 1.882.21 4.018 1.22 5.664.954 1.553 2.448 3.159 4.248 3.437 3.651.565 10.313-4.043 10.313-4.043s3.471 4.97 6.074 6.27c1.46.728 4.854.605 4.854.605s6.87-1.024 9.716-2.832c2.582-1.64 4.983-4.014 6.065-6.875 1.073-2.838 1.247-6.344 0-9.111-1.59-3.528-5.186-6.068-8.701-7.686-2.66-1.224-8.702-1.21-8.702-1.21s-1.46-5.176-2.421-7.686c-1.265-3.303-1.98-7.076-4.385-9.668-2.894-3.118-7.124-4.9-11.201-6.113-2.464-.734-7.686-.616-7.686-.616zm135.626 14.318l8.325-2.438 8.324 2.438m-14.492 20.082s-6.481-5.91-7.689-9.914c-.527-1.748-.45-3.849.405-5.463 1.168-2.205 5.867-4.653 5.867-4.653s-7.085-3.443-8.902-6.677c-1.029-1.83-1.158-4.245-.607-6.271.874-3.216 3.3-5.97 5.868-8.093 3.185-2.633 11.226-5.26 11.226-5.26s8.026 2.62 11.226 5.26c2.57 2.12 4.993 4.877 5.867 8.093.551 2.026.422 4.44-.607 6.271-1.817 3.234-8.902 6.677-8.902 6.677s4.699 2.448 5.867 4.653c.855 1.614.932 3.715.405 5.463-1.207 4.004-7.688 9.914-7.688 9.914l-6.168.405zm22.672-26.888s13.436 5.727 17.989 11.107c1.27 1.5 2.352 3.5 2.225 5.462-.448 6.962-10.318 18.21-10.318 18.21l-19.928-8.283h-12.944l-19.928 8.282s-9.87-11.247-10.319-18.209c-.126-1.962.956-3.961 2.226-5.462 4.552-5.38 17.989-11.107 17.989-11.107"/>
      <path d="M1844.36 669.248l8.056-6.2 6.507.14-6.656-.144s-3.591-2.447-4.578-4.292c-.958-1.79-1.415-4.02-1.002-6.008.553-2.655 2.086-5.459 4.428-6.825 2.237-1.305 7.755-.471 7.755-.471s5.503-.842 7.755.471c2.343 1.366 3.876 4.17 4.428 6.825.414 1.988-.043 4.218-1.001 6.008-.987 1.845-4.578 4.292-4.578 4.292l-6.656.143 6.506-.14 8.057 6.201m52.584 5.068l-2.68 4.655m32.633-20.004l-7.515.982m8.513 8.804l-11.517.604m-1.498-13.748c1.468.937 4.155 2.86 4.595 4.635.776 3.13-.675 7.07-3.14 9.149-2.388 2.014-9.251 1.501-9.251 1.501m-181.69 33.587s11.294-2.82 16.954-4.177c8.081-1.939 16.1-4.196 24.279-5.665 9.262-1.664 18.62-2.885 28.007-3.554 11.71-.836 35.215-.573 35.215-.573s23.488-.264 35.216.573c9.387.67 18.745 1.89 28.007 3.554 8.18 1.469 16.198 3.726 24.279 5.665 5.66 1.357 16.954 4.177 16.954 4.177m-171.55-30.165l2.68 4.655m-32.634-20.004l7.515.982m-8.513 8.804l11.517.604m-6.475 16.076s12.542-3.187 18.875-4.506c6.924-1.442 13.873-2.82 20.887-3.72 8.068-1.035 16.2-1.555 24.325-1.928 9.63-.443 28.917-.367 28.917-.367s19.27-.076 28.917.367c8.125.373 16.257.893 24.325 1.928 7.014.9 13.964 2.278 20.887 3.72 6.333 1.319 18.875 4.506 18.875 4.506m-170.239-14.539s-6.863.513-9.252-1.501c-2.465-2.079-3.915-6.02-3.139-9.149.611-2.464 5.55-5.213 5.55-5.213m63.138 74.002c-11.977.723-24.01 1.474-35.81 3.642-12.293 2.258-24.486 5.397-36.216 9.711-11.113 4.088-22.869 22.644-32.096 15.223-1.983-1.595.753-5.084 1.717-7.44 1.866-4.556 4.43-8.932 7.726-12.59 2.413-2.677 7.975-3.026 8.583-6.58.442-2.581-3.474-4.093-4.292-6.58-1.043-3.177-1.538-6.814-.572-10.015 1.24-4.109 6.526-6.18 7.726-10.3 1.043-3.583-2.548-7.833-.859-11.16 2.133-4.2 11.337-2.777 12.017-7.439.332-2.273-3.825-2.98-4.578-5.15-.532-1.535.31-3.24.287-4.864-.031-2.202.392-4.602-.573-6.581-.857-1.76-3.702-2.14-4.292-4.006-.558-1.766-.171-4.134 1.145-5.436 1.037-1.027 3.632.442 4.292-.859 1.332-2.626-2.539-5.314-3.72-8.011-1.406-3.213-3.207-6.314-4.006-9.729-.63-2.7-2.958-6.886-.572-8.297 2.733-1.616 5.477 3.239 8.012 5.15 3.345 2.523 7.11 4.817 9.442 8.298 1.683 2.511.743 6.509 2.948 8.577 2.647 2.481 7.758.491 10.5 2.868 2.356 2.042 4.441 5.55 3.72 8.584-.69 2.898-7.532 2.817-6.868 5.722.79 3.45 6.814 3.18 10.3 2.575 2.034-.352 3.463-2.247 5.151-3.433 1.311-.922 2.39-2.233 3.863-2.862 1.69-.721 5.436-.93 5.436-.93l-2.146-.5s-3.171-2.528-3.505-4.364c-.314-1.728.437-3.731 1.645-5.007 1.356-1.43 3.538-2.16 5.508-2.146 1.647.012 3.446.664 4.578 1.86 1.161 1.227 1.825 3.113 1.646 4.793-.157 1.467-1.128 2.88-2.29 3.79-1.257.988-4.577 1.431-4.577 1.431l2.289.644 6.151 8.44 26.539-1.453s3.273-3.34 2.63-5.16c-.689-1.95-2.503-2.667-5.665-2.528-8.581.376-10.34-6.829-10.015-12.038.27-4.334 5.484-7.275 9.51-8.903 3.876-1.567 10.787 3.593 12.543-.202 1.54-3.326-5.818-5.02-6.98-8.497-.503-1.505-.508-3.336.202-4.755 1.813-3.622 5.714-6.03 9.408-7.688 1.557-.7 5.056-.81 5.056-.81s3.482.105 5.055.81c3.696 1.655 7.595 4.066 9.408 7.688.71 1.419.705 3.25.202 4.755-1.162 3.476-8.52 5.17-6.98 8.497 1.757 3.795 8.667-1.365 12.544.202 4.025 1.628 9.24 4.569 9.51 8.903.324 5.21-1.435 12.414-10.016 12.038-3.162-.14-4.976.579-5.665 2.529-.643 1.82 2.63 5.159 2.63 5.159l26.54 1.454 6.15-8.44 2.29-.645s-3.32-.443-4.578-1.43c-1.162-.911-2.133-2.324-2.29-3.791-.178-1.68.485-3.566 1.646-4.793 1.132-1.196 2.93-1.848 4.578-1.86 1.97-.014 4.153.716 5.508 2.146 1.208 1.276 1.959 3.279 1.645 5.007-.333 1.836-3.505 4.364-3.505 4.364l-2.146.5s3.746.209 5.436.93c1.474.63 2.552 1.94 3.863 2.862 1.688 1.186 3.117 3.081 5.15 3.433 3.488.604 9.512.875 10.301-2.575.664-2.905-6.177-2.824-6.867-5.722-.722-3.034 1.363-6.542 3.72-8.584 2.74-2.377 7.852-.387 10.5-2.868 2.205-2.068 1.264-6.066 2.947-8.577 2.333-3.48 6.097-5.775 9.443-8.298 2.534-1.911 5.279-6.766 8.011-5.15 2.386 1.411.06 5.598-.572 8.297-.799 3.415-2.6 6.516-4.006 9.729-1.18 2.697-5.051 5.385-3.72 8.011.66 1.301 3.256-.168 4.292.859 1.316 1.302 1.703 3.67 1.145 5.436-.59 1.866-3.435 2.246-4.292 4.006-.964 1.98-.541 4.379-.572 6.58-.023 1.625.818 3.33.286 4.865-.753 2.17-4.91 2.877-4.578 5.15.68 4.662 9.884 3.239 12.017 7.44 1.69 3.326-1.901 7.576-.858 11.158 1.2 4.12 6.485 6.192 7.725 10.3.967 3.202.472 6.839-.572 10.015-.818 2.488-4.734 4-4.292 6.581.608 3.554 6.17 3.903 8.584 6.58 3.296 3.658 5.86 8.034 7.725 12.59.964 2.356 3.7 5.845 1.717 7.44-9.227 7.42-20.983-11.135-32.096-15.223-11.73-4.314-23.922-7.453-36.215-9.711-11.801-2.168-23.834-2.918-35.81-3.642-6.969-.42-20.938-.404-20.938-.404s-13.953-.018-20.938.404zm31.128-133.632l-10.184.117-10.183-.117m16.931-33.88c2.642-5.6-1.975-9.75-6.748-13.857-4.772 4.107-9.39 8.256-6.747 13.857m14.066 46.73c3.894.287 8.632 4.268 11.588 1.717 1.336-1.153.675-3.663 0-5.293-1.574-3.801-8.413-4.625-8.727-8.727-.27-3.538 5.191-5.212 6.295-8.584.549-1.677.68-3.666 0-5.293-2.751-6.578-14.493-6.952-16.527-13.68-.901-2.982 5.932-6.494 6.8-6.87 4.34-1.879 9.703 2.659 13.988.8 2.899-1.259 6.125-4.124 6.07-7.284-.06-3.438-3.726-6.317-6.88-7.688-6.108-2.657-16.22 5.904-19.978.404-3.459-5.061 8.643-11.08 7.03-16.995-.767-2.81-6.978-5.26-6.978-5.26s-6.202 2.438-6.977 5.26c-1.624 5.912 10.488 11.934 7.03 16.995-3.758 5.5-13.87-3.061-19.979-.404-3.153 1.371-6.818 4.25-6.878 7.688-.056 3.16 3.17 6.025 6.07 7.283 4.283 1.86 9.648-2.678 13.987-.799.867.376 7.7 3.888 6.8 6.87-2.034 6.729-13.776 7.102-16.527 13.68-.681 1.627-.55 3.616 0 5.293 1.104 3.372 6.565 5.046 6.294 8.584-.313 4.102-7.152 4.926-8.726 8.727-.676 1.63-1.336 4.14 0 5.293 2.956 2.55 7.693-1.43 11.588-1.717 2.433-.18 7.318 0 7.318 0s4.869-.18 7.319 0z"/>
      <path fill="none" d="M1953.74 953.499s-7.154-3.02-10.804-4.34c-6.597-2.388-13.259-4.632-20.03-6.474-6.599-1.796-13.232-3.69-20.03-4.451-14.575-1.634-44.001-.203-44.001-.203s-29.409-1.433-44.002.203c-6.797.761-13.43 2.655-20.03 4.45-6.77 1.843-13.432 4.087-20.03 6.475-3.65 1.32-10.804 4.34-10.804 4.34m201.9-222.5s-11.953-4.756-18.026-6.867c-5.1-1.773-10.206-3.582-15.451-4.864-6.397-1.565-12.932-2.538-19.457-3.434a376.605 376.605 0 00-28.307-2.784c-8.584-.523-25.793-.607-25.793-.607s-17.192.083-25.793.607a376.49 376.49 0 00-28.307 2.784c-6.525.896-13.06 1.87-19.457 3.434-5.245 1.282-10.35 3.091-15.45 4.864-6.074 2.11-18.026 6.867-18.026 6.867m-14.157 120.41s17.56-5.918 26.405-8.671c9.129-2.84 18.174-6.063 27.516-8.093 11.184-2.43 22.61-3.63 33.99-4.856 11.058-1.191 33.279-2.427 33.279-2.427s22.203 1.234 33.28 2.427c11.378 1.226 22.805 2.426 33.989 4.856 9.342 2.03 18.387 5.252 27.516 8.093 8.846 2.753 26.405 8.671 26.405 8.671"/>
    </g>
    <g fill="#ccc">
      <g id="b">
        <path d="M1533.28 904.042l101.171 86.713s-5.133 11.214-7.279 16.99c-1.979 5.326-3.817 10.726-5.146 16.251-1.958 8.145-4.135 24.789-4.135 24.789L1499.95 940.75c1.673-24.69 15.567-33.488 33.331-36.708zm-14.29 54.155l-24.283 27.167 15.164 14.593-23.462 22.89-15.165-15.165-25.514 27.202-.237 33.743 58.084 45.494 20.029-14.879-1.145-32.332 15.45 8.584 15.452-9.443.858 29.185-12.59-9.156-13.734 18.026-1.43 32.046 43.777 38.913 53.05-47.079-4.009-14.112-2.305-12.678-1.247-25.129 1.98-27.44z"/>
        <path d="M1494.71 985.364l-.621 29.993 15.643-15.261z"/>
        <path fill="none" d="M1571.935 1140.425l-1.82 34.262m-18.61-139.675l.644 31.785m-14.81-17.34l.83 25.884m-14.426-36.34l.542 28.924m-21.435 15.225l.312 30.648m24.737-9.675l44.063 36.897 45.056-39.54M1446 1034.605l57.579 49.193 18.884-16.881-14.879-12.59 16.596-15.737 12.875 11.16 14.593-14.88 18.884 18.313-17.15 13.447 16.005 14.593-15.164 14.02"/>
        <path d="M1901.35 1229.35l48.602 44.58 10.763 31.428-62.642-6.673-35.663-35.277-37.97-35.175-164.039-142.138s3.479-13.101 5.635-19.522c3.124-9.3 6.867-18.384 10.565-27.472.928-2.28 2.915-6.785 2.915-6.785l183.014 162.24z"/>
        <path d="M1942.67 1236.04c27.095 37.868 72.691 73.638 86.537 90.842 13.845 17.203 22.764 33.54 2.583 55.538-20.182 21.998-43.064 9.515-61.136-2.583-18.07-12.099-49.602-51.303-94.716-81.37z"/>
        <path d="M1926.7 1299.75l-35.17-15.874m40.929-38.287c2.423 7.965.574 16.774 3.624 24.416 3.015 7.555 14.022 19.973 14.022 19.973s-6.998.978-10.262 2.245c-4.73 1.838-11.956 2.71-13.172 7.638-1.063 4.309 4.062 8.026 7.09 11.27 2.905 3.112 6.645 5.372 10.316 7.526 6.137 3.6 12.391 7.654 19.393 8.917 8.765 1.58 25.13-10.756 26.647-1.98.631 3.65-7.39 1.313-10.713 2.946-7.758 3.813-11.65 12.118-4.82 17.894 4.384 3.71 11.274 2.347 16.998 2.821 5.49.455 11.758-2.745 16.523.016 5.61 3.25 12.668 11.106 9.692 16.867-3.063 5.928-14.484 5.77-19.927 1.91-4.025-2.854-2.947-9.474-3.542-14.371-.177-1.458 0-2.937 0-4.406"/>
        <path d="M 2284.352 1480.147 A 129.687 129.687 0 0 1 2154.665 1609.834 A 129.687 129.687 0 0 1 2024.978 1480.147 A 129.687 129.687 0 0 1 2154.665 1350.46 A 129.687 129.687 0 0 1 2284.352 1480.147 Z"/>
        <path fill="#fff" d="M2106.13 1485.65c-22.355 0-40.478 18.123-40.478 40.478 0 22.356 18.123 40.478 40.478 40.478s40.478-18.122 40.478-40.478l14.026-.609c0 22.356 18.123 40.478 40.478 40.478s40.478-18.122 40.478-40.478-18.122-40.478-40.478-40.478l.61-7.937c22.355 0 40.477-18.123 40.477-40.478s-18.122-40.479-40.478-40.479c-22.355 0-40.478 18.123-40.478 40.479l-14.026-1.218c0-22.356-18.123-40.478-40.478-40.478-22.356 0-40.478 18.122-40.478 40.478 0 22.355 18.122 40.478 40.478 40.478z"/>
        <path d="M 2169.28 1446.052 A 14.613 14.613 0 0 1 2154.667 1460.665 A 14.613 14.613 0 0 1 2140.054 1446.052 A 14.613 14.613 0 0 1 2154.667 1431.439 A 14.613 14.613 0 0 1 2169.28 1446.052 Z"/>
        <path d="M 2203.98 1480.148 A 14.613 14.613 0 0 1 2189.367 1494.761 A 14.613 14.613 0 0 1 2174.754 1480.148 A 14.613 14.613 0 0 1 2189.367 1465.535 A 14.613 14.613 0 0 1 2203.98 1480.148 Z"/>
        <path d="M 2169.89 1511.2 A 14.613 14.613 0 0 1 2155.277 1525.813 A 14.613 14.613 0 0 1 2140.664 1511.2 A 14.613 14.613 0 0 1 2155.277 1496.587 A 14.613 14.613 0 0 1 2169.89 1511.2 Z"/>
        <path d="M 2133.96 1480.148 A 14.613 14.613 0 0 1 2119.347 1494.761 A 14.613 14.613 0 0 1 2104.734 1480.148 A 14.613 14.613 0 0 1 2119.347 1465.535 A 14.613 14.613 0 0 1 2133.96 1480.148 Z"/>
        <path fill="#fff" d="M2152.23 1558.42c-5.338 10.957-12.62 15.941-21.919 21.919 13.247 5.754 29.4 4.697 43.838 0-9.299-4.65-16.041-11.996-21.919-21.919zm-76.579-80.232c-10.956-5.338-15.94-12.62-21.919-21.919-5.753 13.248-4.696 29.4 0 43.838 4.65-9.299 11.996-16.041 21.92-21.919zm159.246 3.653c10.957-5.337 15.941-12.62 21.92-21.919 5.753 13.248 4.696 29.4 0 43.838-4.65-9.298-11.996-16.041-21.92-21.919zm-78.405-80.84c-5.338-10.957-12.62-15.941-21.919-21.92 13.248-5.753 29.4-4.696 43.838 0-9.299 4.65-16.041 11.997-21.919 21.92z"/>
      </g>
      <g fill="#ce9d09">
        <g id="c">
          <path d="M1533.48 903.819s.703-5.061 0-7.44c-1.144-3.868-3.574-7.467-6.58-10.157-2.544-2.275-5.808-3.923-9.157-4.578-3.615-.706-7.464-.115-11.016.859-2.42.663-6.753 3.322-6.753 3.322l-14.85 6.12-5.51 17.667s-3.174 5.58-3.931 8.656c-.81 3.293-1.41 6.871-.573 10.158.983 3.86 3.232 7.611 6.295 10.157 2.833 2.355 6.627 3.73 10.3 4.006 2.827.213 8.298-1.86 8.298-1.86 1.58-18.611 9.856-32.813 33.477-36.91z"/>
          <path d="M1500.27 885.645l-38.753-17.02-3.147 3.005 21.118 38.201s5.925-8.738 9.354-12.736c3.51-4.093 11.428-11.45 11.428-11.45z"/>
          <path d="M 1473.243 865.263 A 15.951 15.951 0 0 1 1457.292 881.214 A 15.951 15.951 0 0 1 1441.341 865.263 A 15.951 15.951 0 0 1 1457.292 849.312 A 15.951 15.951 0 0 1 1473.243 865.263 Z"/>
          <path d="M1566.19 932.256c3.39 27.952 7.322 55.904 16.025 83.856l31.069 28.46c-6.625-29.232-18.443-58.464-18.369-87.695z"/>
          <path d="M1613.05 972.415l-85.487-6.369 27.2 24.916 78.068 3.38 1.147-3.99zm105.31 94.505c-22.445 8.46-31.418 22.309-37.857 37.171-6.353.56-12.306.618-14.41-4.133 5.347-34.7 30.21-45.552 35.753-47.747 14.95-2.825 12.178 8.85 16.514 14.709zm27.52 25.9c-22.445 8.46-31.418 22.309-37.857 37.171-6.353.559-12.306.618-14.41-4.134 5.347-34.7 30.21-45.55 35.753-47.746 14.95-2.825 12.179 8.85 16.514 14.709zm312.78 261.87c-7.337-.202-15.078 1.504-15.078 1.504.303 8.02-2.946 16.583-11.797 26.23-7.64 8.327-15.666 11.704-23.672 12.041l-.01.01s-2.84 17.652 2.588 23.252c6.356 6.558 27.12 3.877 27.12 3.877l1.767-1.132a129.688 129.688 0 0131.914-39.795l.332-1.26s3.038-16.523-2.149-21.5c-2.35-2.27-6.613-3.072-11.015 0z"/>
          <path d="M 2272.174 1375.424 A 17.657 17.657 0 0 1 2254.517 1393.081 A 17.657 17.657 0 0 1 2236.86 1375.424 A 17.657 17.657 0 0 1 2254.517 1357.767 A 17.657 17.657 0 0 1 2272.174 1375.424 Z"/>
          <path d="M 2278.264 1580.001 A 17.657 17.657 0 0 1 2260.607 1597.658 A 17.657 17.657 0 0 1 2242.95 1580.001 A 17.657 17.657 0 0 1 2260.607 1562.344 A 17.657 17.657 0 0 1 2278.264 1580.001 Z"/>
          <path d="M 2079.774 1591.57 A 17.657 17.657 0 0 1 2062.117 1609.227 A 17.657 17.657 0 0 1 2044.46 1591.57 A 17.657 17.657 0 0 1 2062.117 1573.913 A 17.657 17.657 0 0 1 2079.774 1591.57 Z"/>
        </g>
      </g>
    </g>
    <g fill="#ce9d09" transform="matrix(-1 0 0 1 3718.256 0)">
      <g>
        <path d="M1533.28 904.042l101.171 86.713s-5.133 11.214-7.279 16.99c-1.979 5.326-3.817 10.726-5.146 16.251-1.958 8.145-4.135 24.789-4.135 24.789L1499.95 940.75c1.673-24.69 15.567-33.488 33.331-36.708zm-14.29 54.155l-24.283 27.167 15.164 14.593-23.462 22.89-15.165-15.165-25.514 27.202-.237 33.743 58.084 45.494 20.029-14.879-1.145-32.332 15.45 8.584 15.452-9.443.858 29.185-12.59-9.156-13.734 18.026-1.43 32.046 43.777 38.913 53.05-47.079-4.009-14.112-2.305-12.678-1.247-25.129 1.98-27.44z"/>
        <path d="M1494.71 985.364l-.621 29.993 15.643-15.261z"/>
        <path fill="none" d="M1571.935 1140.425l-1.82 34.262m-18.61-139.675l.644 31.785m-14.81-17.34l.83 25.884m-14.426-36.34l.542 28.924m-21.435 15.225l.312 30.648m24.737-9.675l44.063 36.897 45.056-39.54M1446 1034.605l57.579 49.193 18.884-16.881-14.879-12.59 16.596-15.737 12.875 11.16 14.593-14.88 18.884 18.313-17.15 13.447 16.005 14.593-15.164 14.02"/>
        <path d="M1901.35 1229.35l48.602 44.58 10.763 31.428-62.642-6.673-35.663-35.277-37.97-35.175-164.039-142.138s3.479-13.101 5.635-19.522c3.124-9.3 6.867-18.384 10.565-27.472.928-2.28 2.915-6.785 2.915-6.785l183.014 162.24z"/>
        <path d="M1942.67 1236.04c27.095 37.868 72.691 73.638 86.537 90.842 13.845 17.203 22.764 33.54 2.583 55.538-20.182 21.998-43.064 9.515-61.136-2.583-18.07-12.099-49.602-51.303-94.716-81.37z"/>
        <path d="M1926.7 1299.75l-35.17-15.874m40.929-38.287c2.423 7.965.574 16.774 3.624 24.416 3.015 7.555 14.022 19.973 14.022 19.973s-6.998.978-10.262 2.245c-4.73 1.838-11.956 2.71-13.172 7.638-1.063 4.309 4.062 8.026 7.09 11.27 2.905 3.112 6.645 5.372 10.316 7.526 6.137 3.6 12.391 7.654 19.393 8.917 8.765 1.58 25.13-10.756 26.647-1.98.631 3.65-7.39 1.313-10.713 2.946-7.758 3.813-11.65 12.118-4.82 17.894 4.384 3.71 11.274 2.347 16.998 2.821 5.49.455 11.758-2.745 16.523.016 5.61 3.25 12.668 11.106 9.692 16.867-3.063 5.928-14.484 5.77-19.927 1.91-4.025-2.854-2.947-9.474-3.542-14.371-.177-1.458 0-2.937 0-4.406"/>
        <path d="M 2284.352 1480.147 A 129.687 129.687 0 0 1 2154.665 1609.834 A 129.687 129.687 0 0 1 2024.978 1480.147 A 129.687 129.687 0 0 1 2154.665 1350.46 A 129.687 129.687 0 0 1 2284.352 1480.147 Z"/>
        <path fill="#fff" d="M2106.13 1485.65c-22.355 0-40.478 18.123-40.478 40.478 0 22.356 18.123 40.478 40.478 40.478s40.478-18.122 40.478-40.478l14.026-.609c0 22.356 18.123 40.478 40.478 40.478s40.478-18.122 40.478-40.478-18.122-40.478-40.478-40.478l.61-7.937c22.355 0 40.477-18.123 40.477-40.478s-18.122-40.479-40.478-40.479c-22.355 0-40.478 18.123-40.478 40.479l-14.026-1.218c0-22.356-18.123-40.478-40.478-40.478-22.356 0-40.478 18.122-40.478 40.478 0 22.355 18.122 40.478 40.478 40.478z"/>
        <path d="M 2169.28 1446.052 A 14.613 14.613 0 0 1 2154.667 1460.665 A 14.613 14.613 0 0 1 2140.054 1446.052 A 14.613 14.613 0 0 1 2154.667 1431.439 A 14.613 14.613 0 0 1 2169.28 1446.052 Z"/>
        <path d="M 2203.98 1480.148 A 14.613 14.613 0 0 1 2189.367 1494.761 A 14.613 14.613 0 0 1 2174.754 1480.148 A 14.613 14.613 0 0 1 2189.367 1465.535 A 14.613 14.613 0 0 1 2203.98 1480.148 Z"/>
        <path d="M 2169.89 1511.2 A 14.613 14.613 0 0 1 2155.277 1525.813 A 14.613 14.613 0 0 1 2140.664 1511.2 A 14.613 14.613 0 0 1 2155.277 1496.587 A 14.613 14.613 0 0 1 2169.89 1511.2 Z"/>
        <path d="M 2133.96 1480.148 A 14.613 14.613 0 0 1 2119.347 1494.761 A 14.613 14.613 0 0 1 2104.734 1480.148 A 14.613 14.613 0 0 1 2119.347 1465.535 A 14.613 14.613 0 0 1 2133.96 1480.148 Z"/>
        <path fill="#fff" d="M2152.23 1558.42c-5.338 10.957-12.62 15.941-21.919 21.919 13.247 5.754 29.4 4.697 43.838 0-9.299-4.65-16.041-11.996-21.919-21.919zm-76.579-80.232c-10.956-5.338-15.94-12.62-21.919-21.919-5.753 13.248-4.696 29.4 0 43.838 4.65-9.299 11.996-16.041 21.92-21.919zm159.246 3.653c10.957-5.337 15.941-12.62 21.92-21.919 5.753 13.248 4.696 29.4 0 43.838-4.65-9.298-11.996-16.041-21.92-21.919zm-78.405-80.84c-5.338-10.957-12.62-15.941-21.919-21.92 13.248-5.753 29.4-4.696 43.838 0-9.299 4.65-16.041 11.997-21.919 21.92z"/>
      </g>
      <g fill="#ccc">
        <path d="M1533.48 903.819s.703-5.061 0-7.44c-1.144-3.868-3.574-7.467-6.58-10.157-2.544-2.275-5.808-3.923-9.157-4.578-3.615-.706-7.464-.115-11.016.859-2.42.663-6.753 3.322-6.753 3.322l-14.85 6.12-5.51 17.667s-3.174 5.58-3.931 8.656c-.81 3.293-1.41 6.871-.573 10.158.983 3.86 3.232 7.611 6.295 10.157 2.833 2.355 6.627 3.73 10.3 4.006 2.827.213 8.298-1.86 8.298-1.86 1.58-18.611 9.856-32.813 33.477-36.91z"/>
        <path d="M1500.27 885.645l-38.753-17.02-3.147 3.005 21.118 38.201s5.925-8.738 9.354-12.736c3.51-4.093 11.428-11.45 11.428-11.45z"/>
        <path d="M 1473.243 865.263 A 15.951 15.951 0 0 1 1457.292 881.214 A 15.951 15.951 0 0 1 1441.341 865.263 A 15.951 15.951 0 0 1 1457.292 849.312 A 15.951 15.951 0 0 1 1473.243 865.263 Z"/>
        <path d="M1566.19 932.256c3.39 27.952 7.322 55.904 16.025 83.856l31.069 28.46c-6.625-29.232-18.443-58.464-18.369-87.695z"/>
        <path d="M1613.05 972.415l-85.487-6.369 27.2 24.916 78.068 3.38 1.147-3.99zm105.31 94.505c-22.445 8.46-31.418 22.309-37.857 37.171-6.353.56-12.306.618-14.41-4.133 5.347-34.7 30.21-45.552 35.753-47.747 14.95-2.825 12.178 8.85 16.514 14.709zm27.52 25.9c-22.445 8.46-31.418 22.309-37.857 37.171-6.353.559-12.306.618-14.41-4.134 5.347-34.7 30.21-45.55 35.753-47.746 14.95-2.825 12.179 8.85 16.514 14.709zm312.78 261.87c-7.337-.202-15.078 1.504-15.078 1.504.303 8.02-2.946 16.583-11.797 26.23-7.64 8.327-15.666 11.704-23.672 12.041l-.01.01s-2.84 17.652 2.588 23.252c6.356 6.558 27.12 3.877 27.12 3.877l1.767-1.132a129.688 129.688 0 0131.914-39.795l.332-1.26s3.038-16.523-2.149-21.5c-2.35-2.27-6.613-3.072-11.015 0z"/>
        <path d="M 2272.174 1375.424 A 17.657 17.657 0 0 1 2254.517 1393.081 A 17.657 17.657 0 0 1 2236.86 1375.424 A 17.657 17.657 0 0 1 2254.517 1357.767 A 17.657 17.657 0 0 1 2272.174 1375.424 Z"/>
        <path d="M 2278.264 1580.001 A 17.657 17.657 0 0 1 2260.607 1597.658 A 17.657 17.657 0 0 1 2242.95 1580.001 A 17.657 17.657 0 0 1 2260.607 1562.344 A 17.657 17.657 0 0 1 2278.264 1580.001 Z"/>
        <path d="M 2079.774 1591.57 A 17.657 17.657 0 0 1 2062.117 1609.227 A 17.657 17.657 0 0 1 2044.46 1591.57 A 17.657 17.657 0 0 1 2062.117 1573.913 A 17.657 17.657 0 0 1 2079.774 1591.57 Z"/>
      </g>
    </g>
    <g fill="#fa0204">
      <path id="d" d="M1869.19 1175.78c0 5.38-4.5 7.458-13.243 7.458s-12.786-2.534-12.786-7.915c0-5.38 4.043-6.697 12.786-6.697s13.243 1.774 13.243 7.154z"/>
      <path d="M 1875.581 1190.089 C 1875.581 1195.469 1871.081 1197.547 1862.338 1197.547 C 1853.595 1197.547 1849.552 1195.013 1849.552 1189.632 C 1849.552 1184.252 1853.595 1182.935 1862.338 1182.935 C 1871.081 1182.935 1875.581 1184.709 1875.581 1190.089 L 1875.581 1190.089 Z"/>
      <path d="M1877.34 1208.69c-1.772 5.08-6.705 5.56-14.96 2.681-8.255-2.88-11.238-6.605-9.466-11.685 1.772-5.08 6.023-4.992 14.278-2.112 8.255 2.879 11.92 6.036 10.148 11.116z"/>
      <path id="e" d="M1877.51 1222.51c-1.065 5.274-5.887 6.42-14.457 4.69s-12.031-5.016-10.966-10.29c1.065-5.274 5.289-5.765 13.858-4.034 8.57 1.73 12.63 4.36 11.565 9.634z"/>
      <path d="M 1881.47 1238.652 C 1880.405 1243.926 1875.583 1245.072 1867.013 1243.342 C 1858.443 1241.612 1854.982 1238.326 1856.047 1233.052 C 1857.112 1227.778 1861.336 1227.287 1869.905 1229.018 C 1878.475 1230.748 1882.535 1233.378 1881.47 1238.652 Z"/>
      <path d="M1921.73 1216.2c-2.59-.691-2.303-5.303-1.583-7.886 1.107-3.968 8.354-9.11 8.354-9.11s1.767 5.563.95 8.185c-1.162 3.729-3.948 9.818-7.721 8.811z"/>
      <path d="M1912.29 1224.42c-2.822-.622-3.182-5.523-2.444-8.316 1.142-4.324 9.645-9.325 9.645-9.325s1.477 6.041.52 8.83c-1.267 3.694-3.907 9.651-7.721 8.811zm-10.77 15.59c-4.292-1.138-3.805-8.762-2.66-13.052.947-3.543 3.716-9.12 7.278-8.249 4.167 1.018 4.115 8.321 3.103 12.49-.92 3.795-3.947 9.812-7.721 8.811z"/>
      <path d="M1888.73 1252.19c-4.214-.926-6.007-7.638-5.164-11.87.885-4.442 5.36-10.41 9.782-9.431 4.463.988 6.005 8.353 4.93 12.795-1.004 4.143-5.385 9.421-9.548 8.506zm-2.22 7.39c-1.077 5.087-7.504 6.86-11.461 5.57-4.154-1.356-9.579-7.187-8.442-12.525 1.147-5.385 8.179-6.813 12.324-5.225 3.866 1.48 8.643 7.155 7.579 12.18zm-85.04-49.29s5.138 2.531 7.349 4.792c2.32 2.373 5.11 3.322 3.709 6.923-1.415 3.634-5.843 2.388-8.127-.156-2.13-2.372-2.931-11.559-2.931-11.559zm25.37 8.77c5.212 1.047 5.108 7.12 2.443 10.847-2.797 3.91-10.883 8.992-16.349 7.887-5.515-1.116-4.844-7.758-1.795-11.658 2.843-3.638 10.553-8.11 15.701-7.076z"/>
      <path id="f" d="M1844.26 1230.55c4.853 2.169 3.415 8.07 0 11.118-3.59 3.199-12.597 6.375-17.685 4.093-5.134-2.302-3.016-8.633.816-11.767 3.575-2.922 12.08-5.586 16.874-3.444z"/>
      <path d="M 1858.258 1241.211 C 1863.111 1243.38 1861.673 1249.281 1858.258 1252.329 C 1854.668 1255.528 1845.661 1258.704 1840.573 1256.422 C 1835.439 1254.12 1837.557 1247.789 1841.389 1244.655 C 1844.964 1241.733 1853.469 1239.069 1858.263 1241.211 L 1858.258 1241.211 Z"/>
      <path d="M1862.97 1250.68c4.787.754 6.069 7.415 4.585 11.696-1.56 4.494-7.474 10.67-12.496 9.87-5.068-.806-5.982-8.132-4.2-12.634 1.66-4.199 7.383-9.678 12.112-8.932z"/>
      <path d="M1875.1 1265.33c3.965 2.308 3.033 9.59.41 13.533-2.754 4.14-9.845 8.622-14.002 6.194-4.195-2.451-2.735-10.302.216-14.38 2.752-3.8 9.46-7.626 13.377-5.347zm-86.08-39.89c4.244-.376 7.182 5.965 7.127 10.585-.06 4.85-3.317 12.403-7.771 12.79-4.495.39-7.309-6.7-7.065-11.611.227-4.58 3.518-11.393 7.71-11.765z"/>
      <path d="M1802.91 1237.65c4.157.932 5.027 7.867 3.57 12.251-1.532 4.602-6.933 10.806-11.294 9.82-4.4-.995-4.924-8.606-3.198-13.21 1.609-4.293 6.817-9.782 10.923-8.861z"/>
      <path d="M1815.79 1246.24c4.921 1.158 5.952 9.77 4.226 15.215-1.814 5.716-8.208 13.42-13.37 12.196-5.21-1.236-5.83-10.689-3.787-16.406 1.905-5.332 8.07-12.15 12.932-11.005z"/>
      <path d="M1826.22 1256.8c5.014-.644 9.005 7.057 9.301 12.761.31 5.988-2.97 15.448-8.234 16.115-5.312.673-9.213-7.96-9.309-14.03-.089-5.661 3.29-14.21 8.243-14.847z"/>
      <path id="g" d="M1838.59 1265.66c4.556-.534 8.182 5.85 8.451 10.578.282 4.964-2.699 12.805-7.482 13.358-4.826.558-8.371-6.598-8.458-11.63-.08-4.693 2.989-11.779 7.49-12.307z"/>
      <path d="M 1851.378 1276.01 C 1855.934 1275.476 1859.56 1281.86 1859.829 1286.588 C 1860.111 1291.552 1857.13 1299.393 1852.347 1299.946 C 1847.521 1300.504 1843.976 1293.348 1843.889 1288.316 C 1843.809 1283.623 1846.878 1276.537 1851.379 1276.009 L 1851.378 1276.01 Z"/>
      <path id="h" d="M1929.28 1250.88c-3.243 2.846-9.712.313-12.621-2.874-3.054-3.345-5.21-10.486-1.801-13.468 3.44-3.01 10.287.112 13.228 3.61 2.742 3.264 4.398 9.92 1.194 12.732z"/>
      <path d="M 1922.281 1263.672 C 1919.038 1266.518 1912.569 1263.985 1909.66 1260.798 C 1906.606 1257.453 1904.45 1250.312 1907.859 1247.33 C 1911.299 1244.32 1918.146 1247.442 1921.087 1250.94 C 1923.829 1254.204 1925.485 1260.86 1922.281 1263.672 L 1922.281 1263.672 Z"/>
      <path d="M 1909.801 1274.332 C 1906.558 1277.178 1900.089 1274.645 1897.18 1271.458 C 1894.126 1268.113 1891.97 1260.972 1895.379 1257.99 C 1898.819 1254.98 1905.666 1258.102 1908.607 1261.6 C 1911.349 1264.864 1913.005 1271.52 1909.801 1274.332 L 1909.801 1274.332 Z"/>
      <path d="M1905.19 1281.18c-1.138 4.162-7.933 5.613-12.116 4.557-4.392-1.11-10.126-5.88-8.924-10.247 1.213-4.407 8.646-5.575 13.028-4.276 4.086 1.212 9.137 5.855 8.012 9.966z"/>
      <path d="M1887.18 1278.19c3.641 2.539 2.786 10.55.377 14.889-2.53 4.554-9.042 9.485-12.86 6.813-3.853-2.696-2.512-11.334.198-15.819 2.528-4.182 8.689-8.39 12.286-5.883z"/>
      <path d="M1869.62 1287.55c3.965 2.308 3.033 9.59.41 13.533-2.754 4.14-9.844 8.622-14.002 6.194-4.195-2.451-2.735-10.302.216-14.38 2.752-3.8 9.46-7.626 13.377-5.347z"/>
      <path id="i" d="M1831.34 1312.91c-3.392 3.235-.755 11.272 2.773 15.282 3.706 4.209 11.795 8.104 15.349 4.703 3.586-3.433.292-12.024-3.594-16.132-3.624-3.83-11.179-7.048-14.53-3.853z"/>
      <path d="M 1824.021 1326.691 C 1820.629 1329.926 1823.266 1337.963 1826.794 1341.973 C 1830.5 1346.182 1838.589 1350.077 1842.143 1346.676 C 1845.729 1343.243 1842.435 1334.652 1838.549 1330.544 C 1834.925 1326.714 1827.37 1323.496 1824.019 1326.691 L 1824.021 1326.691 Z"/>
      <path id="j" d="M1820.83 1339.55c-4.348 1.749-4.876 10.19-3.083 15.222 1.883 5.282 7.954 11.896 12.516 10.053 4.602-1.861 4.724-11.061 2.635-16.315-1.948-4.9-7.774-10.687-12.069-8.96z"/>
      <path d="M 1810.282 1354.402 C 1805.934 1356.151 1805.406 1364.592 1807.199 1369.624 C 1809.082 1374.906 1815.153 1381.52 1819.715 1379.677 C 1824.317 1377.816 1824.439 1368.616 1822.35 1363.362 C 1820.402 1358.462 1814.576 1352.675 1810.281 1354.402 L 1810.282 1354.402 Z"/>
      <path id="k" d="M1802.66 1371.04c-4.57 1.037-6.43 9.289-5.458 14.54 1.022 5.515 5.967 13.008 10.763 11.91 4.84-1.107 6.419-10.171 5.19-15.69-1.147-5.147-5.981-11.785-10.496-10.76z"/>
      <path d="M 1792.539 1386.972 C 1787.969 1388.009 1786.109 1396.261 1787.081 1401.512 C 1788.103 1407.027 1793.048 1414.52 1797.844 1413.422 C 1802.684 1412.315 1804.263 1403.251 1803.034 1397.732 C 1801.887 1392.585 1797.053 1385.947 1792.538 1386.972 L 1792.539 1386.972 Z"/>
      <path id="l" d="M1784.06 1403.3c-4.684.171-8.042 7.935-8.06 13.276-.02 5.608 3.451 13.888 8.367 13.7 4.961-.19 8.194-8.805 8.01-14.456-.172-5.27-3.692-12.69-8.318-12.52z"/>
      <path d="M 1773.73 1422.46 C 1769.046 1422.631 1765.688 1430.395 1765.67 1435.736 C 1765.65 1441.344 1769.121 1449.624 1774.037 1449.436 C 1778.998 1449.246 1782.231 1440.631 1782.047 1434.98 C 1781.875 1429.71 1778.355 1422.29 1773.729 1422.46 L 1773.73 1422.46 Z"/>
      <path d="M 1761.67 1440.32 C 1756.986 1440.491 1753.628 1448.255 1753.61 1453.596 C 1753.59 1459.204 1757.061 1467.484 1761.977 1467.296 C 1766.938 1467.106 1770.171 1458.491 1769.987 1452.84 C 1769.815 1447.57 1766.295 1440.15 1761.669 1440.32 L 1761.67 1440.32 Z"/>
      <path d="M 1749.19 1455.61 C 1744.506 1455.781 1741.148 1463.545 1741.13 1468.886 C 1741.11 1474.494 1744.581 1482.774 1749.497 1482.586 C 1754.458 1482.396 1757.691 1473.781 1757.507 1468.13 C 1757.335 1462.86 1753.815 1455.44 1749.189 1455.61 L 1749.19 1455.61 Z"/>
      <path d="M 1736.27 1469.81 C 1731.586 1469.981 1728.228 1477.745 1728.21 1483.086 C 1728.19 1488.694 1731.661 1496.974 1736.577 1496.786 C 1741.538 1496.596 1744.771 1487.981 1744.587 1482.33 C 1744.415 1477.06 1740.895 1469.64 1736.269 1469.81 L 1736.27 1469.81 Z"/>
      <path d="M 1722.07 1481.44 C 1717.386 1481.611 1714.028 1489.375 1714.01 1494.716 C 1713.99 1500.324 1717.461 1508.604 1722.377 1508.416 C 1727.338 1508.226 1730.571 1499.611 1730.387 1493.96 C 1730.215 1488.69 1726.695 1481.27 1722.069 1481.44 L 1722.07 1481.44 Z"/>
      <path d="M 1708.5 1493.92 C 1703.816 1494.091 1700.458 1501.855 1700.44 1507.196 C 1700.42 1512.804 1703.891 1521.084 1708.807 1520.896 C 1713.768 1520.706 1717.001 1512.091 1716.817 1506.44 C 1716.645 1501.17 1713.125 1493.75 1708.499 1493.92 L 1708.5 1493.92 Z"/>
      <path d="M1692.79 1500.17l-5.262 20.595s2.935 7.335 6 7.026c5.48-.552 6.964-9.047 8.01-14.455.947-8.424-8.748-13.166-8.748-13.166zm324.42 13.08c1.61 6.124 15.26 11.314 15.26 11.314l-6.651-27.758c-5.717.154-9.495 12.436-8.609 16.444z"/>
      <path d="M2016.01 1490.95c-4.359-1.722-10.549 4.043-12.709 8.928-2.266 5.13-2.409 14.107 2.17 15.906 4.62 1.815 11.038-4.779 13.136-10.03 1.956-4.896 1.708-13.104-2.597-14.805z"/>
      <path id="m" d="M2000.82 1478.67c-4.68-.243-8.711 7.193-9.202 12.512-.514 5.584 2.21 14.139 7.124 14.385 4.958.249 8.94-8.046 9.256-13.691.295-5.265-2.556-12.966-7.179-13.207z"/>
      <path d="M 1987.42 1464.97 C 1982.74 1464.727 1978.709 1472.163 1978.218 1477.482 C 1977.704 1483.066 1980.428 1491.621 1985.342 1491.867 C 1990.3 1492.116 1994.282 1483.821 1994.598 1478.176 C 1994.893 1472.911 1992.042 1465.21 1987.419 1464.969 L 1987.42 1464.97 Z"/>
      <path d="M 1974.94 1449.44 C 1970.26 1449.197 1966.229 1456.633 1965.738 1461.952 C 1965.224 1467.536 1967.948 1476.091 1972.862 1476.337 C 1977.82 1476.586 1981.802 1468.291 1982.118 1462.646 C 1982.413 1457.381 1979.562 1449.68 1974.939 1449.439 L 1974.94 1449.44 Z"/>
      <path d="M 1962.16 1436.35 C 1957.48 1436.107 1953.449 1443.543 1952.958 1448.862 C 1952.444 1454.446 1955.168 1463.001 1960.082 1463.247 C 1965.04 1463.496 1969.022 1455.201 1969.338 1449.556 C 1969.633 1444.291 1966.782 1436.59 1962.159 1436.349 L 1962.16 1436.35 Z"/>
      <path d="M 1951.81 1418.39 C 1947.13 1418.147 1943.099 1425.583 1942.608 1430.902 C 1942.094 1436.486 1944.818 1445.041 1949.732 1445.287 C 1954.69 1445.536 1958.672 1437.241 1958.988 1431.596 C 1959.283 1426.331 1956.432 1418.63 1951.809 1418.389 L 1951.81 1418.39 Z"/>
      <path d="M 1940.54 1402.26 C 1935.86 1402.017 1931.829 1409.453 1931.338 1414.772 C 1930.824 1420.356 1933.548 1428.911 1938.462 1429.157 C 1943.42 1429.406 1947.402 1421.111 1947.718 1415.466 C 1948.013 1410.201 1945.162 1402.5 1940.539 1402.259 L 1940.54 1402.26 Z"/>
      <path d="M 1930.19 1385.21 C 1925.51 1384.967 1921.479 1392.403 1920.988 1397.722 C 1920.474 1403.306 1923.198 1411.861 1928.112 1412.107 C 1933.07 1412.356 1937.052 1404.061 1937.368 1398.416 C 1937.663 1393.151 1934.812 1385.45 1930.189 1385.209 L 1930.19 1385.21 Z"/>
      <path d="M 1921.06 1365.42 C 1916.38 1365.177 1912.349 1372.613 1911.858 1377.932 C 1911.344 1383.516 1914.068 1392.071 1918.982 1392.317 C 1923.94 1392.566 1927.922 1384.271 1928.238 1378.626 C 1928.533 1373.361 1925.682 1365.66 1921.059 1365.419 L 1921.06 1365.42 Z"/>
      <path d="M 1911.01 1347.46 C 1906.33 1347.217 1902.299 1354.653 1901.808 1359.972 C 1901.294 1365.556 1904.018 1374.111 1908.932 1374.357 C 1913.89 1374.606 1917.872 1366.311 1918.188 1360.666 C 1918.483 1355.401 1915.632 1347.7 1911.009 1347.459 L 1911.01 1347.46 Z"/>
      <path d="M 1902.79 1326.15 C 1898.11 1325.907 1894.079 1333.343 1893.588 1338.662 C 1893.074 1344.246 1895.798 1352.801 1900.712 1353.047 C 1905.67 1353.296 1909.652 1345.001 1909.968 1339.356 C 1910.263 1334.091 1907.412 1326.39 1902.789 1326.149 L 1902.79 1326.15 Z"/>
      <path d="M1883.85 1304.56s-1.647 26.676 8.037 28.389c6.039 1.068 10.779-14.91 10.779-14.91z"/>
      <path id="n" d="M1862.02 1610.75c-2.878 3.699.914 11.26 4.995 14.706 4.285 3.617 12.86 6.278 15.874 2.39 3.041-3.924-1.483-11.936-5.931-15.426-4.15-3.254-12.096-5.324-14.939-1.67z"/>
      <path d="M 1880.32 1608.6 C 1877.442 1612.299 1881.234 1619.86 1885.315 1623.306 C 1889.6 1626.923 1898.175 1629.584 1901.189 1625.696 C 1904.23 1621.772 1899.706 1613.76 1895.258 1610.27 C 1891.108 1607.016 1883.162 1604.946 1880.319 1608.6 L 1880.32 1608.6 Z"/>
      <path d="M 1898.83 1604.94 C 1895.952 1608.639 1899.744 1616.2 1903.825 1619.646 C 1908.11 1623.263 1916.685 1625.924 1919.699 1622.036 C 1922.74 1618.112 1918.216 1610.1 1913.768 1606.61 C 1909.618 1603.356 1901.672 1601.286 1898.829 1604.94 L 1898.83 1604.94 Z"/>
      <path id="o" d="M1916.18 1603.8c-2.29 4.09 2.594 10.995 7.147 13.79 4.78 2.932 13.656 4.275 16.052-.021 2.418-4.336-3.258-11.578-8.18-14.36-4.59-2.595-12.758-3.448-15.02.591z"/>
      <path d="M 1936.2 1600.58 C 1933.91 1604.67 1938.794 1611.575 1943.347 1614.37 C 1948.127 1617.302 1957.003 1618.645 1959.399 1614.349 C 1961.817 1610.013 1956.141 1602.771 1951.219 1599.989 C 1946.629 1597.394 1938.461 1596.541 1936.199 1600.58 L 1936.2 1600.58 Z"/>
      <path id="p" d="M1953.48 1595.43c-1.903 4.283 3.598 10.709 8.389 13.071 5.03 2.479 13.993 2.997 15.982-1.503 2.007-4.54-4.313-11.228-9.47-13.544-4.811-2.159-13.023-2.254-14.902 1.976z"/>
      <path d="M 1972.42 1589.84 C 1970.517 1594.123 1976.018 1600.549 1980.809 1602.911 C 1985.839 1605.39 1994.802 1605.908 1996.791 1601.408 C 1998.798 1596.868 1992.478 1590.18 1987.321 1587.864 C 1982.51 1585.705 1974.298 1585.61 1972.419 1589.84 L 1972.42 1589.84 Z"/>
      <path id="q" d="M1991.26 1583.89c-1.646 4.388 4.225 10.477 9.147 12.553 5.167 2.177 14.145 2.164 15.865-2.445 1.735-4.651-4.968-10.953-10.255-12.96-4.93-1.872-13.132-1.482-14.758 2.852z"/>
      <path d="M 2010.42 1577.65 C 2008.774 1582.038 2014.645 1588.127 2019.567 1590.203 C 2024.734 1592.38 2033.712 1592.367 2035.432 1587.758 C 2037.167 1583.107 2030.464 1576.805 2025.177 1574.798 C 2020.247 1572.926 2012.045 1573.316 2010.419 1577.65 L 2010.42 1577.65 Z"/>
      <path d="M 2028.93 1569.9 C 2027.284 1574.288 2033.155 1580.377 2038.077 1582.453 C 2043.244 1584.63 2052.222 1584.617 2053.942 1580.008 C 2055.677 1575.357 2048.974 1569.055 2043.687 1567.048 C 2038.757 1565.176 2030.555 1565.566 2028.929 1569.9 L 2028.93 1569.9 Z"/>
      <path d="M 2048.74 1561.72 C 2047.094 1566.108 2052.965 1572.197 2057.887 1574.273 C 2063.054 1576.45 2072.032 1576.437 2073.752 1571.828 C 2075.487 1567.177 2068.784 1560.875 2063.497 1558.868 C 2058.567 1556.996 2050.365 1557.386 2048.739 1561.72 L 2048.74 1561.72 Z"/>
      <path d="M 2068.76 1555.26 C 2067.114 1559.648 2072.985 1565.737 2077.907 1567.813 C 2083.074 1569.99 2092.052 1569.977 2093.772 1565.368 C 2095.507 1560.717 2088.804 1554.415 2083.517 1552.408 C 2078.587 1550.536 2070.385 1550.926 2068.759 1555.26 L 2068.76 1555.26 Z"/>
      <path d="M 2071.13 1539.55 C 2069.484 1543.938 2075.355 1550.027 2080.277 1552.103 C 2085.444 1554.28 2094.422 1554.267 2096.142 1549.658 C 2097.877 1545.007 2091.174 1538.705 2085.887 1536.698 C 2080.957 1534.826 2072.755 1535.216 2071.129 1539.55 L 2071.13 1539.55 Z"/>
      <path d="M2066.71 1534.88s13.55 1.992 14.79-2.875c1.645-6.462-15.422-12.745-15.422-12.745z"/>
      <path id="r" d="M1701.62 1575.59c-3.986 2.465-3.066 10.873-.44 15.525 2.756 4.883 9.866 10.365 14.046 7.77 4.218-2.619 2.768-11.705-.186-16.526-2.756-4.495-9.483-9.204-13.421-6.77z"/>
      <path d="M 1720.56 1583.34 C 1716.574 1585.805 1717.494 1594.213 1720.12 1598.865 C 1722.876 1603.748 1729.986 1609.23 1734.166 1606.635 C 1738.384 1604.016 1736.934 1594.93 1733.98 1590.109 C 1731.224 1585.614 1724.497 1580.905 1720.559 1583.339 L 1720.56 1583.34 Z"/>
      <path d="M 1738.65 1586.14 C 1734.664 1588.605 1735.584 1597.013 1738.21 1601.665 C 1740.966 1606.548 1748.076 1612.03 1752.256 1609.435 C 1756.474 1606.816 1755.024 1597.73 1752.07 1592.909 C 1749.314 1588.414 1742.587 1583.705 1738.649 1586.139 L 1738.65 1586.14 Z"/>
      <path d="M 1758.45 1591.09 C 1754.464 1593.555 1755.384 1601.963 1758.01 1606.615 C 1760.766 1611.498 1767.876 1616.98 1772.056 1614.385 C 1776.274 1611.766 1774.824 1602.68 1771.87 1597.859 C 1769.114 1593.364 1762.387 1588.655 1758.449 1591.089 L 1758.45 1591.09 Z"/>
      <path d="M 1776.32 1593.67 C 1772.334 1596.135 1773.254 1604.543 1775.88 1609.195 C 1778.636 1614.078 1785.746 1619.56 1789.926 1616.965 C 1794.144 1614.346 1792.694 1605.26 1789.74 1600.439 C 1786.984 1595.944 1780.257 1591.235 1776.319 1593.669 L 1776.32 1593.67 Z"/>
      <path d="M 1793.97 1597.33 C 1789.984 1599.795 1790.904 1608.203 1793.53 1612.855 C 1796.286 1617.738 1803.396 1623.22 1807.576 1620.625 C 1811.794 1618.006 1810.344 1608.92 1807.39 1604.099 C 1804.634 1599.604 1797.907 1594.895 1793.969 1597.329 L 1793.97 1597.33 Z"/>
      <path d="M 1812.05 1602.28 C 1808.064 1604.745 1808.984 1613.153 1811.61 1617.805 C 1814.366 1622.688 1821.476 1628.17 1825.656 1625.575 C 1829.874 1622.956 1828.424 1613.87 1825.47 1609.049 C 1822.714 1604.554 1815.987 1599.845 1812.049 1602.279 L 1812.05 1602.28 Z"/>
      <path d="M 1829.92 1605.51 C 1825.934 1607.975 1826.854 1616.383 1829.48 1621.035 C 1832.236 1625.918 1839.346 1631.4 1843.526 1628.805 C 1847.744 1626.186 1846.294 1617.1 1843.34 1612.279 C 1840.584 1607.784 1833.857 1603.075 1829.919 1605.509 L 1829.92 1605.51 Z"/>
      <path d="M 1848.22 1608.31 C 1844.234 1610.775 1845.154 1619.183 1847.78 1623.835 C 1850.536 1628.718 1857.646 1634.2 1861.826 1631.605 C 1866.044 1628.986 1864.594 1619.9 1861.64 1615.079 C 1858.884 1610.584 1852.157 1605.875 1848.219 1608.309 L 1848.22 1608.31 Z"/>
      <path d="M1648.16 1517.51c-4.167-2.145-10.898 2.977-13.531 7.625-2.764 4.879-3.796 13.797.582 16.041 4.418 2.265 11.457-3.66 14.065-8.677 2.433-4.678 3-12.87-1.116-14.99z"/>
      <path d="M1642.01 1534.4c-4.415-1.572-10.405 4.4-12.396 9.357-2.09 5.204-1.926 14.18 2.711 15.822 4.68 1.657 10.868-5.153 12.786-10.472 1.788-4.96 1.26-13.155-3.102-14.708z" style=""/>
      <path d="M1647.74 1549.94c-4.54-1.165-9.963 5.326-11.496 10.443-1.61 5.372-.632 14.297 4.135 15.51 4.811 1.226 10.356-6.117 11.783-11.588 1.33-5.102.061-13.215-4.423-14.366z"/>
      <path d="M1662.37 1556.31c-4.499-1.313-10.132 4.998-11.832 10.062-1.784 5.316-1.099 14.268 3.626 15.637 4.769 1.382 10.55-5.775 12.156-11.197 1.497-5.056.493-13.206-3.95-14.503z"/>
      <path id="s" d="M1671.91 1558.81c-4.547 1.134-6.232 9.423-5.148 14.653 1.138 5.491 6.242 12.878 11.013 11.68 4.815-1.21 6.202-10.306 4.856-15.798-1.256-5.121-6.23-11.655-10.722-10.535z"/>
      <path d="M 1688.7 1565.05 C 1684.153 1566.184 1682.468 1574.473 1683.552 1579.703 C 1684.69 1585.194 1689.794 1592.581 1694.565 1591.383 C 1699.38 1590.173 1700.767 1581.077 1699.421 1575.585 C 1698.165 1570.464 1693.191 1563.93 1688.699 1565.05 L 1688.7 1565.05 Z"/>
      <path d="M 1839.951 1301.721 C 1836.559 1304.956 1839.196 1312.993 1842.724 1317.003 C 1846.43 1321.212 1854.519 1325.107 1858.073 1321.706 C 1861.659 1318.273 1858.365 1309.682 1854.479 1305.574 C 1850.855 1301.744 1843.3 1298.526 1839.949 1301.721 L 1839.951 1301.721 Z"/>
      <path d="M 1836 1319.38 C 1832.608 1322.615 1835.245 1330.652 1838.773 1334.662 C 1842.479 1338.871 1850.568 1342.766 1854.122 1339.365 C 1857.708 1335.932 1854.414 1327.341 1850.528 1323.233 C 1846.904 1319.403 1839.349 1316.185 1835.998 1319.38 L 1836 1319.38 Z"/>
      <path d="M 1836.251 1339.589 C 1832.859 1342.824 1835.496 1350.861 1839.024 1354.871 C 1842.73 1359.08 1850.819 1362.975 1854.373 1359.574 C 1857.959 1356.141 1854.665 1347.55 1850.779 1343.442 C 1847.155 1339.612 1839.6 1336.394 1836.249 1339.589 L 1836.251 1339.589 Z"/>
      <path d="M 1836 1360.78 C 1832.608 1364.015 1835.245 1372.052 1838.773 1376.062 C 1842.479 1380.271 1850.568 1384.166 1854.122 1380.765 C 1857.708 1377.332 1854.414 1368.741 1850.528 1364.633 C 1846.904 1360.803 1839.349 1357.585 1835.998 1360.78 L 1836 1360.78 Z"/>
      <path d="M 1836.91 1381.48 C 1833.518 1384.715 1836.155 1392.752 1839.683 1396.762 C 1843.389 1400.971 1851.478 1404.866 1855.032 1401.465 C 1858.618 1398.032 1855.324 1389.441 1851.438 1385.333 C 1847.814 1381.503 1840.259 1378.285 1836.908 1381.48 L 1836.91 1381.48 Z"/>
      <path d="M 1833.56 1400.66 C 1830.168 1403.895 1832.805 1411.932 1836.333 1415.942 C 1840.039 1420.151 1848.128 1424.046 1851.682 1420.645 C 1855.268 1417.212 1851.974 1408.621 1848.088 1404.513 C 1844.464 1400.683 1836.909 1397.465 1833.558 1400.66 L 1833.56 1400.66 Z"/>
      <path d="M 1836 1421.97 C 1832.608 1425.205 1835.245 1433.242 1838.773 1437.252 C 1842.479 1441.461 1850.568 1445.356 1854.122 1441.955 C 1857.708 1438.522 1854.414 1429.931 1850.528 1425.823 C 1846.904 1421.993 1839.349 1418.775 1835.998 1421.97 L 1836 1421.97 Z"/>
      <path d="M 1833.56 1439.32 C 1830.168 1442.555 1832.805 1450.592 1836.333 1454.602 C 1840.039 1458.811 1848.128 1462.706 1851.682 1459.305 C 1855.268 1455.872 1851.974 1447.281 1848.088 1443.173 C 1844.464 1439.343 1836.909 1436.125 1833.558 1439.32 L 1833.56 1439.32 Z"/>
      <path d="M 1836 1456.37 C 1832.608 1459.605 1835.245 1467.642 1838.773 1471.652 C 1842.479 1475.861 1850.568 1479.756 1854.122 1476.355 C 1857.708 1472.922 1854.414 1464.331 1850.528 1460.223 C 1846.904 1456.393 1839.349 1453.175 1835.998 1456.37 L 1836 1456.37 Z"/>
      <path d="M 1836 1476.77 C 1832.608 1480.005 1835.245 1488.042 1838.773 1492.052 C 1842.479 1496.261 1850.568 1500.156 1854.122 1496.755 C 1857.708 1493.322 1854.414 1484.731 1850.528 1480.623 C 1846.904 1476.793 1839.349 1473.575 1835.998 1476.77 L 1836 1476.77 Z"/>
      <path d="M 1834.78 1496.86 C 1831.388 1500.095 1834.025 1508.132 1837.553 1512.142 C 1841.259 1516.351 1849.348 1520.246 1852.902 1516.845 C 1856.488 1513.412 1853.194 1504.821 1849.308 1500.713 C 1845.684 1496.883 1838.129 1493.665 1834.778 1496.86 L 1834.78 1496.86 Z"/>
      <path d="M 1835.08 1516.04 C 1831.688 1519.275 1834.325 1527.312 1837.853 1531.322 C 1841.559 1535.531 1849.648 1539.426 1853.202 1536.025 C 1856.788 1532.592 1853.494 1524.001 1849.608 1519.893 C 1845.984 1516.063 1838.429 1512.845 1835.078 1516.04 L 1835.08 1516.04 Z"/>
      <path d="M 1835.69 1536.43 C 1832.298 1539.665 1834.935 1547.702 1838.463 1551.712 C 1842.169 1555.921 1850.258 1559.816 1853.812 1556.415 C 1857.398 1552.982 1854.104 1544.391 1850.218 1540.283 C 1846.594 1536.453 1839.039 1533.235 1835.688 1536.43 L 1835.69 1536.43 Z"/>
      <path d="M 1835.69 1556.22 C 1832.298 1559.455 1834.935 1567.492 1838.463 1571.502 C 1842.169 1575.711 1850.258 1579.606 1853.812 1576.205 C 1857.398 1572.772 1854.104 1564.181 1850.218 1560.073 C 1846.594 1556.243 1839.039 1553.025 1835.688 1556.22 L 1835.69 1556.22 Z"/>
      <path d="M 1835.08 1576.01 C 1831.688 1579.245 1834.325 1587.282 1837.853 1591.292 C 1841.559 1595.501 1849.648 1599.396 1853.202 1595.995 C 1856.788 1592.562 1853.494 1583.971 1849.608 1579.863 C 1845.984 1576.033 1838.429 1572.815 1835.078 1576.01 L 1835.08 1576.01 Z"/>
      <path d="M 1833.86 1596.1 C 1830.468 1599.335 1833.105 1607.372 1836.633 1611.382 C 1840.339 1615.591 1848.428 1619.486 1851.982 1616.085 C 1855.568 1612.652 1852.274 1604.061 1848.388 1599.953 C 1844.764 1596.123 1837.209 1592.905 1833.858 1596.1 L 1833.86 1596.1 Z"/>
      <path d="M 1833.86 1618.02 C 1830.468 1621.255 1833.105 1629.292 1836.633 1633.302 C 1840.339 1637.511 1848.428 1641.406 1851.982 1638.005 C 1855.568 1634.572 1852.274 1625.981 1848.388 1621.873 C 1844.764 1618.043 1837.209 1614.825 1833.858 1618.02 L 1833.86 1618.02 Z"/>
      <path d="M 1833.26 1640.85 C 1829.868 1644.085 1832.505 1652.122 1836.033 1656.132 C 1839.739 1660.341 1847.828 1664.236 1851.382 1660.835 C 1854.968 1657.402 1851.674 1648.811 1847.788 1644.703 C 1844.164 1640.873 1836.609 1637.655 1833.258 1640.85 L 1833.26 1640.85 Z"/>
      <path d="M 1833.26 1662.16 C 1829.868 1665.395 1832.505 1673.432 1836.033 1677.442 C 1839.739 1681.651 1847.828 1685.546 1851.382 1682.145 C 1854.968 1678.712 1851.674 1670.121 1847.788 1666.013 C 1844.164 1662.183 1836.609 1658.965 1833.258 1662.16 L 1833.26 1662.16 Z"/>
      <path d="M 1833.26 1681.95 C 1829.868 1685.185 1832.505 1693.222 1836.033 1697.232 C 1839.739 1701.441 1847.828 1705.336 1851.382 1701.935 C 1854.968 1698.502 1851.674 1689.911 1847.788 1685.803 C 1844.164 1681.973 1836.609 1678.755 1833.258 1681.95 L 1833.26 1681.95 Z"/>
      <path d="M 1832.65 1704.18 C 1829.258 1707.415 1831.895 1715.452 1835.423 1719.462 C 1839.129 1723.671 1847.218 1727.566 1850.772 1724.165 C 1854.358 1720.732 1851.064 1712.141 1847.178 1708.033 C 1843.554 1704.203 1835.999 1700.985 1832.648 1704.18 L 1832.65 1704.18 Z"/>
      <path id="t" d="M1882.24 1303.18c2.442 3.707-1.32 10.832-5.164 13.97-4.036 3.293-11.911 5.463-14.468 1.566-2.58-3.931 1.863-11.458 6.042-14.62 3.896-2.95 11.178-4.577 13.59-.916z"/>
      <path d="M 1884.98 1319.31 C 1887.422 1323.017 1883.66 1330.142 1879.816 1333.28 C 1875.78 1336.573 1867.905 1338.743 1865.348 1334.846 C 1862.768 1330.915 1867.211 1323.388 1871.39 1320.226 C 1875.286 1317.276 1882.568 1315.649 1884.98 1319.31 L 1884.98 1319.31 Z"/>
      <path d="M 1884.67 1337.28 C 1887.112 1340.987 1883.35 1348.112 1879.506 1351.25 C 1875.47 1354.543 1867.595 1356.713 1865.038 1352.816 C 1862.458 1348.885 1866.901 1341.358 1871.08 1338.196 C 1874.976 1335.246 1882.258 1333.619 1884.67 1337.28 L 1884.67 1337.28 Z"/>
      <path d="M 1884.37 1355.54 C 1886.812 1359.247 1883.05 1366.372 1879.206 1369.51 C 1875.17 1372.803 1867.295 1374.973 1864.738 1371.076 C 1862.158 1367.145 1866.601 1359.618 1870.78 1356.456 C 1874.676 1353.506 1881.958 1351.879 1884.37 1355.54 L 1884.37 1355.54 Z"/>
      <path d="M 1884.06 1372.29 C 1886.502 1375.997 1882.74 1383.122 1878.896 1386.26 C 1874.86 1389.553 1866.985 1391.723 1864.428 1387.826 C 1861.848 1383.895 1866.291 1376.368 1870.47 1373.206 C 1874.366 1370.256 1881.648 1368.629 1884.06 1372.29 L 1884.06 1372.29 Z"/>
      <path d="M 1884.98 1390.25 C 1887.422 1393.957 1883.66 1401.082 1879.816 1404.22 C 1875.78 1407.513 1867.905 1409.683 1865.348 1405.786 C 1862.768 1401.855 1867.211 1394.328 1871.39 1391.166 C 1875.286 1388.216 1882.568 1386.589 1884.98 1390.25 L 1884.98 1390.25 Z"/>
      <path d="M 1883.76 1407.6 C 1886.202 1411.307 1882.44 1418.432 1878.596 1421.57 C 1874.56 1424.863 1866.685 1427.033 1864.128 1423.136 C 1861.548 1419.205 1865.991 1411.678 1870.17 1408.516 C 1874.066 1405.566 1881.348 1403.939 1883.76 1407.6 L 1883.76 1407.6 Z"/>
      <path d="M1883.25 1426.06c2.696 3.834-1.456 11.203-5.7 14.448-4.454 3.406-13.147 5.65-15.97 1.62-2.848-4.066 2.057-11.85 6.67-15.12 4.3-3.05 12.338-4.735 15.001-.948z"/>
      <path id="u" d="M1882.09 1443.58c3.392 3.235.755 11.272-2.773 15.282-3.706 4.209-11.795 8.104-15.349 4.702-3.586-3.432-.292-12.024 3.594-16.13 3.624-3.83 11.179-7.049 14.529-3.854z"/>
      <path d="M 1882.7 1463.98 C 1886.092 1467.215 1883.455 1475.252 1879.927 1479.262 C 1876.221 1483.471 1868.132 1487.366 1864.578 1483.964 C 1860.992 1480.532 1864.286 1471.94 1868.172 1467.834 C 1871.796 1464.004 1879.351 1460.785 1882.701 1463.98 L 1882.7 1463.98 Z"/>
      <path d="M 1883.01 1484.07 C 1886.402 1487.305 1883.765 1495.342 1880.237 1499.352 C 1876.531 1503.561 1868.442 1507.456 1864.888 1504.054 C 1861.302 1500.622 1864.596 1492.03 1868.482 1487.924 C 1872.106 1484.094 1879.661 1480.875 1883.011 1484.07 L 1883.01 1484.07 Z"/>
      <path d="M 1882.4 1505.69 C 1885.792 1508.925 1883.155 1516.962 1879.627 1520.972 C 1875.921 1525.181 1867.832 1529.076 1864.278 1525.674 C 1860.692 1522.242 1863.986 1513.65 1867.872 1509.544 C 1871.496 1505.714 1879.051 1502.495 1882.401 1505.69 L 1882.4 1505.69 Z"/>
      <path d="M 1883.01 1525.78 C 1886.402 1529.015 1883.765 1537.052 1880.237 1541.062 C 1876.531 1545.271 1868.442 1549.166 1864.888 1545.764 C 1861.302 1542.332 1864.596 1533.74 1868.482 1529.634 C 1872.106 1525.804 1879.661 1522.585 1883.011 1525.78 L 1883.01 1525.78 Z"/>
      <path d="M 1882.4 1546.18 C 1885.792 1549.415 1883.155 1557.452 1879.627 1561.462 C 1875.921 1565.671 1867.832 1569.566 1864.278 1566.164 C 1860.692 1562.732 1863.986 1554.14 1867.872 1550.034 C 1871.496 1546.204 1879.051 1542.985 1882.401 1546.18 L 1882.4 1546.18 Z"/>
      <path d="M 1882.7 1566.57 C 1886.092 1569.805 1883.455 1577.842 1879.927 1581.852 C 1876.221 1586.061 1868.132 1589.956 1864.578 1586.554 C 1860.992 1583.122 1864.286 1574.53 1868.172 1570.424 C 1871.796 1566.594 1879.351 1563.375 1882.701 1566.57 L 1882.7 1566.57 Z"/>
      <path d="M 1882.7 1587.27 C 1886.092 1590.505 1883.455 1598.542 1879.927 1602.552 C 1876.221 1606.761 1868.132 1610.656 1864.578 1607.254 C 1860.992 1603.822 1864.286 1595.23 1868.172 1591.124 C 1871.796 1587.294 1879.351 1584.075 1882.701 1587.27 L 1882.7 1587.27 Z"/>
      <path d="M 1881.79 1607.98 C 1885.182 1611.215 1882.545 1619.252 1879.017 1623.262 C 1875.311 1627.471 1867.222 1631.366 1863.668 1627.964 C 1860.082 1624.532 1863.376 1615.94 1867.262 1611.834 C 1870.886 1608.004 1878.441 1604.785 1881.791 1607.98 L 1881.79 1607.98 Z"/>
      <path d="M 1883.01 1626.85 C 1886.402 1630.085 1883.765 1638.122 1880.237 1642.132 C 1876.531 1646.341 1868.442 1650.236 1864.888 1646.834 C 1861.302 1643.402 1864.596 1634.81 1868.482 1630.704 C 1872.106 1626.874 1879.661 1623.655 1883.011 1626.85 L 1883.01 1626.85 Z"/>
      <path d="M 1883.01 1646.64 C 1886.402 1649.875 1883.765 1657.912 1880.237 1661.922 C 1876.531 1666.131 1868.442 1670.026 1864.888 1666.624 C 1861.302 1663.192 1864.596 1654.6 1868.482 1650.494 C 1872.106 1646.664 1879.661 1643.445 1883.011 1646.64 L 1883.01 1646.64 Z"/>
      <path d="M 1882.4 1667.95 C 1885.792 1671.185 1883.155 1679.222 1879.627 1683.232 C 1875.921 1687.441 1867.832 1691.336 1864.278 1687.934 C 1860.692 1684.502 1863.986 1675.91 1867.872 1671.804 C 1871.496 1667.974 1879.051 1664.755 1882.401 1667.95 L 1882.4 1667.95 Z"/>
      <path d="M 1882.4 1688.95 C 1885.792 1692.185 1883.155 1700.222 1879.627 1704.232 C 1875.921 1708.441 1867.832 1712.336 1864.278 1708.934 C 1860.692 1705.502 1863.986 1696.91 1867.872 1692.804 C 1871.496 1688.974 1879.051 1685.755 1882.401 1688.95 L 1882.4 1688.95 Z"/>
    </g>
    <path fill="#fa0204" d="M1849.64 1848.26c19.902 5.524 31.76 5.236 48.22.43l-17.437-27.984"/>
    <path fill="#ce9d09" d="M1888.31 1776.16l-31.708-8.141s.366-35.184 20.389-32.116c16.62 2.547 11.985 40.341 11.319 40.257z"/>
    <path d="M 1885.802 1722.971 A 12.916 12.916 0 0 1 1872.886 1735.887 A 12.916 12.916 0 0 1 1859.97 1722.971 A 12.916 12.916 0 0 1 1872.886 1710.055 A 12.916 12.916 0 0 1 1885.802 1722.971 Z" fill="#ce9d09"/>
    <path fill="#fa0204" d="M1885.37 1791.86c7.048 17.864 11.37 33.241 4.736 53.386m7.597 3.412c-10.226-8.255-36.582-5.832-47.981-.347-4.453 0-16.446-83.24 25.722-81.183 38.72 1.89 24.949 81.915 22.259 81.53z"/>
    <path fill="#fa0204" d="M1815.2 1866.34c19.292 12.239 37.25 11.14 54.247.43l-40.255-41.976"/>
    <path d="M 1856.312 1738.255 A 12.916 12.916 0 0 1 1843.396 1751.171 A 12.916 12.916 0 0 1 1830.48 1738.255 A 12.916 12.916 0 0 1 1843.396 1725.339 A 12.916 12.916 0 0 1 1856.312 1738.255 Z" fill="#ce9d09"/>
    <path fill="#ce9d09" d="M1859.33 1780.02l-32.72-.646s-4.245-26.612 16.145-27.769c16.924-.96 17.251 28.363 16.575 28.415z"/>
    <path fill="#fa0204" d="M1843.61 1860.74c-6.261-13.91-6.91-31.026-5.166-49.51m-9.472 50.371c-7.682-13.183-9.107-30.015-3.014-51.233m43.404 56.636c-4.926-6.191-40.227-8.83-54.096-.392-5.02 0-18.54-93.848 29-91.529 43.656 2.13 28.129 92.354 25.096 91.92z"/>
  </g>
</svg>