<?xml version="1.0" encoding="UTF-8"?>
<svg xmlns="http://www.w3.org/2000/svg" xmlns:xlink="http://www.w3.org/1999/xlink" width="24px" height="24px" viewBox="0 0 24 16" version="1.1">
<g id="surface1">
<rect x="0" y="0" width="24" height="16" style="fill:rgb(81.176471%,7.843137%,16.862745%);fill-opacity:1;stroke:none;"/>
<path style=" stroke:none;fill-rule:nonzero;fill:rgb(0%,14.117647%,49.019608%);fill-opacity:1;" d="M 0 0 L 24 0 L 24 10.667969 L 0 10.667969 Z M 0 0 "/>
<path style=" stroke:none;fill-rule:nonzero;fill:rgb(100%,80%,0%);fill-opacity:1;" d="M 0 0 L 24 0 L 24 5.332031 L 0 5.332031 Z M 0 0 "/>
<path style=" stroke:none;fill-rule:nonzero;fill:rgb(100%,100%,100%);fill-opacity:1;" d="M 12.949219 5.816406 L 12.636719 6.40625 L 12.988281 6.59375 Z M 12.949219 5.816406 "/>
<path style=" stroke:none;fill-rule:nonzero;fill:rgb(100%,100%,100%);fill-opacity:1;" d="M 12.949219 5.816406 L 13.042969 6.476562 L 12.644531 6.53125 Z M 12.949219 5.816406 "/>
<path style=" stroke:none;fill-rule:nonzero;fill:rgb(100%,100%,100%);fill-opacity:1;" d="M 13.492188 6.378906 L 12.835938 6.265625 L 12.769531 6.660156 Z M 13.492188 6.378906 "/>
<path style=" stroke:none;fill-rule:nonzero;fill:rgb(100%,100%,100%);fill-opacity:1;" d="M 13.492188 6.378906 L 12.894531 6.671875 L 12.71875 6.3125 Z M 13.492188 6.378906 "/>
<path style=" stroke:none;fill-rule:nonzero;fill:rgb(100%,100%,100%);fill-opacity:1;" d="M 12.246094 6.160156 L 12.707031 6.640625 L 12.996094 6.363281 Z M 12.246094 6.160156 "/>
<path style=" stroke:none;fill-rule:nonzero;fill:rgb(100%,100%,100%);fill-opacity:1;" d="M 12.246094 6.160156 L 12.902344 6.277344 L 12.832031 6.667969 Z M 12.246094 6.160156 "/>
<path style=" stroke:none;fill-rule:nonzero;fill:rgb(100%,100%,100%);fill-opacity:1;" d="M 13.125 7.070312 L 13.03125 6.410156 L 12.636719 6.46875 Z M 13.125 7.070312 "/>
<path style=" stroke:none;fill-rule:nonzero;fill:rgb(100%,100%,100%);fill-opacity:1;" d="M 13.125 7.070312 L 12.664062 6.59375 L 12.949219 6.316406 Z M 13.125 7.070312 "/>
<path style=" stroke:none;fill-rule:nonzero;fill:rgb(100%,100%,100%);fill-opacity:1;" d="M 12.355469 6.9375 L 12.953125 6.644531 L 12.777344 6.285156 Z M 12.355469 6.9375 "/>
<path style=" stroke:none;fill-rule:nonzero;fill:rgb(100%,100%,100%);fill-opacity:1;" d="M 12.355469 6.9375 L 12.667969 6.347656 L 13.019531 6.535156 Z M 12.355469 6.9375 "/>
<path style=" stroke:none;fill-rule:nonzero;fill:rgb(100%,100%,100%);fill-opacity:1;" d="M 14.734375 6.464844 L 14.238281 6.910156 L 14.503906 7.210938 Z M 14.734375 6.464844 "/>
<path style=" stroke:none;fill-rule:nonzero;fill:rgb(100%,100%,100%);fill-opacity:1;" d="M 14.734375 6.464844 L 14.59375 7.117188 L 14.203125 7.035156 Z M 14.734375 6.464844 "/>
<path style=" stroke:none;fill-rule:nonzero;fill:rgb(100%,100%,100%);fill-opacity:1;" d="M 15.050781 7.183594 L 14.476562 6.847656 L 14.273438 7.195312 Z M 15.050781 7.183594 "/>
<path style=" stroke:none;fill-rule:nonzero;fill:rgb(100%,100%,100%);fill-opacity:1;" d="M 15.050781 7.183594 L 14.390625 7.25 L 14.347656 6.855469 Z M 15.050781 7.183594 "/>
<path style=" stroke:none;fill-rule:nonzero;fill:rgb(100%,100%,100%);fill-opacity:1;" d="M 13.953125 6.546875 L 14.226562 7.15625 L 14.589844 6.992188 Z M 13.953125 6.546875 "/>
<path style=" stroke:none;fill-rule:nonzero;fill:rgb(100%,100%,100%);fill-opacity:1;" d="M 13.953125 6.546875 L 14.53125 6.882812 L 14.332031 7.226562 Z M 13.953125 6.546875 "/>
<path style=" stroke:none;fill-rule:nonzero;fill:rgb(100%,100%,100%);fill-opacity:1;" d="M 14.46875 7.707031 L 14.609375 7.054688 L 14.21875 6.972656 Z M 14.46875 7.707031 "/>
<path style=" stroke:none;fill-rule:nonzero;fill:rgb(100%,100%,100%);fill-opacity:1;" d="M 14.46875 7.707031 L 14.199219 7.097656 L 14.5625 6.933594 Z M 14.46875 7.707031 "/>
<path style=" stroke:none;fill-rule:nonzero;fill:rgb(100%,100%,100%);fill-opacity:1;" d="M 13.789062 7.3125 L 14.453125 7.246094 L 14.414062 6.847656 Z M 13.789062 7.3125 "/>
<path style=" stroke:none;fill-rule:nonzero;fill:rgb(100%,100%,100%);fill-opacity:1;" d="M 13.789062 7.3125 L 14.285156 6.867188 L 14.554688 7.164062 Z M 13.789062 7.3125 "/>
<path style=" stroke:none;fill-rule:nonzero;fill:rgb(100%,100%,100%);fill-opacity:1;" d="M 16.1875 7.6875 L 15.570312 7.9375 L 15.71875 8.308594 Z M 16.1875 7.6875 "/>
<path style=" stroke:none;fill-rule:nonzero;fill:rgb(100%,100%,100%);fill-opacity:1;" d="M 16.1875 7.6875 L 15.835938 8.25 L 15.496094 8.039062 Z M 16.1875 7.6875 "/>
<path style=" stroke:none;fill-rule:nonzero;fill:rgb(100%,100%,100%);fill-opacity:1;" d="M 16.242188 8.46875 L 15.8125 7.957031 L 15.507812 8.214844 Z M 16.242188 8.46875 "/>
<path style=" stroke:none;fill-rule:nonzero;fill:rgb(100%,100%,100%);fill-opacity:1;" d="M 16.242188 8.46875 L 15.59375 8.304688 L 15.691406 7.917969 Z M 16.242188 8.46875 "/>
<path style=" stroke:none;fill-rule:nonzero;fill:rgb(100%,100%,100%);fill-opacity:1;" d="M 15.425781 7.496094 L 15.472656 8.160156 L 15.871094 8.132812 Z M 15.425781 7.496094 "/>
<path style=" stroke:none;fill-rule:nonzero;fill:rgb(100%,100%,100%);fill-opacity:1;" d="M 15.425781 7.496094 L 15.855469 8.007812 L 15.550781 8.265625 Z M 15.425781 7.496094 "/>
<path style=" stroke:none;fill-rule:nonzero;fill:rgb(100%,100%,100%);fill-opacity:1;" d="M 15.515625 8.761719 L 15.867188 8.195312 L 15.53125 7.984375 Z M 15.515625 8.761719 "/>
<path style=" stroke:none;fill-rule:nonzero;fill:rgb(100%,100%,100%);fill-opacity:1;" d="M 15.515625 8.761719 L 15.46875 8.097656 L 15.867188 8.070312 Z M 15.515625 8.761719 "/>
<path style=" stroke:none;fill-rule:nonzero;fill:rgb(100%,100%,100%);fill-opacity:1;" d="M 15.011719 8.160156 L 15.660156 8.324219 L 15.753906 7.933594 Z M 15.011719 8.160156 "/>
<path style=" stroke:none;fill-rule:nonzero;fill:rgb(100%,100%,100%);fill-opacity:1;" d="M 15.011719 8.160156 L 15.628906 7.910156 L 15.78125 8.28125 Z M 15.011719 8.160156 "/>
<path style=" stroke:none;fill-rule:nonzero;fill:rgb(100%,100%,100%);fill-opacity:1;" d="M 17.136719 9.332031 L 16.472656 9.355469 L 16.484375 9.753906 Z M 17.136719 9.332031 "/>
<path style=" stroke:none;fill-rule:nonzero;fill:rgb(100%,100%,100%);fill-opacity:1;" d="M 17.136719 9.332031 L 16.613281 9.742188 L 16.367188 9.425781 Z M 17.136719 9.332031 "/>
<path style=" stroke:none;fill-rule:nonzero;fill:rgb(100%,100%,100%);fill-opacity:1;" d="M 16.921875 10.082031 L 16.691406 9.457031 L 16.316406 9.59375 Z M 16.921875 10.082031 "/>
<path style=" stroke:none;fill-rule:nonzero;fill:rgb(100%,100%,100%);fill-opacity:1;" d="M 16.921875 10.082031 L 16.367188 9.710938 L 16.59375 9.378906 Z M 16.921875 10.082031 "/>
<path style=" stroke:none;fill-rule:nonzero;fill:rgb(100%,100%,100%);fill-opacity:1;" d="M 16.488281 8.890625 L 16.304688 9.53125 L 16.6875 9.644531 Z M 16.488281 8.890625 "/>
<path style=" stroke:none;fill-rule:nonzero;fill:rgb(100%,100%,100%);fill-opacity:1;" d="M 16.488281 8.890625 L 16.714844 9.519531 L 16.339844 9.65625 Z M 16.488281 8.890625 "/>
<path style=" stroke:none;fill-rule:nonzero;fill:rgb(100%,100%,100%);fill-opacity:1;" d="M 16.136719 10.109375 L 16.664062 9.699219 L 16.417969 9.386719 Z M 16.136719 10.109375 "/>
<path style=" stroke:none;fill-rule:nonzero;fill:rgb(100%,100%,100%);fill-opacity:1;" d="M 16.136719 10.109375 L 16.320312 9.46875 L 16.707031 9.582031 Z M 16.136719 10.109375 "/>
<path style=" stroke:none;fill-rule:nonzero;fill:rgb(100%,100%,100%);fill-opacity:1;" d="M 15.871094 9.375 L 16.421875 9.746094 L 16.644531 9.414062 Z M 15.871094 9.375 "/>
<path style=" stroke:none;fill-rule:nonzero;fill:rgb(100%,100%,100%);fill-opacity:1;" d="M 15.871094 9.375 L 16.535156 9.351562 L 16.550781 9.75 Z M 15.871094 9.375 "/>
<path style=" stroke:none;fill-rule:nonzero;fill:rgb(100%,100%,100%);fill-opacity:1;" d="M 6.863281 9.332031 L 7.386719 9.742188 L 7.632812 9.425781 Z M 6.863281 9.332031 "/>
<path style=" stroke:none;fill-rule:nonzero;fill:rgb(100%,100%,100%);fill-opacity:1;" d="M 6.863281 9.332031 L 7.527344 9.355469 L 7.515625 9.753906 Z M 6.863281 9.332031 "/>
<path style=" stroke:none;fill-rule:nonzero;fill:rgb(100%,100%,100%);fill-opacity:1;" d="M 7.511719 8.890625 L 7.285156 9.519531 L 7.660156 9.65625 Z M 7.511719 8.890625 "/>
<path style=" stroke:none;fill-rule:nonzero;fill:rgb(100%,100%,100%);fill-opacity:1;" d="M 7.511719 8.890625 L 7.695312 9.53125 L 7.3125 9.644531 Z M 7.511719 8.890625 "/>
<path style=" stroke:none;fill-rule:nonzero;fill:rgb(100%,100%,100%);fill-opacity:1;" d="M 7.078125 10.082031 L 7.632812 9.710938 L 7.40625 9.378906 Z M 7.078125 10.082031 "/>
<path style=" stroke:none;fill-rule:nonzero;fill:rgb(100%,100%,100%);fill-opacity:1;" d="M 7.078125 10.082031 L 7.308594 9.457031 L 7.683594 9.59375 Z M 7.078125 10.082031 "/>
<path style=" stroke:none;fill-rule:nonzero;fill:rgb(100%,100%,100%);fill-opacity:1;" d="M 8.128906 9.375 L 7.464844 9.351562 L 7.449219 9.75 Z M 8.128906 9.375 "/>
<path style=" stroke:none;fill-rule:nonzero;fill:rgb(100%,100%,100%);fill-opacity:1;" d="M 8.128906 9.375 L 7.578125 9.746094 L 7.355469 9.414062 Z M 8.128906 9.375 "/>
<path style=" stroke:none;fill-rule:nonzero;fill:rgb(100%,100%,100%);fill-opacity:1;" d="M 7.863281 10.109375 L 7.679688 9.46875 L 7.292969 9.582031 Z M 7.863281 10.109375 "/>
<path style=" stroke:none;fill-rule:nonzero;fill:rgb(100%,100%,100%);fill-opacity:1;" d="M 7.863281 10.109375 L 7.335938 9.699219 L 7.582031 9.386719 Z M 7.863281 10.109375 "/>
<path style=" stroke:none;fill-rule:nonzero;fill:rgb(100%,100%,100%);fill-opacity:1;" d="M 7.8125 7.6875 L 8.164062 8.25 L 8.503906 8.039062 Z M 7.8125 7.6875 "/>
<path style=" stroke:none;fill-rule:nonzero;fill:rgb(100%,100%,100%);fill-opacity:1;" d="M 7.8125 7.6875 L 8.429688 7.9375 L 8.28125 8.308594 Z M 7.8125 7.6875 "/>
<path style=" stroke:none;fill-rule:nonzero;fill:rgb(100%,100%,100%);fill-opacity:1;" d="M 8.574219 7.496094 L 8.144531 8.007812 L 8.449219 8.265625 Z M 8.574219 7.496094 "/>
<path style=" stroke:none;fill-rule:nonzero;fill:rgb(100%,100%,100%);fill-opacity:1;" d="M 8.574219 7.496094 L 8.527344 8.160156 L 8.128906 8.132812 Z M 8.574219 7.496094 "/>
<path style=" stroke:none;fill-rule:nonzero;fill:rgb(100%,100%,100%);fill-opacity:1;" d="M 7.757812 8.46875 L 8.40625 8.304688 L 8.308594 7.917969 Z M 7.757812 8.46875 "/>
<path style=" stroke:none;fill-rule:nonzero;fill:rgb(100%,100%,100%);fill-opacity:1;" d="M 7.757812 8.46875 L 8.1875 7.957031 L 8.492188 8.214844 Z M 7.757812 8.46875 "/>
<path style=" stroke:none;fill-rule:nonzero;fill:rgb(100%,100%,100%);fill-opacity:1;" d="M 8.988281 8.160156 L 8.371094 7.910156 L 8.21875 8.28125 Z M 8.988281 8.160156 "/>
<path style=" stroke:none;fill-rule:nonzero;fill:rgb(100%,100%,100%);fill-opacity:1;" d="M 8.988281 8.160156 L 8.339844 8.324219 L 8.246094 7.933594 Z M 8.988281 8.160156 "/>
<path style=" stroke:none;fill-rule:nonzero;fill:rgb(100%,100%,100%);fill-opacity:1;" d="M 8.484375 8.761719 L 8.53125 8.097656 L 8.132812 8.070312 Z M 8.484375 8.761719 "/>
<path style=" stroke:none;fill-rule:nonzero;fill:rgb(100%,100%,100%);fill-opacity:1;" d="M 8.484375 8.761719 L 8.132812 8.195312 L 8.46875 7.984375 Z M 8.484375 8.761719 "/>
<path style=" stroke:none;fill-rule:nonzero;fill:rgb(100%,100%,100%);fill-opacity:1;" d="M 9.265625 6.464844 L 9.40625 7.117188 L 9.796875 7.035156 Z M 9.265625 6.464844 "/>
<path style=" stroke:none;fill-rule:nonzero;fill:rgb(100%,100%,100%);fill-opacity:1;" d="M 9.265625 6.464844 L 9.761719 6.910156 L 9.496094 7.210938 Z M 9.265625 6.464844 "/>
<path style=" stroke:none;fill-rule:nonzero;fill:rgb(100%,100%,100%);fill-opacity:1;" d="M 10.046875 6.546875 L 9.46875 6.882812 L 9.667969 7.226562 Z M 10.046875 6.546875 "/>
<path style=" stroke:none;fill-rule:nonzero;fill:rgb(100%,100%,100%);fill-opacity:1;" d="M 10.046875 6.546875 L 9.773438 7.15625 L 9.410156 6.992188 Z M 10.046875 6.546875 "/>
<path style=" stroke:none;fill-rule:nonzero;fill:rgb(100%,100%,100%);fill-opacity:1;" d="M 8.949219 7.183594 L 9.609375 7.25 L 9.652344 6.855469 Z M 8.949219 7.183594 "/>
<path style=" stroke:none;fill-rule:nonzero;fill:rgb(100%,100%,100%);fill-opacity:1;" d="M 8.949219 7.183594 L 9.523438 6.847656 L 9.726562 7.195312 Z M 8.949219 7.183594 "/>
<path style=" stroke:none;fill-rule:nonzero;fill:rgb(100%,100%,100%);fill-opacity:1;" d="M 10.210938 7.3125 L 9.714844 6.867188 L 9.445312 7.164062 Z M 10.210938 7.3125 "/>
<path style=" stroke:none;fill-rule:nonzero;fill:rgb(100%,100%,100%);fill-opacity:1;" d="M 10.210938 7.3125 L 9.546875 7.246094 L 9.585938 6.847656 Z M 10.210938 7.3125 "/>
<path style=" stroke:none;fill-rule:nonzero;fill:rgb(100%,100%,100%);fill-opacity:1;" d="M 9.53125 7.707031 L 9.800781 7.097656 L 9.4375 6.933594 Z M 9.53125 7.707031 "/>
<path style=" stroke:none;fill-rule:nonzero;fill:rgb(100%,100%,100%);fill-opacity:1;" d="M 9.53125 7.707031 L 9.390625 7.054688 L 9.78125 6.972656 Z M 9.53125 7.707031 "/>
<path style=" stroke:none;fill-rule:nonzero;fill:rgb(100%,100%,100%);fill-opacity:1;" d="M 11.050781 5.816406 L 10.957031 6.476562 L 11.355469 6.53125 Z M 11.050781 5.816406 "/>
<path style=" stroke:none;fill-rule:nonzero;fill:rgb(100%,100%,100%);fill-opacity:1;" d="M 11.050781 5.816406 L 11.363281 6.40625 L 11.011719 6.59375 Z M 11.050781 5.816406 "/>
<path style=" stroke:none;fill-rule:nonzero;fill:rgb(100%,100%,100%);fill-opacity:1;" d="M 11.753906 6.160156 L 11.097656 6.277344 L 11.167969 6.667969 Z M 11.753906 6.160156 "/>
<path style=" stroke:none;fill-rule:nonzero;fill:rgb(100%,100%,100%);fill-opacity:1;" d="M 11.753906 6.160156 L 11.292969 6.640625 L 11.003906 6.363281 Z M 11.753906 6.160156 "/>
<path style=" stroke:none;fill-rule:nonzero;fill:rgb(100%,100%,100%);fill-opacity:1;" d="M 10.507812 6.378906 L 11.105469 6.671875 L 11.28125 6.3125 Z M 10.507812 6.378906 "/>
<path style=" stroke:none;fill-rule:nonzero;fill:rgb(100%,100%,100%);fill-opacity:1;" d="M 10.507812 6.378906 L 11.164062 6.265625 L 11.230469 6.660156 Z M 10.507812 6.378906 "/>
<path style=" stroke:none;fill-rule:nonzero;fill:rgb(100%,100%,100%);fill-opacity:1;" d="M 11.644531 6.9375 L 11.332031 6.347656 L 10.980469 6.535156 Z M 11.644531 6.9375 "/>
<path style=" stroke:none;fill-rule:nonzero;fill:rgb(100%,100%,100%);fill-opacity:1;" d="M 11.644531 6.9375 L 11.046875 6.644531 L 11.222656 6.285156 Z M 11.644531 6.9375 "/>
<path style=" stroke:none;fill-rule:nonzero;fill:rgb(100%,100%,100%);fill-opacity:1;" d="M 10.875 7.070312 L 11.335938 6.59375 L 11.050781 6.316406 Z M 10.875 7.070312 "/>
<path style=" stroke:none;fill-rule:nonzero;fill:rgb(100%,100%,100%);fill-opacity:1;" d="M 10.875 7.070312 L 10.96875 6.410156 L 11.363281 6.46875 Z M 10.875 7.070312 "/>
</g>
</svg>
