<?xml version="1.0" encoding="UTF-8"?>
<svg xmlns="http://www.w3.org/2000/svg" xmlns:xlink="http://www.w3.org/1999/xlink" width="24px" height="24px" viewBox="0 0 24 12" version="1.1">
<defs>
<clipPath id="clip1">
  <path d="M 0 0 L 12 0 L 12 6 L 0 6 Z M 0 0 "/>
</clipPath>
<clipPath id="clip2">
  <path d="M 0 0 L 0 3 L 14 3 L 14 6 L 12 6 Z M 12 0 L 6 0 L 6 7 L 0 7 L 0 6 Z M 12 0 "/>
</clipPath>
<clipPath id="clip3">
  <path d="M 0 0 L 14 0 L 14 7 L 0 7 Z M 0 0 "/>
</clipPath>
<clipPath id="clip4">
  <path d="M 0 0 L 0 3 L 14 3 L 14 6 L 12 6 Z M 12 0 L 6 0 L 6 7 L 0 7 L 0 6 Z M 12 0 "/>
</clipPath>
<linearGradient id="linear0" gradientUnits="userSpaceOnUse" x1="103.083" y1="111.276" x2="92.551" y2="107.764" gradientTransform="matrix(0.99614,0,0,2.25255,703.842,-75.047)">
<stop offset="0" style="stop-color:rgb(100%,0%,0%);stop-opacity:1;"/>
<stop offset="1" style="stop-color:rgb(100%,100%,0%);stop-opacity:1;"/>
</linearGradient>
<linearGradient id="linear1" gradientUnits="userSpaceOnUse" x1="103.083" y1="111.276" x2="92.551" y2="107.764" gradientTransform="matrix(0.99614,0,0,2.25255,703.842,-75.047)">
<stop offset="0" style="stop-color:rgb(100%,0%,0%);stop-opacity:1;"/>
<stop offset="1" style="stop-color:rgb(100%,100%,0%);stop-opacity:1;"/>
</linearGradient>
<linearGradient id="linear2" gradientUnits="userSpaceOnUse" x1="103.083" y1="111.276" x2="92.551" y2="107.764" gradientTransform="matrix(0.99614,0,0,2.25255,703.842,-75.047)">
<stop offset="0" style="stop-color:rgb(100%,0%,0%);stop-opacity:1;"/>
<stop offset="1" style="stop-color:rgb(100%,100%,0%);stop-opacity:1;"/>
</linearGradient>
<linearGradient id="linear3" gradientUnits="userSpaceOnUse" x1="103.083" y1="111.276" x2="92.551" y2="107.764" gradientTransform="matrix(0.99614,0,0,2.25255,703.842,-75.047)">
<stop offset="0" style="stop-color:rgb(100%,0%,0%);stop-opacity:1;"/>
<stop offset="1" style="stop-color:rgb(100%,100%,0%);stop-opacity:1;"/>
</linearGradient>
<linearGradient id="linear4" gradientUnits="userSpaceOnUse" x1="103.083" y1="111.276" x2="92.551" y2="107.764" gradientTransform="matrix(0.99614,0,0,2.25255,703.842,-75.047)">
<stop offset="0" style="stop-color:rgb(100%,0%,0%);stop-opacity:1;"/>
<stop offset="1" style="stop-color:rgb(100%,100%,0%);stop-opacity:1;"/>
</linearGradient>
<linearGradient id="linear5" gradientUnits="userSpaceOnUse" x1="103.083" y1="111.276" x2="92.551" y2="107.764" gradientTransform="matrix(0.99614,0,0,2.25255,703.842,-75.047)">
<stop offset="0" style="stop-color:rgb(100%,0%,0%);stop-opacity:1;"/>
<stop offset="1" style="stop-color:rgb(100%,100%,0%);stop-opacity:1;"/>
</linearGradient>
<linearGradient id="linear6" gradientUnits="userSpaceOnUse" x1="103.083" y1="111.276" x2="92.551" y2="107.764" gradientTransform="matrix(0.99614,0,0,2.25255,703.842,-75.047)">
<stop offset="0" style="stop-color:rgb(100%,0%,0%);stop-opacity:1;"/>
<stop offset="1" style="stop-color:rgb(100%,100%,0%);stop-opacity:1;"/>
</linearGradient>
<linearGradient id="linear7" gradientUnits="userSpaceOnUse" x1="103.083" y1="111.276" x2="92.551" y2="107.764" gradientTransform="matrix(0.99614,0,0,2.25255,703.842,-75.047)">
<stop offset="0" style="stop-color:rgb(100%,0%,0%);stop-opacity:1;"/>
<stop offset="1" style="stop-color:rgb(100%,100%,0%);stop-opacity:1;"/>
</linearGradient>
<linearGradient id="linear8" gradientUnits="userSpaceOnUse" x1="103.083" y1="111.276" x2="92.551" y2="107.764" gradientTransform="matrix(0.99614,0,0,2.25255,703.842,-75.047)">
<stop offset="0" style="stop-color:rgb(100%,0%,0%);stop-opacity:1;"/>
<stop offset="1" style="stop-color:rgb(100%,100%,0%);stop-opacity:1;"/>
</linearGradient>
<linearGradient id="linear9" gradientUnits="userSpaceOnUse" x1="103.083" y1="111.276" x2="92.551" y2="107.764" gradientTransform="matrix(0.99614,0,0,2.25255,703.842,-75.047)">
<stop offset="0" style="stop-color:rgb(100%,0%,0%);stop-opacity:1;"/>
<stop offset="1" style="stop-color:rgb(100%,100%,0%);stop-opacity:1;"/>
</linearGradient>
<linearGradient id="linear10" gradientUnits="userSpaceOnUse" x1="103.083" y1="111.276" x2="92.551" y2="107.764" gradientTransform="matrix(0.99614,0,0,2.25255,703.842,-75.047)">
<stop offset="0" style="stop-color:rgb(100%,0%,0%);stop-opacity:1;"/>
<stop offset="1" style="stop-color:rgb(100%,100%,0%);stop-opacity:1;"/>
</linearGradient>
<linearGradient id="linear11" gradientUnits="userSpaceOnUse" x1="103.083" y1="111.276" x2="92.551" y2="107.764" gradientTransform="matrix(0.99614,0,0,2.25255,703.842,-75.047)">
<stop offset="0" style="stop-color:rgb(100%,0%,0%);stop-opacity:1;"/>
<stop offset="1" style="stop-color:rgb(100%,100%,0%);stop-opacity:1;"/>
</linearGradient>
</defs>
<g id="surface1">
<rect x="0" y="0" width="24" height="12" style="fill:rgb(0.392157%,12.941176%,41.176471%);fill-opacity:1;stroke:none;"/>
<path style="fill-rule:nonzero;fill:rgb(0%,0%,0%);fill-opacity:1;stroke-width:60;stroke-linecap:butt;stroke-linejoin:miter;stroke:rgb(100%,100%,100%);stroke-opacity:1;stroke-miterlimit:4;" d="M 0 0 L 600 300 M 600 0 L 0 300 " transform="matrix(0.02,0,0,0.02,0,0)"/>
<g clip-path="url(#clip1)" clip-rule="nonzero">
<g clip-path="url(#clip2)" clip-rule="nonzero">
<path style=" stroke:none;fill-rule:nonzero;fill:rgb(0%,0%,0%);fill-opacity:1;" d="M 0 0 L 12 6 M 12 0 L 0 6 "/>
</g>
</g>
<g clip-path="url(#clip3)" clip-rule="nonzero">
<g clip-path="url(#clip4)" clip-rule="nonzero">
<path style="fill:none;stroke-width:40;stroke-linecap:butt;stroke-linejoin:miter;stroke:rgb(78.431373%,6.27451%,18.039216%);stroke-opacity:1;stroke-miterlimit:4;" d="M 0 0 L 600 300 M 600 0 L 0 300 " transform="matrix(0.02,0,0,0.02,0,0)"/>
</g>
</g>
<path style="fill-rule:nonzero;fill:rgb(0%,0%,0%);fill-opacity:1;stroke-width:100;stroke-linecap:butt;stroke-linejoin:miter;stroke:rgb(100%,100%,100%);stroke-opacity:1;stroke-miterlimit:4;" d="M 300 0 L 300 350 M 0 150 L 700 150 " transform="matrix(0.02,0,0,0.02,0,0)"/>
<path style="fill-rule:nonzero;fill:rgb(0%,0%,0%);fill-opacity:1;stroke-width:60;stroke-linecap:butt;stroke-linejoin:miter;stroke:rgb(78.431373%,6.27451%,18.039216%);stroke-opacity:1;stroke-miterlimit:4;" d="M 300 0 L 300 350 M 0 150 L 700 150 " transform="matrix(0.02,0,0,0.02,0,0)"/>
<path style=" stroke:none;fill-rule:nonzero;fill:rgb(0.392157%,12.941176%,41.176471%);fill-opacity:1;" d="M 0 6 L 12 6 L 12 0 L 24 0 L 24 12 L 0 12 Z M 0 6 "/>
<path style=" stroke:none;fill-rule:nonzero;fill:rgb(100%,100%,100%);fill-opacity:1;" d="M 15.523438 2.882812 L 20.535156 2.863281 L 20.523438 7.324219 C 20.523438 7.324219 20.699219 8 18.425781 9.03125 C 19.242188 8.949219 20.132812 8.074219 20.132812 8.074219 C 20.132812 8.074219 20.496094 7.609375 20.671875 7.871094 C 20.847656 8.132812 21.015625 8.261719 21.144531 8.363281 C 21.277344 8.464844 21.378906 8.746094 21.183594 8.949219 C 20.988281 9.152344 20.683594 9.179688 20.597656 8.929688 C 20.46875 8.996094 19.667969 9.960938 18.035156 10.007812 C 16.371094 9.980469 15.460938 8.921875 15.460938 8.921875 C 15.460938 8.921875 15.238281 9.273438 14.921875 8.996094 C 14.613281 8.632812 14.847656 8.402344 14.847656 8.402344 C 14.847656 8.402344 15.105469 8.25 15.179688 8.148438 C 15.300781 8.011719 15.339844 7.824219 15.542969 7.824219 C 15.785156 7.84375 15.878906 8.039062 15.878906 8.039062 C 15.878906 8.039062 16.714844 8.921875 17.617188 9.03125 C 15.582031 8.054688 15.507812 7.453125 15.515625 7.304688 Z M 15.523438 2.882812 "/>
<path style="fill-rule:nonzero;fill:rgb(0%,38.039216%,16.078431%);fill-opacity:1;stroke-width:1.887;stroke-linecap:butt;stroke-linejoin:miter;stroke:rgb(0%,0%,0%);stroke-opacity:1;stroke-miterlimit:4;" d="M 782.226562 150.195312 L 1021.09375 148.632812 L 1021.09375 363.28125 C 1021.484375 391.210938 974.609375 419.53125 901.171875 455.859375 C 825.585938 416.796875 781.835938 393.164062 781.445312 362.890625 Z M 782.226562 150.195312 " transform="matrix(0.02,0,0,0.02,0,0)"/>
<path style="fill:none;stroke-width:1.887;stroke-linecap:butt;stroke-linejoin:miter;stroke:rgb(100%,78.039216%,17.254902%);stroke-opacity:1;stroke-miterlimit:4;" d="M 814.84375 181.835938 L 828.90625 161.132812 L 842.96875 181.835938 " transform="matrix(0.02,0,0,0.02,0,0)"/>
<path style="fill-rule:nonzero;fill:rgb(100%,78.039216%,17.254902%);fill-opacity:1;stroke-width:0.944;stroke-linecap:butt;stroke-linejoin:miter;stroke:rgb(0%,0%,0%);stroke-opacity:1;stroke-miterlimit:4;" d="M 831.640625 174.023438 C 832.421875 173.046875 833.59375 172.460938 834.960938 172.851562 C 836.132812 173.046875 836.914062 174.21875 836.914062 175.390625 C 836.914062 176.757812 836.132812 177.929688 834.960938 178.125 C 833.59375 178.515625 832.421875 177.929688 831.640625 176.953125 Z M 831.640625 174.023438 " transform="matrix(0.02,0,0,0.02,0,0)"/>
<path style="fill-rule:nonzero;fill:rgb(100%,78.039216%,17.254902%);fill-opacity:1;stroke-width:0.944;stroke-linecap:butt;stroke-linejoin:miter;stroke:rgb(0%,0%,0%);stroke-opacity:1;stroke-miterlimit:4;" d="M 817.382812 197.070312 L 839.257812 197.265625 C 839.257812 197.265625 839.648438 194.335938 837.109375 192.578125 C 848.4375 191.015625 845.507812 180.859375 855.078125 180.46875 C 856.835938 180.664062 850 184.765625 850 184.765625 C 850 184.765625 844.335938 188.671875 846.875 190.820312 C 849.023438 192.382812 850 189.84375 850.195312 187.890625 C 850.585938 185.742188 859.570312 184.570312 858.203125 178.710938 C 856.054688 174.023438 843.554688 182.03125 843.554688 182.03125 L 834.570312 181.835938 C 833.984375 180.859375 831.445312 176.757812 828.90625 176.757812 C 825.78125 176.953125 823.828125 182.03125 823.828125 182.03125 L 803.515625 182.03125 C 803.515625 182.03125 802.734375 187.109375 813.085938 188.085938 C 815.429688 191.210938 817.1875 191.992188 819.140625 192.773438 C 817.773438 193.945312 817.382812 195.3125 817.382812 197.070312 Z M 818.945312 192.773438 L 837.304688 192.578125 M 810.742188 182.03125 C 810.742188 182.03125 812.109375 190.429688 818.945312 192.578125 " transform="matrix(0.02,0,0,0.02,0,0)"/>
<path style="fill-rule:nonzero;fill:url(#linear0);stroke-width:0.944;stroke-linecap:butt;stroke-linejoin:miter;stroke:rgb(0%,0%,0%);stroke-opacity:1;stroke-miterlimit:4;" d="M 809.570312 181.835938 C 810.15625 178.515625 811.523438 178.125 812.890625 173.828125 C 813.085938 169.921875 809.570312 170.3125 810.546875 167.773438 C 812.304688 164.84375 811.523438 162.304688 808.007812 160.15625 C 808.789062 163.867188 803.710938 167.1875 803.710938 170.3125 C 803.710938 173.242188 806.25 172.65625 806.054688 177.34375 C 806.25 179.882812 805.273438 179.296875 805.078125 181.835938 Z M 809.570312 181.835938 " transform="matrix(0.02,0,0,0.02,0,0)"/>
<path style="fill-rule:nonzero;fill:rgb(100%,78.039216%,17.254902%);fill-opacity:1;stroke-width:0.944;stroke-linecap:butt;stroke-linejoin:miter;stroke:rgb(0%,0%,0%);stroke-opacity:1;stroke-miterlimit:4;" d="M 831.445312 161.71875 C 832.03125 160.742188 833.203125 160.15625 834.375 160.546875 C 835.546875 160.742188 836.328125 161.71875 836.328125 162.890625 C 836.328125 164.0625 835.546875 165.039062 834.375 165.429688 C 833.203125 165.820312 832.03125 165.234375 831.445312 164.257812 Z M 831.445312 161.71875 " transform="matrix(0.02,0,0,0.02,0,0)"/>
<path style="fill:none;stroke-width:1.887;stroke-linecap:butt;stroke-linejoin:miter;stroke:rgb(100%,78.039216%,17.254902%);stroke-opacity:1;stroke-miterlimit:4;" d="M 814.8345 181.742875 L 828.897 161.03975 L 842.9595 181.938187 " transform="matrix(0.02,0,0,0.02,-0.01544,0.82608)"/>
<path style="fill-rule:nonzero;fill:rgb(100%,78.039216%,17.254902%);fill-opacity:1;stroke-width:0.944;stroke-linecap:butt;stroke-linejoin:miter;stroke:rgb(0%,0%,0%);stroke-opacity:1;stroke-miterlimit:4;" d="M 831.631375 174.125687 C 832.412625 172.953812 833.5845 172.367875 834.951688 172.7585 C 836.123563 173.149125 836.904813 174.125687 836.904813 175.492875 C 836.904813 176.66475 836.123563 177.836625 834.951688 178.22725 C 833.5845 178.617875 832.412625 178.031937 831.631375 176.860062 Z M 831.631375 174.125687 " transform="matrix(0.02,0,0,0.02,-0.01544,0.82608)"/>
<path style="fill-rule:nonzero;fill:rgb(100%,78.039216%,17.254902%);fill-opacity:1;stroke-width:0.944;stroke-linecap:butt;stroke-linejoin:miter;stroke:rgb(0%,0%,0%);stroke-opacity:1;stroke-miterlimit:4;" d="M 817.373563 197.172562 L 839.248563 197.172562 C 839.248563 197.172562 839.639188 194.438187 837.100125 192.680375 C 848.42825 191.117875 845.498563 180.961625 855.068875 180.375687 C 857.022 180.571 849.99075 184.672562 849.99075 184.672562 C 849.99075 184.672562 844.326688 188.774125 846.86575 190.72725 C 849.014188 192.485062 849.99075 189.750687 850.186063 187.797562 C 850.576688 185.844437 859.561063 184.47725 858.193875 178.813187 C 856.045438 174.125687 843.545438 181.938187 843.545438 181.938187 L 834.561063 181.938187 C 833.975125 180.961625 831.436063 176.860062 828.897 176.860062 C 825.967313 176.860062 823.818875 181.938187 823.818875 181.938187 L 803.506375 181.938187 C 803.506375 181.938187 802.725125 187.211625 813.076688 188.188187 C 815.420438 191.117875 817.17825 192.094437 819.131375 192.875687 C 817.764188 193.85225 817.373563 195.219437 817.373563 197.172562 Z M 818.936063 192.680375 L 837.295438 192.680375 M 810.732938 181.938187 C 810.732938 181.938187 812.100125 190.531937 818.936063 192.485062 " transform="matrix(0.02,0,0,0.02,-0.01544,0.82608)"/>
<path style="fill-rule:nonzero;fill:url(#linear1);stroke-width:0.944;stroke-linecap:butt;stroke-linejoin:miter;stroke:rgb(0%,0%,0%);stroke-opacity:1;stroke-miterlimit:4;" d="M 809.561063 181.938187 C 810.147 178.617875 811.514188 178.031937 812.881375 173.930375 C 813.076688 169.828812 809.561063 170.219437 810.537625 167.680375 C 812.295438 164.946 811.514188 162.211625 808.193875 160.063187 C 808.779813 163.774125 803.701688 167.28975 803.701688 170.219437 C 803.701688 173.344437 806.24075 172.563187 806.045438 177.250687 C 806.24075 179.985062 805.264188 179.203812 805.068875 181.938187 Z M 809.561063 181.938187 " transform="matrix(0.02,0,0,0.02,-0.01544,0.82608)"/>
<path style="fill-rule:nonzero;fill:rgb(100%,78.039216%,17.254902%);fill-opacity:1;stroke-width:0.944;stroke-linecap:butt;stroke-linejoin:miter;stroke:rgb(0%,0%,0%);stroke-opacity:1;stroke-miterlimit:4;" d="M 831.436063 161.625687 C 832.022 160.649125 833.193875 160.063187 834.36575 160.453812 C 835.537625 160.844437 836.318875 161.821 836.318875 162.992875 C 836.318875 164.16475 835.537625 165.141312 834.36575 165.336625 C 833.193875 165.72725 832.022 165.336625 831.436063 164.16475 Z M 831.436063 161.625687 " transform="matrix(0.02,0,0,0.02,-0.01544,0.82608)"/>
<path style="fill:none;stroke-width:1.887;stroke-linecap:butt;stroke-linejoin:miter;stroke:rgb(100%,78.039216%,17.254902%);stroke-opacity:1;stroke-miterlimit:4;" d="M 814.760875 181.854187 L 828.823375 161.151062 L 843.081188 181.854187 " transform="matrix(0.02,0,0,0.02,-0.02178,1.64026)"/>
<path style="fill-rule:nonzero;fill:rgb(100%,78.039216%,17.254902%);fill-opacity:1;stroke-width:0.944;stroke-linecap:butt;stroke-linejoin:miter;stroke:rgb(0%,0%,0%);stroke-opacity:1;stroke-miterlimit:4;" d="M 831.753063 174.041687 C 832.339 173.065125 833.706188 172.479187 834.878063 172.869812 C 836.049938 173.065125 837.0265 174.237 837.0265 175.408875 C 837.0265 176.776062 836.049938 177.947937 834.878063 178.14325 C 833.706188 178.533875 832.339 177.947937 831.753063 176.971375 Z M 831.753063 174.041687 " transform="matrix(0.02,0,0,0.02,-0.02178,1.64026)"/>
<path style="fill-rule:nonzero;fill:rgb(100%,78.039216%,17.254902%);fill-opacity:1;stroke-width:0.944;stroke-linecap:butt;stroke-linejoin:miter;stroke:rgb(0%,0%,0%);stroke-opacity:1;stroke-miterlimit:4;" d="M 817.49525 197.088562 L 839.37025 197.088562 C 839.37025 197.088562 839.565563 194.354187 837.0265 192.596375 C 848.549938 191.033875 845.424938 180.877625 854.99525 180.291687 C 856.948375 180.682312 850.112438 184.588562 850.112438 184.588562 C 850.112438 184.588562 844.253063 188.690125 846.987438 190.838562 C 848.940563 192.401062 849.917125 189.862 850.112438 187.908875 C 850.503063 185.760437 859.487438 184.588562 858.315563 178.729187 C 856.167125 174.041687 843.471813 182.0495 843.471813 182.0495 L 834.487438 181.854187 C 833.9015 180.877625 831.55775 176.776062 828.823375 176.776062 C 825.893688 176.971375 823.74525 182.0495 823.74525 182.0495 L 803.43275 182.0495 C 803.43275 182.0495 802.6515 187.127625 813.003063 188.104187 C 815.346813 191.229187 817.104625 192.010437 819.253063 192.791687 C 817.885875 193.963562 817.49525 195.33075 817.49525 197.088562 Z M 819.05775 192.596375 L 837.221813 192.596375 M 810.659313 182.0495 C 810.659313 182.0495 812.221813 190.447937 818.862438 192.401062 " transform="matrix(0.02,0,0,0.02,-0.02178,1.64026)"/>
<path style="fill-rule:nonzero;fill:url(#linear2);stroke-width:0.944;stroke-linecap:butt;stroke-linejoin:miter;stroke:rgb(0%,0%,0%);stroke-opacity:1;stroke-miterlimit:4;" d="M 809.487438 181.854187 C 810.268688 178.533875 811.440563 177.947937 812.80775 173.846375 C 813.003063 169.940125 809.487438 170.33075 810.659313 167.791687 C 812.417125 164.862 811.440563 162.322937 808.12025 160.1745 C 808.706188 163.885437 803.823375 167.20575 803.823375 170.33075 C 803.823375 173.260437 806.362438 172.6745 805.971813 177.166687 C 806.167125 179.901062 805.385875 179.315125 804.99525 181.854187 Z M 809.487438 181.854187 " transform="matrix(0.02,0,0,0.02,-0.02178,1.64026)"/>
<path style="fill-rule:nonzero;fill:rgb(100%,78.039216%,17.254902%);fill-opacity:1;stroke-width:0.944;stroke-linecap:butt;stroke-linejoin:miter;stroke:rgb(0%,0%,0%);stroke-opacity:1;stroke-miterlimit:4;" d="M 831.55775 161.737 C 832.143688 160.565125 833.315563 160.1745 834.487438 160.369812 C 835.464 160.760437 836.24525 161.737 836.24525 162.908875 C 836.24525 164.08075 835.464 165.057312 834.487438 165.447937 C 833.315563 165.64325 832.143688 165.252625 831.55775 164.276062 Z M 831.55775 161.737 " transform="matrix(0.02,0,0,0.02,-0.02178,1.64026)"/>
<path style="fill:none;stroke-width:1.887;stroke-linecap:butt;stroke-linejoin:miter;stroke:rgb(100%,78.039216%,17.254902%);stroke-opacity:1;stroke-miterlimit:4;" d="M 814.802688 181.908813 L 828.865188 161.205688 L 843.123 181.908813 " transform="matrix(0.02,0,0,0.02,0.51254,2.52198)"/>
<path style="fill-rule:nonzero;fill:rgb(100%,78.039216%,17.254902%);fill-opacity:1;stroke-width:0.944;stroke-linecap:butt;stroke-linejoin:miter;stroke:rgb(0%,0%,0%);stroke-opacity:1;stroke-miterlimit:4;" d="M 831.794875 174.096313 C 832.380813 172.924438 833.552688 172.533813 834.919875 172.729125 C 836.09175 173.11975 836.873 174.291625 836.873 175.4635 C 836.873 176.830688 836.09175 177.80725 834.919875 178.197875 C 833.552688 178.5885 832.380813 178.002563 831.794875 176.830688 Z M 831.794875 174.096313 " transform="matrix(0.02,0,0,0.02,0.51254,2.52198)"/>
<path style="fill-rule:nonzero;fill:rgb(100%,78.039216%,17.254902%);fill-opacity:1;stroke-width:0.944;stroke-linecap:butt;stroke-linejoin:miter;stroke:rgb(0%,0%,0%);stroke-opacity:1;stroke-miterlimit:4;" d="M 817.537063 197.143188 L 839.21675 197.143188 C 839.21675 197.143188 839.607375 194.408813 837.068313 192.651 C 848.396438 191.0885 845.46675 180.93225 855.037063 180.346313 C 856.990188 180.736938 850.15425 184.643188 850.15425 184.643188 C 850.15425 184.643188 844.294875 188.74475 846.833938 190.893188 C 848.982375 192.455688 849.958938 189.916625 850.15425 187.768188 C 850.544875 185.815063 859.52925 184.447875 858.162063 178.783813 C 856.013625 174.096313 843.513625 181.908813 843.513625 181.908813 L 834.52925 181.908813 C 833.943313 180.93225 831.40425 176.830688 828.865188 176.830688 C 825.9355 177.026 823.787063 181.908813 823.787063 181.908813 L 803.474563 181.908813 C 803.474563 181.908813 802.693313 187.18225 813.044875 188.158813 C 815.388625 191.283813 817.146438 192.065063 819.099563 192.846313 C 817.732375 194.018188 817.34175 195.385375 817.537063 197.143188 Z M 819.099563 192.651 L 837.263625 192.651 M 810.701125 181.908813 C 810.701125 181.908813 812.068313 190.502563 818.90425 192.455688 " transform="matrix(0.02,0,0,0.02,0.51254,2.52198)"/>
<path style="fill-rule:nonzero;fill:url(#linear3);stroke-width:0.944;stroke-linecap:butt;stroke-linejoin:miter;stroke:rgb(0%,0%,0%);stroke-opacity:1;stroke-miterlimit:4;" d="M 809.52925 181.908813 C 810.3105 178.5885 811.482375 178.002563 812.849563 173.901 C 813.044875 169.799438 809.52925 170.385375 810.505813 167.651 C 812.263625 164.916625 811.482375 162.18225 808.162063 160.033813 C 808.748 163.74475 803.669875 167.260375 803.669875 170.385375 C 803.669875 173.315063 806.40425 172.729125 806.013625 177.221313 C 806.208938 179.955688 805.232375 179.174438 805.037063 181.908813 Z M 809.52925 181.908813 " transform="matrix(0.02,0,0,0.02,0.51254,2.52198)"/>
<path style="fill-rule:nonzero;fill:rgb(100%,78.039216%,17.254902%);fill-opacity:1;stroke-width:0.944;stroke-linecap:butt;stroke-linejoin:miter;stroke:rgb(0%,0%,0%);stroke-opacity:1;stroke-miterlimit:4;" d="M 831.40425 161.596313 C 831.990188 160.61975 833.357375 160.229125 834.333938 160.424438 C 835.505813 160.815063 836.287063 161.791625 836.287063 162.9635 C 836.287063 164.135375 835.505813 165.111938 834.333938 165.502563 C 833.357375 165.697875 831.990188 165.30725 831.40425 164.135375 Z M 831.40425 161.596313 " transform="matrix(0.02,0,0,0.02,0.51254,2.52198)"/>
<path style="fill:none;stroke-width:1.887;stroke-linecap:butt;stroke-linejoin:miter;stroke:rgb(100%,78.039216%,17.254902%);stroke-opacity:1;stroke-miterlimit:4;" d="M 814.73025 181.782312 L 828.79275 161.079187 L 843.050562 181.782312 " transform="matrix(0.02,0,0,0.02,-0.09148,3.24326)"/>
<path style="fill-rule:nonzero;fill:rgb(100%,78.039216%,17.254902%);fill-opacity:1;stroke-width:0.944;stroke-linecap:butt;stroke-linejoin:miter;stroke:rgb(0%,0%,0%);stroke-opacity:1;stroke-miterlimit:4;" d="M 831.722437 174.165125 C 832.308375 172.99325 833.675562 172.407312 834.847437 172.797937 C 836.019312 173.188562 836.995875 174.165125 836.995875 175.532312 C 836.995875 176.704187 836.019312 177.876062 834.847437 178.266687 C 833.675562 178.462 832.308375 178.071375 831.722437 176.8995 Z M 831.722437 174.165125 " transform="matrix(0.02,0,0,0.02,-0.09148,3.24326)"/>
<path style="fill-rule:nonzero;fill:rgb(100%,78.039216%,17.254902%);fill-opacity:1;stroke-width:0.944;stroke-linecap:butt;stroke-linejoin:miter;stroke:rgb(0%,0%,0%);stroke-opacity:1;stroke-miterlimit:4;" d="M 817.464625 197.212 L 839.339625 197.212 C 839.339625 197.212 839.73025 194.282312 836.995875 192.5245 C 848.519312 190.962 845.394312 181.001062 855.159937 180.415125 C 856.91775 180.610437 850.081812 184.712 850.081812 184.712 C 850.081812 184.712 844.222437 188.813562 846.956812 190.766687 C 848.909937 192.5245 849.8865 189.790125 850.277125 187.837 C 850.472437 185.883875 859.456812 184.516687 858.284937 178.852625 C 856.1365 174.165125 843.441187 181.977625 843.441187 181.977625 L 834.456812 181.977625 C 833.870875 180.80575 831.527125 176.8995 828.988062 176.8995 C 825.863062 176.8995 823.714625 181.977625 823.714625 181.977625 L 803.402125 181.977625 C 803.402125 181.977625 802.816187 187.251062 812.972437 188.227625 C 815.316187 191.157312 817.074 192.133875 819.222437 192.915125 C 817.85525 193.891687 817.464625 195.258875 817.464625 197.212 Z M 819.027125 192.719812 L 837.191187 192.5245 M 810.628687 181.977625 C 810.628687 181.977625 812.191187 190.376062 818.831812 192.5245 " transform="matrix(0.02,0,0,0.02,-0.09148,3.24326)"/>
<path style="fill-rule:nonzero;fill:url(#linear4);stroke-width:0.944;stroke-linecap:butt;stroke-linejoin:miter;stroke:rgb(0%,0%,0%);stroke-opacity:1;stroke-miterlimit:4;" d="M 809.652125 181.782312 C 810.238062 178.657312 811.409937 178.071375 812.777125 173.969812 C 812.972437 169.86825 809.652125 170.258875 810.628687 167.719812 C 812.3865 164.985437 811.409937 162.251062 808.089625 160.102625 C 808.870875 163.813562 803.79275 167.329187 803.79275 170.258875 C 803.79275 173.383875 806.331812 172.602625 805.941187 177.290125 C 806.1365 180.0245 805.35525 179.24325 805.159937 181.782312 Z M 809.652125 181.782312 " transform="matrix(0.02,0,0,0.02,-0.09148,3.24326)"/>
<path style="fill-rule:nonzero;fill:rgb(100%,78.039216%,17.254902%);fill-opacity:1;stroke-width:0.944;stroke-linecap:butt;stroke-linejoin:miter;stroke:rgb(0%,0%,0%);stroke-opacity:1;stroke-miterlimit:4;" d="M 831.527125 161.665125 C 832.113062 160.688562 833.284937 160.102625 834.456812 160.49325 C 835.433375 160.688562 836.214625 161.860437 836.214625 163.032312 C 836.214625 164.008875 835.433375 165.18075 834.456812 165.376062 C 833.284937 165.766687 832.113062 165.18075 831.527125 164.204187 Z M 831.527125 161.665125 " transform="matrix(0.02,0,0,0.02,-0.09148,3.24326)"/>
<path style="fill:none;stroke-width:1.887;stroke-linecap:butt;stroke-linejoin:miter;stroke:rgb(100%,78.039216%,17.254902%);stroke-opacity:1;stroke-miterlimit:4;" d="M 814.7195 181.750438 L 828.977313 161.047313 L 843.039813 181.94575 " transform="matrix(0.02,0,0,0.02,-0.07564,4.09546)"/>
<path style="fill-rule:nonzero;fill:rgb(100%,78.039216%,17.254902%);fill-opacity:1;stroke-width:0.944;stroke-linecap:butt;stroke-linejoin:miter;stroke:rgb(0%,0%,0%);stroke-opacity:1;stroke-miterlimit:4;" d="M 831.711688 174.13325 C 832.297625 172.961375 833.664813 172.375438 834.836688 172.766063 C 836.008563 173.156688 836.985125 174.13325 836.985125 175.500438 C 836.985125 176.672313 836.008563 177.844188 834.836688 178.234813 C 833.664813 178.430125 832.297625 178.0395 831.711688 176.867625 Z M 831.711688 174.13325 " transform="matrix(0.02,0,0,0.02,-0.07564,4.09546)"/>
<path style="fill-rule:nonzero;fill:rgb(100%,78.039216%,17.254902%);fill-opacity:1;stroke-width:0.944;stroke-linecap:butt;stroke-linejoin:miter;stroke:rgb(0%,0%,0%);stroke-opacity:1;stroke-miterlimit:4;" d="M 817.453875 197.180125 L 839.328875 197.180125 C 839.328875 197.180125 839.7195 194.250438 836.985125 192.687938 C 848.508563 191.125438 845.578875 180.969188 855.149188 180.38325 C 856.907 180.578563 850.071063 184.680125 850.071063 184.680125 C 850.071063 184.680125 844.211688 188.781688 846.946063 190.734813 C 849.0945 192.492625 849.87575 189.75825 850.266375 187.805125 C 850.461688 185.852 859.446063 184.484813 858.274188 178.82075 C 856.12575 174.13325 843.430438 181.94575 843.430438 181.94575 L 834.446063 181.94575 C 833.860125 180.969188 831.516375 176.867625 828.977313 176.867625 C 825.852313 176.867625 823.703875 181.94575 823.703875 181.94575 L 803.391375 181.94575 C 803.391375 181.94575 802.805438 187.219188 812.961688 188.19575 C 815.305438 191.125438 817.06325 192.102 819.211688 192.88325 C 817.8445 193.859813 817.453875 195.227 817.453875 197.180125 Z M 819.016375 192.687938 L 837.180438 192.687938 M 810.617938 181.94575 C 810.617938 181.94575 812.180438 190.5395 818.821063 192.492625 " transform="matrix(0.02,0,0,0.02,-0.07564,4.09546)"/>
<path style="fill-rule:nonzero;fill:url(#linear5);stroke-width:0.944;stroke-linecap:butt;stroke-linejoin:miter;stroke:rgb(0%,0%,0%);stroke-opacity:1;stroke-miterlimit:4;" d="M 809.641375 181.750438 C 810.227313 178.625438 811.399188 178.0395 812.766375 173.937938 C 812.961688 169.836375 809.641375 170.227 810.617938 167.687938 C 812.37575 164.953563 811.399188 162.219188 808.078875 160.07075 C 808.860125 163.781688 803.782 167.297313 803.782 170.227 C 803.782 173.352 806.321063 172.57075 805.930438 177.25825 C 806.12575 179.992625 805.3445 179.211375 805.149188 181.750438 Z M 809.641375 181.750438 " transform="matrix(0.02,0,0,0.02,-0.07564,4.09546)"/>
<path style="fill-rule:nonzero;fill:rgb(100%,78.039216%,17.254902%);fill-opacity:1;stroke-width:0.944;stroke-linecap:butt;stroke-linejoin:miter;stroke:rgb(0%,0%,0%);stroke-opacity:1;stroke-miterlimit:4;" d="M 831.516375 161.63325 C 832.102313 160.656688 833.274188 160.07075 834.446063 160.461375 C 835.422625 160.852 836.203875 161.828563 836.203875 163.000438 C 836.399188 164.172313 835.422625 165.148875 834.446063 165.344188 C 833.274188 165.734813 832.102313 165.148875 831.516375 164.172313 Z M 831.516375 161.63325 " transform="matrix(0.02,0,0,0.02,-0.07564,4.09546)"/>
<path style="fill:none;stroke-width:1.887;stroke-linecap:butt;stroke-linejoin:miter;stroke:rgb(100%,78.039216%,17.254902%);stroke-opacity:1;stroke-miterlimit:4;" d="M 814.852813 181.749875 L 828.915313 161.04675 L 842.977813 181.945188 " transform="matrix(0.02,0,0,0.02,2.9256,0.01344)"/>
<path style="fill-rule:nonzero;fill:rgb(100%,78.039216%,17.254902%);fill-opacity:1;stroke-width:0.944;stroke-linecap:butt;stroke-linejoin:miter;stroke:rgb(0%,0%,0%);stroke-opacity:1;stroke-miterlimit:4;" d="M 831.649688 174.132688 C 832.430938 172.960813 833.602813 172.374875 834.774688 172.7655 C 836.141875 173.156125 836.923125 174.132688 836.923125 175.499875 C 836.923125 176.67175 836.141875 177.843625 834.774688 178.23425 C 833.602813 178.429563 832.430938 178.038938 831.649688 176.867063 Z M 831.649688 174.132688 " transform="matrix(0.02,0,0,0.02,2.9256,0.01344)"/>
<path style="fill-rule:nonzero;fill:rgb(100%,78.039216%,17.254902%);fill-opacity:1;stroke-width:0.944;stroke-linecap:butt;stroke-linejoin:miter;stroke:rgb(0%,0%,0%);stroke-opacity:1;stroke-miterlimit:4;" d="M 817.391875 197.179563 L 839.266875 197.179563 C 839.266875 197.179563 839.6575 194.249875 836.923125 192.687375 C 848.446563 191.124875 845.516875 180.968625 855.087188 180.382688 C 856.845 180.578 850.009063 184.679563 850.009063 184.679563 C 850.009063 184.679563 844.345 188.781125 846.884063 190.73425 C 849.0325 192.492063 850.009063 189.757688 850.204375 187.804563 C 850.399688 185.851438 859.579375 184.48425 858.212188 178.820188 C 856.06375 174.132688 843.56375 181.945188 843.56375 181.945188 L 834.579375 181.945188 C 833.993438 180.968625 831.454375 176.867063 828.915313 176.867063 C 825.790313 176.867063 823.641875 181.945188 823.641875 181.945188 L 803.329375 181.945188 C 803.329375 181.945188 802.743438 187.218625 813.095 188.195188 C 815.43875 191.124875 817.196563 192.101438 819.149688 192.882688 C 817.7825 193.85925 817.391875 195.226438 817.391875 197.179563 Z M 818.954375 192.687375 L 837.31375 192.687375 M 810.75125 181.945188 C 810.75125 181.945188 812.118438 190.538938 818.954375 192.492063 " transform="matrix(0.02,0,0,0.02,2.9256,0.01344)"/>
<path style="fill-rule:nonzero;fill:url(#linear6);stroke-width:0.944;stroke-linecap:butt;stroke-linejoin:miter;stroke:rgb(0%,0%,0%);stroke-opacity:1;stroke-miterlimit:4;" d="M 809.579375 181.749875 C 810.165313 178.624875 811.5325 178.038938 812.899688 173.937375 C 813.095 169.835813 809.579375 170.226438 810.555938 167.687375 C 812.31375 164.953 811.5325 162.218625 808.016875 160.070188 C 808.798125 163.781125 803.72 167.29675 803.72 170.226438 C 803.72 173.351438 806.259063 172.570188 806.06375 177.257688 C 806.259063 179.992063 805.2825 179.210813 805.087188 181.749875 Z M 809.579375 181.749875 " transform="matrix(0.02,0,0,0.02,2.9256,0.01344)"/>
<path style="fill-rule:nonzero;fill:rgb(100%,78.039216%,17.254902%);fill-opacity:1;stroke-width:0.944;stroke-linecap:butt;stroke-linejoin:miter;stroke:rgb(0%,0%,0%);stroke-opacity:1;stroke-miterlimit:4;" d="M 831.454375 161.632688 C 832.040313 160.656125 833.212188 160.070188 834.384063 160.460813 C 835.555938 160.851438 836.337188 161.828 836.337188 162.999875 C 836.337188 164.17175 835.555938 165.148313 834.384063 165.343625 C 833.212188 165.73425 832.040313 165.148313 831.454375 164.17175 Z M 831.454375 161.632688 " transform="matrix(0.02,0,0,0.02,2.9256,0.01344)"/>
<path style="fill:none;stroke-width:1.887;stroke-linecap:butt;stroke-linejoin:miter;stroke:rgb(100%,78.039216%,17.254902%);stroke-opacity:1;stroke-miterlimit:4;" d="M 814.829625 181.828875 L 828.892125 161.12575 L 843.149937 181.828875 " transform="matrix(0.02,0,0,0.02,2.89872,0.82436)"/>
<path style="fill-rule:nonzero;fill:rgb(100%,78.039216%,17.254902%);fill-opacity:1;stroke-width:0.944;stroke-linecap:butt;stroke-linejoin:miter;stroke:rgb(0%,0%,0%);stroke-opacity:1;stroke-miterlimit:4;" d="M 831.6265 174.016375 C 832.40775 173.039812 833.579625 172.453875 834.946812 172.8445 C 836.118687 173.039812 836.899937 174.211687 836.899937 175.578875 C 836.899937 176.75075 836.118687 177.922625 834.946812 178.117937 C 833.579625 178.508562 832.40775 177.922625 831.6265 176.946062 Z M 831.6265 174.016375 " transform="matrix(0.02,0,0,0.02,2.89872,0.82436)"/>
<path style="fill-rule:nonzero;fill:rgb(100%,78.039216%,17.254902%);fill-opacity:1;stroke-width:0.944;stroke-linecap:butt;stroke-linejoin:miter;stroke:rgb(0%,0%,0%);stroke-opacity:1;stroke-miterlimit:4;" d="M 817.368687 197.06325 L 839.243687 197.258562 C 839.243687 197.258562 839.634312 194.328875 837.09525 192.571062 C 848.423375 191.008562 845.493687 181.047625 855.064 180.461687 C 857.017125 180.657 849.985875 184.758562 849.985875 184.758562 C 849.985875 184.758562 844.321812 188.664812 846.860875 190.81325 C 849.009312 192.37575 849.985875 189.836687 850.181187 187.883562 C 850.571812 185.735125 859.556187 184.56325 858.189 178.899187 C 856.040562 174.016375 843.540562 182.024187 843.540562 182.024187 L 834.556187 181.828875 C 833.97025 180.852312 831.431187 176.946062 828.892125 176.75075 C 825.962437 176.946062 823.814 182.024187 823.814 182.024187 L 803.5015 182.024187 C 803.5015 182.024187 802.72025 187.102312 813.071812 188.078875 C 815.415562 191.203875 817.173375 191.985125 819.1265 192.766375 C 817.759312 193.93825 817.368687 195.305437 817.368687 197.06325 Z M 818.931187 192.766375 L 837.290562 192.571062 M 810.728062 182.024187 C 810.728062 182.024187 812.09525 190.422625 818.931187 192.571062 " transform="matrix(0.02,0,0,0.02,2.89872,0.82436)"/>
<path style="fill-rule:nonzero;fill:url(#linear7);stroke-width:0.944;stroke-linecap:butt;stroke-linejoin:miter;stroke:rgb(0%,0%,0%);stroke-opacity:1;stroke-miterlimit:4;" d="M 809.556187 181.828875 C 810.142125 178.508562 811.509312 178.117937 812.8765 173.821062 C 813.071812 169.914812 809.556187 170.305437 810.53275 167.766375 C 812.290562 164.836687 811.509312 162.297625 808.189 160.149187 C 808.774937 163.860125 803.696812 167.37575 803.696812 170.305437 C 803.696812 173.235125 806.235875 172.649187 806.040562 177.336687 C 806.235875 179.87575 805.259312 179.289812 805.064 181.828875 Z M 809.556187 181.828875 " transform="matrix(0.02,0,0,0.02,2.89872,0.82436)"/>
<path style="fill-rule:nonzero;fill:rgb(100%,78.039216%,17.254902%);fill-opacity:1;stroke-width:0.944;stroke-linecap:butt;stroke-linejoin:miter;stroke:rgb(0%,0%,0%);stroke-opacity:1;stroke-miterlimit:4;" d="M 831.431187 161.711687 C 832.017125 160.735125 833.189 160.149187 834.360875 160.539812 C 835.53275 160.735125 836.314 161.711687 836.314 162.883562 C 836.314 164.055437 835.53275 165.032 834.360875 165.422625 C 833.189 165.81325 832.017125 165.227312 831.431187 164.25075 Z M 831.431187 161.711687 " transform="matrix(0.02,0,0,0.02,2.89872,0.82436)"/>
<path style="fill:none;stroke-width:1.887;stroke-linecap:butt;stroke-linejoin:miter;stroke:rgb(100%,78.039216%,17.254902%);stroke-opacity:1;stroke-miterlimit:4;" d="M 814.863812 181.792125 L 828.926312 161.089 L 842.988812 181.792125 " transform="matrix(0.02,0,0,0.02,2.86288,1.65322)"/>
<path style="fill-rule:nonzero;fill:rgb(100%,78.039216%,17.254902%);fill-opacity:1;stroke-width:0.944;stroke-linecap:butt;stroke-linejoin:miter;stroke:rgb(0%,0%,0%);stroke-opacity:1;stroke-miterlimit:4;" d="M 831.660687 174.174937 C 832.441937 173.003062 833.613812 172.417125 834.785687 172.80775 C 836.152875 173.198375 836.934125 174.174937 836.934125 175.542125 C 836.934125 176.714 836.152875 177.885875 834.785687 178.2765 C 833.613812 178.471812 832.441937 178.081187 831.660687 176.909312 Z M 831.660687 174.174937 " transform="matrix(0.02,0,0,0.02,2.86288,1.65322)"/>
<path style="fill-rule:nonzero;fill:rgb(100%,78.039216%,17.254902%);fill-opacity:1;stroke-width:0.944;stroke-linecap:butt;stroke-linejoin:miter;stroke:rgb(0%,0%,0%);stroke-opacity:1;stroke-miterlimit:4;" d="M 817.402875 197.0265 L 839.277875 197.221812 C 839.277875 197.221812 839.6685 194.292125 836.934125 192.534312 C 848.457562 190.971812 845.527875 181.010875 855.098187 180.424937 C 856.856 180.62025 850.020062 184.721812 850.020062 184.721812 C 850.020062 184.721812 844.356 188.823375 846.895062 190.7765 C 849.0435 192.534312 849.82475 189.799937 850.215375 187.846812 C 850.410687 185.893687 859.590375 184.5265 858.223187 178.862437 C 856.07475 174.174937 843.57475 181.987437 843.57475 181.987437 L 834.590375 181.987437 C 834.004437 180.815562 831.465375 176.909312 828.926312 176.909312 C 825.801312 176.909312 823.652875 181.987437 823.652875 181.987437 L 803.340375 181.987437 C 803.340375 181.987437 802.754437 187.260875 813.106 188.237437 C 815.254437 191.167125 817.207562 191.948375 819.160687 192.729625 C 817.7935 193.9015 817.402875 195.268687 817.402875 197.0265 Z M 818.965375 192.729625 L 837.129437 192.534312 M 810.76225 181.987437 C 810.76225 181.987437 812.129437 190.385875 818.770062 192.534312 " transform="matrix(0.02,0,0,0.02,2.86288,1.65322)"/>
<path style="fill-rule:nonzero;fill:url(#linear8);stroke-width:0.944;stroke-linecap:butt;stroke-linejoin:miter;stroke:rgb(0%,0%,0%);stroke-opacity:1;stroke-miterlimit:4;" d="M 809.590375 181.792125 C 810.176312 178.667125 811.5435 178.081187 812.715375 173.979625 C 813.106 169.878062 809.590375 170.268687 810.566937 167.729625 C 812.32475 164.99525 811.5435 162.260875 808.027875 160.112437 C 808.809125 163.823375 803.731 167.339 803.731 170.268687 C 803.731 173.393687 806.270062 172.612437 805.879437 177.299937 C 806.270062 180.034312 805.2935 179.253062 805.098187 181.792125 Z M 809.590375 181.792125 " transform="matrix(0.02,0,0,0.02,2.86288,1.65322)"/>
<path style="fill-rule:nonzero;fill:rgb(100%,78.039216%,17.254902%);fill-opacity:1;stroke-width:0.944;stroke-linecap:butt;stroke-linejoin:miter;stroke:rgb(0%,0%,0%);stroke-opacity:1;stroke-miterlimit:4;" d="M 831.465375 161.674937 C 832.051312 160.698375 833.223187 160.112437 834.395062 160.503062 C 835.566937 160.698375 836.348187 161.87025 836.348187 162.846812 C 836.348187 164.018687 835.566937 165.190562 834.395062 165.385875 C 833.223187 165.7765 832.051312 165.190562 831.465375 164.214 Z M 831.465375 161.674937 " transform="matrix(0.02,0,0,0.02,2.86288,1.65322)"/>
<path style="fill:none;stroke-width:1.887;stroke-linecap:butt;stroke-linejoin:miter;stroke:rgb(100%,78.039216%,17.254902%);stroke-opacity:1;stroke-miterlimit:4;" d="M 814.800938 181.842438 L 828.863438 161.139313 L 843.12125 181.842438 " transform="matrix(0.02,0,0,0.02,2.9032,2.46862)"/>
<path style="fill-rule:nonzero;fill:rgb(100%,78.039216%,17.254902%);fill-opacity:1;stroke-width:0.944;stroke-linecap:butt;stroke-linejoin:miter;stroke:rgb(0%,0%,0%);stroke-opacity:1;stroke-miterlimit:4;" d="M 831.793125 174.029938 C 832.379063 173.053375 833.550938 172.467438 834.918125 172.858063 C 836.09 173.053375 836.87125 174.22525 836.87125 175.397125 C 836.87125 176.764313 836.09 177.936188 834.918125 178.1315 C 833.550938 178.522125 832.379063 177.936188 831.793125 176.959625 Z M 831.793125 174.029938 " transform="matrix(0.02,0,0,0.02,2.9032,2.46862)"/>
<path style="fill-rule:nonzero;fill:rgb(100%,78.039216%,17.254902%);fill-opacity:1;stroke-width:0.944;stroke-linecap:butt;stroke-linejoin:miter;stroke:rgb(0%,0%,0%);stroke-opacity:1;stroke-miterlimit:4;" d="M 817.535313 197.076813 L 839.215 197.272125 C 839.215 197.272125 839.605625 194.342438 837.066563 192.584625 C 848.394688 191.022125 845.465 180.865875 855.035313 180.47525 C 856.988438 180.670563 850.1525 184.576813 850.1525 184.576813 C 850.1525 184.576813 844.293125 188.678375 846.832188 190.826813 C 848.980625 192.389313 849.957188 189.85025 850.1525 187.897125 C 850.543125 185.748688 859.5275 184.576813 858.160313 178.717438 C 856.011875 174.029938 843.511875 182.03775 843.511875 182.03775 L 834.5275 181.842438 C 833.941563 180.865875 831.4025 176.764313 828.863438 176.764313 C 825.93375 176.959625 823.785313 182.03775 823.785313 182.03775 L 803.472813 182.03775 C 803.472813 182.03775 802.691563 187.115875 813.043125 188.092438 C 815.386875 191.217438 817.144688 191.998688 819.097813 192.779938 C 817.730625 193.951813 817.535313 195.319 817.535313 197.076813 Z M 819.097813 192.779938 L 837.261875 192.584625 M 810.699375 182.03775 C 810.699375 182.03775 812.066563 190.436188 818.9025 192.389313 " transform="matrix(0.02,0,0,0.02,2.9032,2.46862)"/>
<path style="fill-rule:nonzero;fill:url(#linear9);stroke-width:0.944;stroke-linecap:butt;stroke-linejoin:miter;stroke:rgb(0%,0%,0%);stroke-opacity:1;stroke-miterlimit:4;" d="M 809.5275 181.842438 C 810.30875 178.522125 811.480625 177.936188 812.847813 173.834625 C 813.043125 169.928375 809.5275 170.319 810.504063 167.779938 C 812.457188 164.85025 811.480625 162.311188 808.160313 160.16275 C 808.74625 163.873688 803.668125 167.194 803.668125 170.319 C 803.668125 173.248688 806.4025 172.66275 806.011875 177.154938 C 806.207188 179.889313 805.230625 179.303375 805.035313 181.842438 Z M 809.5275 181.842438 " transform="matrix(0.02,0,0,0.02,2.9032,2.46862)"/>
<path style="fill-rule:nonzero;fill:rgb(100%,78.039216%,17.254902%);fill-opacity:1;stroke-width:0.944;stroke-linecap:butt;stroke-linejoin:miter;stroke:rgb(0%,0%,0%);stroke-opacity:1;stroke-miterlimit:4;" d="M 831.4025 161.72525 C 831.988438 160.553375 833.355625 160.16275 834.332188 160.358063 C 835.504063 160.748688 836.285313 161.72525 836.285313 162.897125 C 836.285313 164.069 835.504063 165.045563 834.332188 165.436188 C 833.355625 165.826813 831.988438 165.240875 831.4025 164.264313 Z M 831.4025 161.72525 " transform="matrix(0.02,0,0,0.02,2.9032,2.46862)"/>
<path style="fill:none;stroke-width:1.887;stroke-linecap:butt;stroke-linejoin:miter;stroke:rgb(100%,78.039216%,17.254902%);stroke-opacity:1;stroke-miterlimit:4;" d="M 814.858313 181.89275 L 828.920813 161.189625 L 842.983313 181.89275 " transform="matrix(0.02,0,0,0.02,2.89424,3.28402)"/>
<path style="fill-rule:nonzero;fill:rgb(100%,78.039216%,17.254902%);fill-opacity:1;stroke-width:0.944;stroke-linecap:butt;stroke-linejoin:miter;stroke:rgb(0%,0%,0%);stroke-opacity:1;stroke-miterlimit:4;" d="M 831.655188 174.08025 C 832.436438 172.908375 833.608313 172.51775 834.780188 172.713063 C 836.147375 173.103688 836.928625 174.275563 836.928625 175.447438 C 836.928625 176.814625 836.147375 177.791188 834.780188 178.181813 C 833.608313 178.572438 832.436438 177.9865 831.655188 176.814625 Z M 831.655188 174.08025 " transform="matrix(0.02,0,0,0.02,2.89424,3.28402)"/>
<path style="fill-rule:nonzero;fill:rgb(100%,78.039216%,17.254902%);fill-opacity:1;stroke-width:0.944;stroke-linecap:butt;stroke-linejoin:miter;stroke:rgb(0%,0%,0%);stroke-opacity:1;stroke-miterlimit:4;" d="M 817.397375 197.127125 L 839.272375 197.127125 C 839.272375 197.127125 839.663 194.39275 836.928625 192.634938 C 848.452063 191.072438 845.522375 180.916188 855.092688 180.33025 C 856.8505 180.720875 850.014563 184.627125 850.014563 184.627125 C 850.014563 184.627125 844.3505 188.728688 846.889563 190.877125 C 849.038 192.439625 850.014563 189.900563 850.209875 187.752125 C 850.405188 185.799 859.584875 184.627125 858.217688 178.76775 C 856.06925 174.08025 843.56925 181.89275 843.56925 181.89275 L 834.584875 181.89275 C 833.998938 180.916188 831.459875 176.814625 828.920813 176.814625 C 825.795813 177.009938 823.647375 181.89275 823.647375 181.89275 L 803.334875 181.89275 C 803.334875 181.89275 802.748938 187.166188 813.1005 188.14275 C 815.44425 191.26775 817.202063 192.049 819.155188 192.83025 C 817.788 194.002125 817.397375 195.369313 817.397375 197.127125 Z M 818.959875 192.634938 L 837.123938 192.634938 M 810.75675 181.89275 C 810.75675 181.89275 812.123938 190.4865 818.764563 192.439625 " transform="matrix(0.02,0,0,0.02,2.89424,3.28402)"/>
<path style="fill-rule:nonzero;fill:url(#linear10);stroke-width:0.944;stroke-linecap:butt;stroke-linejoin:miter;stroke:rgb(0%,0%,0%);stroke-opacity:1;stroke-miterlimit:4;" d="M 809.584875 181.89275 C 810.170813 178.572438 811.538 177.9865 812.905188 173.884938 C 813.1005 169.783375 809.584875 170.369313 810.561438 167.634938 C 812.31925 164.900563 811.538 162.166188 808.022375 160.01775 C 808.803625 163.728688 803.7255 167.244313 803.7255 170.369313 C 803.7255 173.299 806.264563 172.713063 806.06925 177.20525 C 806.264563 179.939625 805.288 179.353688 805.092688 181.89275 Z M 809.584875 181.89275 " transform="matrix(0.02,0,0,0.02,2.89424,3.28402)"/>
<path style="fill-rule:nonzero;fill:rgb(100%,78.039216%,17.254902%);fill-opacity:1;stroke-width:0.944;stroke-linecap:butt;stroke-linejoin:miter;stroke:rgb(0%,0%,0%);stroke-opacity:1;stroke-miterlimit:4;" d="M 831.459875 161.58025 C 832.045813 160.603688 833.217688 160.213063 834.389563 160.408375 C 835.561438 160.799 836.342688 161.775563 836.342688 162.947438 C 836.342688 164.119313 835.561438 165.095875 834.389563 165.4865 C 833.217688 165.681813 832.045813 165.291188 831.459875 164.314625 Z M 831.459875 161.58025 " transform="matrix(0.02,0,0,0.02,2.89424,3.28402)"/>
<path style="fill:none;stroke-width:1.887;stroke-linecap:butt;stroke-linejoin:miter;stroke:rgb(100%,78.039216%,17.254902%);stroke-opacity:1;stroke-miterlimit:4;" d="M 814.829625 181.914375 L 828.892125 161.21125 L 843.149937 181.914375 " transform="matrix(0.02,0,0,0.02,2.89872,4.1039)"/>
<path style="fill-rule:nonzero;fill:rgb(100%,78.039216%,17.254902%);fill-opacity:1;stroke-width:0.944;stroke-linecap:butt;stroke-linejoin:miter;stroke:rgb(0%,0%,0%);stroke-opacity:1;stroke-miterlimit:4;" d="M 831.6265 174.101875 C 832.40775 172.93 833.579625 172.539375 834.946812 172.734687 C 836.118687 173.125312 836.899937 174.297187 836.899937 175.469062 C 836.899937 176.83625 836.118687 177.812812 834.946812 178.203437 C 833.579625 178.594062 832.40775 178.008125 831.6265 176.83625 Z M 831.6265 174.101875 " transform="matrix(0.02,0,0,0.02,2.89872,4.1039)"/>
<path style="fill-rule:nonzero;fill:rgb(100%,78.039216%,17.254902%);fill-opacity:1;stroke-width:0.944;stroke-linecap:butt;stroke-linejoin:miter;stroke:rgb(0%,0%,0%);stroke-opacity:1;stroke-miterlimit:4;" d="M 817.368687 197.14875 L 839.243687 197.14875 C 839.243687 197.14875 839.634312 194.414375 837.09525 192.656562 C 848.423375 191.094062 845.493687 180.937812 855.064 180.351875 C 857.017125 180.7425 849.985875 184.64875 849.985875 184.64875 C 849.985875 184.64875 844.321812 188.750312 846.860875 190.89875 C 849.009312 192.46125 849.985875 189.726875 850.181187 187.77375 C 850.571812 185.820625 859.556187 184.453437 858.189 178.789375 C 856.040562 174.101875 843.540562 181.914375 843.540562 181.914375 L 834.556187 181.914375 C 833.97025 180.937812 831.431187 176.83625 828.892125 176.83625 C 825.962437 177.031562 823.814 181.914375 823.814 181.914375 L 803.5015 181.914375 C 803.5015 181.914375 802.72025 187.187812 813.071812 188.164375 C 815.415562 191.289375 817.173375 192.070625 819.1265 192.851875 C 817.759312 194.02375 817.368687 195.390937 817.368687 197.14875 Z M 818.931187 192.656562 L 837.290562 192.656562 M 810.728062 181.914375 C 810.728062 181.914375 812.09525 190.508125 818.931187 192.46125 " transform="matrix(0.02,0,0,0.02,2.89872,4.1039)"/>
<path style="fill-rule:nonzero;fill:url(#linear11);stroke-width:0.944;stroke-linecap:butt;stroke-linejoin:miter;stroke:rgb(0%,0%,0%);stroke-opacity:1;stroke-miterlimit:4;" d="M 809.556187 181.914375 C 810.142125 178.594062 811.509312 178.008125 812.8765 173.906562 C 813.071812 169.805 809.556187 170.390937 810.53275 167.656562 C 812.290562 164.922187 811.509312 162.187812 808.189 160.039375 C 808.774937 163.750312 803.696812 167.265937 803.696812 170.390937 C 803.696812 173.320625 806.235875 172.734687 806.040562 177.226875 C 806.235875 179.96125 805.259312 179.18 805.064 181.914375 Z M 809.556187 181.914375 " transform="matrix(0.02,0,0,0.02,2.89872,4.1039)"/>
<path style="fill-rule:nonzero;fill:rgb(100%,78.039216%,17.254902%);fill-opacity:1;stroke-width:0.944;stroke-linecap:butt;stroke-linejoin:miter;stroke:rgb(0%,0%,0%);stroke-opacity:1;stroke-miterlimit:4;" d="M 831.431187 161.601875 C 832.017125 160.625312 833.189 160.234687 834.360875 160.43 C 835.53275 160.820625 836.314 161.797187 836.314 162.969062 C 836.314 164.140937 835.53275 165.1175 834.360875 165.508125 C 833.189 165.703437 832.017125 165.312812 831.431187 164.140937 Z M 831.431187 161.601875 " transform="matrix(0.02,0,0,0.02,2.89872,4.1039)"/>
<path style="fill-rule:nonzero;fill:rgb(100%,78.039216%,17.254902%);fill-opacity:1;stroke-width:0.944;stroke-linecap:butt;stroke-linejoin:miter;stroke:rgb(0%,0%,0%);stroke-opacity:1;stroke-miterlimit:4;" d="M 915.820312 406.25 C 915.820312 406.25 921.484375 419.53125 928.125 411.328125 C 934.570312 403.320312 932.226562 399.804688 932.226562 399.804688 L 917.578125 391.992188 L 913.28125 400.976562 Z M 915.820312 406.25 " transform="matrix(0.02,0,0,0.02,0,0)"/>
<path style="fill-rule:nonzero;fill:rgb(100%,77.647059%,70.980392%);fill-opacity:1;stroke-width:0.944;stroke-linecap:butt;stroke-linejoin:miter;stroke:rgb(0%,0%,0%);stroke-opacity:1;stroke-miterlimit:4;" d="M 928.320312 404.492188 C 928.320312 404.492188 929.296875 404.6875 930.078125 403.320312 C 930.859375 401.953125 928.320312 401.171875 927.34375 399.609375 L 925.976562 402.148438 Z M 895.3125 401.171875 L 882.617188 408.007812 C 882.617188 408.007812 876.171875 409.375 875.78125 408.007812 C 875.195312 406.835938 875.976562 405.664062 879.296875 405.46875 C 882.617188 405.273438 891.601562 397.070312 891.601562 397.070312 Z M 895.507812 173.242188 C 895.507812 173.242188 895.898438 176.171875 896.09375 177.734375 C 896.289062 179.296875 893.554688 182.617188 893.359375 182.421875 C 893.164062 182.421875 891.992188 182.617188 891.992188 183.59375 C 892.1875 184.570312 894.140625 184.960938 894.140625 184.960938 C 894.140625 184.960938 893.359375 188.28125 894.140625 188.28125 C 894.921875 188.476562 891.992188 192.578125 894.140625 193.75 C 896.289062 194.921875 899.609375 196.289062 901.367188 195.898438 C 902.929688 195.703125 901.367188 202.148438 901.367188 202.148438 L 896.875 211.71875 L 921.289062 209.179688 L 916.210938 200.976562 C 916.210938 200.976562 913.867188 199.414062 914.453125 194.921875 C 915.039062 190.234375 914.0625 169.53125 914.0625 169.53125 L 896.679688 167.1875 Z M 891.210938 209.179688 C 891.210938 209.179688 883.203125 212.890625 883.59375 222.65625 C 881.445312 232.226562 880.273438 241.796875 880.273438 241.796875 C 880.273438 241.796875 871.09375 252.34375 868.164062 256.054688 C 865.234375 259.960938 861.132812 267.773438 859.375 269.726562 C 857.8125 271.875 851.757812 278.710938 851.757812 281.25 C 851.953125 283.789062 850.390625 294.921875 856.640625 296.289062 C 858.203125 296.875 863.28125 283.203125 863.28125 283.203125 C 863.28125 283.203125 863.476562 277.34375 861.914062 276.171875 C 860.15625 275.195312 865.625 271.289062 865.625 271.289062 C 865.625 271.289062 876.171875 263.671875 878.710938 261.71875 C 881.054688 259.765625 887.5 252.539062 887.5 252.539062 Z M 891.210938 209.179688 " transform="matrix(0.02,0,0,0.02,0,0)"/>
<path style="fill-rule:nonzero;fill:rgb(100%,100%,100%);fill-opacity:1;stroke-width:0.944;stroke-linecap:butt;stroke-linejoin:miter;stroke:rgb(0%,0%,0%);stroke-opacity:1;stroke-miterlimit:4;" d="M 900.195312 201.757812 C 900.195312 201.757812 902.148438 207.421875 906.835938 206.445312 C 911.328125 205.46875 916.796875 201.171875 916.796875 201.171875 C 916.796875 201.171875 921.09375 200.976562 921.679688 201.757812 C 922.265625 202.34375 933.203125 212.890625 933.007812 216.210938 C 932.617188 219.53125 927.929688 218.554688 926.171875 220.898438 C 924.414062 223.046875 921.484375 228.515625 922.265625 232.617188 C 923.046875 236.914062 925.585938 242.1875 925.195312 244.335938 C 924.804688 246.289062 923.046875 246.875 923.046875 248.046875 C 923.046875 249.21875 924.609375 251.171875 924.609375 253.125 C 924.609375 255.273438 922.65625 258.203125 923.046875 260.351562 C 923.242188 262.304688 923.4375 268.359375 923.4375 268.359375 L 923.046875 296.289062 C 923.046875 296.289062 924.609375 297.265625 924.804688 298.828125 C 924.804688 300.390625 935.546875 346.484375 935.546875 346.484375 C 935.546875 346.484375 934.960938 347.851562 933.984375 347.65625 C 932.8125 347.460938 938.085938 354.882812 938.28125 356.835938 C 938.476562 358.984375 943.945312 375.195312 943.75 377.34375 C 943.554688 379.492188 942.773438 384.375 942.382812 384.570312 C 941.796875 384.765625 945.703125 394.726562 945.117188 396.289062 C 944.53125 397.851562 938.085938 397.851562 938.085938 397.851562 L 936.328125 397.460938 C 936.328125 397.460938 936.523438 399.414062 935.15625 399.609375 C 933.984375 399.804688 924.609375 399.21875 924.609375 399.21875 C 924.609375 399.21875 921.875 403.320312 920.3125 403.125 C 918.75 402.929688 916.601562 400.195312 916.210938 400.585938 C 915.625 401.171875 917.578125 403.710938 917.1875 404.492188 C 916.601562 405.273438 908.59375 407.03125 907.03125 403.320312 C 905.46875 399.414062 908.007812 400.390625 907.421875 399.609375 C 907.03125 398.828125 903.320312 396.875 902.148438 397.460938 C 901.171875 398.046875 905.078125 399.023438 904.882812 400.585938 C 904.6875 402.148438 901.367188 404.492188 900.195312 404.492188 C 898.828125 404.492188 895.898438 398.632812 891.40625 399.414062 C 887.109375 400 884.179688 401.171875 884.179688 401.171875 C 884.179688 401.171875 878.90625 403.320312 876.757812 402.734375 C 874.414062 402.34375 873.632812 400.585938 873.632812 399.609375 C 873.632812 398.632812 875.195312 394.53125 875 393.359375 C 874.804688 391.992188 873.632812 390.820312 873.632812 388.867188 C 873.632812 386.914062 877.148438 380.46875 877.148438 380.46875 L 876.953125 351.367188 C 876.953125 351.367188 873.632812 351.367188 873.632812 349.21875 C 873.4375 347.265625 878.710938 303.125 879.492188 300.390625 C 880.273438 297.460938 882.226562 287.304688 882.226562 287.304688 C 882.226562 287.304688 879.882812 288.476562 879.6875 287.304688 C 879.492188 286.328125 886.914062 261.132812 886.914062 261.132812 C 886.914062 261.132812 888.085938 248.632812 888.085938 245.3125 C 888.085938 241.992188 887.5 237.304688 887.5 237.304688 C 887.5 237.304688 881.054688 234.570312 880.859375 230.273438 C 880.273438 223.632812 887.109375 219.921875 887.890625 217.578125 L 891.015625 208.789062 C 891.015625 208.789062 894.53125 202.734375 900.195312 201.757812 Z M 900.195312 201.757812 " transform="matrix(0.02,0,0,0.02,0,0)"/>
<path style="fill-rule:nonzero;fill:rgb(100%,78.039216%,17.254902%);fill-opacity:1;stroke-width:0.944;stroke-linecap:butt;stroke-linejoin:miter;stroke:rgb(0%,0%,0%);stroke-opacity:1;stroke-miterlimit:4;" d="M 897.851562 402.929688 C 897.851562 402.929688 882.421875 411.132812 880.273438 411.71875 C 877.929688 412.304688 876.5625 408.984375 878.710938 408.398438 C 881.054688 407.8125 884.570312 407.421875 884.570312 407.421875 C 884.570312 407.421875 879.296875 403.320312 879.492188 403.125 C 879.492188 402.929688 886.523438 400.390625 886.71875 400.390625 C 886.914062 400.390625 888.867188 404.492188 890.429688 404.296875 C 891.796875 403.90625 895.898438 400.78125 895.898438 400.78125 C 895.898438 400.78125 898.046875 403.320312 897.851562 402.929688 Z M 897.851562 402.929688 " transform="matrix(0.02,0,0,0.02,0,0)"/>
<path style="fill-rule:nonzero;fill:rgb(100%,77.647059%,70.980392%);fill-opacity:1;stroke-width:0.944;stroke-linecap:butt;stroke-linejoin:miter;stroke:rgb(0%,0%,0%);stroke-opacity:1;stroke-miterlimit:4;" d="M 919.335938 407.421875 C 920.898438 409.375 921.484375 412.5 924.804688 410.742188 C 928.125 408.789062 923.046875 405.273438 923.046875 405.273438 Z M 919.335938 407.421875 " transform="matrix(0.02,0,0,0.02,0,0)"/>
<path style="fill-rule:nonzero;fill:rgb(100%,77.647059%,70.980392%);fill-opacity:1;stroke-width:0.944;stroke-linecap:butt;stroke-linejoin:miter;stroke:rgb(0%,0%,0%);stroke-opacity:1;stroke-miterlimit:4;" d="M 925.585938 407.03125 C 925.585938 407.03125 927.148438 408.398438 928.515625 407.03125 C 929.882812 405.46875 925.585938 402.539062 925.585938 402.539062 L 923.632812 404.882812 Z M 932.226562 216.992188 C 932.421875 216.992188 937.5 232.617188 938.085938 236.523438 C 938.867188 240.625 940.820312 256.445312 940.039062 258.59375 C 939.257812 260.742188 931.25 271.484375 930.273438 274.21875 C 929.296875 276.757812 923.632812 287.109375 923.632812 287.109375 C 923.632812 287.109375 922.265625 297.265625 921.484375 297.65625 C 920.898438 298.242188 923.242188 300.78125 923.046875 301.5625 C 922.65625 302.539062 918.359375 306.835938 916.40625 306.445312 C 914.648438 306.054688 911.523438 303.710938 911.328125 301.757812 C 911.328125 299.609375 911.523438 292.773438 913.085938 291.015625 C 914.453125 289.257812 921.875 271.679688 922.265625 270.703125 C 922.851562 269.53125 929.101562 255.859375 929.296875 253.320312 C 929.492188 250.976562 927.34375 245.507812 925 243.554688 C 920.117188 228.90625 922.070312 219.921875 932.226562 216.992188 Z M 932.226562 216.992188 " transform="matrix(0.02,0,0,0.02,0,0)"/>
<path style="fill-rule:nonzero;fill:rgb(61.176471%,31.764706%,0%);fill-opacity:1;stroke-width:0.944;stroke-linecap:butt;stroke-linejoin:miter;stroke:rgb(0%,0%,0%);stroke-opacity:1;stroke-miterlimit:4;" d="M 895.117188 172.265625 C 895.117188 172.265625 898.632812 172.65625 900.390625 171.484375 C 902.34375 170.507812 904.6875 169.921875 906.25 172.265625 C 907.8125 174.414062 908.789062 174.21875 908.789062 174.21875 C 908.789062 174.21875 906.445312 180.078125 908.789062 180.664062 C 911.328125 181.445312 912.304688 181.445312 912.5 182.226562 C 912.695312 183.007812 910.546875 184.765625 911.132812 185.546875 C 911.71875 186.328125 912.890625 187.304688 913.085938 187.890625 C 913.085938 188.476562 911.523438 191.210938 912.109375 191.796875 C 912.5 192.382812 913.867188 194.921875 914.84375 194.921875 C 915.820312 194.921875 915.234375 199.023438 917.96875 198.046875 C 920.898438 197.070312 920.703125 194.53125 920.703125 194.53125 C 920.703125 194.53125 923.828125 194.140625 924.609375 191.40625 C 925.390625 188.671875 927.34375 188.085938 927.34375 188.085938 C 927.34375 188.085938 931.054688 185.9375 925.976562 182.8125 C 925.976562 160.546875 911.328125 163.085938 911.328125 163.085938 C 911.328125 163.085938 909.570312 158.984375 906.835938 159.570312 C 903.90625 159.960938 903.710938 163.28125 901.757812 163.085938 C 899.609375 162.695312 899.21875 161.328125 899.023438 161.523438 C 898.828125 161.523438 897.070312 164.84375 897.070312 165.625 C 897.070312 166.40625 891.601562 164.453125 891.992188 168.554688 C 892.578125 172.65625 895.3125 172.460938 895.117188 172.265625 Z M 895.117188 172.265625 " transform="matrix(0.02,0,0,0.02,0,0)"/>
<path style="fill:none;stroke-width:0.944;stroke-linecap:butt;stroke-linejoin:miter;stroke:rgb(0%,0%,0%);stroke-opacity:1;stroke-miterlimit:4;" d="M 920.703125 208.007812 C 920.703125 208.007812 906.640625 216.992188 907.03125 220.117188 M 923.828125 209.570312 C 923.828125 209.570312 920.703125 213.085938 920.507812 213.085938 M 928.125 213.476562 C 928.125 213.476562 921.289062 219.140625 922.265625 222.65625 M 895.3125 207.226562 C 895.3125 207.226562 893.164062 211.523438 893.75 212.890625 C 894.140625 214.257812 897.65625 219.726562 898.046875 223.046875 C 898.632812 226.367188 898.046875 228.710938 898.046875 228.710938 M 891.601562 215.039062 C 891.601562 215.039062 892.1875 220.117188 893.164062 221.09375 C 894.140625 222.070312 896.679688 226.367188 897.070312 228.125 M 890.429688 236.132812 C 890.429688 236.132812 894.53125 238.28125 898.242188 230.273438 M 904.492188 224.804688 C 904.296875 224.804688 901.367188 232.617188 906.445312 235.351562 C 911.523438 238.28125 915.429688 237.890625 917.578125 237.109375 C 919.726562 236.328125 922.265625 234.960938 922.265625 234.960938 M 902.148438 234.375 C 902.148438 234.375 902.539062 244.726562 917.96875 255.078125 M 902.929688 244.140625 C 902.929688 244.140625 902.734375 253.320312 908.789062 257.421875 M 899.609375 233.398438 C 899.609375 233.398438 895.117188 246.875 891.40625 248.4375 M 898.242188 243.359375 C 898.242188 243.359375 898.046875 253.125 896.875 256.640625 M 895.507812 258.984375 C 895.507812 258.984375 898.828125 262.890625 902.148438 262.695312 C 905.664062 262.304688 907.226562 258.203125 909.570312 258.789062 C 911.914062 259.570312 914.0625 261.328125 919.726562 260.9375 M 911.71875 265.039062 C 911.71875 265.039062 911.71875 273.046875 913.085938 273.828125 C 914.648438 274.609375 913.867188 282.03125 913.867188 282.03125 M 892.382812 261.132812 C 892.382812 261.132812 892.1875 268.75 891.210938 271.484375 C 890.429688 274.21875 888.476562 278.710938 888.671875 282.8125 M 882.8125 287.109375 C 883.59375 286.914062 886.132812 284.570312 886.132812 284.570312 M 887.695312 286.328125 C 887.695312 286.328125 880.859375 315.429688 882.8125 332.8125 M 889.257812 287.695312 C 889.257812 287.695312 885.742188 309.570312 887.304688 313.671875 M 887.5 287.109375 C 887.695312 287.109375 900.78125 288.085938 900.78125 288.085938 M 902.734375 286.328125 C 902.734375 286.328125 906.25 288.085938 911.328125 287.890625 M 901.171875 296.875 C 901.171875 296.875 900.390625 334.179688 899.609375 342.382812 M 920.507812 305.46875 C 920.507812 305.46875 924.804688 338.28125 927.148438 341.210938 M 912.695312 309.570312 C 912.695312 309.570312 915.234375 338.476562 916.601562 341.015625 M 876.757812 351.171875 C 876.757812 351.171875 881.640625 349.609375 886.132812 344.921875 C 891.210938 351.757812 898.828125 345.117188 898.828125 345.117188 C 898.828125 345.117188 910.9375 353.320312 916.40625 344.140625 C 924.609375 349.609375 928.710938 343.359375 928.710938 343.359375 C 928.710938 343.359375 931.640625 348.046875 933.984375 347.460938 M 920.703125 350.78125 C 920.703125 350.78125 926.953125 379.6875 936.132812 387.890625 M 888.867188 347.65625 C 888.867188 347.65625 889.648438 371.875 891.210938 389.0625 M 887.890625 375.195312 C 887.890625 375.195312 887.109375 391.015625 886.132812 391.992188 M 878.515625 393.554688 C 878.515625 393.554688 880.273438 400.390625 888.867188 394.140625 C 897.65625 387.695312 897.851562 396.484375 898.046875 397.460938 C 898.4375 398.4375 899.804688 405.273438 903.125 399.414062 M 910.15625 390.234375 C 910.15625 390.234375 908.789062 404.296875 921.289062 393.945312 C 933.789062 383.59375 935.742188 393.75 936.132812 396.875 M 910.351562 166.796875 C 910.351562 166.796875 909.179688 173.828125 916.601562 173.242188 C 915.625 176.953125 918.554688 178.125 918.554688 178.125 M 924.023438 182.421875 C 924.21875 182.421875 927.34375 184.570312 923.828125 187.109375 M 913.28125 188.085938 C 913.28125 188.085938 914.84375 189.84375 916.601562 189.453125 C 918.359375 189.0625 921.289062 191.210938 921.289062 191.210938 C 921.289062 191.210938 923.632812 191.992188 923.828125 191.601562 M 903.710938 194.140625 C 903.710938 194.140625 908.984375 196.09375 912.5 187.5 M 893.75 184.960938 L 896.875 185.15625 M 858.59375 284.960938 L 858.789062 291.796875 M 851.953125 284.375 C 851.953125 284.375 856.445312 291.796875 856.054688 295.898438 " transform="matrix(0.02,0,0,0.02,0,0)"/>
<path style="fill:none;stroke-width:0.944;stroke-linecap:butt;stroke-linejoin:round;stroke:rgb(0%,0%,0%);stroke-opacity:1;stroke-miterlimit:4;" d="M 894.140625 188.28125 L 897.070312 188.28125 L 894.53125 189.257812 M 911.71875 300 C 911.71875 300 915.039062 299.609375 914.84375 305.078125 C 916.992188 298.242188 921.289062 298.046875 921.289062 298.046875 " transform="matrix(0.02,0,0,0.02,0,0)"/>
<path style="fill:none;stroke-width:1.699;stroke-linecap:butt;stroke-linejoin:round;stroke:rgb(0%,0%,0%);stroke-opacity:1;stroke-miterlimit:4;" d="M 898.046875 179.296875 C 898.632812 179.296875 900.390625 178.710938 900.585938 179.101562 C 900.976562 179.6875 898.828125 179.882812 898.046875 179.296875 Z M 898.046875 179.296875 " transform="matrix(0.02,0,0,0.02,0,0)"/>
<path style="fill-rule:nonzero;fill:rgb(100%,78.039216%,17.254902%);fill-opacity:1;stroke-width:1.887;stroke-linecap:butt;stroke-linejoin:miter;stroke:rgb(0%,0%,0%);stroke-opacity:1;stroke-miterlimit:4;" d="M 900.390625 458.59375 C 967.1875 456.640625 1010.351562 408.398438 1009.960938 408.007812 C 1009.375 407.421875 1018.75 394.53125 1026.171875 396.289062 C 1033.59375 398.242188 1044.335938 420.117188 1057.226562 424.609375 C 1063.867188 434.960938 1055.46875 444.140625 1052.734375 446.09375 C 1049.804688 447.851562 1037.304688 452.929688 1035.546875 445.507812 C 1033.59375 438.085938 1029.882812 439.453125 1029.882812 439.453125 C 1029.882812 439.453125 970.507812 497.65625 901.757812 495.3125 C 830.664062 495.703125 772.070312 439.453125 772.070312 439.453125 L 766.992188 445.117188 C 766.992188 445.117188 761.328125 451.171875 758.59375 450.585938 C 755.859375 450.195312 743.75 442.382812 742.773438 434.375 C 741.796875 426.5625 750.195312 421.484375 750.195312 421.484375 C 750.195312 421.484375 770.703125 405.664062 773.046875 397.265625 C 777.734375 392.578125 786.523438 400.585938 786.523438 400.585938 C 786.523438 400.585938 840.429688 462.304688 900.390625 458.59375 Z M 900.390625 458.59375 " transform="matrix(0.02,0,0,0.02,0,0)"/>
<path style="fill:none;stroke-width:1.887;stroke-linecap:butt;stroke-linejoin:miter;stroke:rgb(0%,0%,0%);stroke-opacity:1;stroke-miterlimit:4;" d="M 748.828125 422.65625 C 748.828125 422.65625 754.296875 421.09375 756.445312 423.4375 C 758.398438 425.78125 772.265625 439.453125 772.265625 439.453125 " transform="matrix(0.02,0,0,0.02,0,0)"/>
<path style="fill:none;stroke-width:1.887;stroke-linecap:butt;stroke-linejoin:miter;stroke:rgb(0%,0%,0%);stroke-opacity:1;stroke-miterlimit:4;" d="M 761.523438 429.101562 L 755.859375 433.203125 C 755.859375 433.203125 769.921875 435.9375 766.796875 445.117188 M 1052.34375 422.265625 C 1052.34375 422.265625 1049.609375 420.703125 1045.3125 424.023438 C 1040.820312 427.148438 1029.882812 439.453125 1029.882812 439.453125 " transform="matrix(0.02,0,0,0.02,0,0)"/>
<path style="fill:none;stroke-width:1.887;stroke-linecap:butt;stroke-linejoin:miter;stroke:rgb(0%,0%,0%);stroke-opacity:1;stroke-miterlimit:4;" d="M 1039.84375 428.710938 L 1045.898438 433.398438 C 1045.898438 433.398438 1033.398438 434.179688 1036.132812 446.09375 " transform="matrix(0.02,0,0,0.02,0,0)"/>
<path style=" stroke:none;fill-rule:nonzero;fill:rgb(0%,0%,0%);fill-opacity:1;" d="M 16.394531 8.746094 C 16.386719 8.769531 16.367188 8.746094 16.351562 8.75 C 16.308594 8.753906 16.273438 8.78125 16.238281 8.800781 L 15.871094 9.015625 C 15.859375 9.007812 15.859375 9 15.863281 8.988281 C 15.898438 8.835938 15.929688 8.683594 15.960938 8.53125 C 15.96875 8.503906 15.976562 8.46875 15.949219 8.449219 C 15.9375 8.441406 15.957031 8.425781 15.964844 8.441406 L 16.152344 8.574219 C 16.144531 8.59375 16.132812 8.582031 16.125 8.574219 C 16.097656 8.546875 16.066406 8.570312 16.066406 8.601562 C 16.046875 8.703125 16.023438 8.804688 16 8.90625 C 16.085938 8.855469 16.167969 8.808594 16.25 8.757812 C 16.28125 8.746094 16.300781 8.707031 16.273438 8.679688 C 16.261719 8.675781 16.242188 8.65625 16.261719 8.652344 Z M 16.527344 9.386719 C 16.523438 9.398438 16.515625 9.402344 16.507812 9.394531 L 16.285156 9.273438 C 16.289062 9.261719 16.292969 9.257812 16.304688 9.265625 C 16.324219 9.28125 16.355469 9.285156 16.371094 9.261719 C 16.402344 9.214844 16.425781 9.164062 16.453125 9.117188 C 16.488281 9.046875 16.527344 8.980469 16.5625 8.910156 C 16.582031 8.886719 16.5625 8.855469 16.539062 8.847656 C 16.53125 8.84375 16.519531 8.839844 16.527344 8.828125 C 16.53125 8.824219 16.542969 8.835938 16.550781 8.835938 L 16.761719 8.953125 C 16.757812 8.964844 16.753906 8.96875 16.746094 8.960938 C 16.722656 8.945312 16.691406 8.941406 16.675781 8.964844 C 16.648438 9.011719 16.621094 9.0625 16.59375 9.109375 C 16.558594 9.179688 16.519531 9.246094 16.484375 9.3125 C 16.46875 9.339844 16.488281 9.371094 16.511719 9.378906 Z M 17.378906 9.1875 L 17.316406 9.355469 C 17.292969 9.355469 17.308594 9.324219 17.300781 9.304688 C 17.292969 9.230469 17.238281 9.160156 17.160156 9.144531 C 17.101562 9.125 17.039062 9.15625 17.007812 9.203125 C 16.953125 9.273438 16.921875 9.359375 16.917969 9.449219 C 16.914062 9.5 16.9375 9.550781 16.980469 9.574219 C 17.015625 9.597656 17.058594 9.609375 17.097656 9.605469 C 17.113281 9.5625 17.128906 9.523438 17.144531 9.480469 C 17.148438 9.449219 17.117188 9.433594 17.09375 9.425781 C 17.089844 9.417969 17.101562 9.410156 17.109375 9.417969 L 17.332031 9.496094 C 17.328125 9.523438 17.296875 9.496094 17.28125 9.503906 C 17.253906 9.515625 17.25 9.546875 17.242188 9.570312 L 17.214844 9.648438 C 17.113281 9.65625 17.011719 9.632812 16.925781 9.582031 C 16.84375 9.53125 16.785156 9.429688 16.804688 9.328125 C 16.816406 9.242188 16.867188 9.164062 16.949219 9.125 C 17.019531 9.085938 17.109375 9.089844 17.183594 9.117188 C 17.226562 9.132812 17.261719 9.15625 17.292969 9.1875 C 17.3125 9.210938 17.347656 9.210938 17.363281 9.183594 L 17.378906 9.1875 M 17.738281 9.765625 C 17.734375 9.773438 17.734375 9.78125 17.722656 9.777344 L 17.472656 9.738281 C 17.472656 9.730469 17.472656 9.722656 17.484375 9.726562 C 17.507812 9.730469 17.535156 9.730469 17.546875 9.707031 C 17.554688 9.671875 17.558594 9.636719 17.566406 9.601562 C 17.578125 9.503906 17.59375 9.40625 17.609375 9.3125 C 17.613281 9.289062 17.605469 9.265625 17.585938 9.257812 C 17.574219 9.253906 17.558594 9.25 17.546875 9.25 C 17.546875 9.238281 17.546875 9.230469 17.558594 9.238281 L 17.8125 9.273438 C 17.808594 9.285156 17.808594 9.292969 17.796875 9.289062 C 17.777344 9.28125 17.746094 9.285156 17.738281 9.304688 C 17.726562 9.339844 17.722656 9.375 17.71875 9.410156 C 17.703125 9.507812 17.6875 9.605469 17.671875 9.703125 C 17.667969 9.722656 17.675781 9.746094 17.699219 9.753906 C 17.710938 9.761719 17.722656 9.761719 17.738281 9.765625 Z M 18.417969 9.597656 L 18.410156 9.777344 L 17.957031 9.800781 C 17.957031 9.789062 17.957031 9.785156 17.96875 9.785156 C 17.992188 9.785156 18.023438 9.777344 18.023438 9.75 C 18.027344 9.707031 18.023438 9.660156 18.019531 9.617188 C 18.015625 9.527344 18.011719 9.441406 18.007812 9.351562 C 18.007812 9.324219 17.984375 9.304688 17.960938 9.304688 C 17.953125 9.300781 17.929688 9.3125 17.933594 9.300781 C 17.929688 9.289062 17.945312 9.292969 17.953125 9.292969 L 18.203125 9.277344 C 18.207031 9.289062 18.203125 9.296875 18.191406 9.292969 C 18.167969 9.292969 18.136719 9.300781 18.132812 9.324219 C 18.128906 9.363281 18.132812 9.402344 18.132812 9.441406 C 18.140625 9.535156 18.144531 9.625 18.148438 9.71875 C 18.148438 9.742188 18.167969 9.765625 18.191406 9.757812 C 18.226562 9.757812 18.265625 9.757812 18.300781 9.75 C 18.351562 9.738281 18.378906 9.6875 18.390625 9.640625 C 18.402344 9.628906 18.394531 9.597656 18.414062 9.597656 L 18.417969 9.597656 M 18.769531 9.164062 C 18.757812 9.164062 18.765625 9.179688 18.761719 9.1875 C 18.742188 9.335938 18.722656 9.488281 18.703125 9.636719 C 18.695312 9.667969 18.6875 9.707031 18.65625 9.726562 C 18.644531 9.730469 18.652344 9.75 18.664062 9.738281 L 18.816406 9.691406 C 18.8125 9.667969 18.785156 9.691406 18.769531 9.6875 C 18.734375 9.6875 18.730469 9.644531 18.734375 9.617188 L 18.738281 9.5625 L 18.914062 9.511719 C 18.933594 9.539062 18.957031 9.566406 18.980469 9.59375 C 18.992188 9.625 18.957031 9.636719 18.9375 9.640625 C 18.925781 9.644531 18.933594 9.664062 18.945312 9.652344 L 19.171875 9.585938 C 19.171875 9.5625 19.136719 9.585938 19.125 9.566406 C 19.082031 9.535156 19.050781 9.492188 19.015625 9.453125 Z M 18.769531 9.34375 L 18.890625 9.488281 L 18.746094 9.535156 Z M 19.542969 8.828125 L 19.605469 8.949219 C 19.585938 8.964844 19.578125 8.925781 19.558594 8.917969 C 19.527344 8.894531 19.480469 8.890625 19.449219 8.910156 C 19.433594 8.917969 19.421875 8.925781 19.40625 8.933594 C 19.472656 9.054688 19.539062 9.175781 19.605469 9.296875 C 19.613281 9.328125 19.652344 9.335938 19.675781 9.316406 C 19.6875 9.308594 19.695312 9.304688 19.699219 9.320312 C 19.664062 9.339844 19.628906 9.359375 19.59375 9.375 L 19.464844 9.445312 C 19.453125 9.4375 19.460938 9.429688 19.472656 9.425781 C 19.503906 9.414062 19.515625 9.378906 19.496094 9.351562 C 19.429688 9.230469 19.363281 9.109375 19.300781 8.992188 C 19.265625 9.011719 19.21875 9.027344 19.210938 9.074219 C 19.199219 9.101562 19.214844 9.136719 19.214844 9.160156 C 19.203125 9.171875 19.199219 9.15625 19.195312 9.148438 L 19.140625 9.042969 Z M 19.847656 8.648438 L 19.972656 8.8125 C 20 8.792969 20.023438 8.761719 20.015625 8.726562 C 20.019531 8.695312 19.980469 8.664062 19.992188 8.644531 C 20.003906 8.640625 20.007812 8.660156 20.015625 8.667969 L 20.15625 8.855469 C 20.140625 8.875 20.125 8.832031 20.105469 8.828125 C 20.078125 8.808594 20.039062 8.800781 20.007812 8.820312 C 19.988281 8.828125 19.988281 8.839844 20.003906 8.855469 C 20.035156 8.898438 20.066406 8.941406 20.101562 8.984375 C 20.125 9.003906 20.152344 8.980469 20.171875 8.96875 C 20.21875 8.933594 20.261719 8.882812 20.257812 8.824219 C 20.261719 8.796875 20.246094 8.765625 20.246094 8.746094 C 20.253906 8.730469 20.257812 8.753906 20.265625 8.761719 L 20.332031 8.882812 L 19.980469 9.144531 C 19.964844 9.136719 19.980469 9.128906 19.988281 9.121094 C 20.023438 9.101562 20.011719 9.058594 19.988281 9.039062 C 19.914062 8.9375 19.839844 8.839844 19.765625 8.742188 C 19.746094 8.714844 19.707031 8.726562 19.6875 8.746094 C 19.679688 8.757812 19.667969 8.734375 19.683594 8.734375 L 20.015625 8.484375 L 20.105469 8.605469 C 20.085938 8.625 20.066406 8.578125 20.042969 8.574219 C 19.996094 8.550781 19.945312 8.570312 19.910156 8.597656 C 19.890625 8.613281 19.867188 8.632812 19.847656 8.648438 "/>
</g>
</svg>
