<?xml version="1.0" encoding="UTF-8"?>
<svg xmlns="http://www.w3.org/2000/svg" xmlns:xlink="http://www.w3.org/1999/xlink" width="24px" height="24px" viewBox="0 0 24 15" version="1.1">
<g id="surface1">
<rect x="0" y="0" width="24" height="15" style="fill:rgb(100%,100%,100%);fill-opacity:1;stroke:none;"/>
<path style="fill-rule:nonzero;fill:rgb(21.176471%,58.039216%,26.27451%);fill-opacity:1;stroke-width:3;stroke-linecap:butt;stroke-linejoin:miter;stroke:rgb(0.392157%,0%,0.784314%);stroke-opacity:1;stroke-miterlimit:10;" d="M 1886.003941 1567.646833 C 1886.003941 1567.646833 1884.966344 1560.5635 1898.247594 1555.472354 C 1911.528844 1550.381208 1912.566441 1531.34475 1909.868688 1518.506208 C 1909.868688 1518.506208 1902.813023 1530.680687 1894.512242 1534.665062 C 1894.512242 1534.665062 1880.815953 1541.748396 1880.193395 1555.472354 C 1880.193395 1555.472354 1879.985875 1560.5635 1878.948277 1564.326521 C 1878.533238 1566.540062 1872.307652 1547.28225 1883.928746 1532.894229 C 1895.757359 1518.284854 1899.077672 1506.331729 1889.531773 1482.868187 C 1889.531773 1482.868187 1888.701695 1497.034854 1879.363316 1505.224958 C 1870.232457 1513.193708 1868.98734 1513.857771 1869.194859 1533.115583 C 1869.194859 1533.115583 1869.194859 1539.756208 1865.667027 1541.96975 C 1865.667027 1541.96975 1858.403844 1531.34475 1856.536168 1524.482771 C 1854.668492 1517.399437 1853.838414 1514.521833 1862.139195 1506.331729 C 1862.139195 1506.331729 1888.494176 1489.287458 1869.402379 1451.878604 C 1869.402379 1451.878604 1868.77982 1464.717146 1859.648961 1472.464542 C 1850.518102 1479.990583 1851.34818 1485.081729 1850.933141 1498.362979 C 1850.310582 1511.644229 1849.480504 1510.537458 1848.442906 1512.529646 C 1848.442906 1512.529646 1831.633824 1481.540062 1844.707555 1465.159854 C 1857.573766 1448.558292 1864.836949 1445.237979 1850.518102 1414.691104 C 1850.518102 1414.691104 1851.14066 1430.40725 1839.727086 1438.154646 C 1828.313512 1445.902042 1831.011266 1464.053083 1831.011266 1464.053083 C 1831.011266 1464.053083 1831.633824 1470.915062 1829.351109 1475.784854 C 1829.351109 1475.784854 1813.164586 1444.131208 1828.521031 1427.308292 C 1841.594762 1412.698917 1842.632359 1402.737979 1835.576695 1382.152042 C 1835.576695 1382.152042 1834.539098 1391.670271 1827.483434 1396.761417 C 1820.22025 1401.852562 1814.409703 1406.943708 1815.65482 1426.644229 C 1815.65482 1426.644229 1816.277379 1440.589542 1814.617223 1444.352562 C 1814.617223 1444.352562 1807.769078 1431.956729 1805.901402 1423.545271 C 1803.826207 1415.355167 1803.203648 1410.485375 1808.184117 1402.295271 C 1813.164586 1394.105167 1833.086461 1370.420271 1809.429234 1336.553083 C 1809.429234 1336.553083 1808.599156 1347.620792 1802.58109 1357.360375 C 1796.563023 1367.321312 1799.260777 1379.274437 1800.713414 1388.128604 C 1801.958531 1397.204125 1797.600621 1405.836937 1797.600621 1405.836937 C 1797.600621 1405.836937 1787.224645 1387.021833 1789.507359 1365.329125 C 1791.790074 1343.415062 1782.866734 1325.706729 1762.73734 1312.646833 C 1762.73734 1312.646833 1748.210973 1346.514021 1768.132848 1363.779646 C 1768.132848 1363.779646 1785.149449 1380.602562 1789.29984 1400.967146 C 1789.29984 1400.967146 1776.433629 1399.639021 1764.812535 1377.060896 C 1753.191441 1354.261417 1728.911656 1358.024437 1727.45902 1357.803083 C 1727.45902 1357.803083 1731.401891 1392.777042 1768.547887 1402.737979 C 1768.547887 1402.737979 1792.205113 1406.943708 1796.770543 1424.209333 C 1796.770543 1424.209333 1800.713414 1436.162458 1802.37357 1442.581729 C 1802.37357 1442.581729 1794.695348 1439.704125 1787.847203 1429.300479 C 1780.999059 1419.118187 1781.829137 1417.790062 1758.37943 1415.576521 C 1758.37943 1415.576521 1748.833531 1414.46975 1743.853063 1407.829125 C 1743.853063 1407.829125 1753.814 1445.016625 1779.131383 1444.573917 C 1779.131383 1444.573917 1802.37357 1442.139021 1815.239781 1472.464542 C 1815.239781 1472.464542 1812.749547 1470.915062 1809.429234 1468.701521 C 1805.901402 1466.266625 1797.393102 1462.060896 1780.3765 1464.053083 C 1763.567418 1466.045271 1758.794469 1463.167667 1754.436559 1461.839542 C 1754.436559 1461.839542 1771.66068 1493.271833 1795.732945 1483.974958 C 1820.01273 1474.678083 1831.633824 1508.545271 1832.048863 1509.209333 C 1832.048863 1509.209333 1828.728551 1506.774437 1824.370641 1502.568708 C 1820.22025 1498.362979 1811.29691 1493.271833 1794.487828 1498.584333 C 1794.487828 1498.584333 1782.451695 1503.232771 1770.208043 1499.46975 C 1770.208043 1499.46975 1782.036656 1522.269229 1809.429234 1518.284854 C 1837.029332 1514.521833 1844.084996 1538.649437 1844.084996 1538.649437 C 1844.084996 1538.649437 1840.349645 1536.65725 1837.85941 1534.443708 C 1835.369176 1532.451521 1826.030797 1527.139021 1806.108922 1533.115583 C 1786.187047 1539.092146 1778.923863 1532.230167 1778.923863 1532.230167 C 1778.923863 1532.230167 1790.129918 1552.373396 1811.29691 1554.808292 C 1811.29691 1554.808292 1823.125523 1554.586937 1828.105992 1552.816104 C 1833.086461 1550.823917 1846.367711 1547.946312 1855.49857 1561.006208 C 1855.49857 1561.006208 1853.008336 1561.670271 1849.272984 1559.899437 C 1849.272984 1559.899437 1834.954137 1554.808292 1824.370641 1563.662458 C 1824.370641 1563.662458 1814.617223 1573.623396 1801.128453 1571.631208 C 1801.128453 1571.631208 1818.767613 1588.675479 1846.57523 1574.287458 C 1846.57523 1574.287458 1855.913609 1567.425479 1862.969273 1572.737979 C 1869.817418 1578.050479 1886.003941 1567.646833 1886.003941 1567.646833 Z M 1886.003941 1567.646833 " transform="matrix(0.0188235,0,0,0.0176471,-28.012969,-17.508106)"/>
<path style="fill-rule:nonzero;fill:rgb(95.686275%,77.254902%,23.921569%);fill-opacity:1;stroke-width:3;stroke-linecap:butt;stroke-linejoin:miter;stroke:rgb(0.392157%,0%,0.784314%);stroke-opacity:1;stroke-miterlimit:10;" d="M 2041.021031 1146.631208 C 2041.021031 1146.631208 2037.908238 1117.855167 2060.942906 1114.977562 C 2085.015172 1112.099958 2097.051305 1117.191104 2097.051305 1117.191104 L 2107.84232 1138.441104 L 2104.106969 1152.607771 L 2089.165563 1159.46975 C 2089.165563 1159.46975 2091.655797 1137.555687 2071.526402 1137.112979 C 2066.338414 1136.891625 2063.433141 1139.105167 2055.339879 1137.777042 C 2047.246617 1136.448917 2042.888707 1145.303083 2041.021031 1146.631208 Z M 2041.021031 1146.631208 " transform="matrix(0.0188235,0,0,0.0176471,-28.012969,-17.508106)"/>
<path style="fill-rule:nonzero;fill:rgb(95.686275%,77.254902%,23.921569%);fill-opacity:1;stroke-width:3;stroke-linecap:butt;stroke-linejoin:miter;stroke:rgb(0.392157%,0%,0.784314%);stroke-opacity:1;stroke-miterlimit:10;" d="M 2203.716344 1218.128604 C 2200.188512 1222.777042 2186.492223 1224.326521 2186.492223 1224.326521 C 2186.492223 1224.326521 2200.603551 1235.172875 2206.621617 1250.667667 C 2212.847203 1266.162458 2042.473668 1250.667667 2042.473668 1250.667667 C 2042.473668 1250.667667 2049.944371 1245.355167 2054.92484 1235.615583 C 2054.92484 1235.615583 2047.454137 1238.271833 2039.983434 1230.967146 C 2039.983434 1230.967146 2045.586461 1232.737979 2052.849645 1221.448917 C 2052.849645 1221.448917 2063.84818 1207.503604 2071.526402 1203.740583 C 2071.526402 1203.740583 2067.99857 1205.954125 2059.49027 1201.305687 C 2059.49027 1201.305687 2074.224156 1199.534854 2079.412145 1174.300479 C 2079.412145 1174.300479 2080.242223 1168.766625 2085.84525 1160.576521 C 2091.448277 1152.607771 2090.41068 1162.126 2100.786656 1149.730167 C 2100.786656 1149.730167 2105.352086 1140.876 2101.201695 1135.5635 C 2097.051305 1130.251 2092.693395 1132.243187 2083.977574 1126.930687 C 2075.469273 1121.839542 2071.526402 1118.961937 2074.431676 1110.993187 C 2077.544469 1103.024437 2085.222691 1104.131208 2086.260289 1104.131208 C 2087.297887 1104.131208 2087.920445 1097.269229 2097.258824 1092.399437 C 2106.804723 1087.751 2131.914586 1089.743187 2135.649938 1091.956729 C 2139.385289 1093.948917 2154.534215 1098.376 2163.250035 1120.732771 C 2172.173375 1143.089542 2160.96732 1151.501 2185.039586 1185.368187 C 2185.039586 1185.368187 2175.493688 1187.360375 2169.268102 1185.589542 C 2169.268102 1185.589542 2181.719273 1207.724958 2203.716344 1218.128604 Z M 2203.716344 1218.128604 " transform="matrix(0.0188235,0,0,0.0176471,-28.012969,-17.508106)"/>
<path style="fill:none;stroke-width:3;stroke-linecap:butt;stroke-linejoin:miter;stroke:rgb(0.392157%,0%,0.784314%);stroke-opacity:1;stroke-miterlimit:10;" d="M 2098.296422 1123.831729 C 2078.789586 1122.946312 2086.260289 1104.131208 2086.260289 1104.131208 " transform="matrix(0.0188235,0,0,0.0176471,-28.012969,-17.508106)"/>
<path style="fill-rule:nonzero;fill:rgb(95.686275%,77.254902%,23.921569%);fill-opacity:1;stroke-width:3;stroke-linecap:butt;stroke-linejoin:miter;stroke:rgb(0.392157%,0%,0.784314%);stroke-opacity:1;stroke-miterlimit:10;" d="M 2132.329625 1126.487979 C 2132.329625 1126.487979 2129.009313 1124.717146 2126.104039 1120.954125 C 2121.953648 1115.420271 2112.61527 1112.764021 2107.84232 1117.855167 C 2107.84232 1117.855167 2102.654332 1123.610375 2098.296422 1123.831729 C 2098.296422 1123.831729 2103.276891 1125.381208 2106.804723 1128.480167 C 2110.332555 1131.800479 2113.860387 1134.014021 2119.048375 1133.349958 C 2124.236363 1132.685896 2125.066441 1130.029646 2127.556676 1128.258812 C 2129.839391 1126.709333 2132.329625 1126.487979 2132.329625 1126.487979 Z M 2132.329625 1126.487979 " transform="matrix(0.0188235,0,0,0.0176471,-28.012969,-17.508106)"/>
<path style="fill-rule:nonzero;fill:rgb(95.686275%,77.254902%,23.921569%);fill-opacity:1;stroke-width:3;stroke-linecap:butt;stroke-linejoin:miter;stroke:rgb(0.392157%,0%,0.784314%);stroke-opacity:1;stroke-miterlimit:4;" d="M 2259.954137 1405.836937 C 2259.954137 1405.836937 2278.215855 1420.667667 2293.572301 1405.836937 C 2293.572301 1405.836937 2299.797887 1413.141625 2312.249059 1411.149437 C 2324.492711 1408.935896 2326.567906 1402.295271 2327.813023 1398.53225 C 2327.813023 1398.53225 2338.604039 1404.951521 2347.527379 1399.860375 C 2356.658238 1394.990583 2356.658238 1387.464542 2356.658238 1387.464542 C 2356.658238 1387.464542 2372.429723 1390.5635 2380.522984 1379.9385 C 2388.408727 1369.3135 2383.635777 1358.6885 2379.277867 1357.581729 C 2379.277867 1357.581729 2396.294469 1362.008812 2400.859898 1347.399437 C 2404.80277 1335.003604 2395.87943 1328.584333 2395.87943 1328.584333 C 2395.87943 1328.584333 2431.780309 1328.362979 2446.514195 1317.073917 C 2446.514195 1317.073917 2458.757848 1309.547875 2451.494664 1301.357771 C 2451.494664 1301.357771 2483.660191 1296.266625 2491.753453 1283.428083 C 2491.753453 1283.428083 2495.281285 1279.886417 2494.036168 1273.6885 C 2494.036168 1273.6885 2493.828648 1270.146833 2490.300816 1269.925479 C 2490.300816 1269.925479 2527.239293 1264.170271 2537.822789 1251.995792 C 2537.822789 1251.995792 2542.803258 1246.461937 2540.313023 1238.935896 C 2540.313023 1238.935896 2539.690465 1237.165062 2538.860387 1235.836937 C 2538.860387 1235.836937 2572.478551 1228.753604 2588.872594 1213.701521 C 2588.872594 1213.701521 2598.418492 1205.290062 2593.438023 1193.779646 C 2593.438023 1193.779646 2649.468297 1178.506208 2636.394566 1153.935896 C 2636.394566 1153.935896 2662.542027 1145.524437 2654.448766 1121.839542 C 2654.448766 1121.839542 2676.030797 1110.771833 2666.484898 1093.506208 C 2657.561559 1076.683292 2629.753941 1096.383812 2596.965855 1105.459333 C 2596.965855 1105.459333 2508.147496 1133.349958 2464.360875 1140.876 L 2339.849156 1325.928083 L 2267.42484 1354.040062 Z M 2259.954137 1405.836937 " transform="matrix(0.0188235,0,0,0.0176471,-28.012969,-17.508106)"/>
<path style="fill-rule:nonzero;fill:rgb(95.686275%,77.254902%,23.921569%);fill-opacity:1;stroke-width:3;stroke-linecap:butt;stroke-linejoin:miter;stroke:rgb(0.392157%,0%,0.784314%);stroke-opacity:1;stroke-miterlimit:4;" d="M 2259.124059 1269.482771 C 2259.124059 1269.482771 2270.745152 1260.628604 2291.497105 1271.03225 C 2291.497105 1271.03225 2298.55277 1275.680687 2304.155797 1270.368187 C 2308.721227 1266.162458 2309.136266 1257.972354 2302.70316 1253.323917 C 2287.346715 1241.8135 2281.536168 1207.28225 2305.193395 1192.894229 C 2305.193395 1192.894229 2339.434117 1172.751 2464.775914 1140.654646 C 2464.775914 1140.654646 2475.35941 1137.777042 2480.962438 1139.105167 C 2487.188023 1140.654646 2491.338414 1145.967146 2492.168492 1150.615583 C 2492.168492 1150.615583 2497.77152 1166.553083 2478.887242 1175.628604 C 2478.887242 1175.628604 2470.378941 1179.612979 2461.663121 1182.047875 C 2461.663121 1182.047875 2471.20902 1180.055687 2475.35941 1189.573917 C 2479.302281 1198.649437 2473.699254 1207.946312 2455.852574 1213.922875 C 2455.852574 1213.922875 2451.079625 1215.915062 2444.439 1217.464542 C 2444.439 1217.464542 2459.587926 1221.891625 2452.117223 1234.066104 C 2452.117223 1234.066104 2445.684117 1246.904646 2422.856969 1249.118187 C 2422.856969 1249.118187 2439.87357 1251.110375 2427.837438 1267.269229 C 2427.837438 1267.269229 2422.44193 1276.123396 2405.840367 1279.443708 C 2405.840367 1279.443708 2418.499059 1279.886417 2412.065953 1291.396833 C 2405.632848 1302.685896 2390.691441 1309.105167 2375.957555 1310.211937 C 2375.957555 1310.211937 2367.864293 1310.654646 2362.261266 1309.326521 C 2362.261266 1309.326521 2376.372594 1316.409854 2368.071813 1328.141625 C 2368.071813 1328.141625 2362.053746 1336.553083 2346.697301 1336.110375 C 2346.697301 1336.110375 2350.640172 1349.391625 2339.434117 1354.261417 C 2330.718297 1358.245792 2323.455113 1352.047875 2323.455113 1352.047875 C 2323.455113 1352.047875 2326.567906 1366.214542 2313.909215 1371.084333 C 2313.909215 1371.084333 2307.476109 1374.404646 2298.13773 1371.084333 C 2298.13773 1371.084333 2290.874547 1387.243187 2265.142125 1375.954125 C 2239.409703 1364.665062 2259.124059 1269.482771 2259.124059 1269.482771 Z M 2259.124059 1269.482771 " transform="matrix(0.0188235,0,0,0.0176471,-28.012969,-17.508106)"/>
<path style="fill:none;stroke-width:3;stroke-linecap:butt;stroke-linejoin:miter;stroke:rgb(0.392157%,0%,0.784314%);stroke-opacity:1;stroke-miterlimit:4;" d="M 2654.448766 1121.839542 C 2654.448766 1121.839542 2613.982457 1145.081729 2488.433141 1168.545271 " transform="matrix(0.0188235,0,0,0.0176471,-28.012969,-17.508106)"/>
<path style="fill-rule:nonzero;fill:rgb(95.686275%,77.254902%,23.921569%);fill-opacity:1;stroke-width:3;stroke-linecap:butt;stroke-linejoin:miter;stroke:rgb(0.392157%,0%,0.784314%);stroke-opacity:1;stroke-miterlimit:4;" d="M 1934.355992 1534.665062 C 1934.355992 1534.665062 1919.414586 1560.342146 1901.360387 1560.784854 C 1901.360387 1560.784854 1870.232457 1556.800479 1861.516637 1564.990583 C 1855.291051 1570.745792 1849.065465 1575.394229 1846.57523 1589.78225 C 1843.877477 1604.391625 1851.34818 1607.490583 1853.215855 1608.154646 C 1853.215855 1608.154646 1854.460973 1618.558292 1864.836949 1615.680687 C 1864.836949 1615.680687 1865.459508 1626.527042 1883.513707 1621.435896 C 1901.567906 1616.123396 1909.038609 1617.894229 1912.566441 1599.743187 C 1916.094273 1581.8135 1919.414586 1582.034854 1922.527379 1580.042667 C 1926.885289 1576.943708 1934.978551 1574.287458 1940.996617 1570.745792 C 1946.392125 1567.646833 1967.144078 1557.243187 1974.407262 1556.357771 C 1981.462926 1555.472354 1979.80277 1531.787458 1979.80277 1531.787458 L 1961.541051 1531.787458 L 1952.617711 1518.727562 Z M 1934.355992 1534.665062 " transform="matrix(0.0188235,0,0,0.0176471,-28.012969,-17.508106)"/>
<path style="fill:none;stroke-width:3;stroke-linecap:butt;stroke-linejoin:miter;stroke:rgb(0.392157%,0%,0.784314%);stroke-opacity:1;stroke-miterlimit:4;" d="M 2636.394566 1153.935896 C 2636.394566 1153.935896 2527.446813 1189.573917 2476.604527 1193.779646 M 2593.438023 1193.779646 C 2593.438023 1193.779646 2529.522008 1213.922875 2454.607457 1226.761417 M 2538.860387 1235.836937 C 2538.860387 1235.836937 2466.64359 1253.102562 2431.987828 1255.980167 " transform="matrix(0.0188235,0,0,0.0176471,-28.012969,-17.508106)"/>
<path style="fill:none;stroke-width:3;stroke-linecap:butt;stroke-linejoin:miter;stroke:rgb(0.392157%,0%,0.784314%);stroke-opacity:1;stroke-miterlimit:10;" d="M 2490.300816 1269.925479 C 2490.300816 1269.925479 2429.290074 1282.764021 2413.726109 1284.092146 " transform="matrix(0.0188235,0,0,0.0176471,-28.012969,-17.508106)"/>
<path style="fill-rule:nonzero;fill:rgb(0%,50.588235%,77.647059%);fill-opacity:1;stroke-width:3;stroke-linecap:butt;stroke-linejoin:miter;stroke:rgb(0.392157%,0%,0.784314%);stroke-opacity:1;stroke-miterlimit:10;" d="M 2421.611852 1362.894229 L 2424.517125 1460.068708 L 2407.500523 1450.107771 L 2378.862828 1573.180687 L 2367.034215 1564.769229 L 2394.841832 1446.787458 L 2375.542516 1447.230167 Z M 2421.611852 1362.894229 " transform="matrix(0.0188235,0,0,0.0176471,-28.012969,-17.508106)"/>
<path style="fill:none;stroke-width:3;stroke-linecap:butt;stroke-linejoin:miter;stroke:rgb(0.392157%,0%,0.784314%);stroke-opacity:1;stroke-miterlimit:10;" d="M 2451.494664 1301.357771 C 2451.494664 1301.357771 2406.877965 1308.21975 2389.031285 1307.777042 M 2395.87943 1328.584333 C 2395.87943 1328.584333 2377.82523 1327.698917 2369.31693 1326.149437 M 2379.277867 1357.581729 C 2379.277867 1357.581729 2363.921422 1353.376 2354.790563 1347.620792 M 2356.658238 1387.464542 C 2356.658238 1387.464542 2344.829625 1383.037458 2339.226598 1370.641625 M 2327.813023 1398.53225 C 2327.813023 1398.53225 2318.682164 1390.342146 2318.059605 1381.266625 " transform="matrix(0.0188235,0,0,0.0176471,-28.012969,-17.508106)"/>
<path style="fill-rule:nonzero;fill:rgb(0%,50.588235%,77.647059%);fill-opacity:1;stroke-width:3;stroke-linecap:butt;stroke-linejoin:miter;stroke:rgb(0.392157%,0%,0.784314%);stroke-opacity:1;stroke-miterlimit:10;" d="M 2532.427281 1406.058292 L 2491.753453 1493.271833 L 2481.169957 1476.006208 L 2395.464391 1577.165062 L 2386.126012 1566.982771 L 2471.416539 1466.930687 L 2454.192418 1457.633812 Z M 2532.427281 1406.058292 " transform="matrix(0.0188235,0,0,0.0176471,-28.012969,-17.508106)"/>
<path style="fill:none;stroke-width:3;stroke-linecap:butt;stroke-linejoin:miter;stroke:rgb(0.392157%,0%,0.784314%);stroke-opacity:1;stroke-miterlimit:10;" d="M 2293.572301 1405.836937 C 2293.572301 1405.836937 2297.100133 1402.737979 2294.609898 1389.899437 " transform="matrix(0.0188235,0,0,0.0176471,-28.012969,-17.508106)"/>
<path style="fill-rule:nonzero;fill:rgb(0%,50.588235%,77.647059%);fill-opacity:1;stroke-width:3;stroke-linecap:butt;stroke-linejoin:miter;stroke:rgb(0.392157%,0%,0.784314%);stroke-opacity:1;stroke-miterlimit:10;" d="M 2495.281285 1342.086937 L 2474.529332 1436.605167 L 2460.418004 1422.4385 L 2383.635777 1569.860375 L 2371.807164 1562.998396 L 2449.00443 1415.797875 L 2430.327672 1410.928083 Z M 2495.281285 1342.086937 " transform="matrix(0.0188235,0,0,0.0176471,-28.012969,-17.508106)"/>
<path style="fill:none;stroke-width:3;stroke-linecap:butt;stroke-linejoin:miter;stroke:rgb(0.392157%,0%,0.784314%);stroke-opacity:1;stroke-miterlimit:10;" d="M 2298.13773 1371.084333 C 2298.13773 1371.084333 2299.797887 1367.542667 2299.175328 1361.566104 " transform="matrix(0.0188235,0,0,0.0176471,-28.012969,-17.508106)"/>
<path style="fill-rule:nonzero;fill:rgb(95.686275%,77.254902%,23.921569%);fill-opacity:1;stroke-width:3;stroke-linecap:butt;stroke-linejoin:miter;stroke:rgb(0.392157%,0%,0.784314%);stroke-opacity:1;stroke-miterlimit:4;" d="M 1992.046422 1405.836937 C 1992.046422 1405.836937 1973.784703 1420.667667 1958.428258 1405.836937 C 1958.428258 1405.836937 1952.202672 1413.141625 1939.7515 1411.149437 C 1927.300328 1408.935896 1925.225133 1402.295271 1924.187535 1398.53225 C 1924.187535 1398.53225 1913.39652 1404.951521 1904.47318 1399.860375 C 1895.34232 1394.990583 1895.34232 1387.464542 1895.34232 1387.464542 C 1895.34232 1387.464542 1879.570836 1390.5635 1871.477574 1379.9385 C 1863.384313 1369.3135 1868.364781 1358.6885 1872.722691 1357.581729 C 1872.722691 1357.581729 1855.70609 1362.008812 1851.14066 1347.399437 C 1847.197789 1335.003604 1855.913609 1328.584333 1855.913609 1328.584333 C 1855.913609 1328.584333 1820.22025 1328.362979 1805.486363 1317.073917 C 1805.486363 1317.073917 1793.242711 1309.547875 1800.505895 1301.357771 C 1800.505895 1301.357771 1768.340367 1296.266625 1760.247105 1283.428083 C 1760.247105 1283.428083 1756.719273 1279.886417 1757.964391 1273.6885 C 1757.964391 1273.6885 1757.964391 1270.146833 1761.699742 1269.925479 C 1761.699742 1269.925479 1724.761266 1264.170271 1714.17777 1251.995792 C 1714.17777 1251.995792 1708.989781 1246.461937 1711.687535 1238.935896 C 1711.687535 1238.935896 1712.102574 1237.165062 1713.140172 1235.836937 C 1713.140172 1235.836937 1679.522008 1228.753604 1663.127965 1213.701521 C 1663.127965 1213.701521 1653.582066 1205.290062 1658.355016 1193.779646 C 1658.355016 1193.779646 1602.532262 1178.506208 1615.398473 1153.935896 C 1615.398473 1153.935896 1589.251012 1145.524437 1597.551793 1121.839542 C 1597.551793 1121.839542 1575.969762 1110.771833 1585.308141 1093.506208 C 1594.439 1076.683292 1622.246617 1096.383812 1655.034703 1105.459333 C 1655.034703 1105.459333 1743.853063 1133.349958 1787.639684 1140.876 L 1911.943883 1325.928083 L 1984.575719 1354.040062 Z M 1992.046422 1405.836937 " transform="matrix(0.0188235,0,0,0.0176471,-28.012969,-17.508106)"/>
<path style="fill:none;stroke-width:3;stroke-linecap:butt;stroke-linejoin:miter;stroke:rgb(0.392157%,0%,0.784314%);stroke-opacity:1;stroke-miterlimit:10;" d="M 2362.468785 1187.360375 C 2362.468785 1187.360375 2341.924352 1195.550479 2335.076207 1206.839542 C 2328.228063 1218.349958 2332.585973 1229.417667 2335.076207 1235.836937 C 2336.113805 1238.935896 2350.640172 1267.047875 2333.62357 1287.191104 " transform="matrix(0.0188235,0,0,0.0176471,-28.012969,-17.508106)"/>
<path style="fill-rule:nonzero;fill:rgb(95.686275%,77.254902%,23.921569%);fill-opacity:1;stroke-width:3;stroke-linecap:butt;stroke-linejoin:miter;stroke:rgb(0.392157%,0%,0.784314%);stroke-opacity:1;stroke-miterlimit:4;" d="M 1992.8765 1269.482771 C 1992.8765 1269.482771 1981.255406 1260.628604 1960.503453 1271.03225 C 1960.503453 1271.03225 1953.447789 1275.680687 1947.844762 1270.368187 C 1943.279332 1266.162458 1942.864293 1257.972354 1949.297398 1253.323917 C 1964.653844 1241.8135 1970.464391 1207.28225 1946.807164 1192.894229 C 1946.807164 1192.894229 1912.566441 1172.751 1787.224645 1140.654646 C 1787.224645 1140.654646 1776.641148 1137.777042 1771.038121 1139.105167 C 1764.812535 1140.654646 1760.662145 1145.967146 1759.832066 1150.615583 C 1759.832066 1150.615583 1754.229039 1166.553083 1772.905797 1175.628604 C 1772.905797 1175.628604 1781.621617 1179.612979 1790.337438 1182.047875 C 1790.337438 1182.047875 1780.58402 1180.055687 1776.641148 1189.573917 C 1772.698277 1198.649437 1778.301305 1207.946312 1795.940465 1213.922875 C 1795.940465 1213.922875 1800.713414 1215.915062 1807.561559 1217.464542 C 1807.561559 1217.464542 1792.412633 1221.891625 1799.675816 1234.066104 C 1799.675816 1234.066104 1806.316441 1246.904646 1829.14359 1249.118187 C 1829.14359 1249.118187 1812.126988 1251.110375 1824.163121 1267.269229 C 1824.163121 1267.269229 1829.351109 1276.123396 1846.160191 1279.443708 C 1846.160191 1279.443708 1833.5015 1279.886417 1839.934605 1291.396833 C 1846.160191 1302.685896 1861.309117 1309.105167 1876.043004 1310.211937 C 1876.043004 1310.211937 1884.136266 1310.654646 1889.739293 1309.326521 C 1889.739293 1309.326521 1875.627965 1316.409854 1883.928746 1328.141625 C 1883.928746 1328.141625 1889.946813 1336.553083 1905.303258 1336.110375 C 1905.303258 1336.110375 1901.360387 1349.391625 1912.566441 1354.261417 C 1921.282262 1358.245792 1928.337926 1352.047875 1928.337926 1352.047875 C 1928.337926 1352.047875 1925.432652 1366.214542 1938.091344 1371.084333 C 1938.091344 1371.084333 1944.524449 1374.404646 1953.862828 1371.084333 C 1953.862828 1371.084333 1961.126012 1387.243187 1986.858434 1375.954125 C 2012.590855 1364.665062 1992.8765 1269.482771 1992.8765 1269.482771 Z M 1992.8765 1269.482771 " transform="matrix(0.0188235,0,0,0.0176471,-28.012969,-17.508106)"/>
<path style="fill:none;stroke-width:3;stroke-linecap:butt;stroke-linejoin:miter;stroke:rgb(0.392157%,0%,0.784314%);stroke-opacity:1;stroke-miterlimit:10;" d="M 2362.261266 1309.326521 C 2362.261266 1309.326521 2362.053746 1309.326521 2354.790563 1306.891625 M 2405.840367 1279.443708 C 2405.840367 1279.443708 2393.596715 1282.099958 2381.353063 1282.099958 M 2422.856969 1249.118187 C 2422.856969 1249.118187 2408.330602 1250.667667 2394.841832 1250.446312 M 2444.439 1217.464542 C 2444.439 1217.464542 2423.479527 1221.670271 2412.273473 1221.891625 M 2461.663121 1182.047875 C 2461.663121 1182.047875 2435.930699 1189.352562 2416.838902 1192.008812 M 2374.297398 1207.060896 C 2374.297398 1207.060896 2392.766637 1224.326521 2370.562047 1240.264021 C 2370.562047 1240.264021 2379.900426 1254.873396 2361.431188 1269.925479 " transform="matrix(0.0188235,0,0,0.0176471,-28.012969,-17.508106)"/>
<path style="fill-rule:nonzero;fill:rgb(95.686275%,77.254902%,23.921569%);fill-opacity:1;stroke-width:3;stroke-linecap:butt;stroke-linejoin:miter;stroke:rgb(0.392157%,0%,0.784314%);stroke-opacity:1;stroke-miterlimit:4;" d="M 1994.329137 1416.240583 C 1994.329137 1416.240583 1990.593785 1436.383812 1960.710973 1461.839542 C 1960.710973 1461.839542 1937.676305 1482.204125 1938.298863 1505.667667 C 1938.921422 1529.352562 1934.148473 1532.008812 1925.225133 1540.198917 C 1925.225133 1540.198917 1943.901891 1541.527042 1952.82523 1529.131208 C 1952.82523 1529.131208 1952.410191 1549.9385 1949.712438 1551.709333 C 1949.712438 1551.709333 1955.522984 1552.152042 1964.031285 1542.855167 C 1964.031285 1542.855167 1969.219273 1537.542667 1973.992223 1535.329125 C 1973.992223 1535.329125 1968.389195 1549.717146 1972.747105 1562.998396 C 1972.747105 1562.998396 1974.199742 1557.685896 1981.462926 1555.472354 C 1981.462926 1555.472354 1994.536656 1552.816104 1999.724645 1533.779646 C 1999.724645 1533.779646 2003.044957 1521.162458 2023.589391 1509.873396 C 2023.589391 1509.873396 2047.039098 1501.019229 2046.416539 1489.508812 C 2045.79398 1477.998396 1994.329137 1416.240583 1994.329137 1416.240583 Z M 1994.329137 1416.240583 " transform="matrix(0.0188235,0,0,0.0176471,-28.012969,-17.508106)"/>
<path style="fill:none;stroke-width:3;stroke-linecap:butt;stroke-linejoin:miter;stroke:rgb(0.392157%,0%,0.784314%);stroke-opacity:1;stroke-miterlimit:10;" d="M 2366.204137 1277.008812 C 2366.204137 1277.008812 2369.10941 1304.678083 2335.283727 1304.678083 C 2335.283727 1304.678083 2341.716832 1329.248396 2309.136266 1328.584333 C 2309.136266 1328.584333 2305.400914 1348.284854 2281.743688 1344.300479 " transform="matrix(0.0188235,0,0,0.0176471,-28.012969,-17.508106)"/>
<path style="fill-rule:nonzero;fill:rgb(95.686275%,77.254902%,23.921569%);fill-opacity:1;stroke-width:3;stroke-linecap:butt;stroke-linejoin:miter;stroke:rgb(0.392157%,0%,0.784314%);stroke-opacity:1;stroke-miterlimit:4;" d="M 2317.644566 1534.665062 C 2317.644566 1534.665062 2332.585973 1560.342146 2350.640172 1560.784854 C 2350.640172 1560.784854 2381.768102 1556.800479 2390.483922 1564.990583 C 2396.709508 1570.745792 2402.935094 1575.394229 2405.425328 1589.78225 C 2408.123082 1604.391625 2400.652379 1607.490583 2398.784703 1608.154646 C 2398.784703 1608.154646 2397.539586 1618.558292 2387.163609 1615.680687 C 2387.163609 1615.680687 2386.74857 1626.527042 2368.486852 1621.435896 C 2350.432652 1616.123396 2342.961949 1617.894229 2339.434117 1599.743187 C 2335.906285 1581.8135 2332.585973 1582.034854 2329.47318 1580.042667 C 2325.11527 1576.943708 2317.022008 1574.287458 2311.003941 1570.745792 C 2305.608434 1567.646833 2284.85648 1557.243187 2277.593297 1556.357771 C 2270.537633 1555.472354 2272.197789 1531.787458 2272.197789 1531.787458 L 2290.459508 1531.787458 L 2299.382848 1518.727562 Z M 2317.644566 1534.665062 " transform="matrix(0.0188235,0,0,0.0176471,-28.012969,-17.508106)"/>
<path style="fill-rule:nonzero;fill:rgb(95.686275%,77.254902%,23.921569%);fill-opacity:1;stroke-width:3;stroke-linecap:butt;stroke-linejoin:miter;stroke:rgb(0.392157%,0%,0.784314%);stroke-opacity:1;stroke-miterlimit:4;" d="M 2257.671422 1416.240583 C 2257.671422 1416.240583 2261.406773 1436.383812 2291.289586 1461.839542 C 2291.289586 1461.839542 2314.324254 1482.204125 2313.701695 1505.667667 C 2313.079137 1529.352562 2317.852086 1532.008812 2326.775426 1540.198917 C 2326.775426 1540.198917 2308.098668 1541.527042 2299.175328 1529.131208 C 2299.175328 1529.131208 2299.590367 1549.9385 2302.288121 1551.709333 C 2302.288121 1551.709333 2296.477574 1552.152042 2287.969273 1542.855167 C 2287.969273 1542.855167 2282.781285 1537.542667 2278.008336 1535.329125 C 2278.008336 1535.329125 2283.611363 1549.717146 2279.253453 1562.998396 C 2279.253453 1562.998396 2277.800816 1557.685896 2270.537633 1555.472354 C 2270.537633 1555.472354 2257.463902 1552.816104 2252.275914 1533.779646 C 2252.275914 1533.779646 2248.955602 1521.162458 2228.411168 1509.873396 C 2228.411168 1509.873396 2204.961461 1501.019229 2205.58402 1489.508812 C 2206.206578 1477.998396 2257.671422 1416.240583 2257.671422 1416.240583 Z M 2257.671422 1416.240583 " transform="matrix(0.0188235,0,0,0.0176471,-28.012969,-17.508106)"/>
<path style="fill:none;stroke-width:3;stroke-linecap:butt;stroke-linejoin:miter;stroke:rgb(0.392157%,0%,0.784314%);stroke-opacity:1;stroke-miterlimit:4;" d="M 2333.62357 1560.784854 C 2333.62357 1560.784854 2339.019078 1561.891625 2350.640172 1560.784854 " transform="matrix(0.0188235,0,0,0.0176471,-28.012969,-17.508106)"/>
<path style="fill:none;stroke-width:3;stroke-linecap:butt;stroke-linejoin:miter;stroke:rgb(0.392157%,0%,0.784314%);stroke-opacity:1;stroke-miterlimit:10;" d="M 2383.220738 1575.172875 C 2383.220738 1575.172875 2399.614781 1572.737979 2398.784703 1608.154646 M 2373.46732 1583.362979 C 2373.46732 1583.362979 2388.201207 1581.370792 2387.163609 1615.680687 " transform="matrix(0.0188235,0,0,0.0176471,-28.012969,-17.508106)"/>
<path style="fill:none;stroke-width:3;stroke-linecap:butt;stroke-linejoin:miter;stroke:rgb(0.392157%,0%,0.784314%);stroke-opacity:1;stroke-miterlimit:4;" d="M 2231.108922 1500.355167 C 2231.108922 1500.355167 2238.164586 1501.904646 2243.145055 1507.4385 C 2247.918004 1512.972354 2257.463902 1512.086937 2257.463902 1512.086937 C 2257.463902 1512.086937 2252.275914 1507.881208 2250.615758 1497.477562 C 2248.748082 1487.073917 2243.145055 1483.974958 2243.145055 1483.974958 M 2259.954137 1474.235375 C 2259.954137 1474.235375 2267.009801 1475.784854 2271.99027 1481.318708 C 2276.970738 1486.852562 2286.309117 1485.745792 2286.309117 1485.745792 C 2286.309117 1485.745792 2281.121129 1481.761417 2279.460973 1471.357771 C 2277.593297 1460.954125 2271.99027 1457.855167 2271.99027 1457.855167 M 2264.934605 1514.521833 C 2264.934605 1514.521833 2270.952672 1515.628604 2275.310582 1520.498396 C 2279.668492 1525.368187 2287.761754 1524.482771 2287.761754 1524.482771 C 2287.761754 1524.482771 2283.403844 1520.941104 2281.743688 1511.865583 C 2280.291051 1502.790062 2275.310582 1500.133812 2275.310582 1500.133812 " transform="matrix(0.0188235,0,0,0.0176471,-28.012969,-17.508106)"/>
<path style="fill-rule:nonzero;fill:rgb(95.686275%,77.254902%,23.921569%);fill-opacity:1;stroke-width:3;stroke-linecap:butt;stroke-linejoin:miter;stroke:rgb(0.392157%,0%,0.784314%);stroke-opacity:1;stroke-miterlimit:10;" d="M 2149.138707 1676.774437 C 2149.138707 1676.774437 2154.534215 1700.459333 2173.210973 1698.6885 C 2173.210973 1698.6885 2186.284703 1697.360375 2185.247105 1675.446312 C 2185.247105 1675.446312 2204.753941 1685.849958 2207.866734 1660.172875 C 2207.866734 1660.172875 2225.713414 1664.15725 2225.505895 1640.251 C 2225.505895 1640.251 2241.899938 1643.128604 2240.032262 1621.878604 C 2240.032262 1621.878604 2257.878941 1626.527042 2257.878941 1606.383812 C 2257.878941 1606.383812 2299.797887 1599.521833 2212.432164 1519.834333 L 2134.61234 1566.318708 Z M 2149.138707 1676.774437 " transform="matrix(0.0188235,0,0,0.0176471,-28.012969,-17.508106)"/>
<path style="fill-rule:nonzero;fill:rgb(95.686275%,77.254902%,23.921569%);fill-opacity:1;stroke-width:3;stroke-linecap:butt;stroke-linejoin:miter;stroke:rgb(0.392157%,0%,0.784314%);stroke-opacity:1;stroke-miterlimit:4;" d="M 2140.422887 1570.745792 C 2140.422887 1570.745792 2153.496617 1582.256208 2162.627477 1564.990583 C 2162.627477 1564.990583 2175.286168 1564.326521 2177.361363 1554.808292 C 2177.361363 1554.808292 2187.52982 1553.922875 2189.397496 1544.183292 C 2189.397496 1544.183292 2203.508824 1542.633812 2203.093785 1530.902042 C 2203.093785 1530.902042 2228.411168 1528.909854 2203.093785 1500.133812 C 2177.568883 1471.357771 2134.61234 1547.946312 2134.61234 1547.946312 Z M 2140.422887 1570.745792 " transform="matrix(0.0188235,0,0,0.0176471,-28.012969,-17.508106)"/>
<path style="fill:none;stroke-width:3;stroke-linecap:butt;stroke-linejoin:miter;stroke:rgb(0.392157%,0%,0.784314%);stroke-opacity:1;stroke-miterlimit:10;" d="M 2185.247105 1675.446312 C 2185.247105 1675.446312 2183.37943 1633.831729 2147.271031 1574.066104 M 2207.866734 1660.172875 C 2207.866734 1660.172875 2213.469762 1636.045271 2162.627477 1564.990583 C 2162.627477 1564.990583 2168.645543 1547.946312 2150.591344 1537.099958 M 2225.505895 1640.251 C 2225.505895 1640.251 2226.958531 1614.131208 2177.361363 1554.808292 C 2177.361363 1554.808292 2181.719273 1539.534854 2163.665074 1527.360375 M 2240.032262 1621.878604 C 2240.032262 1621.878604 2238.164586 1595.537458 2189.397496 1544.183292 C 2189.397496 1544.183292 2191.88773 1528.467146 2174.45609 1518.727562 M 2257.878941 1606.383812 C 2257.878941 1606.383812 2254.351109 1576.501 2203.093785 1530.902042 C 2203.093785 1530.902042 2204.753941 1518.948917 2187.73734 1506.995792 " transform="matrix(0.0188235,0,0,0.0176471,-28.012969,-17.508106)"/>
<path style="fill-rule:nonzero;fill:rgb(95.686275%,77.254902%,23.921569%);fill-opacity:1;stroke-width:3;stroke-linecap:butt;stroke-linejoin:miter;stroke:rgb(0.392157%,0%,0.784314%);stroke-opacity:1;stroke-miterlimit:10;" d="M 2102.861852 1676.774437 C 2102.861852 1676.774437 2097.466344 1700.459333 2078.789586 1698.6885 C 2078.789586 1698.6885 2065.715855 1697.360375 2066.753453 1675.446312 C 2066.753453 1675.446312 2047.246617 1685.849958 2044.133824 1660.172875 C 2044.133824 1660.172875 2026.287145 1664.15725 2026.494664 1640.251 C 2026.494664 1640.251 2010.100621 1643.128604 2011.968297 1621.878604 C 2011.968297 1621.878604 1994.121617 1626.527042 1994.121617 1606.383812 C 1994.121617 1606.383812 1952.202672 1599.521833 2039.568395 1519.834333 L 2117.388219 1566.318708 Z M 2102.861852 1676.774437 " transform="matrix(0.0188235,0,0,0.0176471,-28.012969,-17.508106)"/>
<path style="fill-rule:nonzero;fill:rgb(95.686275%,77.254902%,23.921569%);fill-opacity:1;stroke-width:3;stroke-linecap:butt;stroke-linejoin:miter;stroke:rgb(0.392157%,0%,0.784314%);stroke-opacity:1;stroke-miterlimit:4;" d="M 2111.577672 1570.745792 C 2111.577672 1570.745792 2098.503941 1582.256208 2089.373082 1564.990583 C 2089.373082 1564.990583 2076.714391 1564.326521 2074.846715 1554.808292 C 2074.846715 1554.808292 2064.470738 1553.922875 2062.603063 1544.183292 C 2062.603063 1544.183292 2048.491734 1542.633812 2048.906773 1530.902042 C 2048.906773 1530.902042 2023.589391 1528.909854 2048.906773 1500.133812 C 2074.431676 1471.357771 2117.388219 1547.946312 2117.388219 1547.946312 Z M 2111.577672 1570.745792 " transform="matrix(0.0188235,0,0,0.0176471,-28.012969,-17.508106)"/>
<path style="fill:none;stroke-width:3;stroke-linecap:butt;stroke-linejoin:miter;stroke:rgb(0.392157%,0%,0.784314%);stroke-opacity:1;stroke-miterlimit:10;" d="M 2066.753453 1675.446312 C 2066.753453 1675.446312 2068.621129 1633.831729 2104.729527 1574.066104 M 2044.133824 1660.172875 C 2044.133824 1660.172875 2038.530797 1636.045271 2089.373082 1564.990583 C 2089.373082 1564.990583 2083.355016 1547.946312 2101.409215 1537.099958 " transform="matrix(0.0188235,0,0,0.0176471,-28.012969,-17.508106)"/>
<path style="fill-rule:nonzero;fill:rgb(95.686275%,77.254902%,23.921569%);fill-opacity:1;stroke-width:3;stroke-linecap:butt;stroke-linejoin:miter;stroke:rgb(0.392157%,0%,0.784314%);stroke-opacity:1;stroke-miterlimit:4;" d="M 2126.104039 1563.662458 C 2138.555211 1563.662458 2152.874059 1642.243187 2149.138707 1689.612979 C 2147.89359 1706.65725 2138.555211 1720.823917 2126.104039 1720.823917 C 2113.445348 1720.823917 2104.106969 1706.65725 2102.861852 1689.612979 C 2099.1265 1642.243187 2113.445348 1563.662458 2126.104039 1563.662458 " transform="matrix(0.0188235,0,0,0.0176471,-28.012969,-17.508106)"/>
<path style="fill:none;stroke-width:3;stroke-linecap:butt;stroke-linejoin:miter;stroke:rgb(0.392157%,0%,0.784314%);stroke-opacity:1;stroke-miterlimit:10;" d="M 2026.494664 1640.251 C 2026.494664 1640.251 2025.042027 1614.131208 2074.846715 1554.808292 C 2074.846715 1554.808292 2070.281285 1539.534854 2088.335484 1527.360375 M 2011.968297 1621.878604 C 2011.968297 1621.878604 2013.835973 1595.537458 2062.603063 1544.183292 C 2062.603063 1544.183292 2060.112828 1528.467146 2077.544469 1518.727562 " transform="matrix(0.0188235,0,0,0.0176471,-28.012969,-17.508106)"/>
<path style="fill-rule:nonzero;fill:rgb(95.686275%,77.254902%,23.921569%);fill-opacity:1;stroke-width:3;stroke-linecap:butt;stroke-linejoin:miter;stroke:rgb(0.392157%,0%,0.784314%);stroke-opacity:1;stroke-miterlimit:4;" d="M 2143.32816 1562.998396 C 2143.32816 1548.831729 2135.649938 1537.099958 2126.104039 1537.099958 C 2116.350621 1537.099958 2108.672398 1548.831729 2108.672398 1562.998396 C 2108.672398 1577.165062 2116.350621 1588.675479 2126.104039 1588.675479 C 2135.649938 1588.675479 2143.32816 1577.165062 2143.32816 1562.998396 Z M 2143.32816 1562.998396 " transform="matrix(0.0188235,0,0,0.0176471,-28.012969,-17.508106)"/>
<path style="fill:none;stroke-width:3;stroke-linecap:butt;stroke-linejoin:miter;stroke:rgb(0.392157%,0%,0.784314%);stroke-opacity:1;stroke-miterlimit:10;" d="M 1994.121617 1606.383812 C 1994.121617 1606.383812 1997.649449 1576.501 2048.906773 1530.902042 C 2048.906773 1530.902042 2047.246617 1518.948917 2064.263219 1506.995792 " transform="matrix(0.0188235,0,0,0.0176471,-28.012969,-17.508106)"/>
<path style="fill-rule:nonzero;fill:rgb(100%,100%,100%);fill-opacity:1;stroke-width:3;stroke-linecap:butt;stroke-linejoin:miter;stroke:rgb(0.392157%,0%,0.784314%);stroke-opacity:1;stroke-miterlimit:4;" d="M 2126.104039 1557.243187 C 2126.104039 1557.243187 2273.650426 1491.943708 2274.065465 1340.537458 L 1977.935094 1340.537458 C 1978.350133 1491.943708 2126.104039 1557.243187 2126.104039 1557.243187 Z M 2126.104039 1557.243187 " transform="matrix(0.0188235,0,0,0.0176471,-28.012969,-17.508106)"/>
<path style="fill:none;stroke-width:3;stroke-linecap:butt;stroke-linejoin:miter;stroke:rgb(0.392157%,0%,0.784314%);stroke-opacity:1;stroke-miterlimit:10;" d="M 2046.20902 1340.537458 L 2069.036168 1340.537458 M 2000.762242 1340.537458 L 2023.589391 1340.537458 M 2091.863316 1340.537458 L 2114.690465 1340.537458 " transform="matrix(0.0188235,0,0,0.0176471,-28.012969,-17.508106)"/>
<path style="fill-rule:nonzero;fill:rgb(65.098039%,0%,19.607843%);fill-opacity:1;stroke-width:3;stroke-linecap:butt;stroke-linejoin:miter;stroke:rgb(0.392157%,0%,0.784314%);stroke-opacity:1;stroke-miterlimit:4;" d="M 2000.762242 1340.537458 L 2000.762242 1437.269229 C 2000.762242 1437.269229 2011.968297 1459.626 2023.589391 1473.792667 L 2023.589391 1340.537458 Z M 2046.20902 1340.537458 L 2046.20902 1499.912458 C 2046.20902 1499.912458 2060.527867 1513.857771 2069.036168 1520.71975 L 2069.036168 1340.537458 Z M 2091.863316 1340.537458 L 2091.863316 1537.542667 C 2091.863316 1537.542667 2108.04984 1548.167667 2114.690465 1551.487979 L 2114.690465 1340.537458 Z M 2091.863316 1340.537458 " transform="matrix(0.0188235,0,0,0.0176471,-28.012969,-17.508106)"/>
<path style="fill:none;stroke-width:3;stroke-linecap:butt;stroke-linejoin:miter;stroke:rgb(0.392157%,0%,0.784314%);stroke-opacity:1;stroke-miterlimit:4;" d="M 2000.762242 1340.537458 L 2023.589391 1340.537458 M 2046.20902 1340.537458 L 2069.036168 1340.537458 M 2091.863316 1340.537458 L 2114.690465 1340.537458 " transform="matrix(0.0188235,0,0,0.0176471,-28.012969,-17.508106)"/>
<path style="fill-rule:nonzero;fill:rgb(65.098039%,0%,19.607843%);fill-opacity:1;stroke-width:3;stroke-linecap:butt;stroke-linejoin:miter;stroke:rgb(0.392157%,0%,0.784314%);stroke-opacity:1;stroke-miterlimit:4;" d="M 2251.238316 1340.537458 L 2251.238316 1437.269229 C 2251.238316 1437.269229 2240.032262 1459.626 2228.411168 1473.792667 L 2228.411168 1340.537458 Z M 2205.791539 1340.537458 L 2205.791539 1499.912458 C 2205.791539 1499.912458 2191.472691 1513.857771 2182.964391 1520.71975 L 2182.964391 1340.537458 Z M 2160.137242 1340.537458 L 2160.137242 1537.542667 C 2160.137242 1537.542667 2143.950719 1548.167667 2137.310094 1551.487979 L 2137.310094 1340.537458 Z M 2160.137242 1340.537458 " transform="matrix(0.0188235,0,0,0.0176471,-28.012969,-17.508106)"/>
<path style="fill-rule:nonzero;fill:rgb(0%,50.588235%,77.647059%);fill-opacity:1;stroke-width:3;stroke-linecap:butt;stroke-linejoin:miter;stroke:rgb(0.392157%,0%,0.784314%);stroke-opacity:1;stroke-miterlimit:10;" d="M 2364.7515 1614.795271 L 2358.940953 1638.258812 L 2374.712438 1653.753604 L 2352.507848 1747.607771 L 2332.793492 1721.266625 L 2303.533238 1734.769229 L 2325.737828 1640.915062 L 2346.282262 1635.159854 L 2351.67777 1611.917667 C 2351.67777 1611.917667 2357.903355 1609.261417 2364.7515 1614.795271 Z M 2364.7515 1614.795271 " transform="matrix(0.0188235,0,0,0.0176471,-28.012969,-17.508106)"/>
<path style="fill-rule:nonzero;fill:rgb(0%,50.588235%,77.647059%);fill-opacity:1;stroke-width:3;stroke-linecap:butt;stroke-linejoin:miter;stroke:rgb(0.392157%,0%,0.784314%);stroke-opacity:1;stroke-miterlimit:10;" d="M 2369.939488 1599.300479 L 2358.733434 1620.329125 L 2369.939488 1639.808292 L 2325.530309 1724.365583 L 2312.871617 1693.376 L 2281.328648 1698.467146 L 2325.737828 1613.909854 L 2347.11234 1614.131208 L 2358.110875 1592.881208 C 2358.110875 1592.881208 2365.996617 1592.881208 2369.939488 1599.300479 Z M 2369.939488 1599.300479 " transform="matrix(0.0188235,0,0,0.0176471,-28.012969,-17.508106)"/>
<path style="fill-rule:nonzero;fill:rgb(0%,50.588235%,77.647059%);fill-opacity:1;stroke-width:3;stroke-linecap:butt;stroke-linejoin:miter;stroke:rgb(0.392157%,0%,0.784314%);stroke-opacity:1;stroke-miterlimit:10;" d="M 2371.807164 1605.277042 L 2341.716832 1643.571312 L 2348.772496 1665.264021 L 2287.346715 1736.982771 L 2281.536168 1703.779646 L 2249.78568 1701.566104 L 2311.211461 1629.626 L 2331.963414 1634.717146 L 2363.713902 1594.209333 C 2363.713902 1594.209333 2372.429723 1598.415062 2371.807164 1605.277042 Z M 2371.807164 1605.277042 " transform="matrix(0.0188235,0,0,0.0176471,-28.012969,-17.508106)"/>
<path style="fill:none;stroke-width:3;stroke-linecap:butt;stroke-linejoin:miter;stroke:rgb(0.392157%,0%,0.784314%);stroke-opacity:1;stroke-miterlimit:4;" d="M 1597.551793 1121.839542 C 1597.551793 1121.839542 1637.810582 1145.081729 1763.359898 1168.545271 M 1615.398473 1153.935896 C 1615.398473 1153.935896 1724.553746 1189.573917 1775.396031 1193.779646 M 1658.355016 1193.779646 C 1658.355016 1193.779646 1722.478551 1213.922875 1797.393102 1226.761417 M 1713.140172 1235.836937 C 1713.140172 1235.836937 1785.356969 1253.102562 1820.01273 1255.980167 " transform="matrix(0.0188235,0,0,0.0176471,-28.012969,-17.508106)"/>
<path style="fill:none;stroke-width:3;stroke-linecap:butt;stroke-linejoin:miter;stroke:rgb(0.392157%,0%,0.784314%);stroke-opacity:1;stroke-miterlimit:10;" d="M 1761.699742 1269.925479 C 1761.699742 1269.925479 1822.710484 1282.764021 1838.274449 1284.092146 M 1800.505895 1301.357771 C 1800.505895 1301.357771 1845.122594 1308.21975 1862.969273 1307.777042 M 1855.913609 1328.584333 C 1855.913609 1328.584333 1873.967809 1327.698917 1882.683629 1326.149437 M 1872.722691 1357.581729 C 1872.722691 1357.581729 1888.079137 1353.376 1897.002477 1347.620792 M 1895.34232 1387.464542 C 1895.34232 1387.464542 1907.170934 1383.037458 1912.773961 1370.641625 M 1924.187535 1398.53225 C 1924.187535 1398.53225 1933.318395 1390.342146 1933.940953 1381.266625 M 1958.428258 1405.836937 C 1958.428258 1405.836937 1954.900426 1402.737979 1957.183141 1389.899437 M 1953.862828 1371.084333 C 1953.862828 1371.084333 1952.202672 1367.542667 1952.82523 1361.566104 M 1889.324254 1187.360375 C 1889.324254 1187.360375 1910.076207 1195.550479 1916.924352 1206.839542 C 1923.772496 1218.349958 1919.207066 1229.417667 1916.924352 1235.836937 C 1915.679234 1238.935896 1901.152867 1267.047875 1918.376988 1287.191104 M 1889.739293 1309.326521 C 1889.739293 1309.326521 1889.739293 1309.326521 1897.002477 1306.891625 M 1846.160191 1279.443708 C 1846.160191 1279.443708 1858.403844 1282.099958 1870.647496 1282.099958 M 1829.14359 1249.118187 C 1829.14359 1249.118187 1843.669957 1250.667667 1857.158727 1250.446312 " transform="matrix(0.0188235,0,0,0.0176471,-28.012969,-17.508106)"/>
<path style="fill-rule:nonzero;fill:rgb(21.176471%,58.039216%,26.27451%);fill-opacity:1;stroke-width:3;stroke-linecap:butt;stroke-linejoin:miter;stroke:rgb(0.392157%,0%,0.784314%);stroke-opacity:1;stroke-miterlimit:10;" d="M 1882.891148 1610.589542 C 1882.891148 1610.589542 1882.476109 1597.972354 1898.455113 1597.086937 L 1945.354527 1662.165062 C 1945.354527 1662.165062 1943.486852 1666.370792 1922.319859 1665.928083 C 1922.319859 1665.928083 1920.037145 1665.928083 1918.792027 1668.362979 C 1916.924352 1672.347354 1882.891148 1610.589542 1882.891148 1610.589542 Z M 1882.891148 1610.589542 " transform="matrix(0.0188235,0,0,0.0176471,-28.012969,-17.508106)"/>
<path style="fill:none;stroke-width:3;stroke-linecap:butt;stroke-linejoin:miter;stroke:rgb(0.392157%,0%,0.784314%);stroke-opacity:1;stroke-miterlimit:10;" d="M 1807.561559 1217.464542 C 1807.561559 1217.464542 1828.521031 1221.670271 1839.727086 1221.891625 M 1790.337438 1182.047875 C 1790.337438 1182.047875 1816.069859 1189.352562 1835.161656 1192.008812 M 1877.70316 1207.060896 C 1877.70316 1207.060896 1859.233922 1224.326521 1881.438512 1240.264021 C 1881.438512 1240.264021 1872.100133 1254.873396 1890.569371 1269.925479 M 1885.588902 1277.008812 C 1885.588902 1277.008812 1882.891148 1304.678083 1916.716832 1304.678083 C 1916.716832 1304.678083 1910.283727 1329.248396 1942.864293 1328.584333 C 1942.864293 1328.584333 1946.599645 1348.284854 1970.256871 1344.300479 " transform="matrix(0.0188235,0,0,0.0176471,-28.012969,-17.508106)"/>
<path style="fill:none;stroke-width:3;stroke-linecap:butt;stroke-linejoin:miter;stroke:rgb(0.392157%,0%,0.784314%);stroke-opacity:1;stroke-miterlimit:4;" d="M 1918.169469 1560.784854 C 1918.169469 1560.784854 1912.98148 1561.891625 1901.360387 1560.784854 " transform="matrix(0.0188235,0,0,0.0176471,-28.012969,-17.508106)"/>
<path style="fill:none;stroke-width:3;stroke-linecap:butt;stroke-linejoin:miter;stroke:rgb(0.392157%,0%,0.784314%);stroke-opacity:1;stroke-miterlimit:10;" d="M 1868.572301 1575.172875 C 1868.572301 1575.172875 1852.385777 1572.737979 1853.215855 1608.154646 M 1878.533238 1583.362979 C 1878.533238 1583.362979 1863.799352 1581.370792 1864.62943 1615.680687 " transform="matrix(0.0188235,0,0,0.0176471,-28.012969,-17.508106)"/>
<path style="fill:none;stroke-width:3;stroke-linecap:butt;stroke-linejoin:miter;stroke:rgb(0.392157%,0%,0.784314%);stroke-opacity:1;stroke-miterlimit:4;" d="M 2020.891637 1500.355167 C 2020.891637 1500.355167 2013.835973 1501.904646 2008.855504 1507.4385 C 2004.082555 1512.972354 1994.536656 1512.086937 1994.536656 1512.086937 C 1994.536656 1512.086937 1999.724645 1507.881208 2001.384801 1497.477562 C 2003.252477 1487.073917 2008.855504 1483.974958 2008.855504 1483.974958 M 1992.046422 1474.235375 C 1992.046422 1474.235375 1984.990758 1475.784854 1980.010289 1481.318708 C 1975.02982 1486.852562 1965.691441 1485.745792 1965.691441 1485.745792 C 1965.691441 1485.745792 1970.87943 1481.761417 1972.539586 1471.357771 C 1974.407262 1460.954125 1980.010289 1457.855167 1980.010289 1457.855167 M 1987.065953 1514.521833 C 1987.065953 1514.521833 1981.047887 1515.628604 1976.689977 1520.498396 C 1972.332066 1525.368187 1964.238805 1524.482771 1964.238805 1524.482771 C 1964.238805 1524.482771 1968.596715 1520.941104 1970.256871 1511.865583 C 1971.709508 1502.790062 1976.689977 1500.133812 1976.689977 1500.133812 " transform="matrix(0.0188235,0,0,0.0176471,-28.012969,-17.508106)"/>
<path style="fill-rule:nonzero;fill:rgb(8.627451%,14.901961%,40.392157%);fill-opacity:1;stroke-width:3;stroke-linecap:butt;stroke-linejoin:miter;stroke:rgb(0.392157%,0%,0.784314%);stroke-opacity:1;stroke-miterlimit:10;" d="M 2274.065465 1230.524437 C 2274.065465 1230.524437 2201.641148 1268.376 2126.104039 1227.425479 C 2050.35941 1268.376 1977.935094 1230.524437 1977.935094 1230.524437 L 1977.935094 1340.537458 L 2274.065465 1340.537458 Z M 2274.065465 1230.524437 " transform="matrix(0.0188235,0,0,0.0176471,-28.012969,-17.508106)"/>
<path style="fill-rule:nonzero;fill:rgb(0%,50.588235%,77.647059%);fill-opacity:1;stroke-width:3;stroke-linecap:butt;stroke-linejoin:miter;stroke:rgb(0.392157%,0%,0.784314%);stroke-opacity:1;stroke-miterlimit:10;" d="M 1609.380406 1515.849958 C 1616.43607 1512.751 1621.624059 1510.09475 1621.624059 1502.347354 C 1621.624059 1500.576521 1620.586461 1496.370792 1618.511266 1490.172875 L 1570.366734 1342.972354 C 1567.461461 1334.339542 1565.386266 1329.027042 1564.348668 1327.034854 C 1562.273473 1323.050479 1557.915563 1321.279646 1552.312535 1318.84475 L 1613.530797 1318.84475 C 1606.890172 1321.943708 1600.664586 1324.599958 1600.872105 1331.683292 C 1600.872105 1334.339542 1601.494664 1338.102562 1603.15482 1342.972354 L 1640.093297 1458.519229 L 1677.031773 1342.972354 C 1678.48441 1338.102562 1679.314488 1334.339542 1679.314488 1331.683292 C 1679.106969 1324.378604 1672.881383 1321.722354 1666.655797 1318.84475 L 1726.006383 1318.84475 C 1720.610875 1321.058292 1716.252965 1322.829125 1713.97025 1327.034854 C 1712.932652 1329.027042 1710.649938 1334.339542 1707.952184 1342.972354 L 1659.807652 1490.172875 C 1657.732457 1496.370792 1656.902379 1500.576521 1656.694859 1502.568708 C 1656.694859 1502.568708 1654.412145 1511.865583 1668.938512 1515.849958 Z M 2635.979527 1500.576521 L 2635.979527 1333.896833 C 2635.979527 1331.019229 2635.564488 1328.805687 2634.526891 1327.256208 C 2633.696813 1325.706729 2629.546422 1321.279646 2623.528355 1318.84475 L 2678.728551 1318.84475 C 2672.918004 1320.836937 2668.767613 1325.706729 2667.730016 1327.256208 C 2666.692418 1328.805687 2666.277379 1331.019229 2666.277379 1333.896833 L 2666.277379 1500.576521 C 2666.277379 1503.675479 2666.899938 1505.889021 2667.730016 1507.4385 C 2668.767613 1508.987979 2672.918004 1512.972354 2678.728551 1515.849958 L 2623.528355 1515.849958 C 2629.546422 1512.972354 2633.696813 1508.987979 2634.526891 1507.4385 C 2635.564488 1505.889021 2635.979527 1503.675479 2635.979527 1500.576521 Z M 2635.979527 1500.576521 " transform="matrix(0.0188235,0,0,0.0176471,-28.012969,-17.508106)"/>
</g>
</svg>
