<?xml version="1.0" encoding="UTF-8"?>
<svg xmlns="http://www.w3.org/2000/svg" xmlns:xlink="http://www.w3.org/1999/xlink" width="24px" height="24px" viewBox="0 0 24 14" version="1.1">
<g id="surface1">
<path style=" stroke:none;fill-rule:nonzero;fill:rgb(82.352941%,6.27451%,20.392157%);fill-opacity:1;" d="M 0 0 L 24 0 L 24 7 L 0 7 Z M 0 0 "/>
<path style=" stroke:none;fill-rule:nonzero;fill:rgb(0%,58.431373%,26.27451%);fill-opacity:1;" d="M 0 7 L 24 7 L 24 14 L 0 14 Z M 0 7 "/>
<path style=" stroke:none;fill-rule:nonzero;fill:rgb(0%,0%,0%);fill-opacity:1;" d="M 0 0 L 13.964844 7 L 0 14 Z M 0 0 "/>
<path style=" stroke:none;fill-rule:nonzero;fill:rgb(0%,0%,0%);fill-opacity:1;" d="M 0 5.746094 L 24 5.746094 L 24 8.253906 L 0 8.253906 Z M 0 5.746094 "/>
<path style=" stroke:none;fill-rule:nonzero;fill:rgb(99.215686%,80.784314%,7.058824%);fill-opacity:1;" d="M 0 0.996094 L 11.980469 7 L 0 13.003906 Z M 0 0.996094 "/>
<path style=" stroke:none;fill-rule:nonzero;fill:rgb(99.215686%,80.784314%,7.058824%);fill-opacity:1;" d="M 0 6.632812 L 24 6.632812 L 24 7.367188 L 0 7.367188 Z M 0 6.632812 "/>
<path style=" stroke:none;fill-rule:nonzero;fill:rgb(0%,0%,0%);fill-opacity:1;" d="M 0 1.824219 L 10.328125 7 L 0 12.175781 Z M 0 1.824219 "/>
<path style=" stroke:none;fill-rule:nonzero;fill:rgb(99.215686%,80.784314%,7.058824%);fill-opacity:1;" d="M 2.917969 8.339844 L 2.917969 9.136719 C 3.632812 9.136719 5.03125 8.605469 5.03125 6.894531 C 5.03125 5.179688 3.539062 4.863281 3.089844 4.863281 C 2.644531 4.863281 1.261719 5.175781 1.261719 6.574219 C 1.261719 7.976562 2.617188 8.105469 2.882812 8.105469 C 3.152344 8.105469 4.152344 7.871094 4.039062 6.820312 C 4.039062 7.121094 3.691406 7.75 2.964844 7.75 C 2.238281 7.75 1.785156 7.222656 1.785156 6.703125 C 1.785156 6.1875 2.222656 5.492188 2.992188 5.492188 C 3.757812 5.492188 4.316406 6.152344 4.316406 6.820312 C 4.316406 7.488281 3.777344 8.339844 2.917969 8.339844 Z M 2.917969 8.339844 "/>
<path style="fill-rule:nonzero;fill:rgb(99.215686%,80.784314%,7.058824%);fill-opacity:1;stroke-width:1;stroke-linecap:butt;stroke-linejoin:miter;stroke:rgb(99.215686%,80.784314%,7.058824%);stroke-opacity:1;stroke-miterlimit:4;" d="M 90.763346 297.246094 L 92.464193 298.359375 C 92.464193 298.359375 105.761719 267.823661 141.788737 246.194196 C 137.150065 248.579799 113.028971 260.666853 90.763346 297.246094 Z M 90.763346 297.246094 " transform="matrix(0.0252632,0,0,0.0245614,0,0)"/>
<path style=" stroke:none;fill-rule:nonzero;fill:rgb(99.215686%,80.784314%,7.058824%);fill-opacity:1;" d="M 2.378906 7.171875 C 2.378906 7.171875 2.273438 6.960938 2.367188 6.871094 C 2.460938 6.777344 2.417969 7.117188 2.417969 7.117188 L 2.457031 7.058594 C 2.457031 7.058594 2.394531 6.804688 2.464844 6.75 C 2.535156 6.699219 2.5 6.996094 2.5 6.996094 L 2.542969 6.941406 C 2.542969 6.941406 2.496094 6.695312 2.566406 6.648438 C 2.632812 6.601562 2.589844 6.882812 2.589844 6.882812 L 2.640625 6.828125 C 2.640625 6.828125 2.601562 6.589844 2.683594 6.535156 C 2.765625 6.480469 2.695312 6.757812 2.695312 6.757812 L 2.75 6.699219 C 2.75 6.699219 2.726562 6.484375 2.792969 6.433594 C 2.863281 6.386719 2.804688 6.640625 2.804688 6.640625 L 2.855469 6.589844 C 2.855469 6.589844 2.839844 6.386719 2.90625 6.339844 C 2.976562 6.292969 2.914062 6.53125 2.914062 6.53125 L 2.964844 6.484375 C 2.964844 6.484375 2.953125 6.28125 3.039062 6.242188 C 3.121094 6.203125 3.023438 6.433594 3.023438 6.433594 L 3.078125 6.382812 C 3.078125 6.382812 3.097656 6.148438 3.171875 6.125 C 3.242188 6.105469 3.136719 6.335938 3.136719 6.335938 L 3.191406 6.292969 C 3.191406 6.292969 3.21875 6.09375 3.296875 6.066406 C 3.378906 6.042969 3.246094 6.253906 3.246094 6.253906 L 3.300781 6.214844 C 3.300781 6.214844 3.359375 6.011719 3.433594 5.988281 C 3.507812 5.96875 3.355469 6.179688 3.355469 6.179688 L 3.40625 6.144531 C 3.40625 6.144531 3.488281 5.964844 3.554688 5.949219 C 3.621094 5.9375 3.480469 6.101562 3.480469 6.101562 L 3.542969 6.066406 C 3.542969 6.066406 3.648438 5.875 3.6875 5.933594 C 3.726562 5.992188 3.539062 6.078125 3.539062 6.078125 L 3.476562 6.113281 C 3.476562 6.113281 3.703125 6.007812 3.730469 6.058594 C 3.757812 6.113281 3.417969 6.148438 3.417969 6.148438 L 3.363281 6.183594 C 3.363281 6.183594 3.589844 6.125 3.5625 6.179688 C 3.535156 6.234375 3.308594 6.222656 3.308594 6.222656 L 3.257812 6.261719 C 3.257812 6.261719 3.484375 6.207031 3.457031 6.257812 C 3.425781 6.308594 3.203125 6.304688 3.203125 6.304688 L 3.148438 6.347656 C 3.148438 6.347656 3.371094 6.292969 3.335938 6.355469 C 3.304688 6.421875 3.050781 6.421875 3.050781 6.421875 L 2.988281 6.476562 C 2.988281 6.476562 3.226562 6.398438 3.207031 6.460938 C 3.183594 6.519531 2.917969 6.550781 2.917969 6.550781 L 2.855469 6.609375 C 2.855469 6.609375 3.109375 6.527344 3.035156 6.601562 C 2.960938 6.679688 2.777344 6.699219 2.777344 6.699219 L 2.703125 6.78125 C 2.703125 6.78125 2.953125 6.636719 2.917969 6.71875 C 2.886719 6.800781 2.640625 6.859375 2.640625 6.859375 L 2.589844 6.917969 C 2.589844 6.917969 2.816406 6.789062 2.792969 6.859375 C 2.769531 6.929688 2.53125 7.007812 2.53125 7.007812 L 2.488281 7.058594 C 2.488281 7.058594 2.753906 6.90625 2.730469 6.984375 C 2.710938 7.0625 2.457031 7.117188 2.457031 7.117188 L 2.425781 7.167969 C 2.425781 7.167969 2.667969 7.03125 2.671875 7.097656 C 2.675781 7.164062 2.382812 7.226562 2.382812 7.226562 Z M 2.378906 7.171875 "/>
<path style="fill-rule:nonzero;fill:rgb(99.215686%,80.784314%,7.058824%);fill-opacity:1;stroke-width:1;stroke-linecap:butt;stroke-linejoin:miter;stroke:rgb(99.215686%,80.784314%,7.058824%);stroke-opacity:1;stroke-miterlimit:4;" d="M 90.68099 297.246094 L 92.381836 298.359375 C 92.381836 298.359375 105.833984 267.823661 141.70638 246.194196 C 137.222331 248.579799 113.101237 260.666853 90.68099 297.246094 Z M 90.68099 297.246094 " transform="matrix(-0.0252632,0,0,0.0245614,6.025263,0)"/>
<path style=" stroke:none;fill-rule:nonzero;fill:rgb(99.215686%,80.784314%,7.058824%);fill-opacity:1;" d="M 3.644531 7.171875 C 3.644531 7.171875 3.75 6.960938 3.65625 6.871094 C 3.566406 6.777344 3.609375 7.117188 3.609375 7.117188 L 3.566406 7.058594 C 3.566406 7.058594 3.628906 6.804688 3.5625 6.75 C 3.492188 6.699219 3.527344 6.996094 3.527344 6.996094 L 3.484375 6.941406 C 3.484375 6.941406 3.527344 6.695312 3.460938 6.648438 C 3.394531 6.601562 3.433594 6.882812 3.433594 6.882812 L 3.386719 6.828125 C 3.386719 6.828125 3.421875 6.589844 3.339844 6.535156 C 3.257812 6.480469 3.332031 6.757812 3.332031 6.757812 L 3.277344 6.699219 C 3.277344 6.699219 3.300781 6.484375 3.230469 6.433594 C 3.160156 6.386719 3.21875 6.640625 3.21875 6.640625 L 3.171875 6.589844 C 3.171875 6.589844 3.183594 6.386719 3.117188 6.339844 C 3.050781 6.292969 3.113281 6.53125 3.113281 6.53125 L 3.058594 6.484375 C 3.058594 6.484375 3.074219 6.28125 2.988281 6.242188 C 2.902344 6.203125 3.003906 6.433594 3.003906 6.433594 L 2.945312 6.382812 C 2.945312 6.382812 2.929688 6.148438 2.855469 6.125 C 2.78125 6.105469 2.886719 6.335938 2.886719 6.335938 L 2.835938 6.292969 C 2.835938 6.292969 2.808594 6.09375 2.726562 6.066406 C 2.648438 6.042969 2.777344 6.253906 2.777344 6.253906 L 2.726562 6.214844 C 2.726562 6.214844 2.667969 6.011719 2.59375 5.988281 C 2.515625 5.96875 2.671875 6.179688 2.671875 6.179688 L 2.621094 6.144531 C 2.621094 6.144531 2.539062 5.964844 2.46875 5.949219 C 2.402344 5.9375 2.546875 6.101562 2.546875 6.101562 L 2.484375 6.066406 C 2.484375 6.066406 2.375 5.875 2.335938 5.933594 C 2.300781 5.992188 2.488281 6.078125 2.488281 6.078125 L 2.550781 6.113281 C 2.550781 6.113281 2.324219 6.007812 2.292969 6.058594 C 2.265625 6.113281 2.609375 6.148438 2.609375 6.148438 L 2.664062 6.183594 C 2.664062 6.183594 2.433594 6.125 2.460938 6.179688 C 2.488281 6.234375 2.714844 6.222656 2.714844 6.222656 L 2.769531 6.261719 C 2.769531 6.261719 2.539062 6.207031 2.570312 6.257812 C 2.601562 6.308594 2.824219 6.304688 2.824219 6.304688 L 2.878906 6.347656 C 2.878906 6.347656 2.65625 6.292969 2.6875 6.355469 C 2.71875 6.421875 2.972656 6.421875 2.972656 6.421875 L 3.035156 6.476562 C 3.035156 6.476562 2.800781 6.398438 2.820312 6.460938 C 2.839844 6.519531 3.109375 6.550781 3.109375 6.550781 L 3.167969 6.609375 C 3.167969 6.609375 2.914062 6.527344 2.992188 6.601562 C 3.066406 6.679688 3.246094 6.699219 3.246094 6.699219 L 3.320312 6.78125 C 3.320312 6.78125 3.070312 6.636719 3.105469 6.71875 C 3.140625 6.800781 3.386719 6.859375 3.386719 6.859375 L 3.433594 6.917969 C 3.433594 6.917969 3.210938 6.789062 3.234375 6.859375 C 3.253906 6.929688 3.496094 7.007812 3.496094 7.007812 L 3.535156 7.058594 C 3.535156 7.058594 3.269531 6.90625 3.292969 6.984375 C 3.316406 7.0625 3.566406 7.117188 3.566406 7.117188 L 3.601562 7.167969 C 3.601562 7.167969 3.355469 7.03125 3.351562 7.097656 C 3.351562 7.164062 3.640625 7.226562 3.640625 7.226562 Z M 3.644531 7.171875 "/>
</g>
</svg>
