<?xml version="1.0" encoding="UTF-8"?>
<svg xmlns="http://www.w3.org/2000/svg" xmlns:xlink="http://www.w3.org/1999/xlink" width="24px" height="24px" viewBox="0 0 24 12" version="1.1">
<g id="surface1">
<rect x="0" y="0" width="24" height="12" style="fill:rgb(80.784314%,6.666667%,14.901961%);fill-opacity:1;stroke:none;"/>
<path style=" stroke:none;fill-rule:nonzero;fill:rgb(0%,16.862745%,49.803922%);fill-opacity:1;" d="M 0 0 L 12 0 L 12 6 L 0 6 Z M 0 0 "/>
<path style=" stroke:none;fill-rule:nonzero;fill:rgb(100%,100%,100%);fill-opacity:1;" d="M 6 0.25 L 6.410156 1.519531 L 5.332031 0.734375 L 6.667969 0.734375 L 5.589844 1.519531 Z M 6 0.25 "/>
<path style=" stroke:none;fill-rule:nonzero;fill:rgb(100%,100%,100%);fill-opacity:1;" d="M 4.167969 1.75 L 4.578125 3.019531 L 3.5 2.234375 L 4.832031 2.234375 L 3.753906 3.019531 Z M 4.167969 1.75 "/>
<path style=" stroke:none;fill-rule:nonzero;fill:rgb(100%,100%,100%);fill-opacity:1;" d="M 7.875 1.5 L 8.261719 2.6875 L 7.25 1.953125 L 8.5 1.953125 L 7.488281 2.6875 Z M 7.875 1.5 "/>
<path style=" stroke:none;fill-rule:nonzero;fill:rgb(100%,100%,100%);fill-opacity:1;" d="M 6.917969 3.039062 L 7.175781 3.832031 L 6.5 3.34375 L 7.332031 3.34375 L 6.660156 3.832031 Z M 6.917969 3.039062 "/>
<path style=" stroke:none;fill-rule:nonzero;fill:rgb(100%,100%,100%);fill-opacity:1;" d="M 6 4.164062 L 6.515625 5.75 L 5.167969 4.769531 L 6.832031 4.769531 L 5.484375 5.75 Z M 6 4.164062 "/>
</g>
</svg>
