<?xml version="1.0" encoding="UTF-8"?>
<svg xmlns="http://www.w3.org/2000/svg" xmlns:xlink="http://www.w3.org/1999/xlink" width="24px" height="24px" viewBox="0 0 24 17" version="1.1">
<g id="surface1">
<rect x="0" y="0" width="24" height="17" style="fill:rgb(14.117647%,29.019608%,64.705882%);fill-opacity:1;stroke:none;"/>
<path style=" stroke:none;fill-rule:nonzero;fill:rgb(81.568627%,65.098039%,31.372549%);fill-opacity:1;" d="M 12.128906 5.386719 C 12.230469 5.503906 12.296875 5.621094 12.296875 5.761719 C 12.214844 5.800781 12.097656 5.820312 12.03125 5.894531 C 12.449219 5.835938 12.53125 6.316406 13 6.132812 C 13.015625 6.199219 13.085938 6.257812 13.167969 6.234375 L 13.21875 6.101562 C 13.402344 6.050781 13.351562 6.351562 13.554688 6.292969 C 13.652344 6.375 13.585938 6.515625 13.652344 6.617188 C 13.652344 6.730469 13.703125 6.832031 13.753906 6.929688 C 13.804688 6.875 13.835938 6.789062 13.953125 6.816406 C 14.039062 6.90625 14.105469 6.988281 14.121094 7.089844 C 14.089844 7.28125 14.039062 7.445312 14.238281 7.546875 L 14.238281 7.601562 C 14.375 7.660156 14.675781 7.546875 14.675781 7.777344 C 14.65625 7.859375 14.757812 7.785156 14.792969 7.835938 C 14.875 7.800781 14.992188 7.820312 15.09375 7.820312 C 15.175781 7.992188 14.992188 8.117188 14.941406 8.277344 C 15.027344 8.359375 14.992188 8.507812 14.976562 8.609375 L 14.925781 8.632812 C 15.058594 8.65625 15.226562 8.617188 15.34375 8.691406 L 15.5625 8.773438 C 15.664062 8.714844 15.777344 8.707031 15.914062 8.714844 C 16.015625 8.789062 15.878906 8.914062 15.964844 8.972656 C 16.082031 8.972656 16.179688 8.988281 16.199219 9.089844 L 16.214844 9.121094 C 16.296875 8.972656 16.53125 9.074219 16.632812 8.964844 C 16.800781 8.964844 16.835938 9.148438 16.917969 9.246094 C 16.953125 9.503906 16.632812 9.621094 16.734375 9.878906 C 16.667969 10.003906 16.53125 10.101562 16.433594 10.21875 C 16.464844 10.234375 16.449219 10.277344 16.449219 10.300781 C 16.347656 10.359375 16.433594 10.535156 16.296875 10.550781 C 16.28125 10.660156 16.082031 10.617188 16.148438 10.734375 C 16.28125 10.90625 16.082031 11.015625 16.082031 11.171875 C 15.996094 11.265625 15.828125 11.089844 15.828125 11.265625 C 15.730469 11.289062 15.628906 11.171875 15.5625 11.273438 C 15.527344 11.390625 15.628906 11.429688 15.613281 11.546875 C 15.777344 11.53125 15.828125 11.695312 15.894531 11.796875 L 16.0625 11.960938 C 15.894531 12.09375 15.679688 11.945312 15.476562 12.019531 C 15.425781 11.996094 15.476562 11.929688 15.425781 11.902344 C 15.378906 11.84375 15.277344 11.84375 15.195312 11.828125 C 15.210938 11.902344 15.058594 11.929688 15.125 12.019531 C 15.125 12.042969 15.160156 12.117188 15.09375 12.117188 C 14.957031 12.160156 14.976562 12.003906 14.859375 12.0625 C 14.707031 12.117188 14.824219 12.34375 14.605469 12.316406 C 14.640625 12.519531 14.273438 12.652344 14.523438 12.824219 C 14.558594 12.859375 14.539062 12.925781 14.539062 12.972656 C 14.390625 13.105469 14.121094 13.058594 13.953125 13.007812 C 13.820312 12.972656 13.90625 12.808594 13.855469 12.71875 C 13.804688 12.632812 13.652344 12.574219 13.652344 12.460938 C 13.554688 12.417969 13.46875 12.394531 13.402344 12.308594 C 13.167969 12.535156 12.882812 12.75 12.546875 12.757812 C 12.398438 12.832031 12.3125 13.132812 12.078125 13.007812 C 11.988281 13.15625 11.710938 13.007812 11.695312 13.222656 C 11.585938 13.265625 11.636719 13.40625 11.570312 13.472656 C 11.542969 13.636719 11.570312 13.78125 11.710938 13.878906 C 11.769531 14.003906 11.585938 14.003906 11.660156 14.121094 C 11.679688 14.160156 11.660156 14.21875 11.636719 14.234375 C 11.585938 14.261719 11.570312 14.285156 11.585938 14.335938 C 11.542969 14.335938 11.527344 14.359375 11.492188 14.394531 C 11.453125 14.476562 11.316406 14.519531 11.226562 14.574219 C 11.132812 14.601562 11.066406 14.535156 11.007812 14.476562 C 10.992188 14.566406 10.914062 14.617188 10.824219 14.617188 C 10.691406 14.617188 10.714844 14.5 10.613281 14.453125 C 10.65625 14.300781 10.523438 14.234375 10.566406 14.101562 C 10.671875 14.019531 10.855469 13.960938 10.808594 13.789062 C 10.691406 13.648438 10.730469 13.4375 10.613281 13.273438 C 10.539062 13.207031 10.414062 13.105469 10.457031 12.949219 C 10.566406 12.824219 10.457031 12.675781 10.398438 12.542969 C 10.371094 12.433594 10.304688 12.335938 10.304688 12.210938 C 10.121094 12.101562 10.113281 11.820312 9.851562 11.796875 C 9.667969 11.796875 9.636719 11.5625 9.453125 11.578125 C 9.433594 11.546875 9.390625 11.523438 9.359375 11.488281 C 9.226562 11.578125 9.058594 11.464844 8.890625 11.503906 C 8.78125 11.324219 8.980469 11.074219 8.6875 10.964844 L 8.6875 10.847656 C 8.722656 10.867188 8.738281 10.832031 8.746094 10.816406 C 8.765625 10.691406 8.539062 10.675781 8.632812 10.535156 C 8.582031 10.492188 8.523438 10.476562 8.554688 10.390625 C 8.429688 10.136719 8.054688 10.160156 7.96875 9.902344 C 8.035156 9.84375 8.035156 9.785156 8.0625 9.738281 C 8.003906 9.636719 7.988281 9.53125 8.003906 9.421875 C 8.0625 9.40625 8.09375 9.332031 8.128906 9.273438 C 8.054688 9.222656 7.960938 9.148438 7.878906 9.171875 C 7.726562 9.148438 7.617188 9.03125 7.484375 8.964844 C 7.449219 8.933594 7.46875 8.875 7.46875 8.832031 C 7.652344 8.773438 7.441406 8.515625 7.667969 8.550781 C 7.726562 8.476562 7.851562 8.449219 7.945312 8.390625 C 8.035156 8.375 8.113281 8.410156 8.203125 8.433594 C 8.277344 8.53125 8.414062 8.492188 8.488281 8.574219 C 8.5625 8.558594 8.65625 8.515625 8.746094 8.558594 C 8.746094 8.417969 8.816406 8.332031 8.914062 8.234375 C 8.933594 8.175781 9.023438 8.132812 9.097656 8.101562 C 9.242188 8.132812 9.410156 8.132812 9.511719 8.035156 C 9.578125 8.078125 9.636719 7.992188 9.710938 7.992188 C 9.800781 7.976562 9.878906 8 9.945312 8.042969 C 9.953125 7.878906 10.246094 8.019531 10.304688 7.820312 C 10.371094 7.6875 10.121094 7.636719 10.136719 7.519531 C 10.097656 7.386719 10.195312 7.320312 10.246094 7.230469 C 10.304688 7.207031 10.371094 7.171875 10.445312 7.1875 C 10.640625 7.121094 10.488281 6.730469 10.800781 6.875 C 10.800781 6.914062 10.78125 6.964844 10.808594 6.972656 C 10.914062 6.972656 10.933594 6.847656 11.007812 6.804688 C 11.042969 6.691406 10.964844 6.550781 11.066406 6.457031 C 11.117188 6.449219 11.160156 6.433594 11.191406 6.390625 C 11.191406 6.300781 11.140625 6.25 11.066406 6.191406 C 11.042969 6.234375 10.976562 6.199219 10.933594 6.21875 C 10.933594 6.117188 10.875 6.050781 10.855469 5.960938 C 10.808594 5.933594 10.78125 5.894531 10.800781 5.835938 C 10.875 5.761719 10.800781 5.578125 10.976562 5.621094 C 11.042969 5.5625 11.160156 5.601562 11.226562 5.503906 C 11.402344 5.402344 11.636719 5.402344 11.769531 5.222656 C 11.828125 5.230469 11.894531 5.171875 11.953125 5.222656 C 11.96875 5.328125 12.128906 5.289062 12.128906 5.386719 "/>
<path style=" stroke:none;fill-rule:nonzero;fill:rgb(100%,100%,100%);fill-opacity:1;" d="M 13.425781 3.136719 L 13.195312 2.429688 L 12.964844 3.136719 L 12.21875 3.136719 L 12.824219 3.574219 L 12.589844 4.277344 L 13.195312 3.84375 L 13.800781 4.277344 L 13.570312 3.574219 L 14.175781 3.136719 Z M 15.78125 3.546875 L 15.546875 2.84375 L 15.320312 3.546875 L 14.570312 3.546875 L 15.175781 3.984375 L 14.945312 4.6875 L 15.546875 4.253906 L 16.152344 4.6875 L 15.921875 3.984375 L 16.527344 3.546875 Z M 18.027344 4.359375 L 17.796875 3.65625 L 17.566406 4.359375 L 16.816406 4.359375 L 17.421875 4.792969 L 17.191406 5.5 L 17.796875 5.0625 L 18.398438 5.5 L 18.167969 4.792969 L 18.773438 4.359375 Z M 11.035156 3.136719 L 10.804688 2.429688 L 10.574219 3.136719 L 9.824219 3.136719 L 10.429688 3.574219 L 10.199219 4.277344 L 10.804688 3.84375 L 11.410156 4.277344 L 11.175781 3.574219 L 11.78125 3.136719 Z M 8.679688 3.546875 L 8.453125 2.84375 L 8.21875 3.546875 L 7.472656 3.546875 L 8.078125 3.984375 L 7.847656 4.6875 L 8.453125 4.253906 L 9.054688 4.6875 L 8.824219 3.984375 L 9.429688 3.546875 Z M 6.433594 4.359375 L 6.203125 3.65625 L 5.972656 4.359375 L 5.226562 4.359375 L 5.832031 4.792969 L 5.601562 5.5 L 6.203125 5.0625 L 6.808594 5.5 L 6.578125 4.792969 L 7.183594 4.359375 Z M 6.433594 4.359375 "/>
</g>
</svg>
