<?xml version="1.0" encoding="UTF-8"?>
<svg xmlns="http://www.w3.org/2000/svg" xmlns:xlink="http://www.w3.org/1999/xlink" width="24px" height="24px" viewBox="0 0 24 16" version="1.1">
<g id="surface1">
<rect x="0" y="0" width="24" height="16" style="fill:rgb(9.803922%,54.117647%,0%);fill-opacity:1;stroke:none;"/>
<path style=" stroke:none;fill-rule:nonzero;fill:rgb(87.058824%,12.54902%,6.27451%);fill-opacity:1;" d="M 15.429688 5.714844 L 21.144531 5.714844 L 21.144531 16 L 15.429688 16 Z M 15.429688 5.714844 "/>
<path style=" stroke:none;fill-rule:nonzero;fill:rgb(93.72549%,49.019608%,0%);fill-opacity:1;" d="M 18.285156 5.714844 L 24 5.714844 L 24 16 L 18.285156 16 Z M 18.285156 5.714844 "/>
<path style=" stroke:none;fill-rule:nonzero;fill:rgb(0%,0%,0%);fill-opacity:1;" d="M 18.285156 5.714844 L 21.144531 5.714844 L 21.144531 16 L 18.285156 16 Z M 18.285156 5.714844 "/>
<path style="fill-rule:nonzero;fill:rgb(93.72549%,49.019608%,0%);fill-opacity:1;stroke-width:2.25;stroke-linecap:round;stroke-linejoin:round;stroke:rgb(0%,0%,0%);stroke-opacity:1;stroke-miterlimit:4;" d="M 1916.455078 168.164062 C 1916.455078 168.164062 2002.587891 134.667969 2010.791016 127.832031 C 2014.550781 131.933594 1976.269531 174.316406 1902.099609 190.039062 C 1969.433594 175.341797 2027.197266 129.541016 2038.818359 130.908203 C 2042.236328 131.591797 2041.552734 175.683594 1886.71875 213.964844 C 1993.701172 187.988281 2055.908203 140.820312 2055.224609 145.947266 C 2055.908203 146.972656 2044.628906 183.203125 1950.976562 211.572266 C 1976.953125 205.761719 2048.046875 166.113281 2047.021484 173.974609 C 2049.414062 177.050781 1978.662109 260.449219 1850.488281 233.447266 C 1952.685547 257.714844 2018.994141 198.925781 2028.564453 199.951172 C 2030.615234 200.292969 2009.765625 251.220703 1880.908203 254.638672 C 1942.431641 248.486328 1924.658203 254.296875 1924.658203 254.296875 C 1924.658203 254.296875 1888.427734 280.273438 1844.335938 262.5 C 1878.857422 271.044922 1882.617188 271.386719 1883.300781 274.462891 C 1881.25 277.880859 1852.880859 283.007812 1825.537109 269.335938 C 1847.412109 277.880859 1867.236328 279.248047 1867.578125 282.324219 C 1867.236328 283.349609 1853.222656 290.527344 1840.576172 285.400391 C 1828.271484 280.273438 1713.085938 215.332031 1713.085938 215.332031 L 1909.277344 165.771484 Z M 1685.742188 344.189453 C 1668.310547 344.189453 1667.96875 358.203125 1667.96875 358.203125 C 1667.96875 358.203125 1666.601562 359.228516 1667.626953 366.064453 C 1670.361328 361.279297 1671.728516 359.912109 1671.728516 359.912109 C 1673.779297 360.253906 1681.640625 362.304688 1693.945312 353.417969 C 1682.666016 364.355469 1689.501953 368.457031 1689.501953 368.457031 C 1689.501953 368.457031 1686.767578 377.001953 1695.654297 378.710938 C 1692.919922 375.292969 1694.287109 372.216797 1694.287109 372.216797 C 1694.287109 372.216797 1706.591797 370.849609 1705.908203 357.177734 C 1706.25 369.824219 1713.427734 372.558594 1713.427734 372.558594 C 1713.427734 372.558594 1713.427734 379.394531 1721.630859 380.078125 C 1717.1875 376.660156 1718.212891 371.191406 1718.212891 371.191406 C 1718.212891 371.191406 1728.466797 364.355469 1719.921875 352.734375 C 1725.048828 350 1729.150391 342.480469 1729.150391 342.480469 C 1729.150391 342.480469 1721.972656 339.746094 1718.896484 337.353516 C 1717.1875 334.277344 1718.554688 317.529297 1718.554688 317.529297 L 1714.453125 295.996094 L 1702.148438 329.492188 C 1702.490234 324.707031 1702.832031 344.189453 1685.742188 344.189453 Z M 1685.742188 344.189453 " transform="matrix(0.0114286,0,0,0.0114286,0,0)"/>
<path style="fill-rule:nonzero;fill:rgb(93.72549%,49.019608%,0%);fill-opacity:1;stroke-width:2.25;stroke-linecap:round;stroke-linejoin:round;stroke:rgb(0%,0%,0%);stroke-opacity:1;stroke-miterlimit:4;" d="M 1770.849609 295.654297 C 1771.191406 295.996094 1783.837891 308.642578 1795.800781 307.958984 C 1800.585938 304.541016 1786.572266 297.021484 1786.572266 295.3125 C 1791.357422 299.414062 1812.207031 315.820312 1825.537109 309.667969 C 1830.664062 302.832031 1815.966797 303.857422 1799.902344 285.058594 C 1811.181641 291.894531 1839.550781 307.275391 1852.880859 301.464844 C 1858.349609 295.996094 1823.144531 278.564453 1811.523438 264.892578 L 1781.103516 250.537109 L 1739.746094 281.640625 Z M 1724.365234 190.039062 C 1724.365234 190.039062 1738.378906 182.177734 1794.433594 185.9375 C 1800.585938 186.621094 1832.714844 176.025391 1842.96875 172.949219 C 1859.375 170.214844 1910.986328 159.619141 1925 150.048828 C 1934.912109 149.023438 1922.607422 166.455078 1909.960938 170.898438 C 1896.630859 176.367188 1848.779297 191.748047 1831.689453 189.697266 C 1851.855469 190.039062 1840.576172 205.078125 1806.396484 197.900391 C 1822.802734 206.103516 1816.650391 207.470703 1816.650391 207.470703 C 1816.650391 207.470703 1787.939453 208.837891 1780.419922 203.027344 C 1799.902344 209.521484 1791.699219 212.255859 1791.699219 212.255859 C 1791.699219 212.255859 1772.216797 213.964844 1762.988281 209.863281 C 1777.001953 213.964844 1769.824219 216.357422 1769.824219 216.357422 C 1769.824219 216.357422 1758.544922 218.066406 1748.974609 214.990234 C 1739.404297 211.914062 1725.048828 190.039062 1724.365234 190.039062 Z M 1746.923828 302.832031 L 1748.974609 336.669922 C 1748.974609 336.669922 1747.607422 338.378906 1746.923828 339.404297 C 1745.898438 340.429688 1720.605469 335.986328 1724.023438 353.417969 C 1724.023438 360.9375 1724.023438 362.646484 1729.492188 366.748047 C 1728.125 361.962891 1728.466797 358.544922 1728.466797 358.544922 C 1728.466797 358.544922 1735.644531 362.646484 1742.822266 351.708984 C 1738.037109 362.304688 1741.455078 366.064453 1742.480469 366.40625 C 1743.505859 368.457031 1740.429688 377.001953 1750 376.660156 C 1746.240234 373.583984 1747.949219 368.798828 1747.949219 368.798828 C 1747.949219 368.798828 1758.203125 367.431641 1754.443359 351.025391 C 1758.203125 347.607422 1759.570312 350.683594 1759.570312 350.683594 C 1759.570312 350.683594 1760.595703 360.595703 1769.482422 358.544922 C 1773.583984 360.595703 1768.798828 366.064453 1768.798828 366.064453 C 1768.798828 366.064453 1775.292969 366.064453 1777.001953 361.279297 C 1779.052734 356.152344 1781.103516 347.607422 1770.849609 343.847656 C 1769.482422 340.429688 1774.951172 340.087891 1774.951172 340.087891 C 1774.951172 340.087891 1781.445312 342.138672 1783.496094 345.214844 C 1785.205078 348.291016 1784.521484 337.011719 1776.318359 335.986328 C 1766.40625 335.644531 1765.722656 333.935547 1765.722656 333.251953 C 1765.722656 332.910156 1764.013672 308.642578 1762.988281 301.806641 Z M 1746.923828 302.832031 " transform="matrix(0.0114286,0,0,0.0114286,0,0)"/>
<path style="fill-rule:nonzero;fill:rgb(93.72549%,49.019608%,0%);fill-opacity:1;stroke-width:2.25;stroke-linecap:round;stroke-linejoin:round;stroke:rgb(0%,0%,0%);stroke-opacity:1;stroke-miterlimit:4;" d="M 1782.128906 331.542969 C 1782.128906 330.175781 1764.697266 308.642578 1769.140625 305.908203 C 1773.583984 306.591797 1780.761719 316.503906 1786.572266 313.427734 C 1784.863281 309.326172 1779.736328 311.71875 1773.583984 301.806641 C 1767.773438 290.869141 1767.089844 274.121094 1746.240234 256.347656 C 1759.570312 275.146484 1790.332031 286.425781 1791.357422 280.957031 C 1792.724609 275.488281 1764.697266 254.296875 1766.064453 249.169922 C 1771.533203 259.765625 1799.902344 283.007812 1820.751953 280.957031 C 1822.119141 276.513672 1803.662109 267.285156 1798.876953 259.082031 C 1785.546875 250.878906 1750 222.509766 1749.316406 216.015625 C 1736.328125 198.583984 1728.125 193.457031 1724.365234 191.40625 C 1722.998047 189.697266 1722.314453 188.330078 1722.314453 187.304688 C 1714.111328 169.873047 1724.707031 164.0625 1731.201172 163.378906 C 1736.328125 162.695312 1737.695312 163.378906 1741.455078 162.011719 C 1737.011719 160.302734 1732.568359 158.935547 1728.125 157.226562 C 1733.935547 160.986328 1748.632812 157.910156 1745.556641 168.847656 C 1751.708984 166.455078 1765.380859 151.757812 1729.833984 148.339844 C 1718.554688 136.376953 1671.044922 129.199219 1659.082031 182.177734 C 1660.107422 182.861328 1660.449219 183.544922 1663.525391 185.595703 C 1648.486328 179.101562 1608.154297 173.974609 1593.457031 171.582031 C 1554.150391 161.328125 1513.476562 136.035156 1509.375 139.111328 C 1504.248047 141.503906 1533.300781 166.113281 1531.591797 166.796875 C 1506.640625 153.125 1483.398438 143.896484 1462.207031 135.009766 C 1447.167969 129.882812 1431.787109 117.919922 1430.419922 120.3125 C 1424.609375 130.566406 1454.345703 157.226562 1459.814453 160.302734 C 1465.283203 163.378906 1509.033203 181.835938 1508.349609 181.835938 C 1442.724609 154.833984 1431.787109 149.707031 1428.710938 146.630859 C 1422.900391 145.605469 1408.886719 128.173828 1404.785156 129.199219 C 1402.734375 131.25 1407.177734 158.59375 1438.28125 170.898438 C 1443.408203 174.316406 1505.273438 194.824219 1504.589844 196.191406 C 1504.248047 196.533203 1433.837891 169.53125 1431.103516 168.505859 C 1417.431641 163.720703 1400.683594 146.630859 1397.607422 148.339844 C 1394.53125 150.048828 1405.126953 168.847656 1419.140625 174.658203 C 1426.318359 177.392578 1454.003906 190.039062 1478.955078 198.242188 C 1480.322266 198.583984 1433.837891 181.835938 1411.621094 173.291016 C 1401.708984 168.164062 1396.923828 161.669922 1395.214844 163.037109 C 1392.822266 164.746094 1398.974609 192.089844 1470.751953 207.470703 C 1472.460938 208.154297 1496.044922 202.34375 1494.677734 203.369141 C 1494.335938 203.369141 1471.435547 208.154297 1469.384766 207.8125 C 1467.333984 207.470703 1454.6875 209.179688 1454.6875 209.863281 C 1453.662109 211.572266 1459.130859 221.484375 1496.044922 219.433594 C 1500.830078 219.091797 1526.464844 210.888672 1524.414062 212.597656 C 1523.388672 213.623047 1489.550781 223.535156 1486.816406 223.876953 C 1484.423828 224.21875 1472.802734 225.244141 1472.119141 226.269531 C 1471.777344 227.978516 1481.005859 235.15625 1500.830078 236.181641 C 1518.603516 236.865234 1552.099609 226.269531 1551.416016 226.953125 C 1550.732422 227.636719 1518.945312 237.548828 1518.261719 238.232422 C 1517.236328 238.916016 1505.615234 239.257812 1505.273438 240.283203 C 1504.248047 242.333984 1521.679688 257.373047 1573.974609 241.308594 C 1568.505859 247.802734 1543.554688 252.246094 1543.554688 253.271484 C 1543.212891 253.955078 1549.023438 259.082031 1557.910156 260.791016 C 1562.353516 261.816406 1568.164062 261.816406 1573.974609 260.791016 C 1583.886719 259.082031 1594.140625 255.322266 1607.470703 244.042969 C 1609.179688 247.802734 1574.316406 263.867188 1576.025391 265.234375 C 1583.544922 271.728516 1608.496094 264.550781 1610.205078 263.867188 C 1611.914062 262.841797 1658.398438 238.916016 1658.056641 236.181641 C 1659.082031 239.599609 1598.242188 270.019531 1598.925781 271.044922 C 1602.685547 276.855469 1623.535156 270.703125 1624.560547 270.361328 C 1625.585938 269.677734 1650.878906 257.03125 1651.5625 256.689453 C 1652.246094 256.347656 1621.826172 273.095703 1624.560547 275.830078 C 1623.193359 286.767578 1672.412109 268.310547 1676.171875 265.917969 C 1678.222656 264.892578 1652.587891 276.171875 1652.587891 281.640625 C 1660.791016 294.628906 1687.109375 290.527344 1691.210938 287.451172 C 1693.261719 286.083984 1688.818359 297.021484 1690.185547 295.996094 C 1690.527344 295.996094 1695.996094 290.185547 1698.046875 286.083984 C 1697.363281 289.501953 1694.287109 295.3125 1692.578125 301.806641 C 1690.869141 308.300781 1690.527344 315.478516 1688.134766 323.339844 C 1687.792969 326.757812 1704.541016 316.503906 1702.148438 292.578125 C 1703.515625 304.882812 1696.679688 328.466797 1698.388672 329.492188 C 1702.148438 331.884766 1711.71875 317.871094 1712.744141 308.642578 C 1715.478516 313.427734 1721.630859 323.339844 1727.099609 325.732422 C 1726.416016 318.212891 1727.099609 318.554688 1724.707031 311.376953 C 1726.074219 302.148438 1726.074219 288.818359 1726.416016 274.121094 C 1740.771484 299.072266 1746.582031 309.667969 1742.480469 328.808594 C 1746.582031 330.517578 1753.417969 315.478516 1752.734375 307.617188 C 1758.203125 329.150391 1781.787109 332.226562 1782.128906 331.542969 Z M 1782.128906 331.542969 " transform="matrix(0.0114286,0,0,0.0114286,0,0)"/>
<path style="fill-rule:nonzero;fill:rgb(93.72549%,49.019608%,0%);fill-opacity:1;stroke-width:2.25;stroke-linecap:round;stroke-linejoin:round;stroke:rgb(0%,0%,0%);stroke-opacity:1;stroke-miterlimit:4;" d="M 1545.605469 173.291016 C 1545.605469 173.291016 1536.035156 180.126953 1523.730469 179.443359 C 1526.806641 190.722656 1551.757812 182.177734 1551.757812 182.177734 C 1551.757812 182.177734 1539.794922 194.482422 1531.25 196.191406 C 1536.376953 200.292969 1557.910156 198.925781 1561.669922 196.875 C 1565.429688 194.824219 1571.923828 187.304688 1571.923828 187.304688 C 1571.923828 187.304688 1549.365234 210.888672 1546.289062 210.546875 C 1545.947266 213.623047 1569.53125 212.597656 1574.658203 208.496094 C 1579.443359 204.052734 1592.089844 198.242188 1592.089844 198.242188 C 1592.089844 198.242188 1559.277344 219.091797 1557.910156 219.091797 C 1570.214844 221.826172 1594.482422 215.332031 1610.205078 206.445312 C 1586.962891 220.800781 1584.912109 223.193359 1572.949219 227.978516 C 1583.544922 230.371094 1589.013672 236.865234 1624.560547 222.509766 C 1645.068359 213.623047 1656.689453 197.558594 1656.689453 197.558594 C 1644.042969 212.939453 1623.876953 226.269531 1602.001953 239.257812 C 1600.634766 241.650391 1625.585938 251.220703 1657.373047 220.800781 M 1718.212891 238.916016 C 1718.212891 238.916016 1720.263672 248.486328 1728.808594 255.322266 C 1737.695312 262.5 1738.378906 269.335938 1738.378906 269.335938 M 1714.111328 178.759766 C 1714.111328 178.759766 1716.845703 186.962891 1725.732422 192.431641 C 1734.619141 197.558594 1748.291016 214.306641 1749.316406 217.382812 C 1750.341797 221.142578 1755.46875 246.777344 1755.126953 249.511719 " transform="matrix(0.0114286,0,0,0.0114286,0,0)"/>
<path style="fill-rule:nonzero;fill:rgb(93.72549%,49.019608%,0%);fill-opacity:1;stroke-width:2.25;stroke-linecap:round;stroke-linejoin:round;stroke:rgb(0%,0%,0%);stroke-opacity:1;stroke-miterlimit:4;" d="M 1659.082031 191.748047 C 1659.765625 194.824219 1646.435547 210.546875 1664.892578 229.345703 C 1648.144531 247.802734 1648.144531 250.195312 1648.144531 250.195312 C 1648.144531 250.195312 1657.373047 254.980469 1674.121094 241.992188 C 1701.123047 272.753906 1692.236328 286.767578 1692.236328 286.767578 " transform="matrix(0.0114286,0,0,0.0114286,0,0)"/>
<path style="fill-rule:nonzero;fill:rgb(93.72549%,49.019608%,0%);fill-opacity:1;stroke-width:2.25;stroke-linecap:round;stroke-linejoin:round;stroke:rgb(0%,0%,0%);stroke-opacity:1;stroke-miterlimit:4;" d="M 1689.84375 265.234375 C 1689.84375 265.234375 1687.451172 261.816406 1691.894531 249.511719 C 1695.996094 253.955078 1700.439453 254.980469 1702.490234 256.689453 C 1704.541016 258.398438 1725.048828 261.132812 1726.416016 273.779297 M 1714.111328 149.365234 C 1714.111328 148.339844 1710.009766 140.478516 1694.628906 150.390625 C 1702.832031 151.074219 1711.035156 155.517578 1714.111328 149.365234 Z M 1861.767578 186.621094 C 1862.792969 186.962891 1908.251953 196.191406 1923.291016 191.748047 C 1903.808594 215.332031 1865.185547 199.267578 1865.185547 199.267578 C 1884.326172 204.394531 1885.009766 204.052734 1891.162109 208.837891 C 1892.871094 213.623047 1856.298828 211.572266 1843.994141 205.078125 C 1877.832031 214.990234 1878.515625 214.306641 1879.541016 218.066406 C 1881.25 223.193359 1824.511719 216.699219 1819.384766 209.521484 C 1834.423828 220.458984 1842.96875 222.509766 1851.171875 227.294922 C 1840.917969 231.738281 1822.119141 235.839844 1787.255859 213.28125 C 1833.056641 251.220703 1874.414062 248.828125 1880.908203 256.005859 C 1864.84375 277.539062 1802.978516 243.017578 1774.609375 225.585938 C 1746.240234 208.154297 1836.816406 267.626953 1845.361328 266.601562 C 1840.917969 272.412109 1811.181641 267.285156 1809.130859 264.550781 M 1873.730469 226.611328 C 1868.261719 227.294922 1852.539062 227.294922 1850.146484 226.953125 M 1532.275391 167.138672 C 1532.275391 167.138672 1566.796875 183.886719 1581.494141 182.519531 C 1577.734375 185.9375 1571.923828 187.304688 1571.923828 187.304688 C 1575.341797 188.671875 1585.595703 193.457031 1600.634766 190.380859 C 1597.216797 193.798828 1592.431641 197.558594 1592.431641 197.558594 C 1592.431641 197.558594 1605.419922 202.001953 1620.458984 194.824219 C 1615.673828 199.951172 1613.28125 203.710938 1613.28125 203.710938 L 1623.535156 204.394531 " transform="matrix(0.0114286,0,0,0.0114286,0,0)"/>
</g>
</svg>
