<?xml version="1.0" encoding="utf-8"?>
<svg id="svg30" viewBox="0 0 24 12" width="24px" height="12px" xmlns="http://www.w3.org/2000/svg">
  <defs>
    <clipPath id="clip-path">
      <path fill="none" d="M0 0h1260v630H0z"/>
    </clipPath>
    <style>.cls-8{fill:#ffd200}.cls-4{fill:#d40000}.cls-8{fill-rule:evenodd}</style>
  </defs>
  <path id="path7" d="M 0 0 L 24 0 L 24 12 L 0 12 L 0 0 Z" fill="#006400"/>
  <path id="path9" d="M 0 1.714 L 24 1.714 L 24 10.286 L 0 10.286 L 0 1.714 Z" fill="#ffd200"/>
  <path id="path11" class="cls-4" d="M 0 3.429 L 24 3.429 L 24 8.571 L 0 8.571 L 0 3.429 Z"/>
  <path id="path13" d="M 0 5.143 L 24 5.143 L 24 6.857 L 0 6.857 L 0 5.143 Z"/>
  <g clip-path="url(#clip-path)" transform="matrix(0.019048, 0, 0, 0.019048, 0, 0)">
    <path id="path15" d="M0 0v630l420-315z" stroke="#000" stroke-width="30"/>
  </g>
  <path id="path17" d="M 0 0 L 0 12 L 8 6 L 0 0 Z" fill="#fff"/>
  <path id="path19" class="cls-4" d="M 3.043 2.983 L 4.628 7.859 L 0.48 4.846 L 5.607 4.846 L 1.459 7.86 L 3.043 2.983 Z"/>
  <path id="path636" class="cls-8" d="M 2.912 4.165 C 2.794 4.03 2.579 4.046 2.482 4.197 C 2.433 4.196 2.385 4.199 2.337 4.207 C 2.242 4.224 2.187 4.323 2.224 4.412 L 2.388 4.402 C 2.455 4.44 2.497 4.51 2.499 4.587 L 2.518 5.237 C 2.487 5.302 2.471 5.374 2.472 5.447 C 2.473 5.534 2.48 5.621 2.492 5.708 C 2.505 5.794 2.477 5.882 2.416 5.945 C 2.321 6.042 2.238 6.151 2.17 6.269 C 2.117 6.358 2.126 6.472 2.192 6.552 L 2.378 7.274 L 3.777 7.274 L 3.855 6.662 C 3.888 6.402 4.036 6.171 4.258 6.032 L 4.313 6.048 C 4.373 6.065 4.428 6.011 4.413 5.951 C 4.408 5.933 4.398 5.918 4.385 5.907 L 3.061 4.872 L 3.026 4.437 C 3.018 4.336 2.978 4.241 2.912 4.165"/>
  <path id="path638" d="M 2.898 4.177 L 2.897 4.176 L 2.924 4.152 L 2.925 4.153 L 2.898 4.177 Z M 2.897 4.176 C 2.89 4.168 2.882 4.16 2.874 4.153 L 2.898 4.126 C 2.907 4.134 2.916 4.143 2.924 4.152 L 2.897 4.176 Z M 2.897 4.126 L 2.886 4.139 L 2.897 4.126 Z M 2.874 4.152 C 2.866 4.145 2.857 4.139 2.848 4.133 L 2.867 4.103 C 2.878 4.11 2.888 4.118 2.897 4.126 L 2.874 4.152 Z M 2.848 4.133 C 2.802 4.102 2.746 4.088 2.69 4.092 L 2.688 4.056 C 2.751 4.052 2.815 4.068 2.868 4.103 L 2.848 4.133 Z M 2.69 4.092 L 2.689 4.092 L 2.686 4.056 L 2.688 4.056 L 2.69 4.092 Z M 2.686 4.056 L 2.687 4.074 L 2.686 4.056 Z M 2.689 4.092 C 2.678 4.093 2.667 4.095 2.656 4.097 L 2.649 4.062 C 2.661 4.059 2.673 4.057 2.686 4.056 L 2.689 4.092 Z M 2.656 4.097 C 2.646 4.099 2.635 4.102 2.625 4.106 L 2.613 4.072 C 2.625 4.068 2.637 4.064 2.649 4.062 L 2.656 4.097 Z M 2.625 4.106 C 2.572 4.124 2.527 4.16 2.497 4.207 L 2.467 4.188 C 2.501 4.134 2.553 4.093 2.613 4.072 L 2.625 4.106 Z M 2.497 4.207 L 2.482 4.215 L 2.482 4.197 L 2.497 4.207 Z M 2.482 4.215 L 2.476 4.215 L 2.476 4.18 L 2.482 4.18 L 2.481 4.216 L 2.482 4.215 Z M 2.477 4.215 Z M 2.477 4.215 L 2.458 4.215 L 2.458 4.179 L 2.478 4.179 L 2.477 4.215 Z M 2.458 4.215 L 2.439 4.215 L 2.437 4.18 L 2.458 4.18 L 2.458 4.215 Z M 2.439 4.215 C 2.406 4.217 2.374 4.22 2.341 4.226 L 2.335 4.19 C 2.369 4.184 2.403 4.181 2.437 4.18 L 2.439 4.215 Z M 2.341 4.226 L 2.333 4.19 L 2.339 4.226 L 2.341 4.226 Z M 2.334 4.19 L 2.338 4.208 L 2.334 4.19 L 2.334 4.19 Z M 2.341 4.226 C 2.335 4.227 2.33 4.228 2.325 4.23 L 2.314 4.195 C 2.321 4.193 2.328 4.191 2.334 4.19 L 2.341 4.226 Z M 2.325 4.23 C 2.319 4.231 2.314 4.233 2.309 4.235 L 2.294 4.203 C 2.301 4.2 2.307 4.197 2.314 4.195 L 2.325 4.23 Z M 2.294 4.203 L 2.302 4.219 L 2.294 4.203 Z M 2.309 4.235 C 2.284 4.247 2.262 4.267 2.249 4.292 L 2.217 4.274 C 2.234 4.243 2.261 4.218 2.293 4.203 L 2.309 4.235 Z M 2.217 4.274 L 2.233 4.282 L 2.217 4.274 Z M 2.249 4.29 L 2.249 4.292 L 2.217 4.275 L 2.217 4.274 L 2.249 4.29 Z M 2.216 4.275 L 2.232 4.284 L 2.216 4.276 L 2.216 4.275 Z M 2.248 4.292 C 2.245 4.297 2.243 4.302 2.241 4.307 L 2.207 4.294 C 2.21 4.288 2.213 4.282 2.216 4.275 L 2.248 4.292 Z M 2.207 4.295 L 2.224 4.301 L 2.207 4.295 L 2.207 4.295 Z M 2.241 4.307 C 2.239 4.312 2.237 4.318 2.236 4.323 L 2.201 4.314 C 2.203 4.308 2.205 4.302 2.207 4.295 L 2.241 4.307 Z M 2.201 4.314 L 2.218 4.319 L 2.201 4.314 Z M 2.236 4.323 C 2.229 4.35 2.231 4.379 2.242 4.405 L 2.209 4.418 C 2.195 4.385 2.193 4.349 2.201 4.314 L 2.236 4.323 Z M 2.226 4.429 L 2.209 4.418 L 2.226 4.411 L 2.226 4.429 Z M 2.224 4.393 L 2.388 4.384 L 2.39 4.42 L 2.226 4.429 L 2.224 4.393 Z M 2.388 4.384 L 2.398 4.386 L 2.389 4.402 L 2.388 4.384 Z M 2.398 4.386 L 2.402 4.388 L 2.383 4.419 L 2.38 4.417 L 2.397 4.386 L 2.398 4.386 Z M 2.402 4.388 C 2.412 4.394 2.421 4.4 2.43 4.407 L 2.408 4.435 C 2.4 4.429 2.392 4.424 2.384 4.419 L 2.402 4.388 Z M 2.43 4.407 C 2.439 4.415 2.447 4.422 2.455 4.431 L 2.429 4.455 C 2.422 4.448 2.415 4.442 2.408 4.436 L 2.43 4.407 Z M 2.455 4.431 C 2.494 4.473 2.517 4.528 2.518 4.586 L 2.483 4.586 C 2.481 4.537 2.462 4.49 2.429 4.454 L 2.455 4.431 Z M 2.518 4.586 L 2.538 5.236 L 2.502 5.237 L 2.483 4.587 L 2.518 4.586 Z M 2.538 5.236 L 2.536 5.244 L 2.52 5.236 L 2.538 5.236 L 2.538 5.236 Z M 2.536 5.244 C 2.535 5.246 2.533 5.249 2.532 5.253 L 2.499 5.238 C 2.5 5.235 2.502 5.232 2.503 5.229 L 2.536 5.244 Z M 2.499 5.238 L 2.515 5.245 L 2.499 5.238 Z M 2.532 5.252 C 2.528 5.261 2.524 5.27 2.521 5.279 L 2.487 5.266 C 2.491 5.257 2.495 5.247 2.499 5.238 L 2.532 5.252 Z M 2.487 5.266 L 2.504 5.273 L 2.487 5.266 Z M 2.521 5.279 C 2.517 5.288 2.514 5.297 2.511 5.306 L 2.477 5.296 C 2.48 5.286 2.483 5.277 2.487 5.266 L 2.521 5.279 Z M 2.511 5.306 C 2.497 5.351 2.49 5.398 2.491 5.446 L 2.455 5.446 C 2.454 5.395 2.462 5.344 2.477 5.295 L 2.511 5.306 L 2.511 5.306 Z M 2.489 5.448 L 2.489 5.457 L 2.453 5.457 L 2.453 5.448 L 2.489 5.448 L 2.489 5.448 Z M 2.489 5.457 L 2.489 5.493 L 2.453 5.494 C 2.453 5.482 2.453 5.47 2.452 5.458 L 2.488 5.458 L 2.489 5.457 Z M 2.489 5.493 C 2.489 5.504 2.49 5.516 2.491 5.529 L 2.455 5.531 C 2.455 5.519 2.454 5.507 2.453 5.494 L 2.489 5.493 Z M 2.491 5.529 C 2.494 5.589 2.5 5.648 2.508 5.706 L 2.473 5.711 C 2.464 5.651 2.458 5.591 2.454 5.531 L 2.491 5.529 Z M 2.508 5.706 L 2.508 5.707 L 2.473 5.712 L 2.508 5.706 Z M 2.508 5.707 L 2.491 5.71 L 2.508 5.707 Z M 2.508 5.707 C 2.51 5.72 2.511 5.732 2.511 5.745 L 2.476 5.745 C 2.475 5.734 2.475 5.722 2.473 5.711 L 2.508 5.706 L 2.508 5.707 Z M 2.511 5.745 C 2.512 5.758 2.511 5.771 2.51 5.783 L 2.476 5.779 C 2.477 5.768 2.478 5.756 2.478 5.745 L 2.514 5.745 L 2.511 5.745 Z M 2.51 5.783 C 2.502 5.849 2.472 5.91 2.426 5.958 L 2.401 5.933 C 2.442 5.891 2.469 5.837 2.476 5.779 L 2.51 5.783 Z M 2.426 5.958 L 2.413 5.945 L 2.426 5.958 Z M 2.426 5.958 C 2.426 5.958 2.429 5.954 2.428 5.955 L 2.398 5.936 C 2.399 5.935 2.4 5.934 2.401 5.933 L 2.426 5.958 Z M 2.428 5.955 L 2.426 5.958 L 2.413 5.945 L 2.428 5.955 Z M 2.426 5.958 C 2.413 5.97 2.401 5.984 2.388 5.999 L 2.362 5.974 C 2.374 5.961 2.387 5.947 2.402 5.933 L 2.426 5.958 Z M 2.361 5.974 L 2.374 5.987 L 2.361 5.974 Z M 2.387 5.999 C 2.374 6.013 2.362 6.027 2.349 6.041 L 2.324 6.018 C 2.337 6.003 2.349 5.988 2.362 5.974 L 2.387 5.999 Z M 2.323 6.018 L 2.336 6.029 L 2.323 6.018 Z M 2.35 6.041 C 2.287 6.115 2.231 6.194 2.183 6.277 L 2.152 6.259 C 2.201 6.174 2.259 6.093 2.323 6.018 L 2.35 6.041 Z M 2.152 6.259 L 2.168 6.268 L 2.152 6.259 Z M 2.183 6.277 L 2.183 6.278 L 2.152 6.26 L 2.152 6.259 L 2.183 6.277 Z M 2.183 6.278 C 2.177 6.29 2.171 6.302 2.166 6.315 L 2.133 6.302 C 2.138 6.288 2.144 6.274 2.152 6.26 L 2.183 6.278 Z M 2.166 6.315 C 2.162 6.327 2.158 6.34 2.156 6.353 L 2.121 6.346 C 2.124 6.332 2.128 6.317 2.133 6.303 L 2.166 6.315 Z M 2.156 6.353 C 2.144 6.42 2.162 6.489 2.206 6.541 L 2.178 6.564 C 2.128 6.503 2.107 6.424 2.121 6.346 L 2.156 6.353 Z M 2.206 6.541 L 2.209 6.548 L 2.192 6.553 L 2.206 6.541 Z M 2.209 6.548 L 2.395 7.269 L 2.361 7.278 L 2.174 6.557 L 2.209 6.548 Z M 2.378 7.292 L 2.361 7.278 L 2.378 7.274 L 2.378 7.292 Z M 2.378 7.256 L 3.777 7.256 L 3.777 7.292 L 2.378 7.292 L 2.378 7.256 Z M 3.795 7.276 L 3.777 7.292 L 3.777 7.274 L 3.795 7.276 Z M 3.759 7.272 L 3.837 6.66 L 3.873 6.664 L 3.795 7.276 L 3.759 7.272 Z M 3.873 6.664 L 3.855 6.662 L 3.873 6.664 Z M 3.837 6.66 L 3.837 6.659 L 3.873 6.663 C 3.873 6.668 3.873 6.661 3.873 6.663 L 3.837 6.659 L 3.837 6.66 Z M 3.873 6.663 L 3.855 6.661 L 3.873 6.663 L 3.873 6.663 Z M 3.837 6.659 C 3.842 6.622 3.849 6.585 3.858 6.55 L 3.893 6.558 C 3.884 6.593 3.877 6.628 3.873 6.663 L 3.837 6.659 Z M 3.858 6.55 C 3.867 6.514 3.879 6.479 3.892 6.445 L 3.926 6.458 C 3.913 6.491 3.902 6.524 3.893 6.558 L 3.858 6.55 Z M 3.892 6.445 C 3.962 6.268 4.087 6.118 4.249 6.018 L 4.268 6.048 C 4.112 6.144 3.992 6.288 3.925 6.458 L 3.892 6.445 Z M 4.249 6.018 L 4.263 6.015 L 4.258 6.033 L 4.249 6.018 Z M 4.263 6.015 L 4.318 6.031 L 4.308 6.066 L 4.253 6.05 L 4.263 6.015 Z M 4.318 6.031 L 4.313 6.048 L 4.318 6.031 Z M 4.318 6.031 L 4.308 6.066 L 4.318 6.031 Z M 4.309 6.066 L 4.314 6.048 L 4.309 6.066 Z M 4.318 6.031 C 4.322 6.032 4.326 6.033 4.33 6.033 L 4.328 6.069 C 4.321 6.068 4.315 6.067 4.309 6.066 L 4.318 6.031 Z M 4.33 6.033 C 4.334 6.033 4.338 6.033 4.342 6.033 L 4.347 6.069 C 4.34 6.069 4.334 6.069 4.328 6.069 L 4.33 6.033 Z M 4.342 6.033 C 4.363 6.031 4.381 6.018 4.391 5.999 L 4.423 6.016 C 4.408 6.045 4.379 6.065 4.347 6.069 L 4.342 6.033 Z M 4.423 6.015 L 4.407 6.007 L 4.423 6.015 Z M 4.391 5.999 L 4.423 6.015 L 4.391 5.999 Z M 4.391 5.999 C 4.393 5.996 4.394 5.992 4.395 5.988 L 4.43 5.998 C 4.428 6.004 4.426 6.01 4.423 6.015 L 4.391 5.999 Z M 4.43 5.997 L 4.413 5.993 L 4.43 5.997 Z M 4.395 5.988 C 4.396 5.984 4.397 5.98 4.397 5.976 L 4.433 5.979 C 4.433 5.985 4.431 5.992 4.43 5.998 L 4.395 5.988 Z M 4.433 5.979 L 4.415 5.977 L 4.433 5.979 Z M 4.397 5.976 C 4.399 5.955 4.39 5.935 4.374 5.922 L 4.395 5.894 C 4.421 5.914 4.436 5.946 4.434 5.979 L 4.397 5.976 Z M 4.374 5.922 L 3.05 4.887 L 3.072 4.859 L 4.395 5.894 L 4.374 5.922 Z M 3.05 4.887 L 3.043 4.875 L 3.061 4.873 L 3.05 4.887 Z M 3.043 4.875 L 3.008 4.438 L 3.044 4.435 L 3.079 4.871 L 3.043 4.875 Z M 3.008 4.438 L 3.008 4.437 L 3.044 4.434 L 3.044 4.435 L 3.008 4.438 Z M 3.044 4.434 L 3.026 4.435 L 3.044 4.434 Z M 3.008 4.437 C 3.007 4.422 3.006 4.409 3.003 4.396 L 3.039 4.39 C 3.041 4.405 3.043 4.42 3.044 4.434 L 3.008 4.437 Z M 3.003 4.396 C 3.001 4.383 2.998 4.37 2.994 4.357 L 3.029 4.348 C 3.033 4.362 3.036 4.376 3.039 4.39 L 3.003 4.396 Z M 2.994 4.357 C 2.977 4.291 2.944 4.229 2.899 4.177 L 2.926 4.153 C 2.975 4.21 3.01 4.276 3.029 4.348"/>
  <path id="path870" d="M 2.908 5.347 L 2.874 5.337 L 2.874 5.334 L 2.908 5.346 L 2.908 5.347 Z M 2.908 5.347 L 2.891 5.342 L 2.908 5.347 Z M 2.908 5.347 C 2.905 5.356 2.903 5.366 2.901 5.376 L 2.866 5.368 C 2.868 5.357 2.871 5.346 2.874 5.336 L 2.908 5.347 Z M 2.901 5.376 C 2.898 5.385 2.897 5.395 2.896 5.405 L 2.861 5.402 C 2.862 5.39 2.863 5.379 2.866 5.368 L 2.901 5.376 Z M 2.896 5.405 C 2.891 5.455 2.901 5.506 2.925 5.55 L 2.893 5.567 C 2.867 5.516 2.855 5.459 2.861 5.402 L 2.896 5.405 Z M 2.925 5.55 L 2.893 5.567 L 2.925 5.55 Z M 2.925 5.55 C 2.93 5.559 2.935 5.567 2.94 5.576 L 2.911 5.596 C 2.904 5.586 2.898 5.577 2.893 5.567 L 2.925 5.55 Z M 2.94 5.576 C 2.946 5.584 2.952 5.592 2.958 5.599 L 2.931 5.622 C 2.924 5.614 2.917 5.605 2.911 5.596 L 2.94 5.576 Z M 2.958 5.599 C 2.992 5.637 3.035 5.665 3.084 5.679 L 3.074 5.714 C 3.019 5.698 2.969 5.666 2.931 5.622"/>
  <path id="path872" d="M 3.071 4.887 L 2.528 5.258 L 2.508 5.229 L 3.051 4.857"/>
  <path id="path874" class="cls-8" d="M 2.772 4.298 C 2.772 4.243 2.713 4.209 2.665 4.237 C 2.618 4.264 2.618 4.333 2.665 4.36 C 2.676 4.366 2.688 4.37 2.701 4.37 C 2.74 4.37 2.772 4.338 2.772 4.298"/>
  <path id="path876" d="M 2.754 4.298 Z M 2.754 4.298 C 2.754 4.284 2.749 4.27 2.739 4.26 L 2.764 4.235 C 2.781 4.251 2.79 4.274 2.79 4.298 L 2.754 4.298 Z M 2.739 4.26 C 2.729 4.25 2.715 4.244 2.701 4.245 L 2.701 4.21 C 2.724 4.21 2.747 4.219 2.763 4.236 L 2.738 4.261 L 2.739 4.26 Z M 2.701 4.209 Z M 2.701 4.245 L 2.701 4.21 L 2.701 4.245 Z M 2.701 4.245 L 2.701 4.21 L 2.701 4.245 Z M 2.701 4.245 C 2.686 4.244 2.673 4.25 2.662 4.26 L 2.637 4.235 C 2.654 4.218 2.676 4.209 2.7 4.209 L 2.701 4.245 Z M 2.662 4.26 C 2.652 4.27 2.647 4.284 2.647 4.298 L 2.611 4.298 C 2.611 4.275 2.62 4.252 2.637 4.236 L 2.662 4.261 L 2.662 4.26 Z M 2.611 4.298 Z M 2.647 4.298 L 2.611 4.298 L 2.647 4.298 Z M 2.647 4.298 Z M 2.647 4.298 C 2.647 4.313 2.652 4.326 2.662 4.336 L 2.638 4.362 C 2.621 4.345 2.612 4.322 2.612 4.299 L 2.647 4.298 Z M 2.662 4.336 C 2.673 4.346 2.686 4.352 2.701 4.352 L 2.701 4.388 C 2.677 4.388 2.655 4.378 2.638 4.362 L 2.663 4.336 L 2.662 4.336 Z M 2.701 4.388 Z M 2.701 4.352 L 2.701 4.388 L 2.701 4.352 Z M 2.701 4.352 L 2.701 4.388 L 2.701 4.352 Z M 2.701 4.352 C 2.715 4.352 2.729 4.346 2.739 4.336 L 2.764 4.362 C 2.748 4.378 2.725 4.388 2.701 4.388 L 2.701 4.352 Z M 2.739 4.336 C 2.749 4.326 2.754 4.313 2.754 4.298 L 2.79 4.298 C 2.79 4.322 2.781 4.344 2.764 4.361 L 2.739 4.336 L 2.739 4.336 Z M 2.79 4.298 Z M 2.754 4.298 L 2.79 4.298"/>
  <path id="path878" d="M 2.629 6 L 2.63 6 L 2.646 6.032 L 2.645 6.032 L 2.629 6 Z M 2.646 6.031 L 2.638 6.015 L 2.646 6.031 Z M 2.629 6 C 2.643 5.993 2.657 5.984 2.67 5.974 L 2.691 6.003 C 2.677 6.014 2.661 6.024 2.645 6.032 L 2.629 6 Z M 2.67 5.974 C 2.683 5.965 2.695 5.954 2.707 5.943 L 2.732 5.968 C 2.72 5.981 2.706 5.993 2.692 6.003 L 2.67 5.974 Z M 2.707 5.943 C 2.764 5.883 2.793 5.802 2.786 5.719 L 2.822 5.716 C 2.829 5.809 2.797 5.901 2.732 5.968"/>
  <path id="path880" d="M 2.875 5.621 L 2.873 5.621 L 2.857 5.589 L 2.859 5.589 L 2.875 5.621 Z M 2.857 5.589 L 2.865 5.606 L 2.857 5.589 Z M 2.874 5.621 C 2.869 5.624 2.864 5.627 2.86 5.63 L 2.838 5.601 C 2.844 5.597 2.85 5.593 2.857 5.589 L 2.874 5.621 Z M 2.86 5.63 C 2.855 5.633 2.851 5.637 2.848 5.641 L 2.822 5.616 C 2.827 5.611 2.832 5.606 2.838 5.601 L 2.86 5.63 Z M 2.848 5.641 C 2.829 5.661 2.819 5.688 2.822 5.716 L 2.786 5.719 C 2.782 5.681 2.795 5.643 2.822 5.616"/>
  <path id="path882" d="M 3.076 6.148 L 3.063 6.115 L 3.076 6.148 Z M 3.076 6.148 L 3.019 6.171 L 3.006 6.138 L 3.063 6.115 L 3.076 6.148 Z M 3.019 6.171 C 3 6.179 2.981 6.187 2.962 6.195 L 2.948 6.162 C 2.967 6.154 2.986 6.146 3.005 6.138 L 3.019 6.171 Z M 2.962 6.195 C 2.864 6.237 2.768 6.282 2.672 6.329 L 2.656 6.297 C 2.752 6.249 2.849 6.205 2.948 6.163"/>
  <path id="path884" d="M 3.063 6.114 L 3.076 6.148 L 3.063 6.114 Z M 3.077 6.147 L 3.071 6.131 L 3.077 6.147 Z M 3.064 6.114 C 3.084 6.106 3.103 6.097 3.122 6.086 L 3.14 6.117 C 3.12 6.128 3.099 6.139 3.077 6.147 L 3.064 6.114 Z M 3.122 6.086 C 3.14 6.075 3.158 6.063 3.175 6.05 L 3.197 6.078 C 3.179 6.092 3.16 6.104 3.14 6.116 L 3.122 6.086 Z M 3.175 6.05 C 3.262 5.981 3.321 5.883 3.341 5.774 L 3.376 5.78 C 3.355 5.898 3.291 6.004 3.197 6.078"/>
  <path id="path886" d="M 2.886 6.19 L 4.054 6.19 L 4.054 6.226 L 2.886 6.226"/>
  <path id="path888" class="cls-8" d="M 3.156 6.427 C 3.156 6.323 3.043 6.258 2.952 6.31 C 2.862 6.362 2.862 6.493 2.952 6.545 C 2.973 6.557 2.996 6.563 3.02 6.563 C 3.095 6.563 3.156 6.502 3.156 6.427"/>
  <path id="path890" d="M 3.138 6.427 Z M 3.138 6.427 C 3.138 6.396 3.125 6.367 3.103 6.345 L 3.129 6.319 C 3.157 6.348 3.174 6.387 3.174 6.427 L 3.138 6.427 Z M 3.129 6.319 L 3.116 6.332 L 3.129 6.319 Z M 3.103 6.345 C 3.081 6.323 3.052 6.31 3.021 6.31 L 3.021 6.274 C 3.061 6.274 3.1 6.29 3.129 6.319 L 3.103 6.345 Z M 3.021 6.31 L 3.021 6.274 L 3.021 6.31 Z M 3.021 6.31 L 3.021 6.274 L 3.021 6.31 Z M 3.021 6.31 C 2.989 6.31 2.96 6.323 2.938 6.345 L 2.912 6.319 C 2.941 6.29 2.98 6.274 3.021 6.274 L 3.021 6.31 Z M 2.938 6.345 C 2.916 6.366 2.903 6.396 2.903 6.427 L 2.867 6.427 C 2.867 6.387 2.884 6.348 2.912 6.319 L 2.938 6.345 Z M 2.903 6.427 L 2.867 6.427 L 2.903 6.427 Z M 2.903 6.427 Z M 2.903 6.427 C 2.903 6.458 2.916 6.488 2.938 6.51 L 2.912 6.536 C 2.884 6.507 2.867 6.468 2.867 6.427 L 2.903 6.427 Z M 2.938 6.51 C 2.96 6.532 2.989 6.544 3.02 6.544 L 3.02 6.58 C 2.98 6.58 2.941 6.564 2.912 6.536 L 2.938 6.51 Z M 3.02 6.544 L 3.02 6.58 L 3.02 6.544 Z M 3.02 6.544 L 3.02 6.58 L 3.02 6.544 Z M 3.02 6.544 C 3.051 6.544 3.081 6.532 3.103 6.51 L 3.129 6.535 C 3.1 6.564 3.061 6.58 3.02 6.58 L 3.02 6.544 Z M 3.129 6.535 L 3.116 6.523 L 3.129 6.535 L 3.129 6.535 Z M 3.103 6.51 C 3.125 6.488 3.138 6.458 3.138 6.427 L 3.174 6.427 C 3.174 6.468 3.157 6.507 3.129 6.535 L 3.103 6.51 Z M 3.138 6.427 L 3.174 6.427"/>
  <path id="path892" class="cls-8" d="M 3.695 6.427 C 3.695 6.323 3.582 6.258 3.492 6.31 C 3.402 6.362 3.402 6.493 3.492 6.545 C 3.513 6.557 3.536 6.563 3.56 6.563 C 3.635 6.563 3.695 6.502 3.695 6.427"/>
  <path id="path894" d="M 3.676 6.427 Z M 3.676 6.427 C 3.676 6.396 3.664 6.366 3.642 6.345 L 3.667 6.319 C 3.696 6.348 3.712 6.387 3.712 6.427 L 3.676 6.427 Z M 3.667 6.319 L 3.654 6.332 L 3.667 6.319 L 3.667 6.319 Z M 3.642 6.345 C 3.62 6.323 3.59 6.31 3.559 6.31 L 3.559 6.274 C 3.6 6.274 3.639 6.29 3.667 6.319 L 3.642 6.345 Z M 3.559 6.31 L 3.559 6.274 L 3.559 6.31 Z M 3.559 6.31 L 3.559 6.274 L 3.559 6.31 Z M 3.559 6.31 C 3.528 6.31 3.498 6.323 3.476 6.345 L 3.451 6.319 C 3.48 6.29 3.519 6.274 3.559 6.274 L 3.559 6.31 Z M 3.476 6.345 C 3.454 6.366 3.442 6.396 3.442 6.427 L 3.406 6.427 C 3.406 6.387 3.422 6.348 3.451 6.319 L 3.476 6.345 Z M 3.442 6.427 L 3.406 6.427 L 3.442 6.427 Z M 3.442 6.427 Z M 3.442 6.427 C 3.442 6.458 3.454 6.488 3.476 6.51 L 3.451 6.536 C 3.422 6.507 3.406 6.468 3.406 6.427 L 3.442 6.427 Z M 3.476 6.51 C 3.498 6.532 3.528 6.544 3.559 6.544 L 3.559 6.58 C 3.519 6.58 3.48 6.564 3.451 6.536 L 3.476 6.51 Z M 3.559 6.544 L 3.559 6.58 L 3.559 6.544 Z M 3.559 6.544 L 3.559 6.58 L 3.559 6.544 Z M 3.559 6.544 C 3.59 6.544 3.62 6.532 3.642 6.51 L 3.667 6.535 C 3.639 6.564 3.6 6.58 3.559 6.58 L 3.559 6.544 Z M 3.667 6.535 L 3.655 6.523 L 3.667 6.535 L 3.667 6.535 Z M 3.642 6.51 C 3.664 6.488 3.676 6.458 3.676 6.427 L 3.712 6.427 C 3.712 6.468 3.696 6.507 3.667 6.535 L 3.642 6.51 Z M 3.676 6.427 L 3.712 6.427"/>
  <path id="path896" d="M 3.284 5.949 L 3.303 5.954 L 3.294 5.989 L 3.275 5.983 L 3.284 5.949 Z M 3.303 5.954 C 3.313 5.957 3.322 5.959 3.332 5.962 L 3.324 5.996 C 3.314 5.994 3.303 5.992 3.294 5.989 L 3.303 5.954 Z M 3.332 5.962 C 3.342 5.964 3.351 5.966 3.361 5.967 L 3.354 6.003 C 3.344 6.001 3.334 5.999 3.324 5.996 L 3.332 5.962 Z M 3.361 5.967 C 3.406 5.976 3.452 5.98 3.498 5.979 L 3.498 6.015 C 3.45 6.016 3.402 6.011 3.354 6.003"/>
  <path id="path898" d="M 3.498 5.979 C 3.504 5.979 3.51 5.979 3.517 5.978 L 3.521 6.014 C 3.513 6.014 3.506 6.015 3.499 6.015 L 3.499 5.979 L 3.498 5.979 Z M 3.517 5.978 L 3.519 5.996 L 3.517 5.978 L 3.517 5.978 Z M 3.517 5.978 C 3.527 5.977 3.537 5.976 3.547 5.973 L 3.556 6.008 C 3.544 6.011 3.532 6.013 3.52 6.014 L 3.517 5.978 Z M 3.547 5.973 C 3.557 5.971 3.566 5.967 3.575 5.963 L 3.59 5.996 C 3.579 6.001 3.568 6.005 3.556 6.008 L 3.547 5.973 Z M 3.575 5.963 C 3.62 5.944 3.655 5.908 3.674 5.864 L 3.707 5.878 C 3.684 5.931 3.642 5.973 3.59 5.996"/>
  <path id="path900" d="M 4.253 6.05 L 3.074 5.714 L 3.084 5.68 L 4.263 6.014"/>
  <path id="path902" d="M 2.215 6.626 L 3.857 6.626 L 3.857 6.662 L 2.215 6.662"/>
  <path id="path904" d="M 2.594 6.983 L 3.812 6.983 L 3.812 7.019 L 2.594 7.019"/>
  <path id="path906" d="M 3.163 6.861 L 3.03 6.992 L 3.005 6.966 L 3.138 6.835"/>
  <path id="path908" d="M 2.91 6.848 L 3.044 6.979 L 3.018 7.005 L 2.885 6.874"/>
  <path id="path910" d="M 2.923 6.861 L 2.79 6.992 L 2.764 6.966 L 2.898 6.835"/>
  <path id="path912" d="M 2.67 6.848 L 2.803 6.979 L 2.778 7.005 L 2.645 6.874"/>
  <path id="path914" d="M 3.404 6.861 L 3.271 6.992 L 3.246 6.966 L 3.379 6.835"/>
  <path id="path916" d="M 3.151 6.848 L 3.284 6.966 L 3.259 6.992 L 3.126 6.874"/>
  <path id="path918" d="M 3.645 6.861 L 3.511 6.992 L 3.486 6.966 L 3.619 6.835"/>
  <path id="path920" d="M 3.391 6.848 L 3.525 6.966 L 3.5 6.992 L 3.366 6.874"/>
  <path id="path922" d="M 3.838 6.908 L 3.752 6.992 L 3.727 6.966 L 3.812 6.883"/>
  <path id="path924" d="M 3.632 6.848 L 3.765 6.979 L 3.74 7.005 L 3.607 6.874"/>
  <path id="path926" d="M 3.163 6.679 L 3.03 6.81 L 3.005 6.784 L 3.138 6.653"/>
  <path id="path928" d="M 2.91 6.667 L 3.044 6.798 L 3.018 6.823 L 2.885 6.692"/>
  <path id="path930" d="M 2.923 6.679 L 2.79 6.81 L 2.764 6.784 L 2.898 6.653"/>
  <path id="path932" d="M 2.67 6.667 L 2.803 6.798 L 2.778 6.823 L 2.645 6.692"/>
  <path id="path934" d="M 3.404 6.679 L 3.271 6.81 L 3.246 6.784 L 3.379 6.653"/>
  <path id="path936" d="M 3.151 6.667 L 3.284 6.798 L 3.259 6.823 L 3.126 6.692"/>
  <path id="path938" d="M 3.645 6.679 L 3.511 6.81 L 3.486 6.784 L 3.619 6.653"/>
  <path id="path940" d="M 3.391 6.667 L 3.525 6.798 L 3.5 6.823 L 3.366 6.692"/>
  <path id="path942" d="M 3.864 6.7 L 3.752 6.81 L 3.727 6.784 L 3.839 6.674"/>
  <path id="path944" d="M 3.632 6.667 L 3.765 6.798 L 3.74 6.823 L 3.607 6.692"/>
  <path id="path946" d="M 2.546 4.411 L 2.389 4.42 L 2.387 4.384 L 2.544 4.375"/>
  <path id="path948" d="M 2.644 6.032 L 2.629 6 L 2.644 6.032 L 2.644 6.032 Z M 2.629 6 L 2.636 6.016 L 2.629 6 Z M 2.645 6.032 C 2.615 6.047 2.586 6.065 2.559 6.085 L 2.538 6.057 C 2.566 6.035 2.597 6.016 2.629 6 L 2.645 6.032 Z M 2.559 6.085 C 2.533 6.105 2.509 6.128 2.487 6.152 L 2.461 6.128 C 2.484 6.102 2.509 6.078 2.537 6.057 L 2.559 6.085 Z M 2.487 6.152 C 2.372 6.279 2.326 6.454 2.362 6.621 L 2.327 6.629 C 2.288 6.45 2.337 6.264 2.459 6.128"/>
  <path id="path950" d="M 2.671 6.328 L 2.669 6.33 L 2.654 6.297 L 2.656 6.296 L 2.671 6.328 Z M 2.653 6.297 L 2.661 6.314 L 2.653 6.297 Z M 2.669 6.33 C 2.654 6.337 2.64 6.346 2.626 6.356 L 2.605 6.327 C 2.62 6.316 2.636 6.306 2.653 6.297 L 2.669 6.33 Z M 2.626 6.356 C 2.613 6.365 2.6 6.376 2.588 6.388 L 2.562 6.363 C 2.575 6.35 2.59 6.338 2.605 6.327 L 2.626 6.356 Z M 2.588 6.388 C 2.528 6.451 2.496 6.535 2.5 6.622 L 2.465 6.623 C 2.46 6.527 2.495 6.432 2.562 6.363"/>
  <path id="path952" d="M 2.25 6.453 L 2.216 6.45 L 2.25 6.453 Z M 2.216 6.464 L 2.25 6.453 L 2.216 6.45 L 2.216 6.464 Z M 2.25 6.453 C 2.253 6.462 2.256 6.47 2.259 6.479 L 2.226 6.492 C 2.222 6.482 2.219 6.473 2.216 6.464 L 2.25 6.453 Z M 2.259 6.479 C 2.262 6.487 2.266 6.496 2.27 6.504 L 2.238 6.519 C 2.233 6.51 2.229 6.501 2.226 6.492 L 2.259 6.479 Z M 2.27 6.504 C 2.29 6.545 2.32 6.582 2.356 6.611 L 2.334 6.639 C 2.293 6.607 2.261 6.566 2.238 6.519"/>
  <path id="path954" d="M 2.249 6.465 L 2.208 6.56 L 2.175 6.546 L 2.216 6.45"/>
  <path id="path956" d="M 2.328 6.629 L 2.329 6.616 L 2.361 6.632 L 2.328 6.629 Z M 2.361 6.632 L 2.33 6.616 L 2.361 6.632 Z M 2.33 6.616 C 2.334 6.608 2.338 6.599 2.342 6.591 L 2.374 6.607 L 2.361 6.633 L 2.33 6.616 Z M 2.342 6.591 L 2.354 6.566 L 2.386 6.581 C 2.382 6.591 2.378 6.6 2.374 6.607 L 2.342 6.591 Z M 2.354 6.566 C 2.374 6.523 2.391 6.478 2.405 6.433 L 2.439 6.443 C 2.425 6.49 2.407 6.536 2.386 6.581"/>
  <path id="path958" d="M 2.465 6.623 L 2.5 6.615 L 2.465 6.623 Z M 2.5 6.615 L 2.482 6.619 L 2.5 6.615 Z M 2.465 6.623 C 2.463 6.614 2.46 6.605 2.458 6.598 L 2.493 6.589 C 2.496 6.598 2.498 6.608 2.5 6.615 L 2.465 6.623 Z M 2.458 6.598 C 2.457 6.59 2.454 6.582 2.451 6.572 L 2.486 6.562 C 2.488 6.57 2.49 6.578 2.493 6.589 L 2.458 6.598 Z M 2.486 6.562 L 2.469 6.567 L 2.486 6.562 L 2.486 6.562 Z M 2.452 6.572 C 2.439 6.529 2.424 6.487 2.406 6.446 L 2.406 6.433 L 2.439 6.431 C 2.458 6.474 2.474 6.518 2.487 6.562"/>
  <path id="path960" d="M 2.629 7.27 L 2.577 7.002 L 2.612 6.995 L 2.664 7.263"/>
  <path id="path962" d="M 2.577 7.007 L 2.455 6.65 L 2.489 6.638 L 2.611 6.995"/>
  <path id="path964" d="M 2.682 6.861 L 2.587 6.955 L 2.562 6.93 L 2.657 6.835"/>
  <path id="path966" d="M 2.682 6.679 L 2.54 6.819 L 2.514 6.793 L 2.656 6.653"/>
</svg>