<?xml version="1.0" encoding="utf-8"?>
<svg xmlns="http://www.w3.org/2000/svg" width="451" height="451">
  <path fill-rule="evenodd" d="M 299.817 44.264 C 307.386 38.943 317.546 35.918 328.426 37.864 C 335.905 39.202 341.85 42.444 346.684 46.899 C 353.898 53.548 358.663 62.898 358.917 74.191 C 359.416 96.324 342 113.902 318.263 112.399 C 306.945 111.683 298.774 106.735 292.288 99.036 C 287.925 93.855 285.179 88.724 283.818 80.402 C 281.206 64.417 290.27 50.976 299.817 44.264 Z M 109.34 217.991 C 123.966 204.135 141.501 193.562 164.488 188.816 C 166.022 188.5 167.857 188.628 169.194 188.064 C 170.737 187.412 173.302 183.462 174.276 182.418 C 191.949 163.436 208.314 143.751 225.472 124.446 C 215.274 118.082 204.597 112.194 194.039 106.189 C 181.669 116.508 170.168 127.668 157.713 138.563 C 152.056 143.511 142.548 148.981 132.303 144.774 C 123.746 141.261 117.246 132.729 117.999 121.247 C 118.627 111.652 126.001 106.508 132.115 100.919 C 144.637 89.47 157.526 77.727 170.511 66.474 C 174.963 62.618 179.12 58.074 185.946 56.498 C 186.748 56.313 188.026 56.614 188.581 55.557 C 188.869 56.473 191.517 55.763 193.475 55.934 C 199.257 56.438 204.211 60.017 208.909 62.71 C 232.225 76.072 255.924 89.788 279.491 103.177 C 284.065 105.776 288.764 108.55 293.42 111.459 C 298.095 114.383 303.399 116.425 307.536 119.552 C 315.831 125.823 319.619 139.823 314.876 150.609 C 311.949 157.268 306.057 162.405 301.324 167.925 C 290.429 180.635 278.644 193.768 267.445 206.698 C 290.969 205.751 317.522 203.989 340.286 202.181 C 343.682 202.671 347.601 201.946 351.768 202.745 C 362.925 204.888 370.917 214.424 369.648 228.343 C 366.583 261.96 364.104 297.852 361.366 333.37 C 360.616 343.119 360.174 350.179 355.155 355.957 C 349.919 361.982 339.514 366.347 329.934 362.356 C 322.005 359.051 315.273 351.801 315.44 341.086 C 315.521 335.941 316.411 330.268 316.758 324.711 C 318.286 300.226 321.042 272.78 322.593 249.047 C 313.719 249.061 302.244 250.287 292.665 250.553 C 301.552 268.82 307.106 295.919 302.264 322.641 C 297.987 346.249 286.769 366.131 272.715 380.047 C 262.787 370.589 253.227 360.761 243.352 351.249 C 250.923 342.974 257.667 331.812 260.668 319.252 C 263.731 306.438 263.462 293.194 259.728 280.479 C 249.273 249.667 225.318 228.121 186.322 227.402 C 176.89 227.228 166.791 230.197 159.218 233.612 C 151.174 237.242 144.634 241.521 138.326 246.788 C 128.502 237.35 119.23 227.361 109.34 217.991 Z" clip-rule="evenodd" style=""/>
  <path fill-rule="evenodd" d="M 229.987 362.92 C 237.834 369.751 245.125 377.492 252.574 384.941 C 255.023 387.391 257.928 389.419 259.727 392.282 C 239.822 407.661 212.375 418.287 178.98 416.186 C 166.774 415.418 155.898 412.096 146.042 408.657 C 143.022 407.603 140.116 406.021 137.384 404.706 C 131.322 401.783 125.335 398.633 120.256 394.918 C 115.047 391.106 110.525 386.671 105.951 382.307 C 88.97 366.101 75.169 339.646 73.201 309.654 C 72.246 295.097 74.236 278.438 78.659 265.424 C 83.17 252.152 89.613 241.329 97.105 230.979 C 104.663 237.602 111.626 245.091 118.939 252.249 C 121.439 254.696 124.118 257.096 126.279 259.778 C 127.266 260.745 125.428 262.477 124.774 263.543 C 119.249 272.519 115.161 283.973 114.234 297.423 C 113.151 313.128 117.56 327.686 124.021 338.452 C 130.113 348.607 138.57 357.772 149.242 364.428 C 159.83 371.031 173.415 375.739 188.204 375.721 C 205.474 375.699 218.852 370.066 229.987 362.92 Z" clip-rule="evenodd" style="fill: rgb(0, 122, 120);"/>
</svg>