<svg xmlns="http://www.w3.org/2000/svg" viewBox="0 0 1504 1984"><g><path d="M32 32h320v568H32z" style="stroke:#daa555;stroke-width:8px;fill:rgba(218,165,85,.1)"/><text x="46.41" y="584.059" style="fill:#333;font-family:&quot;Inter&quot;;font-size:30px;font-weight:700;white-space:pre">small</text></g><g><g transform="rotate(90 120 719)"><path d="M32 32h425v775H32z" style="stroke:#55da7f;stroke-width:8px;fill:rgba(85,218,127,.1);stroke-dasharray:20px"/><text style="fill:#333;font-family:&quot;Inter&quot;;font-size:42px;font-weight:700;stroke-dasharray:20px;white-space:pre" transform="rotate(180 412.081 567.367)"><tspan x="496.004" y="1035.11">medium</tspan><tspan x="496.004" dy="1em">​</tspan><tspan>(landscape)</tspan></text></g><path d="M32 32h425v775H32z" style="stroke:#55da7f;stroke-width:8px;fill:rgba(85,218,127,.1)"/><text x="46.41" y="792.059" style="fill:#333;font-family:&quot;Inter&quot;;font-size:38px;font-weight:700;stroke-dasharray:20px;white-space:pre">medium</text></g><g transform="matrix(1.00911 0 0 1 -.292 0)"><g transform="matrix(0 -1.00911 .99097 0 .289 1430.292)"><path d="M32 32h768v1024H32z" style="stroke:#55b7da;stroke-width:8px;fill:rgba(85,183,218,.1);stroke-dasharray:20px"/><text x="46.41" y="1035.11" style="fill:#333;font-family:&quot;Inter&quot;;font-size:42px;font-weight:700;white-space:pre" transform="translate(438.338 -41.827)">large<tspan x="46.41" dy="1em">​</tspan>(landscape)</text></g><path d="M32 32h768v1024H32z" style="stroke:#55b7da;stroke-width:8px;fill:rgba(85,183,218,.1)"/><text x="46.41" y="1035.11" style="fill:#333;font-family:&quot;Inter&quot;;font-size:42px;font-weight:700;white-space:pre">large</text></g><g><path d="M32 32h1024v1366H32z" style="stroke:#5564da;stroke-width:8px;fill:rgba(85,100,218,.1)"/><text x="46.41" y="1384.06" style="fill:#333;font-family:&quot;Inter&quot;;font-size:42px;font-weight:700;white-space:pre">xlarge</text></g><g><path d="M32 32h1440v1920H32z" style="stroke:#b455da;stroke-width:8px;fill:rgba(180,85,218,.1)"/><text x="46.41" y="1931.11" style="fill:#333;font-family:&quot;Inter&quot;;font-size:42px;font-weight:700;white-space:pre">maximum</text></g></svg>